%TF.GenerationSoftware,KiCad,Pcbnew,6.0.6-3a73a75311~116~ubuntu22.04.1*%
%TF.CreationDate,2022-08-06T20:48:40+02:00*%
%TF.ProjectId,buck_3a_v4,6275636b-5f33-4615-9f76-342e6b696361,rev?*%
%TF.SameCoordinates,Original*%
%TF.FileFunction,Paste,Top*%
%TF.FilePolarity,Positive*%
%FSLAX46Y46*%
G04 Gerber Fmt 4.6, Leading zero omitted, Abs format (unit mm)*
G04 Created by KiCad (PCBNEW 6.0.6-3a73a75311~116~ubuntu22.04.1) date 2022-08-06 20:48:40*
%MOMM*%
%LPD*%
G01*
G04 APERTURE LIST*
G04 Aperture macros list*
%AMRoundRect*
0 Rectangle with rounded corners*
0 $1 Rounding radius*
0 $2 $3 $4 $5 $6 $7 $8 $9 X,Y pos of 4 corners*
0 Add a 4 corners polygon primitive as box body*
4,1,4,$2,$3,$4,$5,$6,$7,$8,$9,$2,$3,0*
0 Add four circle primitives for the rounded corners*
1,1,$1+$1,$2,$3*
1,1,$1+$1,$4,$5*
1,1,$1+$1,$6,$7*
1,1,$1+$1,$8,$9*
0 Add four rect primitives between the rounded corners*
20,1,$1+$1,$2,$3,$4,$5,0*
20,1,$1+$1,$4,$5,$6,$7,0*
20,1,$1+$1,$6,$7,$8,$9,0*
20,1,$1+$1,$8,$9,$2,$3,0*%
G04 Aperture macros list end*
%ADD10C,0.010000*%
%ADD11RoundRect,0.243750X-0.456250X0.243750X-0.456250X-0.243750X0.456250X-0.243750X0.456250X0.243750X0*%
%ADD12RoundRect,0.243750X-0.243750X-0.456250X0.243750X-0.456250X0.243750X0.456250X-0.243750X0.456250X0*%
%ADD13RoundRect,0.250000X0.375000X1.075000X-0.375000X1.075000X-0.375000X-1.075000X0.375000X-1.075000X0*%
%ADD14R,3.400000X2.000000*%
%ADD15R,2.500000X1.800000*%
%ADD16RoundRect,0.243750X0.456250X-0.243750X0.456250X0.243750X-0.456250X0.243750X-0.456250X-0.243750X0*%
%ADD17RoundRect,0.250000X0.650000X1.400000X-0.650000X1.400000X-0.650000X-1.400000X0.650000X-1.400000X0*%
%ADD18RoundRect,0.200000X0.200000X1.000000X-0.200000X1.000000X-0.200000X-1.000000X0.200000X-1.000000X0*%
%ADD19R,1.700000X0.650000*%
%ADD20R,0.420000X0.760000*%
%ADD21RoundRect,0.243750X0.243750X0.456250X-0.243750X0.456250X-0.243750X-0.456250X0.243750X-0.456250X0*%
%ADD22RoundRect,0.250000X0.425000X1.425000X-0.425000X1.425000X-0.425000X-1.425000X0.425000X-1.425000X0*%
%ADD23R,0.500000X0.750000*%
%ADD24R,1.500000X1.500000*%
%ADD25R,0.400000X0.750000*%
G04 APERTURE END LIST*
%TO.C,U1*%
G36*
X59330000Y-38270000D02*
G01*
X57870000Y-38270000D01*
X57870000Y-37330000D01*
X59330000Y-37330000D01*
X59330000Y-38270000D01*
G37*
D10*
X59330000Y-38270000D02*
X57870000Y-38270000D01*
X57870000Y-37330000D01*
X59330000Y-37330000D01*
X59330000Y-38270000D01*
%TD*%
D11*
%TO.C,R8*%
X40200000Y-63537500D03*
X40200000Y-61662500D03*
%TD*%
D12*
%TO.C,C3*%
X57900000Y-45700000D03*
X56025000Y-45700000D03*
%TD*%
%TO.C,C7*%
X59637500Y-34100000D03*
X57762500Y-34100000D03*
%TD*%
D13*
%TO.C,C1*%
X50000000Y-42800000D03*
X52800000Y-42800000D03*
%TD*%
D14*
%TO.C,L1*%
X37800000Y-37850000D03*
X37800000Y-43550000D03*
%TD*%
D15*
%TO.C,D1*%
X49400000Y-36900000D03*
X53400000Y-36900000D03*
%TD*%
D16*
%TO.C,C6*%
X43400000Y-56862500D03*
X43400000Y-58737500D03*
%TD*%
D17*
%TO.C,J3*%
X45150000Y-52300000D03*
X54850000Y-52300000D03*
D18*
X47750000Y-47250000D03*
X49250000Y-47250000D03*
X50750000Y-47250000D03*
X52250000Y-47250000D03*
%TD*%
D19*
%TO.C,U2*%
X53546000Y-58811000D03*
X53546000Y-60081000D03*
X53546000Y-61351000D03*
X53546000Y-62621000D03*
X46246000Y-62621000D03*
X46246000Y-61351000D03*
X46246000Y-60081000D03*
X46246000Y-58811000D03*
%TD*%
D20*
%TO.C,U1*%
X57650000Y-39285000D03*
X58600000Y-39285000D03*
X59550000Y-39285000D03*
X59550000Y-36315000D03*
X58600000Y-36315000D03*
X57650000Y-36315000D03*
%TD*%
D12*
%TO.C,R7*%
X48737500Y-56200000D03*
X46862500Y-56200000D03*
%TD*%
D16*
%TO.C,R6*%
X42846000Y-61641000D03*
X42846000Y-63516000D03*
%TD*%
%TO.C,R5*%
X60500000Y-61400000D03*
X60500000Y-63275000D03*
%TD*%
%TO.C,R4*%
X37946000Y-56778500D03*
X37946000Y-58653500D03*
%TD*%
D11*
%TO.C,R3*%
X40596000Y-58653500D03*
X40596000Y-56778500D03*
%TD*%
D21*
%TO.C,R2*%
X56508500Y-60816000D03*
X58383500Y-60816000D03*
%TD*%
D22*
%TO.C,R1*%
X55300000Y-42400000D03*
X61100000Y-42400000D03*
%TD*%
D23*
%TO.C,Q1*%
X46505000Y-37395000D03*
X45235000Y-37395000D03*
X43965000Y-37395000D03*
X42695000Y-37395000D03*
D24*
X45450000Y-40500000D03*
X43750000Y-40500000D03*
X45450000Y-38800000D03*
X43750000Y-38800000D03*
D25*
X46505000Y-43200000D03*
X45235000Y-43200000D03*
X43965000Y-43200000D03*
X42695000Y-43200000D03*
%TD*%
D12*
%TO.C,D2*%
X58375000Y-63600000D03*
X56500000Y-63600000D03*
%TD*%
D16*
%TO.C,C5*%
X58946000Y-56641000D03*
X58946000Y-58516000D03*
%TD*%
%TO.C,C4*%
X56646000Y-56678500D03*
X56646000Y-58553500D03*
%TD*%
D21*
%TO.C,C2*%
X50662500Y-39900000D03*
X52537500Y-39900000D03*
%TD*%
M02*
