%TF.GenerationSoftware,KiCad,Pcbnew,6.0.6-3a73a75311~116~ubuntu22.04.1*%
%TF.CreationDate,2022-08-06T20:48:40+02:00*%
%TF.ProjectId,buck_3a_v4,6275636b-5f33-4615-9f76-342e6b696361,rev?*%
%TF.SameCoordinates,Original*%
%TF.FileFunction,Copper,L1,Top*%
%TF.FilePolarity,Positive*%
%FSLAX46Y46*%
G04 Gerber Fmt 4.6, Leading zero omitted, Abs format (unit mm)*
G04 Created by KiCad (PCBNEW 6.0.6-3a73a75311~116~ubuntu22.04.1) date 2022-08-06 20:48:40*
%MOMM*%
%LPD*%
G01*
G04 APERTURE LIST*
G04 Aperture macros list*
%AMRoundRect*
0 Rectangle with rounded corners*
0 $1 Rounding radius*
0 $2 $3 $4 $5 $6 $7 $8 $9 X,Y pos of 4 corners*
0 Add a 4 corners polygon primitive as box body*
4,1,4,$2,$3,$4,$5,$6,$7,$8,$9,$2,$3,0*
0 Add four circle primitives for the rounded corners*
1,1,$1+$1,$2,$3*
1,1,$1+$1,$4,$5*
1,1,$1+$1,$6,$7*
1,1,$1+$1,$8,$9*
0 Add four rect primitives between the rounded corners*
20,1,$1+$1,$2,$3,$4,$5,0*
20,1,$1+$1,$4,$5,$6,$7,0*
20,1,$1+$1,$6,$7,$8,$9,0*
20,1,$1+$1,$8,$9,$2,$3,0*%
G04 Aperture macros list end*
%TA.AperFunction,SMDPad,CuDef*%
%ADD10RoundRect,0.243750X-0.456250X0.243750X-0.456250X-0.243750X0.456250X-0.243750X0.456250X0.243750X0*%
%TD*%
%TA.AperFunction,SMDPad,CuDef*%
%ADD11RoundRect,0.243750X-0.243750X-0.456250X0.243750X-0.456250X0.243750X0.456250X-0.243750X0.456250X0*%
%TD*%
%TA.AperFunction,SMDPad,CuDef*%
%ADD12RoundRect,0.250000X0.375000X1.075000X-0.375000X1.075000X-0.375000X-1.075000X0.375000X-1.075000X0*%
%TD*%
%TA.AperFunction,SMDPad,CuDef*%
%ADD13R,3.400000X2.000000*%
%TD*%
%TA.AperFunction,SMDPad,CuDef*%
%ADD14R,2.500000X1.800000*%
%TD*%
%TA.AperFunction,SMDPad,CuDef*%
%ADD15RoundRect,0.243750X0.456250X-0.243750X0.456250X0.243750X-0.456250X0.243750X-0.456250X-0.243750X0*%
%TD*%
%TA.AperFunction,ComponentPad*%
%ADD16C,4.000000*%
%TD*%
%TA.AperFunction,SMDPad,CuDef*%
%ADD17RoundRect,0.250000X0.650000X1.400000X-0.650000X1.400000X-0.650000X-1.400000X0.650000X-1.400000X0*%
%TD*%
%TA.AperFunction,SMDPad,CuDef*%
%ADD18RoundRect,0.200000X0.200000X1.000000X-0.200000X1.000000X-0.200000X-1.000000X0.200000X-1.000000X0*%
%TD*%
%TA.AperFunction,ComponentPad*%
%ADD19O,1.350000X1.350000*%
%TD*%
%TA.AperFunction,ComponentPad*%
%ADD20R,1.350000X1.350000*%
%TD*%
%TA.AperFunction,SMDPad,CuDef*%
%ADD21R,1.700000X0.650000*%
%TD*%
%TA.AperFunction,SMDPad,CuDef*%
%ADD22R,0.420000X0.760000*%
%TD*%
%TA.AperFunction,SMDPad,CuDef*%
%ADD23R,2.300000X1.500000*%
%TD*%
%TA.AperFunction,SMDPad,CuDef*%
%ADD24RoundRect,0.243750X0.243750X0.456250X-0.243750X0.456250X-0.243750X-0.456250X0.243750X-0.456250X0*%
%TD*%
%TA.AperFunction,SMDPad,CuDef*%
%ADD25RoundRect,0.250000X0.425000X1.425000X-0.425000X1.425000X-0.425000X-1.425000X0.425000X-1.425000X0*%
%TD*%
%TA.AperFunction,SMDPad,CuDef*%
%ADD26R,4.410000X4.550000*%
%TD*%
%TA.AperFunction,SMDPad,CuDef*%
%ADD27R,0.500000X0.850000*%
%TD*%
%TA.AperFunction,ViaPad*%
%ADD28C,0.800000*%
%TD*%
%TA.AperFunction,Conductor*%
%ADD29C,0.250000*%
%TD*%
%TA.AperFunction,Conductor*%
%ADD30C,0.500000*%
%TD*%
G04 APERTURE END LIST*
D10*
%TO.P,R8,2*%
%TO.N,GND*%
X40200000Y-63537500D03*
%TO.P,R8,1*%
%TO.N,/TMESS*%
X40200000Y-61662500D03*
%TD*%
D11*
%TO.P,C3,2*%
%TO.N,Net-(C3-Pad2)*%
X57900000Y-45700000D03*
%TO.P,C3,1*%
%TO.N,Net-(C3-Pad1)*%
X56025000Y-45700000D03*
%TD*%
%TO.P,C7,2*%
%TO.N,GND*%
X59637500Y-34100000D03*
%TO.P,C7,1*%
%TO.N,+5V*%
X57762500Y-34100000D03*
%TD*%
D12*
%TO.P,C1,2*%
%TO.N,GND*%
X50000000Y-42800000D03*
%TO.P,C1,1*%
%TO.N,VCC*%
X52800000Y-42800000D03*
%TD*%
D13*
%TO.P,L1,2*%
%TO.N,Net-(D1-Pad2)*%
X37800000Y-37850000D03*
%TO.P,L1,1*%
%TO.N,Net-(C3-Pad1)*%
X37800000Y-43550000D03*
%TD*%
D14*
%TO.P,D1,2*%
%TO.N,Net-(D1-Pad2)*%
X49400000Y-36900000D03*
%TO.P,D1,1*%
%TO.N,VCC*%
X53400000Y-36900000D03*
%TD*%
D15*
%TO.P,C6,2*%
%TO.N,GND*%
X43400000Y-56862500D03*
%TO.P,C6,1*%
%TO.N,/VMESS*%
X43400000Y-58737500D03*
%TD*%
D16*
%TO.P,LED+,1*%
%TO.N,Net-(C3-Pad2)*%
X60000000Y-50000000D03*
%TD*%
%TO.P,LED-,1*%
%TO.N,Net-(C3-Pad1)*%
X40000000Y-50000000D03*
%TD*%
D17*
%TO.P,J3,MP*%
%TO.N,N/C*%
X45150000Y-52300000D03*
X54850000Y-52300000D03*
D18*
%TO.P,J3,4*%
%TO.N,GND*%
X47750000Y-47250000D03*
%TO.P,J3,3*%
X49250000Y-47250000D03*
%TO.P,J3,2*%
%TO.N,/MODE*%
X50750000Y-47250000D03*
%TO.P,J3,1*%
%TO.N,VCC*%
X52250000Y-47250000D03*
%TD*%
D19*
%TO.P,J5,6*%
%TO.N,+5V*%
X44996000Y-68466000D03*
%TO.P,J5,5*%
%TO.N,GND*%
X46996000Y-68466000D03*
%TO.P,J5,4*%
%TO.N,/LED*%
X48996000Y-68466000D03*
%TO.P,J5,3*%
%TO.N,/RESET*%
X50996000Y-68466000D03*
%TO.P,J5,2*%
%TO.N,/PWM*%
X52996000Y-68466000D03*
D20*
%TO.P,J5,1*%
%TO.N,/MODE*%
X54996000Y-68466000D03*
%TD*%
D21*
%TO.P,U2,8*%
%TO.N,+5V*%
X53546000Y-58811000D03*
%TO.P,U2,7*%
%TO.N,/MODE*%
X53546000Y-60081000D03*
%TO.P,U2,6*%
%TO.N,/PWM*%
X53546000Y-61351000D03*
%TO.P,U2,5*%
%TO.N,/LED*%
X53546000Y-62621000D03*
%TO.P,U2,4*%
%TO.N,GND*%
X46246000Y-62621000D03*
%TO.P,U2,3*%
%TO.N,/TMESS*%
X46246000Y-61351000D03*
%TO.P,U2,2*%
%TO.N,/VMESS*%
X46246000Y-60081000D03*
%TO.P,U2,1*%
%TO.N,/RESET*%
X46246000Y-58811000D03*
%TD*%
D22*
%TO.P,U1,1*%
%TO.N,VCC*%
X57650000Y-39285000D03*
%TO.P,U1,2*%
%TO.N,Net-(C3-Pad2)*%
X58600000Y-39285000D03*
%TO.P,U1,3*%
%TO.N,/PWM*%
X59550000Y-39285000D03*
%TO.P,U1,4*%
%TO.N,GND*%
X59550000Y-36315000D03*
%TO.P,U1,5*%
%TO.N,Net-(Q1-Pad4)*%
X58600000Y-36315000D03*
%TO.P,U1,6*%
%TO.N,+5V*%
X57650000Y-36315000D03*
D23*
%TO.P,U1,7*%
%TO.N,GND*%
X58600000Y-37800000D03*
%TD*%
D11*
%TO.P,R7,2*%
%TO.N,/RESET*%
X48737500Y-56200000D03*
%TO.P,R7,1*%
%TO.N,+5V*%
X46862500Y-56200000D03*
%TD*%
D15*
%TO.P,R6,2*%
%TO.N,/TMESS*%
X42846000Y-61641000D03*
%TO.P,R6,1*%
%TO.N,+5V*%
X42846000Y-63516000D03*
%TD*%
%TO.P,R5,2*%
%TO.N,+5V*%
X60500000Y-61400000D03*
%TO.P,R5,1*%
%TO.N,Net-(D2-Pad2)*%
X60500000Y-63275000D03*
%TD*%
%TO.P,R4,2*%
%TO.N,GND*%
X37946000Y-56778500D03*
%TO.P,R4,1*%
%TO.N,/VMESS*%
X37946000Y-58653500D03*
%TD*%
D10*
%TO.P,R3,2*%
%TO.N,/VMESS*%
X40596000Y-58653500D03*
%TO.P,R3,1*%
%TO.N,VCC*%
X40596000Y-56778500D03*
%TD*%
D24*
%TO.P,R2,2*%
%TO.N,/MODE*%
X56508500Y-60816000D03*
%TO.P,R2,1*%
%TO.N,+5V*%
X58383500Y-60816000D03*
%TD*%
D25*
%TO.P,R1,2*%
%TO.N,VCC*%
X55300000Y-42400000D03*
%TO.P,R1,1*%
%TO.N,Net-(C3-Pad2)*%
X61100000Y-42400000D03*
%TD*%
D26*
%TO.P,Q1,5*%
%TO.N,Net-(D1-Pad2)*%
X44600000Y-39250000D03*
D27*
%TO.P,Q1,4*%
%TO.N,Net-(Q1-Pad4)*%
X46505000Y-43200000D03*
%TO.P,Q1,3*%
%TO.N,GND*%
X45235000Y-43200000D03*
%TO.P,Q1,2*%
X43965000Y-43200000D03*
%TO.P,Q1,1*%
X42695000Y-43200000D03*
%TD*%
D11*
%TO.P,D2,2*%
%TO.N,Net-(D2-Pad2)*%
X58375000Y-63600000D03*
%TO.P,D2,1*%
%TO.N,/LED*%
X56500000Y-63600000D03*
%TD*%
D15*
%TO.P,C5,2*%
%TO.N,GND*%
X58946000Y-56641000D03*
%TO.P,C5,1*%
%TO.N,+5V*%
X58946000Y-58516000D03*
%TD*%
%TO.P,C4,2*%
%TO.N,GND*%
X56646000Y-56678500D03*
%TO.P,C4,1*%
%TO.N,+5V*%
X56646000Y-58553500D03*
%TD*%
D24*
%TO.P,C2,2*%
%TO.N,GND*%
X50662500Y-39900000D03*
%TO.P,C2,1*%
%TO.N,VCC*%
X52537500Y-39900000D03*
%TD*%
D28*
%TO.N,GND*%
X59200000Y-37800000D03*
X57900000Y-37800000D03*
X44421000Y-62621000D03*
X45200000Y-44700000D03*
X44200000Y-44700000D03*
X43200000Y-44700000D03*
X37946002Y-55653998D03*
X55300000Y-56600000D03*
X60600000Y-37800000D03*
X60600000Y-36400000D03*
X46300000Y-44700000D03*
X48300000Y-44700000D03*
X47300000Y-44700000D03*
X42100000Y-56800000D03*
X40200000Y-65200000D03*
%TO.N,Net-(C3-Pad1)*%
X54800000Y-45700000D03*
%TO.N,+5V*%
X45600002Y-56200000D03*
X60446483Y-58553517D03*
X57700002Y-32400000D03*
%TO.N,/LED*%
X51721000Y-62700000D03*
%TO.N,/MODE*%
X50800000Y-49400000D03*
X51781000Y-60081000D03*
%TO.N,/PWM*%
X55200000Y-61400000D03*
X60800000Y-39300000D03*
%TO.N,Net-(Q1-Pad4)*%
X58600000Y-35300000D03*
X47499998Y-43200000D03*
%TD*%
D29*
%TO.N,GND*%
X46246000Y-62621000D02*
X44421000Y-62621000D01*
X58908500Y-56678500D02*
X58946000Y-56641000D01*
X56646000Y-56678500D02*
X58908500Y-56678500D01*
X37946000Y-56778500D02*
X37946000Y-55654000D01*
X37946000Y-55654000D02*
X37946002Y-55653998D01*
X55341000Y-56641000D02*
X55300000Y-56600000D01*
X58946000Y-56641000D02*
X55341000Y-56641000D01*
X59600000Y-36265000D02*
X59550000Y-36315000D01*
X42162500Y-56862500D02*
X42100000Y-56800000D01*
X43400000Y-56862500D02*
X42162500Y-56862500D01*
X40200000Y-63537500D02*
X40200000Y-65200000D01*
%TO.N,VCC*%
X57200000Y-42400000D02*
X57650000Y-41950000D01*
X57650000Y-41950000D02*
X57650000Y-39285000D01*
X55300000Y-42400000D02*
X57200000Y-42400000D01*
X52300000Y-47300000D02*
X52250000Y-47250000D01*
D30*
X52300000Y-50500000D02*
X52300000Y-47300000D01*
X48100000Y-54700000D02*
X52300000Y-50500000D01*
X42000000Y-54700000D02*
X48100000Y-54700000D01*
X40596000Y-56104000D02*
X42000000Y-54700000D01*
X40596000Y-56778500D02*
X40596000Y-56104000D01*
%TO.N,Net-(C3-Pad1)*%
X56025000Y-45700000D02*
X54800000Y-45700000D01*
D29*
%TO.N,+5V*%
X53557000Y-58800000D02*
X53546000Y-58811000D01*
X56399500Y-58800000D02*
X56646000Y-58553500D01*
X58908500Y-58553500D02*
X58946000Y-58516000D01*
D30*
X59800000Y-61400000D02*
X59300000Y-60900000D01*
D29*
X60500000Y-61400000D02*
X59800000Y-61400000D01*
X58467500Y-60900000D02*
X58383500Y-60816000D01*
D30*
X59300000Y-60900000D02*
X58467500Y-60900000D01*
D29*
X58400000Y-60799500D02*
X58383500Y-60816000D01*
D30*
X58400000Y-59800000D02*
X58400000Y-60799500D01*
X58946000Y-59254000D02*
X58400000Y-59800000D01*
X58946000Y-58516000D02*
X58946000Y-59254000D01*
X42846000Y-63516000D02*
X42846000Y-64146000D01*
X44996000Y-66296000D02*
X44996000Y-68466000D01*
X42846000Y-64146000D02*
X44996000Y-66296000D01*
X46862500Y-56200000D02*
X45600002Y-56200000D01*
X46430000Y-69900000D02*
X44996000Y-68466000D01*
X57561106Y-69900000D02*
X46430000Y-69900000D01*
X61900000Y-65561106D02*
X57561106Y-69900000D01*
X61900000Y-62800000D02*
X61900000Y-65561106D01*
X60500000Y-61400000D02*
X61900000Y-62800000D01*
X56646000Y-58553500D02*
X58908500Y-58553500D01*
X53557000Y-58800000D02*
X56399501Y-58800000D01*
X56399500Y-58800000D02*
X56399501Y-58800000D01*
X56399501Y-58800000D02*
X56645984Y-58553517D01*
X56645984Y-58553517D02*
X59880798Y-58553517D01*
X59880798Y-58553517D02*
X60446483Y-58553517D01*
D29*
X57700000Y-34475000D02*
X57725000Y-34500000D01*
X57650000Y-34575000D02*
X57725000Y-34500000D01*
D30*
X57650000Y-36315000D02*
X57650000Y-34575000D01*
X57700000Y-34475000D02*
X57700000Y-33000000D01*
X57700000Y-33000000D02*
X57700000Y-32400002D01*
X57700000Y-32400002D02*
X57700002Y-32400000D01*
D29*
%TO.N,Net-(D2-Pad2)*%
X60475000Y-63300000D02*
X60500000Y-63275000D01*
X58675000Y-63300000D02*
X60475000Y-63300000D01*
X58375000Y-63600000D02*
X58675000Y-63300000D01*
%TO.N,/LED*%
X53546000Y-63146000D02*
X53546000Y-62621000D01*
X53900000Y-63500000D02*
X53546000Y-63146000D01*
X56121000Y-63500000D02*
X53900000Y-63500000D01*
X51800000Y-62621000D02*
X51721000Y-62700000D01*
X53546000Y-62621000D02*
X51800000Y-62621000D01*
%TO.N,/MODE*%
X51781000Y-60081000D02*
X53546000Y-60081000D01*
X55773500Y-60081000D02*
X56508500Y-60816000D01*
X53546000Y-60081000D02*
X55773500Y-60081000D01*
X56508500Y-60816000D02*
X57312510Y-61620010D01*
X57312510Y-61620010D02*
X57312510Y-66149490D01*
X57312510Y-66149490D02*
X54996000Y-68466000D01*
X50750000Y-49350000D02*
X50800000Y-49400000D01*
X50750000Y-47250000D02*
X50750000Y-49350000D01*
%TO.N,/TMESS*%
X45956000Y-61641000D02*
X46246000Y-61351000D01*
X42846000Y-61641000D02*
X45956000Y-61641000D01*
X40221500Y-61641000D02*
X40200000Y-61662500D01*
X42846000Y-61641000D02*
X40221500Y-61641000D01*
%TO.N,/RESET*%
X45988500Y-58553500D02*
X46246000Y-58811000D01*
X46246000Y-58811000D02*
X48189000Y-58811000D01*
X50996000Y-61128500D02*
X50996000Y-68466000D01*
X48678500Y-58811000D02*
X50996000Y-61128500D01*
X47811000Y-58811000D02*
X48678500Y-58811000D01*
X48737500Y-58752000D02*
X48678500Y-58811000D01*
X48737500Y-56200000D02*
X48737500Y-58752000D01*
%TO.N,/PWM*%
X55151000Y-61351000D02*
X55200000Y-61400000D01*
X53546000Y-61351000D02*
X55151000Y-61351000D01*
X59565000Y-39300000D02*
X59550000Y-39285000D01*
X60800000Y-39300000D02*
X59565000Y-39300000D01*
D30*
%TO.N,Net-(Q1-Pad4)*%
X58600000Y-36315000D02*
X58600000Y-35300000D01*
X46505000Y-43200000D02*
X47499998Y-43200000D01*
D29*
%TO.N,/VMESS*%
X37946000Y-58653500D02*
X40596000Y-58653500D01*
X43316000Y-58653500D02*
X43400000Y-58737500D01*
X40596000Y-58653500D02*
X43316000Y-58653500D01*
X44743500Y-60081000D02*
X46246000Y-60081000D01*
X43400000Y-58737500D02*
X44743500Y-60081000D01*
%TO.N,Net-(C3-Pad2)*%
X58600000Y-42000000D02*
X58600000Y-39285000D01*
X59000000Y-42400000D02*
X58600000Y-42000000D01*
X61100000Y-42400000D02*
X59000000Y-42400000D01*
%TD*%
%TA.AperFunction,Conductor*%
%TO.N,GND*%
G36*
X51292121Y-38920002D02*
G01*
X51338614Y-38973658D01*
X51350000Y-39026000D01*
X51350001Y-45473846D01*
X51329999Y-45541967D01*
X51276343Y-45588460D01*
X51224039Y-45599846D01*
X50000000Y-45600191D01*
X50000000Y-45613729D01*
X50000001Y-48774000D01*
X49979999Y-48842121D01*
X49926343Y-48888614D01*
X49874001Y-48900000D01*
X47026000Y-48900000D01*
X46957879Y-48879998D01*
X46911386Y-48826342D01*
X46900000Y-48774000D01*
X46900000Y-45700000D01*
X42326000Y-45700000D01*
X42257879Y-45679998D01*
X42211386Y-45626342D01*
X42200000Y-45574000D01*
X42200000Y-42375976D01*
X42220002Y-42307855D01*
X42273658Y-42261362D01*
X42326002Y-42249976D01*
X43999662Y-42250000D01*
X45674002Y-42250025D01*
X45742122Y-42270028D01*
X45788614Y-42323684D01*
X45800000Y-42376025D01*
X45800000Y-43899948D01*
X46783898Y-43899970D01*
X48081883Y-43900000D01*
X48100000Y-43900000D01*
X48102000Y-43481085D01*
X48111092Y-43434691D01*
X48134004Y-43377695D01*
X48136840Y-43370641D01*
X48159160Y-43213807D01*
X48159305Y-43200000D01*
X48140274Y-43042733D01*
X48112789Y-42969997D01*
X48104656Y-42924857D01*
X48123274Y-39025398D01*
X48143602Y-38957374D01*
X48197479Y-38911138D01*
X48249273Y-38900000D01*
X51224000Y-38900000D01*
X51292121Y-38920002D01*
G37*
%TD.AperFunction*%
%TD*%
%TA.AperFunction,Conductor*%
%TO.N,GND*%
G36*
X61173566Y-33617313D02*
G01*
X61198876Y-33661150D01*
X61200000Y-33674000D01*
X61200000Y-38626000D01*
X61182687Y-38673566D01*
X61138850Y-38698876D01*
X61126000Y-38700000D01*
X60848010Y-38700000D01*
X60838351Y-38699367D01*
X60834622Y-38698876D01*
X60800000Y-38694318D01*
X60765379Y-38698876D01*
X60761649Y-38699367D01*
X60751990Y-38700000D01*
X57174000Y-38700000D01*
X57126434Y-38682687D01*
X57101124Y-38638850D01*
X57100000Y-38626000D01*
X57100000Y-36974000D01*
X57117313Y-36926434D01*
X57161150Y-36901124D01*
X57174000Y-36900000D01*
X59000000Y-36900000D01*
X59000000Y-36774823D01*
X59001422Y-36760386D01*
X59009790Y-36718318D01*
X59009790Y-36718317D01*
X59010500Y-36714748D01*
X59010500Y-36522523D01*
X59013945Y-36500209D01*
X59048706Y-36390298D01*
X59049980Y-36386270D01*
X59050500Y-36379663D01*
X59050500Y-35724446D01*
X59065792Y-35679398D01*
X59121584Y-35606689D01*
X59121586Y-35606686D01*
X59124536Y-35602841D01*
X59185044Y-35456762D01*
X59205682Y-35300000D01*
X59185044Y-35143238D01*
X59124536Y-34997159D01*
X59121586Y-34993315D01*
X59121584Y-34993311D01*
X59031236Y-34875568D01*
X59028282Y-34871718D01*
X59024434Y-34868765D01*
X59021672Y-34866003D01*
X59000281Y-34820126D01*
X59000000Y-34813679D01*
X59000000Y-33674000D01*
X59017313Y-33626434D01*
X59061150Y-33601124D01*
X59074000Y-33600000D01*
X61126000Y-33600000D01*
X61173566Y-33617313D01*
G37*
%TD.AperFunction*%
%TD*%
%TA.AperFunction,Conductor*%
%TO.N,Net-(C3-Pad2)*%
G36*
X63173566Y-40317313D02*
G01*
X63198876Y-40361150D01*
X63200000Y-40374000D01*
X63200000Y-52626000D01*
X63182687Y-52673566D01*
X63138850Y-52698876D01*
X63126000Y-52700000D01*
X57274000Y-52700000D01*
X57226434Y-52682687D01*
X57201124Y-52638850D01*
X57200000Y-52626000D01*
X57200000Y-44674000D01*
X57217313Y-44626434D01*
X57261150Y-44601124D01*
X57274000Y-44600000D01*
X59800000Y-44600000D01*
X59800000Y-40374000D01*
X59817313Y-40326434D01*
X59861150Y-40301124D01*
X59874000Y-40300000D01*
X63126000Y-40300000D01*
X63173566Y-40317313D01*
G37*
%TD.AperFunction*%
%TD*%
%TA.AperFunction,Conductor*%
%TO.N,VCC*%
G36*
X56572991Y-35617586D02*
G01*
X56598742Y-35661166D01*
X56600000Y-35674751D01*
X56600000Y-44626000D01*
X56582687Y-44673566D01*
X56538850Y-44698876D01*
X56526000Y-44700000D01*
X54400000Y-44700000D01*
X54400000Y-45213679D01*
X54382687Y-45261245D01*
X54378328Y-45266003D01*
X54375566Y-45268765D01*
X54371718Y-45271718D01*
X54368764Y-45275568D01*
X54278416Y-45393311D01*
X54278414Y-45393315D01*
X54275464Y-45397159D01*
X54214956Y-45543238D01*
X54194318Y-45700000D01*
X54214956Y-45856762D01*
X54275464Y-46002841D01*
X54278414Y-46006685D01*
X54278416Y-46006689D01*
X54347839Y-46097162D01*
X54371718Y-46128282D01*
X54375566Y-46131235D01*
X54378328Y-46133997D01*
X54399719Y-46179874D01*
X54400000Y-46186321D01*
X54400000Y-48827333D01*
X54382687Y-48874899D01*
X54338850Y-48900209D01*
X54327345Y-48901321D01*
X51725345Y-48948630D01*
X51677472Y-48932185D01*
X51651370Y-48888815D01*
X51650000Y-48874642D01*
X51650000Y-35723256D01*
X51667313Y-35675690D01*
X51711150Y-35650380D01*
X51723252Y-35649260D01*
X56525253Y-35600755D01*
X56572991Y-35617586D01*
G37*
%TD.AperFunction*%
%TD*%
%TA.AperFunction,Conductor*%
%TO.N,Net-(C3-Pad1)*%
G36*
X41873566Y-42267313D02*
G01*
X41898876Y-42311150D01*
X41900000Y-42324000D01*
X41900000Y-46100000D01*
X42926000Y-46100000D01*
X42973566Y-46117313D01*
X42998876Y-46161150D01*
X43000000Y-46174000D01*
X43000000Y-52826000D01*
X42982687Y-52873566D01*
X42938850Y-52898876D01*
X42926000Y-52900000D01*
X34574000Y-52900000D01*
X34526434Y-52882687D01*
X34501124Y-52838850D01*
X34500000Y-52826000D01*
X34500000Y-42324000D01*
X34517313Y-42276434D01*
X34561150Y-42251124D01*
X34574000Y-42250000D01*
X41826000Y-42250000D01*
X41873566Y-42267313D01*
G37*
%TD.AperFunction*%
%TD*%
%TA.AperFunction,Conductor*%
%TO.N,Net-(D1-Pad2)*%
G36*
X51173566Y-35617313D02*
G01*
X51198876Y-35661150D01*
X51200000Y-35674000D01*
X51200000Y-38526000D01*
X51182687Y-38573566D01*
X51138850Y-38598876D01*
X51126000Y-38600000D01*
X47700000Y-38600000D01*
X47700000Y-41726000D01*
X47682687Y-41773566D01*
X47638850Y-41798876D01*
X47626000Y-41800000D01*
X34574000Y-41800000D01*
X34526434Y-41782687D01*
X34501124Y-41738850D01*
X34500000Y-41726000D01*
X34500000Y-35674000D01*
X34517313Y-35626434D01*
X34561150Y-35601124D01*
X34574000Y-35600000D01*
X51126000Y-35600000D01*
X51173566Y-35617313D01*
G37*
%TD.AperFunction*%
%TD*%
M02*
