%TF.GenerationSoftware,KiCad,Pcbnew,6.0.6-3a73a75311~116~ubuntu22.04.1*%
%TF.CreationDate,2022-08-06T20:48:40+02:00*%
%TF.ProjectId,buck_3a_v4,6275636b-5f33-4615-9f76-342e6b696361,rev?*%
%TF.SameCoordinates,Original*%
%TF.FileFunction,Legend,Top*%
%TF.FilePolarity,Positive*%
%FSLAX46Y46*%
G04 Gerber Fmt 4.6, Leading zero omitted, Abs format (unit mm)*
G04 Created by KiCad (PCBNEW 6.0.6-3a73a75311~116~ubuntu22.04.1) date 2022-08-06 20:48:40*
%MOMM*%
%LPD*%
G01*
G04 APERTURE LIST*
%ADD10C,0.300000*%
%ADD11C,0.150000*%
%ADD12C,0.015000*%
%ADD13C,0.120000*%
%ADD14C,0.200000*%
%ADD15C,0.127000*%
G04 APERTURE END LIST*
D10*
X46107142Y-31271071D02*
X45392857Y-31271071D01*
X45392857Y-29771071D01*
X46607142Y-30485357D02*
X47107142Y-30485357D01*
X47321428Y-31271071D02*
X46607142Y-31271071D01*
X46607142Y-29771071D01*
X47321428Y-29771071D01*
X47964285Y-31271071D02*
X47964285Y-29771071D01*
X48321428Y-29771071D01*
X48535714Y-29842500D01*
X48678571Y-29985357D01*
X48750000Y-30128214D01*
X48821428Y-30413928D01*
X48821428Y-30628214D01*
X48750000Y-30913928D01*
X48678571Y-31056785D01*
X48535714Y-31199642D01*
X48321428Y-31271071D01*
X47964285Y-31271071D01*
X50464285Y-30271071D02*
X50821428Y-31271071D01*
X51178571Y-30271071D01*
X52392857Y-30271071D02*
X52392857Y-31271071D01*
X52035714Y-29699642D02*
X51678571Y-30771071D01*
X52607142Y-30771071D01*
X53178571Y-31128214D02*
X53250000Y-31199642D01*
X53178571Y-31271071D01*
X53107142Y-31199642D01*
X53178571Y-31128214D01*
X53178571Y-31271071D01*
X53750000Y-29771071D02*
X54678571Y-29771071D01*
X54178571Y-30342500D01*
X54392857Y-30342500D01*
X54535714Y-30413928D01*
X54607142Y-30485357D01*
X54678571Y-30628214D01*
X54678571Y-30985357D01*
X54607142Y-31128214D01*
X54535714Y-31199642D01*
X54392857Y-31271071D01*
X53964285Y-31271071D01*
X53821428Y-31199642D01*
X53750000Y-31128214D01*
X46250000Y-32257500D02*
X46107142Y-32186071D01*
X45892857Y-32186071D01*
X45678571Y-32257500D01*
X45535714Y-32400357D01*
X45464285Y-32543214D01*
X45392857Y-32828928D01*
X45392857Y-33043214D01*
X45464285Y-33328928D01*
X45535714Y-33471785D01*
X45678571Y-33614642D01*
X45892857Y-33686071D01*
X46035714Y-33686071D01*
X46250000Y-33614642D01*
X46321428Y-33543214D01*
X46321428Y-33043214D01*
X46035714Y-33043214D01*
X46892857Y-33614642D02*
X47107142Y-33686071D01*
X47464285Y-33686071D01*
X47607142Y-33614642D01*
X47678571Y-33543214D01*
X47750000Y-33400357D01*
X47750000Y-33257500D01*
X47678571Y-33114642D01*
X47607142Y-33043214D01*
X47464285Y-32971785D01*
X47178571Y-32900357D01*
X47035714Y-32828928D01*
X46964285Y-32757500D01*
X46892857Y-32614642D01*
X46892857Y-32471785D01*
X46964285Y-32328928D01*
X47035714Y-32257500D01*
X47178571Y-32186071D01*
X47535714Y-32186071D01*
X47750000Y-32257500D01*
X49464285Y-32328928D02*
X49535714Y-32257500D01*
X49678571Y-32186071D01*
X50035714Y-32186071D01*
X50178571Y-32257500D01*
X50250000Y-32328928D01*
X50321428Y-32471785D01*
X50321428Y-32614642D01*
X50250000Y-32828928D01*
X49392857Y-33686071D01*
X50321428Y-33686071D01*
X51250000Y-32186071D02*
X51392857Y-32186071D01*
X51535714Y-32257500D01*
X51607142Y-32328928D01*
X51678571Y-32471785D01*
X51750000Y-32757500D01*
X51750000Y-33114642D01*
X51678571Y-33400357D01*
X51607142Y-33543214D01*
X51535714Y-33614642D01*
X51392857Y-33686071D01*
X51250000Y-33686071D01*
X51107142Y-33614642D01*
X51035714Y-33543214D01*
X50964285Y-33400357D01*
X50892857Y-33114642D01*
X50892857Y-32757500D01*
X50964285Y-32471785D01*
X51035714Y-32328928D01*
X51107142Y-32257500D01*
X51250000Y-32186071D01*
X52321428Y-32328928D02*
X52392857Y-32257500D01*
X52535714Y-32186071D01*
X52892857Y-32186071D01*
X53035714Y-32257500D01*
X53107142Y-32328928D01*
X53178571Y-32471785D01*
X53178571Y-32614642D01*
X53107142Y-32828928D01*
X52250000Y-33686071D01*
X53178571Y-33686071D01*
X54607142Y-33686071D02*
X53750000Y-33686071D01*
X54178571Y-33686071D02*
X54178571Y-32186071D01*
X54035714Y-32400357D01*
X53892857Y-32543214D01*
X53750000Y-32614642D01*
D11*
%TO.C,R8*%
X40033333Y-60652380D02*
X39700000Y-60176190D01*
X39461904Y-60652380D02*
X39461904Y-59652380D01*
X39842857Y-59652380D01*
X39938095Y-59700000D01*
X39985714Y-59747619D01*
X40033333Y-59842857D01*
X40033333Y-59985714D01*
X39985714Y-60080952D01*
X39938095Y-60128571D01*
X39842857Y-60176190D01*
X39461904Y-60176190D01*
X40604761Y-60080952D02*
X40509523Y-60033333D01*
X40461904Y-59985714D01*
X40414285Y-59890476D01*
X40414285Y-59842857D01*
X40461904Y-59747619D01*
X40509523Y-59700000D01*
X40604761Y-59652380D01*
X40795238Y-59652380D01*
X40890476Y-59700000D01*
X40938095Y-59747619D01*
X40985714Y-59842857D01*
X40985714Y-59890476D01*
X40938095Y-59985714D01*
X40890476Y-60033333D01*
X40795238Y-60080952D01*
X40604761Y-60080952D01*
X40509523Y-60128571D01*
X40461904Y-60176190D01*
X40414285Y-60271428D01*
X40414285Y-60461904D01*
X40461904Y-60557142D01*
X40509523Y-60604761D01*
X40604761Y-60652380D01*
X40795238Y-60652380D01*
X40890476Y-60604761D01*
X40938095Y-60557142D01*
X40985714Y-60461904D01*
X40985714Y-60271428D01*
X40938095Y-60176190D01*
X40890476Y-60128571D01*
X40795238Y-60080952D01*
%TO.C,C3*%
X56733333Y-47857142D02*
X56685714Y-47904761D01*
X56542857Y-47952380D01*
X56447619Y-47952380D01*
X56304761Y-47904761D01*
X56209523Y-47809523D01*
X56161904Y-47714285D01*
X56114285Y-47523809D01*
X56114285Y-47380952D01*
X56161904Y-47190476D01*
X56209523Y-47095238D01*
X56304761Y-47000000D01*
X56447619Y-46952380D01*
X56542857Y-46952380D01*
X56685714Y-47000000D01*
X56733333Y-47047619D01*
X57066666Y-46952380D02*
X57685714Y-46952380D01*
X57352380Y-47333333D01*
X57495238Y-47333333D01*
X57590476Y-47380952D01*
X57638095Y-47428571D01*
X57685714Y-47523809D01*
X57685714Y-47761904D01*
X57638095Y-47857142D01*
X57590476Y-47904761D01*
X57495238Y-47952380D01*
X57209523Y-47952380D01*
X57114285Y-47904761D01*
X57066666Y-47857142D01*
%TO.C,C7*%
X59833333Y-32807142D02*
X59785714Y-32854761D01*
X59642857Y-32902380D01*
X59547619Y-32902380D01*
X59404761Y-32854761D01*
X59309523Y-32759523D01*
X59261904Y-32664285D01*
X59214285Y-32473809D01*
X59214285Y-32330952D01*
X59261904Y-32140476D01*
X59309523Y-32045238D01*
X59404761Y-31950000D01*
X59547619Y-31902380D01*
X59642857Y-31902380D01*
X59785714Y-31950000D01*
X59833333Y-31997619D01*
X60166666Y-31902380D02*
X60833333Y-31902380D01*
X60404761Y-32902380D01*
%TO.C,C1*%
X51233333Y-45437142D02*
X51185714Y-45484761D01*
X51042857Y-45532380D01*
X50947619Y-45532380D01*
X50804761Y-45484761D01*
X50709523Y-45389523D01*
X50661904Y-45294285D01*
X50614285Y-45103809D01*
X50614285Y-44960952D01*
X50661904Y-44770476D01*
X50709523Y-44675238D01*
X50804761Y-44580000D01*
X50947619Y-44532380D01*
X51042857Y-44532380D01*
X51185714Y-44580000D01*
X51233333Y-44627619D01*
X52185714Y-45532380D02*
X51614285Y-45532380D01*
X51900000Y-45532380D02*
X51900000Y-44532380D01*
X51804761Y-44675238D01*
X51709523Y-44770476D01*
X51614285Y-44818095D01*
%TO.C,L1*%
X37533333Y-36152380D02*
X37057142Y-36152380D01*
X37057142Y-35152380D01*
X38390476Y-36152380D02*
X37819047Y-36152380D01*
X38104761Y-36152380D02*
X38104761Y-35152380D01*
X38009523Y-35295238D01*
X37914285Y-35390476D01*
X37819047Y-35438095D01*
%TO.C,D1*%
X50561904Y-35352380D02*
X50561904Y-34352380D01*
X50800000Y-34352380D01*
X50942857Y-34400000D01*
X51038095Y-34495238D01*
X51085714Y-34590476D01*
X51133333Y-34780952D01*
X51133333Y-34923809D01*
X51085714Y-35114285D01*
X51038095Y-35209523D01*
X50942857Y-35304761D01*
X50800000Y-35352380D01*
X50561904Y-35352380D01*
X52085714Y-35352380D02*
X51514285Y-35352380D01*
X51800000Y-35352380D02*
X51800000Y-34352380D01*
X51704761Y-34495238D01*
X51609523Y-34590476D01*
X51514285Y-34638095D01*
%TO.C,C6*%
X43233333Y-55557142D02*
X43185714Y-55604761D01*
X43042857Y-55652380D01*
X42947619Y-55652380D01*
X42804761Y-55604761D01*
X42709523Y-55509523D01*
X42661904Y-55414285D01*
X42614285Y-55223809D01*
X42614285Y-55080952D01*
X42661904Y-54890476D01*
X42709523Y-54795238D01*
X42804761Y-54700000D01*
X42947619Y-54652380D01*
X43042857Y-54652380D01*
X43185714Y-54700000D01*
X43233333Y-54747619D01*
X44090476Y-54652380D02*
X43900000Y-54652380D01*
X43804761Y-54700000D01*
X43757142Y-54747619D01*
X43661904Y-54890476D01*
X43614285Y-55080952D01*
X43614285Y-55461904D01*
X43661904Y-55557142D01*
X43709523Y-55604761D01*
X43804761Y-55652380D01*
X43995238Y-55652380D01*
X44090476Y-55604761D01*
X44138095Y-55557142D01*
X44185714Y-55461904D01*
X44185714Y-55223809D01*
X44138095Y-55128571D01*
X44090476Y-55080952D01*
X43995238Y-55033333D01*
X43804761Y-55033333D01*
X43709523Y-55080952D01*
X43661904Y-55128571D01*
X43614285Y-55223809D01*
%TO.C,LED+*%
X60038095Y-46752380D02*
X59561904Y-46752380D01*
X59561904Y-45752380D01*
X60371428Y-46228571D02*
X60704761Y-46228571D01*
X60847619Y-46752380D02*
X60371428Y-46752380D01*
X60371428Y-45752380D01*
X60847619Y-45752380D01*
X61276190Y-46752380D02*
X61276190Y-45752380D01*
X61514285Y-45752380D01*
X61657142Y-45800000D01*
X61752380Y-45895238D01*
X61800000Y-45990476D01*
X61847619Y-46180952D01*
X61847619Y-46323809D01*
X61800000Y-46514285D01*
X61752380Y-46609523D01*
X61657142Y-46704761D01*
X61514285Y-46752380D01*
X61276190Y-46752380D01*
X62276190Y-46371428D02*
X63038095Y-46371428D01*
X62657142Y-46752380D02*
X62657142Y-45990476D01*
%TO.C,LED-*%
X37838095Y-46952380D02*
X37361904Y-46952380D01*
X37361904Y-45952380D01*
X38171428Y-46428571D02*
X38504761Y-46428571D01*
X38647619Y-46952380D02*
X38171428Y-46952380D01*
X38171428Y-45952380D01*
X38647619Y-45952380D01*
X39076190Y-46952380D02*
X39076190Y-45952380D01*
X39314285Y-45952380D01*
X39457142Y-46000000D01*
X39552380Y-46095238D01*
X39600000Y-46190476D01*
X39647619Y-46380952D01*
X39647619Y-46523809D01*
X39600000Y-46714285D01*
X39552380Y-46809523D01*
X39457142Y-46904761D01*
X39314285Y-46952380D01*
X39076190Y-46952380D01*
X40076190Y-46571428D02*
X40838095Y-46571428D01*
%TO.C,J3*%
X52866666Y-54852380D02*
X52866666Y-55566666D01*
X52819047Y-55709523D01*
X52723809Y-55804761D01*
X52580952Y-55852380D01*
X52485714Y-55852380D01*
X53247619Y-54852380D02*
X53866666Y-54852380D01*
X53533333Y-55233333D01*
X53676190Y-55233333D01*
X53771428Y-55280952D01*
X53819047Y-55328571D01*
X53866666Y-55423809D01*
X53866666Y-55661904D01*
X53819047Y-55757142D01*
X53771428Y-55804761D01*
X53676190Y-55852380D01*
X53390476Y-55852380D01*
X53295238Y-55804761D01*
X53247619Y-55757142D01*
%TO.C,J5*%
X49666666Y-70252380D02*
X49666666Y-70966666D01*
X49619047Y-71109523D01*
X49523809Y-71204761D01*
X49380952Y-71252380D01*
X49285714Y-71252380D01*
X50619047Y-70252380D02*
X50142857Y-70252380D01*
X50095238Y-70728571D01*
X50142857Y-70680952D01*
X50238095Y-70633333D01*
X50476190Y-70633333D01*
X50571428Y-70680952D01*
X50619047Y-70728571D01*
X50666666Y-70823809D01*
X50666666Y-71061904D01*
X50619047Y-71157142D01*
X50571428Y-71204761D01*
X50476190Y-71252380D01*
X50238095Y-71252380D01*
X50142857Y-71204761D01*
X50095238Y-71157142D01*
%TO.C,U2*%
X49134095Y-63852380D02*
X49134095Y-64661904D01*
X49181714Y-64757142D01*
X49229333Y-64804761D01*
X49324571Y-64852380D01*
X49515047Y-64852380D01*
X49610285Y-64804761D01*
X49657904Y-64757142D01*
X49705523Y-64661904D01*
X49705523Y-63852380D01*
X50134095Y-63947619D02*
X50181714Y-63900000D01*
X50276952Y-63852380D01*
X50515047Y-63852380D01*
X50610285Y-63900000D01*
X50657904Y-63947619D01*
X50705523Y-64042857D01*
X50705523Y-64138095D01*
X50657904Y-64280952D01*
X50086476Y-64852380D01*
X50705523Y-64852380D01*
D12*
%TO.C,U1*%
X56838095Y-34452380D02*
X56838095Y-35261904D01*
X56885714Y-35357142D01*
X56933333Y-35404761D01*
X57028571Y-35452380D01*
X57219047Y-35452380D01*
X57314285Y-35404761D01*
X57361904Y-35357142D01*
X57409523Y-35261904D01*
X57409523Y-34452380D01*
X58409523Y-35452380D02*
X57838095Y-35452380D01*
X58123809Y-35452380D02*
X58123809Y-34452380D01*
X58028571Y-34595238D01*
X57933333Y-34690476D01*
X57838095Y-34738095D01*
D11*
%TO.C,R7*%
X50333333Y-56852380D02*
X50000000Y-56376190D01*
X49761904Y-56852380D02*
X49761904Y-55852380D01*
X50142857Y-55852380D01*
X50238095Y-55900000D01*
X50285714Y-55947619D01*
X50333333Y-56042857D01*
X50333333Y-56185714D01*
X50285714Y-56280952D01*
X50238095Y-56328571D01*
X50142857Y-56376190D01*
X49761904Y-56376190D01*
X50666666Y-55852380D02*
X51333333Y-55852380D01*
X50904761Y-56852380D01*
%TO.C,R6*%
X42633333Y-60652380D02*
X42300000Y-60176190D01*
X42061904Y-60652380D02*
X42061904Y-59652380D01*
X42442857Y-59652380D01*
X42538095Y-59700000D01*
X42585714Y-59747619D01*
X42633333Y-59842857D01*
X42633333Y-59985714D01*
X42585714Y-60080952D01*
X42538095Y-60128571D01*
X42442857Y-60176190D01*
X42061904Y-60176190D01*
X43490476Y-59652380D02*
X43300000Y-59652380D01*
X43204761Y-59700000D01*
X43157142Y-59747619D01*
X43061904Y-59890476D01*
X43014285Y-60080952D01*
X43014285Y-60461904D01*
X43061904Y-60557142D01*
X43109523Y-60604761D01*
X43204761Y-60652380D01*
X43395238Y-60652380D01*
X43490476Y-60604761D01*
X43538095Y-60557142D01*
X43585714Y-60461904D01*
X43585714Y-60223809D01*
X43538095Y-60128571D01*
X43490476Y-60080952D01*
X43395238Y-60033333D01*
X43204761Y-60033333D01*
X43109523Y-60080952D01*
X43061904Y-60128571D01*
X43014285Y-60223809D01*
%TO.C,R5*%
X60433333Y-65252380D02*
X60100000Y-64776190D01*
X59861904Y-65252380D02*
X59861904Y-64252380D01*
X60242857Y-64252380D01*
X60338095Y-64300000D01*
X60385714Y-64347619D01*
X60433333Y-64442857D01*
X60433333Y-64585714D01*
X60385714Y-64680952D01*
X60338095Y-64728571D01*
X60242857Y-64776190D01*
X59861904Y-64776190D01*
X61338095Y-64252380D02*
X60861904Y-64252380D01*
X60814285Y-64728571D01*
X60861904Y-64680952D01*
X60957142Y-64633333D01*
X61195238Y-64633333D01*
X61290476Y-64680952D01*
X61338095Y-64728571D01*
X61385714Y-64823809D01*
X61385714Y-65061904D01*
X61338095Y-65157142D01*
X61290476Y-65204761D01*
X61195238Y-65252380D01*
X60957142Y-65252380D01*
X60861904Y-65204761D01*
X60814285Y-65157142D01*
%TO.C,R4*%
X35633333Y-57652380D02*
X35300000Y-57176190D01*
X35061904Y-57652380D02*
X35061904Y-56652380D01*
X35442857Y-56652380D01*
X35538095Y-56700000D01*
X35585714Y-56747619D01*
X35633333Y-56842857D01*
X35633333Y-56985714D01*
X35585714Y-57080952D01*
X35538095Y-57128571D01*
X35442857Y-57176190D01*
X35061904Y-57176190D01*
X36490476Y-56985714D02*
X36490476Y-57652380D01*
X36252380Y-56604761D02*
X36014285Y-57319047D01*
X36633333Y-57319047D01*
%TO.C,R3*%
X40433333Y-55552380D02*
X40100000Y-55076190D01*
X39861904Y-55552380D02*
X39861904Y-54552380D01*
X40242857Y-54552380D01*
X40338095Y-54600000D01*
X40385714Y-54647619D01*
X40433333Y-54742857D01*
X40433333Y-54885714D01*
X40385714Y-54980952D01*
X40338095Y-55028571D01*
X40242857Y-55076190D01*
X39861904Y-55076190D01*
X40766666Y-54552380D02*
X41385714Y-54552380D01*
X41052380Y-54933333D01*
X41195238Y-54933333D01*
X41290476Y-54980952D01*
X41338095Y-55028571D01*
X41385714Y-55123809D01*
X41385714Y-55361904D01*
X41338095Y-55457142D01*
X41290476Y-55504761D01*
X41195238Y-55552380D01*
X40909523Y-55552380D01*
X40814285Y-55504761D01*
X40766666Y-55457142D01*
%TO.C,R2*%
X60033333Y-60452380D02*
X59700000Y-59976190D01*
X59461904Y-60452380D02*
X59461904Y-59452380D01*
X59842857Y-59452380D01*
X59938095Y-59500000D01*
X59985714Y-59547619D01*
X60033333Y-59642857D01*
X60033333Y-59785714D01*
X59985714Y-59880952D01*
X59938095Y-59928571D01*
X59842857Y-59976190D01*
X59461904Y-59976190D01*
X60414285Y-59547619D02*
X60461904Y-59500000D01*
X60557142Y-59452380D01*
X60795238Y-59452380D01*
X60890476Y-59500000D01*
X60938095Y-59547619D01*
X60985714Y-59642857D01*
X60985714Y-59738095D01*
X60938095Y-59880952D01*
X60366666Y-60452380D01*
X60985714Y-60452380D01*
%TO.C,R1*%
X63013333Y-42688380D02*
X62680000Y-42212190D01*
X62441904Y-42688380D02*
X62441904Y-41688380D01*
X62822857Y-41688380D01*
X62918095Y-41736000D01*
X62965714Y-41783619D01*
X63013333Y-41878857D01*
X63013333Y-42021714D01*
X62965714Y-42116952D01*
X62918095Y-42164571D01*
X62822857Y-42212190D01*
X62441904Y-42212190D01*
X63965714Y-42688380D02*
X63394285Y-42688380D01*
X63680000Y-42688380D02*
X63680000Y-41688380D01*
X63584761Y-41831238D01*
X63489523Y-41926476D01*
X63394285Y-41974095D01*
%TO.C,Q1*%
X44504761Y-36347619D02*
X44409523Y-36300000D01*
X44314285Y-36204761D01*
X44171428Y-36061904D01*
X44076190Y-36014285D01*
X43980952Y-36014285D01*
X44028571Y-36252380D02*
X43933333Y-36204761D01*
X43838095Y-36109523D01*
X43790476Y-35919047D01*
X43790476Y-35585714D01*
X43838095Y-35395238D01*
X43933333Y-35300000D01*
X44028571Y-35252380D01*
X44219047Y-35252380D01*
X44314285Y-35300000D01*
X44409523Y-35395238D01*
X44457142Y-35585714D01*
X44457142Y-35919047D01*
X44409523Y-36109523D01*
X44314285Y-36204761D01*
X44219047Y-36252380D01*
X44028571Y-36252380D01*
X45409523Y-36252380D02*
X44838095Y-36252380D01*
X45123809Y-36252380D02*
X45123809Y-35252380D01*
X45028571Y-35395238D01*
X44933333Y-35490476D01*
X44838095Y-35538095D01*
%TO.C,D2*%
X56861904Y-66052380D02*
X56861904Y-65052380D01*
X57100000Y-65052380D01*
X57242857Y-65100000D01*
X57338095Y-65195238D01*
X57385714Y-65290476D01*
X57433333Y-65480952D01*
X57433333Y-65623809D01*
X57385714Y-65814285D01*
X57338095Y-65909523D01*
X57242857Y-66004761D01*
X57100000Y-66052380D01*
X56861904Y-66052380D01*
X57814285Y-65147619D02*
X57861904Y-65100000D01*
X57957142Y-65052380D01*
X58195238Y-65052380D01*
X58290476Y-65100000D01*
X58338095Y-65147619D01*
X58385714Y-65242857D01*
X58385714Y-65338095D01*
X58338095Y-65480952D01*
X57766666Y-66052380D01*
X58385714Y-66052380D01*
%TO.C,C5*%
X58833333Y-55557142D02*
X58785714Y-55604761D01*
X58642857Y-55652380D01*
X58547619Y-55652380D01*
X58404761Y-55604761D01*
X58309523Y-55509523D01*
X58261904Y-55414285D01*
X58214285Y-55223809D01*
X58214285Y-55080952D01*
X58261904Y-54890476D01*
X58309523Y-54795238D01*
X58404761Y-54700000D01*
X58547619Y-54652380D01*
X58642857Y-54652380D01*
X58785714Y-54700000D01*
X58833333Y-54747619D01*
X59738095Y-54652380D02*
X59261904Y-54652380D01*
X59214285Y-55128571D01*
X59261904Y-55080952D01*
X59357142Y-55033333D01*
X59595238Y-55033333D01*
X59690476Y-55080952D01*
X59738095Y-55128571D01*
X59785714Y-55223809D01*
X59785714Y-55461904D01*
X59738095Y-55557142D01*
X59690476Y-55604761D01*
X59595238Y-55652380D01*
X59357142Y-55652380D01*
X59261904Y-55604761D01*
X59214285Y-55557142D01*
%TO.C,C4*%
X56233333Y-55557142D02*
X56185714Y-55604761D01*
X56042857Y-55652380D01*
X55947619Y-55652380D01*
X55804761Y-55604761D01*
X55709523Y-55509523D01*
X55661904Y-55414285D01*
X55614285Y-55223809D01*
X55614285Y-55080952D01*
X55661904Y-54890476D01*
X55709523Y-54795238D01*
X55804761Y-54700000D01*
X55947619Y-54652380D01*
X56042857Y-54652380D01*
X56185714Y-54700000D01*
X56233333Y-54747619D01*
X57090476Y-54985714D02*
X57090476Y-55652380D01*
X56852380Y-54604761D02*
X56614285Y-55319047D01*
X57233333Y-55319047D01*
%TO.C,C2*%
X48533333Y-40157142D02*
X48485714Y-40204761D01*
X48342857Y-40252380D01*
X48247619Y-40252380D01*
X48104761Y-40204761D01*
X48009523Y-40109523D01*
X47961904Y-40014285D01*
X47914285Y-39823809D01*
X47914285Y-39680952D01*
X47961904Y-39490476D01*
X48009523Y-39395238D01*
X48104761Y-39300000D01*
X48247619Y-39252380D01*
X48342857Y-39252380D01*
X48485714Y-39300000D01*
X48533333Y-39347619D01*
X48914285Y-39347619D02*
X48961904Y-39300000D01*
X49057142Y-39252380D01*
X49295238Y-39252380D01*
X49390476Y-39300000D01*
X49438095Y-39347619D01*
X49485714Y-39442857D01*
X49485714Y-39538095D01*
X49438095Y-39680952D01*
X48866666Y-40252380D01*
X49485714Y-40252380D01*
D13*
%TO.C,R8*%
X40910000Y-62341422D02*
X40910000Y-62858578D01*
X39490000Y-62341422D02*
X39490000Y-62858578D01*
%TO.C,C3*%
X56703922Y-44990000D02*
X57221078Y-44990000D01*
X56703922Y-46410000D02*
X57221078Y-46410000D01*
%TO.C,C7*%
X58441422Y-33390000D02*
X58958578Y-33390000D01*
X58441422Y-34810000D02*
X58958578Y-34810000D01*
%TO.C,C1*%
X52002064Y-44160000D02*
X50797936Y-44160000D01*
X52002064Y-41440000D02*
X50797936Y-41440000D01*
%TO.C,L1*%
X35900000Y-44060000D02*
X35050000Y-44060000D01*
X34440000Y-43450000D02*
X34440000Y-37950000D01*
X35050000Y-37340000D02*
X35900000Y-37340000D01*
X39700000Y-37340000D02*
X40550000Y-37340000D01*
X40550000Y-44060000D02*
X39700000Y-44060000D01*
X41160000Y-37950000D02*
X41160000Y-43450000D01*
X41160000Y-37950000D02*
G75*
G03*
X40550000Y-37340000I-610000J0D01*
G01*
X40550000Y-44060000D02*
G75*
G03*
X41160000Y-43450000I0J610000D01*
G01*
X35050000Y-37340000D02*
G75*
G03*
X34440000Y-37950000I0J-610000D01*
G01*
X34440000Y-43450000D02*
G75*
G03*
X35050000Y-44060000I610000J0D01*
G01*
%TO.C,D1*%
X54800000Y-38550000D02*
X54800000Y-35250000D01*
X54800000Y-35250000D02*
X49400000Y-35250000D01*
X54800000Y-38550000D02*
X49400000Y-38550000D01*
%TO.C,C6*%
X44110000Y-58058578D02*
X44110000Y-57541422D01*
X42690000Y-58058578D02*
X42690000Y-57541422D01*
%TO.C,LED+*%
X62286000Y-50000000D02*
G75*
G03*
X62286000Y-50000000I-2286000J0D01*
G01*
%TO.C,LED-*%
X42286000Y-50000000D02*
G75*
G03*
X42286000Y-50000000I-2286000J0D01*
G01*
%TO.C,J3*%
X55360000Y-50390000D02*
X55360000Y-47640000D01*
X55360000Y-47640000D02*
X52910000Y-47640000D01*
X52910000Y-47640000D02*
X52910000Y-46050000D01*
X44640000Y-50390000D02*
X44640000Y-47640000D01*
X44640000Y-47640000D02*
X47090000Y-47640000D01*
X53690000Y-53660000D02*
X46310000Y-53660000D01*
%TO.C,J5*%
X43936000Y-67406000D02*
X43936000Y-69526000D01*
X53996000Y-67406000D02*
X43936000Y-67406000D01*
X53996000Y-69526000D02*
X43936000Y-69526000D01*
X53996000Y-67406000D02*
X53996000Y-69526000D01*
X54996000Y-67406000D02*
X56056000Y-67406000D01*
X56056000Y-67406000D02*
X56056000Y-68466000D01*
D11*
%TO.C,U2*%
X47146000Y-57961000D02*
X47146000Y-58166000D01*
X52646000Y-57961000D02*
X52646000Y-58261000D01*
X52646000Y-63471000D02*
X52646000Y-63171000D01*
X47146000Y-63471000D02*
X47146000Y-63171000D01*
X47146000Y-57961000D02*
X52646000Y-57961000D01*
X47146000Y-63471000D02*
X52646000Y-63471000D01*
X47146000Y-58166000D02*
X45396000Y-58166000D01*
D14*
%TO.C,U1*%
X57750000Y-40245000D02*
G75*
G03*
X57750000Y-40245000I-100000J0D01*
G01*
D15*
X57050000Y-39350000D02*
X57050000Y-36250000D01*
X60150000Y-39350000D02*
X60150000Y-36250000D01*
D13*
%TO.C,R7*%
X47541422Y-55490000D02*
X48058578Y-55490000D01*
X47541422Y-56910000D02*
X48058578Y-56910000D01*
%TO.C,R6*%
X42136000Y-62837078D02*
X42136000Y-62319922D01*
X43556000Y-62837078D02*
X43556000Y-62319922D01*
%TO.C,R5*%
X59790000Y-62596078D02*
X59790000Y-62078922D01*
X61210000Y-62596078D02*
X61210000Y-62078922D01*
%TO.C,R4*%
X37236000Y-57974578D02*
X37236000Y-57457422D01*
X38656000Y-57974578D02*
X38656000Y-57457422D01*
%TO.C,R3*%
X41306000Y-57457422D02*
X41306000Y-57974578D01*
X39886000Y-57457422D02*
X39886000Y-57974578D01*
%TO.C,R2*%
X57704578Y-61526000D02*
X57187422Y-61526000D01*
X57704578Y-60106000D02*
X57187422Y-60106000D01*
%TO.C,R1*%
X60252064Y-44110000D02*
X56147936Y-44110000D01*
X60252064Y-40690000D02*
X56147936Y-40690000D01*
%TO.C,Q1*%
X47285000Y-37240000D02*
X47285000Y-43360000D01*
X41915000Y-37240000D02*
X41915000Y-43360000D01*
X46935000Y-43360000D02*
X47285000Y-43360000D01*
X46985000Y-37240000D02*
X47285000Y-37240000D01*
X42215000Y-37240000D02*
X41915000Y-37240000D01*
%TO.C,D2*%
X58437500Y-62640000D02*
X55752500Y-62640000D01*
X55752500Y-62640000D02*
X55752500Y-64560000D01*
X55752500Y-64560000D02*
X58437500Y-64560000D01*
%TO.C,C5*%
X58236000Y-57837078D02*
X58236000Y-57319922D01*
X59656000Y-57837078D02*
X59656000Y-57319922D01*
%TO.C,C4*%
X55936000Y-57874578D02*
X55936000Y-57357422D01*
X57356000Y-57874578D02*
X57356000Y-57357422D01*
%TO.C,C2*%
X51858578Y-40610000D02*
X51341422Y-40610000D01*
X51858578Y-39190000D02*
X51341422Y-39190000D01*
%TD*%
M02*
