M48
; DRILL file {KiCad 6.0.6-3a73a75311~116~ubuntu22.04.1} date Sat 06 Aug 2022 20:48:40 CEST
; FORMAT={-:-/ absolute / inch / decimal}
; #@! TF.CreationDate,2022-08-06T20:48:40+02:00
; #@! TF.GenerationSoftware,Kicad,Pcbnew,6.0.6-3a73a75311~116~ubuntu22.04.1
; #@! TF.FileFunction,Plated,1,2,PTH
FMAT,2
INCH
; #@! TA.AperFunction,Plated,PTH,ViaDrill
T1C0.0157
; #@! TA.AperFunction,Plated,PTH,ComponentDrill
T2C0.0315
; #@! TA.AperFunction,Plated,PTH,ComponentDrill
T3C0.1181
%
G90
G05
T1
X1.4939Y-2.1911
X1.5827Y-2.5669
X1.6575Y-2.2362
X1.7008Y-1.7598
X1.7402Y-1.7598
X1.7489Y-2.4654
X1.7795Y-1.7598
X1.7953Y-2.2126
X1.8228Y-1.7598
X1.8622Y-1.7598
X1.8701Y-1.7008
X1.9016Y-1.7598
X2.0Y-1.9449
X2.0363Y-2.4685
X2.0386Y-2.3654
X2.1575Y-1.7992
X2.1732Y-2.4173
X2.1772Y-2.2283
X2.2717Y-1.2756
X2.2795Y-1.4882
X2.3071Y-1.3898
X2.3307Y-1.4882
X2.3798Y-2.3053
X2.3858Y-1.4331
X2.3858Y-1.4882
X2.3937Y-1.5472
T2
X1.7715Y-2.6955
X1.8502Y-2.6955
X1.929Y-2.6955
X2.0077Y-2.6955
X2.0865Y-2.6955
X2.1652Y-2.6955
T3
X1.5748Y-1.9685
X2.3622Y-1.9685
T0
M30
