%TF.GenerationSoftware,KiCad,Pcbnew,5.1.6+dfsg1-1*%
%TF.CreationDate,2021-04-16T09:38:54+02:00*%
%TF.ProjectId,buck_3a_v4,6275636b-5f33-4615-9f76-342e6b696361,rev?*%
%TF.SameCoordinates,Original*%
%TF.FileFunction,Soldermask,Top*%
%TF.FilePolarity,Negative*%
%FSLAX46Y46*%
G04 Gerber Fmt 4.6, Leading zero omitted, Abs format (unit mm)*
G04 Created by KiCad (PCBNEW 5.1.6+dfsg1-1) date 2021-04-16 09:38:54*
%MOMM*%
%LPD*%
G01*
G04 APERTURE LIST*
%ADD10R,3.500000X2.100000*%
%ADD11R,2.600000X1.900000*%
%ADD12C,4.100000*%
%ADD13C,3.300000*%
%ADD14O,1.450000X1.450000*%
%ADD15R,1.450000X1.450000*%
%ADD16R,1.800000X0.750000*%
%ADD17R,0.520000X0.860000*%
%ADD18R,2.400000X1.600000*%
%ADD19C,0.100000*%
%ADD20R,0.600000X0.950000*%
G04 APERTURE END LIST*
%TO.C,R8*%
G36*
G01*
X39718750Y-63000000D02*
X40681250Y-63000000D01*
G75*
G02*
X40950000Y-63268750I0J-268750D01*
G01*
X40950000Y-63806250D01*
G75*
G02*
X40681250Y-64075000I-268750J0D01*
G01*
X39718750Y-64075000D01*
G75*
G02*
X39450000Y-63806250I0J268750D01*
G01*
X39450000Y-63268750D01*
G75*
G02*
X39718750Y-63000000I268750J0D01*
G01*
G37*
G36*
G01*
X39718750Y-61125000D02*
X40681250Y-61125000D01*
G75*
G02*
X40950000Y-61393750I0J-268750D01*
G01*
X40950000Y-61931250D01*
G75*
G02*
X40681250Y-62200000I-268750J0D01*
G01*
X39718750Y-62200000D01*
G75*
G02*
X39450000Y-61931250I0J268750D01*
G01*
X39450000Y-61393750D01*
G75*
G02*
X39718750Y-61125000I268750J0D01*
G01*
G37*
%TD*%
%TO.C,C3*%
G36*
G01*
X57362500Y-46181250D02*
X57362500Y-45218750D01*
G75*
G02*
X57631250Y-44950000I268750J0D01*
G01*
X58168750Y-44950000D01*
G75*
G02*
X58437500Y-45218750I0J-268750D01*
G01*
X58437500Y-46181250D01*
G75*
G02*
X58168750Y-46450000I-268750J0D01*
G01*
X57631250Y-46450000D01*
G75*
G02*
X57362500Y-46181250I0J268750D01*
G01*
G37*
G36*
G01*
X55487500Y-46181250D02*
X55487500Y-45218750D01*
G75*
G02*
X55756250Y-44950000I268750J0D01*
G01*
X56293750Y-44950000D01*
G75*
G02*
X56562500Y-45218750I0J-268750D01*
G01*
X56562500Y-46181250D01*
G75*
G02*
X56293750Y-46450000I-268750J0D01*
G01*
X55756250Y-46450000D01*
G75*
G02*
X55487500Y-46181250I0J268750D01*
G01*
G37*
%TD*%
%TO.C,C7*%
G36*
G01*
X59100000Y-34581250D02*
X59100000Y-33618750D01*
G75*
G02*
X59368750Y-33350000I268750J0D01*
G01*
X59906250Y-33350000D01*
G75*
G02*
X60175000Y-33618750I0J-268750D01*
G01*
X60175000Y-34581250D01*
G75*
G02*
X59906250Y-34850000I-268750J0D01*
G01*
X59368750Y-34850000D01*
G75*
G02*
X59100000Y-34581250I0J268750D01*
G01*
G37*
G36*
G01*
X57225000Y-34581250D02*
X57225000Y-33618750D01*
G75*
G02*
X57493750Y-33350000I268750J0D01*
G01*
X58031250Y-33350000D01*
G75*
G02*
X58300000Y-33618750I0J-268750D01*
G01*
X58300000Y-34581250D01*
G75*
G02*
X58031250Y-34850000I-268750J0D01*
G01*
X57493750Y-34850000D01*
G75*
G02*
X57225000Y-34581250I0J268750D01*
G01*
G37*
%TD*%
%TO.C,C1*%
G36*
G01*
X50675000Y-41695000D02*
X50675000Y-43905000D01*
G75*
G02*
X50405000Y-44175000I-270000J0D01*
G01*
X49595000Y-44175000D01*
G75*
G02*
X49325000Y-43905000I0J270000D01*
G01*
X49325000Y-41695000D01*
G75*
G02*
X49595000Y-41425000I270000J0D01*
G01*
X50405000Y-41425000D01*
G75*
G02*
X50675000Y-41695000I0J-270000D01*
G01*
G37*
G36*
G01*
X53475000Y-41695000D02*
X53475000Y-43905000D01*
G75*
G02*
X53205000Y-44175000I-270000J0D01*
G01*
X52395000Y-44175000D01*
G75*
G02*
X52125000Y-43905000I0J270000D01*
G01*
X52125000Y-41695000D01*
G75*
G02*
X52395000Y-41425000I270000J0D01*
G01*
X53205000Y-41425000D01*
G75*
G02*
X53475000Y-41695000I0J-270000D01*
G01*
G37*
%TD*%
D10*
%TO.C,L1*%
X37800000Y-37850000D03*
X37800000Y-43550000D03*
%TD*%
D11*
%TO.C,D1*%
X49400000Y-36900000D03*
X53400000Y-36900000D03*
%TD*%
%TO.C,C6*%
G36*
G01*
X43881250Y-57400000D02*
X42918750Y-57400000D01*
G75*
G02*
X42650000Y-57131250I0J268750D01*
G01*
X42650000Y-56593750D01*
G75*
G02*
X42918750Y-56325000I268750J0D01*
G01*
X43881250Y-56325000D01*
G75*
G02*
X44150000Y-56593750I0J-268750D01*
G01*
X44150000Y-57131250D01*
G75*
G02*
X43881250Y-57400000I-268750J0D01*
G01*
G37*
G36*
G01*
X43881250Y-59275000D02*
X42918750Y-59275000D01*
G75*
G02*
X42650000Y-59006250I0J268750D01*
G01*
X42650000Y-58468750D01*
G75*
G02*
X42918750Y-58200000I268750J0D01*
G01*
X43881250Y-58200000D01*
G75*
G02*
X44150000Y-58468750I0J-268750D01*
G01*
X44150000Y-59006250D01*
G75*
G02*
X43881250Y-59275000I-268750J0D01*
G01*
G37*
%TD*%
D12*
%TO.C,LED+*%
X60000000Y-50000000D03*
%TD*%
%TO.C,LED-*%
X40000000Y-50000000D03*
%TD*%
D13*
%TO.C,H2*%
X68000000Y-50000000D03*
%TD*%
%TO.C,H1*%
X32000000Y-50000000D03*
%TD*%
%TO.C,J3*%
G36*
G01*
X46100000Y-50863889D02*
X46100000Y-53736111D01*
G75*
G02*
X45836111Y-54000000I-263889J0D01*
G01*
X44463889Y-54000000D01*
G75*
G02*
X44200000Y-53736111I0J263889D01*
G01*
X44200000Y-50863889D01*
G75*
G02*
X44463889Y-50600000I263889J0D01*
G01*
X45836111Y-50600000D01*
G75*
G02*
X46100000Y-50863889I0J-263889D01*
G01*
G37*
G36*
G01*
X55800000Y-50863889D02*
X55800000Y-53736111D01*
G75*
G02*
X55536111Y-54000000I-263889J0D01*
G01*
X54163889Y-54000000D01*
G75*
G02*
X53900000Y-53736111I0J263889D01*
G01*
X53900000Y-50863889D01*
G75*
G02*
X54163889Y-50600000I263889J0D01*
G01*
X55536111Y-50600000D01*
G75*
G02*
X55800000Y-50863889I0J-263889D01*
G01*
G37*
G36*
G01*
X48200000Y-46225000D02*
X48200000Y-48275000D01*
G75*
G02*
X47975000Y-48500000I-225000J0D01*
G01*
X47525000Y-48500000D01*
G75*
G02*
X47300000Y-48275000I0J225000D01*
G01*
X47300000Y-46225000D01*
G75*
G02*
X47525000Y-46000000I225000J0D01*
G01*
X47975000Y-46000000D01*
G75*
G02*
X48200000Y-46225000I0J-225000D01*
G01*
G37*
G36*
G01*
X49700000Y-46225000D02*
X49700000Y-48275000D01*
G75*
G02*
X49475000Y-48500000I-225000J0D01*
G01*
X49025000Y-48500000D01*
G75*
G02*
X48800000Y-48275000I0J225000D01*
G01*
X48800000Y-46225000D01*
G75*
G02*
X49025000Y-46000000I225000J0D01*
G01*
X49475000Y-46000000D01*
G75*
G02*
X49700000Y-46225000I0J-225000D01*
G01*
G37*
G36*
G01*
X51200000Y-46225000D02*
X51200000Y-48275000D01*
G75*
G02*
X50975000Y-48500000I-225000J0D01*
G01*
X50525000Y-48500000D01*
G75*
G02*
X50300000Y-48275000I0J225000D01*
G01*
X50300000Y-46225000D01*
G75*
G02*
X50525000Y-46000000I225000J0D01*
G01*
X50975000Y-46000000D01*
G75*
G02*
X51200000Y-46225000I0J-225000D01*
G01*
G37*
G36*
G01*
X52700000Y-46225000D02*
X52700000Y-48275000D01*
G75*
G02*
X52475000Y-48500000I-225000J0D01*
G01*
X52025000Y-48500000D01*
G75*
G02*
X51800000Y-48275000I0J225000D01*
G01*
X51800000Y-46225000D01*
G75*
G02*
X52025000Y-46000000I225000J0D01*
G01*
X52475000Y-46000000D01*
G75*
G02*
X52700000Y-46225000I0J-225000D01*
G01*
G37*
%TD*%
D14*
%TO.C,J5*%
X44996000Y-68466000D03*
X46996000Y-68466000D03*
X48996000Y-68466000D03*
X50996000Y-68466000D03*
X52996000Y-68466000D03*
D15*
X54996000Y-68466000D03*
%TD*%
D16*
%TO.C,U2*%
X53546000Y-58811000D03*
X53546000Y-60081000D03*
X53546000Y-61351000D03*
X53546000Y-62621000D03*
X46246000Y-62621000D03*
X46246000Y-61351000D03*
X46246000Y-60081000D03*
X46246000Y-58811000D03*
%TD*%
D17*
%TO.C,U1*%
X57650000Y-39285000D03*
X58600000Y-39285000D03*
X59550000Y-39285000D03*
X59550000Y-36315000D03*
X58600000Y-36315000D03*
X57650000Y-36315000D03*
D18*
X58600000Y-37800000D03*
%TD*%
%TO.C,R7*%
G36*
G01*
X48200000Y-56681250D02*
X48200000Y-55718750D01*
G75*
G02*
X48468750Y-55450000I268750J0D01*
G01*
X49006250Y-55450000D01*
G75*
G02*
X49275000Y-55718750I0J-268750D01*
G01*
X49275000Y-56681250D01*
G75*
G02*
X49006250Y-56950000I-268750J0D01*
G01*
X48468750Y-56950000D01*
G75*
G02*
X48200000Y-56681250I0J268750D01*
G01*
G37*
G36*
G01*
X46325000Y-56681250D02*
X46325000Y-55718750D01*
G75*
G02*
X46593750Y-55450000I268750J0D01*
G01*
X47131250Y-55450000D01*
G75*
G02*
X47400000Y-55718750I0J-268750D01*
G01*
X47400000Y-56681250D01*
G75*
G02*
X47131250Y-56950000I-268750J0D01*
G01*
X46593750Y-56950000D01*
G75*
G02*
X46325000Y-56681250I0J268750D01*
G01*
G37*
%TD*%
%TO.C,R6*%
G36*
G01*
X43327250Y-62178500D02*
X42364750Y-62178500D01*
G75*
G02*
X42096000Y-61909750I0J268750D01*
G01*
X42096000Y-61372250D01*
G75*
G02*
X42364750Y-61103500I268750J0D01*
G01*
X43327250Y-61103500D01*
G75*
G02*
X43596000Y-61372250I0J-268750D01*
G01*
X43596000Y-61909750D01*
G75*
G02*
X43327250Y-62178500I-268750J0D01*
G01*
G37*
G36*
G01*
X43327250Y-64053500D02*
X42364750Y-64053500D01*
G75*
G02*
X42096000Y-63784750I0J268750D01*
G01*
X42096000Y-63247250D01*
G75*
G02*
X42364750Y-62978500I268750J0D01*
G01*
X43327250Y-62978500D01*
G75*
G02*
X43596000Y-63247250I0J-268750D01*
G01*
X43596000Y-63784750D01*
G75*
G02*
X43327250Y-64053500I-268750J0D01*
G01*
G37*
%TD*%
%TO.C,R5*%
G36*
G01*
X60981250Y-61937500D02*
X60018750Y-61937500D01*
G75*
G02*
X59750000Y-61668750I0J268750D01*
G01*
X59750000Y-61131250D01*
G75*
G02*
X60018750Y-60862500I268750J0D01*
G01*
X60981250Y-60862500D01*
G75*
G02*
X61250000Y-61131250I0J-268750D01*
G01*
X61250000Y-61668750D01*
G75*
G02*
X60981250Y-61937500I-268750J0D01*
G01*
G37*
G36*
G01*
X60981250Y-63812500D02*
X60018750Y-63812500D01*
G75*
G02*
X59750000Y-63543750I0J268750D01*
G01*
X59750000Y-63006250D01*
G75*
G02*
X60018750Y-62737500I268750J0D01*
G01*
X60981250Y-62737500D01*
G75*
G02*
X61250000Y-63006250I0J-268750D01*
G01*
X61250000Y-63543750D01*
G75*
G02*
X60981250Y-63812500I-268750J0D01*
G01*
G37*
%TD*%
%TO.C,R4*%
G36*
G01*
X38427250Y-57316000D02*
X37464750Y-57316000D01*
G75*
G02*
X37196000Y-57047250I0J268750D01*
G01*
X37196000Y-56509750D01*
G75*
G02*
X37464750Y-56241000I268750J0D01*
G01*
X38427250Y-56241000D01*
G75*
G02*
X38696000Y-56509750I0J-268750D01*
G01*
X38696000Y-57047250D01*
G75*
G02*
X38427250Y-57316000I-268750J0D01*
G01*
G37*
G36*
G01*
X38427250Y-59191000D02*
X37464750Y-59191000D01*
G75*
G02*
X37196000Y-58922250I0J268750D01*
G01*
X37196000Y-58384750D01*
G75*
G02*
X37464750Y-58116000I268750J0D01*
G01*
X38427250Y-58116000D01*
G75*
G02*
X38696000Y-58384750I0J-268750D01*
G01*
X38696000Y-58922250D01*
G75*
G02*
X38427250Y-59191000I-268750J0D01*
G01*
G37*
%TD*%
%TO.C,R3*%
G36*
G01*
X40114750Y-58116000D02*
X41077250Y-58116000D01*
G75*
G02*
X41346000Y-58384750I0J-268750D01*
G01*
X41346000Y-58922250D01*
G75*
G02*
X41077250Y-59191000I-268750J0D01*
G01*
X40114750Y-59191000D01*
G75*
G02*
X39846000Y-58922250I0J268750D01*
G01*
X39846000Y-58384750D01*
G75*
G02*
X40114750Y-58116000I268750J0D01*
G01*
G37*
G36*
G01*
X40114750Y-56241000D02*
X41077250Y-56241000D01*
G75*
G02*
X41346000Y-56509750I0J-268750D01*
G01*
X41346000Y-57047250D01*
G75*
G02*
X41077250Y-57316000I-268750J0D01*
G01*
X40114750Y-57316000D01*
G75*
G02*
X39846000Y-57047250I0J268750D01*
G01*
X39846000Y-56509750D01*
G75*
G02*
X40114750Y-56241000I268750J0D01*
G01*
G37*
%TD*%
%TO.C,R2*%
G36*
G01*
X57046000Y-60334750D02*
X57046000Y-61297250D01*
G75*
G02*
X56777250Y-61566000I-268750J0D01*
G01*
X56239750Y-61566000D01*
G75*
G02*
X55971000Y-61297250I0J268750D01*
G01*
X55971000Y-60334750D01*
G75*
G02*
X56239750Y-60066000I268750J0D01*
G01*
X56777250Y-60066000D01*
G75*
G02*
X57046000Y-60334750I0J-268750D01*
G01*
G37*
G36*
G01*
X58921000Y-60334750D02*
X58921000Y-61297250D01*
G75*
G02*
X58652250Y-61566000I-268750J0D01*
G01*
X58114750Y-61566000D01*
G75*
G02*
X57846000Y-61297250I0J268750D01*
G01*
X57846000Y-60334750D01*
G75*
G02*
X58114750Y-60066000I268750J0D01*
G01*
X58652250Y-60066000D01*
G75*
G02*
X58921000Y-60334750I0J-268750D01*
G01*
G37*
%TD*%
%TO.C,R1*%
G36*
G01*
X56025000Y-40943518D02*
X56025000Y-43856482D01*
G75*
G02*
X55756482Y-44125000I-268518J0D01*
G01*
X54843518Y-44125000D01*
G75*
G02*
X54575000Y-43856482I0J268518D01*
G01*
X54575000Y-40943518D01*
G75*
G02*
X54843518Y-40675000I268518J0D01*
G01*
X55756482Y-40675000D01*
G75*
G02*
X56025000Y-40943518I0J-268518D01*
G01*
G37*
G36*
G01*
X61825000Y-40943518D02*
X61825000Y-43856482D01*
G75*
G02*
X61556482Y-44125000I-268518J0D01*
G01*
X60643518Y-44125000D01*
G75*
G02*
X60375000Y-43856482I0J268518D01*
G01*
X60375000Y-40943518D01*
G75*
G02*
X60643518Y-40675000I268518J0D01*
G01*
X61556482Y-40675000D01*
G75*
G02*
X61825000Y-40943518I0J-268518D01*
G01*
G37*
%TD*%
D19*
%TO.C,Q1*%
G36*
X42995000Y-36975000D02*
G01*
X42995000Y-37775000D01*
X43665000Y-37775000D01*
X43665000Y-36975000D01*
X44265000Y-36975000D01*
X44265000Y-37775000D01*
X44935000Y-37775000D01*
X44935000Y-36975000D01*
X45535000Y-36975000D01*
X45535000Y-37775000D01*
X46205000Y-37775000D01*
X46205000Y-36975000D01*
X46805000Y-36975000D01*
X46805000Y-41525000D01*
X42395000Y-41525000D01*
X42395000Y-36975000D01*
X42995000Y-36975000D01*
G37*
D20*
X46505000Y-43200000D03*
X45235000Y-43200000D03*
X43965000Y-43200000D03*
X42695000Y-43200000D03*
%TD*%
%TO.C,D2*%
G36*
G01*
X57837500Y-64081250D02*
X57837500Y-63118750D01*
G75*
G02*
X58106250Y-62850000I268750J0D01*
G01*
X58643750Y-62850000D01*
G75*
G02*
X58912500Y-63118750I0J-268750D01*
G01*
X58912500Y-64081250D01*
G75*
G02*
X58643750Y-64350000I-268750J0D01*
G01*
X58106250Y-64350000D01*
G75*
G02*
X57837500Y-64081250I0J268750D01*
G01*
G37*
G36*
G01*
X55962500Y-64081250D02*
X55962500Y-63118750D01*
G75*
G02*
X56231250Y-62850000I268750J0D01*
G01*
X56768750Y-62850000D01*
G75*
G02*
X57037500Y-63118750I0J-268750D01*
G01*
X57037500Y-64081250D01*
G75*
G02*
X56768750Y-64350000I-268750J0D01*
G01*
X56231250Y-64350000D01*
G75*
G02*
X55962500Y-64081250I0J268750D01*
G01*
G37*
%TD*%
%TO.C,C5*%
G36*
G01*
X59427250Y-57178500D02*
X58464750Y-57178500D01*
G75*
G02*
X58196000Y-56909750I0J268750D01*
G01*
X58196000Y-56372250D01*
G75*
G02*
X58464750Y-56103500I268750J0D01*
G01*
X59427250Y-56103500D01*
G75*
G02*
X59696000Y-56372250I0J-268750D01*
G01*
X59696000Y-56909750D01*
G75*
G02*
X59427250Y-57178500I-268750J0D01*
G01*
G37*
G36*
G01*
X59427250Y-59053500D02*
X58464750Y-59053500D01*
G75*
G02*
X58196000Y-58784750I0J268750D01*
G01*
X58196000Y-58247250D01*
G75*
G02*
X58464750Y-57978500I268750J0D01*
G01*
X59427250Y-57978500D01*
G75*
G02*
X59696000Y-58247250I0J-268750D01*
G01*
X59696000Y-58784750D01*
G75*
G02*
X59427250Y-59053500I-268750J0D01*
G01*
G37*
%TD*%
%TO.C,C4*%
G36*
G01*
X57127250Y-57216000D02*
X56164750Y-57216000D01*
G75*
G02*
X55896000Y-56947250I0J268750D01*
G01*
X55896000Y-56409750D01*
G75*
G02*
X56164750Y-56141000I268750J0D01*
G01*
X57127250Y-56141000D01*
G75*
G02*
X57396000Y-56409750I0J-268750D01*
G01*
X57396000Y-56947250D01*
G75*
G02*
X57127250Y-57216000I-268750J0D01*
G01*
G37*
G36*
G01*
X57127250Y-59091000D02*
X56164750Y-59091000D01*
G75*
G02*
X55896000Y-58822250I0J268750D01*
G01*
X55896000Y-58284750D01*
G75*
G02*
X56164750Y-58016000I268750J0D01*
G01*
X57127250Y-58016000D01*
G75*
G02*
X57396000Y-58284750I0J-268750D01*
G01*
X57396000Y-58822250D01*
G75*
G02*
X57127250Y-59091000I-268750J0D01*
G01*
G37*
%TD*%
%TO.C,C2*%
G36*
G01*
X51200000Y-39418750D02*
X51200000Y-40381250D01*
G75*
G02*
X50931250Y-40650000I-268750J0D01*
G01*
X50393750Y-40650000D01*
G75*
G02*
X50125000Y-40381250I0J268750D01*
G01*
X50125000Y-39418750D01*
G75*
G02*
X50393750Y-39150000I268750J0D01*
G01*
X50931250Y-39150000D01*
G75*
G02*
X51200000Y-39418750I0J-268750D01*
G01*
G37*
G36*
G01*
X53075000Y-39418750D02*
X53075000Y-40381250D01*
G75*
G02*
X52806250Y-40650000I-268750J0D01*
G01*
X52268750Y-40650000D01*
G75*
G02*
X52000000Y-40381250I0J268750D01*
G01*
X52000000Y-39418750D01*
G75*
G02*
X52268750Y-39150000I268750J0D01*
G01*
X52806250Y-39150000D01*
G75*
G02*
X53075000Y-39418750I0J-268750D01*
G01*
G37*
%TD*%
M02*
