%TF.GenerationSoftware,KiCad,Pcbnew,5.1.6+dfsg1-1*%
%TF.CreationDate,2021-04-16T09:38:54+02:00*%
%TF.ProjectId,buck_3a_v4,6275636b-5f33-4615-9f76-342e6b696361,rev?*%
%TF.SameCoordinates,Original*%
%TF.FileFunction,Other,User*%
%FSLAX46Y46*%
G04 Gerber Fmt 4.6, Leading zero omitted, Abs format (unit mm)*
G04 Created by KiCad (PCBNEW 5.1.6+dfsg1-1) date 2021-04-16 09:38:54*
%MOMM*%
%LPD*%
G01*
G04 APERTURE LIST*
%ADD10C,0.050000*%
G04 APERTURE END LIST*
D10*
%TO.C,R8*%
X39250000Y-64280000D02*
X39250000Y-60920000D01*
X41150000Y-64280000D02*
X39250000Y-64280000D01*
X41150000Y-60920000D02*
X41150000Y-64280000D01*
X39250000Y-60920000D02*
X41150000Y-60920000D01*
%TO.C,C3*%
X58642500Y-46650000D02*
X55282500Y-46650000D01*
X58642500Y-44750000D02*
X58642500Y-46650000D01*
X55282500Y-44750000D02*
X58642500Y-44750000D01*
X55282500Y-46650000D02*
X55282500Y-44750000D01*
%TO.C,C7*%
X60380000Y-35050000D02*
X57020000Y-35050000D01*
X60380000Y-33150000D02*
X60380000Y-35050000D01*
X57020000Y-33150000D02*
X60380000Y-33150000D01*
X57020000Y-35050000D02*
X57020000Y-33150000D01*
%TO.C,C1*%
X49120000Y-41220000D02*
X53680000Y-41220000D01*
X49120000Y-44380000D02*
X49120000Y-41220000D01*
X53680000Y-44380000D02*
X49120000Y-44380000D01*
X53680000Y-41220000D02*
X53680000Y-44380000D01*
%TO.C,L1*%
X41300000Y-44200000D02*
X39750000Y-44200000D01*
X39750000Y-37200000D02*
X41300000Y-37200000D01*
X39750000Y-44200000D02*
X39750000Y-44800000D01*
X39750000Y-36600000D02*
X39750000Y-37200000D01*
X34300000Y-37200000D02*
X35850000Y-37200000D01*
X35850000Y-37200000D02*
X35850000Y-36600000D01*
X35850000Y-44200000D02*
X34300000Y-44200000D01*
X35850000Y-44800000D02*
X35850000Y-44200000D01*
X39750000Y-44800000D02*
X35850000Y-44800000D01*
X41300000Y-37200000D02*
X41300000Y-44200000D01*
X35850000Y-36600000D02*
X39750000Y-36600000D01*
X34300000Y-44200000D02*
X34300000Y-37200000D01*
%TO.C,D1*%
X54900000Y-35150000D02*
X54900000Y-38650000D01*
X47900000Y-35150000D02*
X54900000Y-35150000D01*
X47900000Y-38650000D02*
X47900000Y-35150000D01*
X54900000Y-38650000D02*
X47900000Y-38650000D01*
%TO.C,C6*%
X44350000Y-59480000D02*
X42450000Y-59480000D01*
X42450000Y-59480000D02*
X42450000Y-56120000D01*
X42450000Y-56120000D02*
X44350000Y-56120000D01*
X44350000Y-56120000D02*
X44350000Y-59480000D01*
%TO.C,LED+*%
X62500000Y-50000000D02*
G75*
G03*
X62500000Y-50000000I-2500000J0D01*
G01*
%TO.C,LED-*%
X42500000Y-50000000D02*
G75*
G03*
X42500000Y-50000000I-2500000J0D01*
G01*
%TO.C,H2*%
X71450000Y-50000000D02*
G75*
G03*
X71450000Y-50000000I-3450000J0D01*
G01*
%TO.C,H1*%
X35450000Y-50000000D02*
G75*
G03*
X35450000Y-50000000I-3450000J0D01*
G01*
%TO.C,J3*%
X43750000Y-54450000D02*
X56250000Y-54450000D01*
X43750000Y-45550000D02*
X43750000Y-54450000D01*
X56250000Y-45550000D02*
X43750000Y-45550000D01*
X56250000Y-54450000D02*
X56250000Y-45550000D01*
%TO.C,J5*%
X56496000Y-69966000D02*
X56496000Y-66966000D01*
X43496000Y-69966000D02*
X56496000Y-69966000D01*
X43496000Y-66966000D02*
X43496000Y-69966000D01*
X56496000Y-66966000D02*
X43496000Y-66966000D01*
%TO.C,U2*%
X45146000Y-63666000D02*
X54646000Y-63666000D01*
X45146000Y-57766000D02*
X54646000Y-57766000D01*
X54646000Y-57766000D02*
X54646000Y-63666000D01*
X45146000Y-57766000D02*
X45146000Y-63666000D01*
%TO.C,U1*%
X56800000Y-35685000D02*
X60400000Y-35685000D01*
X56800000Y-39915000D02*
X60400000Y-39915000D01*
X60400000Y-39915000D02*
X60400000Y-35685000D01*
X56800000Y-39915000D02*
X56800000Y-35685000D01*
%TO.C,R7*%
X49480000Y-57150000D02*
X46120000Y-57150000D01*
X49480000Y-55250000D02*
X49480000Y-57150000D01*
X46120000Y-55250000D02*
X49480000Y-55250000D01*
X46120000Y-57150000D02*
X46120000Y-55250000D01*
%TO.C,R6*%
X43796000Y-60898500D02*
X43796000Y-64258500D01*
X41896000Y-60898500D02*
X43796000Y-60898500D01*
X41896000Y-64258500D02*
X41896000Y-60898500D01*
X43796000Y-64258500D02*
X41896000Y-64258500D01*
%TO.C,R5*%
X61450000Y-60657500D02*
X61450000Y-64017500D01*
X59550000Y-60657500D02*
X61450000Y-60657500D01*
X59550000Y-64017500D02*
X59550000Y-60657500D01*
X61450000Y-64017500D02*
X59550000Y-64017500D01*
%TO.C,R4*%
X38896000Y-56036000D02*
X38896000Y-59396000D01*
X36996000Y-56036000D02*
X38896000Y-56036000D01*
X36996000Y-59396000D02*
X36996000Y-56036000D01*
X38896000Y-59396000D02*
X36996000Y-59396000D01*
%TO.C,R3*%
X39646000Y-59396000D02*
X39646000Y-56036000D01*
X41546000Y-59396000D02*
X39646000Y-59396000D01*
X41546000Y-56036000D02*
X41546000Y-59396000D01*
X39646000Y-56036000D02*
X41546000Y-56036000D01*
%TO.C,R2*%
X55766000Y-59866000D02*
X59126000Y-59866000D01*
X55766000Y-61766000D02*
X55766000Y-59866000D01*
X59126000Y-61766000D02*
X55766000Y-61766000D01*
X59126000Y-59866000D02*
X59126000Y-61766000D01*
%TO.C,R1*%
X54380000Y-40480000D02*
X62020000Y-40480000D01*
X54380000Y-44320000D02*
X54380000Y-40480000D01*
X62020000Y-44320000D02*
X54380000Y-44320000D01*
X62020000Y-40480000D02*
X62020000Y-44320000D01*
%TO.C,Q1*%
X47430000Y-36720000D02*
X41770000Y-36720000D01*
X41770000Y-36720000D02*
X41770000Y-43880000D01*
X41770000Y-43880000D02*
X47430000Y-43880000D01*
X47430000Y-43880000D02*
X47430000Y-36720000D01*
%TO.C,D2*%
X59117500Y-64550000D02*
X55757500Y-64550000D01*
X59117500Y-62650000D02*
X59117500Y-64550000D01*
X55757500Y-62650000D02*
X59117500Y-62650000D01*
X55757500Y-64550000D02*
X55757500Y-62650000D01*
%TO.C,C5*%
X59896000Y-55898500D02*
X59896000Y-59258500D01*
X57996000Y-55898500D02*
X59896000Y-55898500D01*
X57996000Y-59258500D02*
X57996000Y-55898500D01*
X59896000Y-59258500D02*
X57996000Y-59258500D01*
%TO.C,C4*%
X57596000Y-55936000D02*
X57596000Y-59296000D01*
X55696000Y-55936000D02*
X57596000Y-55936000D01*
X55696000Y-59296000D02*
X55696000Y-55936000D01*
X57596000Y-59296000D02*
X55696000Y-59296000D01*
%TO.C,C2*%
X49920000Y-38950000D02*
X53280000Y-38950000D01*
X49920000Y-40850000D02*
X49920000Y-38950000D01*
X53280000Y-40850000D02*
X49920000Y-40850000D01*
X53280000Y-38950000D02*
X53280000Y-40850000D01*
%TD*%
M02*
