%TF.GenerationSoftware,KiCad,Pcbnew,5.1.6+dfsg1-1*%
%TF.CreationDate,2021-04-16T09:38:54+02:00*%
%TF.ProjectId,buck_3a_v4,6275636b-5f33-4615-9f76-342e6b696361,rev?*%
%TF.SameCoordinates,Original*%
%TF.FileFunction,Copper,L2,Bot*%
%TF.FilePolarity,Positive*%
%FSLAX46Y46*%
G04 Gerber Fmt 4.6, Leading zero omitted, Abs format (unit mm)*
G04 Created by KiCad (PCBNEW 5.1.6+dfsg1-1) date 2021-04-16 09:38:54*
%MOMM*%
%LPD*%
G01*
G04 APERTURE LIST*
%TA.AperFunction,ComponentPad*%
%ADD10C,4.000000*%
%TD*%
%TA.AperFunction,ComponentPad*%
%ADD11O,1.350000X1.350000*%
%TD*%
%TA.AperFunction,ComponentPad*%
%ADD12R,1.350000X1.350000*%
%TD*%
%TA.AperFunction,ViaPad*%
%ADD13C,0.800000*%
%TD*%
%TA.AperFunction,Conductor*%
%ADD14C,0.500000*%
%TD*%
%TA.AperFunction,Conductor*%
%ADD15C,0.250000*%
%TD*%
%TA.AperFunction,Conductor*%
%ADD16C,0.254000*%
%TD*%
G04 APERTURE END LIST*
D10*
%TO.P,LED+,1*%
%TO.N,Net-(C3-Pad2)*%
X60000000Y-50000000D03*
%TD*%
%TO.P,LED-,1*%
%TO.N,Net-(C3-Pad1)*%
X40000000Y-50000000D03*
%TD*%
D11*
%TO.P,J5,6*%
%TO.N,+5V*%
X44996000Y-68466000D03*
%TO.P,J5,5*%
%TO.N,GND*%
X46996000Y-68466000D03*
%TO.P,J5,4*%
%TO.N,/LED*%
X48996000Y-68466000D03*
%TO.P,J5,3*%
%TO.N,/RESET*%
X50996000Y-68466000D03*
%TO.P,J5,2*%
%TO.N,/PWM*%
X52996000Y-68466000D03*
D12*
%TO.P,J5,1*%
%TO.N,/MODE*%
X54996000Y-68466000D03*
%TD*%
D13*
%TO.N,GND*%
X59200000Y-37800000D03*
X57900000Y-37800000D03*
X44421000Y-62621000D03*
X45200000Y-44700000D03*
X44200000Y-44700000D03*
X43200000Y-44700000D03*
X37946002Y-55653998D03*
X55300000Y-56600000D03*
X60600000Y-37800000D03*
X60600000Y-36400000D03*
X46300000Y-44700000D03*
X48300000Y-44700000D03*
X47300000Y-44700000D03*
X42100000Y-56800000D03*
X40200000Y-65200000D03*
%TO.N,Net-(C3-Pad1)*%
X54800000Y-45700000D03*
%TO.N,+5V*%
X45600002Y-56200000D03*
X60446483Y-58553517D03*
X57700002Y-32400000D03*
%TO.N,/LED*%
X51721000Y-62700000D03*
%TO.N,/MODE*%
X50800000Y-49400000D03*
X51781000Y-60081000D03*
%TO.N,/PWM*%
X55200000Y-61400000D03*
X60800000Y-39300000D03*
%TO.N,Net-(Q1-Pad4)*%
X58600000Y-35300000D03*
X47499998Y-43200000D03*
%TD*%
D14*
%TO.N,Net-(C3-Pad1)*%
X44300000Y-45700000D02*
X40000000Y-50000000D01*
X54800000Y-45700000D02*
X44300000Y-45700000D01*
D15*
%TO.N,+5V*%
X45600000Y-56200002D02*
X45600002Y-56200000D01*
D14*
X45600000Y-67862000D02*
X45600000Y-56200002D01*
X44996000Y-68466000D02*
X45600000Y-67862000D01*
X60446483Y-58553517D02*
X63200000Y-55800000D01*
X63200000Y-55800000D02*
X63200000Y-37334313D01*
X63200000Y-37334313D02*
X58265687Y-32400000D01*
X58265687Y-32400000D02*
X57700002Y-32400000D01*
D15*
%TO.N,/LED*%
X48996000Y-68466000D02*
X48996000Y-66904000D01*
X48996000Y-66904000D02*
X51700000Y-64200000D01*
X51700000Y-62721000D02*
X51721000Y-62700000D01*
X51700000Y-64200000D02*
X51700000Y-62721000D01*
%TO.N,/MODE*%
X51319000Y-60081000D02*
X51781000Y-60081000D01*
X50800000Y-59600000D02*
X51300000Y-60100000D01*
X51300000Y-60100000D02*
X51319000Y-60081000D01*
X50800000Y-49400000D02*
X50800000Y-59600000D01*
%TO.N,/PWM*%
X55200000Y-66262000D02*
X52996000Y-68466000D01*
X55200000Y-61400000D02*
X55200000Y-66262000D01*
X62600000Y-41100000D02*
X60800000Y-39300000D01*
X62600000Y-54000000D02*
X62600000Y-41100000D01*
X55200000Y-61400000D02*
X62600000Y-54000000D01*
D14*
%TO.N,Net-(Q1-Pad4)*%
X58600000Y-35300000D02*
X50700000Y-43200000D01*
X50700000Y-43200000D02*
X47499998Y-43200000D01*
%TD*%
D16*
%TO.N,GND*%
G36*
X51831299Y-28483793D02*
G01*
X53649404Y-28716610D01*
X55441214Y-29102775D01*
X57193821Y-29639504D01*
X58894596Y-30322932D01*
X60531285Y-31148133D01*
X62092096Y-32109163D01*
X63565783Y-33199096D01*
X64941728Y-34410080D01*
X66210018Y-35733390D01*
X67361514Y-37159491D01*
X68387920Y-38678109D01*
X69281841Y-40278300D01*
X70036836Y-41948537D01*
X70647464Y-43676785D01*
X71109328Y-45450592D01*
X71419098Y-47257177D01*
X71574543Y-49083525D01*
X71574543Y-50916475D01*
X71419098Y-52742823D01*
X71109328Y-54549408D01*
X70647464Y-56323215D01*
X70036836Y-58051463D01*
X69281841Y-59721700D01*
X68387920Y-61321891D01*
X67361514Y-62840509D01*
X66210018Y-64266610D01*
X64941728Y-65589920D01*
X63565783Y-66800904D01*
X62092096Y-67890837D01*
X60531285Y-68851867D01*
X58894596Y-69677068D01*
X57193821Y-70360496D01*
X55441214Y-70897225D01*
X53649404Y-71283390D01*
X51831299Y-71516207D01*
X50000000Y-71594000D01*
X48168701Y-71516207D01*
X46350596Y-71283390D01*
X44558786Y-70897225D01*
X42806179Y-70360496D01*
X41105404Y-69677068D01*
X39468715Y-68851867D01*
X38673110Y-68361993D01*
X43940000Y-68361993D01*
X43940000Y-68570007D01*
X43980581Y-68774024D01*
X44060185Y-68966204D01*
X44175751Y-69139161D01*
X44322839Y-69286249D01*
X44495796Y-69401815D01*
X44687976Y-69481419D01*
X44891993Y-69522000D01*
X45100007Y-69522000D01*
X45304024Y-69481419D01*
X45496204Y-69401815D01*
X45669161Y-69286249D01*
X45816249Y-69139161D01*
X45931815Y-68966204D01*
X46011419Y-68774024D01*
X46052000Y-68570007D01*
X46052000Y-68361993D01*
X47940000Y-68361993D01*
X47940000Y-68570007D01*
X47980581Y-68774024D01*
X48060185Y-68966204D01*
X48175751Y-69139161D01*
X48322839Y-69286249D01*
X48495796Y-69401815D01*
X48687976Y-69481419D01*
X48891993Y-69522000D01*
X49100007Y-69522000D01*
X49304024Y-69481419D01*
X49496204Y-69401815D01*
X49669161Y-69286249D01*
X49816249Y-69139161D01*
X49931815Y-68966204D01*
X49996000Y-68811249D01*
X50060185Y-68966204D01*
X50175751Y-69139161D01*
X50322839Y-69286249D01*
X50495796Y-69401815D01*
X50687976Y-69481419D01*
X50891993Y-69522000D01*
X51100007Y-69522000D01*
X51304024Y-69481419D01*
X51496204Y-69401815D01*
X51669161Y-69286249D01*
X51816249Y-69139161D01*
X51931815Y-68966204D01*
X51996000Y-68811249D01*
X52060185Y-68966204D01*
X52175751Y-69139161D01*
X52322839Y-69286249D01*
X52495796Y-69401815D01*
X52687976Y-69481419D01*
X52891993Y-69522000D01*
X53100007Y-69522000D01*
X53304024Y-69481419D01*
X53496204Y-69401815D01*
X53669161Y-69286249D01*
X53816249Y-69139161D01*
X53931815Y-68966204D01*
X53938157Y-68950893D01*
X53938157Y-69141000D01*
X53945513Y-69215689D01*
X53967299Y-69287508D01*
X54002678Y-69353696D01*
X54050289Y-69411711D01*
X54108304Y-69459322D01*
X54174492Y-69494701D01*
X54246311Y-69516487D01*
X54321000Y-69523843D01*
X55671000Y-69523843D01*
X55745689Y-69516487D01*
X55817508Y-69494701D01*
X55883696Y-69459322D01*
X55941711Y-69411711D01*
X55989322Y-69353696D01*
X56024701Y-69287508D01*
X56046487Y-69215689D01*
X56053843Y-69141000D01*
X56053843Y-67791000D01*
X56046487Y-67716311D01*
X56024701Y-67644492D01*
X55989322Y-67578304D01*
X55941711Y-67520289D01*
X55883696Y-67472678D01*
X55817508Y-67437299D01*
X55745689Y-67415513D01*
X55671000Y-67408157D01*
X54769435Y-67408157D01*
X55540220Y-66637372D01*
X55559527Y-66621527D01*
X55622759Y-66544479D01*
X55669745Y-66456575D01*
X55698678Y-66361193D01*
X55706000Y-66286854D01*
X55708448Y-66262000D01*
X55706000Y-66237146D01*
X55706000Y-61998501D01*
X55806642Y-61897859D01*
X55892113Y-61769942D01*
X55950987Y-61627809D01*
X55981000Y-61476922D01*
X55981000Y-61334591D01*
X62569000Y-54746592D01*
X62569000Y-55538631D01*
X60326562Y-57781070D01*
X60218674Y-57802530D01*
X60076541Y-57861404D01*
X59948624Y-57946875D01*
X59839841Y-58055658D01*
X59754370Y-58183575D01*
X59695496Y-58325708D01*
X59665483Y-58476595D01*
X59665483Y-58630439D01*
X59695496Y-58781326D01*
X59754370Y-58923459D01*
X59839841Y-59051376D01*
X59948624Y-59160159D01*
X60076541Y-59245630D01*
X60218674Y-59304504D01*
X60369561Y-59334517D01*
X60523405Y-59334517D01*
X60674292Y-59304504D01*
X60816425Y-59245630D01*
X60944342Y-59160159D01*
X61053125Y-59051376D01*
X61138596Y-58923459D01*
X61197470Y-58781326D01*
X61218930Y-58673438D01*
X63624269Y-56268100D01*
X63648343Y-56248343D01*
X63688018Y-56200000D01*
X63727196Y-56152261D01*
X63785789Y-56042642D01*
X63785789Y-56042641D01*
X63821870Y-55923698D01*
X63831000Y-55830998D01*
X63831000Y-55830989D01*
X63834052Y-55800001D01*
X63831000Y-55769013D01*
X63831000Y-49804889D01*
X66019000Y-49804889D01*
X66019000Y-50195111D01*
X66095129Y-50577836D01*
X66244461Y-50938355D01*
X66461257Y-51262814D01*
X66737186Y-51538743D01*
X67061645Y-51755539D01*
X67422164Y-51904871D01*
X67804889Y-51981000D01*
X68195111Y-51981000D01*
X68577836Y-51904871D01*
X68938355Y-51755539D01*
X69262814Y-51538743D01*
X69538743Y-51262814D01*
X69755539Y-50938355D01*
X69904871Y-50577836D01*
X69981000Y-50195111D01*
X69981000Y-49804889D01*
X69904871Y-49422164D01*
X69755539Y-49061645D01*
X69538743Y-48737186D01*
X69262814Y-48461257D01*
X68938355Y-48244461D01*
X68577836Y-48095129D01*
X68195111Y-48019000D01*
X67804889Y-48019000D01*
X67422164Y-48095129D01*
X67061645Y-48244461D01*
X66737186Y-48461257D01*
X66461257Y-48737186D01*
X66244461Y-49061645D01*
X66095129Y-49422164D01*
X66019000Y-49804889D01*
X63831000Y-49804889D01*
X63831000Y-37365300D01*
X63834052Y-37334312D01*
X63831000Y-37303324D01*
X63831000Y-37303315D01*
X63821870Y-37210615D01*
X63785789Y-37091671D01*
X63727196Y-36982052D01*
X63648343Y-36885970D01*
X63624268Y-36866212D01*
X58733792Y-31975737D01*
X58714030Y-31951657D01*
X58617948Y-31872804D01*
X58508329Y-31814211D01*
X58389385Y-31778130D01*
X58296685Y-31769000D01*
X58296677Y-31769000D01*
X58265687Y-31765948D01*
X58234697Y-31769000D01*
X58161407Y-31769000D01*
X58069944Y-31707887D01*
X57927811Y-31649013D01*
X57776924Y-31619000D01*
X57623080Y-31619000D01*
X57472193Y-31649013D01*
X57330060Y-31707887D01*
X57202143Y-31793358D01*
X57093360Y-31902141D01*
X57007889Y-32030058D01*
X56949015Y-32172191D01*
X56919002Y-32323078D01*
X56919002Y-32476922D01*
X56949015Y-32627809D01*
X57007889Y-32769942D01*
X57093360Y-32897859D01*
X57202143Y-33006642D01*
X57330060Y-33092113D01*
X57472193Y-33150987D01*
X57623080Y-33181000D01*
X57776924Y-33181000D01*
X57927811Y-33150987D01*
X58066754Y-33093435D01*
X62569001Y-37595683D01*
X62569001Y-40353409D01*
X61581000Y-39365409D01*
X61581000Y-39223078D01*
X61550987Y-39072191D01*
X61492113Y-38930058D01*
X61406642Y-38802141D01*
X61297859Y-38693358D01*
X61169942Y-38607887D01*
X61027809Y-38549013D01*
X60876922Y-38519000D01*
X60723078Y-38519000D01*
X60572191Y-38549013D01*
X60430058Y-38607887D01*
X60302141Y-38693358D01*
X60193358Y-38802141D01*
X60107887Y-38930058D01*
X60049013Y-39072191D01*
X60019000Y-39223078D01*
X60019000Y-39376922D01*
X60049013Y-39527809D01*
X60107887Y-39669942D01*
X60193358Y-39797859D01*
X60302141Y-39906642D01*
X60430058Y-39992113D01*
X60572191Y-40050987D01*
X60723078Y-40081000D01*
X60865409Y-40081000D01*
X62094001Y-41309593D01*
X62094000Y-48848205D01*
X61849444Y-48482201D01*
X61517799Y-48150556D01*
X61127827Y-47889985D01*
X60694512Y-47710500D01*
X60234508Y-47619000D01*
X59765492Y-47619000D01*
X59305488Y-47710500D01*
X58872173Y-47889985D01*
X58482201Y-48150556D01*
X58150556Y-48482201D01*
X57889985Y-48872173D01*
X57710500Y-49305488D01*
X57619000Y-49765492D01*
X57619000Y-50234508D01*
X57710500Y-50694512D01*
X57889985Y-51127827D01*
X58150556Y-51517799D01*
X58482201Y-51849444D01*
X58872173Y-52110015D01*
X59305488Y-52289500D01*
X59765492Y-52381000D01*
X60234508Y-52381000D01*
X60694512Y-52289500D01*
X61127827Y-52110015D01*
X61517799Y-51849444D01*
X61849444Y-51517799D01*
X62094000Y-51151795D01*
X62094000Y-53790408D01*
X55265409Y-60619000D01*
X55123078Y-60619000D01*
X54972191Y-60649013D01*
X54830058Y-60707887D01*
X54702141Y-60793358D01*
X54593358Y-60902141D01*
X54507887Y-61030058D01*
X54449013Y-61172191D01*
X54419000Y-61323078D01*
X54419000Y-61476922D01*
X54449013Y-61627809D01*
X54507887Y-61769942D01*
X54593358Y-61897859D01*
X54694000Y-61998501D01*
X54694001Y-66052407D01*
X53297188Y-67449221D01*
X53100007Y-67410000D01*
X52891993Y-67410000D01*
X52687976Y-67450581D01*
X52495796Y-67530185D01*
X52322839Y-67645751D01*
X52175751Y-67792839D01*
X52060185Y-67965796D01*
X51996000Y-68120751D01*
X51931815Y-67965796D01*
X51816249Y-67792839D01*
X51669161Y-67645751D01*
X51496204Y-67530185D01*
X51304024Y-67450581D01*
X51100007Y-67410000D01*
X50891993Y-67410000D01*
X50687976Y-67450581D01*
X50495796Y-67530185D01*
X50322839Y-67645751D01*
X50175751Y-67792839D01*
X50060185Y-67965796D01*
X49996000Y-68120751D01*
X49931815Y-67965796D01*
X49816249Y-67792839D01*
X49669161Y-67645751D01*
X49502000Y-67534058D01*
X49502000Y-67113591D01*
X52040220Y-64575372D01*
X52059527Y-64559527D01*
X52122759Y-64482479D01*
X52169745Y-64394575D01*
X52198678Y-64299193D01*
X52206000Y-64224854D01*
X52206000Y-64224847D01*
X52208447Y-64200001D01*
X52206000Y-64175155D01*
X52206000Y-63315234D01*
X52218859Y-63306642D01*
X52327642Y-63197859D01*
X52413113Y-63069942D01*
X52471987Y-62927809D01*
X52502000Y-62776922D01*
X52502000Y-62623078D01*
X52471987Y-62472191D01*
X52413113Y-62330058D01*
X52327642Y-62202141D01*
X52218859Y-62093358D01*
X52090942Y-62007887D01*
X51948809Y-61949013D01*
X51797922Y-61919000D01*
X51644078Y-61919000D01*
X51493191Y-61949013D01*
X51351058Y-62007887D01*
X51223141Y-62093358D01*
X51114358Y-62202141D01*
X51028887Y-62330058D01*
X50970013Y-62472191D01*
X50940000Y-62623078D01*
X50940000Y-62776922D01*
X50970013Y-62927809D01*
X51028887Y-63069942D01*
X51114358Y-63197859D01*
X51194001Y-63277502D01*
X51194000Y-63990408D01*
X48655781Y-66528628D01*
X48636474Y-66544473D01*
X48573242Y-66621521D01*
X48573239Y-66621527D01*
X48526255Y-66709426D01*
X48497322Y-66804808D01*
X48487553Y-66904000D01*
X48490001Y-66928856D01*
X48490001Y-67534057D01*
X48322839Y-67645751D01*
X48175751Y-67792839D01*
X48060185Y-67965796D01*
X47980581Y-68157976D01*
X47940000Y-68361993D01*
X46052000Y-68361993D01*
X46042655Y-68315011D01*
X46048343Y-68310343D01*
X46127196Y-68214261D01*
X46185789Y-68104642D01*
X46221870Y-67985698D01*
X46231000Y-67892998D01*
X46231000Y-67892991D01*
X46234052Y-67862000D01*
X46231000Y-67831010D01*
X46231000Y-56661407D01*
X46292115Y-56569942D01*
X46350989Y-56427809D01*
X46381002Y-56276922D01*
X46381002Y-56123078D01*
X46350989Y-55972191D01*
X46292115Y-55830058D01*
X46206644Y-55702141D01*
X46097861Y-55593358D01*
X45969944Y-55507887D01*
X45827811Y-55449013D01*
X45676924Y-55419000D01*
X45523080Y-55419000D01*
X45372193Y-55449013D01*
X45230060Y-55507887D01*
X45102143Y-55593358D01*
X44993360Y-55702141D01*
X44907889Y-55830058D01*
X44849015Y-55972191D01*
X44819002Y-56123078D01*
X44819002Y-56276922D01*
X44849015Y-56427809D01*
X44907889Y-56569942D01*
X44969001Y-56661403D01*
X44969000Y-67410000D01*
X44891993Y-67410000D01*
X44687976Y-67450581D01*
X44495796Y-67530185D01*
X44322839Y-67645751D01*
X44175751Y-67792839D01*
X44060185Y-67965796D01*
X43980581Y-68157976D01*
X43940000Y-68361993D01*
X38673110Y-68361993D01*
X37907904Y-67890837D01*
X36434217Y-66800904D01*
X35058272Y-65589920D01*
X33789982Y-64266610D01*
X32638486Y-62840509D01*
X31612080Y-61321891D01*
X30718159Y-59721700D01*
X29963164Y-58051463D01*
X29352536Y-56323215D01*
X28890672Y-54549408D01*
X28580902Y-52742823D01*
X28425457Y-50916475D01*
X28425457Y-49804889D01*
X30019000Y-49804889D01*
X30019000Y-50195111D01*
X30095129Y-50577836D01*
X30244461Y-50938355D01*
X30461257Y-51262814D01*
X30737186Y-51538743D01*
X31061645Y-51755539D01*
X31422164Y-51904871D01*
X31804889Y-51981000D01*
X32195111Y-51981000D01*
X32577836Y-51904871D01*
X32938355Y-51755539D01*
X33262814Y-51538743D01*
X33538743Y-51262814D01*
X33755539Y-50938355D01*
X33904871Y-50577836D01*
X33981000Y-50195111D01*
X33981000Y-49804889D01*
X33973164Y-49765492D01*
X37619000Y-49765492D01*
X37619000Y-50234508D01*
X37710500Y-50694512D01*
X37889985Y-51127827D01*
X38150556Y-51517799D01*
X38482201Y-51849444D01*
X38872173Y-52110015D01*
X39305488Y-52289500D01*
X39765492Y-52381000D01*
X40234508Y-52381000D01*
X40694512Y-52289500D01*
X41127827Y-52110015D01*
X41517799Y-51849444D01*
X41849444Y-51517799D01*
X42110015Y-51127827D01*
X42289500Y-50694512D01*
X42381000Y-50234508D01*
X42381000Y-49765492D01*
X42292999Y-49323078D01*
X50019000Y-49323078D01*
X50019000Y-49476922D01*
X50049013Y-49627809D01*
X50107887Y-49769942D01*
X50193358Y-49897859D01*
X50294000Y-49998501D01*
X50294001Y-59575144D01*
X50291553Y-59600000D01*
X50301322Y-59699192D01*
X50330255Y-59794574D01*
X50352127Y-59835492D01*
X50377242Y-59882479D01*
X50440474Y-59959527D01*
X50459780Y-59975371D01*
X50924631Y-60440223D01*
X50940473Y-60459527D01*
X50959777Y-60475369D01*
X50959778Y-60475370D01*
X51017521Y-60522758D01*
X51105425Y-60569745D01*
X51191290Y-60595791D01*
X51283141Y-60687642D01*
X51411058Y-60773113D01*
X51553191Y-60831987D01*
X51704078Y-60862000D01*
X51857922Y-60862000D01*
X52008809Y-60831987D01*
X52150942Y-60773113D01*
X52278859Y-60687642D01*
X52387642Y-60578859D01*
X52473113Y-60450942D01*
X52531987Y-60308809D01*
X52562000Y-60157922D01*
X52562000Y-60004078D01*
X52531987Y-59853191D01*
X52473113Y-59711058D01*
X52387642Y-59583141D01*
X52278859Y-59474358D01*
X52150942Y-59388887D01*
X52008809Y-59330013D01*
X51857922Y-59300000D01*
X51704078Y-59300000D01*
X51553191Y-59330013D01*
X51411058Y-59388887D01*
X51347168Y-59431577D01*
X51306000Y-59390409D01*
X51306000Y-49998501D01*
X51406642Y-49897859D01*
X51492113Y-49769942D01*
X51550987Y-49627809D01*
X51581000Y-49476922D01*
X51581000Y-49323078D01*
X51550987Y-49172191D01*
X51492113Y-49030058D01*
X51406642Y-48902141D01*
X51297859Y-48793358D01*
X51169942Y-48707887D01*
X51027809Y-48649013D01*
X50876922Y-48619000D01*
X50723078Y-48619000D01*
X50572191Y-48649013D01*
X50430058Y-48707887D01*
X50302141Y-48793358D01*
X50193358Y-48902141D01*
X50107887Y-49030058D01*
X50049013Y-49172191D01*
X50019000Y-49323078D01*
X42292999Y-49323078D01*
X42289500Y-49305488D01*
X42110015Y-48872173D01*
X42074038Y-48818330D01*
X44561369Y-46331000D01*
X54338595Y-46331000D01*
X54430058Y-46392113D01*
X54572191Y-46450987D01*
X54723078Y-46481000D01*
X54876922Y-46481000D01*
X55027809Y-46450987D01*
X55169942Y-46392113D01*
X55297859Y-46306642D01*
X55406642Y-46197859D01*
X55492113Y-46069942D01*
X55550987Y-45927809D01*
X55581000Y-45776922D01*
X55581000Y-45623078D01*
X55550987Y-45472191D01*
X55492113Y-45330058D01*
X55406642Y-45202141D01*
X55297859Y-45093358D01*
X55169942Y-45007887D01*
X55027809Y-44949013D01*
X54876922Y-44919000D01*
X54723078Y-44919000D01*
X54572191Y-44949013D01*
X54430058Y-45007887D01*
X54338595Y-45069000D01*
X44330987Y-45069000D01*
X44299999Y-45065948D01*
X44269011Y-45069000D01*
X44269002Y-45069000D01*
X44176302Y-45078130D01*
X44057358Y-45114211D01*
X43947739Y-45172804D01*
X43851657Y-45251657D01*
X43831899Y-45275732D01*
X41181670Y-47925962D01*
X41127827Y-47889985D01*
X40694512Y-47710500D01*
X40234508Y-47619000D01*
X39765492Y-47619000D01*
X39305488Y-47710500D01*
X38872173Y-47889985D01*
X38482201Y-48150556D01*
X38150556Y-48482201D01*
X37889985Y-48872173D01*
X37710500Y-49305488D01*
X37619000Y-49765492D01*
X33973164Y-49765492D01*
X33904871Y-49422164D01*
X33755539Y-49061645D01*
X33538743Y-48737186D01*
X33262814Y-48461257D01*
X32938355Y-48244461D01*
X32577836Y-48095129D01*
X32195111Y-48019000D01*
X31804889Y-48019000D01*
X31422164Y-48095129D01*
X31061645Y-48244461D01*
X30737186Y-48461257D01*
X30461257Y-48737186D01*
X30244461Y-49061645D01*
X30095129Y-49422164D01*
X30019000Y-49804889D01*
X28425457Y-49804889D01*
X28425457Y-49083525D01*
X28580902Y-47257177D01*
X28890672Y-45450592D01*
X29352536Y-43676785D01*
X29548172Y-43123078D01*
X46718998Y-43123078D01*
X46718998Y-43276922D01*
X46749011Y-43427809D01*
X46807885Y-43569942D01*
X46893356Y-43697859D01*
X47002139Y-43806642D01*
X47130056Y-43892113D01*
X47272189Y-43950987D01*
X47423076Y-43981000D01*
X47576920Y-43981000D01*
X47727807Y-43950987D01*
X47869940Y-43892113D01*
X47961403Y-43831000D01*
X50669010Y-43831000D01*
X50700000Y-43834052D01*
X50730990Y-43831000D01*
X50730998Y-43831000D01*
X50823698Y-43821870D01*
X50942642Y-43785789D01*
X51052261Y-43727196D01*
X51148343Y-43648343D01*
X51168105Y-43624263D01*
X58719922Y-36072447D01*
X58827809Y-36050987D01*
X58969942Y-35992113D01*
X59097859Y-35906642D01*
X59206642Y-35797859D01*
X59292113Y-35669942D01*
X59350987Y-35527809D01*
X59381000Y-35376922D01*
X59381000Y-35223078D01*
X59350987Y-35072191D01*
X59292113Y-34930058D01*
X59206642Y-34802141D01*
X59097859Y-34693358D01*
X58969942Y-34607887D01*
X58827809Y-34549013D01*
X58676922Y-34519000D01*
X58523078Y-34519000D01*
X58372191Y-34549013D01*
X58230058Y-34607887D01*
X58102141Y-34693358D01*
X57993358Y-34802141D01*
X57907887Y-34930058D01*
X57849013Y-35072191D01*
X57827553Y-35180078D01*
X50438632Y-42569000D01*
X47961403Y-42569000D01*
X47869940Y-42507887D01*
X47727807Y-42449013D01*
X47576920Y-42419000D01*
X47423076Y-42419000D01*
X47272189Y-42449013D01*
X47130056Y-42507887D01*
X47002139Y-42593358D01*
X46893356Y-42702141D01*
X46807885Y-42830058D01*
X46749011Y-42972191D01*
X46718998Y-43123078D01*
X29548172Y-43123078D01*
X29963164Y-41948537D01*
X30718159Y-40278300D01*
X31612080Y-38678109D01*
X32638486Y-37159491D01*
X33789982Y-35733390D01*
X35058272Y-34410080D01*
X36434217Y-33199096D01*
X37907904Y-32109163D01*
X39468715Y-31148133D01*
X41105404Y-30322932D01*
X42806179Y-29639504D01*
X44558786Y-29102775D01*
X46350596Y-28716610D01*
X48168701Y-28483793D01*
X50000000Y-28406000D01*
X51831299Y-28483793D01*
G37*
X51831299Y-28483793D02*
X53649404Y-28716610D01*
X55441214Y-29102775D01*
X57193821Y-29639504D01*
X58894596Y-30322932D01*
X60531285Y-31148133D01*
X62092096Y-32109163D01*
X63565783Y-33199096D01*
X64941728Y-34410080D01*
X66210018Y-35733390D01*
X67361514Y-37159491D01*
X68387920Y-38678109D01*
X69281841Y-40278300D01*
X70036836Y-41948537D01*
X70647464Y-43676785D01*
X71109328Y-45450592D01*
X71419098Y-47257177D01*
X71574543Y-49083525D01*
X71574543Y-50916475D01*
X71419098Y-52742823D01*
X71109328Y-54549408D01*
X70647464Y-56323215D01*
X70036836Y-58051463D01*
X69281841Y-59721700D01*
X68387920Y-61321891D01*
X67361514Y-62840509D01*
X66210018Y-64266610D01*
X64941728Y-65589920D01*
X63565783Y-66800904D01*
X62092096Y-67890837D01*
X60531285Y-68851867D01*
X58894596Y-69677068D01*
X57193821Y-70360496D01*
X55441214Y-70897225D01*
X53649404Y-71283390D01*
X51831299Y-71516207D01*
X50000000Y-71594000D01*
X48168701Y-71516207D01*
X46350596Y-71283390D01*
X44558786Y-70897225D01*
X42806179Y-70360496D01*
X41105404Y-69677068D01*
X39468715Y-68851867D01*
X38673110Y-68361993D01*
X43940000Y-68361993D01*
X43940000Y-68570007D01*
X43980581Y-68774024D01*
X44060185Y-68966204D01*
X44175751Y-69139161D01*
X44322839Y-69286249D01*
X44495796Y-69401815D01*
X44687976Y-69481419D01*
X44891993Y-69522000D01*
X45100007Y-69522000D01*
X45304024Y-69481419D01*
X45496204Y-69401815D01*
X45669161Y-69286249D01*
X45816249Y-69139161D01*
X45931815Y-68966204D01*
X46011419Y-68774024D01*
X46052000Y-68570007D01*
X46052000Y-68361993D01*
X47940000Y-68361993D01*
X47940000Y-68570007D01*
X47980581Y-68774024D01*
X48060185Y-68966204D01*
X48175751Y-69139161D01*
X48322839Y-69286249D01*
X48495796Y-69401815D01*
X48687976Y-69481419D01*
X48891993Y-69522000D01*
X49100007Y-69522000D01*
X49304024Y-69481419D01*
X49496204Y-69401815D01*
X49669161Y-69286249D01*
X49816249Y-69139161D01*
X49931815Y-68966204D01*
X49996000Y-68811249D01*
X50060185Y-68966204D01*
X50175751Y-69139161D01*
X50322839Y-69286249D01*
X50495796Y-69401815D01*
X50687976Y-69481419D01*
X50891993Y-69522000D01*
X51100007Y-69522000D01*
X51304024Y-69481419D01*
X51496204Y-69401815D01*
X51669161Y-69286249D01*
X51816249Y-69139161D01*
X51931815Y-68966204D01*
X51996000Y-68811249D01*
X52060185Y-68966204D01*
X52175751Y-69139161D01*
X52322839Y-69286249D01*
X52495796Y-69401815D01*
X52687976Y-69481419D01*
X52891993Y-69522000D01*
X53100007Y-69522000D01*
X53304024Y-69481419D01*
X53496204Y-69401815D01*
X53669161Y-69286249D01*
X53816249Y-69139161D01*
X53931815Y-68966204D01*
X53938157Y-68950893D01*
X53938157Y-69141000D01*
X53945513Y-69215689D01*
X53967299Y-69287508D01*
X54002678Y-69353696D01*
X54050289Y-69411711D01*
X54108304Y-69459322D01*
X54174492Y-69494701D01*
X54246311Y-69516487D01*
X54321000Y-69523843D01*
X55671000Y-69523843D01*
X55745689Y-69516487D01*
X55817508Y-69494701D01*
X55883696Y-69459322D01*
X55941711Y-69411711D01*
X55989322Y-69353696D01*
X56024701Y-69287508D01*
X56046487Y-69215689D01*
X56053843Y-69141000D01*
X56053843Y-67791000D01*
X56046487Y-67716311D01*
X56024701Y-67644492D01*
X55989322Y-67578304D01*
X55941711Y-67520289D01*
X55883696Y-67472678D01*
X55817508Y-67437299D01*
X55745689Y-67415513D01*
X55671000Y-67408157D01*
X54769435Y-67408157D01*
X55540220Y-66637372D01*
X55559527Y-66621527D01*
X55622759Y-66544479D01*
X55669745Y-66456575D01*
X55698678Y-66361193D01*
X55706000Y-66286854D01*
X55708448Y-66262000D01*
X55706000Y-66237146D01*
X55706000Y-61998501D01*
X55806642Y-61897859D01*
X55892113Y-61769942D01*
X55950987Y-61627809D01*
X55981000Y-61476922D01*
X55981000Y-61334591D01*
X62569000Y-54746592D01*
X62569000Y-55538631D01*
X60326562Y-57781070D01*
X60218674Y-57802530D01*
X60076541Y-57861404D01*
X59948624Y-57946875D01*
X59839841Y-58055658D01*
X59754370Y-58183575D01*
X59695496Y-58325708D01*
X59665483Y-58476595D01*
X59665483Y-58630439D01*
X59695496Y-58781326D01*
X59754370Y-58923459D01*
X59839841Y-59051376D01*
X59948624Y-59160159D01*
X60076541Y-59245630D01*
X60218674Y-59304504D01*
X60369561Y-59334517D01*
X60523405Y-59334517D01*
X60674292Y-59304504D01*
X60816425Y-59245630D01*
X60944342Y-59160159D01*
X61053125Y-59051376D01*
X61138596Y-58923459D01*
X61197470Y-58781326D01*
X61218930Y-58673438D01*
X63624269Y-56268100D01*
X63648343Y-56248343D01*
X63688018Y-56200000D01*
X63727196Y-56152261D01*
X63785789Y-56042642D01*
X63785789Y-56042641D01*
X63821870Y-55923698D01*
X63831000Y-55830998D01*
X63831000Y-55830989D01*
X63834052Y-55800001D01*
X63831000Y-55769013D01*
X63831000Y-49804889D01*
X66019000Y-49804889D01*
X66019000Y-50195111D01*
X66095129Y-50577836D01*
X66244461Y-50938355D01*
X66461257Y-51262814D01*
X66737186Y-51538743D01*
X67061645Y-51755539D01*
X67422164Y-51904871D01*
X67804889Y-51981000D01*
X68195111Y-51981000D01*
X68577836Y-51904871D01*
X68938355Y-51755539D01*
X69262814Y-51538743D01*
X69538743Y-51262814D01*
X69755539Y-50938355D01*
X69904871Y-50577836D01*
X69981000Y-50195111D01*
X69981000Y-49804889D01*
X69904871Y-49422164D01*
X69755539Y-49061645D01*
X69538743Y-48737186D01*
X69262814Y-48461257D01*
X68938355Y-48244461D01*
X68577836Y-48095129D01*
X68195111Y-48019000D01*
X67804889Y-48019000D01*
X67422164Y-48095129D01*
X67061645Y-48244461D01*
X66737186Y-48461257D01*
X66461257Y-48737186D01*
X66244461Y-49061645D01*
X66095129Y-49422164D01*
X66019000Y-49804889D01*
X63831000Y-49804889D01*
X63831000Y-37365300D01*
X63834052Y-37334312D01*
X63831000Y-37303324D01*
X63831000Y-37303315D01*
X63821870Y-37210615D01*
X63785789Y-37091671D01*
X63727196Y-36982052D01*
X63648343Y-36885970D01*
X63624268Y-36866212D01*
X58733792Y-31975737D01*
X58714030Y-31951657D01*
X58617948Y-31872804D01*
X58508329Y-31814211D01*
X58389385Y-31778130D01*
X58296685Y-31769000D01*
X58296677Y-31769000D01*
X58265687Y-31765948D01*
X58234697Y-31769000D01*
X58161407Y-31769000D01*
X58069944Y-31707887D01*
X57927811Y-31649013D01*
X57776924Y-31619000D01*
X57623080Y-31619000D01*
X57472193Y-31649013D01*
X57330060Y-31707887D01*
X57202143Y-31793358D01*
X57093360Y-31902141D01*
X57007889Y-32030058D01*
X56949015Y-32172191D01*
X56919002Y-32323078D01*
X56919002Y-32476922D01*
X56949015Y-32627809D01*
X57007889Y-32769942D01*
X57093360Y-32897859D01*
X57202143Y-33006642D01*
X57330060Y-33092113D01*
X57472193Y-33150987D01*
X57623080Y-33181000D01*
X57776924Y-33181000D01*
X57927811Y-33150987D01*
X58066754Y-33093435D01*
X62569001Y-37595683D01*
X62569001Y-40353409D01*
X61581000Y-39365409D01*
X61581000Y-39223078D01*
X61550987Y-39072191D01*
X61492113Y-38930058D01*
X61406642Y-38802141D01*
X61297859Y-38693358D01*
X61169942Y-38607887D01*
X61027809Y-38549013D01*
X60876922Y-38519000D01*
X60723078Y-38519000D01*
X60572191Y-38549013D01*
X60430058Y-38607887D01*
X60302141Y-38693358D01*
X60193358Y-38802141D01*
X60107887Y-38930058D01*
X60049013Y-39072191D01*
X60019000Y-39223078D01*
X60019000Y-39376922D01*
X60049013Y-39527809D01*
X60107887Y-39669942D01*
X60193358Y-39797859D01*
X60302141Y-39906642D01*
X60430058Y-39992113D01*
X60572191Y-40050987D01*
X60723078Y-40081000D01*
X60865409Y-40081000D01*
X62094001Y-41309593D01*
X62094000Y-48848205D01*
X61849444Y-48482201D01*
X61517799Y-48150556D01*
X61127827Y-47889985D01*
X60694512Y-47710500D01*
X60234508Y-47619000D01*
X59765492Y-47619000D01*
X59305488Y-47710500D01*
X58872173Y-47889985D01*
X58482201Y-48150556D01*
X58150556Y-48482201D01*
X57889985Y-48872173D01*
X57710500Y-49305488D01*
X57619000Y-49765492D01*
X57619000Y-50234508D01*
X57710500Y-50694512D01*
X57889985Y-51127827D01*
X58150556Y-51517799D01*
X58482201Y-51849444D01*
X58872173Y-52110015D01*
X59305488Y-52289500D01*
X59765492Y-52381000D01*
X60234508Y-52381000D01*
X60694512Y-52289500D01*
X61127827Y-52110015D01*
X61517799Y-51849444D01*
X61849444Y-51517799D01*
X62094000Y-51151795D01*
X62094000Y-53790408D01*
X55265409Y-60619000D01*
X55123078Y-60619000D01*
X54972191Y-60649013D01*
X54830058Y-60707887D01*
X54702141Y-60793358D01*
X54593358Y-60902141D01*
X54507887Y-61030058D01*
X54449013Y-61172191D01*
X54419000Y-61323078D01*
X54419000Y-61476922D01*
X54449013Y-61627809D01*
X54507887Y-61769942D01*
X54593358Y-61897859D01*
X54694000Y-61998501D01*
X54694001Y-66052407D01*
X53297188Y-67449221D01*
X53100007Y-67410000D01*
X52891993Y-67410000D01*
X52687976Y-67450581D01*
X52495796Y-67530185D01*
X52322839Y-67645751D01*
X52175751Y-67792839D01*
X52060185Y-67965796D01*
X51996000Y-68120751D01*
X51931815Y-67965796D01*
X51816249Y-67792839D01*
X51669161Y-67645751D01*
X51496204Y-67530185D01*
X51304024Y-67450581D01*
X51100007Y-67410000D01*
X50891993Y-67410000D01*
X50687976Y-67450581D01*
X50495796Y-67530185D01*
X50322839Y-67645751D01*
X50175751Y-67792839D01*
X50060185Y-67965796D01*
X49996000Y-68120751D01*
X49931815Y-67965796D01*
X49816249Y-67792839D01*
X49669161Y-67645751D01*
X49502000Y-67534058D01*
X49502000Y-67113591D01*
X52040220Y-64575372D01*
X52059527Y-64559527D01*
X52122759Y-64482479D01*
X52169745Y-64394575D01*
X52198678Y-64299193D01*
X52206000Y-64224854D01*
X52206000Y-64224847D01*
X52208447Y-64200001D01*
X52206000Y-64175155D01*
X52206000Y-63315234D01*
X52218859Y-63306642D01*
X52327642Y-63197859D01*
X52413113Y-63069942D01*
X52471987Y-62927809D01*
X52502000Y-62776922D01*
X52502000Y-62623078D01*
X52471987Y-62472191D01*
X52413113Y-62330058D01*
X52327642Y-62202141D01*
X52218859Y-62093358D01*
X52090942Y-62007887D01*
X51948809Y-61949013D01*
X51797922Y-61919000D01*
X51644078Y-61919000D01*
X51493191Y-61949013D01*
X51351058Y-62007887D01*
X51223141Y-62093358D01*
X51114358Y-62202141D01*
X51028887Y-62330058D01*
X50970013Y-62472191D01*
X50940000Y-62623078D01*
X50940000Y-62776922D01*
X50970013Y-62927809D01*
X51028887Y-63069942D01*
X51114358Y-63197859D01*
X51194001Y-63277502D01*
X51194000Y-63990408D01*
X48655781Y-66528628D01*
X48636474Y-66544473D01*
X48573242Y-66621521D01*
X48573239Y-66621527D01*
X48526255Y-66709426D01*
X48497322Y-66804808D01*
X48487553Y-66904000D01*
X48490001Y-66928856D01*
X48490001Y-67534057D01*
X48322839Y-67645751D01*
X48175751Y-67792839D01*
X48060185Y-67965796D01*
X47980581Y-68157976D01*
X47940000Y-68361993D01*
X46052000Y-68361993D01*
X46042655Y-68315011D01*
X46048343Y-68310343D01*
X46127196Y-68214261D01*
X46185789Y-68104642D01*
X46221870Y-67985698D01*
X46231000Y-67892998D01*
X46231000Y-67892991D01*
X46234052Y-67862000D01*
X46231000Y-67831010D01*
X46231000Y-56661407D01*
X46292115Y-56569942D01*
X46350989Y-56427809D01*
X46381002Y-56276922D01*
X46381002Y-56123078D01*
X46350989Y-55972191D01*
X46292115Y-55830058D01*
X46206644Y-55702141D01*
X46097861Y-55593358D01*
X45969944Y-55507887D01*
X45827811Y-55449013D01*
X45676924Y-55419000D01*
X45523080Y-55419000D01*
X45372193Y-55449013D01*
X45230060Y-55507887D01*
X45102143Y-55593358D01*
X44993360Y-55702141D01*
X44907889Y-55830058D01*
X44849015Y-55972191D01*
X44819002Y-56123078D01*
X44819002Y-56276922D01*
X44849015Y-56427809D01*
X44907889Y-56569942D01*
X44969001Y-56661403D01*
X44969000Y-67410000D01*
X44891993Y-67410000D01*
X44687976Y-67450581D01*
X44495796Y-67530185D01*
X44322839Y-67645751D01*
X44175751Y-67792839D01*
X44060185Y-67965796D01*
X43980581Y-68157976D01*
X43940000Y-68361993D01*
X38673110Y-68361993D01*
X37907904Y-67890837D01*
X36434217Y-66800904D01*
X35058272Y-65589920D01*
X33789982Y-64266610D01*
X32638486Y-62840509D01*
X31612080Y-61321891D01*
X30718159Y-59721700D01*
X29963164Y-58051463D01*
X29352536Y-56323215D01*
X28890672Y-54549408D01*
X28580902Y-52742823D01*
X28425457Y-50916475D01*
X28425457Y-49804889D01*
X30019000Y-49804889D01*
X30019000Y-50195111D01*
X30095129Y-50577836D01*
X30244461Y-50938355D01*
X30461257Y-51262814D01*
X30737186Y-51538743D01*
X31061645Y-51755539D01*
X31422164Y-51904871D01*
X31804889Y-51981000D01*
X32195111Y-51981000D01*
X32577836Y-51904871D01*
X32938355Y-51755539D01*
X33262814Y-51538743D01*
X33538743Y-51262814D01*
X33755539Y-50938355D01*
X33904871Y-50577836D01*
X33981000Y-50195111D01*
X33981000Y-49804889D01*
X33973164Y-49765492D01*
X37619000Y-49765492D01*
X37619000Y-50234508D01*
X37710500Y-50694512D01*
X37889985Y-51127827D01*
X38150556Y-51517799D01*
X38482201Y-51849444D01*
X38872173Y-52110015D01*
X39305488Y-52289500D01*
X39765492Y-52381000D01*
X40234508Y-52381000D01*
X40694512Y-52289500D01*
X41127827Y-52110015D01*
X41517799Y-51849444D01*
X41849444Y-51517799D01*
X42110015Y-51127827D01*
X42289500Y-50694512D01*
X42381000Y-50234508D01*
X42381000Y-49765492D01*
X42292999Y-49323078D01*
X50019000Y-49323078D01*
X50019000Y-49476922D01*
X50049013Y-49627809D01*
X50107887Y-49769942D01*
X50193358Y-49897859D01*
X50294000Y-49998501D01*
X50294001Y-59575144D01*
X50291553Y-59600000D01*
X50301322Y-59699192D01*
X50330255Y-59794574D01*
X50352127Y-59835492D01*
X50377242Y-59882479D01*
X50440474Y-59959527D01*
X50459780Y-59975371D01*
X50924631Y-60440223D01*
X50940473Y-60459527D01*
X50959777Y-60475369D01*
X50959778Y-60475370D01*
X51017521Y-60522758D01*
X51105425Y-60569745D01*
X51191290Y-60595791D01*
X51283141Y-60687642D01*
X51411058Y-60773113D01*
X51553191Y-60831987D01*
X51704078Y-60862000D01*
X51857922Y-60862000D01*
X52008809Y-60831987D01*
X52150942Y-60773113D01*
X52278859Y-60687642D01*
X52387642Y-60578859D01*
X52473113Y-60450942D01*
X52531987Y-60308809D01*
X52562000Y-60157922D01*
X52562000Y-60004078D01*
X52531987Y-59853191D01*
X52473113Y-59711058D01*
X52387642Y-59583141D01*
X52278859Y-59474358D01*
X52150942Y-59388887D01*
X52008809Y-59330013D01*
X51857922Y-59300000D01*
X51704078Y-59300000D01*
X51553191Y-59330013D01*
X51411058Y-59388887D01*
X51347168Y-59431577D01*
X51306000Y-59390409D01*
X51306000Y-49998501D01*
X51406642Y-49897859D01*
X51492113Y-49769942D01*
X51550987Y-49627809D01*
X51581000Y-49476922D01*
X51581000Y-49323078D01*
X51550987Y-49172191D01*
X51492113Y-49030058D01*
X51406642Y-48902141D01*
X51297859Y-48793358D01*
X51169942Y-48707887D01*
X51027809Y-48649013D01*
X50876922Y-48619000D01*
X50723078Y-48619000D01*
X50572191Y-48649013D01*
X50430058Y-48707887D01*
X50302141Y-48793358D01*
X50193358Y-48902141D01*
X50107887Y-49030058D01*
X50049013Y-49172191D01*
X50019000Y-49323078D01*
X42292999Y-49323078D01*
X42289500Y-49305488D01*
X42110015Y-48872173D01*
X42074038Y-48818330D01*
X44561369Y-46331000D01*
X54338595Y-46331000D01*
X54430058Y-46392113D01*
X54572191Y-46450987D01*
X54723078Y-46481000D01*
X54876922Y-46481000D01*
X55027809Y-46450987D01*
X55169942Y-46392113D01*
X55297859Y-46306642D01*
X55406642Y-46197859D01*
X55492113Y-46069942D01*
X55550987Y-45927809D01*
X55581000Y-45776922D01*
X55581000Y-45623078D01*
X55550987Y-45472191D01*
X55492113Y-45330058D01*
X55406642Y-45202141D01*
X55297859Y-45093358D01*
X55169942Y-45007887D01*
X55027809Y-44949013D01*
X54876922Y-44919000D01*
X54723078Y-44919000D01*
X54572191Y-44949013D01*
X54430058Y-45007887D01*
X54338595Y-45069000D01*
X44330987Y-45069000D01*
X44299999Y-45065948D01*
X44269011Y-45069000D01*
X44269002Y-45069000D01*
X44176302Y-45078130D01*
X44057358Y-45114211D01*
X43947739Y-45172804D01*
X43851657Y-45251657D01*
X43831899Y-45275732D01*
X41181670Y-47925962D01*
X41127827Y-47889985D01*
X40694512Y-47710500D01*
X40234508Y-47619000D01*
X39765492Y-47619000D01*
X39305488Y-47710500D01*
X38872173Y-47889985D01*
X38482201Y-48150556D01*
X38150556Y-48482201D01*
X37889985Y-48872173D01*
X37710500Y-49305488D01*
X37619000Y-49765492D01*
X33973164Y-49765492D01*
X33904871Y-49422164D01*
X33755539Y-49061645D01*
X33538743Y-48737186D01*
X33262814Y-48461257D01*
X32938355Y-48244461D01*
X32577836Y-48095129D01*
X32195111Y-48019000D01*
X31804889Y-48019000D01*
X31422164Y-48095129D01*
X31061645Y-48244461D01*
X30737186Y-48461257D01*
X30461257Y-48737186D01*
X30244461Y-49061645D01*
X30095129Y-49422164D01*
X30019000Y-49804889D01*
X28425457Y-49804889D01*
X28425457Y-49083525D01*
X28580902Y-47257177D01*
X28890672Y-45450592D01*
X29352536Y-43676785D01*
X29548172Y-43123078D01*
X46718998Y-43123078D01*
X46718998Y-43276922D01*
X46749011Y-43427809D01*
X46807885Y-43569942D01*
X46893356Y-43697859D01*
X47002139Y-43806642D01*
X47130056Y-43892113D01*
X47272189Y-43950987D01*
X47423076Y-43981000D01*
X47576920Y-43981000D01*
X47727807Y-43950987D01*
X47869940Y-43892113D01*
X47961403Y-43831000D01*
X50669010Y-43831000D01*
X50700000Y-43834052D01*
X50730990Y-43831000D01*
X50730998Y-43831000D01*
X50823698Y-43821870D01*
X50942642Y-43785789D01*
X51052261Y-43727196D01*
X51148343Y-43648343D01*
X51168105Y-43624263D01*
X58719922Y-36072447D01*
X58827809Y-36050987D01*
X58969942Y-35992113D01*
X59097859Y-35906642D01*
X59206642Y-35797859D01*
X59292113Y-35669942D01*
X59350987Y-35527809D01*
X59381000Y-35376922D01*
X59381000Y-35223078D01*
X59350987Y-35072191D01*
X59292113Y-34930058D01*
X59206642Y-34802141D01*
X59097859Y-34693358D01*
X58969942Y-34607887D01*
X58827809Y-34549013D01*
X58676922Y-34519000D01*
X58523078Y-34519000D01*
X58372191Y-34549013D01*
X58230058Y-34607887D01*
X58102141Y-34693358D01*
X57993358Y-34802141D01*
X57907887Y-34930058D01*
X57849013Y-35072191D01*
X57827553Y-35180078D01*
X50438632Y-42569000D01*
X47961403Y-42569000D01*
X47869940Y-42507887D01*
X47727807Y-42449013D01*
X47576920Y-42419000D01*
X47423076Y-42419000D01*
X47272189Y-42449013D01*
X47130056Y-42507887D01*
X47002139Y-42593358D01*
X46893356Y-42702141D01*
X46807885Y-42830058D01*
X46749011Y-42972191D01*
X46718998Y-43123078D01*
X29548172Y-43123078D01*
X29963164Y-41948537D01*
X30718159Y-40278300D01*
X31612080Y-38678109D01*
X32638486Y-37159491D01*
X33789982Y-35733390D01*
X35058272Y-34410080D01*
X36434217Y-33199096D01*
X37907904Y-32109163D01*
X39468715Y-31148133D01*
X41105404Y-30322932D01*
X42806179Y-29639504D01*
X44558786Y-29102775D01*
X46350596Y-28716610D01*
X48168701Y-28483793D01*
X50000000Y-28406000D01*
X51831299Y-28483793D01*
%TD*%
M02*
