%TF.GenerationSoftware,KiCad,Pcbnew,5.1.6+dfsg1-1*%
%TF.CreationDate,2021-04-16T09:38:54+02:00*%
%TF.ProjectId,buck_3a_v4,6275636b-5f33-4615-9f76-342e6b696361,rev?*%
%TF.SameCoordinates,Original*%
%TF.FileFunction,Copper,L1,Top*%
%TF.FilePolarity,Positive*%
%FSLAX46Y46*%
G04 Gerber Fmt 4.6, Leading zero omitted, Abs format (unit mm)*
G04 Created by KiCad (PCBNEW 5.1.6+dfsg1-1) date 2021-04-16 09:38:54*
%MOMM*%
%LPD*%
G01*
G04 APERTURE LIST*
%TA.AperFunction,SMDPad,CuDef*%
%ADD10R,3.400000X2.000000*%
%TD*%
%TA.AperFunction,SMDPad,CuDef*%
%ADD11R,2.500000X1.800000*%
%TD*%
%TA.AperFunction,ComponentPad*%
%ADD12C,4.000000*%
%TD*%
%TA.AperFunction,ComponentPad*%
%ADD13O,1.350000X1.350000*%
%TD*%
%TA.AperFunction,ComponentPad*%
%ADD14R,1.350000X1.350000*%
%TD*%
%TA.AperFunction,SMDPad,CuDef*%
%ADD15R,1.700000X0.650000*%
%TD*%
%TA.AperFunction,SMDPad,CuDef*%
%ADD16R,0.420000X0.760000*%
%TD*%
%TA.AperFunction,SMDPad,CuDef*%
%ADD17R,2.300000X1.500000*%
%TD*%
%TA.AperFunction,Conductor*%
%ADD18R,4.410000X4.550000*%
%TD*%
%TA.AperFunction,SMDPad,CuDef*%
%ADD19R,0.500000X0.850000*%
%TD*%
%TA.AperFunction,ViaPad*%
%ADD20C,0.800000*%
%TD*%
%TA.AperFunction,Conductor*%
%ADD21C,0.250000*%
%TD*%
%TA.AperFunction,Conductor*%
%ADD22C,0.500000*%
%TD*%
%TA.AperFunction,Conductor*%
%ADD23C,0.254000*%
%TD*%
%TA.AperFunction,Conductor*%
%ADD24C,0.150000*%
%TD*%
G04 APERTURE END LIST*
%TO.P,R8,2*%
%TO.N,GND*%
%TA.AperFunction,SMDPad,CuDef*%
G36*
G01*
X39743750Y-63050000D02*
X40656250Y-63050000D01*
G75*
G02*
X40900000Y-63293750I0J-243750D01*
G01*
X40900000Y-63781250D01*
G75*
G02*
X40656250Y-64025000I-243750J0D01*
G01*
X39743750Y-64025000D01*
G75*
G02*
X39500000Y-63781250I0J243750D01*
G01*
X39500000Y-63293750D01*
G75*
G02*
X39743750Y-63050000I243750J0D01*
G01*
G37*
%TD.AperFunction*%
%TO.P,R8,1*%
%TO.N,/TMESS*%
%TA.AperFunction,SMDPad,CuDef*%
G36*
G01*
X39743750Y-61175000D02*
X40656250Y-61175000D01*
G75*
G02*
X40900000Y-61418750I0J-243750D01*
G01*
X40900000Y-61906250D01*
G75*
G02*
X40656250Y-62150000I-243750J0D01*
G01*
X39743750Y-62150000D01*
G75*
G02*
X39500000Y-61906250I0J243750D01*
G01*
X39500000Y-61418750D01*
G75*
G02*
X39743750Y-61175000I243750J0D01*
G01*
G37*
%TD.AperFunction*%
%TD*%
%TO.P,C3,2*%
%TO.N,Net-(C3-Pad2)*%
%TA.AperFunction,SMDPad,CuDef*%
G36*
G01*
X57412500Y-46156250D02*
X57412500Y-45243750D01*
G75*
G02*
X57656250Y-45000000I243750J0D01*
G01*
X58143750Y-45000000D01*
G75*
G02*
X58387500Y-45243750I0J-243750D01*
G01*
X58387500Y-46156250D01*
G75*
G02*
X58143750Y-46400000I-243750J0D01*
G01*
X57656250Y-46400000D01*
G75*
G02*
X57412500Y-46156250I0J243750D01*
G01*
G37*
%TD.AperFunction*%
%TO.P,C3,1*%
%TO.N,Net-(C3-Pad1)*%
%TA.AperFunction,SMDPad,CuDef*%
G36*
G01*
X55537500Y-46156250D02*
X55537500Y-45243750D01*
G75*
G02*
X55781250Y-45000000I243750J0D01*
G01*
X56268750Y-45000000D01*
G75*
G02*
X56512500Y-45243750I0J-243750D01*
G01*
X56512500Y-46156250D01*
G75*
G02*
X56268750Y-46400000I-243750J0D01*
G01*
X55781250Y-46400000D01*
G75*
G02*
X55537500Y-46156250I0J243750D01*
G01*
G37*
%TD.AperFunction*%
%TD*%
%TO.P,C7,2*%
%TO.N,GND*%
%TA.AperFunction,SMDPad,CuDef*%
G36*
G01*
X59150000Y-34556250D02*
X59150000Y-33643750D01*
G75*
G02*
X59393750Y-33400000I243750J0D01*
G01*
X59881250Y-33400000D01*
G75*
G02*
X60125000Y-33643750I0J-243750D01*
G01*
X60125000Y-34556250D01*
G75*
G02*
X59881250Y-34800000I-243750J0D01*
G01*
X59393750Y-34800000D01*
G75*
G02*
X59150000Y-34556250I0J243750D01*
G01*
G37*
%TD.AperFunction*%
%TO.P,C7,1*%
%TO.N,+5V*%
%TA.AperFunction,SMDPad,CuDef*%
G36*
G01*
X57275000Y-34556250D02*
X57275000Y-33643750D01*
G75*
G02*
X57518750Y-33400000I243750J0D01*
G01*
X58006250Y-33400000D01*
G75*
G02*
X58250000Y-33643750I0J-243750D01*
G01*
X58250000Y-34556250D01*
G75*
G02*
X58006250Y-34800000I-243750J0D01*
G01*
X57518750Y-34800000D01*
G75*
G02*
X57275000Y-34556250I0J243750D01*
G01*
G37*
%TD.AperFunction*%
%TD*%
%TO.P,C1,2*%
%TO.N,GND*%
%TA.AperFunction,SMDPad,CuDef*%
G36*
G01*
X50625000Y-41725000D02*
X50625000Y-43875000D01*
G75*
G02*
X50375000Y-44125000I-250000J0D01*
G01*
X49625000Y-44125000D01*
G75*
G02*
X49375000Y-43875000I0J250000D01*
G01*
X49375000Y-41725000D01*
G75*
G02*
X49625000Y-41475000I250000J0D01*
G01*
X50375000Y-41475000D01*
G75*
G02*
X50625000Y-41725000I0J-250000D01*
G01*
G37*
%TD.AperFunction*%
%TO.P,C1,1*%
%TO.N,VCC*%
%TA.AperFunction,SMDPad,CuDef*%
G36*
G01*
X53425000Y-41725000D02*
X53425000Y-43875000D01*
G75*
G02*
X53175000Y-44125000I-250000J0D01*
G01*
X52425000Y-44125000D01*
G75*
G02*
X52175000Y-43875000I0J250000D01*
G01*
X52175000Y-41725000D01*
G75*
G02*
X52425000Y-41475000I250000J0D01*
G01*
X53175000Y-41475000D01*
G75*
G02*
X53425000Y-41725000I0J-250000D01*
G01*
G37*
%TD.AperFunction*%
%TD*%
D10*
%TO.P,L1,2*%
%TO.N,Net-(D1-Pad2)*%
X37800000Y-37850000D03*
%TO.P,L1,1*%
%TO.N,Net-(C3-Pad1)*%
X37800000Y-43550000D03*
%TD*%
D11*
%TO.P,D1,2*%
%TO.N,Net-(D1-Pad2)*%
X49400000Y-36900000D03*
%TO.P,D1,1*%
%TO.N,VCC*%
X53400000Y-36900000D03*
%TD*%
%TO.P,C6,2*%
%TO.N,GND*%
%TA.AperFunction,SMDPad,CuDef*%
G36*
G01*
X43856250Y-57350000D02*
X42943750Y-57350000D01*
G75*
G02*
X42700000Y-57106250I0J243750D01*
G01*
X42700000Y-56618750D01*
G75*
G02*
X42943750Y-56375000I243750J0D01*
G01*
X43856250Y-56375000D01*
G75*
G02*
X44100000Y-56618750I0J-243750D01*
G01*
X44100000Y-57106250D01*
G75*
G02*
X43856250Y-57350000I-243750J0D01*
G01*
G37*
%TD.AperFunction*%
%TO.P,C6,1*%
%TO.N,/VMESS*%
%TA.AperFunction,SMDPad,CuDef*%
G36*
G01*
X43856250Y-59225000D02*
X42943750Y-59225000D01*
G75*
G02*
X42700000Y-58981250I0J243750D01*
G01*
X42700000Y-58493750D01*
G75*
G02*
X42943750Y-58250000I243750J0D01*
G01*
X43856250Y-58250000D01*
G75*
G02*
X44100000Y-58493750I0J-243750D01*
G01*
X44100000Y-58981250D01*
G75*
G02*
X43856250Y-59225000I-243750J0D01*
G01*
G37*
%TD.AperFunction*%
%TD*%
D12*
%TO.P,LED+,1*%
%TO.N,Net-(C3-Pad2)*%
X60000000Y-50000000D03*
%TD*%
%TO.P,LED-,1*%
%TO.N,Net-(C3-Pad1)*%
X40000000Y-50000000D03*
%TD*%
%TO.P,J3,MP*%
%TO.N,N/C*%
%TA.AperFunction,SMDPad,CuDef*%
G36*
G01*
X46050000Y-50900000D02*
X46050000Y-53700000D01*
G75*
G02*
X45800000Y-53950000I-250000J0D01*
G01*
X44500000Y-53950000D01*
G75*
G02*
X44250000Y-53700000I0J250000D01*
G01*
X44250000Y-50900000D01*
G75*
G02*
X44500000Y-50650000I250000J0D01*
G01*
X45800000Y-50650000D01*
G75*
G02*
X46050000Y-50900000I0J-250000D01*
G01*
G37*
%TD.AperFunction*%
%TA.AperFunction,SMDPad,CuDef*%
G36*
G01*
X55750000Y-50900000D02*
X55750000Y-53700000D01*
G75*
G02*
X55500000Y-53950000I-250000J0D01*
G01*
X54200000Y-53950000D01*
G75*
G02*
X53950000Y-53700000I0J250000D01*
G01*
X53950000Y-50900000D01*
G75*
G02*
X54200000Y-50650000I250000J0D01*
G01*
X55500000Y-50650000D01*
G75*
G02*
X55750000Y-50900000I0J-250000D01*
G01*
G37*
%TD.AperFunction*%
%TO.P,J3,4*%
%TO.N,GND*%
%TA.AperFunction,SMDPad,CuDef*%
G36*
G01*
X48150000Y-46250000D02*
X48150000Y-48250000D01*
G75*
G02*
X47950000Y-48450000I-200000J0D01*
G01*
X47550000Y-48450000D01*
G75*
G02*
X47350000Y-48250000I0J200000D01*
G01*
X47350000Y-46250000D01*
G75*
G02*
X47550000Y-46050000I200000J0D01*
G01*
X47950000Y-46050000D01*
G75*
G02*
X48150000Y-46250000I0J-200000D01*
G01*
G37*
%TD.AperFunction*%
%TO.P,J3,3*%
%TA.AperFunction,SMDPad,CuDef*%
G36*
G01*
X49650000Y-46250000D02*
X49650000Y-48250000D01*
G75*
G02*
X49450000Y-48450000I-200000J0D01*
G01*
X49050000Y-48450000D01*
G75*
G02*
X48850000Y-48250000I0J200000D01*
G01*
X48850000Y-46250000D01*
G75*
G02*
X49050000Y-46050000I200000J0D01*
G01*
X49450000Y-46050000D01*
G75*
G02*
X49650000Y-46250000I0J-200000D01*
G01*
G37*
%TD.AperFunction*%
%TO.P,J3,2*%
%TO.N,/MODE*%
%TA.AperFunction,SMDPad,CuDef*%
G36*
G01*
X51150000Y-46250000D02*
X51150000Y-48250000D01*
G75*
G02*
X50950000Y-48450000I-200000J0D01*
G01*
X50550000Y-48450000D01*
G75*
G02*
X50350000Y-48250000I0J200000D01*
G01*
X50350000Y-46250000D01*
G75*
G02*
X50550000Y-46050000I200000J0D01*
G01*
X50950000Y-46050000D01*
G75*
G02*
X51150000Y-46250000I0J-200000D01*
G01*
G37*
%TD.AperFunction*%
%TO.P,J3,1*%
%TO.N,VCC*%
%TA.AperFunction,SMDPad,CuDef*%
G36*
G01*
X52650000Y-46250000D02*
X52650000Y-48250000D01*
G75*
G02*
X52450000Y-48450000I-200000J0D01*
G01*
X52050000Y-48450000D01*
G75*
G02*
X51850000Y-48250000I0J200000D01*
G01*
X51850000Y-46250000D01*
G75*
G02*
X52050000Y-46050000I200000J0D01*
G01*
X52450000Y-46050000D01*
G75*
G02*
X52650000Y-46250000I0J-200000D01*
G01*
G37*
%TD.AperFunction*%
%TD*%
D13*
%TO.P,J5,6*%
%TO.N,+5V*%
X44996000Y-68466000D03*
%TO.P,J5,5*%
%TO.N,GND*%
X46996000Y-68466000D03*
%TO.P,J5,4*%
%TO.N,/LED*%
X48996000Y-68466000D03*
%TO.P,J5,3*%
%TO.N,/RESET*%
X50996000Y-68466000D03*
%TO.P,J5,2*%
%TO.N,/PWM*%
X52996000Y-68466000D03*
D14*
%TO.P,J5,1*%
%TO.N,/MODE*%
X54996000Y-68466000D03*
%TD*%
D15*
%TO.P,U2,8*%
%TO.N,+5V*%
X53546000Y-58811000D03*
%TO.P,U2,7*%
%TO.N,/MODE*%
X53546000Y-60081000D03*
%TO.P,U2,6*%
%TO.N,/PWM*%
X53546000Y-61351000D03*
%TO.P,U2,5*%
%TO.N,/LED*%
X53546000Y-62621000D03*
%TO.P,U2,4*%
%TO.N,GND*%
X46246000Y-62621000D03*
%TO.P,U2,3*%
%TO.N,/TMESS*%
X46246000Y-61351000D03*
%TO.P,U2,2*%
%TO.N,/VMESS*%
X46246000Y-60081000D03*
%TO.P,U2,1*%
%TO.N,/RESET*%
X46246000Y-58811000D03*
%TD*%
D16*
%TO.P,U1,1*%
%TO.N,VCC*%
X57650000Y-39285000D03*
%TO.P,U1,2*%
%TO.N,Net-(C3-Pad2)*%
X58600000Y-39285000D03*
%TO.P,U1,3*%
%TO.N,/PWM*%
X59550000Y-39285000D03*
%TO.P,U1,4*%
%TO.N,GND*%
X59550000Y-36315000D03*
%TO.P,U1,5*%
%TO.N,Net-(Q1-Pad4)*%
X58600000Y-36315000D03*
%TO.P,U1,6*%
%TO.N,+5V*%
X57650000Y-36315000D03*
D17*
%TO.P,U1,7*%
%TO.N,GND*%
X58600000Y-37800000D03*
%TD*%
%TO.P,R7,2*%
%TO.N,/RESET*%
%TA.AperFunction,SMDPad,CuDef*%
G36*
G01*
X48250000Y-56656250D02*
X48250000Y-55743750D01*
G75*
G02*
X48493750Y-55500000I243750J0D01*
G01*
X48981250Y-55500000D01*
G75*
G02*
X49225000Y-55743750I0J-243750D01*
G01*
X49225000Y-56656250D01*
G75*
G02*
X48981250Y-56900000I-243750J0D01*
G01*
X48493750Y-56900000D01*
G75*
G02*
X48250000Y-56656250I0J243750D01*
G01*
G37*
%TD.AperFunction*%
%TO.P,R7,1*%
%TO.N,+5V*%
%TA.AperFunction,SMDPad,CuDef*%
G36*
G01*
X46375000Y-56656250D02*
X46375000Y-55743750D01*
G75*
G02*
X46618750Y-55500000I243750J0D01*
G01*
X47106250Y-55500000D01*
G75*
G02*
X47350000Y-55743750I0J-243750D01*
G01*
X47350000Y-56656250D01*
G75*
G02*
X47106250Y-56900000I-243750J0D01*
G01*
X46618750Y-56900000D01*
G75*
G02*
X46375000Y-56656250I0J243750D01*
G01*
G37*
%TD.AperFunction*%
%TD*%
%TO.P,R6,2*%
%TO.N,/TMESS*%
%TA.AperFunction,SMDPad,CuDef*%
G36*
G01*
X43302250Y-62128500D02*
X42389750Y-62128500D01*
G75*
G02*
X42146000Y-61884750I0J243750D01*
G01*
X42146000Y-61397250D01*
G75*
G02*
X42389750Y-61153500I243750J0D01*
G01*
X43302250Y-61153500D01*
G75*
G02*
X43546000Y-61397250I0J-243750D01*
G01*
X43546000Y-61884750D01*
G75*
G02*
X43302250Y-62128500I-243750J0D01*
G01*
G37*
%TD.AperFunction*%
%TO.P,R6,1*%
%TO.N,+5V*%
%TA.AperFunction,SMDPad,CuDef*%
G36*
G01*
X43302250Y-64003500D02*
X42389750Y-64003500D01*
G75*
G02*
X42146000Y-63759750I0J243750D01*
G01*
X42146000Y-63272250D01*
G75*
G02*
X42389750Y-63028500I243750J0D01*
G01*
X43302250Y-63028500D01*
G75*
G02*
X43546000Y-63272250I0J-243750D01*
G01*
X43546000Y-63759750D01*
G75*
G02*
X43302250Y-64003500I-243750J0D01*
G01*
G37*
%TD.AperFunction*%
%TD*%
%TO.P,R5,2*%
%TO.N,+5V*%
%TA.AperFunction,SMDPad,CuDef*%
G36*
G01*
X60956250Y-61887500D02*
X60043750Y-61887500D01*
G75*
G02*
X59800000Y-61643750I0J243750D01*
G01*
X59800000Y-61156250D01*
G75*
G02*
X60043750Y-60912500I243750J0D01*
G01*
X60956250Y-60912500D01*
G75*
G02*
X61200000Y-61156250I0J-243750D01*
G01*
X61200000Y-61643750D01*
G75*
G02*
X60956250Y-61887500I-243750J0D01*
G01*
G37*
%TD.AperFunction*%
%TO.P,R5,1*%
%TO.N,Net-(D2-Pad2)*%
%TA.AperFunction,SMDPad,CuDef*%
G36*
G01*
X60956250Y-63762500D02*
X60043750Y-63762500D01*
G75*
G02*
X59800000Y-63518750I0J243750D01*
G01*
X59800000Y-63031250D01*
G75*
G02*
X60043750Y-62787500I243750J0D01*
G01*
X60956250Y-62787500D01*
G75*
G02*
X61200000Y-63031250I0J-243750D01*
G01*
X61200000Y-63518750D01*
G75*
G02*
X60956250Y-63762500I-243750J0D01*
G01*
G37*
%TD.AperFunction*%
%TD*%
%TO.P,R4,2*%
%TO.N,GND*%
%TA.AperFunction,SMDPad,CuDef*%
G36*
G01*
X38402250Y-57266000D02*
X37489750Y-57266000D01*
G75*
G02*
X37246000Y-57022250I0J243750D01*
G01*
X37246000Y-56534750D01*
G75*
G02*
X37489750Y-56291000I243750J0D01*
G01*
X38402250Y-56291000D01*
G75*
G02*
X38646000Y-56534750I0J-243750D01*
G01*
X38646000Y-57022250D01*
G75*
G02*
X38402250Y-57266000I-243750J0D01*
G01*
G37*
%TD.AperFunction*%
%TO.P,R4,1*%
%TO.N,/VMESS*%
%TA.AperFunction,SMDPad,CuDef*%
G36*
G01*
X38402250Y-59141000D02*
X37489750Y-59141000D01*
G75*
G02*
X37246000Y-58897250I0J243750D01*
G01*
X37246000Y-58409750D01*
G75*
G02*
X37489750Y-58166000I243750J0D01*
G01*
X38402250Y-58166000D01*
G75*
G02*
X38646000Y-58409750I0J-243750D01*
G01*
X38646000Y-58897250D01*
G75*
G02*
X38402250Y-59141000I-243750J0D01*
G01*
G37*
%TD.AperFunction*%
%TD*%
%TO.P,R3,2*%
%TO.N,/VMESS*%
%TA.AperFunction,SMDPad,CuDef*%
G36*
G01*
X40139750Y-58166000D02*
X41052250Y-58166000D01*
G75*
G02*
X41296000Y-58409750I0J-243750D01*
G01*
X41296000Y-58897250D01*
G75*
G02*
X41052250Y-59141000I-243750J0D01*
G01*
X40139750Y-59141000D01*
G75*
G02*
X39896000Y-58897250I0J243750D01*
G01*
X39896000Y-58409750D01*
G75*
G02*
X40139750Y-58166000I243750J0D01*
G01*
G37*
%TD.AperFunction*%
%TO.P,R3,1*%
%TO.N,VCC*%
%TA.AperFunction,SMDPad,CuDef*%
G36*
G01*
X40139750Y-56291000D02*
X41052250Y-56291000D01*
G75*
G02*
X41296000Y-56534750I0J-243750D01*
G01*
X41296000Y-57022250D01*
G75*
G02*
X41052250Y-57266000I-243750J0D01*
G01*
X40139750Y-57266000D01*
G75*
G02*
X39896000Y-57022250I0J243750D01*
G01*
X39896000Y-56534750D01*
G75*
G02*
X40139750Y-56291000I243750J0D01*
G01*
G37*
%TD.AperFunction*%
%TD*%
%TO.P,R2,2*%
%TO.N,/MODE*%
%TA.AperFunction,SMDPad,CuDef*%
G36*
G01*
X56996000Y-60359750D02*
X56996000Y-61272250D01*
G75*
G02*
X56752250Y-61516000I-243750J0D01*
G01*
X56264750Y-61516000D01*
G75*
G02*
X56021000Y-61272250I0J243750D01*
G01*
X56021000Y-60359750D01*
G75*
G02*
X56264750Y-60116000I243750J0D01*
G01*
X56752250Y-60116000D01*
G75*
G02*
X56996000Y-60359750I0J-243750D01*
G01*
G37*
%TD.AperFunction*%
%TO.P,R2,1*%
%TO.N,+5V*%
%TA.AperFunction,SMDPad,CuDef*%
G36*
G01*
X58871000Y-60359750D02*
X58871000Y-61272250D01*
G75*
G02*
X58627250Y-61516000I-243750J0D01*
G01*
X58139750Y-61516000D01*
G75*
G02*
X57896000Y-61272250I0J243750D01*
G01*
X57896000Y-60359750D01*
G75*
G02*
X58139750Y-60116000I243750J0D01*
G01*
X58627250Y-60116000D01*
G75*
G02*
X58871000Y-60359750I0J-243750D01*
G01*
G37*
%TD.AperFunction*%
%TD*%
%TO.P,R1,2*%
%TO.N,VCC*%
%TA.AperFunction,SMDPad,CuDef*%
G36*
G01*
X55975000Y-40974999D02*
X55975000Y-43825001D01*
G75*
G02*
X55725001Y-44075000I-249999J0D01*
G01*
X54874999Y-44075000D01*
G75*
G02*
X54625000Y-43825001I0J249999D01*
G01*
X54625000Y-40974999D01*
G75*
G02*
X54874999Y-40725000I249999J0D01*
G01*
X55725001Y-40725000D01*
G75*
G02*
X55975000Y-40974999I0J-249999D01*
G01*
G37*
%TD.AperFunction*%
%TO.P,R1,1*%
%TO.N,Net-(C3-Pad2)*%
%TA.AperFunction,SMDPad,CuDef*%
G36*
G01*
X61775000Y-40974999D02*
X61775000Y-43825001D01*
G75*
G02*
X61525001Y-44075000I-249999J0D01*
G01*
X60674999Y-44075000D01*
G75*
G02*
X60425000Y-43825001I0J249999D01*
G01*
X60425000Y-40974999D01*
G75*
G02*
X60674999Y-40725000I249999J0D01*
G01*
X61525001Y-40725000D01*
G75*
G02*
X61775000Y-40974999I0J-249999D01*
G01*
G37*
%TD.AperFunction*%
%TD*%
D18*
%TO.N,Net-(D1-Pad2)*%
%TO.C,Q1*%
X44600000Y-39250000D03*
D19*
%TD*%
%TO.P,Q1,4*%
%TO.N,Net-(Q1-Pad4)*%
X46505000Y-43200000D03*
%TO.P,Q1,3*%
%TO.N,GND*%
X45235000Y-43200000D03*
%TO.P,Q1,2*%
X43965000Y-43200000D03*
%TO.P,Q1,1*%
X42695000Y-43200000D03*
%TD*%
%TO.P,D2,2*%
%TO.N,Net-(D2-Pad2)*%
%TA.AperFunction,SMDPad,CuDef*%
G36*
G01*
X57887500Y-64056250D02*
X57887500Y-63143750D01*
G75*
G02*
X58131250Y-62900000I243750J0D01*
G01*
X58618750Y-62900000D01*
G75*
G02*
X58862500Y-63143750I0J-243750D01*
G01*
X58862500Y-64056250D01*
G75*
G02*
X58618750Y-64300000I-243750J0D01*
G01*
X58131250Y-64300000D01*
G75*
G02*
X57887500Y-64056250I0J243750D01*
G01*
G37*
%TD.AperFunction*%
%TO.P,D2,1*%
%TO.N,/LED*%
%TA.AperFunction,SMDPad,CuDef*%
G36*
G01*
X56012500Y-64056250D02*
X56012500Y-63143750D01*
G75*
G02*
X56256250Y-62900000I243750J0D01*
G01*
X56743750Y-62900000D01*
G75*
G02*
X56987500Y-63143750I0J-243750D01*
G01*
X56987500Y-64056250D01*
G75*
G02*
X56743750Y-64300000I-243750J0D01*
G01*
X56256250Y-64300000D01*
G75*
G02*
X56012500Y-64056250I0J243750D01*
G01*
G37*
%TD.AperFunction*%
%TD*%
%TO.P,C5,2*%
%TO.N,GND*%
%TA.AperFunction,SMDPad,CuDef*%
G36*
G01*
X59402250Y-57128500D02*
X58489750Y-57128500D01*
G75*
G02*
X58246000Y-56884750I0J243750D01*
G01*
X58246000Y-56397250D01*
G75*
G02*
X58489750Y-56153500I243750J0D01*
G01*
X59402250Y-56153500D01*
G75*
G02*
X59646000Y-56397250I0J-243750D01*
G01*
X59646000Y-56884750D01*
G75*
G02*
X59402250Y-57128500I-243750J0D01*
G01*
G37*
%TD.AperFunction*%
%TO.P,C5,1*%
%TO.N,+5V*%
%TA.AperFunction,SMDPad,CuDef*%
G36*
G01*
X59402250Y-59003500D02*
X58489750Y-59003500D01*
G75*
G02*
X58246000Y-58759750I0J243750D01*
G01*
X58246000Y-58272250D01*
G75*
G02*
X58489750Y-58028500I243750J0D01*
G01*
X59402250Y-58028500D01*
G75*
G02*
X59646000Y-58272250I0J-243750D01*
G01*
X59646000Y-58759750D01*
G75*
G02*
X59402250Y-59003500I-243750J0D01*
G01*
G37*
%TD.AperFunction*%
%TD*%
%TO.P,C4,2*%
%TO.N,GND*%
%TA.AperFunction,SMDPad,CuDef*%
G36*
G01*
X57102250Y-57166000D02*
X56189750Y-57166000D01*
G75*
G02*
X55946000Y-56922250I0J243750D01*
G01*
X55946000Y-56434750D01*
G75*
G02*
X56189750Y-56191000I243750J0D01*
G01*
X57102250Y-56191000D01*
G75*
G02*
X57346000Y-56434750I0J-243750D01*
G01*
X57346000Y-56922250D01*
G75*
G02*
X57102250Y-57166000I-243750J0D01*
G01*
G37*
%TD.AperFunction*%
%TO.P,C4,1*%
%TO.N,+5V*%
%TA.AperFunction,SMDPad,CuDef*%
G36*
G01*
X57102250Y-59041000D02*
X56189750Y-59041000D01*
G75*
G02*
X55946000Y-58797250I0J243750D01*
G01*
X55946000Y-58309750D01*
G75*
G02*
X56189750Y-58066000I243750J0D01*
G01*
X57102250Y-58066000D01*
G75*
G02*
X57346000Y-58309750I0J-243750D01*
G01*
X57346000Y-58797250D01*
G75*
G02*
X57102250Y-59041000I-243750J0D01*
G01*
G37*
%TD.AperFunction*%
%TD*%
%TO.P,C2,2*%
%TO.N,GND*%
%TA.AperFunction,SMDPad,CuDef*%
G36*
G01*
X51150000Y-39443750D02*
X51150000Y-40356250D01*
G75*
G02*
X50906250Y-40600000I-243750J0D01*
G01*
X50418750Y-40600000D01*
G75*
G02*
X50175000Y-40356250I0J243750D01*
G01*
X50175000Y-39443750D01*
G75*
G02*
X50418750Y-39200000I243750J0D01*
G01*
X50906250Y-39200000D01*
G75*
G02*
X51150000Y-39443750I0J-243750D01*
G01*
G37*
%TD.AperFunction*%
%TO.P,C2,1*%
%TO.N,VCC*%
%TA.AperFunction,SMDPad,CuDef*%
G36*
G01*
X53025000Y-39443750D02*
X53025000Y-40356250D01*
G75*
G02*
X52781250Y-40600000I-243750J0D01*
G01*
X52293750Y-40600000D01*
G75*
G02*
X52050000Y-40356250I0J243750D01*
G01*
X52050000Y-39443750D01*
G75*
G02*
X52293750Y-39200000I243750J0D01*
G01*
X52781250Y-39200000D01*
G75*
G02*
X53025000Y-39443750I0J-243750D01*
G01*
G37*
%TD.AperFunction*%
%TD*%
D20*
%TO.N,GND*%
X59200000Y-37800000D03*
X57900000Y-37800000D03*
X44421000Y-62621000D03*
X45200000Y-44700000D03*
X44200000Y-44700000D03*
X43200000Y-44700000D03*
X37946002Y-55653998D03*
X55300000Y-56600000D03*
X60600000Y-37800000D03*
X60600000Y-36400000D03*
X46300000Y-44700000D03*
X48300000Y-44700000D03*
X47300000Y-44700000D03*
X42100000Y-56800000D03*
X40200000Y-65200000D03*
%TO.N,Net-(C3-Pad1)*%
X54800000Y-45700000D03*
%TO.N,+5V*%
X45600002Y-56200000D03*
X60446483Y-58553517D03*
X57700002Y-32400000D03*
%TO.N,/LED*%
X51721000Y-62700000D03*
%TO.N,/MODE*%
X50800000Y-49400000D03*
X51781000Y-60081000D03*
%TO.N,/PWM*%
X55200000Y-61400000D03*
X60800000Y-39300000D03*
%TO.N,Net-(Q1-Pad4)*%
X58600000Y-35300000D03*
X47499998Y-43200000D03*
%TD*%
D21*
%TO.N,GND*%
X46246000Y-62621000D02*
X44421000Y-62621000D01*
X58908500Y-56678500D02*
X58946000Y-56641000D01*
X56646000Y-56678500D02*
X58908500Y-56678500D01*
X37946000Y-56778500D02*
X37946000Y-55654000D01*
X37946000Y-55654000D02*
X37946002Y-55653998D01*
X55341000Y-56641000D02*
X55300000Y-56600000D01*
X58946000Y-56641000D02*
X55341000Y-56641000D01*
X59600000Y-36265000D02*
X59550000Y-36315000D01*
X42162500Y-56862500D02*
X42100000Y-56800000D01*
X43400000Y-56862500D02*
X42162500Y-56862500D01*
X40200000Y-63537500D02*
X40200000Y-65200000D01*
%TO.N,VCC*%
X57200000Y-42400000D02*
X57650000Y-41950000D01*
X57650000Y-41950000D02*
X57650000Y-39285000D01*
X55300000Y-42400000D02*
X57200000Y-42400000D01*
X52300000Y-47300000D02*
X52250000Y-47250000D01*
D22*
X52300000Y-50500000D02*
X52300000Y-47300000D01*
X48100000Y-54700000D02*
X52300000Y-50500000D01*
X42000000Y-54700000D02*
X48100000Y-54700000D01*
X40596000Y-56104000D02*
X42000000Y-54700000D01*
X40596000Y-56778500D02*
X40596000Y-56104000D01*
%TO.N,Net-(C3-Pad1)*%
X56025000Y-45700000D02*
X54800000Y-45700000D01*
D21*
%TO.N,+5V*%
X53557000Y-58800000D02*
X53546000Y-58811000D01*
X56399500Y-58800000D02*
X56646000Y-58553500D01*
X58908500Y-58553500D02*
X58946000Y-58516000D01*
D22*
X59800000Y-61400000D02*
X59300000Y-60900000D01*
D21*
X60500000Y-61400000D02*
X59800000Y-61400000D01*
X58467500Y-60900000D02*
X58383500Y-60816000D01*
D22*
X59300000Y-60900000D02*
X58467500Y-60900000D01*
D21*
X58400000Y-60799500D02*
X58383500Y-60816000D01*
D22*
X58400000Y-59800000D02*
X58400000Y-60799500D01*
X58946000Y-59254000D02*
X58400000Y-59800000D01*
X58946000Y-58516000D02*
X58946000Y-59254000D01*
X42846000Y-63516000D02*
X42846000Y-64146000D01*
X44996000Y-66296000D02*
X44996000Y-68466000D01*
X42846000Y-64146000D02*
X44996000Y-66296000D01*
X46862500Y-56200000D02*
X45600002Y-56200000D01*
X46430000Y-69900000D02*
X44996000Y-68466000D01*
X57561106Y-69900000D02*
X46430000Y-69900000D01*
X61900000Y-65561106D02*
X57561106Y-69900000D01*
X61900000Y-62800000D02*
X61900000Y-65561106D01*
X60500000Y-61400000D02*
X61900000Y-62800000D01*
X56646000Y-58553500D02*
X58908500Y-58553500D01*
X53557000Y-58800000D02*
X56399501Y-58800000D01*
X56399500Y-58800000D02*
X56399501Y-58800000D01*
X56399501Y-58800000D02*
X56645984Y-58553517D01*
X56645984Y-58553517D02*
X59880798Y-58553517D01*
X59880798Y-58553517D02*
X60446483Y-58553517D01*
D21*
X57700000Y-34475000D02*
X57725000Y-34500000D01*
X57650000Y-34575000D02*
X57725000Y-34500000D01*
D22*
X57650000Y-36315000D02*
X57650000Y-34575000D01*
X57700000Y-34475000D02*
X57700000Y-33000000D01*
X57700000Y-33000000D02*
X57700000Y-32400002D01*
X57700000Y-32400002D02*
X57700002Y-32400000D01*
D21*
%TO.N,Net-(D2-Pad2)*%
X60475000Y-63300000D02*
X60500000Y-63275000D01*
X58675000Y-63300000D02*
X60475000Y-63300000D01*
X58375000Y-63600000D02*
X58675000Y-63300000D01*
%TO.N,/LED*%
X53546000Y-63146000D02*
X53546000Y-62621000D01*
X53900000Y-63500000D02*
X53546000Y-63146000D01*
X56121000Y-63500000D02*
X53900000Y-63500000D01*
X51800000Y-62621000D02*
X51721000Y-62700000D01*
X53546000Y-62621000D02*
X51800000Y-62621000D01*
%TO.N,/MODE*%
X51781000Y-60081000D02*
X53546000Y-60081000D01*
X55773500Y-60081000D02*
X56508500Y-60816000D01*
X53546000Y-60081000D02*
X55773500Y-60081000D01*
X56508500Y-60816000D02*
X57312510Y-61620010D01*
X57312510Y-61620010D02*
X57312510Y-66149490D01*
X57312510Y-66149490D02*
X54996000Y-68466000D01*
X50750000Y-49350000D02*
X50800000Y-49400000D01*
X50750000Y-47250000D02*
X50750000Y-49350000D01*
%TO.N,/TMESS*%
X45956000Y-61641000D02*
X46246000Y-61351000D01*
X42846000Y-61641000D02*
X45956000Y-61641000D01*
X40221500Y-61641000D02*
X40200000Y-61662500D01*
X42846000Y-61641000D02*
X40221500Y-61641000D01*
%TO.N,/RESET*%
X45988500Y-58553500D02*
X46246000Y-58811000D01*
X46246000Y-58811000D02*
X48189000Y-58811000D01*
X50996000Y-61128500D02*
X50996000Y-68466000D01*
X48678500Y-58811000D02*
X50996000Y-61128500D01*
X47811000Y-58811000D02*
X48678500Y-58811000D01*
X48737500Y-58752000D02*
X48678500Y-58811000D01*
X48737500Y-56200000D02*
X48737500Y-58752000D01*
%TO.N,/PWM*%
X55151000Y-61351000D02*
X55200000Y-61400000D01*
X53546000Y-61351000D02*
X55151000Y-61351000D01*
X59565000Y-39300000D02*
X59550000Y-39285000D01*
X60800000Y-39300000D02*
X59565000Y-39300000D01*
D22*
%TO.N,Net-(Q1-Pad4)*%
X58600000Y-36315000D02*
X58600000Y-35300000D01*
X46505000Y-43200000D02*
X47499998Y-43200000D01*
D21*
%TO.N,/VMESS*%
X37946000Y-58653500D02*
X40596000Y-58653500D01*
X43316000Y-58653500D02*
X43400000Y-58737500D01*
X40596000Y-58653500D02*
X43316000Y-58653500D01*
X44743500Y-60081000D02*
X46246000Y-60081000D01*
X43400000Y-58737500D02*
X44743500Y-60081000D01*
%TO.N,Net-(C3-Pad2)*%
X58600000Y-42000000D02*
X58600000Y-39285000D01*
X59000000Y-42400000D02*
X58600000Y-42000000D01*
X61100000Y-42400000D02*
X59000000Y-42400000D01*
%TD*%
D23*
%TO.N,GND*%
G36*
X51223001Y-45472846D02*
G01*
X49999964Y-45473191D01*
X49975188Y-45475638D01*
X49951366Y-45482872D01*
X49929413Y-45494614D01*
X49910172Y-45510414D01*
X49894383Y-45529663D01*
X49882654Y-45551623D01*
X49875433Y-45575450D01*
X49873000Y-45600191D01*
X49873001Y-48773000D01*
X47027000Y-48773000D01*
X47027000Y-45700000D01*
X47024560Y-45675224D01*
X47017333Y-45651399D01*
X47005597Y-45629443D01*
X46989803Y-45610197D01*
X46970557Y-45594403D01*
X46948601Y-45582667D01*
X46924776Y-45575440D01*
X46900000Y-45573000D01*
X42327000Y-45573000D01*
X42327000Y-42376976D01*
X45673000Y-42377025D01*
X45673000Y-43899948D01*
X45675440Y-43924724D01*
X45682667Y-43948549D01*
X45694403Y-43970505D01*
X45710197Y-43989751D01*
X45729443Y-44005545D01*
X45751399Y-44017281D01*
X45775224Y-44024508D01*
X45799997Y-44026948D01*
X48099997Y-44027000D01*
X48124774Y-44024560D01*
X48148598Y-44017334D01*
X48170555Y-44005598D01*
X48189801Y-43989805D01*
X48205595Y-43970560D01*
X48217332Y-43948603D01*
X48224559Y-43924779D01*
X48226999Y-43900606D01*
X48229003Y-43480878D01*
X48250985Y-43427809D01*
X48280998Y-43276922D01*
X48280998Y-43123078D01*
X48250985Y-42972191D01*
X48231655Y-42925524D01*
X48250269Y-39027000D01*
X51223000Y-39027000D01*
X51223001Y-45472846D01*
G37*
X51223001Y-45472846D02*
X49999964Y-45473191D01*
X49975188Y-45475638D01*
X49951366Y-45482872D01*
X49929413Y-45494614D01*
X49910172Y-45510414D01*
X49894383Y-45529663D01*
X49882654Y-45551623D01*
X49875433Y-45575450D01*
X49873000Y-45600191D01*
X49873001Y-48773000D01*
X47027000Y-48773000D01*
X47027000Y-45700000D01*
X47024560Y-45675224D01*
X47017333Y-45651399D01*
X47005597Y-45629443D01*
X46989803Y-45610197D01*
X46970557Y-45594403D01*
X46948601Y-45582667D01*
X46924776Y-45575440D01*
X46900000Y-45573000D01*
X42327000Y-45573000D01*
X42327000Y-42376976D01*
X45673000Y-42377025D01*
X45673000Y-43899948D01*
X45675440Y-43924724D01*
X45682667Y-43948549D01*
X45694403Y-43970505D01*
X45710197Y-43989751D01*
X45729443Y-44005545D01*
X45751399Y-44017281D01*
X45775224Y-44024508D01*
X45799997Y-44026948D01*
X48099997Y-44027000D01*
X48124774Y-44024560D01*
X48148598Y-44017334D01*
X48170555Y-44005598D01*
X48189801Y-43989805D01*
X48205595Y-43970560D01*
X48217332Y-43948603D01*
X48224559Y-43924779D01*
X48226999Y-43900606D01*
X48229003Y-43480878D01*
X48250985Y-43427809D01*
X48280998Y-43276922D01*
X48280998Y-43123078D01*
X48250985Y-42972191D01*
X48231655Y-42925524D01*
X48250269Y-39027000D01*
X51223000Y-39027000D01*
X51223001Y-45472846D01*
D24*
G36*
X61125000Y-38625000D02*
G01*
X57175000Y-38625000D01*
X57175000Y-36975000D01*
X59000000Y-36975000D01*
X59014632Y-36973559D01*
X59028701Y-36969291D01*
X59041668Y-36962360D01*
X59053033Y-36953033D01*
X59062360Y-36941668D01*
X59069291Y-36928701D01*
X59073559Y-36914632D01*
X59075000Y-36900000D01*
X59075000Y-36768755D01*
X59081020Y-36748909D01*
X59086330Y-36695000D01*
X59086330Y-36518851D01*
X59087383Y-36516881D01*
X59117403Y-36417918D01*
X59125000Y-36340788D01*
X59125000Y-35729250D01*
X59198177Y-35619732D01*
X59249060Y-35496890D01*
X59275000Y-35366482D01*
X59275000Y-35233518D01*
X59249060Y-35103110D01*
X59198177Y-34980268D01*
X59124307Y-34869713D01*
X59075000Y-34820406D01*
X59075000Y-33675000D01*
X61125000Y-33675000D01*
X61125000Y-38625000D01*
G37*
X61125000Y-38625000D02*
X57175000Y-38625000D01*
X57175000Y-36975000D01*
X59000000Y-36975000D01*
X59014632Y-36973559D01*
X59028701Y-36969291D01*
X59041668Y-36962360D01*
X59053033Y-36953033D01*
X59062360Y-36941668D01*
X59069291Y-36928701D01*
X59073559Y-36914632D01*
X59075000Y-36900000D01*
X59075000Y-36768755D01*
X59081020Y-36748909D01*
X59086330Y-36695000D01*
X59086330Y-36518851D01*
X59087383Y-36516881D01*
X59117403Y-36417918D01*
X59125000Y-36340788D01*
X59125000Y-35729250D01*
X59198177Y-35619732D01*
X59249060Y-35496890D01*
X59275000Y-35366482D01*
X59275000Y-35233518D01*
X59249060Y-35103110D01*
X59198177Y-34980268D01*
X59124307Y-34869713D01*
X59075000Y-34820406D01*
X59075000Y-33675000D01*
X61125000Y-33675000D01*
X61125000Y-38625000D01*
%TO.N,Net-(C3-Pad2)*%
G36*
X63125000Y-52625000D02*
G01*
X57275000Y-52625000D01*
X57275000Y-44675000D01*
X59800000Y-44675000D01*
X59814632Y-44673559D01*
X59828701Y-44669291D01*
X59841668Y-44662360D01*
X59853033Y-44653033D01*
X59862360Y-44641668D01*
X59869291Y-44628701D01*
X59873559Y-44614632D01*
X59875000Y-44600000D01*
X59875000Y-40375000D01*
X63125000Y-40375000D01*
X63125000Y-52625000D01*
G37*
X63125000Y-52625000D02*
X57275000Y-52625000D01*
X57275000Y-44675000D01*
X59800000Y-44675000D01*
X59814632Y-44673559D01*
X59828701Y-44669291D01*
X59841668Y-44662360D01*
X59853033Y-44653033D01*
X59862360Y-44641668D01*
X59869291Y-44628701D01*
X59873559Y-44614632D01*
X59875000Y-44600000D01*
X59875000Y-40375000D01*
X63125000Y-40375000D01*
X63125000Y-52625000D01*
%TO.N,VCC*%
G36*
X56525000Y-44625000D02*
G01*
X54400000Y-44625000D01*
X54385368Y-44626441D01*
X54371299Y-44630709D01*
X54358332Y-44637640D01*
X54346967Y-44646967D01*
X54337640Y-44658332D01*
X54330709Y-44671299D01*
X54326441Y-44685368D01*
X54325000Y-44700000D01*
X54325000Y-45220406D01*
X54275693Y-45269713D01*
X54201823Y-45380268D01*
X54150940Y-45503110D01*
X54125000Y-45633518D01*
X54125000Y-45766482D01*
X54150940Y-45896890D01*
X54201823Y-46019732D01*
X54275693Y-46130287D01*
X54325000Y-46179594D01*
X54325000Y-48826351D01*
X51725000Y-48873624D01*
X51725000Y-35724246D01*
X56525000Y-35675761D01*
X56525000Y-44625000D01*
G37*
X56525000Y-44625000D02*
X54400000Y-44625000D01*
X54385368Y-44626441D01*
X54371299Y-44630709D01*
X54358332Y-44637640D01*
X54346967Y-44646967D01*
X54337640Y-44658332D01*
X54330709Y-44671299D01*
X54326441Y-44685368D01*
X54325000Y-44700000D01*
X54325000Y-45220406D01*
X54275693Y-45269713D01*
X54201823Y-45380268D01*
X54150940Y-45503110D01*
X54125000Y-45633518D01*
X54125000Y-45766482D01*
X54150940Y-45896890D01*
X54201823Y-46019732D01*
X54275693Y-46130287D01*
X54325000Y-46179594D01*
X54325000Y-48826351D01*
X51725000Y-48873624D01*
X51725000Y-35724246D01*
X56525000Y-35675761D01*
X56525000Y-44625000D01*
%TO.N,Net-(C3-Pad1)*%
G36*
X41825000Y-46100000D02*
G01*
X41826441Y-46114632D01*
X41830709Y-46128701D01*
X41837640Y-46141668D01*
X41846967Y-46153033D01*
X41858332Y-46162360D01*
X41871299Y-46169291D01*
X41885368Y-46173559D01*
X41900000Y-46175000D01*
X42925000Y-46175000D01*
X42925000Y-52825000D01*
X34575000Y-52825000D01*
X34575000Y-42325000D01*
X41825000Y-42325000D01*
X41825000Y-46100000D01*
G37*
X41825000Y-46100000D02*
X41826441Y-46114632D01*
X41830709Y-46128701D01*
X41837640Y-46141668D01*
X41846967Y-46153033D01*
X41858332Y-46162360D01*
X41871299Y-46169291D01*
X41885368Y-46173559D01*
X41900000Y-46175000D01*
X42925000Y-46175000D01*
X42925000Y-52825000D01*
X34575000Y-52825000D01*
X34575000Y-42325000D01*
X41825000Y-42325000D01*
X41825000Y-46100000D01*
%TO.N,Net-(D1-Pad2)*%
G36*
X51125000Y-38525000D02*
G01*
X47700000Y-38525000D01*
X47685368Y-38526441D01*
X47671299Y-38530709D01*
X47658332Y-38537640D01*
X47646967Y-38546967D01*
X47637640Y-38558332D01*
X47630709Y-38571299D01*
X47626441Y-38585368D01*
X47625000Y-38600000D01*
X47625000Y-41725000D01*
X34575000Y-41725000D01*
X34575000Y-35675000D01*
X51125000Y-35675000D01*
X51125000Y-38525000D01*
G37*
X51125000Y-38525000D02*
X47700000Y-38525000D01*
X47685368Y-38526441D01*
X47671299Y-38530709D01*
X47658332Y-38537640D01*
X47646967Y-38546967D01*
X47637640Y-38558332D01*
X47630709Y-38571299D01*
X47626441Y-38585368D01*
X47625000Y-38600000D01*
X47625000Y-41725000D01*
X34575000Y-41725000D01*
X34575000Y-35675000D01*
X51125000Y-35675000D01*
X51125000Y-38525000D01*
%TD*%
M02*
