%TF.GenerationSoftware,KiCad,Pcbnew,8.0.9-8.0.9-0~ubuntu22.04.1*%
%TF.CreationDate,2025-09-24T14:32:09+02:00*%
%TF.ProjectId,batteriedeckel,62617474-6572-4696-9564-65636b656c2e,rev?*%
%TF.SameCoordinates,Original*%
%TF.FileFunction,Legend,Top*%
%TF.FilePolarity,Positive*%
%FSLAX46Y46*%
G04 Gerber Fmt 4.6, Leading zero omitted, Abs format (unit mm)*
G04 Created by KiCad (PCBNEW 8.0.9-8.0.9-0~ubuntu22.04.1) date 2025-09-24 14:32:09*
%MOMM*%
%LPD*%
G01*
G04 APERTURE LIST*
G04 Aperture macros list*
%AMFreePoly0*
4,1,5,1.000000,-2.000000,-1.000000,-2.000000,-1.000000,2.000000,1.000000,2.000000,1.000000,-2.000000,1.000000,-2.000000,$1*%
G04 Aperture macros list end*
%ADD10C,0.200000*%
%ADD11C,0.150000*%
%ADD12C,0.120000*%
%ADD13C,0.100000*%
%ADD14C,3.200000*%
%ADD15C,5.000000*%
%ADD16FreePoly0,0.000000*%
%ADD17C,0.500000*%
%ADD18R,2.000000X1.000000*%
%ADD19R,2.750000X1.000000*%
G04 APERTURE END LIST*
D10*
X98107714Y-89837894D02*
X98012476Y-89790275D01*
X98012476Y-89790275D02*
X97869619Y-89790275D01*
X97869619Y-89790275D02*
X97726762Y-89837894D01*
X97726762Y-89837894D02*
X97631524Y-89933132D01*
X97631524Y-89933132D02*
X97583905Y-90028370D01*
X97583905Y-90028370D02*
X97536286Y-90218846D01*
X97536286Y-90218846D02*
X97536286Y-90361703D01*
X97536286Y-90361703D02*
X97583905Y-90552179D01*
X97583905Y-90552179D02*
X97631524Y-90647417D01*
X97631524Y-90647417D02*
X97726762Y-90742656D01*
X97726762Y-90742656D02*
X97869619Y-90790275D01*
X97869619Y-90790275D02*
X97964857Y-90790275D01*
X97964857Y-90790275D02*
X98107714Y-90742656D01*
X98107714Y-90742656D02*
X98155333Y-90695036D01*
X98155333Y-90695036D02*
X98155333Y-90361703D01*
X98155333Y-90361703D02*
X97964857Y-90361703D01*
X99060095Y-90790275D02*
X98583905Y-90790275D01*
X98583905Y-90790275D02*
X98583905Y-89790275D01*
X99822000Y-90790275D02*
X99822000Y-90266465D01*
X99822000Y-90266465D02*
X99774381Y-90171227D01*
X99774381Y-90171227D02*
X99679143Y-90123608D01*
X99679143Y-90123608D02*
X99488667Y-90123608D01*
X99488667Y-90123608D02*
X99393429Y-90171227D01*
X99822000Y-90742656D02*
X99726762Y-90790275D01*
X99726762Y-90790275D02*
X99488667Y-90790275D01*
X99488667Y-90790275D02*
X99393429Y-90742656D01*
X99393429Y-90742656D02*
X99345810Y-90647417D01*
X99345810Y-90647417D02*
X99345810Y-90552179D01*
X99345810Y-90552179D02*
X99393429Y-90456941D01*
X99393429Y-90456941D02*
X99488667Y-90409322D01*
X99488667Y-90409322D02*
X99726762Y-90409322D01*
X99726762Y-90409322D02*
X99822000Y-90361703D01*
X100298191Y-90790275D02*
X100298191Y-90123608D01*
X100298191Y-90218846D02*
X100345810Y-90171227D01*
X100345810Y-90171227D02*
X100441048Y-90123608D01*
X100441048Y-90123608D02*
X100583905Y-90123608D01*
X100583905Y-90123608D02*
X100679143Y-90171227D01*
X100679143Y-90171227D02*
X100726762Y-90266465D01*
X100726762Y-90266465D02*
X100726762Y-90790275D01*
X100726762Y-90266465D02*
X100774381Y-90171227D01*
X100774381Y-90171227D02*
X100869619Y-90123608D01*
X100869619Y-90123608D02*
X101012476Y-90123608D01*
X101012476Y-90123608D02*
X101107715Y-90171227D01*
X101107715Y-90171227D02*
X101155334Y-90266465D01*
X101155334Y-90266465D02*
X101155334Y-90790275D01*
X101631524Y-90123608D02*
X101631524Y-91123608D01*
X101631524Y-90171227D02*
X101726762Y-90123608D01*
X101726762Y-90123608D02*
X101917238Y-90123608D01*
X101917238Y-90123608D02*
X102012476Y-90171227D01*
X102012476Y-90171227D02*
X102060095Y-90218846D01*
X102060095Y-90218846D02*
X102107714Y-90314084D01*
X102107714Y-90314084D02*
X102107714Y-90599798D01*
X102107714Y-90599798D02*
X102060095Y-90695036D01*
X102060095Y-90695036D02*
X102012476Y-90742656D01*
X102012476Y-90742656D02*
X101917238Y-90790275D01*
X101917238Y-90790275D02*
X101726762Y-90790275D01*
X101726762Y-90790275D02*
X101631524Y-90742656D01*
X91726760Y-91876409D02*
X91869617Y-91924028D01*
X91869617Y-91924028D02*
X91917236Y-91971647D01*
X91917236Y-91971647D02*
X91964855Y-92066885D01*
X91964855Y-92066885D02*
X91964855Y-92209742D01*
X91964855Y-92209742D02*
X91917236Y-92304980D01*
X91917236Y-92304980D02*
X91869617Y-92352600D01*
X91869617Y-92352600D02*
X91774379Y-92400219D01*
X91774379Y-92400219D02*
X91393427Y-92400219D01*
X91393427Y-92400219D02*
X91393427Y-91400219D01*
X91393427Y-91400219D02*
X91726760Y-91400219D01*
X91726760Y-91400219D02*
X91821998Y-91447838D01*
X91821998Y-91447838D02*
X91869617Y-91495457D01*
X91869617Y-91495457D02*
X91917236Y-91590695D01*
X91917236Y-91590695D02*
X91917236Y-91685933D01*
X91917236Y-91685933D02*
X91869617Y-91781171D01*
X91869617Y-91781171D02*
X91821998Y-91828790D01*
X91821998Y-91828790D02*
X91726760Y-91876409D01*
X91726760Y-91876409D02*
X91393427Y-91876409D01*
X92821998Y-92400219D02*
X92821998Y-91876409D01*
X92821998Y-91876409D02*
X92774379Y-91781171D01*
X92774379Y-91781171D02*
X92679141Y-91733552D01*
X92679141Y-91733552D02*
X92488665Y-91733552D01*
X92488665Y-91733552D02*
X92393427Y-91781171D01*
X92821998Y-92352600D02*
X92726760Y-92400219D01*
X92726760Y-92400219D02*
X92488665Y-92400219D01*
X92488665Y-92400219D02*
X92393427Y-92352600D01*
X92393427Y-92352600D02*
X92345808Y-92257361D01*
X92345808Y-92257361D02*
X92345808Y-92162123D01*
X92345808Y-92162123D02*
X92393427Y-92066885D01*
X92393427Y-92066885D02*
X92488665Y-92019266D01*
X92488665Y-92019266D02*
X92726760Y-92019266D01*
X92726760Y-92019266D02*
X92821998Y-91971647D01*
X93155332Y-91733552D02*
X93536284Y-91733552D01*
X93298189Y-91400219D02*
X93298189Y-92257361D01*
X93298189Y-92257361D02*
X93345808Y-92352600D01*
X93345808Y-92352600D02*
X93441046Y-92400219D01*
X93441046Y-92400219D02*
X93536284Y-92400219D01*
X93726761Y-91733552D02*
X94107713Y-91733552D01*
X93869618Y-91400219D02*
X93869618Y-92257361D01*
X93869618Y-92257361D02*
X93917237Y-92352600D01*
X93917237Y-92352600D02*
X94012475Y-92400219D01*
X94012475Y-92400219D02*
X94107713Y-92400219D01*
X94821999Y-92352600D02*
X94726761Y-92400219D01*
X94726761Y-92400219D02*
X94536285Y-92400219D01*
X94536285Y-92400219D02*
X94441047Y-92352600D01*
X94441047Y-92352600D02*
X94393428Y-92257361D01*
X94393428Y-92257361D02*
X94393428Y-91876409D01*
X94393428Y-91876409D02*
X94441047Y-91781171D01*
X94441047Y-91781171D02*
X94536285Y-91733552D01*
X94536285Y-91733552D02*
X94726761Y-91733552D01*
X94726761Y-91733552D02*
X94821999Y-91781171D01*
X94821999Y-91781171D02*
X94869618Y-91876409D01*
X94869618Y-91876409D02*
X94869618Y-91971647D01*
X94869618Y-91971647D02*
X94393428Y-92066885D01*
X95298190Y-92400219D02*
X95298190Y-91733552D01*
X95298190Y-91924028D02*
X95345809Y-91828790D01*
X95345809Y-91828790D02*
X95393428Y-91781171D01*
X95393428Y-91781171D02*
X95488666Y-91733552D01*
X95488666Y-91733552D02*
X95583904Y-91733552D01*
X95822000Y-91733552D02*
X96060095Y-92400219D01*
X96298190Y-91733552D02*
X96060095Y-92400219D01*
X96060095Y-92400219D02*
X95964857Y-92638314D01*
X95964857Y-92638314D02*
X95917238Y-92685933D01*
X95917238Y-92685933D02*
X95822000Y-92733552D01*
X98012476Y-92304980D02*
X97964857Y-92352600D01*
X97964857Y-92352600D02*
X97822000Y-92400219D01*
X97822000Y-92400219D02*
X97726762Y-92400219D01*
X97726762Y-92400219D02*
X97583905Y-92352600D01*
X97583905Y-92352600D02*
X97488667Y-92257361D01*
X97488667Y-92257361D02*
X97441048Y-92162123D01*
X97441048Y-92162123D02*
X97393429Y-91971647D01*
X97393429Y-91971647D02*
X97393429Y-91828790D01*
X97393429Y-91828790D02*
X97441048Y-91638314D01*
X97441048Y-91638314D02*
X97488667Y-91543076D01*
X97488667Y-91543076D02*
X97583905Y-91447838D01*
X97583905Y-91447838D02*
X97726762Y-91400219D01*
X97726762Y-91400219D02*
X97822000Y-91400219D01*
X97822000Y-91400219D02*
X97964857Y-91447838D01*
X97964857Y-91447838D02*
X98012476Y-91495457D01*
X98583905Y-92400219D02*
X98488667Y-92352600D01*
X98488667Y-92352600D02*
X98441048Y-92304980D01*
X98441048Y-92304980D02*
X98393429Y-92209742D01*
X98393429Y-92209742D02*
X98393429Y-91924028D01*
X98393429Y-91924028D02*
X98441048Y-91828790D01*
X98441048Y-91828790D02*
X98488667Y-91781171D01*
X98488667Y-91781171D02*
X98583905Y-91733552D01*
X98583905Y-91733552D02*
X98726762Y-91733552D01*
X98726762Y-91733552D02*
X98822000Y-91781171D01*
X98822000Y-91781171D02*
X98869619Y-91828790D01*
X98869619Y-91828790D02*
X98917238Y-91924028D01*
X98917238Y-91924028D02*
X98917238Y-92209742D01*
X98917238Y-92209742D02*
X98869619Y-92304980D01*
X98869619Y-92304980D02*
X98822000Y-92352600D01*
X98822000Y-92352600D02*
X98726762Y-92400219D01*
X98726762Y-92400219D02*
X98583905Y-92400219D01*
X99345810Y-91733552D02*
X99345810Y-92400219D01*
X99345810Y-91828790D02*
X99393429Y-91781171D01*
X99393429Y-91781171D02*
X99488667Y-91733552D01*
X99488667Y-91733552D02*
X99631524Y-91733552D01*
X99631524Y-91733552D02*
X99726762Y-91781171D01*
X99726762Y-91781171D02*
X99774381Y-91876409D01*
X99774381Y-91876409D02*
X99774381Y-92400219D01*
X100250572Y-91733552D02*
X100250572Y-92400219D01*
X100250572Y-91828790D02*
X100298191Y-91781171D01*
X100298191Y-91781171D02*
X100393429Y-91733552D01*
X100393429Y-91733552D02*
X100536286Y-91733552D01*
X100536286Y-91733552D02*
X100631524Y-91781171D01*
X100631524Y-91781171D02*
X100679143Y-91876409D01*
X100679143Y-91876409D02*
X100679143Y-92400219D01*
X101536286Y-92352600D02*
X101441048Y-92400219D01*
X101441048Y-92400219D02*
X101250572Y-92400219D01*
X101250572Y-92400219D02*
X101155334Y-92352600D01*
X101155334Y-92352600D02*
X101107715Y-92257361D01*
X101107715Y-92257361D02*
X101107715Y-91876409D01*
X101107715Y-91876409D02*
X101155334Y-91781171D01*
X101155334Y-91781171D02*
X101250572Y-91733552D01*
X101250572Y-91733552D02*
X101441048Y-91733552D01*
X101441048Y-91733552D02*
X101536286Y-91781171D01*
X101536286Y-91781171D02*
X101583905Y-91876409D01*
X101583905Y-91876409D02*
X101583905Y-91971647D01*
X101583905Y-91971647D02*
X101107715Y-92066885D01*
X102441048Y-92352600D02*
X102345810Y-92400219D01*
X102345810Y-92400219D02*
X102155334Y-92400219D01*
X102155334Y-92400219D02*
X102060096Y-92352600D01*
X102060096Y-92352600D02*
X102012477Y-92304980D01*
X102012477Y-92304980D02*
X101964858Y-92209742D01*
X101964858Y-92209742D02*
X101964858Y-91924028D01*
X101964858Y-91924028D02*
X102012477Y-91828790D01*
X102012477Y-91828790D02*
X102060096Y-91781171D01*
X102060096Y-91781171D02*
X102155334Y-91733552D01*
X102155334Y-91733552D02*
X102345810Y-91733552D01*
X102345810Y-91733552D02*
X102441048Y-91781171D01*
X102726763Y-91733552D02*
X103107715Y-91733552D01*
X102869620Y-91400219D02*
X102869620Y-92257361D01*
X102869620Y-92257361D02*
X102917239Y-92352600D01*
X102917239Y-92352600D02*
X103012477Y-92400219D01*
X103012477Y-92400219D02*
X103107715Y-92400219D01*
X103583906Y-92400219D02*
X103488668Y-92352600D01*
X103488668Y-92352600D02*
X103441049Y-92304980D01*
X103441049Y-92304980D02*
X103393430Y-92209742D01*
X103393430Y-92209742D02*
X103393430Y-91924028D01*
X103393430Y-91924028D02*
X103441049Y-91828790D01*
X103441049Y-91828790D02*
X103488668Y-91781171D01*
X103488668Y-91781171D02*
X103583906Y-91733552D01*
X103583906Y-91733552D02*
X103726763Y-91733552D01*
X103726763Y-91733552D02*
X103822001Y-91781171D01*
X103822001Y-91781171D02*
X103869620Y-91828790D01*
X103869620Y-91828790D02*
X103917239Y-91924028D01*
X103917239Y-91924028D02*
X103917239Y-92209742D01*
X103917239Y-92209742D02*
X103869620Y-92304980D01*
X103869620Y-92304980D02*
X103822001Y-92352600D01*
X103822001Y-92352600D02*
X103726763Y-92400219D01*
X103726763Y-92400219D02*
X103583906Y-92400219D01*
X104345811Y-92400219D02*
X104345811Y-91733552D01*
X104345811Y-91924028D02*
X104393430Y-91828790D01*
X104393430Y-91828790D02*
X104441049Y-91781171D01*
X104441049Y-91781171D02*
X104536287Y-91733552D01*
X104536287Y-91733552D02*
X104631525Y-91733552D01*
X105726764Y-92400219D02*
X105726764Y-91400219D01*
X105726764Y-91400219D02*
X106107716Y-91400219D01*
X106107716Y-91400219D02*
X106202954Y-91447838D01*
X106202954Y-91447838D02*
X106250573Y-91495457D01*
X106250573Y-91495457D02*
X106298192Y-91590695D01*
X106298192Y-91590695D02*
X106298192Y-91733552D01*
X106298192Y-91733552D02*
X106250573Y-91828790D01*
X106250573Y-91828790D02*
X106202954Y-91876409D01*
X106202954Y-91876409D02*
X106107716Y-91924028D01*
X106107716Y-91924028D02*
X105726764Y-91924028D01*
X107298192Y-92304980D02*
X107250573Y-92352600D01*
X107250573Y-92352600D02*
X107107716Y-92400219D01*
X107107716Y-92400219D02*
X107012478Y-92400219D01*
X107012478Y-92400219D02*
X106869621Y-92352600D01*
X106869621Y-92352600D02*
X106774383Y-92257361D01*
X106774383Y-92257361D02*
X106726764Y-92162123D01*
X106726764Y-92162123D02*
X106679145Y-91971647D01*
X106679145Y-91971647D02*
X106679145Y-91828790D01*
X106679145Y-91828790D02*
X106726764Y-91638314D01*
X106726764Y-91638314D02*
X106774383Y-91543076D01*
X106774383Y-91543076D02*
X106869621Y-91447838D01*
X106869621Y-91447838D02*
X107012478Y-91400219D01*
X107012478Y-91400219D02*
X107107716Y-91400219D01*
X107107716Y-91400219D02*
X107250573Y-91447838D01*
X107250573Y-91447838D02*
X107298192Y-91495457D01*
X108060097Y-91876409D02*
X108202954Y-91924028D01*
X108202954Y-91924028D02*
X108250573Y-91971647D01*
X108250573Y-91971647D02*
X108298192Y-92066885D01*
X108298192Y-92066885D02*
X108298192Y-92209742D01*
X108298192Y-92209742D02*
X108250573Y-92304980D01*
X108250573Y-92304980D02*
X108202954Y-92352600D01*
X108202954Y-92352600D02*
X108107716Y-92400219D01*
X108107716Y-92400219D02*
X107726764Y-92400219D01*
X107726764Y-92400219D02*
X107726764Y-91400219D01*
X107726764Y-91400219D02*
X108060097Y-91400219D01*
X108060097Y-91400219D02*
X108155335Y-91447838D01*
X108155335Y-91447838D02*
X108202954Y-91495457D01*
X108202954Y-91495457D02*
X108250573Y-91590695D01*
X108250573Y-91590695D02*
X108250573Y-91685933D01*
X108250573Y-91685933D02*
X108202954Y-91781171D01*
X108202954Y-91781171D02*
X108155335Y-91828790D01*
X108155335Y-91828790D02*
X108060097Y-91876409D01*
X108060097Y-91876409D02*
X107726764Y-91876409D01*
X88702951Y-93105401D02*
X88750570Y-93057782D01*
X88750570Y-93057782D02*
X88845808Y-93010163D01*
X88845808Y-93010163D02*
X89083903Y-93010163D01*
X89083903Y-93010163D02*
X89179141Y-93057782D01*
X89179141Y-93057782D02*
X89226760Y-93105401D01*
X89226760Y-93105401D02*
X89274379Y-93200639D01*
X89274379Y-93200639D02*
X89274379Y-93295877D01*
X89274379Y-93295877D02*
X89226760Y-93438734D01*
X89226760Y-93438734D02*
X88655332Y-94010163D01*
X88655332Y-94010163D02*
X89274379Y-94010163D01*
X89893427Y-93010163D02*
X89988665Y-93010163D01*
X89988665Y-93010163D02*
X90083903Y-93057782D01*
X90083903Y-93057782D02*
X90131522Y-93105401D01*
X90131522Y-93105401D02*
X90179141Y-93200639D01*
X90179141Y-93200639D02*
X90226760Y-93391115D01*
X90226760Y-93391115D02*
X90226760Y-93629210D01*
X90226760Y-93629210D02*
X90179141Y-93819686D01*
X90179141Y-93819686D02*
X90131522Y-93914924D01*
X90131522Y-93914924D02*
X90083903Y-93962544D01*
X90083903Y-93962544D02*
X89988665Y-94010163D01*
X89988665Y-94010163D02*
X89893427Y-94010163D01*
X89893427Y-94010163D02*
X89798189Y-93962544D01*
X89798189Y-93962544D02*
X89750570Y-93914924D01*
X89750570Y-93914924D02*
X89702951Y-93819686D01*
X89702951Y-93819686D02*
X89655332Y-93629210D01*
X89655332Y-93629210D02*
X89655332Y-93391115D01*
X89655332Y-93391115D02*
X89702951Y-93200639D01*
X89702951Y-93200639D02*
X89750570Y-93105401D01*
X89750570Y-93105401D02*
X89798189Y-93057782D01*
X89798189Y-93057782D02*
X89893427Y-93010163D01*
X90607713Y-93105401D02*
X90655332Y-93057782D01*
X90655332Y-93057782D02*
X90750570Y-93010163D01*
X90750570Y-93010163D02*
X90988665Y-93010163D01*
X90988665Y-93010163D02*
X91083903Y-93057782D01*
X91083903Y-93057782D02*
X91131522Y-93105401D01*
X91131522Y-93105401D02*
X91179141Y-93200639D01*
X91179141Y-93200639D02*
X91179141Y-93295877D01*
X91179141Y-93295877D02*
X91131522Y-93438734D01*
X91131522Y-93438734D02*
X90560094Y-94010163D01*
X90560094Y-94010163D02*
X91179141Y-94010163D01*
X91560094Y-93105401D02*
X91607713Y-93057782D01*
X91607713Y-93057782D02*
X91702951Y-93010163D01*
X91702951Y-93010163D02*
X91941046Y-93010163D01*
X91941046Y-93010163D02*
X92036284Y-93057782D01*
X92036284Y-93057782D02*
X92083903Y-93105401D01*
X92083903Y-93105401D02*
X92131522Y-93200639D01*
X92131522Y-93200639D02*
X92131522Y-93295877D01*
X92131522Y-93295877D02*
X92083903Y-93438734D01*
X92083903Y-93438734D02*
X91512475Y-94010163D01*
X91512475Y-94010163D02*
X92131522Y-94010163D01*
X93274380Y-93962544D02*
X93369618Y-94010163D01*
X93369618Y-94010163D02*
X93560094Y-94010163D01*
X93560094Y-94010163D02*
X93655332Y-93962544D01*
X93655332Y-93962544D02*
X93702951Y-93867305D01*
X93702951Y-93867305D02*
X93702951Y-93819686D01*
X93702951Y-93819686D02*
X93655332Y-93724448D01*
X93655332Y-93724448D02*
X93560094Y-93676829D01*
X93560094Y-93676829D02*
X93417237Y-93676829D01*
X93417237Y-93676829D02*
X93321999Y-93629210D01*
X93321999Y-93629210D02*
X93274380Y-93533972D01*
X93274380Y-93533972D02*
X93274380Y-93486353D01*
X93274380Y-93486353D02*
X93321999Y-93391115D01*
X93321999Y-93391115D02*
X93417237Y-93343496D01*
X93417237Y-93343496D02*
X93560094Y-93343496D01*
X93560094Y-93343496D02*
X93655332Y-93391115D01*
X94560094Y-93962544D02*
X94464856Y-94010163D01*
X94464856Y-94010163D02*
X94274380Y-94010163D01*
X94274380Y-94010163D02*
X94179142Y-93962544D01*
X94179142Y-93962544D02*
X94131523Y-93914924D01*
X94131523Y-93914924D02*
X94083904Y-93819686D01*
X94083904Y-93819686D02*
X94083904Y-93533972D01*
X94083904Y-93533972D02*
X94131523Y-93438734D01*
X94131523Y-93438734D02*
X94179142Y-93391115D01*
X94179142Y-93391115D02*
X94274380Y-93343496D01*
X94274380Y-93343496D02*
X94464856Y-93343496D01*
X94464856Y-93343496D02*
X94560094Y-93391115D01*
X94988666Y-94010163D02*
X94988666Y-93010163D01*
X95417237Y-94010163D02*
X95417237Y-93486353D01*
X95417237Y-93486353D02*
X95369618Y-93391115D01*
X95369618Y-93391115D02*
X95274380Y-93343496D01*
X95274380Y-93343496D02*
X95131523Y-93343496D01*
X95131523Y-93343496D02*
X95036285Y-93391115D01*
X95036285Y-93391115D02*
X94988666Y-93438734D01*
X96321999Y-94010163D02*
X96321999Y-93486353D01*
X96321999Y-93486353D02*
X96274380Y-93391115D01*
X96274380Y-93391115D02*
X96179142Y-93343496D01*
X96179142Y-93343496D02*
X95988666Y-93343496D01*
X95988666Y-93343496D02*
X95893428Y-93391115D01*
X96321999Y-93962544D02*
X96226761Y-94010163D01*
X96226761Y-94010163D02*
X95988666Y-94010163D01*
X95988666Y-94010163D02*
X95893428Y-93962544D01*
X95893428Y-93962544D02*
X95845809Y-93867305D01*
X95845809Y-93867305D02*
X95845809Y-93772067D01*
X95845809Y-93772067D02*
X95893428Y-93676829D01*
X95893428Y-93676829D02*
X95988666Y-93629210D01*
X95988666Y-93629210D02*
X96226761Y-93629210D01*
X96226761Y-93629210D02*
X96321999Y-93581591D01*
X96798190Y-94010163D02*
X96798190Y-93343496D01*
X96798190Y-93533972D02*
X96845809Y-93438734D01*
X96845809Y-93438734D02*
X96893428Y-93391115D01*
X96893428Y-93391115D02*
X96988666Y-93343496D01*
X96988666Y-93343496D02*
X97083904Y-93343496D01*
X97845809Y-94010163D02*
X97845809Y-93010163D01*
X97845809Y-93962544D02*
X97750571Y-94010163D01*
X97750571Y-94010163D02*
X97560095Y-94010163D01*
X97560095Y-94010163D02*
X97464857Y-93962544D01*
X97464857Y-93962544D02*
X97417238Y-93914924D01*
X97417238Y-93914924D02*
X97369619Y-93819686D01*
X97369619Y-93819686D02*
X97369619Y-93533972D01*
X97369619Y-93533972D02*
X97417238Y-93438734D01*
X97417238Y-93438734D02*
X97464857Y-93391115D01*
X97464857Y-93391115D02*
X97560095Y-93343496D01*
X97560095Y-93343496D02*
X97750571Y-93343496D01*
X97750571Y-93343496D02*
X97845809Y-93391115D01*
X98179143Y-93343496D02*
X98560095Y-93343496D01*
X98322000Y-93010163D02*
X98322000Y-93867305D01*
X98322000Y-93867305D02*
X98369619Y-93962544D01*
X98369619Y-93962544D02*
X98464857Y-94010163D01*
X98464857Y-94010163D02*
X98560095Y-94010163D01*
X99512476Y-93533972D02*
X99464857Y-93486353D01*
X99464857Y-93486353D02*
X99369619Y-93438734D01*
X99369619Y-93438734D02*
X99274381Y-93438734D01*
X99274381Y-93438734D02*
X99179143Y-93486353D01*
X99179143Y-93486353D02*
X99131524Y-93533972D01*
X99131524Y-93533972D02*
X99083905Y-93629210D01*
X99083905Y-93629210D02*
X99083905Y-93724448D01*
X99083905Y-93724448D02*
X99131524Y-93819686D01*
X99131524Y-93819686D02*
X99179143Y-93867305D01*
X99179143Y-93867305D02*
X99274381Y-93914924D01*
X99274381Y-93914924D02*
X99369619Y-93914924D01*
X99369619Y-93914924D02*
X99464857Y-93867305D01*
X99464857Y-93867305D02*
X99512476Y-93819686D01*
X99512476Y-93438734D02*
X99512476Y-93819686D01*
X99512476Y-93819686D02*
X99560095Y-93867305D01*
X99560095Y-93867305D02*
X99607714Y-93867305D01*
X99607714Y-93867305D02*
X99702953Y-93819686D01*
X99702953Y-93819686D02*
X99750572Y-93724448D01*
X99750572Y-93724448D02*
X99750572Y-93486353D01*
X99750572Y-93486353D02*
X99655334Y-93343496D01*
X99655334Y-93343496D02*
X99512476Y-93248258D01*
X99512476Y-93248258D02*
X99322000Y-93200639D01*
X99322000Y-93200639D02*
X99131524Y-93248258D01*
X99131524Y-93248258D02*
X98988667Y-93343496D01*
X98988667Y-93343496D02*
X98893429Y-93486353D01*
X98893429Y-93486353D02*
X98845810Y-93676829D01*
X98845810Y-93676829D02*
X98893429Y-93867305D01*
X98893429Y-93867305D02*
X98988667Y-94010163D01*
X98988667Y-94010163D02*
X99131524Y-94105401D01*
X99131524Y-94105401D02*
X99322000Y-94153020D01*
X99322000Y-94153020D02*
X99512476Y-94105401D01*
X99512476Y-94105401D02*
X99655334Y-94010163D01*
X100036286Y-93343496D02*
X100417238Y-93343496D01*
X100179143Y-93010163D02*
X100179143Y-93867305D01*
X100179143Y-93867305D02*
X100226762Y-93962544D01*
X100226762Y-93962544D02*
X100322000Y-94010163D01*
X100322000Y-94010163D02*
X100417238Y-94010163D01*
X101131524Y-93962544D02*
X101036286Y-94010163D01*
X101036286Y-94010163D02*
X100845810Y-94010163D01*
X100845810Y-94010163D02*
X100750572Y-93962544D01*
X100750572Y-93962544D02*
X100702953Y-93867305D01*
X100702953Y-93867305D02*
X100702953Y-93486353D01*
X100702953Y-93486353D02*
X100750572Y-93391115D01*
X100750572Y-93391115D02*
X100845810Y-93343496D01*
X100845810Y-93343496D02*
X101036286Y-93343496D01*
X101036286Y-93343496D02*
X101131524Y-93391115D01*
X101131524Y-93391115D02*
X101179143Y-93486353D01*
X101179143Y-93486353D02*
X101179143Y-93581591D01*
X101179143Y-93581591D02*
X100702953Y-93676829D01*
X102036286Y-94010163D02*
X102036286Y-93486353D01*
X102036286Y-93486353D02*
X101988667Y-93391115D01*
X101988667Y-93391115D02*
X101893429Y-93343496D01*
X101893429Y-93343496D02*
X101702953Y-93343496D01*
X101702953Y-93343496D02*
X101607715Y-93391115D01*
X102036286Y-93962544D02*
X101941048Y-94010163D01*
X101941048Y-94010163D02*
X101702953Y-94010163D01*
X101702953Y-94010163D02*
X101607715Y-93962544D01*
X101607715Y-93962544D02*
X101560096Y-93867305D01*
X101560096Y-93867305D02*
X101560096Y-93772067D01*
X101560096Y-93772067D02*
X101607715Y-93676829D01*
X101607715Y-93676829D02*
X101702953Y-93629210D01*
X101702953Y-93629210D02*
X101941048Y-93629210D01*
X101941048Y-93629210D02*
X102036286Y-93581591D01*
X102512477Y-94010163D02*
X102512477Y-93343496D01*
X102512477Y-93438734D02*
X102560096Y-93391115D01*
X102560096Y-93391115D02*
X102655334Y-93343496D01*
X102655334Y-93343496D02*
X102798191Y-93343496D01*
X102798191Y-93343496D02*
X102893429Y-93391115D01*
X102893429Y-93391115D02*
X102941048Y-93486353D01*
X102941048Y-93486353D02*
X102941048Y-94010163D01*
X102941048Y-93486353D02*
X102988667Y-93391115D01*
X102988667Y-93391115D02*
X103083905Y-93343496D01*
X103083905Y-93343496D02*
X103226762Y-93343496D01*
X103226762Y-93343496D02*
X103322001Y-93391115D01*
X103322001Y-93391115D02*
X103369620Y-93486353D01*
X103369620Y-93486353D02*
X103369620Y-94010163D01*
X103845810Y-93629210D02*
X104607715Y-93629210D01*
X105512476Y-93962544D02*
X105417238Y-94010163D01*
X105417238Y-94010163D02*
X105226762Y-94010163D01*
X105226762Y-94010163D02*
X105131524Y-93962544D01*
X105131524Y-93962544D02*
X105083905Y-93914924D01*
X105083905Y-93914924D02*
X105036286Y-93819686D01*
X105036286Y-93819686D02*
X105036286Y-93533972D01*
X105036286Y-93533972D02*
X105083905Y-93438734D01*
X105083905Y-93438734D02*
X105131524Y-93391115D01*
X105131524Y-93391115D02*
X105226762Y-93343496D01*
X105226762Y-93343496D02*
X105417238Y-93343496D01*
X105417238Y-93343496D02*
X105512476Y-93391115D01*
X105798191Y-93343496D02*
X106179143Y-93343496D01*
X105941048Y-93010163D02*
X105941048Y-93867305D01*
X105941048Y-93867305D02*
X105988667Y-93962544D01*
X105988667Y-93962544D02*
X106083905Y-94010163D01*
X106083905Y-94010163D02*
X106179143Y-94010163D01*
X106893429Y-93962544D02*
X106798191Y-94010163D01*
X106798191Y-94010163D02*
X106607715Y-94010163D01*
X106607715Y-94010163D02*
X106512477Y-93962544D01*
X106512477Y-93962544D02*
X106464858Y-93867305D01*
X106464858Y-93867305D02*
X106464858Y-93486353D01*
X106464858Y-93486353D02*
X106512477Y-93391115D01*
X106512477Y-93391115D02*
X106607715Y-93343496D01*
X106607715Y-93343496D02*
X106798191Y-93343496D01*
X106798191Y-93343496D02*
X106893429Y-93391115D01*
X106893429Y-93391115D02*
X106941048Y-93486353D01*
X106941048Y-93486353D02*
X106941048Y-93581591D01*
X106941048Y-93581591D02*
X106464858Y-93676829D01*
X107798191Y-93962544D02*
X107702953Y-94010163D01*
X107702953Y-94010163D02*
X107512477Y-94010163D01*
X107512477Y-94010163D02*
X107417239Y-93962544D01*
X107417239Y-93962544D02*
X107369620Y-93914924D01*
X107369620Y-93914924D02*
X107322001Y-93819686D01*
X107322001Y-93819686D02*
X107322001Y-93533972D01*
X107322001Y-93533972D02*
X107369620Y-93438734D01*
X107369620Y-93438734D02*
X107417239Y-93391115D01*
X107417239Y-93391115D02*
X107512477Y-93343496D01*
X107512477Y-93343496D02*
X107702953Y-93343496D01*
X107702953Y-93343496D02*
X107798191Y-93391115D01*
X108226763Y-94010163D02*
X108226763Y-93010163D01*
X108655334Y-94010163D02*
X108655334Y-93486353D01*
X108655334Y-93486353D02*
X108607715Y-93391115D01*
X108607715Y-93391115D02*
X108512477Y-93343496D01*
X108512477Y-93343496D02*
X108369620Y-93343496D01*
X108369620Y-93343496D02*
X108274382Y-93391115D01*
X108274382Y-93391115D02*
X108226763Y-93438734D01*
X109131525Y-93914924D02*
X109179144Y-93962544D01*
X109179144Y-93962544D02*
X109131525Y-94010163D01*
X109131525Y-94010163D02*
X109083906Y-93962544D01*
X109083906Y-93962544D02*
X109131525Y-93914924D01*
X109131525Y-93914924D02*
X109131525Y-94010163D01*
X110036286Y-94010163D02*
X110036286Y-93010163D01*
X110036286Y-93962544D02*
X109941048Y-94010163D01*
X109941048Y-94010163D02*
X109750572Y-94010163D01*
X109750572Y-94010163D02*
X109655334Y-93962544D01*
X109655334Y-93962544D02*
X109607715Y-93914924D01*
X109607715Y-93914924D02*
X109560096Y-93819686D01*
X109560096Y-93819686D02*
X109560096Y-93533972D01*
X109560096Y-93533972D02*
X109607715Y-93438734D01*
X109607715Y-93438734D02*
X109655334Y-93391115D01*
X109655334Y-93391115D02*
X109750572Y-93343496D01*
X109750572Y-93343496D02*
X109941048Y-93343496D01*
X109941048Y-93343496D02*
X110036286Y-93391115D01*
X110893429Y-93962544D02*
X110798191Y-94010163D01*
X110798191Y-94010163D02*
X110607715Y-94010163D01*
X110607715Y-94010163D02*
X110512477Y-93962544D01*
X110512477Y-93962544D02*
X110464858Y-93867305D01*
X110464858Y-93867305D02*
X110464858Y-93486353D01*
X110464858Y-93486353D02*
X110512477Y-93391115D01*
X110512477Y-93391115D02*
X110607715Y-93343496D01*
X110607715Y-93343496D02*
X110798191Y-93343496D01*
X110798191Y-93343496D02*
X110893429Y-93391115D01*
X110893429Y-93391115D02*
X110941048Y-93486353D01*
X110941048Y-93486353D02*
X110941048Y-93581591D01*
X110941048Y-93581591D02*
X110464858Y-93676829D01*
D11*
X91392857Y-84476009D02*
X91535714Y-84523628D01*
X91535714Y-84523628D02*
X91583333Y-84571247D01*
X91583333Y-84571247D02*
X91630952Y-84666485D01*
X91630952Y-84666485D02*
X91630952Y-84809342D01*
X91630952Y-84809342D02*
X91583333Y-84904580D01*
X91583333Y-84904580D02*
X91535714Y-84952200D01*
X91535714Y-84952200D02*
X91440476Y-84999819D01*
X91440476Y-84999819D02*
X91059524Y-84999819D01*
X91059524Y-84999819D02*
X91059524Y-83999819D01*
X91059524Y-83999819D02*
X91392857Y-83999819D01*
X91392857Y-83999819D02*
X91488095Y-84047438D01*
X91488095Y-84047438D02*
X91535714Y-84095057D01*
X91535714Y-84095057D02*
X91583333Y-84190295D01*
X91583333Y-84190295D02*
X91583333Y-84285533D01*
X91583333Y-84285533D02*
X91535714Y-84380771D01*
X91535714Y-84380771D02*
X91488095Y-84428390D01*
X91488095Y-84428390D02*
X91392857Y-84476009D01*
X91392857Y-84476009D02*
X91059524Y-84476009D01*
X92011905Y-84714104D02*
X92488095Y-84714104D01*
X91916667Y-84999819D02*
X92250000Y-83999819D01*
X92250000Y-83999819D02*
X92583333Y-84999819D01*
X92773810Y-83999819D02*
X93345238Y-83999819D01*
X93059524Y-84999819D02*
X93059524Y-83999819D01*
X93678572Y-84618866D02*
X94440477Y-84618866D01*
X94059524Y-84999819D02*
X94059524Y-84237914D01*
X113023810Y-97509200D02*
X113166667Y-97556819D01*
X113166667Y-97556819D02*
X113404762Y-97556819D01*
X113404762Y-97556819D02*
X113500000Y-97509200D01*
X113500000Y-97509200D02*
X113547619Y-97461580D01*
X113547619Y-97461580D02*
X113595238Y-97366342D01*
X113595238Y-97366342D02*
X113595238Y-97271104D01*
X113595238Y-97271104D02*
X113547619Y-97175866D01*
X113547619Y-97175866D02*
X113500000Y-97128247D01*
X113500000Y-97128247D02*
X113404762Y-97080628D01*
X113404762Y-97080628D02*
X113214286Y-97033009D01*
X113214286Y-97033009D02*
X113119048Y-96985390D01*
X113119048Y-96985390D02*
X113071429Y-96937771D01*
X113071429Y-96937771D02*
X113023810Y-96842533D01*
X113023810Y-96842533D02*
X113023810Y-96747295D01*
X113023810Y-96747295D02*
X113071429Y-96652057D01*
X113071429Y-96652057D02*
X113119048Y-96604438D01*
X113119048Y-96604438D02*
X113214286Y-96556819D01*
X113214286Y-96556819D02*
X113452381Y-96556819D01*
X113452381Y-96556819D02*
X113595238Y-96604438D01*
X113928572Y-96556819D02*
X114166667Y-97556819D01*
X114166667Y-97556819D02*
X114357143Y-96842533D01*
X114357143Y-96842533D02*
X114547619Y-97556819D01*
X114547619Y-97556819D02*
X114785715Y-96556819D01*
X115166667Y-97175866D02*
X115928572Y-97175866D01*
X93642857Y-97033009D02*
X93785714Y-97080628D01*
X93785714Y-97080628D02*
X93833333Y-97128247D01*
X93833333Y-97128247D02*
X93880952Y-97223485D01*
X93880952Y-97223485D02*
X93880952Y-97366342D01*
X93880952Y-97366342D02*
X93833333Y-97461580D01*
X93833333Y-97461580D02*
X93785714Y-97509200D01*
X93785714Y-97509200D02*
X93690476Y-97556819D01*
X93690476Y-97556819D02*
X93309524Y-97556819D01*
X93309524Y-97556819D02*
X93309524Y-96556819D01*
X93309524Y-96556819D02*
X93642857Y-96556819D01*
X93642857Y-96556819D02*
X93738095Y-96604438D01*
X93738095Y-96604438D02*
X93785714Y-96652057D01*
X93785714Y-96652057D02*
X93833333Y-96747295D01*
X93833333Y-96747295D02*
X93833333Y-96842533D01*
X93833333Y-96842533D02*
X93785714Y-96937771D01*
X93785714Y-96937771D02*
X93738095Y-96985390D01*
X93738095Y-96985390D02*
X93642857Y-97033009D01*
X93642857Y-97033009D02*
X93309524Y-97033009D01*
X94261905Y-97271104D02*
X94738095Y-97271104D01*
X94166667Y-97556819D02*
X94500000Y-96556819D01*
X94500000Y-96556819D02*
X94833333Y-97556819D01*
X95023810Y-96556819D02*
X95595238Y-96556819D01*
X95309524Y-97556819D02*
X95309524Y-96556819D01*
X95928572Y-97175866D02*
X96690477Y-97175866D01*
X91273810Y-110066200D02*
X91416667Y-110113819D01*
X91416667Y-110113819D02*
X91654762Y-110113819D01*
X91654762Y-110113819D02*
X91750000Y-110066200D01*
X91750000Y-110066200D02*
X91797619Y-110018580D01*
X91797619Y-110018580D02*
X91845238Y-109923342D01*
X91845238Y-109923342D02*
X91845238Y-109828104D01*
X91845238Y-109828104D02*
X91797619Y-109732866D01*
X91797619Y-109732866D02*
X91750000Y-109685247D01*
X91750000Y-109685247D02*
X91654762Y-109637628D01*
X91654762Y-109637628D02*
X91464286Y-109590009D01*
X91464286Y-109590009D02*
X91369048Y-109542390D01*
X91369048Y-109542390D02*
X91321429Y-109494771D01*
X91321429Y-109494771D02*
X91273810Y-109399533D01*
X91273810Y-109399533D02*
X91273810Y-109304295D01*
X91273810Y-109304295D02*
X91321429Y-109209057D01*
X91321429Y-109209057D02*
X91369048Y-109161438D01*
X91369048Y-109161438D02*
X91464286Y-109113819D01*
X91464286Y-109113819D02*
X91702381Y-109113819D01*
X91702381Y-109113819D02*
X91845238Y-109161438D01*
X92178572Y-109113819D02*
X92416667Y-110113819D01*
X92416667Y-110113819D02*
X92607143Y-109399533D01*
X92607143Y-109399533D02*
X92797619Y-110113819D01*
X92797619Y-110113819D02*
X93035715Y-109113819D01*
X93416667Y-109732866D02*
X94178572Y-109732866D01*
X93797619Y-110113819D02*
X93797619Y-109351914D01*
X99666666Y-103954819D02*
X99666666Y-104669104D01*
X99666666Y-104669104D02*
X99619047Y-104811961D01*
X99619047Y-104811961D02*
X99523809Y-104907200D01*
X99523809Y-104907200D02*
X99380952Y-104954819D01*
X99380952Y-104954819D02*
X99285714Y-104954819D01*
X100666666Y-104954819D02*
X100095238Y-104954819D01*
X100380952Y-104954819D02*
X100380952Y-103954819D01*
X100380952Y-103954819D02*
X100285714Y-104097676D01*
X100285714Y-104097676D02*
X100190476Y-104192914D01*
X100190476Y-104192914D02*
X100095238Y-104240533D01*
D12*
%TO.C,BAT+*%
X95250000Y-87443000D02*
G75*
G02*
X90250000Y-87443000I-2500000J0D01*
G01*
X90250000Y-87443000D02*
G75*
G02*
X95250000Y-87443000I2500000J0D01*
G01*
%TO.C,SW-*%
X117000000Y-100000000D02*
G75*
G02*
X112000000Y-100000000I-2500000J0D01*
G01*
X112000000Y-100000000D02*
G75*
G02*
X117000000Y-100000000I2500000J0D01*
G01*
%TO.C,BAT-*%
D13*
X93800000Y-97800000D02*
X96200000Y-97800000D01*
X96200000Y-102200000D01*
X93800000Y-102200000D01*
X93800000Y-97800000D01*
D12*
%TO.C,SW+*%
X95250000Y-112557000D02*
G75*
G02*
X90250000Y-112557000I-2500000J0D01*
G01*
X90250000Y-112557000D02*
G75*
G02*
X95250000Y-112557000I2500000J0D01*
G01*
%TO.C,J1*%
X97940000Y-97240000D02*
X97940000Y-96940000D01*
X97940000Y-99240000D02*
X97940000Y-98760000D01*
X97940000Y-101240000D02*
X97940000Y-100760000D01*
X97940000Y-102760000D02*
X95560000Y-102760000D01*
X97940000Y-103060000D02*
X97940000Y-102760000D01*
X102060000Y-96940000D02*
X97940000Y-96940000D01*
X102060000Y-97240000D02*
X102060000Y-96940000D01*
X102060000Y-99240000D02*
X102060000Y-98760000D01*
X102060000Y-101240000D02*
X102060000Y-100760000D01*
X102060000Y-103060000D02*
X97940000Y-103060000D01*
X102060000Y-103060000D02*
X102060000Y-102760000D01*
%TD*%
%LPC*%
D14*
%TO.C,H2*%
X100000000Y-118000000D03*
%TD*%
%TO.C,H1*%
X100000000Y-82000000D03*
%TD*%
D15*
%TO.C,BAT+*%
X92750000Y-87443000D03*
%TD*%
%TO.C,SW-*%
X114500000Y-100000000D03*
%TD*%
D16*
%TO.C,BAT-*%
X95000000Y-100000000D03*
%TD*%
D15*
%TO.C,SW+*%
X92750000Y-112557000D03*
%TD*%
D17*
%TO.C,J1*%
X100000000Y-101000000D03*
X100000000Y-99000000D03*
D18*
X97500000Y-102000000D03*
D19*
X103125000Y-102000000D03*
X97100000Y-100000000D03*
X103125000Y-100000000D03*
D18*
X97500000Y-98000000D03*
D19*
X103125000Y-98000000D03*
%TD*%
%LPD*%
M02*
