%TF.GenerationSoftware,KiCad,Pcbnew,8.0.9-8.0.9-0~ubuntu22.04.1*%
%TF.CreationDate,2025-09-24T14:32:09+02:00*%
%TF.ProjectId,batteriedeckel,62617474-6572-4696-9564-65636b656c2e,rev?*%
%TF.SameCoordinates,Original*%
%TF.FileFunction,Copper,L1,Top*%
%TF.FilePolarity,Positive*%
%FSLAX46Y46*%
G04 Gerber Fmt 4.6, Leading zero omitted, Abs format (unit mm)*
G04 Created by KiCad (PCBNEW 8.0.9-8.0.9-0~ubuntu22.04.1) date 2025-09-24 14:32:09*
%MOMM*%
%LPD*%
G01*
G04 APERTURE LIST*
G04 Aperture macros list*
%AMFreePoly0*
4,1,5,1.000000,-2.000000,-1.000000,-2.000000,-1.000000,2.000000,1.000000,2.000000,1.000000,-2.000000,1.000000,-2.000000,$1*%
G04 Aperture macros list end*
%TA.AperFunction,ComponentPad*%
%ADD10C,5.000000*%
%TD*%
%TA.AperFunction,ComponentPad*%
%ADD11FreePoly0,0.000000*%
%TD*%
%TA.AperFunction,SMDPad,CuDef*%
%ADD12R,2.000000X1.000000*%
%TD*%
%TA.AperFunction,SMDPad,CuDef*%
%ADD13R,2.750000X1.000000*%
%TD*%
%TA.AperFunction,ViaPad*%
%ADD14C,0.800000*%
%TD*%
%TA.AperFunction,Conductor*%
%ADD15C,0.500000*%
%TD*%
G04 APERTURE END LIST*
D10*
%TO.P,BAT+,1,1*%
%TO.N,/BAT+*%
X92750000Y-87443000D03*
%TD*%
%TO.P,SW-,1,1*%
%TO.N,/GND*%
X114500000Y-100000000D03*
%TD*%
D11*
%TO.P,BAT-,1,1*%
%TO.N,/GND*%
X95000000Y-100000000D03*
%TD*%
D10*
%TO.P,SW+,1,1*%
%TO.N,/MODE*%
X92750000Y-112557000D03*
%TD*%
D12*
%TO.P,J1,1,Pin_1*%
%TO.N,/BAT+*%
X97500000Y-102000000D03*
D13*
%TO.P,J1,2,Pin_2*%
%TO.N,/MODE*%
X103125000Y-102000000D03*
%TO.P,J1,3,Pin_3*%
%TO.N,/GND*%
X97100000Y-100000000D03*
%TO.P,J1,4,Pin_4*%
X103125000Y-100000000D03*
D12*
%TO.P,J1,5,Pin_5*%
%TO.N,/MODE*%
X97500000Y-98000000D03*
D13*
%TO.P,J1,6,Pin_6*%
%TO.N,/BAT+*%
X103125000Y-98000000D03*
%TD*%
D14*
%TO.N,/GND*%
X105800000Y-100500000D03*
X105800000Y-99600000D03*
%TO.N,/MODE*%
X96900000Y-96100000D03*
X102400000Y-103700000D03*
%TD*%
D15*
%TO.N,/MODE*%
X96875000Y-98000000D02*
X96875000Y-96125000D01*
X102400000Y-103700000D02*
X103125000Y-102975000D01*
X103125000Y-102975000D02*
X103125000Y-102000000D01*
X96875000Y-96125000D02*
X96900000Y-96100000D01*
%TD*%
%TA.AperFunction,Conductor*%
%TO.N,/BAT+*%
G36*
X100237779Y-77998829D02*
G01*
X101172303Y-78028797D01*
X101177664Y-78029083D01*
X102110086Y-78098959D01*
X102115395Y-78099471D01*
X103043998Y-78209127D01*
X103049268Y-78209864D01*
X103878735Y-78343966D01*
X103972304Y-78359094D01*
X103977600Y-78360067D01*
X104101211Y-78385513D01*
X104893407Y-78548598D01*
X104898595Y-78549781D01*
X105805549Y-78777284D01*
X105810717Y-78778699D01*
X106707083Y-79044736D01*
X106712162Y-79046362D01*
X107596367Y-79350466D01*
X107601394Y-79352316D01*
X108471759Y-79693909D01*
X108476725Y-79695981D01*
X109331748Y-80074475D01*
X109336555Y-80076727D01*
X110174570Y-80491383D01*
X110179340Y-80493870D01*
X110998930Y-80943987D01*
X111003552Y-80946657D01*
X111803109Y-81431353D01*
X111807626Y-81434224D01*
X112188260Y-81687821D01*
X112585760Y-81952655D01*
X112590177Y-81955736D01*
X113345428Y-82506928D01*
X113349706Y-82510193D01*
X114080734Y-83093168D01*
X114084844Y-83096592D01*
X114736209Y-83663222D01*
X114790278Y-83710257D01*
X114794265Y-83713878D01*
X115472820Y-84357115D01*
X115476648Y-84360902D01*
X116127111Y-85032558D01*
X116130774Y-85036506D01*
X116438386Y-85382581D01*
X116751927Y-85735325D01*
X116755418Y-85739425D01*
X117346165Y-86464175D01*
X117349477Y-86468421D01*
X117908702Y-87217731D01*
X117911830Y-87222115D01*
X118438522Y-87994630D01*
X118441460Y-87999143D01*
X118934677Y-88793482D01*
X118937413Y-88798108D01*
X119396224Y-89612772D01*
X119398766Y-89617519D01*
X119822364Y-90451078D01*
X119824700Y-90455930D01*
X120212268Y-91306771D01*
X120214396Y-91311718D01*
X120565282Y-92178415D01*
X120567195Y-92183449D01*
X120880707Y-93064289D01*
X120882404Y-93069400D01*
X121157996Y-93962848D01*
X121159473Y-93968026D01*
X121396637Y-94872431D01*
X121397892Y-94877669D01*
X121596198Y-95791404D01*
X121597227Y-95796690D01*
X121756303Y-96718037D01*
X121757106Y-96723362D01*
X121876671Y-97650688D01*
X121877245Y-97656042D01*
X121957076Y-98587611D01*
X121957421Y-98592985D01*
X121997387Y-99527465D01*
X121997500Y-99532176D01*
X121999996Y-99999327D01*
X121999996Y-100000673D01*
X121997500Y-100467823D01*
X121997387Y-100472534D01*
X121957421Y-101407014D01*
X121957076Y-101412388D01*
X121877245Y-102343957D01*
X121876671Y-102349311D01*
X121757106Y-103276637D01*
X121756303Y-103281962D01*
X121597227Y-104203309D01*
X121596198Y-104208595D01*
X121397892Y-105122330D01*
X121396637Y-105127568D01*
X121159473Y-106031973D01*
X121157996Y-106037151D01*
X120882404Y-106930599D01*
X120880707Y-106935710D01*
X120567195Y-107816550D01*
X120565282Y-107821584D01*
X120214396Y-108688281D01*
X120212268Y-108693228D01*
X119824700Y-109544069D01*
X119822364Y-109548921D01*
X119398766Y-110382480D01*
X119396224Y-110387227D01*
X118937419Y-111201882D01*
X118934677Y-111206517D01*
X118441460Y-112000856D01*
X118438522Y-112005369D01*
X117911830Y-112777884D01*
X117908702Y-112782268D01*
X117349477Y-113531578D01*
X117346165Y-113535824D01*
X116755418Y-114260574D01*
X116751927Y-114264674D01*
X116130774Y-114963493D01*
X116127111Y-114967441D01*
X115476648Y-115639097D01*
X115472820Y-115642884D01*
X114794265Y-116286121D01*
X114790278Y-116289742D01*
X114084858Y-116903395D01*
X114080721Y-116906842D01*
X113349709Y-117489804D01*
X113345428Y-117493071D01*
X112590177Y-118044263D01*
X112585760Y-118047344D01*
X111807640Y-118565766D01*
X111803095Y-118568655D01*
X111003573Y-119053330D01*
X110998910Y-119056023D01*
X110179345Y-119506126D01*
X110174570Y-119508616D01*
X109336590Y-119923255D01*
X109331714Y-119925540D01*
X108476729Y-120304016D01*
X108471759Y-120306090D01*
X107601407Y-120647678D01*
X107596353Y-120649538D01*
X106712187Y-120953629D01*
X106707058Y-120955271D01*
X105810730Y-121221296D01*
X105805536Y-121222718D01*
X104898626Y-121450210D01*
X104893376Y-121451408D01*
X103977600Y-121639932D01*
X103972304Y-121640905D01*
X103049300Y-121790130D01*
X103043966Y-121790876D01*
X102115420Y-121900525D01*
X102110060Y-121901042D01*
X101177672Y-121970915D01*
X101172294Y-121971202D01*
X100237810Y-122001169D01*
X100232426Y-122001227D01*
X99297469Y-121991236D01*
X99292086Y-121991063D01*
X98358449Y-121941133D01*
X98353079Y-121940731D01*
X97422388Y-121850948D01*
X97417040Y-121850316D01*
X96491078Y-121720854D01*
X96485762Y-121719995D01*
X95566145Y-121551078D01*
X95560870Y-121549992D01*
X95105098Y-121445965D01*
X94649319Y-121341936D01*
X94644113Y-121340630D01*
X93742257Y-121093807D01*
X93737098Y-121092275D01*
X93306830Y-120954503D01*
X92846659Y-120807155D01*
X92841571Y-120805406D01*
X91964116Y-120482494D01*
X91959103Y-120480527D01*
X91096228Y-120120409D01*
X91091304Y-120118229D01*
X90244635Y-119721584D01*
X90239808Y-119719196D01*
X89410824Y-119286716D01*
X89406104Y-119284123D01*
X88596403Y-118816641D01*
X88591798Y-118813850D01*
X87802780Y-118312178D01*
X87798298Y-118309192D01*
X87181169Y-117878709D01*
X98149500Y-117878709D01*
X98149500Y-118121290D01*
X98181160Y-118361782D01*
X98243944Y-118596095D01*
X98243945Y-118596097D01*
X98243946Y-118596100D01*
X98336776Y-118820212D01*
X98336777Y-118820213D01*
X98336782Y-118820224D01*
X98458061Y-119030285D01*
X98458063Y-119030288D01*
X98458064Y-119030289D01*
X98605735Y-119222738D01*
X98605739Y-119222742D01*
X98605744Y-119222748D01*
X98777251Y-119394255D01*
X98777256Y-119394259D01*
X98777262Y-119394265D01*
X98969711Y-119541936D01*
X98969714Y-119541938D01*
X99179775Y-119663217D01*
X99179779Y-119663218D01*
X99179788Y-119663224D01*
X99403900Y-119756054D01*
X99638211Y-119818838D01*
X99638215Y-119818838D01*
X99638217Y-119818839D01*
X99700202Y-119826999D01*
X99878712Y-119850500D01*
X99878719Y-119850500D01*
X100121281Y-119850500D01*
X100121288Y-119850500D01*
X100338637Y-119821885D01*
X100361782Y-119818839D01*
X100361782Y-119818838D01*
X100361789Y-119818838D01*
X100596100Y-119756054D01*
X100820212Y-119663224D01*
X101030289Y-119541936D01*
X101222738Y-119394265D01*
X101394265Y-119222738D01*
X101541936Y-119030289D01*
X101663224Y-118820212D01*
X101756054Y-118596100D01*
X101818838Y-118361789D01*
X101850500Y-118121288D01*
X101850500Y-117878712D01*
X101818838Y-117638211D01*
X101756054Y-117403900D01*
X101663224Y-117179788D01*
X101663218Y-117179779D01*
X101663217Y-117179775D01*
X101541938Y-116969714D01*
X101541936Y-116969711D01*
X101394265Y-116777262D01*
X101394259Y-116777256D01*
X101394255Y-116777251D01*
X101222748Y-116605744D01*
X101222742Y-116605739D01*
X101222738Y-116605735D01*
X101030289Y-116458064D01*
X101030288Y-116458063D01*
X101030285Y-116458061D01*
X100820224Y-116336782D01*
X100820216Y-116336778D01*
X100820212Y-116336776D01*
X100596100Y-116243946D01*
X100596097Y-116243945D01*
X100596095Y-116243944D01*
X100361782Y-116181160D01*
X100121290Y-116149500D01*
X100121288Y-116149500D01*
X99878712Y-116149500D01*
X99878709Y-116149500D01*
X99638217Y-116181160D01*
X99403904Y-116243944D01*
X99403900Y-116243946D01*
X99293339Y-116289742D01*
X99179786Y-116336777D01*
X99179775Y-116336782D01*
X98969714Y-116458061D01*
X98777262Y-116605735D01*
X98777251Y-116605744D01*
X98605744Y-116777251D01*
X98605735Y-116777262D01*
X98458061Y-116969714D01*
X98336782Y-117179775D01*
X98336777Y-117179786D01*
X98336776Y-117179788D01*
X98326796Y-117203883D01*
X98243946Y-117403900D01*
X98243944Y-117403904D01*
X98181160Y-117638217D01*
X98149500Y-117878709D01*
X87181169Y-117878709D01*
X87031439Y-117774264D01*
X87027089Y-117771089D01*
X86283789Y-117203883D01*
X86279579Y-117200525D01*
X85561214Y-116602092D01*
X85557151Y-116598558D01*
X84864987Y-115969953D01*
X84861079Y-115966248D01*
X84196436Y-115308670D01*
X84192689Y-115304802D01*
X83779070Y-114859027D01*
X83556708Y-114619377D01*
X83553137Y-114615359D01*
X83449912Y-114494105D01*
X82947053Y-113903418D01*
X82943676Y-113899276D01*
X82368530Y-113162040D01*
X82365310Y-113157724D01*
X81936656Y-112557000D01*
X89736401Y-112557000D01*
X89756777Y-112906846D01*
X89756777Y-112906852D01*
X89756778Y-112906857D01*
X89817633Y-113251984D01*
X89918143Y-113587712D01*
X90056950Y-113909501D01*
X90232175Y-114213000D01*
X90441449Y-114494104D01*
X90681943Y-114749012D01*
X90681948Y-114749016D01*
X90681954Y-114749022D01*
X90950396Y-114974273D01*
X90950400Y-114974276D01*
X90950403Y-114974278D01*
X91243200Y-115166853D01*
X91556374Y-115324135D01*
X91721032Y-115384065D01*
X91885681Y-115443993D01*
X91885682Y-115443993D01*
X91885690Y-115443996D01*
X92226694Y-115524816D01*
X92425597Y-115548064D01*
X92574772Y-115565500D01*
X92574775Y-115565500D01*
X92925228Y-115565500D01*
X93055755Y-115550243D01*
X93273306Y-115524816D01*
X93614310Y-115443996D01*
X93943626Y-115324135D01*
X94256800Y-115166853D01*
X94549597Y-114974278D01*
X94818057Y-114749012D01*
X95058551Y-114494104D01*
X95267825Y-114213000D01*
X95443050Y-113909501D01*
X95581857Y-113587712D01*
X95682367Y-113251984D01*
X95743222Y-112906857D01*
X95763599Y-112557000D01*
X95743222Y-112207143D01*
X95682367Y-111862016D01*
X95581857Y-111526288D01*
X95443050Y-111204499D01*
X95267825Y-110901000D01*
X95058551Y-110619896D01*
X94818057Y-110364988D01*
X94818050Y-110364982D01*
X94818045Y-110364977D01*
X94549603Y-110139726D01*
X94549597Y-110139722D01*
X94256800Y-109947147D01*
X93943626Y-109789865D01*
X93943621Y-109789863D01*
X93943616Y-109789861D01*
X93614318Y-109670006D01*
X93614313Y-109670005D01*
X93614312Y-109670004D01*
X93614310Y-109670004D01*
X93426961Y-109625601D01*
X93273307Y-109589184D01*
X93273301Y-109589183D01*
X92925228Y-109548500D01*
X92925225Y-109548500D01*
X92574775Y-109548500D01*
X92574772Y-109548500D01*
X92226698Y-109589183D01*
X92226692Y-109589184D01*
X91885686Y-109670005D01*
X91885681Y-109670006D01*
X91556383Y-109789861D01*
X91556378Y-109789863D01*
X91243198Y-109947148D01*
X90950396Y-110139726D01*
X90681954Y-110364977D01*
X90681948Y-110364983D01*
X90441450Y-110619894D01*
X90232178Y-110900995D01*
X90232168Y-110901011D01*
X90056953Y-111204493D01*
X90056944Y-111204511D01*
X89918146Y-111526280D01*
X89918143Y-111526288D01*
X89860581Y-111718556D01*
X89817633Y-111862015D01*
X89756777Y-112207147D01*
X89756777Y-112207153D01*
X89736401Y-112557000D01*
X81936656Y-112557000D01*
X81822236Y-112396650D01*
X81819202Y-112392200D01*
X81309135Y-111608600D01*
X81306294Y-111604025D01*
X81260293Y-111526280D01*
X80830160Y-110799320D01*
X80827523Y-110794636D01*
X80733971Y-110619894D01*
X80386225Y-109970350D01*
X80383788Y-109965554D01*
X80183148Y-109548921D01*
X79978103Y-109123141D01*
X79975877Y-109118253D01*
X79606565Y-108259290D01*
X79604544Y-108254298D01*
X79272278Y-107380349D01*
X79270472Y-107375276D01*
X78975843Y-106487902D01*
X78974256Y-106482756D01*
X78845691Y-106031973D01*
X78717813Y-105583598D01*
X78716463Y-105578450D01*
X78498670Y-104669137D01*
X78497529Y-104663878D01*
X78318802Y-103746151D01*
X78317885Y-103740844D01*
X78222788Y-103109918D01*
X78178526Y-102816261D01*
X78177839Y-102810927D01*
X78170896Y-102746202D01*
X78078116Y-101881248D01*
X78077663Y-101875961D01*
X78017754Y-100942829D01*
X78017525Y-100937467D01*
X78014608Y-100800997D01*
X77997545Y-100002666D01*
X77997545Y-99997333D01*
X78017525Y-99062512D01*
X78017755Y-99057152D01*
X78077663Y-98124034D01*
X78078115Y-98118755D01*
X78090853Y-98000002D01*
X93486500Y-98000002D01*
X93486500Y-101999994D01*
X93491727Y-102073081D01*
X93532903Y-102213313D01*
X93532904Y-102213316D01*
X93611923Y-102336271D01*
X93722381Y-102431984D01*
X93855330Y-102492700D01*
X94000000Y-102513500D01*
X94000003Y-102513500D01*
X95999994Y-102513500D01*
X96000000Y-102513500D01*
X96073079Y-102508273D01*
X96213316Y-102467096D01*
X96336271Y-102388077D01*
X96431984Y-102277619D01*
X96492700Y-102144670D01*
X96513500Y-102000000D01*
X96513500Y-101603697D01*
X96533502Y-101535576D01*
X96587158Y-101489083D01*
X96641496Y-101477713D01*
X98791279Y-101511838D01*
X98875732Y-101506202D01*
X98907896Y-101501369D01*
X99004155Y-101477207D01*
X99133422Y-101409000D01*
X99146631Y-101399402D01*
X99213495Y-101375545D01*
X99282647Y-101391624D01*
X99325456Y-101431336D01*
X99378211Y-101510289D01*
X99489711Y-101621789D01*
X99620821Y-101709394D01*
X99766503Y-101769737D01*
X99921158Y-101800500D01*
X99921159Y-101800500D01*
X100078841Y-101800500D01*
X100078842Y-101800500D01*
X100233497Y-101769737D01*
X100379179Y-101709394D01*
X100510289Y-101621789D01*
X100621789Y-101510289D01*
X100709394Y-101379179D01*
X100756829Y-101264658D01*
X100801377Y-101209378D01*
X100868740Y-101186957D01*
X100937532Y-101204515D01*
X100958432Y-101220045D01*
X101017896Y-101274620D01*
X101050970Y-101304975D01*
X101171093Y-101364035D01*
X101223400Y-101412041D01*
X101241500Y-101477107D01*
X101241500Y-102548649D01*
X101248009Y-102609196D01*
X101248011Y-102609204D01*
X101299110Y-102746202D01*
X101299112Y-102746207D01*
X101386738Y-102863261D01*
X101503792Y-102950887D01*
X101503796Y-102950889D01*
X101594338Y-102984660D01*
X101651174Y-103027206D01*
X101675984Y-103093727D01*
X101660892Y-103163101D01*
X101659424Y-103165715D01*
X101592309Y-103281962D01*
X101565473Y-103328444D01*
X101550999Y-103372986D01*
X101506457Y-103510072D01*
X101486496Y-103700000D01*
X101506457Y-103889927D01*
X101510612Y-103902714D01*
X101565473Y-104071556D01*
X101565476Y-104071561D01*
X101660958Y-104236941D01*
X101660965Y-104236951D01*
X101788744Y-104378864D01*
X101788747Y-104378866D01*
X101943248Y-104491118D01*
X102117712Y-104568794D01*
X102304513Y-104608500D01*
X102495487Y-104608500D01*
X102682288Y-104568794D01*
X102856752Y-104491118D01*
X103011253Y-104378866D01*
X103139040Y-104236944D01*
X103234527Y-104071556D01*
X103289388Y-103902712D01*
X103320123Y-103852556D01*
X103714166Y-103458515D01*
X103797174Y-103334284D01*
X103854351Y-103196247D01*
X103871523Y-103109918D01*
X103904431Y-103047008D01*
X103966126Y-103011877D01*
X103995102Y-103008500D01*
X104548632Y-103008500D01*
X104548638Y-103008500D01*
X104548645Y-103008499D01*
X104548649Y-103008499D01*
X104609196Y-103001990D01*
X104609199Y-103001989D01*
X104609201Y-103001989D01*
X104746204Y-102950889D01*
X104863261Y-102863261D01*
X104935218Y-102767138D01*
X104950887Y-102746207D01*
X104950887Y-102746206D01*
X104950889Y-102746204D01*
X105001989Y-102609201D01*
X105008500Y-102548638D01*
X105008500Y-101539500D01*
X105028502Y-101471379D01*
X105082158Y-101424886D01*
X105134500Y-101413500D01*
X106300999Y-101413500D01*
X106301000Y-101413500D01*
X106381322Y-101407179D01*
X106411915Y-101402334D01*
X106504155Y-101378792D01*
X106633422Y-101310585D01*
X106682922Y-101274621D01*
X106706147Y-101256711D01*
X106804975Y-101149030D01*
X106869462Y-101017868D01*
X106888369Y-100959677D01*
X106892700Y-100945670D01*
X106913500Y-100801000D01*
X106913500Y-100000000D01*
X111486401Y-100000000D01*
X111506777Y-100349846D01*
X111506777Y-100349852D01*
X111528409Y-100472534D01*
X111567633Y-100694984D01*
X111668143Y-101030712D01*
X111668145Y-101030718D01*
X111668146Y-101030719D01*
X111788868Y-101310584D01*
X111806950Y-101352501D01*
X111982175Y-101656000D01*
X112191449Y-101937104D01*
X112431943Y-102192012D01*
X112431948Y-102192016D01*
X112431954Y-102192022D01*
X112700396Y-102417273D01*
X112700400Y-102417276D01*
X112700403Y-102417278D01*
X112993200Y-102609853D01*
X113306374Y-102767135D01*
X113426692Y-102810927D01*
X113635681Y-102886993D01*
X113635682Y-102886993D01*
X113635690Y-102886996D01*
X113976694Y-102967816D01*
X114175597Y-102991064D01*
X114324772Y-103008500D01*
X114324775Y-103008500D01*
X114675228Y-103008500D01*
X114805755Y-102993243D01*
X115023306Y-102967816D01*
X115364310Y-102886996D01*
X115693626Y-102767135D01*
X116006800Y-102609853D01*
X116299597Y-102417278D01*
X116568057Y-102192012D01*
X116808551Y-101937104D01*
X117017825Y-101656000D01*
X117193050Y-101352501D01*
X117331857Y-101030712D01*
X117432367Y-100694984D01*
X117493222Y-100349857D01*
X117513599Y-100000000D01*
X117493222Y-99650143D01*
X117432367Y-99305016D01*
X117331857Y-98969288D01*
X117193050Y-98647499D01*
X117017825Y-98344000D01*
X116808551Y-98062896D01*
X116568057Y-97807988D01*
X116568050Y-97807982D01*
X116568045Y-97807977D01*
X116299603Y-97582726D01*
X116299597Y-97582722D01*
X116006800Y-97390147D01*
X115693626Y-97232865D01*
X115693621Y-97232863D01*
X115693616Y-97232861D01*
X115364318Y-97113006D01*
X115364313Y-97113005D01*
X115364312Y-97113004D01*
X115364310Y-97113004D01*
X115176961Y-97068601D01*
X115023307Y-97032184D01*
X115023301Y-97032183D01*
X114675228Y-96991500D01*
X114675225Y-96991500D01*
X114324775Y-96991500D01*
X114324772Y-96991500D01*
X113976698Y-97032183D01*
X113976692Y-97032184D01*
X113635686Y-97113005D01*
X113635681Y-97113006D01*
X113306383Y-97232861D01*
X113306378Y-97232863D01*
X112993198Y-97390148D01*
X112700396Y-97582726D01*
X112431954Y-97807977D01*
X112431948Y-97807983D01*
X112191450Y-98062894D01*
X111982178Y-98343995D01*
X111982168Y-98344011D01*
X111806953Y-98647493D01*
X111806944Y-98647511D01*
X111712445Y-98866584D01*
X111668143Y-98969288D01*
X111640234Y-99062512D01*
X111567633Y-99305015D01*
X111506777Y-99650147D01*
X111506777Y-99650153D01*
X111486401Y-100000000D01*
X106913500Y-100000000D01*
X106913500Y-99199000D01*
X106907179Y-99118678D01*
X106902334Y-99088085D01*
X106878792Y-98995845D01*
X106810585Y-98866578D01*
X106774621Y-98817078D01*
X106774620Y-98817076D01*
X106756714Y-98793857D01*
X106756711Y-98793853D01*
X106649030Y-98695025D01*
X106637612Y-98689411D01*
X106517871Y-98630539D01*
X106517868Y-98630538D01*
X106459677Y-98611631D01*
X106445670Y-98607300D01*
X106445671Y-98607300D01*
X106409502Y-98602100D01*
X106301000Y-98586500D01*
X101399000Y-98586500D01*
X101372226Y-98588607D01*
X101318676Y-98592821D01*
X101288092Y-98597664D01*
X101288077Y-98597667D01*
X101195853Y-98621205D01*
X101195846Y-98621207D01*
X101066584Y-98689411D01*
X101066577Y-98689415D01*
X101017076Y-98725379D01*
X100993854Y-98743287D01*
X100993852Y-98743289D01*
X100966422Y-98773177D01*
X100905624Y-98809840D01*
X100834657Y-98807812D01*
X100776051Y-98767738D01*
X100757184Y-98736197D01*
X100752703Y-98725379D01*
X100709394Y-98620821D01*
X100621789Y-98489711D01*
X100510289Y-98378211D01*
X100379179Y-98290606D01*
X100233497Y-98230263D01*
X100078844Y-98199500D01*
X100078842Y-98199500D01*
X99921158Y-98199500D01*
X99921155Y-98199500D01*
X99766502Y-98230263D01*
X99766497Y-98230265D01*
X99620820Y-98290606D01*
X99489715Y-98378208D01*
X99489708Y-98378213D01*
X99378213Y-98489708D01*
X99378208Y-98489715D01*
X99290605Y-98620821D01*
X99290603Y-98620825D01*
X99258569Y-98698162D01*
X99214021Y-98753443D01*
X99146657Y-98775863D01*
X99084778Y-98762118D01*
X99066641Y-98752840D01*
X99015104Y-98704009D01*
X98998148Y-98635067D01*
X99001403Y-98611682D01*
X99001989Y-98609199D01*
X99004430Y-98586500D01*
X99008500Y-98548638D01*
X99008500Y-97451362D01*
X99002783Y-97398184D01*
X99001990Y-97390803D01*
X99001988Y-97390795D01*
X98950889Y-97253797D01*
X98950887Y-97253792D01*
X98863261Y-97136738D01*
X98746207Y-97049112D01*
X98746202Y-97049110D01*
X98609204Y-96998011D01*
X98609196Y-96998009D01*
X98548649Y-96991500D01*
X98548638Y-96991500D01*
X97759500Y-96991500D01*
X97691379Y-96971498D01*
X97644886Y-96917842D01*
X97633500Y-96865500D01*
X97633500Y-96680300D01*
X97650381Y-96617300D01*
X97664008Y-96593698D01*
X97734527Y-96471556D01*
X97793542Y-96289928D01*
X97813504Y-96100000D01*
X97793542Y-95910072D01*
X97734527Y-95728444D01*
X97639040Y-95563056D01*
X97639038Y-95563054D01*
X97639034Y-95563048D01*
X97511255Y-95421135D01*
X97356752Y-95308882D01*
X97182288Y-95231206D01*
X96995487Y-95191500D01*
X96804513Y-95191500D01*
X96617711Y-95231206D01*
X96443247Y-95308882D01*
X96288744Y-95421135D01*
X96160965Y-95563048D01*
X96160958Y-95563058D01*
X96065476Y-95728438D01*
X96065473Y-95728445D01*
X96006457Y-95910072D01*
X95986496Y-96100000D01*
X96006457Y-96289927D01*
X96044384Y-96406653D01*
X96065472Y-96471554D01*
X96065475Y-96471561D01*
X96099618Y-96530697D01*
X96116500Y-96593698D01*
X96116500Y-97121838D01*
X96096498Y-97189959D01*
X96091368Y-97197347D01*
X96049112Y-97253792D01*
X96049110Y-97253797D01*
X95995256Y-97398184D01*
X95993698Y-97397603D01*
X95963182Y-97451181D01*
X95900269Y-97484081D01*
X95875700Y-97486500D01*
X94000000Y-97486500D01*
X93951280Y-97489984D01*
X93926918Y-97491727D01*
X93786686Y-97532903D01*
X93786682Y-97532905D01*
X93663729Y-97611922D01*
X93568016Y-97722380D01*
X93507300Y-97855329D01*
X93486500Y-98000002D01*
X78090853Y-98000002D01*
X78177841Y-97189055D01*
X78178527Y-97183732D01*
X78189188Y-97113006D01*
X78317885Y-96259153D01*
X78318802Y-96253848D01*
X78385752Y-95910072D01*
X78497531Y-95336107D01*
X78498671Y-95330858D01*
X78607844Y-94875047D01*
X78716465Y-94421538D01*
X78717810Y-94416412D01*
X78974260Y-93517228D01*
X78975843Y-93512097D01*
X79270472Y-92624723D01*
X79272278Y-92619650D01*
X79438117Y-92183449D01*
X79604555Y-91745673D01*
X79606553Y-91740736D01*
X79975890Y-90881717D01*
X79978095Y-90876875D01*
X80383799Y-90034421D01*
X80386215Y-90029667D01*
X80827538Y-89205335D01*
X80830149Y-89200698D01*
X81306315Y-88395939D01*
X81309113Y-88391433D01*
X81819213Y-87607782D01*
X81822224Y-87603366D01*
X82365326Y-86842252D01*
X82368513Y-86837981D01*
X82943694Y-86100700D01*
X82947034Y-86096604D01*
X83553164Y-85384609D01*
X83556687Y-85380645D01*
X84192699Y-84695185D01*
X84196436Y-84691329D01*
X84861093Y-84033737D01*
X84864973Y-84030059D01*
X85557162Y-83401430D01*
X85561202Y-83397917D01*
X86279604Y-82799453D01*
X86283764Y-82796135D01*
X87027106Y-82228896D01*
X87031420Y-82225748D01*
X87528927Y-81878709D01*
X98149500Y-81878709D01*
X98149500Y-82121290D01*
X98181160Y-82361782D01*
X98243944Y-82596095D01*
X98243945Y-82596097D01*
X98243946Y-82596100D01*
X98336776Y-82820212D01*
X98336777Y-82820213D01*
X98336782Y-82820224D01*
X98458061Y-83030285D01*
X98458063Y-83030288D01*
X98458064Y-83030289D01*
X98605735Y-83222738D01*
X98605739Y-83222742D01*
X98605744Y-83222748D01*
X98777251Y-83394255D01*
X98777256Y-83394259D01*
X98777262Y-83394265D01*
X98969711Y-83541936D01*
X98969714Y-83541938D01*
X99179775Y-83663217D01*
X99179779Y-83663218D01*
X99179788Y-83663224D01*
X99403900Y-83756054D01*
X99638211Y-83818838D01*
X99638215Y-83818838D01*
X99638217Y-83818839D01*
X99700202Y-83826999D01*
X99878712Y-83850500D01*
X99878719Y-83850500D01*
X100121281Y-83850500D01*
X100121288Y-83850500D01*
X100338637Y-83821885D01*
X100361782Y-83818839D01*
X100361782Y-83818838D01*
X100361789Y-83818838D01*
X100596100Y-83756054D01*
X100820212Y-83663224D01*
X101030289Y-83541936D01*
X101222738Y-83394265D01*
X101394265Y-83222738D01*
X101541936Y-83030289D01*
X101663224Y-82820212D01*
X101756054Y-82596100D01*
X101818838Y-82361789D01*
X101850500Y-82121288D01*
X101850500Y-81878712D01*
X101818838Y-81638211D01*
X101756054Y-81403900D01*
X101663224Y-81179788D01*
X101663218Y-81179779D01*
X101663217Y-81179775D01*
X101541938Y-80969714D01*
X101522197Y-80943987D01*
X101394265Y-80777262D01*
X101394259Y-80777256D01*
X101394255Y-80777251D01*
X101222748Y-80605744D01*
X101222742Y-80605739D01*
X101222738Y-80605735D01*
X101030289Y-80458064D01*
X101030288Y-80458063D01*
X101030285Y-80458061D01*
X100820224Y-80336782D01*
X100820216Y-80336778D01*
X100820212Y-80336776D01*
X100596100Y-80243946D01*
X100596097Y-80243945D01*
X100596095Y-80243944D01*
X100361782Y-80181160D01*
X100121290Y-80149500D01*
X100121288Y-80149500D01*
X99878712Y-80149500D01*
X99878709Y-80149500D01*
X99638217Y-80181160D01*
X99403904Y-80243944D01*
X99403900Y-80243946D01*
X99179786Y-80336777D01*
X99179775Y-80336782D01*
X98969714Y-80458061D01*
X98777262Y-80605735D01*
X98777251Y-80605744D01*
X98605744Y-80777251D01*
X98605735Y-80777262D01*
X98458061Y-80969714D01*
X98336782Y-81179775D01*
X98336777Y-81179786D01*
X98243946Y-81403900D01*
X98243944Y-81403904D01*
X98181160Y-81638217D01*
X98149500Y-81878709D01*
X87528927Y-81878709D01*
X87798336Y-81690781D01*
X87802742Y-81687846D01*
X88591826Y-81186131D01*
X88596373Y-81183375D01*
X89406141Y-80715855D01*
X89410787Y-80713303D01*
X90239831Y-80280791D01*
X90244610Y-80278426D01*
X91091320Y-79881762D01*
X91096212Y-79879596D01*
X91959133Y-79519459D01*
X91964086Y-79517516D01*
X92841617Y-79194577D01*
X92846617Y-79192857D01*
X93737146Y-78907709D01*
X93742214Y-78906204D01*
X94644156Y-78659357D01*
X94649274Y-78658074D01*
X95560906Y-78449999D01*
X95566109Y-78448928D01*
X96485795Y-78279998D01*
X96491044Y-78279150D01*
X97417065Y-78149679D01*
X97422363Y-78149053D01*
X98353109Y-78059265D01*
X98358418Y-78058868D01*
X99292101Y-78008935D01*
X99297454Y-78008763D01*
X100232456Y-77998772D01*
X100237779Y-77998829D01*
G37*
%TD.AperFunction*%
%TD*%
%TA.AperFunction,Conductor*%
%TO.N,/GND*%
G36*
X106359191Y-99118907D02*
G01*
X106395155Y-99168407D01*
X106400000Y-99199000D01*
X106400000Y-100801000D01*
X106381093Y-100859191D01*
X106331593Y-100895155D01*
X106301000Y-100900000D01*
X101399000Y-100900000D01*
X101340809Y-100881093D01*
X101304845Y-100831593D01*
X101300000Y-100801000D01*
X101300000Y-99199000D01*
X101318907Y-99140809D01*
X101368407Y-99104845D01*
X101399000Y-99100000D01*
X106301000Y-99100000D01*
X106359191Y-99118907D01*
G37*
%TD.AperFunction*%
%TD*%
%TA.AperFunction,Conductor*%
%TO.N,/GND*%
G36*
X98802572Y-99198453D02*
G01*
X98860455Y-99218282D01*
X98895628Y-99268346D01*
X98900000Y-99297441D01*
X98900000Y-100899415D01*
X98881093Y-100957606D01*
X98831593Y-100993570D01*
X98799429Y-100998403D01*
X95847429Y-100951546D01*
X95789545Y-100931717D01*
X95754372Y-100881653D01*
X95750000Y-100852558D01*
X95750000Y-99250584D01*
X95768907Y-99192393D01*
X95818407Y-99156429D01*
X95850568Y-99151596D01*
X98802572Y-99198453D01*
G37*
%TD.AperFunction*%
%TD*%
M02*
