%TF.GenerationSoftware,KiCad,Pcbnew,8.0.9-8.0.9-0~ubuntu22.04.1*%
%TF.CreationDate,2025-09-24T14:32:09+02:00*%
%TF.ProjectId,batteriedeckel,62617474-6572-4696-9564-65636b656c2e,rev?*%
%TF.SameCoordinates,Original*%
%TF.FileFunction,Copper,L2,Bot*%
%TF.FilePolarity,Positive*%
%FSLAX46Y46*%
G04 Gerber Fmt 4.6, Leading zero omitted, Abs format (unit mm)*
G04 Created by KiCad (PCBNEW 8.0.9-8.0.9-0~ubuntu22.04.1) date 2025-09-24 14:32:09*
%MOMM*%
%LPD*%
G01*
G04 APERTURE LIST*
G04 Aperture macros list*
%AMFreePoly0*
4,1,5,1.000000,-2.000000,-1.000000,-2.000000,-1.000000,2.000000,1.000000,2.000000,1.000000,-2.000000,1.000000,-2.000000,$1*%
G04 Aperture macros list end*
%TA.AperFunction,ComponentPad*%
%ADD10C,5.000000*%
%TD*%
%TA.AperFunction,ComponentPad*%
%ADD11FreePoly0,0.000000*%
%TD*%
%TA.AperFunction,ViaPad*%
%ADD12C,0.800000*%
%TD*%
%TA.AperFunction,Conductor*%
%ADD13C,0.500000*%
%TD*%
%TA.AperFunction,Conductor*%
%ADD14C,0.300000*%
%TD*%
G04 APERTURE END LIST*
D10*
%TO.P,BAT+,1,1*%
%TO.N,/BAT+*%
X92750000Y-87443000D03*
%TD*%
%TO.P,SW-,1,1*%
%TO.N,/GND*%
X114500000Y-100000000D03*
%TD*%
D11*
%TO.P,BAT-,1,1*%
%TO.N,/GND*%
X95000000Y-100000000D03*
%TD*%
D10*
%TO.P,SW+,1,1*%
%TO.N,/MODE*%
X92750000Y-112557000D03*
%TD*%
D12*
%TO.N,/GND*%
X105800000Y-100500000D03*
X105800000Y-99600000D03*
%TO.N,/MODE*%
X96900000Y-96100000D03*
X102400000Y-103700000D03*
%TD*%
D13*
%TO.N,/MODE*%
X96900000Y-103700000D02*
X92750000Y-103700000D01*
X102400000Y-103700000D02*
X96900000Y-103700000D01*
X92750000Y-103700000D02*
X92750000Y-112557000D01*
X96900000Y-96100000D02*
X96900000Y-103700000D01*
D14*
X92850000Y-103600000D02*
X92750000Y-103700000D01*
%TD*%
%TA.AperFunction,Conductor*%
%TO.N,/GND*%
G36*
X100275460Y-78000038D02*
G01*
X101173439Y-78028833D01*
X101176564Y-78029001D01*
X102111193Y-78099042D01*
X102114310Y-78099343D01*
X103045100Y-78209257D01*
X103048167Y-78209686D01*
X103973424Y-78359275D01*
X103976460Y-78359832D01*
X104894486Y-78548820D01*
X104897542Y-78549518D01*
X105806629Y-78777555D01*
X105809640Y-78778379D01*
X106708121Y-79045044D01*
X106711129Y-79046006D01*
X107597429Y-79350831D01*
X107600335Y-79351900D01*
X108396884Y-79664522D01*
X108472793Y-79694315D01*
X108475712Y-79695533D01*
X109332722Y-80074906D01*
X109335581Y-80076246D01*
X110175621Y-80491903D01*
X110178363Y-80493334D01*
X110968838Y-80927461D01*
X110999863Y-80944500D01*
X111002602Y-80946081D01*
X111804059Y-81431929D01*
X111806728Y-81433626D01*
X112586713Y-81953290D01*
X112589273Y-81955076D01*
X113146547Y-82361782D01*
X113346317Y-82507577D01*
X113348831Y-82509495D01*
X114081589Y-83093850D01*
X114084019Y-83095875D01*
X114791103Y-83710975D01*
X114793445Y-83713101D01*
X115473629Y-84357882D01*
X115475877Y-84360106D01*
X116098586Y-85003104D01*
X116127891Y-85033363D01*
X116130042Y-85035682D01*
X116752672Y-85736164D01*
X116754722Y-85738572D01*
X117346858Y-86465024D01*
X117348804Y-86467518D01*
X117909361Y-87218614D01*
X117911198Y-87221188D01*
X118439159Y-87995564D01*
X118440884Y-87998215D01*
X118891261Y-88723560D01*
X118935254Y-88794411D01*
X118936865Y-88797133D01*
X119396782Y-89613763D01*
X119398274Y-89616551D01*
X119694022Y-90198526D01*
X119822857Y-90452047D01*
X119824230Y-90454897D01*
X120212738Y-91307803D01*
X120213987Y-91310708D01*
X120565691Y-92179424D01*
X120566815Y-92182380D01*
X120881086Y-93065352D01*
X120882082Y-93068354D01*
X121158322Y-93963905D01*
X121159190Y-93966946D01*
X121396919Y-94873505D01*
X121397656Y-94876581D01*
X121596435Y-95792499D01*
X121597039Y-95795604D01*
X121756495Y-96719144D01*
X121756966Y-96722271D01*
X121876810Y-97651768D01*
X121877148Y-97654913D01*
X121957172Y-98588732D01*
X121957374Y-98591888D01*
X121997428Y-99528416D01*
X121997495Y-99531183D01*
X121999997Y-99999605D01*
X121999997Y-100000395D01*
X121997495Y-100468816D01*
X121997428Y-100471583D01*
X121957374Y-101408111D01*
X121957172Y-101411267D01*
X121877148Y-102345086D01*
X121876810Y-102348231D01*
X121756966Y-103277728D01*
X121756495Y-103280855D01*
X121597039Y-104204395D01*
X121596435Y-104207500D01*
X121397656Y-105123418D01*
X121396919Y-105126494D01*
X121159190Y-106033053D01*
X121158322Y-106036094D01*
X120882082Y-106931645D01*
X120881086Y-106934647D01*
X120566815Y-107817619D01*
X120565691Y-107820575D01*
X120213987Y-108689291D01*
X120212738Y-108692196D01*
X119824230Y-109545102D01*
X119822857Y-109547952D01*
X119398274Y-110383448D01*
X119396782Y-110386236D01*
X118936865Y-111202866D01*
X118935254Y-111205588D01*
X118440884Y-112001784D01*
X118439159Y-112004435D01*
X117911198Y-112778811D01*
X117909361Y-112781385D01*
X117348804Y-113532481D01*
X117346858Y-113534975D01*
X116754722Y-114261427D01*
X116752672Y-114263835D01*
X116130042Y-114964317D01*
X116127891Y-114966636D01*
X115475877Y-115639893D01*
X115473629Y-115642117D01*
X114793445Y-116286898D01*
X114791103Y-116289024D01*
X114084019Y-116904124D01*
X114081589Y-116906149D01*
X113348831Y-117490504D01*
X113346317Y-117492422D01*
X112589290Y-118044911D01*
X112586696Y-118046721D01*
X111806728Y-118566373D01*
X111804059Y-118568070D01*
X111002602Y-119053918D01*
X110999863Y-119055499D01*
X110178394Y-119506649D01*
X110175590Y-119508112D01*
X109335586Y-119923751D01*
X109332722Y-119925093D01*
X108475712Y-120304466D01*
X108472793Y-120305684D01*
X107600366Y-120648087D01*
X107597398Y-120649179D01*
X106711133Y-120953991D01*
X106708121Y-120954955D01*
X105809659Y-121221614D01*
X105806609Y-121222449D01*
X104897556Y-121450478D01*
X104894472Y-121451182D01*
X103976497Y-121640160D01*
X103973386Y-121640731D01*
X103048199Y-121790308D01*
X103045067Y-121790746D01*
X102114326Y-121900654D01*
X102111178Y-121900958D01*
X101176580Y-121970997D01*
X101173422Y-121971166D01*
X100236693Y-122001205D01*
X100233530Y-122001239D01*
X99296351Y-121991224D01*
X99293190Y-121991122D01*
X98357337Y-121941073D01*
X98354183Y-121940837D01*
X97421291Y-121850842D01*
X97418150Y-121850471D01*
X96489961Y-121720698D01*
X96486839Y-121720193D01*
X95565071Y-121550880D01*
X95561973Y-121550243D01*
X94648226Y-121341686D01*
X94645159Y-121340916D01*
X93741201Y-121093517D01*
X93738169Y-121092617D01*
X93082292Y-120882605D01*
X92845600Y-120806816D01*
X92842636Y-120805797D01*
X91963040Y-120482098D01*
X91960121Y-120480952D01*
X91537244Y-120304466D01*
X91095212Y-120119985D01*
X91092320Y-120118705D01*
X90243616Y-119721107D01*
X90240781Y-119719704D01*
X89409860Y-119286213D01*
X89407088Y-119284691D01*
X88595427Y-118816077D01*
X88592722Y-118814437D01*
X87801849Y-118311586D01*
X87799217Y-118309833D01*
X87420777Y-118045850D01*
X87181174Y-117878713D01*
X98149500Y-117878713D01*
X98149500Y-118121286D01*
X98181160Y-118361782D01*
X98181162Y-118361791D01*
X98243945Y-118596099D01*
X98336772Y-118820203D01*
X98336775Y-118820211D01*
X98458061Y-119030285D01*
X98458065Y-119030291D01*
X98605735Y-119222738D01*
X98777261Y-119394264D01*
X98925630Y-119508112D01*
X98969711Y-119541936D01*
X99179788Y-119663224D01*
X99403900Y-119756054D01*
X99638211Y-119818838D01*
X99638214Y-119818838D01*
X99638217Y-119818839D01*
X99744951Y-119832890D01*
X99878712Y-119850500D01*
X99878714Y-119850500D01*
X100121286Y-119850500D01*
X100121288Y-119850500D01*
X100306575Y-119826106D01*
X100361782Y-119818839D01*
X100361782Y-119818838D01*
X100361789Y-119818838D01*
X100596100Y-119756054D01*
X100820212Y-119663224D01*
X101030289Y-119541936D01*
X101222738Y-119394265D01*
X101394265Y-119222738D01*
X101541936Y-119030289D01*
X101663224Y-118820212D01*
X101756054Y-118596100D01*
X101818838Y-118361789D01*
X101850500Y-118121288D01*
X101850500Y-117878712D01*
X101818838Y-117638211D01*
X101756054Y-117403900D01*
X101663224Y-117179788D01*
X101541936Y-116969711D01*
X101491609Y-116904124D01*
X101394264Y-116777261D01*
X101222738Y-116605735D01*
X101030291Y-116458065D01*
X101030285Y-116458061D01*
X100820211Y-116336775D01*
X100820203Y-116336772D01*
X100596099Y-116243945D01*
X100361791Y-116181162D01*
X100361782Y-116181160D01*
X100168480Y-116155712D01*
X100121288Y-116149500D01*
X99878712Y-116149500D01*
X99835736Y-116155157D01*
X99638217Y-116181160D01*
X99638208Y-116181162D01*
X99403900Y-116243945D01*
X99179796Y-116336772D01*
X99179788Y-116336775D01*
X98969714Y-116458061D01*
X98969708Y-116458065D01*
X98777261Y-116605735D01*
X98605735Y-116777261D01*
X98458065Y-116969708D01*
X98458061Y-116969714D01*
X98336775Y-117179788D01*
X98336772Y-117179796D01*
X98243945Y-117403900D01*
X98181162Y-117638208D01*
X98181160Y-117638217D01*
X98149500Y-117878713D01*
X87181174Y-117878713D01*
X87030511Y-117773617D01*
X87027961Y-117771755D01*
X86660680Y-117491486D01*
X86282909Y-117203211D01*
X86280444Y-117201246D01*
X86254695Y-117179796D01*
X85560357Y-116601378D01*
X85557976Y-116599308D01*
X85402447Y-116458061D01*
X84864173Y-115969215D01*
X84861880Y-115967041D01*
X84195629Y-115307872D01*
X84193429Y-115305600D01*
X84033711Y-115133465D01*
X83555949Y-114618559D01*
X83553876Y-114616227D01*
X82946321Y-113902559D01*
X82944331Y-113900116D01*
X82895526Y-113837557D01*
X82367864Y-113161187D01*
X82365977Y-113158659D01*
X82095861Y-112780114D01*
X81936655Y-112557000D01*
X89994473Y-112557000D01*
X90014563Y-112889140D01*
X90074545Y-113216446D01*
X90173534Y-113534115D01*
X90173535Y-113534118D01*
X90173537Y-113534123D01*
X90310102Y-113837557D01*
X90482246Y-114122318D01*
X90687458Y-114384252D01*
X90922748Y-114619542D01*
X91184682Y-114824754D01*
X91469443Y-114996898D01*
X91772877Y-115133463D01*
X92090559Y-115232456D01*
X92417858Y-115292436D01*
X92750000Y-115312527D01*
X93082142Y-115292436D01*
X93409441Y-115232456D01*
X93727123Y-115133463D01*
X94030557Y-114996898D01*
X94315318Y-114824754D01*
X94577252Y-114619542D01*
X94812542Y-114384252D01*
X95017754Y-114122318D01*
X95189898Y-113837557D01*
X95326463Y-113534123D01*
X95425456Y-113216441D01*
X95485436Y-112889142D01*
X95505527Y-112557000D01*
X95485436Y-112224858D01*
X95425456Y-111897559D01*
X95326463Y-111579877D01*
X95189898Y-111276443D01*
X95017754Y-110991682D01*
X94812542Y-110729748D01*
X94577252Y-110494458D01*
X94315318Y-110289246D01*
X94030557Y-110117102D01*
X93727123Y-109980537D01*
X93727118Y-109980535D01*
X93727115Y-109980534D01*
X93409453Y-109881547D01*
X93409438Y-109881543D01*
X93311160Y-109863532D01*
X93263599Y-109832780D01*
X93250500Y-109790744D01*
X93250500Y-104274500D01*
X93272174Y-104222174D01*
X93324500Y-104200500D01*
X96834108Y-104200500D01*
X96965892Y-104200500D01*
X101955918Y-104200500D01*
X102004989Y-104219110D01*
X102027760Y-104239283D01*
X102167635Y-104312696D01*
X102321015Y-104350500D01*
X102321019Y-104350500D01*
X102478981Y-104350500D01*
X102478985Y-104350500D01*
X102632365Y-104312696D01*
X102772240Y-104239283D01*
X102890483Y-104134530D01*
X102980220Y-104004523D01*
X103036237Y-103856818D01*
X103055278Y-103700000D01*
X103047277Y-103634108D01*
X103036238Y-103543191D01*
X103036237Y-103543182D01*
X103022446Y-103506818D01*
X102980221Y-103395478D01*
X102890483Y-103265470D01*
X102854518Y-103233608D01*
X102772240Y-103160717D01*
X102760139Y-103154366D01*
X102632366Y-103087304D01*
X102478987Y-103049500D01*
X102478985Y-103049500D01*
X102321015Y-103049500D01*
X102321012Y-103049500D01*
X102167633Y-103087304D01*
X102027764Y-103160714D01*
X102027755Y-103160720D01*
X102004989Y-103180890D01*
X101955918Y-103199500D01*
X97474500Y-103199500D01*
X97422174Y-103177826D01*
X97400500Y-103125500D01*
X97400500Y-100921158D01*
X99199500Y-100921158D01*
X99199500Y-101078842D01*
X99206822Y-101115653D01*
X99230261Y-101233491D01*
X99230264Y-101233501D01*
X99290603Y-101379174D01*
X99290605Y-101379177D01*
X99290606Y-101379179D01*
X99378211Y-101510289D01*
X99489711Y-101621789D01*
X99620821Y-101709394D01*
X99620826Y-101709396D01*
X99620825Y-101709396D01*
X99766498Y-101769735D01*
X99766503Y-101769737D01*
X99921158Y-101800500D01*
X99921160Y-101800500D01*
X100078840Y-101800500D01*
X100078842Y-101800500D01*
X100233497Y-101769737D01*
X100379179Y-101709394D01*
X100510289Y-101621789D01*
X100621789Y-101510289D01*
X100709394Y-101379179D01*
X100769737Y-101233497D01*
X100800500Y-101078842D01*
X100800500Y-100921158D01*
X100769737Y-100766503D01*
X100709394Y-100620821D01*
X100621789Y-100489711D01*
X100510289Y-100378211D01*
X100379179Y-100290606D01*
X100379175Y-100290604D01*
X100379173Y-100290603D01*
X100379174Y-100290603D01*
X100233501Y-100230264D01*
X100233491Y-100230261D01*
X100129925Y-100209661D01*
X100078842Y-100199500D01*
X99921158Y-100199500D01*
X99877315Y-100208220D01*
X99766508Y-100230261D01*
X99766498Y-100230264D01*
X99620825Y-100290603D01*
X99489711Y-100378210D01*
X99489710Y-100378212D01*
X99378212Y-100489710D01*
X99378210Y-100489711D01*
X99290603Y-100620825D01*
X99230264Y-100766498D01*
X99230261Y-100766508D01*
X99204580Y-100895616D01*
X99199500Y-100921158D01*
X97400500Y-100921158D01*
X97400500Y-98921159D01*
X99199500Y-98921159D01*
X99199500Y-99078840D01*
X99230261Y-99233491D01*
X99230264Y-99233501D01*
X99290603Y-99379174D01*
X99290605Y-99379177D01*
X99290606Y-99379179D01*
X99378211Y-99510289D01*
X99489711Y-99621789D01*
X99620821Y-99709394D01*
X99620826Y-99709396D01*
X99620825Y-99709396D01*
X99766498Y-99769735D01*
X99766503Y-99769737D01*
X99921158Y-99800500D01*
X99921160Y-99800500D01*
X100078840Y-99800500D01*
X100078842Y-99800500D01*
X100233497Y-99769737D01*
X100379179Y-99709394D01*
X100510289Y-99621789D01*
X100621789Y-99510289D01*
X100709394Y-99379179D01*
X100769737Y-99233497D01*
X100800500Y-99078842D01*
X100800500Y-98921158D01*
X100769737Y-98766503D01*
X100709394Y-98620821D01*
X100621789Y-98489711D01*
X100510289Y-98378211D01*
X100379179Y-98290606D01*
X100379175Y-98290604D01*
X100379173Y-98290603D01*
X100379174Y-98290603D01*
X100233501Y-98230264D01*
X100233491Y-98230261D01*
X100129925Y-98209661D01*
X100078842Y-98199500D01*
X99921158Y-98199500D01*
X99877315Y-98208220D01*
X99766508Y-98230261D01*
X99766498Y-98230264D01*
X99620825Y-98290603D01*
X99489711Y-98378210D01*
X99489710Y-98378212D01*
X99378212Y-98489710D01*
X99378210Y-98489711D01*
X99290603Y-98620825D01*
X99230264Y-98766498D01*
X99230261Y-98766508D01*
X99199500Y-98921159D01*
X97400500Y-98921159D01*
X97400500Y-96543076D01*
X97413598Y-96501040D01*
X97480220Y-96404523D01*
X97536237Y-96256818D01*
X97555278Y-96100000D01*
X97536237Y-95943182D01*
X97528213Y-95922025D01*
X97480221Y-95795478D01*
X97390483Y-95665470D01*
X97272240Y-95560717D01*
X97260139Y-95554366D01*
X97132366Y-95487304D01*
X96978987Y-95449500D01*
X96978985Y-95449500D01*
X96821015Y-95449500D01*
X96821012Y-95449500D01*
X96667633Y-95487304D01*
X96527761Y-95560716D01*
X96409516Y-95665470D01*
X96319779Y-95795478D01*
X96319778Y-95795478D01*
X96263764Y-95943177D01*
X96263761Y-95943191D01*
X96244722Y-96099996D01*
X96244722Y-96100003D01*
X96263761Y-96256808D01*
X96263764Y-96256822D01*
X96319778Y-96404521D01*
X96353393Y-96453220D01*
X96386401Y-96501040D01*
X96399500Y-96543076D01*
X96399500Y-103125500D01*
X96377826Y-103177826D01*
X96325500Y-103199500D01*
X92684106Y-103199500D01*
X92556818Y-103233606D01*
X92556809Y-103233610D01*
X92442685Y-103299500D01*
X92349500Y-103392685D01*
X92283610Y-103506809D01*
X92283606Y-103506818D01*
X92249500Y-103634105D01*
X92249500Y-109790744D01*
X92227826Y-109843070D01*
X92188840Y-109863532D01*
X92090561Y-109881543D01*
X92090546Y-109881547D01*
X91772884Y-109980534D01*
X91469442Y-110117102D01*
X91469439Y-110117104D01*
X91184681Y-110289246D01*
X90922747Y-110494458D01*
X90687458Y-110729747D01*
X90482246Y-110991681D01*
X90310104Y-111276439D01*
X90310102Y-111276442D01*
X90173534Y-111579884D01*
X90074545Y-111897553D01*
X90014563Y-112224859D01*
X89994473Y-112557000D01*
X81936655Y-112557000D01*
X81821593Y-112395749D01*
X81819813Y-112393139D01*
X81308521Y-111607656D01*
X81306853Y-111604969D01*
X81288646Y-111574198D01*
X80829591Y-110798359D01*
X80828061Y-110795640D01*
X80385701Y-109969370D01*
X80384268Y-109966550D01*
X79977627Y-109122152D01*
X79976316Y-109119274D01*
X79606117Y-108258247D01*
X79604954Y-108255375D01*
X79271875Y-107379289D01*
X79270815Y-107376309D01*
X78975494Y-106486851D01*
X78974562Y-106483829D01*
X78717510Y-105582536D01*
X78716728Y-105579558D01*
X78498400Y-104668009D01*
X78497746Y-104664993D01*
X78318581Y-103745018D01*
X78318051Y-103741946D01*
X78178361Y-102815169D01*
X78177963Y-102812083D01*
X78077998Y-101880149D01*
X78077733Y-101877056D01*
X78028849Y-101115653D01*
X78028698Y-101111175D01*
X78028051Y-100921159D01*
X78024915Y-100000000D01*
X78021513Y-99001220D01*
X78021665Y-98996243D01*
X78047728Y-98590294D01*
X78077733Y-98122939D01*
X78077998Y-98119854D01*
X78177963Y-97187910D01*
X78178360Y-97184836D01*
X78318052Y-96258045D01*
X78318579Y-96254989D01*
X78497748Y-95334996D01*
X78498397Y-95331999D01*
X78716731Y-94420429D01*
X78717506Y-94417475D01*
X78974566Y-93516154D01*
X78975494Y-93513148D01*
X79270815Y-92623690D01*
X79271875Y-92620710D01*
X79604960Y-91744607D01*
X79606110Y-91741768D01*
X79976328Y-90880697D01*
X79977614Y-90877874D01*
X80384273Y-90033438D01*
X80385701Y-90030629D01*
X80391678Y-90019465D01*
X80828072Y-89204338D01*
X80829580Y-89201660D01*
X81306865Y-88395010D01*
X81308509Y-88392361D01*
X81819829Y-87606836D01*
X81821578Y-87604271D01*
X81936655Y-87443000D01*
X89994473Y-87443000D01*
X90014563Y-87775140D01*
X90074545Y-88102446D01*
X90173534Y-88420115D01*
X90173535Y-88420118D01*
X90173537Y-88420123D01*
X90310102Y-88723557D01*
X90482246Y-89008318D01*
X90687458Y-89270252D01*
X90922748Y-89505542D01*
X91184682Y-89710754D01*
X91469443Y-89882898D01*
X91772877Y-90019463D01*
X92090559Y-90118456D01*
X92417858Y-90178436D01*
X92750000Y-90198527D01*
X93082142Y-90178436D01*
X93409441Y-90118456D01*
X93727123Y-90019463D01*
X94030557Y-89882898D01*
X94315318Y-89710754D01*
X94577252Y-89505542D01*
X94812542Y-89270252D01*
X95017754Y-89008318D01*
X95189898Y-88723557D01*
X95326463Y-88420123D01*
X95425456Y-88102441D01*
X95485436Y-87775142D01*
X95505527Y-87443000D01*
X95485436Y-87110858D01*
X95425456Y-86783559D01*
X95326463Y-86465877D01*
X95189898Y-86162443D01*
X95017754Y-85877682D01*
X94812542Y-85615748D01*
X94577252Y-85380458D01*
X94315318Y-85175246D01*
X94030557Y-85003102D01*
X93727123Y-84866537D01*
X93727118Y-84866535D01*
X93727115Y-84866534D01*
X93409446Y-84767545D01*
X93082140Y-84707563D01*
X92750000Y-84687473D01*
X92417859Y-84707563D01*
X92090553Y-84767545D01*
X91772884Y-84866534D01*
X91469442Y-85003102D01*
X91469439Y-85003104D01*
X91184681Y-85175246D01*
X90922747Y-85380458D01*
X90687458Y-85615747D01*
X90482246Y-85877681D01*
X90310104Y-86162439D01*
X90310102Y-86162442D01*
X90173534Y-86465884D01*
X90074545Y-86783553D01*
X90014563Y-87110859D01*
X89994473Y-87443000D01*
X81936655Y-87443000D01*
X82365997Y-86841312D01*
X82367847Y-86838835D01*
X82944357Y-86099849D01*
X82946302Y-86097463D01*
X83553896Y-85383748D01*
X83555928Y-85381463D01*
X84193450Y-84694376D01*
X84195608Y-84692148D01*
X84861906Y-84032932D01*
X84864148Y-84030807D01*
X85558007Y-83400663D01*
X85560329Y-83398644D01*
X86280481Y-82798723D01*
X86282880Y-82796810D01*
X87027996Y-82228217D01*
X87030480Y-82226404D01*
X87528921Y-81878713D01*
X98149500Y-81878713D01*
X98149500Y-82121286D01*
X98181160Y-82361782D01*
X98181162Y-82361791D01*
X98243945Y-82596099D01*
X98336772Y-82820203D01*
X98336775Y-82820211D01*
X98458061Y-83030285D01*
X98458065Y-83030291D01*
X98605735Y-83222738D01*
X98777262Y-83394265D01*
X98969711Y-83541936D01*
X99179788Y-83663224D01*
X99403900Y-83756054D01*
X99638211Y-83818838D01*
X99638214Y-83818838D01*
X99638217Y-83818839D01*
X99744951Y-83832890D01*
X99878712Y-83850500D01*
X99878714Y-83850500D01*
X100121286Y-83850500D01*
X100121288Y-83850500D01*
X100306575Y-83826106D01*
X100361782Y-83818839D01*
X100361782Y-83818838D01*
X100361789Y-83818838D01*
X100596100Y-83756054D01*
X100820212Y-83663224D01*
X101030289Y-83541936D01*
X101222738Y-83394265D01*
X101394265Y-83222738D01*
X101541936Y-83030289D01*
X101663224Y-82820212D01*
X101756054Y-82596100D01*
X101818838Y-82361789D01*
X101850500Y-82121288D01*
X101850500Y-81878712D01*
X101818838Y-81638211D01*
X101756054Y-81403900D01*
X101663224Y-81179788D01*
X101541936Y-80969711D01*
X101394265Y-80777262D01*
X101222738Y-80605735D01*
X101074389Y-80491903D01*
X101030291Y-80458065D01*
X101030285Y-80458061D01*
X100820211Y-80336775D01*
X100820203Y-80336772D01*
X100596099Y-80243945D01*
X100361791Y-80181162D01*
X100361782Y-80181160D01*
X100168480Y-80155712D01*
X100121288Y-80149500D01*
X99878712Y-80149500D01*
X99835736Y-80155157D01*
X99638217Y-80181160D01*
X99638208Y-80181162D01*
X99403900Y-80243945D01*
X99179796Y-80336772D01*
X99179788Y-80336775D01*
X98969714Y-80458061D01*
X98969708Y-80458065D01*
X98777261Y-80605735D01*
X98605735Y-80777261D01*
X98458065Y-80969708D01*
X98458061Y-80969714D01*
X98336775Y-81179788D01*
X98336772Y-81179796D01*
X98243945Y-81403900D01*
X98181162Y-81638208D01*
X98181160Y-81638217D01*
X98149500Y-81878713D01*
X87528921Y-81878713D01*
X87799253Y-81690141D01*
X87801812Y-81688437D01*
X88592734Y-81185554D01*
X88595415Y-81183929D01*
X89407120Y-80715289D01*
X89409826Y-80713804D01*
X90240819Y-80280275D01*
X90243577Y-80278911D01*
X91092337Y-79881286D01*
X91095195Y-79880021D01*
X91960162Y-79519030D01*
X91962999Y-79517916D01*
X92842677Y-79194187D01*
X92845557Y-79193196D01*
X93738176Y-78907379D01*
X93741193Y-78906484D01*
X94645179Y-78659077D01*
X94648205Y-78658318D01*
X95561976Y-78449755D01*
X95565071Y-78449119D01*
X96486880Y-78279799D01*
X96489920Y-78279307D01*
X97418166Y-78149525D01*
X97421274Y-78149158D01*
X98354190Y-78059161D01*
X98357330Y-78058926D01*
X99293204Y-78008876D01*
X99296338Y-78008775D01*
X100117194Y-78000004D01*
X100117985Y-78000000D01*
X100273088Y-78000000D01*
X100275460Y-78000038D01*
G37*
%TD.AperFunction*%
%TD*%
M02*
