%TF.GenerationSoftware,KiCad,Pcbnew,6.0.8-f2edbf62ab~116~ubuntu22.04.1*%
%TF.CreationDate,2022-11-07T08:46:38+01:00*%
%TF.ProjectId,batteriedeckel,62617474-6572-4696-9564-65636b656c2e,rev?*%
%TF.SameCoordinates,Original*%
%TF.FileFunction,Legend,Top*%
%TF.FilePolarity,Positive*%
%FSLAX46Y46*%
G04 Gerber Fmt 4.6, Leading zero omitted, Abs format (unit mm)*
G04 Created by KiCad (PCBNEW 6.0.8-f2edbf62ab~116~ubuntu22.04.1) date 2022-11-07 08:46:38*
%MOMM*%
%LPD*%
G01*
G04 APERTURE LIST*
%ADD10C,0.200000*%
%ADD11C,0.150000*%
%ADD12C,0.120000*%
G04 APERTURE END LIST*
D10*
X98107714Y-89838000D02*
X98012476Y-89790380D01*
X97869619Y-89790380D01*
X97726761Y-89838000D01*
X97631523Y-89933238D01*
X97583904Y-90028476D01*
X97536285Y-90218952D01*
X97536285Y-90361809D01*
X97583904Y-90552285D01*
X97631523Y-90647523D01*
X97726761Y-90742761D01*
X97869619Y-90790380D01*
X97964857Y-90790380D01*
X98107714Y-90742761D01*
X98155333Y-90695142D01*
X98155333Y-90361809D01*
X97964857Y-90361809D01*
X99060095Y-90790380D02*
X98583904Y-90790380D01*
X98583904Y-89790380D01*
X99822000Y-90790380D02*
X99822000Y-90266571D01*
X99774380Y-90171333D01*
X99679142Y-90123714D01*
X99488666Y-90123714D01*
X99393428Y-90171333D01*
X99822000Y-90742761D02*
X99726761Y-90790380D01*
X99488666Y-90790380D01*
X99393428Y-90742761D01*
X99345809Y-90647523D01*
X99345809Y-90552285D01*
X99393428Y-90457047D01*
X99488666Y-90409428D01*
X99726761Y-90409428D01*
X99822000Y-90361809D01*
X100298190Y-90790380D02*
X100298190Y-90123714D01*
X100298190Y-90218952D02*
X100345809Y-90171333D01*
X100441047Y-90123714D01*
X100583904Y-90123714D01*
X100679142Y-90171333D01*
X100726761Y-90266571D01*
X100726761Y-90790380D01*
X100726761Y-90266571D02*
X100774380Y-90171333D01*
X100869619Y-90123714D01*
X101012476Y-90123714D01*
X101107714Y-90171333D01*
X101155333Y-90266571D01*
X101155333Y-90790380D01*
X101631523Y-90123714D02*
X101631523Y-91123714D01*
X101631523Y-90171333D02*
X101726761Y-90123714D01*
X101917238Y-90123714D01*
X102012476Y-90171333D01*
X102060095Y-90218952D01*
X102107714Y-90314190D01*
X102107714Y-90599904D01*
X102060095Y-90695142D01*
X102012476Y-90742761D01*
X101917238Y-90790380D01*
X101726761Y-90790380D01*
X101631523Y-90742761D01*
X91726761Y-91876571D02*
X91869619Y-91924190D01*
X91917238Y-91971809D01*
X91964857Y-92067047D01*
X91964857Y-92209904D01*
X91917238Y-92305142D01*
X91869619Y-92352761D01*
X91774380Y-92400380D01*
X91393428Y-92400380D01*
X91393428Y-91400380D01*
X91726761Y-91400380D01*
X91822000Y-91448000D01*
X91869619Y-91495619D01*
X91917238Y-91590857D01*
X91917238Y-91686095D01*
X91869619Y-91781333D01*
X91822000Y-91828952D01*
X91726761Y-91876571D01*
X91393428Y-91876571D01*
X92822000Y-92400380D02*
X92822000Y-91876571D01*
X92774380Y-91781333D01*
X92679142Y-91733714D01*
X92488666Y-91733714D01*
X92393428Y-91781333D01*
X92822000Y-92352761D02*
X92726761Y-92400380D01*
X92488666Y-92400380D01*
X92393428Y-92352761D01*
X92345809Y-92257523D01*
X92345809Y-92162285D01*
X92393428Y-92067047D01*
X92488666Y-92019428D01*
X92726761Y-92019428D01*
X92822000Y-91971809D01*
X93155333Y-91733714D02*
X93536285Y-91733714D01*
X93298190Y-91400380D02*
X93298190Y-92257523D01*
X93345809Y-92352761D01*
X93441047Y-92400380D01*
X93536285Y-92400380D01*
X93726761Y-91733714D02*
X94107714Y-91733714D01*
X93869619Y-91400380D02*
X93869619Y-92257523D01*
X93917238Y-92352761D01*
X94012476Y-92400380D01*
X94107714Y-92400380D01*
X94822000Y-92352761D02*
X94726761Y-92400380D01*
X94536285Y-92400380D01*
X94441047Y-92352761D01*
X94393428Y-92257523D01*
X94393428Y-91876571D01*
X94441047Y-91781333D01*
X94536285Y-91733714D01*
X94726761Y-91733714D01*
X94822000Y-91781333D01*
X94869619Y-91876571D01*
X94869619Y-91971809D01*
X94393428Y-92067047D01*
X95298190Y-92400380D02*
X95298190Y-91733714D01*
X95298190Y-91924190D02*
X95345809Y-91828952D01*
X95393428Y-91781333D01*
X95488666Y-91733714D01*
X95583904Y-91733714D01*
X95822000Y-91733714D02*
X96060095Y-92400380D01*
X96298190Y-91733714D02*
X96060095Y-92400380D01*
X95964857Y-92638476D01*
X95917238Y-92686095D01*
X95822000Y-92733714D01*
X98012476Y-92305142D02*
X97964857Y-92352761D01*
X97822000Y-92400380D01*
X97726761Y-92400380D01*
X97583904Y-92352761D01*
X97488666Y-92257523D01*
X97441047Y-92162285D01*
X97393428Y-91971809D01*
X97393428Y-91828952D01*
X97441047Y-91638476D01*
X97488666Y-91543238D01*
X97583904Y-91448000D01*
X97726761Y-91400380D01*
X97822000Y-91400380D01*
X97964857Y-91448000D01*
X98012476Y-91495619D01*
X98583904Y-92400380D02*
X98488666Y-92352761D01*
X98441047Y-92305142D01*
X98393428Y-92209904D01*
X98393428Y-91924190D01*
X98441047Y-91828952D01*
X98488666Y-91781333D01*
X98583904Y-91733714D01*
X98726761Y-91733714D01*
X98822000Y-91781333D01*
X98869619Y-91828952D01*
X98917238Y-91924190D01*
X98917238Y-92209904D01*
X98869619Y-92305142D01*
X98822000Y-92352761D01*
X98726761Y-92400380D01*
X98583904Y-92400380D01*
X99345809Y-91733714D02*
X99345809Y-92400380D01*
X99345809Y-91828952D02*
X99393428Y-91781333D01*
X99488666Y-91733714D01*
X99631523Y-91733714D01*
X99726761Y-91781333D01*
X99774380Y-91876571D01*
X99774380Y-92400380D01*
X100250571Y-91733714D02*
X100250571Y-92400380D01*
X100250571Y-91828952D02*
X100298190Y-91781333D01*
X100393428Y-91733714D01*
X100536285Y-91733714D01*
X100631523Y-91781333D01*
X100679142Y-91876571D01*
X100679142Y-92400380D01*
X101536285Y-92352761D02*
X101441047Y-92400380D01*
X101250571Y-92400380D01*
X101155333Y-92352761D01*
X101107714Y-92257523D01*
X101107714Y-91876571D01*
X101155333Y-91781333D01*
X101250571Y-91733714D01*
X101441047Y-91733714D01*
X101536285Y-91781333D01*
X101583904Y-91876571D01*
X101583904Y-91971809D01*
X101107714Y-92067047D01*
X102441047Y-92352761D02*
X102345809Y-92400380D01*
X102155333Y-92400380D01*
X102060095Y-92352761D01*
X102012476Y-92305142D01*
X101964857Y-92209904D01*
X101964857Y-91924190D01*
X102012476Y-91828952D01*
X102060095Y-91781333D01*
X102155333Y-91733714D01*
X102345809Y-91733714D01*
X102441047Y-91781333D01*
X102726761Y-91733714D02*
X103107714Y-91733714D01*
X102869619Y-91400380D02*
X102869619Y-92257523D01*
X102917238Y-92352761D01*
X103012476Y-92400380D01*
X103107714Y-92400380D01*
X103583904Y-92400380D02*
X103488666Y-92352761D01*
X103441047Y-92305142D01*
X103393428Y-92209904D01*
X103393428Y-91924190D01*
X103441047Y-91828952D01*
X103488666Y-91781333D01*
X103583904Y-91733714D01*
X103726761Y-91733714D01*
X103822000Y-91781333D01*
X103869619Y-91828952D01*
X103917238Y-91924190D01*
X103917238Y-92209904D01*
X103869619Y-92305142D01*
X103822000Y-92352761D01*
X103726761Y-92400380D01*
X103583904Y-92400380D01*
X104345809Y-92400380D02*
X104345809Y-91733714D01*
X104345809Y-91924190D02*
X104393428Y-91828952D01*
X104441047Y-91781333D01*
X104536285Y-91733714D01*
X104631523Y-91733714D01*
X105726761Y-92400380D02*
X105726761Y-91400380D01*
X106107714Y-91400380D01*
X106202952Y-91448000D01*
X106250571Y-91495619D01*
X106298190Y-91590857D01*
X106298190Y-91733714D01*
X106250571Y-91828952D01*
X106202952Y-91876571D01*
X106107714Y-91924190D01*
X105726761Y-91924190D01*
X107298190Y-92305142D02*
X107250571Y-92352761D01*
X107107714Y-92400380D01*
X107012476Y-92400380D01*
X106869619Y-92352761D01*
X106774380Y-92257523D01*
X106726761Y-92162285D01*
X106679142Y-91971809D01*
X106679142Y-91828952D01*
X106726761Y-91638476D01*
X106774380Y-91543238D01*
X106869619Y-91448000D01*
X107012476Y-91400380D01*
X107107714Y-91400380D01*
X107250571Y-91448000D01*
X107298190Y-91495619D01*
X108060095Y-91876571D02*
X108202952Y-91924190D01*
X108250571Y-91971809D01*
X108298190Y-92067047D01*
X108298190Y-92209904D01*
X108250571Y-92305142D01*
X108202952Y-92352761D01*
X108107714Y-92400380D01*
X107726761Y-92400380D01*
X107726761Y-91400380D01*
X108060095Y-91400380D01*
X108155333Y-91448000D01*
X108202952Y-91495619D01*
X108250571Y-91590857D01*
X108250571Y-91686095D01*
X108202952Y-91781333D01*
X108155333Y-91828952D01*
X108060095Y-91876571D01*
X107726761Y-91876571D01*
X88702952Y-93105619D02*
X88750571Y-93058000D01*
X88845809Y-93010380D01*
X89083904Y-93010380D01*
X89179142Y-93058000D01*
X89226761Y-93105619D01*
X89274380Y-93200857D01*
X89274380Y-93296095D01*
X89226761Y-93438952D01*
X88655333Y-94010380D01*
X89274380Y-94010380D01*
X89893428Y-93010380D02*
X89988666Y-93010380D01*
X90083904Y-93058000D01*
X90131523Y-93105619D01*
X90179142Y-93200857D01*
X90226761Y-93391333D01*
X90226761Y-93629428D01*
X90179142Y-93819904D01*
X90131523Y-93915142D01*
X90083904Y-93962761D01*
X89988666Y-94010380D01*
X89893428Y-94010380D01*
X89798190Y-93962761D01*
X89750571Y-93915142D01*
X89702952Y-93819904D01*
X89655333Y-93629428D01*
X89655333Y-93391333D01*
X89702952Y-93200857D01*
X89750571Y-93105619D01*
X89798190Y-93058000D01*
X89893428Y-93010380D01*
X90607714Y-93105619D02*
X90655333Y-93058000D01*
X90750571Y-93010380D01*
X90988666Y-93010380D01*
X91083904Y-93058000D01*
X91131523Y-93105619D01*
X91179142Y-93200857D01*
X91179142Y-93296095D01*
X91131523Y-93438952D01*
X90560095Y-94010380D01*
X91179142Y-94010380D01*
X91560095Y-93105619D02*
X91607714Y-93058000D01*
X91702952Y-93010380D01*
X91941047Y-93010380D01*
X92036285Y-93058000D01*
X92083904Y-93105619D01*
X92131523Y-93200857D01*
X92131523Y-93296095D01*
X92083904Y-93438952D01*
X91512476Y-94010380D01*
X92131523Y-94010380D01*
X93274380Y-93962761D02*
X93369619Y-94010380D01*
X93560095Y-94010380D01*
X93655333Y-93962761D01*
X93702952Y-93867523D01*
X93702952Y-93819904D01*
X93655333Y-93724666D01*
X93560095Y-93677047D01*
X93417238Y-93677047D01*
X93322000Y-93629428D01*
X93274380Y-93534190D01*
X93274380Y-93486571D01*
X93322000Y-93391333D01*
X93417238Y-93343714D01*
X93560095Y-93343714D01*
X93655333Y-93391333D01*
X94560095Y-93962761D02*
X94464857Y-94010380D01*
X94274380Y-94010380D01*
X94179142Y-93962761D01*
X94131523Y-93915142D01*
X94083904Y-93819904D01*
X94083904Y-93534190D01*
X94131523Y-93438952D01*
X94179142Y-93391333D01*
X94274380Y-93343714D01*
X94464857Y-93343714D01*
X94560095Y-93391333D01*
X94988666Y-94010380D02*
X94988666Y-93010380D01*
X95417238Y-94010380D02*
X95417238Y-93486571D01*
X95369619Y-93391333D01*
X95274380Y-93343714D01*
X95131523Y-93343714D01*
X95036285Y-93391333D01*
X94988666Y-93438952D01*
X96322000Y-94010380D02*
X96322000Y-93486571D01*
X96274380Y-93391333D01*
X96179142Y-93343714D01*
X95988666Y-93343714D01*
X95893428Y-93391333D01*
X96322000Y-93962761D02*
X96226761Y-94010380D01*
X95988666Y-94010380D01*
X95893428Y-93962761D01*
X95845809Y-93867523D01*
X95845809Y-93772285D01*
X95893428Y-93677047D01*
X95988666Y-93629428D01*
X96226761Y-93629428D01*
X96322000Y-93581809D01*
X96798190Y-94010380D02*
X96798190Y-93343714D01*
X96798190Y-93534190D02*
X96845809Y-93438952D01*
X96893428Y-93391333D01*
X96988666Y-93343714D01*
X97083904Y-93343714D01*
X97845809Y-94010380D02*
X97845809Y-93010380D01*
X97845809Y-93962761D02*
X97750571Y-94010380D01*
X97560095Y-94010380D01*
X97464857Y-93962761D01*
X97417238Y-93915142D01*
X97369619Y-93819904D01*
X97369619Y-93534190D01*
X97417238Y-93438952D01*
X97464857Y-93391333D01*
X97560095Y-93343714D01*
X97750571Y-93343714D01*
X97845809Y-93391333D01*
X98179142Y-93343714D02*
X98560095Y-93343714D01*
X98322000Y-93010380D02*
X98322000Y-93867523D01*
X98369619Y-93962761D01*
X98464857Y-94010380D01*
X98560095Y-94010380D01*
X99512476Y-93534190D02*
X99464857Y-93486571D01*
X99369619Y-93438952D01*
X99274380Y-93438952D01*
X99179142Y-93486571D01*
X99131523Y-93534190D01*
X99083904Y-93629428D01*
X99083904Y-93724666D01*
X99131523Y-93819904D01*
X99179142Y-93867523D01*
X99274380Y-93915142D01*
X99369619Y-93915142D01*
X99464857Y-93867523D01*
X99512476Y-93819904D01*
X99512476Y-93438952D02*
X99512476Y-93819904D01*
X99560095Y-93867523D01*
X99607714Y-93867523D01*
X99702952Y-93819904D01*
X99750571Y-93724666D01*
X99750571Y-93486571D01*
X99655333Y-93343714D01*
X99512476Y-93248476D01*
X99322000Y-93200857D01*
X99131523Y-93248476D01*
X98988666Y-93343714D01*
X98893428Y-93486571D01*
X98845809Y-93677047D01*
X98893428Y-93867523D01*
X98988666Y-94010380D01*
X99131523Y-94105619D01*
X99322000Y-94153238D01*
X99512476Y-94105619D01*
X99655333Y-94010380D01*
X100036285Y-93343714D02*
X100417238Y-93343714D01*
X100179142Y-93010380D02*
X100179142Y-93867523D01*
X100226761Y-93962761D01*
X100322000Y-94010380D01*
X100417238Y-94010380D01*
X101131523Y-93962761D02*
X101036285Y-94010380D01*
X100845809Y-94010380D01*
X100750571Y-93962761D01*
X100702952Y-93867523D01*
X100702952Y-93486571D01*
X100750571Y-93391333D01*
X100845809Y-93343714D01*
X101036285Y-93343714D01*
X101131523Y-93391333D01*
X101179142Y-93486571D01*
X101179142Y-93581809D01*
X100702952Y-93677047D01*
X102036285Y-94010380D02*
X102036285Y-93486571D01*
X101988666Y-93391333D01*
X101893428Y-93343714D01*
X101702952Y-93343714D01*
X101607714Y-93391333D01*
X102036285Y-93962761D02*
X101941047Y-94010380D01*
X101702952Y-94010380D01*
X101607714Y-93962761D01*
X101560095Y-93867523D01*
X101560095Y-93772285D01*
X101607714Y-93677047D01*
X101702952Y-93629428D01*
X101941047Y-93629428D01*
X102036285Y-93581809D01*
X102512476Y-94010380D02*
X102512476Y-93343714D01*
X102512476Y-93438952D02*
X102560095Y-93391333D01*
X102655333Y-93343714D01*
X102798190Y-93343714D01*
X102893428Y-93391333D01*
X102941047Y-93486571D01*
X102941047Y-94010380D01*
X102941047Y-93486571D02*
X102988666Y-93391333D01*
X103083904Y-93343714D01*
X103226761Y-93343714D01*
X103322000Y-93391333D01*
X103369619Y-93486571D01*
X103369619Y-94010380D01*
X103845809Y-93629428D02*
X104607714Y-93629428D01*
X105512476Y-93962761D02*
X105417238Y-94010380D01*
X105226761Y-94010380D01*
X105131523Y-93962761D01*
X105083904Y-93915142D01*
X105036285Y-93819904D01*
X105036285Y-93534190D01*
X105083904Y-93438952D01*
X105131523Y-93391333D01*
X105226761Y-93343714D01*
X105417238Y-93343714D01*
X105512476Y-93391333D01*
X105798190Y-93343714D02*
X106179142Y-93343714D01*
X105941047Y-93010380D02*
X105941047Y-93867523D01*
X105988666Y-93962761D01*
X106083904Y-94010380D01*
X106179142Y-94010380D01*
X106893428Y-93962761D02*
X106798190Y-94010380D01*
X106607714Y-94010380D01*
X106512476Y-93962761D01*
X106464857Y-93867523D01*
X106464857Y-93486571D01*
X106512476Y-93391333D01*
X106607714Y-93343714D01*
X106798190Y-93343714D01*
X106893428Y-93391333D01*
X106941047Y-93486571D01*
X106941047Y-93581809D01*
X106464857Y-93677047D01*
X107798190Y-93962761D02*
X107702952Y-94010380D01*
X107512476Y-94010380D01*
X107417238Y-93962761D01*
X107369619Y-93915142D01*
X107322000Y-93819904D01*
X107322000Y-93534190D01*
X107369619Y-93438952D01*
X107417238Y-93391333D01*
X107512476Y-93343714D01*
X107702952Y-93343714D01*
X107798190Y-93391333D01*
X108226761Y-94010380D02*
X108226761Y-93010380D01*
X108655333Y-94010380D02*
X108655333Y-93486571D01*
X108607714Y-93391333D01*
X108512476Y-93343714D01*
X108369619Y-93343714D01*
X108274380Y-93391333D01*
X108226761Y-93438952D01*
X109131523Y-93915142D02*
X109179142Y-93962761D01*
X109131523Y-94010380D01*
X109083904Y-93962761D01*
X109131523Y-93915142D01*
X109131523Y-94010380D01*
X110036285Y-94010380D02*
X110036285Y-93010380D01*
X110036285Y-93962761D02*
X109941047Y-94010380D01*
X109750571Y-94010380D01*
X109655333Y-93962761D01*
X109607714Y-93915142D01*
X109560095Y-93819904D01*
X109560095Y-93534190D01*
X109607714Y-93438952D01*
X109655333Y-93391333D01*
X109750571Y-93343714D01*
X109941047Y-93343714D01*
X110036285Y-93391333D01*
X110893428Y-93962761D02*
X110798190Y-94010380D01*
X110607714Y-94010380D01*
X110512476Y-93962761D01*
X110464857Y-93867523D01*
X110464857Y-93486571D01*
X110512476Y-93391333D01*
X110607714Y-93343714D01*
X110798190Y-93343714D01*
X110893428Y-93391333D01*
X110941047Y-93486571D01*
X110941047Y-93581809D01*
X110464857Y-93677047D01*
D11*
%TO.C,BAT+*%
X91392857Y-84473571D02*
X91535714Y-84521190D01*
X91583333Y-84568809D01*
X91630952Y-84664047D01*
X91630952Y-84806904D01*
X91583333Y-84902142D01*
X91535714Y-84949761D01*
X91440476Y-84997380D01*
X91059523Y-84997380D01*
X91059523Y-83997380D01*
X91392857Y-83997380D01*
X91488095Y-84045000D01*
X91535714Y-84092619D01*
X91583333Y-84187857D01*
X91583333Y-84283095D01*
X91535714Y-84378333D01*
X91488095Y-84425952D01*
X91392857Y-84473571D01*
X91059523Y-84473571D01*
X92011904Y-84711666D02*
X92488095Y-84711666D01*
X91916666Y-84997380D02*
X92250000Y-83997380D01*
X92583333Y-84997380D01*
X92773809Y-83997380D02*
X93345238Y-83997380D01*
X93059523Y-84997380D02*
X93059523Y-83997380D01*
X93678571Y-84616428D02*
X94440476Y-84616428D01*
X94059523Y-84997380D02*
X94059523Y-84235476D01*
%TO.C,SW-*%
X113023809Y-97506761D02*
X113166666Y-97554380D01*
X113404761Y-97554380D01*
X113500000Y-97506761D01*
X113547619Y-97459142D01*
X113595238Y-97363904D01*
X113595238Y-97268666D01*
X113547619Y-97173428D01*
X113500000Y-97125809D01*
X113404761Y-97078190D01*
X113214285Y-97030571D01*
X113119047Y-96982952D01*
X113071428Y-96935333D01*
X113023809Y-96840095D01*
X113023809Y-96744857D01*
X113071428Y-96649619D01*
X113119047Y-96602000D01*
X113214285Y-96554380D01*
X113452380Y-96554380D01*
X113595238Y-96602000D01*
X113928571Y-96554380D02*
X114166666Y-97554380D01*
X114357142Y-96840095D01*
X114547619Y-97554380D01*
X114785714Y-96554380D01*
X115166666Y-97173428D02*
X115928571Y-97173428D01*
%TO.C,BAT-*%
X100642857Y-99030571D02*
X100785714Y-99078190D01*
X100833333Y-99125809D01*
X100880952Y-99221047D01*
X100880952Y-99363904D01*
X100833333Y-99459142D01*
X100785714Y-99506761D01*
X100690476Y-99554380D01*
X100309523Y-99554380D01*
X100309523Y-98554380D01*
X100642857Y-98554380D01*
X100738095Y-98602000D01*
X100785714Y-98649619D01*
X100833333Y-98744857D01*
X100833333Y-98840095D01*
X100785714Y-98935333D01*
X100738095Y-98982952D01*
X100642857Y-99030571D01*
X100309523Y-99030571D01*
X101261904Y-99268666D02*
X101738095Y-99268666D01*
X101166666Y-99554380D02*
X101500000Y-98554380D01*
X101833333Y-99554380D01*
X102023809Y-98554380D02*
X102595238Y-98554380D01*
X102309523Y-99554380D02*
X102309523Y-98554380D01*
X102928571Y-99173428D02*
X103690476Y-99173428D01*
%TO.C,SW+*%
X91273809Y-110063761D02*
X91416666Y-110111380D01*
X91654761Y-110111380D01*
X91750000Y-110063761D01*
X91797619Y-110016142D01*
X91845238Y-109920904D01*
X91845238Y-109825666D01*
X91797619Y-109730428D01*
X91750000Y-109682809D01*
X91654761Y-109635190D01*
X91464285Y-109587571D01*
X91369047Y-109539952D01*
X91321428Y-109492333D01*
X91273809Y-109397095D01*
X91273809Y-109301857D01*
X91321428Y-109206619D01*
X91369047Y-109159000D01*
X91464285Y-109111380D01*
X91702380Y-109111380D01*
X91845238Y-109159000D01*
X92178571Y-109111380D02*
X92416666Y-110111380D01*
X92607142Y-109397095D01*
X92797619Y-110111380D01*
X93035714Y-109111380D01*
X93416666Y-109730428D02*
X94178571Y-109730428D01*
X93797619Y-110111380D02*
X93797619Y-109349476D01*
%TO.C,J1*%
X94688380Y-94669333D02*
X95402666Y-94669333D01*
X95545523Y-94716952D01*
X95640761Y-94812190D01*
X95688380Y-94955047D01*
X95688380Y-95050285D01*
X95688380Y-93669333D02*
X95688380Y-94240761D01*
X95688380Y-93955047D02*
X94688380Y-93955047D01*
X94831238Y-94050285D01*
X94926476Y-94145523D01*
X94974095Y-94240761D01*
D12*
%TO.C,BAT+*%
X95250000Y-87443000D02*
G75*
G03*
X95250000Y-87443000I-2500000J0D01*
G01*
%TO.C,SW-*%
X117000000Y-100000000D02*
G75*
G03*
X117000000Y-100000000I-2500000J0D01*
G01*
%TO.C,BAT-*%
X104500000Y-102000000D02*
G75*
G03*
X104500000Y-102000000I-2500000J0D01*
G01*
%TO.C,SW+*%
X95250000Y-112557000D02*
G75*
G03*
X95250000Y-112557000I-2500000J0D01*
G01*
%TO.C,J1*%
X99010000Y-100710000D02*
X99010000Y-103360000D01*
X96390000Y-103360000D02*
X99010000Y-103360000D01*
X99010000Y-96640000D02*
X99010000Y-99290000D01*
X95160000Y-97290000D02*
X96390000Y-97290000D01*
X96390000Y-96640000D02*
X99010000Y-96640000D01*
X96390000Y-98710000D02*
X96390000Y-101290000D01*
X96390000Y-102710000D02*
X96390000Y-103360000D01*
X96390000Y-96640000D02*
X96390000Y-97290000D01*
%TD*%
M02*
