%TF.GenerationSoftware,KiCad,Pcbnew,6.0.8-f2edbf62ab~116~ubuntu22.04.1*%
%TF.CreationDate,2022-11-07T08:46:38+01:00*%
%TF.ProjectId,batteriedeckel,62617474-6572-4696-9564-65636b656c2e,rev?*%
%TF.SameCoordinates,Original*%
%TF.FileFunction,Copper,L1,Top*%
%TF.FilePolarity,Positive*%
%FSLAX46Y46*%
G04 Gerber Fmt 4.6, Leading zero omitted, Abs format (unit mm)*
G04 Created by KiCad (PCBNEW 6.0.8-f2edbf62ab~116~ubuntu22.04.1) date 2022-11-07 08:46:38*
%MOMM*%
%LPD*%
G01*
G04 APERTURE LIST*
%TA.AperFunction,ComponentPad*%
%ADD10C,5.000000*%
%TD*%
%TA.AperFunction,SMDPad,CuDef*%
%ADD11R,2.000000X0.900000*%
%TD*%
%TA.AperFunction,Conductor*%
%ADD12C,0.500000*%
%TD*%
G04 APERTURE END LIST*
D10*
%TO.P,BAT+,1,1*%
%TO.N,/BAT+*%
X92750000Y-87443000D03*
%TD*%
%TO.P,SW-,1,1*%
%TO.N,/GND*%
X114500000Y-100000000D03*
%TD*%
%TO.P,BAT-,1,1*%
%TO.N,/GND*%
X102000000Y-102000000D03*
%TD*%
%TO.P,SW+,1,1*%
%TO.N,/MODE*%
X92750000Y-112557000D03*
%TD*%
D11*
%TO.P,J1,1,Pin_1*%
%TO.N,/BAT+*%
X96100000Y-98000000D03*
%TO.P,J1,2,Pin_2*%
%TO.N,/GND*%
X99300000Y-100000000D03*
%TO.P,J1,3,Pin_3*%
%TO.N,/MODE*%
X96100000Y-102000000D03*
%TD*%
D12*
%TO.N,/MODE*%
X92750000Y-112557000D02*
X96266000Y-109041000D01*
X96266000Y-102166000D02*
X96100000Y-102000000D01*
X96266000Y-109041000D02*
X96266000Y-102166000D01*
%TD*%
%TA.AperFunction,Conductor*%
%TO.N,/BAT+*%
G36*
X100452733Y-78513324D02*
G01*
X101346821Y-78550798D01*
X101352079Y-78551129D01*
X101584192Y-78570620D01*
X102243850Y-78626013D01*
X102249099Y-78626565D01*
X102618148Y-78673186D01*
X103136919Y-78738723D01*
X103142123Y-78739491D01*
X104024506Y-78888735D01*
X104029679Y-78889721D01*
X104386389Y-78965542D01*
X104905042Y-79075785D01*
X104910180Y-79076991D01*
X105776929Y-79299535D01*
X105782012Y-79300954D01*
X106638717Y-79559608D01*
X106643736Y-79561239D01*
X107170237Y-79744586D01*
X107488839Y-79855534D01*
X107493763Y-79857365D01*
X108034099Y-80071299D01*
X108325836Y-80186806D01*
X108330701Y-80188851D01*
X109148226Y-80552836D01*
X109153001Y-80555083D01*
X109954561Y-80952982D01*
X109959238Y-80955427D01*
X110743447Y-81386549D01*
X110748017Y-81389188D01*
X111513478Y-81852767D01*
X111517911Y-81855581D01*
X111535546Y-81867297D01*
X112263289Y-82350809D01*
X112267623Y-82353821D01*
X112771392Y-82719830D01*
X112991606Y-82879825D01*
X112995808Y-82883014D01*
X113426363Y-83224268D01*
X113697134Y-83438879D01*
X113701198Y-83442241D01*
X114264767Y-83928701D01*
X114378617Y-84026974D01*
X114382539Y-84030505D01*
X115034881Y-84643094D01*
X115038652Y-84646786D01*
X115664801Y-85286189D01*
X115668384Y-85290005D01*
X116267225Y-85955086D01*
X116270616Y-85959014D01*
X116317617Y-86015828D01*
X116841067Y-86648571D01*
X116844345Y-86652706D01*
X117385407Y-87365529D01*
X117388489Y-87369772D01*
X117507673Y-87541254D01*
X117899229Y-88104630D01*
X117902149Y-88109026D01*
X118381644Y-88864591D01*
X118384378Y-88869105D01*
X118831821Y-89644098D01*
X118834364Y-89648723D01*
X119248971Y-90441794D01*
X119251317Y-90446521D01*
X119632333Y-91256220D01*
X119634480Y-91261041D01*
X119981275Y-92086035D01*
X119983217Y-92090942D01*
X120295142Y-92929680D01*
X120296878Y-92934664D01*
X120573418Y-93785769D01*
X120574943Y-93790821D01*
X120815592Y-94652728D01*
X120816905Y-94657840D01*
X121021257Y-95529101D01*
X121022354Y-95534263D01*
X121190040Y-96413301D01*
X121190920Y-96418504D01*
X121222091Y-96629593D01*
X121212255Y-96699905D01*
X121165967Y-96753738D01*
X121097443Y-96774000D01*
X97790000Y-96774000D01*
X97790000Y-100204000D01*
X97769998Y-100272121D01*
X97716342Y-100318614D01*
X97664000Y-100330000D01*
X78638801Y-100330000D01*
X78570680Y-100309998D01*
X78524187Y-100256342D01*
X78512829Y-100206639D01*
X78508555Y-100002639D01*
X78508555Y-99997361D01*
X78527297Y-99102668D01*
X78527518Y-99097395D01*
X78573994Y-98358676D01*
X78583708Y-98204271D01*
X78584148Y-98199028D01*
X78677693Y-97309010D01*
X78678355Y-97303775D01*
X78809080Y-96418505D01*
X78809960Y-96413301D01*
X78977646Y-95534263D01*
X78978743Y-95529101D01*
X79183095Y-94657840D01*
X79184408Y-94652728D01*
X79425057Y-93790821D01*
X79426582Y-93785769D01*
X79703122Y-92934664D01*
X79704858Y-92929680D01*
X80016783Y-92090942D01*
X80018725Y-92086035D01*
X80365520Y-91261041D01*
X80367667Y-91256220D01*
X80748683Y-90446521D01*
X80751029Y-90441794D01*
X81165636Y-89648723D01*
X81168179Y-89644098D01*
X81615622Y-88869105D01*
X81618356Y-88864591D01*
X82097851Y-88109026D01*
X82100771Y-88104630D01*
X82492328Y-87541254D01*
X82611511Y-87369772D01*
X82614593Y-87365529D01*
X83155655Y-86652706D01*
X83158933Y-86648571D01*
X83682383Y-86015828D01*
X83729384Y-85959014D01*
X83732775Y-85955086D01*
X84331616Y-85290005D01*
X84335199Y-85286189D01*
X84961348Y-84646786D01*
X84965119Y-84643094D01*
X85617461Y-84030505D01*
X85621383Y-84026974D01*
X85735233Y-83928701D01*
X86298802Y-83442241D01*
X86302866Y-83438879D01*
X86573638Y-83224268D01*
X87004192Y-82883014D01*
X87008394Y-82879825D01*
X87228609Y-82719830D01*
X87732377Y-82353821D01*
X87736711Y-82350809D01*
X88064986Y-82132703D01*
X97890743Y-82132703D01*
X97928268Y-82417734D01*
X98004129Y-82695036D01*
X98116923Y-82959476D01*
X98264561Y-83206161D01*
X98444313Y-83430528D01*
X98652851Y-83628423D01*
X98886317Y-83796186D01*
X98890112Y-83798195D01*
X98890113Y-83798196D01*
X98911869Y-83809715D01*
X99140392Y-83930712D01*
X99410373Y-84029511D01*
X99691264Y-84090755D01*
X99719841Y-84093004D01*
X99914282Y-84108307D01*
X99914291Y-84108307D01*
X99916739Y-84108500D01*
X100072271Y-84108500D01*
X100074407Y-84108354D01*
X100074418Y-84108354D01*
X100282548Y-84094165D01*
X100282554Y-84094164D01*
X100286825Y-84093873D01*
X100291020Y-84093004D01*
X100291022Y-84093004D01*
X100427584Y-84064723D01*
X100568342Y-84035574D01*
X100839343Y-83939607D01*
X101094812Y-83807750D01*
X101098313Y-83805289D01*
X101098317Y-83805287D01*
X101212418Y-83725095D01*
X101330023Y-83642441D01*
X101540622Y-83446740D01*
X101722713Y-83224268D01*
X101872927Y-82979142D01*
X101988483Y-82715898D01*
X102067244Y-82439406D01*
X102107751Y-82154784D01*
X102107845Y-82136951D01*
X102109235Y-81871583D01*
X102109235Y-81871576D01*
X102109257Y-81867297D01*
X102107716Y-81855588D01*
X102072292Y-81586522D01*
X102071732Y-81582266D01*
X101995871Y-81304964D01*
X101883077Y-81040524D01*
X101735439Y-80793839D01*
X101555687Y-80569472D01*
X101347149Y-80371577D01*
X101113683Y-80203814D01*
X101091843Y-80192250D01*
X101068654Y-80179972D01*
X100859608Y-80069288D01*
X100589627Y-79970489D01*
X100308736Y-79909245D01*
X100277685Y-79906801D01*
X100085718Y-79891693D01*
X100085709Y-79891693D01*
X100083261Y-79891500D01*
X99927729Y-79891500D01*
X99925593Y-79891646D01*
X99925582Y-79891646D01*
X99717452Y-79905835D01*
X99717446Y-79905836D01*
X99713175Y-79906127D01*
X99708980Y-79906996D01*
X99708978Y-79906996D01*
X99572417Y-79935276D01*
X99431658Y-79964426D01*
X99160657Y-80060393D01*
X99156848Y-80062359D01*
X98915736Y-80186806D01*
X98905188Y-80192250D01*
X98901687Y-80194711D01*
X98901683Y-80194713D01*
X98891594Y-80201804D01*
X98669977Y-80357559D01*
X98459378Y-80553260D01*
X98277287Y-80775732D01*
X98127073Y-81020858D01*
X98011517Y-81284102D01*
X98010342Y-81288229D01*
X98010341Y-81288230D01*
X97981582Y-81389188D01*
X97932756Y-81560594D01*
X97892249Y-81845216D01*
X97892227Y-81849505D01*
X97892226Y-81849512D01*
X97891085Y-82067373D01*
X97890743Y-82132703D01*
X88064986Y-82132703D01*
X88464454Y-81867297D01*
X88482089Y-81855581D01*
X88486522Y-81852767D01*
X89251983Y-81389188D01*
X89256553Y-81386549D01*
X90040762Y-80955427D01*
X90045439Y-80952982D01*
X90846999Y-80555083D01*
X90851774Y-80552836D01*
X91669299Y-80188851D01*
X91674164Y-80186806D01*
X91965901Y-80071299D01*
X92506237Y-79857365D01*
X92511161Y-79855534D01*
X92829763Y-79744586D01*
X93356264Y-79561239D01*
X93361283Y-79559608D01*
X94217988Y-79300954D01*
X94223071Y-79299535D01*
X95089820Y-79076991D01*
X95094958Y-79075785D01*
X95613611Y-78965542D01*
X95970321Y-78889721D01*
X95975494Y-78888735D01*
X96857877Y-78739491D01*
X96863081Y-78738723D01*
X97381852Y-78673186D01*
X97750901Y-78626565D01*
X97756150Y-78626013D01*
X98415808Y-78570620D01*
X98647921Y-78551129D01*
X98653179Y-78550798D01*
X99547267Y-78513324D01*
X99552544Y-78513213D01*
X100447456Y-78513213D01*
X100452733Y-78513324D01*
G37*
%TD.AperFunction*%
%TD*%
%TA.AperFunction,Conductor*%
%TO.N,/GND*%
G36*
X121240283Y-97048002D02*
G01*
X121286776Y-97101658D01*
X121296810Y-97135593D01*
X121321575Y-97303295D01*
X121321646Y-97303777D01*
X121322305Y-97308991D01*
X121407138Y-98116124D01*
X121415852Y-98199028D01*
X121416293Y-98204287D01*
X121472482Y-99097395D01*
X121472703Y-99102668D01*
X121491445Y-99997361D01*
X121491445Y-100002639D01*
X121472703Y-100897332D01*
X121472482Y-100902605D01*
X121416293Y-101795713D01*
X121415852Y-101800972D01*
X121322307Y-102690990D01*
X121321645Y-102696225D01*
X121190920Y-103581495D01*
X121190040Y-103586699D01*
X121022354Y-104465737D01*
X121021257Y-104470899D01*
X120816905Y-105342160D01*
X120815592Y-105347272D01*
X120574943Y-106209179D01*
X120573418Y-106214231D01*
X120296878Y-107065336D01*
X120295142Y-107070320D01*
X119983217Y-107909058D01*
X119981275Y-107913965D01*
X119634480Y-108738959D01*
X119632333Y-108743780D01*
X119251317Y-109553479D01*
X119248971Y-109558206D01*
X118834364Y-110351277D01*
X118831821Y-110355902D01*
X118384378Y-111130895D01*
X118381644Y-111135409D01*
X118327715Y-111220388D01*
X117913927Y-111872415D01*
X117902149Y-111890974D01*
X117899239Y-111895355D01*
X117505174Y-112462341D01*
X117388491Y-112630226D01*
X117385407Y-112634471D01*
X116931048Y-113233067D01*
X116844345Y-113347294D01*
X116841067Y-113351429D01*
X116780621Y-113424496D01*
X116270616Y-114040986D01*
X116267225Y-114044914D01*
X115668384Y-114709995D01*
X115664808Y-114713804D01*
X115285182Y-115101466D01*
X115038652Y-115353214D01*
X115034881Y-115356906D01*
X114382539Y-115969495D01*
X114378619Y-115973025D01*
X114248621Y-116085236D01*
X113701200Y-116557757D01*
X113697137Y-116561119D01*
X113421752Y-116779386D01*
X112995810Y-117116984D01*
X112991609Y-117120173D01*
X112731569Y-117309103D01*
X112267623Y-117646179D01*
X112263289Y-117649191D01*
X111517911Y-118144419D01*
X111513478Y-118147233D01*
X111024226Y-118443534D01*
X110748017Y-118610812D01*
X110743447Y-118613451D01*
X109959238Y-119044573D01*
X109954561Y-119047018D01*
X109153001Y-119444917D01*
X109148226Y-119447164D01*
X108330701Y-119811149D01*
X108325836Y-119813194D01*
X107493763Y-120142635D01*
X107488839Y-120144466D01*
X107170237Y-120255414D01*
X106643736Y-120438761D01*
X106638717Y-120440392D01*
X105782012Y-120699046D01*
X105776929Y-120700465D01*
X104910180Y-120923009D01*
X104905042Y-120924215D01*
X104386389Y-121034458D01*
X104029679Y-121110279D01*
X104024506Y-121111265D01*
X103142123Y-121260509D01*
X103136919Y-121261277D01*
X102618148Y-121326814D01*
X102249099Y-121373435D01*
X102243850Y-121373987D01*
X101584192Y-121429380D01*
X101352079Y-121448871D01*
X101346821Y-121449202D01*
X100560337Y-121482166D01*
X100452732Y-121486676D01*
X100447456Y-121486787D01*
X99552544Y-121486787D01*
X99547268Y-121486676D01*
X99439663Y-121482166D01*
X98653179Y-121449202D01*
X98647921Y-121448871D01*
X98415808Y-121429380D01*
X97756150Y-121373987D01*
X97750901Y-121373435D01*
X97381852Y-121326814D01*
X96863081Y-121261277D01*
X96857877Y-121260509D01*
X95975494Y-121111265D01*
X95970321Y-121110279D01*
X95613611Y-121034458D01*
X95094958Y-120924215D01*
X95089820Y-120923009D01*
X94223071Y-120700465D01*
X94217988Y-120699046D01*
X93361283Y-120440392D01*
X93356264Y-120438761D01*
X92829763Y-120255414D01*
X92511161Y-120144466D01*
X92506237Y-120142635D01*
X91674164Y-119813194D01*
X91669299Y-119811149D01*
X90851774Y-119447164D01*
X90846999Y-119444917D01*
X90045439Y-119047018D01*
X90040762Y-119044573D01*
X89256553Y-118613451D01*
X89251983Y-118610812D01*
X88975774Y-118443534D01*
X88486522Y-118147233D01*
X88482089Y-118144419D01*
X88464455Y-118132703D01*
X97890743Y-118132703D01*
X97891302Y-118136947D01*
X97891302Y-118136951D01*
X97892477Y-118145874D01*
X97928268Y-118417734D01*
X98004129Y-118695036D01*
X98116923Y-118959476D01*
X98264561Y-119206161D01*
X98444313Y-119430528D01*
X98652851Y-119628423D01*
X98886317Y-119796186D01*
X98890112Y-119798195D01*
X98890113Y-119798196D01*
X98911869Y-119809715D01*
X99140392Y-119930712D01*
X99410373Y-120029511D01*
X99691264Y-120090755D01*
X99719841Y-120093004D01*
X99914282Y-120108307D01*
X99914291Y-120108307D01*
X99916739Y-120108500D01*
X100072271Y-120108500D01*
X100074407Y-120108354D01*
X100074418Y-120108354D01*
X100282548Y-120094165D01*
X100282554Y-120094164D01*
X100286825Y-120093873D01*
X100291020Y-120093004D01*
X100291022Y-120093004D01*
X100427583Y-120064724D01*
X100568342Y-120035574D01*
X100839343Y-119939607D01*
X100927362Y-119894177D01*
X101091005Y-119809715D01*
X101091006Y-119809715D01*
X101094812Y-119807750D01*
X101098313Y-119805289D01*
X101098317Y-119805287D01*
X101212418Y-119725095D01*
X101330023Y-119642441D01*
X101540622Y-119446740D01*
X101722713Y-119224268D01*
X101872927Y-118979142D01*
X101988483Y-118715898D01*
X102018027Y-118612185D01*
X102066068Y-118443534D01*
X102067244Y-118439406D01*
X102107751Y-118154784D01*
X102107806Y-118144412D01*
X102109235Y-117871583D01*
X102109235Y-117871576D01*
X102109257Y-117867297D01*
X102071732Y-117582266D01*
X101995871Y-117304964D01*
X101883077Y-117040524D01*
X101735439Y-116793839D01*
X101555687Y-116569472D01*
X101347149Y-116371577D01*
X101113683Y-116203814D01*
X101091843Y-116192250D01*
X100889728Y-116085236D01*
X100859608Y-116069288D01*
X100589627Y-115970489D01*
X100308736Y-115909245D01*
X100277685Y-115906801D01*
X100085718Y-115891693D01*
X100085709Y-115891693D01*
X100083261Y-115891500D01*
X99927729Y-115891500D01*
X99925593Y-115891646D01*
X99925582Y-115891646D01*
X99717452Y-115905835D01*
X99717446Y-115905836D01*
X99713175Y-115906127D01*
X99708980Y-115906996D01*
X99708978Y-115906996D01*
X99572416Y-115935277D01*
X99431658Y-115964426D01*
X99160657Y-116060393D01*
X98905188Y-116192250D01*
X98901687Y-116194711D01*
X98901683Y-116194713D01*
X98891594Y-116201804D01*
X98669977Y-116357559D01*
X98459378Y-116553260D01*
X98277287Y-116775732D01*
X98127073Y-117020858D01*
X98011517Y-117284102D01*
X97932756Y-117560594D01*
X97892249Y-117845216D01*
X97892227Y-117849505D01*
X97892226Y-117849512D01*
X97891791Y-117932627D01*
X97890743Y-118132703D01*
X88464455Y-118132703D01*
X87736711Y-117649191D01*
X87732377Y-117646179D01*
X87268431Y-117309103D01*
X87008391Y-117120173D01*
X87004190Y-117116984D01*
X86578248Y-116779386D01*
X86302863Y-116561119D01*
X86298800Y-116557757D01*
X85751380Y-116085236D01*
X85621381Y-115973025D01*
X85617461Y-115969495D01*
X84965119Y-115356906D01*
X84961348Y-115353214D01*
X84714818Y-115101466D01*
X84335192Y-114713804D01*
X84331616Y-114709995D01*
X83732775Y-114044914D01*
X83729384Y-114040986D01*
X83219379Y-113424496D01*
X83158933Y-113351429D01*
X83155655Y-113347294D01*
X83068952Y-113233067D01*
X82614593Y-112634471D01*
X82611509Y-112630226D01*
X82494826Y-112462341D01*
X89737888Y-112462341D01*
X89737983Y-112465971D01*
X89737983Y-112465972D01*
X89740367Y-112557000D01*
X89746970Y-112809171D01*
X89795856Y-113152660D01*
X89883897Y-113488253D01*
X90009927Y-113811503D01*
X90011624Y-113814708D01*
X90145113Y-114066825D01*
X90172275Y-114118126D01*
X90174325Y-114121109D01*
X90174327Y-114121112D01*
X90366733Y-114401064D01*
X90366739Y-114401071D01*
X90368790Y-114404056D01*
X90596866Y-114665505D01*
X90599551Y-114667948D01*
X90809268Y-114858775D01*
X90853481Y-114899006D01*
X91135233Y-115101466D01*
X91438388Y-115270200D01*
X91758928Y-115402972D01*
X91762422Y-115403967D01*
X91762424Y-115403968D01*
X92089103Y-115497025D01*
X92089108Y-115497026D01*
X92092604Y-115498022D01*
X92289304Y-115530233D01*
X92431412Y-115553504D01*
X92431419Y-115553505D01*
X92434993Y-115554090D01*
X92608275Y-115562262D01*
X92777931Y-115570263D01*
X92777932Y-115570263D01*
X92781558Y-115570434D01*
X92790415Y-115569830D01*
X93124073Y-115547084D01*
X93124081Y-115547083D01*
X93127704Y-115546836D01*
X93131279Y-115546173D01*
X93131282Y-115546173D01*
X93465279Y-115484270D01*
X93465283Y-115484269D01*
X93468844Y-115483609D01*
X93800456Y-115381592D01*
X94118145Y-115242136D01*
X94362511Y-115099341D01*
X94414560Y-115068926D01*
X94414562Y-115068925D01*
X94417700Y-115067091D01*
X94420609Y-115064907D01*
X94692244Y-114860958D01*
X94692248Y-114860955D01*
X94695151Y-114858775D01*
X94946819Y-114619950D01*
X95169370Y-114353783D01*
X95359853Y-114063799D01*
X95488446Y-113808121D01*
X95514117Y-113757080D01*
X95514120Y-113757072D01*
X95515744Y-113753844D01*
X95634977Y-113428026D01*
X95635822Y-113424504D01*
X95635825Y-113424496D01*
X95715124Y-113094191D01*
X95715125Y-113094187D01*
X95715971Y-113090662D01*
X95750035Y-112809171D01*
X95757316Y-112749004D01*
X95757316Y-112748997D01*
X95757652Y-112746225D01*
X95763599Y-112557000D01*
X95763438Y-112554204D01*
X95743836Y-112214246D01*
X95743835Y-112214241D01*
X95743627Y-112210626D01*
X95683976Y-111868842D01*
X95585437Y-111536180D01*
X95449316Y-111217048D01*
X95392830Y-111118017D01*
X95376455Y-111048938D01*
X95400027Y-110981968D01*
X95413184Y-110966497D01*
X96754911Y-109624770D01*
X96769323Y-109612384D01*
X96780918Y-109603851D01*
X96780923Y-109603846D01*
X96786818Y-109599508D01*
X96791557Y-109593930D01*
X96791560Y-109593927D01*
X96821035Y-109559232D01*
X96827965Y-109551716D01*
X96833660Y-109546021D01*
X96851281Y-109523749D01*
X96854072Y-109520345D01*
X96896591Y-109470297D01*
X96896592Y-109470295D01*
X96901333Y-109464715D01*
X96904661Y-109458199D01*
X96908028Y-109453150D01*
X96911195Y-109448021D01*
X96915734Y-109442284D01*
X96946655Y-109376125D01*
X96948561Y-109372225D01*
X96981769Y-109307192D01*
X96983508Y-109300083D01*
X96985604Y-109294449D01*
X96987523Y-109288679D01*
X96990622Y-109282050D01*
X97005491Y-109210565D01*
X97006461Y-109206282D01*
X97022473Y-109140844D01*
X97023808Y-109135390D01*
X97024500Y-109124236D01*
X97024535Y-109124238D01*
X97024775Y-109120266D01*
X97025152Y-109116045D01*
X97026641Y-109108885D01*
X97024546Y-109031458D01*
X97024500Y-109028050D01*
X97024500Y-103084372D01*
X97044502Y-103016251D01*
X97098158Y-102969758D01*
X97143684Y-102958556D01*
X97144718Y-102958500D01*
X97148134Y-102958500D01*
X97151530Y-102958131D01*
X97151532Y-102958131D01*
X97163879Y-102956790D01*
X97210316Y-102951745D01*
X97346705Y-102900615D01*
X97463261Y-102813261D01*
X97550615Y-102696705D01*
X97601745Y-102560316D01*
X97608500Y-102498134D01*
X97608500Y-101501866D01*
X97601745Y-101439684D01*
X97550615Y-101303295D01*
X97463261Y-101186739D01*
X97346705Y-101099385D01*
X97210316Y-101048255D01*
X97148134Y-101041500D01*
X95051866Y-101041500D01*
X94989684Y-101048255D01*
X94853295Y-101099385D01*
X94736739Y-101186739D01*
X94649385Y-101303295D01*
X94598255Y-101439684D01*
X94591500Y-101501866D01*
X94591500Y-102498134D01*
X94598255Y-102560316D01*
X94649385Y-102696705D01*
X94736739Y-102813261D01*
X94853295Y-102900615D01*
X94989684Y-102951745D01*
X95051866Y-102958500D01*
X95381500Y-102958500D01*
X95449621Y-102978502D01*
X95496114Y-103032158D01*
X95507500Y-103084500D01*
X95507500Y-108674629D01*
X95487498Y-108742750D01*
X95470595Y-108763724D01*
X94340695Y-109893624D01*
X94278383Y-109927650D01*
X94207568Y-109922585D01*
X94193815Y-109916497D01*
X93975741Y-109803940D01*
X93651189Y-109681302D01*
X93647668Y-109680418D01*
X93647663Y-109680416D01*
X93426125Y-109624770D01*
X93314692Y-109596780D01*
X93292476Y-109593855D01*
X92974315Y-109551968D01*
X92974307Y-109551967D01*
X92970711Y-109551494D01*
X92826045Y-109549221D01*
X92627446Y-109546101D01*
X92627442Y-109546101D01*
X92623804Y-109546044D01*
X92620190Y-109546405D01*
X92620184Y-109546405D01*
X92376843Y-109570694D01*
X92278569Y-109580503D01*
X91939583Y-109654414D01*
X91936156Y-109655587D01*
X91936150Y-109655589D01*
X91857296Y-109682587D01*
X91611339Y-109766797D01*
X91298188Y-109916163D01*
X91004279Y-110100532D01*
X91001443Y-110102804D01*
X91001436Y-110102809D01*
X90757384Y-110298332D01*
X90733509Y-110317459D01*
X90489466Y-110564071D01*
X90275386Y-110837098D01*
X90094105Y-111132921D01*
X90092580Y-111136206D01*
X90092578Y-111136210D01*
X90053504Y-111220388D01*
X89948027Y-111447620D01*
X89839087Y-111777023D01*
X89838351Y-111780578D01*
X89838350Y-111780581D01*
X89769465Y-112113214D01*
X89768730Y-112116764D01*
X89737888Y-112462341D01*
X82494826Y-112462341D01*
X82100761Y-111895355D01*
X82097851Y-111890974D01*
X82086074Y-111872415D01*
X81672285Y-111220388D01*
X81618356Y-111135409D01*
X81615622Y-111130895D01*
X81168179Y-110355902D01*
X81165636Y-110351277D01*
X80751029Y-109558206D01*
X80748683Y-109553479D01*
X80367667Y-108743780D01*
X80365520Y-108738959D01*
X80018725Y-107913965D01*
X80016783Y-107909058D01*
X79704858Y-107070320D01*
X79703122Y-107065336D01*
X79426582Y-106214231D01*
X79425057Y-106209179D01*
X79184408Y-105347272D01*
X79183095Y-105342160D01*
X78978743Y-104470899D01*
X78977646Y-104465737D01*
X78809960Y-103586699D01*
X78809080Y-103581495D01*
X78678355Y-102696225D01*
X78677693Y-102690990D01*
X78584148Y-101800972D01*
X78583707Y-101795713D01*
X78527518Y-100902605D01*
X78527297Y-100897332D01*
X78523428Y-100712639D01*
X78541999Y-100644114D01*
X78594669Y-100596508D01*
X78649400Y-100584000D01*
X98044000Y-100584000D01*
X98044000Y-97154000D01*
X98064002Y-97085879D01*
X98117658Y-97039386D01*
X98170000Y-97028000D01*
X121172162Y-97028000D01*
X121240283Y-97048002D01*
G37*
%TD.AperFunction*%
%TD*%
M02*
