%TF.GenerationSoftware,KiCad,Pcbnew,6.0.6-3a73a75311~116~ubuntu22.04.1*%
%TF.CreationDate,2022-08-06T20:48:40+02:00*%
%TF.ProjectId,buck_3a_v4,6275636b-5f33-4615-9f76-342e6b696361,rev?*%
%TF.SameCoordinates,Original*%
%TF.FileFunction,Copper,L2,Bot*%
%TF.FilePolarity,Positive*%
%FSLAX46Y46*%
G04 Gerber Fmt 4.6, Leading zero omitted, Abs format (unit mm)*
G04 Created by KiCad (PCBNEW 6.0.6-3a73a75311~116~ubuntu22.04.1) date 2022-08-06 20:48:40*
%MOMM*%
%LPD*%
G01*
G04 APERTURE LIST*
%TA.AperFunction,ComponentPad*%
%ADD10C,4.000000*%
%TD*%
%TA.AperFunction,ComponentPad*%
%ADD11O,1.350000X1.350000*%
%TD*%
%TA.AperFunction,ComponentPad*%
%ADD12R,1.350000X1.350000*%
%TD*%
%TA.AperFunction,ViaPad*%
%ADD13C,0.800000*%
%TD*%
%TA.AperFunction,Conductor*%
%ADD14C,0.500000*%
%TD*%
%TA.AperFunction,Conductor*%
%ADD15C,0.250000*%
%TD*%
G04 APERTURE END LIST*
D10*
%TO.P,LED+,1*%
%TO.N,Net-(C3-Pad2)*%
X60000000Y-50000000D03*
%TD*%
%TO.P,LED-,1*%
%TO.N,Net-(C3-Pad1)*%
X40000000Y-50000000D03*
%TD*%
D11*
%TO.P,J5,6*%
%TO.N,+5V*%
X44996000Y-68466000D03*
%TO.P,J5,5*%
%TO.N,GND*%
X46996000Y-68466000D03*
%TO.P,J5,4*%
%TO.N,/LED*%
X48996000Y-68466000D03*
%TO.P,J5,3*%
%TO.N,/RESET*%
X50996000Y-68466000D03*
%TO.P,J5,2*%
%TO.N,/PWM*%
X52996000Y-68466000D03*
D12*
%TO.P,J5,1*%
%TO.N,/MODE*%
X54996000Y-68466000D03*
%TD*%
D13*
%TO.N,GND*%
X59200000Y-37800000D03*
X57900000Y-37800000D03*
X44421000Y-62621000D03*
X45200000Y-44700000D03*
X44200000Y-44700000D03*
X43200000Y-44700000D03*
X37946002Y-55653998D03*
X55300000Y-56600000D03*
X60600000Y-37800000D03*
X60600000Y-36400000D03*
X46300000Y-44700000D03*
X48300000Y-44700000D03*
X47300000Y-44700000D03*
X42100000Y-56800000D03*
X40200000Y-65200000D03*
%TO.N,Net-(C3-Pad1)*%
X54800000Y-45700000D03*
%TO.N,+5V*%
X45600002Y-56200000D03*
X60446483Y-58553517D03*
X57700002Y-32400000D03*
%TO.N,/LED*%
X51721000Y-62700000D03*
%TO.N,/MODE*%
X50800000Y-49400000D03*
X51781000Y-60081000D03*
%TO.N,/PWM*%
X55200000Y-61400000D03*
X60800000Y-39300000D03*
%TO.N,Net-(Q1-Pad4)*%
X58600000Y-35300000D03*
X47499998Y-43200000D03*
%TD*%
D14*
%TO.N,Net-(C3-Pad1)*%
X44300000Y-45700000D02*
X40000000Y-50000000D01*
X54800000Y-45700000D02*
X44300000Y-45700000D01*
D15*
%TO.N,+5V*%
X45600000Y-56200002D02*
X45600002Y-56200000D01*
D14*
X45600000Y-67862000D02*
X45600000Y-56200002D01*
X44996000Y-68466000D02*
X45600000Y-67862000D01*
X60446483Y-58553517D02*
X63200000Y-55800000D01*
X63200000Y-55800000D02*
X63200000Y-37334313D01*
X63200000Y-37334313D02*
X58265687Y-32400000D01*
X58265687Y-32400000D02*
X57700002Y-32400000D01*
D15*
%TO.N,/LED*%
X48996000Y-68466000D02*
X48996000Y-66904000D01*
X48996000Y-66904000D02*
X51700000Y-64200000D01*
X51700000Y-62721000D02*
X51721000Y-62700000D01*
X51700000Y-64200000D02*
X51700000Y-62721000D01*
%TO.N,/MODE*%
X51319000Y-60081000D02*
X51781000Y-60081000D01*
X50800000Y-59600000D02*
X51300000Y-60100000D01*
X51300000Y-60100000D02*
X51319000Y-60081000D01*
X50800000Y-49400000D02*
X50800000Y-59600000D01*
%TO.N,/PWM*%
X55200000Y-66262000D02*
X52996000Y-68466000D01*
X55200000Y-61400000D02*
X55200000Y-66262000D01*
X62600000Y-41100000D02*
X60800000Y-39300000D01*
X62600000Y-54000000D02*
X62600000Y-41100000D01*
X55200000Y-61400000D02*
X62600000Y-54000000D01*
D14*
%TO.N,Net-(Q1-Pad4)*%
X58600000Y-35300000D02*
X50700000Y-43200000D01*
X50700000Y-43200000D02*
X47499998Y-43200000D01*
%TD*%
%TA.AperFunction,Conductor*%
%TO.N,GND*%
G36*
X50458052Y-28259380D02*
G01*
X51362770Y-28297299D01*
X51368028Y-28297630D01*
X51601921Y-28317270D01*
X52270401Y-28373404D01*
X52275650Y-28373956D01*
X52715833Y-28429564D01*
X53174043Y-28487449D01*
X53179239Y-28488216D01*
X54072093Y-28639232D01*
X54077245Y-28640214D01*
X54520152Y-28734356D01*
X54963043Y-28828496D01*
X54968151Y-28829694D01*
X55845299Y-29054907D01*
X55850299Y-29056304D01*
X56116110Y-29136557D01*
X56717207Y-29318040D01*
X56722226Y-29319671D01*
X57181979Y-29479773D01*
X57577376Y-29617464D01*
X57582300Y-29619295D01*
X58187697Y-29858989D01*
X58424265Y-29952653D01*
X58429130Y-29954698D01*
X59256374Y-30323010D01*
X59261149Y-30325257D01*
X60072238Y-30727886D01*
X60076915Y-30730331D01*
X60870446Y-31166579D01*
X60875016Y-31169218D01*
X61394638Y-31483911D01*
X61649578Y-31638308D01*
X61654011Y-31641122D01*
X62337941Y-32095524D01*
X62408250Y-32142237D01*
X62412584Y-32145249D01*
X62980255Y-32557686D01*
X63145174Y-32677507D01*
X63149376Y-32680696D01*
X63580025Y-33022024D01*
X63859039Y-33243168D01*
X63863105Y-33246532D01*
X64548577Y-33838215D01*
X64552497Y-33841745D01*
X65212616Y-34461638D01*
X65216366Y-34465310D01*
X65849948Y-35112304D01*
X65853560Y-35116151D01*
X66459473Y-35789085D01*
X66462922Y-35793080D01*
X67040125Y-36490800D01*
X67043403Y-36494935D01*
X67590897Y-37216232D01*
X67593980Y-37220475D01*
X67914591Y-37681773D01*
X68110791Y-37964068D01*
X68113711Y-37968464D01*
X68598907Y-38733012D01*
X68601641Y-38737526D01*
X69054403Y-39521732D01*
X69056946Y-39526357D01*
X69476482Y-40328857D01*
X69478828Y-40333584D01*
X69864374Y-41152909D01*
X69866521Y-41157730D01*
X70138914Y-41805726D01*
X70217431Y-41992511D01*
X70219367Y-41997401D01*
X70465263Y-42658595D01*
X70535021Y-42846169D01*
X70536753Y-42851143D01*
X70551173Y-42895524D01*
X70816577Y-43712355D01*
X70818102Y-43717407D01*
X71061612Y-44589561D01*
X71062925Y-44594673D01*
X71269707Y-45476291D01*
X71270804Y-45481453D01*
X71440483Y-46370942D01*
X71441363Y-46376146D01*
X71573642Y-47271940D01*
X71574304Y-47277175D01*
X71667095Y-48160015D01*
X71668961Y-48177773D01*
X71669401Y-48183016D01*
X71695924Y-48604579D01*
X71726260Y-49086759D01*
X71726481Y-49092032D01*
X71733221Y-49413807D01*
X71744721Y-49962775D01*
X71745445Y-49997361D01*
X71745445Y-50002626D01*
X71737269Y-50392976D01*
X71726481Y-50907968D01*
X71726260Y-50913241D01*
X71712428Y-51133101D01*
X71670155Y-51805007D01*
X71669402Y-51816968D01*
X71668962Y-51822212D01*
X71625135Y-52239204D01*
X71574304Y-52722825D01*
X71573642Y-52728060D01*
X71441363Y-53623854D01*
X71440483Y-53629058D01*
X71270804Y-54518547D01*
X71269707Y-54523709D01*
X71062925Y-55405327D01*
X71061612Y-55410439D01*
X70818102Y-56282593D01*
X70816577Y-56287645D01*
X70536756Y-57148847D01*
X70535024Y-57153821D01*
X70243005Y-57939041D01*
X70219374Y-58002582D01*
X70217438Y-58007472D01*
X70056825Y-58389554D01*
X69866521Y-58842270D01*
X69864374Y-58847091D01*
X69478828Y-59666416D01*
X69476482Y-59671143D01*
X69056946Y-60473643D01*
X69054403Y-60478268D01*
X68601641Y-61262474D01*
X68598907Y-61266988D01*
X68406203Y-61570641D01*
X68136689Y-61995329D01*
X68113711Y-62031536D01*
X68110801Y-62035917D01*
X67654049Y-62693096D01*
X67593981Y-62779523D01*
X67590897Y-62783768D01*
X67217106Y-63276220D01*
X67043403Y-63505065D01*
X67040125Y-63509200D01*
X66462922Y-64206920D01*
X66459473Y-64210915D01*
X65853560Y-64883849D01*
X65849948Y-64887696D01*
X65216366Y-65534690D01*
X65212616Y-65538362D01*
X64552499Y-66158254D01*
X64548579Y-66161784D01*
X63884809Y-66734734D01*
X63863105Y-66753468D01*
X63859039Y-66756832D01*
X63149378Y-67319302D01*
X63145174Y-67322493D01*
X62412584Y-67854751D01*
X62408250Y-67857763D01*
X61654011Y-68358878D01*
X61649578Y-68361692D01*
X61488185Y-68459435D01*
X60875016Y-68830782D01*
X60870446Y-68833421D01*
X60076915Y-69269669D01*
X60072238Y-69272114D01*
X59261149Y-69674743D01*
X59256374Y-69676990D01*
X58429130Y-70045302D01*
X58424265Y-70047347D01*
X57582300Y-70380705D01*
X57577376Y-70382536D01*
X57254366Y-70495019D01*
X56722226Y-70680329D01*
X56717207Y-70681960D01*
X56283763Y-70812825D01*
X55850299Y-70943696D01*
X55845299Y-70945093D01*
X54968151Y-71170306D01*
X54963043Y-71171504D01*
X54520152Y-71265643D01*
X54077245Y-71359786D01*
X54072093Y-71360768D01*
X53179239Y-71511784D01*
X53174043Y-71512551D01*
X52715833Y-71570436D01*
X52275650Y-71626044D01*
X52270401Y-71626596D01*
X51736916Y-71671394D01*
X51368028Y-71702370D01*
X51362770Y-71702701D01*
X50576436Y-71735658D01*
X50458051Y-71740620D01*
X50452775Y-71740731D01*
X49547225Y-71740731D01*
X49541949Y-71740620D01*
X49423564Y-71735658D01*
X48637230Y-71702701D01*
X48631972Y-71702370D01*
X48263084Y-71671394D01*
X47729599Y-71626596D01*
X47724350Y-71626044D01*
X47284167Y-71570436D01*
X46825957Y-71512551D01*
X46820761Y-71511784D01*
X45927907Y-71360768D01*
X45922755Y-71359786D01*
X45479848Y-71265643D01*
X45036957Y-71171504D01*
X45031849Y-71170306D01*
X44154701Y-70945093D01*
X44149701Y-70943696D01*
X43716238Y-70812826D01*
X43282793Y-70681960D01*
X43277774Y-70680329D01*
X42745634Y-70495019D01*
X42422624Y-70382536D01*
X42417700Y-70380705D01*
X41575735Y-70047347D01*
X41570870Y-70045302D01*
X40743626Y-69676990D01*
X40738851Y-69674743D01*
X39927762Y-69272114D01*
X39923085Y-69269669D01*
X39129554Y-68833421D01*
X39124984Y-68830782D01*
X38522655Y-68466000D01*
X44061380Y-68466000D01*
X44081804Y-68660318D01*
X44142182Y-68846144D01*
X44239877Y-69015356D01*
X44370617Y-69160558D01*
X44375959Y-69164439D01*
X44375961Y-69164441D01*
X44494576Y-69250620D01*
X44528690Y-69275405D01*
X44534719Y-69278089D01*
X44534722Y-69278091D01*
X44701151Y-69352189D01*
X44701154Y-69352190D01*
X44707187Y-69354876D01*
X44786727Y-69371783D01*
X44891849Y-69394128D01*
X44891854Y-69394128D01*
X44898306Y-69395500D01*
X45093694Y-69395500D01*
X45100146Y-69394128D01*
X45100151Y-69394128D01*
X45205273Y-69371783D01*
X45284813Y-69354876D01*
X45290846Y-69352190D01*
X45290849Y-69352189D01*
X45457278Y-69278091D01*
X45457281Y-69278089D01*
X45463310Y-69275405D01*
X45497424Y-69250620D01*
X45616039Y-69164441D01*
X45616041Y-69164439D01*
X45621383Y-69160558D01*
X45752123Y-69015356D01*
X45849818Y-68846144D01*
X45910196Y-68660318D01*
X45930620Y-68466000D01*
X48061380Y-68466000D01*
X48081804Y-68660318D01*
X48142182Y-68846144D01*
X48239877Y-69015356D01*
X48370617Y-69160558D01*
X48375959Y-69164439D01*
X48375961Y-69164441D01*
X48494576Y-69250620D01*
X48528690Y-69275405D01*
X48534719Y-69278089D01*
X48534722Y-69278091D01*
X48701151Y-69352189D01*
X48701154Y-69352190D01*
X48707187Y-69354876D01*
X48786727Y-69371783D01*
X48891849Y-69394128D01*
X48891854Y-69394128D01*
X48898306Y-69395500D01*
X49093694Y-69395500D01*
X49100146Y-69394128D01*
X49100151Y-69394128D01*
X49205273Y-69371783D01*
X49284813Y-69354876D01*
X49290846Y-69352190D01*
X49290849Y-69352189D01*
X49457278Y-69278091D01*
X49457281Y-69278089D01*
X49463310Y-69275405D01*
X49497424Y-69250620D01*
X49616039Y-69164441D01*
X49616041Y-69164439D01*
X49621383Y-69160558D01*
X49752123Y-69015356D01*
X49849818Y-68846144D01*
X49854810Y-68830782D01*
X49876167Y-68765049D01*
X49916240Y-68706443D01*
X49981637Y-68678806D01*
X50051593Y-68690913D01*
X50103900Y-68738918D01*
X50115833Y-68765049D01*
X50137191Y-68830782D01*
X50142182Y-68846144D01*
X50239877Y-69015356D01*
X50370617Y-69160558D01*
X50375959Y-69164439D01*
X50375961Y-69164441D01*
X50494576Y-69250620D01*
X50528690Y-69275405D01*
X50534719Y-69278089D01*
X50534722Y-69278091D01*
X50701151Y-69352189D01*
X50701154Y-69352190D01*
X50707187Y-69354876D01*
X50786727Y-69371783D01*
X50891849Y-69394128D01*
X50891854Y-69394128D01*
X50898306Y-69395500D01*
X51093694Y-69395500D01*
X51100146Y-69394128D01*
X51100151Y-69394128D01*
X51205273Y-69371783D01*
X51284813Y-69354876D01*
X51290846Y-69352190D01*
X51290849Y-69352189D01*
X51457278Y-69278091D01*
X51457281Y-69278089D01*
X51463310Y-69275405D01*
X51497424Y-69250620D01*
X51616039Y-69164441D01*
X51616041Y-69164439D01*
X51621383Y-69160558D01*
X51752123Y-69015356D01*
X51849818Y-68846144D01*
X51854810Y-68830782D01*
X51876167Y-68765049D01*
X51916240Y-68706443D01*
X51981637Y-68678806D01*
X52051593Y-68690913D01*
X52103900Y-68738918D01*
X52115833Y-68765049D01*
X52137191Y-68830782D01*
X52142182Y-68846144D01*
X52239877Y-69015356D01*
X52370617Y-69160558D01*
X52375959Y-69164439D01*
X52375961Y-69164441D01*
X52494576Y-69250620D01*
X52528690Y-69275405D01*
X52534719Y-69278089D01*
X52534722Y-69278091D01*
X52701151Y-69352189D01*
X52701154Y-69352190D01*
X52707187Y-69354876D01*
X52786727Y-69371783D01*
X52891849Y-69394128D01*
X52891854Y-69394128D01*
X52898306Y-69395500D01*
X53093694Y-69395500D01*
X53100146Y-69394128D01*
X53100151Y-69394128D01*
X53205273Y-69371783D01*
X53284813Y-69354876D01*
X53290846Y-69352190D01*
X53290849Y-69352189D01*
X53457278Y-69278091D01*
X53457281Y-69278089D01*
X53463310Y-69275405D01*
X53497424Y-69250620D01*
X53616039Y-69164441D01*
X53616041Y-69164439D01*
X53621383Y-69160558D01*
X53752123Y-69015356D01*
X53831382Y-68878076D01*
X53882765Y-68829083D01*
X53952478Y-68815647D01*
X54018389Y-68842033D01*
X54059571Y-68899866D01*
X54066501Y-68941075D01*
X54066501Y-69166066D01*
X54081266Y-69240301D01*
X54088161Y-69250620D01*
X54088162Y-69250622D01*
X54106517Y-69278091D01*
X54137516Y-69324484D01*
X54221699Y-69380734D01*
X54295933Y-69395500D01*
X54995886Y-69395500D01*
X55696066Y-69395499D01*
X55731818Y-69388388D01*
X55758126Y-69383156D01*
X55758128Y-69383155D01*
X55770301Y-69380734D01*
X55780621Y-69373839D01*
X55780622Y-69373838D01*
X55844168Y-69331377D01*
X55854484Y-69324484D01*
X55910734Y-69240301D01*
X55925500Y-69166067D01*
X55925499Y-67765934D01*
X55910734Y-67691699D01*
X55883393Y-67650780D01*
X55861377Y-67617832D01*
X55854484Y-67607516D01*
X55770301Y-67551266D01*
X55696067Y-67536500D01*
X55671471Y-67536500D01*
X54766382Y-67536501D01*
X54698262Y-67516499D01*
X54651769Y-67462843D01*
X54641665Y-67392569D01*
X54671158Y-67327989D01*
X54677288Y-67321406D01*
X55430216Y-66568478D01*
X55448964Y-66553336D01*
X55450189Y-66552221D01*
X55458940Y-66546571D01*
X55465387Y-66538393D01*
X55465389Y-66538391D01*
X55479729Y-66520200D01*
X55483675Y-66515759D01*
X55483602Y-66515697D01*
X55486961Y-66511733D01*
X55490638Y-66508056D01*
X55501892Y-66492308D01*
X55505398Y-66487638D01*
X55537156Y-66447353D01*
X55540188Y-66438719D01*
X55545514Y-66431266D01*
X55560203Y-66382150D01*
X55562036Y-66376508D01*
X55576390Y-66335633D01*
X55576390Y-66335632D01*
X55579018Y-66328149D01*
X55579500Y-66322584D01*
X55579500Y-66319876D01*
X55579614Y-66317242D01*
X55579643Y-66317144D01*
X55579807Y-66317151D01*
X55579851Y-66316447D01*
X55581713Y-66310222D01*
X55579597Y-66256365D01*
X55579500Y-66251418D01*
X55579500Y-61994730D01*
X55599502Y-61926609D01*
X55623669Y-61898919D01*
X55679536Y-61851204D01*
X55685314Y-61846269D01*
X55777755Y-61717624D01*
X55836842Y-61570641D01*
X55859162Y-61413807D01*
X55859307Y-61400000D01*
X55853437Y-61351496D01*
X55865109Y-61281468D01*
X55889429Y-61247265D01*
X62480405Y-54656289D01*
X62542717Y-54622263D01*
X62613532Y-54627328D01*
X62670368Y-54669875D01*
X62695179Y-54736395D01*
X62695500Y-54745384D01*
X62695500Y-55538839D01*
X62675498Y-55606960D01*
X62658595Y-55627934D01*
X60418527Y-57868002D01*
X60358846Y-57901426D01*
X60326171Y-57909270D01*
X60224046Y-57933788D01*
X60224043Y-57933789D01*
X60216667Y-57935560D01*
X60075897Y-58008217D01*
X59956522Y-58112355D01*
X59865433Y-58241961D01*
X59807889Y-58389554D01*
X59787212Y-58546613D01*
X59804596Y-58704070D01*
X59807206Y-58711201D01*
X59807206Y-58711203D01*
X59856056Y-58844692D01*
X59859036Y-58852836D01*
X59947391Y-58984322D01*
X59953010Y-58989435D01*
X59953011Y-58989436D01*
X59964386Y-58999786D01*
X60064559Y-59090936D01*
X60203776Y-59166525D01*
X60357005Y-59206724D01*
X60440960Y-59208043D01*
X60507802Y-59209093D01*
X60507805Y-59209093D01*
X60515399Y-59209212D01*
X60669815Y-59173846D01*
X60740225Y-59138434D01*
X60804555Y-59106080D01*
X60804558Y-59106078D01*
X60811338Y-59102668D01*
X60817109Y-59097739D01*
X60817112Y-59097737D01*
X60926019Y-59004721D01*
X60926019Y-59004720D01*
X60931797Y-58999786D01*
X61024238Y-58871141D01*
X61083325Y-58724158D01*
X61093001Y-58656164D01*
X61122401Y-58591542D01*
X61128649Y-58584822D01*
X63506794Y-56206677D01*
X63516234Y-56199135D01*
X63515911Y-56198755D01*
X63522747Y-56192937D01*
X63530339Y-56188147D01*
X63565672Y-56148140D01*
X63571017Y-56142454D01*
X63582351Y-56131120D01*
X63588553Y-56122845D01*
X63594940Y-56115000D01*
X63620060Y-56086557D01*
X63626001Y-56079830D01*
X63629814Y-56071708D01*
X63631654Y-56068907D01*
X63640063Y-56054912D01*
X63641685Y-56051949D01*
X63647070Y-56044764D01*
X63652996Y-56028957D01*
X63663546Y-56000818D01*
X63667471Y-55991502D01*
X63683601Y-55957145D01*
X63687417Y-55949018D01*
X63688799Y-55940144D01*
X63689785Y-55936917D01*
X63693925Y-55921134D01*
X63694646Y-55917856D01*
X63697798Y-55909448D01*
X63699370Y-55888288D01*
X63701276Y-55862643D01*
X63702430Y-55852596D01*
X63703751Y-55844114D01*
X63703751Y-55844111D01*
X63704500Y-55839303D01*
X63704500Y-55823938D01*
X63704846Y-55814601D01*
X63707842Y-55774281D01*
X63708507Y-55765333D01*
X63706634Y-55756558D01*
X63706041Y-55747862D01*
X63704500Y-55733262D01*
X63704500Y-50042186D01*
X66141018Y-50042186D01*
X66166579Y-50310100D01*
X66230547Y-50571518D01*
X66331583Y-50820963D01*
X66467569Y-51053210D01*
X66635658Y-51263395D01*
X66832327Y-51447113D01*
X66985192Y-51553159D01*
X67049244Y-51597593D01*
X67053457Y-51600516D01*
X67294416Y-51720391D01*
X67298750Y-51721812D01*
X67298753Y-51721813D01*
X67545823Y-51802807D01*
X67545829Y-51802808D01*
X67550156Y-51804227D01*
X67554647Y-51805007D01*
X67554648Y-51805007D01*
X67811538Y-51849611D01*
X67811546Y-51849612D01*
X67815319Y-51850267D01*
X67819156Y-51850458D01*
X67898777Y-51854422D01*
X67898785Y-51854422D01*
X67900348Y-51854500D01*
X68068374Y-51854500D01*
X68070642Y-51854335D01*
X68070654Y-51854335D01*
X68201457Y-51844844D01*
X68268425Y-51839985D01*
X68272880Y-51839001D01*
X68272883Y-51839001D01*
X68526770Y-51782947D01*
X68526772Y-51782946D01*
X68531226Y-51781963D01*
X68782900Y-51686613D01*
X69018172Y-51555931D01*
X69164842Y-51443996D01*
X69228491Y-51395421D01*
X69228495Y-51395417D01*
X69232116Y-51392654D01*
X69245950Y-51378503D01*
X69417063Y-51203462D01*
X69420249Y-51200203D01*
X69527242Y-51053210D01*
X69575942Y-50986304D01*
X69575947Y-50986297D01*
X69578630Y-50982610D01*
X69703941Y-50744433D01*
X69793557Y-50490662D01*
X69818688Y-50363156D01*
X69844720Y-50231083D01*
X69844721Y-50231077D01*
X69845601Y-50226611D01*
X69854782Y-50042186D01*
X69858755Y-49962383D01*
X69858755Y-49962377D01*
X69858982Y-49957814D01*
X69833421Y-49689900D01*
X69799324Y-49550553D01*
X69770539Y-49432920D01*
X69769453Y-49428482D01*
X69668417Y-49179037D01*
X69557565Y-48989715D01*
X69534741Y-48950735D01*
X69534740Y-48950734D01*
X69532431Y-48946790D01*
X69405475Y-48788039D01*
X69367194Y-48740171D01*
X69367193Y-48740169D01*
X69364342Y-48736605D01*
X69167673Y-48552887D01*
X68955221Y-48405504D01*
X68950291Y-48402084D01*
X68950290Y-48402084D01*
X68946543Y-48399484D01*
X68705584Y-48279609D01*
X68701250Y-48278188D01*
X68701247Y-48278187D01*
X68454177Y-48197193D01*
X68454171Y-48197192D01*
X68449844Y-48195773D01*
X68445352Y-48194993D01*
X68188462Y-48150389D01*
X68188454Y-48150388D01*
X68184681Y-48149733D01*
X68174718Y-48149237D01*
X68101223Y-48145578D01*
X68101215Y-48145578D01*
X68099652Y-48145500D01*
X67931626Y-48145500D01*
X67929358Y-48145665D01*
X67929346Y-48145665D01*
X67798543Y-48155156D01*
X67731575Y-48160015D01*
X67727120Y-48160999D01*
X67727117Y-48160999D01*
X67473230Y-48217053D01*
X67473228Y-48217054D01*
X67468774Y-48218037D01*
X67217100Y-48313387D01*
X66981828Y-48444069D01*
X66978196Y-48446841D01*
X66771509Y-48604579D01*
X66771505Y-48604583D01*
X66767884Y-48607346D01*
X66764699Y-48610604D01*
X66764698Y-48610605D01*
X66751014Y-48624603D01*
X66579751Y-48799797D01*
X66553851Y-48835379D01*
X66424058Y-49013696D01*
X66424053Y-49013703D01*
X66421370Y-49017390D01*
X66296059Y-49255567D01*
X66206443Y-49509338D01*
X66205560Y-49513820D01*
X66167756Y-49705623D01*
X66154399Y-49773389D01*
X66154172Y-49777942D01*
X66154172Y-49777945D01*
X66142987Y-50002639D01*
X66141018Y-50042186D01*
X63704500Y-50042186D01*
X63704500Y-37404937D01*
X63705841Y-37392932D01*
X63705345Y-37392892D01*
X63706065Y-37383945D01*
X63708046Y-37375189D01*
X63704742Y-37321931D01*
X63704500Y-37314129D01*
X63704500Y-37298087D01*
X63703035Y-37287856D01*
X63702003Y-37277790D01*
X63699654Y-37239913D01*
X63699654Y-37239911D01*
X63699098Y-37230954D01*
X63696051Y-37222514D01*
X63695370Y-37219224D01*
X63691418Y-37203375D01*
X63690473Y-37200145D01*
X63689201Y-37191261D01*
X63669774Y-37148531D01*
X63665964Y-37139173D01*
X63653075Y-37103471D01*
X63653074Y-37103470D01*
X63650027Y-37095029D01*
X63644731Y-37087780D01*
X63643146Y-37084799D01*
X63634920Y-37070721D01*
X63633104Y-37067882D01*
X63629388Y-37059708D01*
X63598757Y-37024159D01*
X63592465Y-37016236D01*
X63584527Y-37005369D01*
X63573665Y-36994507D01*
X63567307Y-36987660D01*
X63540915Y-36957031D01*
X63535056Y-36950231D01*
X63527521Y-36945347D01*
X63520949Y-36939614D01*
X63509545Y-36930387D01*
X58672364Y-32093206D01*
X58664822Y-32083766D01*
X58664442Y-32084089D01*
X58658624Y-32077253D01*
X58653834Y-32069661D01*
X58613827Y-32034328D01*
X58608141Y-32028983D01*
X58596807Y-32017649D01*
X58588532Y-32011447D01*
X58580687Y-32005060D01*
X58552244Y-31979940D01*
X58545517Y-31973999D01*
X58537395Y-31970186D01*
X58534594Y-31968346D01*
X58520599Y-31959937D01*
X58517636Y-31958315D01*
X58510451Y-31952930D01*
X58502041Y-31949777D01*
X58502039Y-31949776D01*
X58466505Y-31936454D01*
X58457189Y-31932529D01*
X58414705Y-31912583D01*
X58405831Y-31911201D01*
X58402604Y-31910215D01*
X58386821Y-31906075D01*
X58383543Y-31905354D01*
X58375135Y-31902202D01*
X58361378Y-31901180D01*
X58328330Y-31898724D01*
X58318283Y-31897570D01*
X58309801Y-31896249D01*
X58309798Y-31896249D01*
X58304990Y-31895500D01*
X58289625Y-31895500D01*
X58280288Y-31895154D01*
X58264206Y-31893959D01*
X58231020Y-31891493D01*
X58222245Y-31893366D01*
X58213549Y-31893959D01*
X58198949Y-31895500D01*
X58165669Y-31895500D01*
X58097548Y-31875498D01*
X58082145Y-31863802D01*
X58081956Y-31863670D01*
X58076277Y-31858611D01*
X57936276Y-31784484D01*
X57782635Y-31745892D01*
X57775036Y-31745852D01*
X57775035Y-31745852D01*
X57709183Y-31745507D01*
X57624223Y-31745062D01*
X57616843Y-31746834D01*
X57616841Y-31746834D01*
X57477565Y-31780271D01*
X57477562Y-31780272D01*
X57470186Y-31782043D01*
X57329416Y-31854700D01*
X57210041Y-31958838D01*
X57118952Y-32088444D01*
X57061408Y-32236037D01*
X57040731Y-32393096D01*
X57058115Y-32550553D01*
X57060725Y-32557684D01*
X57060725Y-32557686D01*
X57105741Y-32680698D01*
X57112555Y-32699319D01*
X57200910Y-32830805D01*
X57318078Y-32937419D01*
X57457295Y-33013008D01*
X57610524Y-33053207D01*
X57694479Y-33054526D01*
X57761321Y-33055576D01*
X57761324Y-33055576D01*
X57768918Y-33055695D01*
X57923334Y-33020329D01*
X58007817Y-32977839D01*
X58077660Y-32965101D01*
X58143304Y-32992145D01*
X58153525Y-33001309D01*
X62658595Y-37506379D01*
X62692621Y-37568691D01*
X62695500Y-37595474D01*
X62695500Y-40354616D01*
X62675498Y-40422737D01*
X62621842Y-40469230D01*
X62551568Y-40479334D01*
X62486988Y-40449840D01*
X62480405Y-40443711D01*
X61490143Y-39453449D01*
X61456117Y-39391137D01*
X61454495Y-39346601D01*
X61458581Y-39317892D01*
X61458581Y-39317886D01*
X61459162Y-39313807D01*
X61459307Y-39300000D01*
X61440276Y-39142733D01*
X61384280Y-38994546D01*
X61294553Y-38863992D01*
X61176275Y-38758611D01*
X61168889Y-38754700D01*
X61042988Y-38688039D01*
X61042989Y-38688039D01*
X61036274Y-38684484D01*
X60882633Y-38645892D01*
X60875034Y-38645852D01*
X60875033Y-38645852D01*
X60809181Y-38645507D01*
X60724221Y-38645062D01*
X60716841Y-38646834D01*
X60716839Y-38646834D01*
X60577563Y-38680271D01*
X60577560Y-38680272D01*
X60570184Y-38682043D01*
X60429414Y-38754700D01*
X60310039Y-38858838D01*
X60218950Y-38988444D01*
X60161406Y-39136037D01*
X60140729Y-39293096D01*
X60143016Y-39313807D01*
X60153518Y-39408930D01*
X60158113Y-39450553D01*
X60160723Y-39457684D01*
X60160723Y-39457686D01*
X60185000Y-39524025D01*
X60212553Y-39599319D01*
X60300908Y-39730805D01*
X60418076Y-39837419D01*
X60557293Y-39913008D01*
X60710522Y-39953207D01*
X60807138Y-39954725D01*
X60868772Y-39955693D01*
X60936570Y-39976762D01*
X60955888Y-39992582D01*
X62183595Y-41220289D01*
X62217621Y-41282601D01*
X62220500Y-41309384D01*
X62220500Y-48864997D01*
X62200498Y-48933118D01*
X62146842Y-48979611D01*
X62076568Y-48989715D01*
X62011988Y-48960221D01*
X61981494Y-48920725D01*
X61958470Y-48874036D01*
X61958467Y-48874031D01*
X61956643Y-48870332D01*
X61792453Y-48624603D01*
X61597593Y-48402407D01*
X61375397Y-48207547D01*
X61129669Y-48043357D01*
X61125970Y-48041533D01*
X61125965Y-48041530D01*
X60989991Y-47974475D01*
X60864611Y-47912645D01*
X60860705Y-47911319D01*
X60588666Y-47818974D01*
X60588663Y-47818973D01*
X60584759Y-47817648D01*
X60580720Y-47816845D01*
X60580714Y-47816843D01*
X60298946Y-47760796D01*
X60298943Y-47760796D01*
X60294903Y-47759992D01*
X60290792Y-47759723D01*
X60290788Y-47759722D01*
X60004119Y-47740933D01*
X60000000Y-47740663D01*
X59995881Y-47740933D01*
X59709212Y-47759722D01*
X59709208Y-47759723D01*
X59705097Y-47759992D01*
X59701057Y-47760796D01*
X59701054Y-47760796D01*
X59419286Y-47816843D01*
X59419280Y-47816845D01*
X59415241Y-47817648D01*
X59411337Y-47818973D01*
X59411334Y-47818974D01*
X59139295Y-47911319D01*
X59135389Y-47912645D01*
X59010143Y-47974410D01*
X58874036Y-48041530D01*
X58874031Y-48041533D01*
X58870332Y-48043357D01*
X58624603Y-48207547D01*
X58402407Y-48402407D01*
X58207547Y-48624603D01*
X58043357Y-48870332D01*
X58041533Y-48874031D01*
X58041530Y-48874036D01*
X57997169Y-48963992D01*
X57912645Y-49135389D01*
X57911320Y-49139294D01*
X57911319Y-49139295D01*
X57822822Y-49400000D01*
X57817648Y-49415241D01*
X57816845Y-49419280D01*
X57816843Y-49419286D01*
X57789314Y-49557686D01*
X57759992Y-49705097D01*
X57759723Y-49709208D01*
X57759722Y-49709212D01*
X57743727Y-49953258D01*
X57740663Y-50000000D01*
X57759992Y-50294903D01*
X57760796Y-50298943D01*
X57760796Y-50298946D01*
X57815856Y-50575749D01*
X57817648Y-50584759D01*
X57818973Y-50588663D01*
X57818974Y-50588666D01*
X57897828Y-50820963D01*
X57912645Y-50864611D01*
X57935328Y-50910607D01*
X58003707Y-51049265D01*
X58043357Y-51129668D01*
X58207547Y-51375397D01*
X58402407Y-51597593D01*
X58624603Y-51792453D01*
X58870331Y-51956643D01*
X58874030Y-51958467D01*
X58874035Y-51958470D01*
X59010009Y-52025525D01*
X59135389Y-52087355D01*
X59139294Y-52088680D01*
X59139295Y-52088681D01*
X59411334Y-52181026D01*
X59411337Y-52181027D01*
X59415241Y-52182352D01*
X59419280Y-52183155D01*
X59419286Y-52183157D01*
X59701054Y-52239204D01*
X59701057Y-52239204D01*
X59705097Y-52240008D01*
X59709208Y-52240277D01*
X59709212Y-52240278D01*
X59995881Y-52259067D01*
X60000000Y-52259337D01*
X60004119Y-52259067D01*
X60290788Y-52240278D01*
X60290792Y-52240277D01*
X60294903Y-52240008D01*
X60298943Y-52239204D01*
X60298946Y-52239204D01*
X60580714Y-52183157D01*
X60580720Y-52183155D01*
X60584759Y-52182352D01*
X60588663Y-52181027D01*
X60588666Y-52181026D01*
X60860705Y-52088681D01*
X60860706Y-52088680D01*
X60864611Y-52087355D01*
X60989991Y-52025525D01*
X61125965Y-51958470D01*
X61125970Y-51958467D01*
X61129669Y-51956643D01*
X61375397Y-51792453D01*
X61597593Y-51597593D01*
X61792453Y-51375397D01*
X61956643Y-51129668D01*
X61981494Y-51079275D01*
X62029562Y-51027026D01*
X62098248Y-51009059D01*
X62165743Y-51031078D01*
X62210620Y-51086093D01*
X62220500Y-51135003D01*
X62220500Y-53790616D01*
X62200498Y-53858737D01*
X62183595Y-53879711D01*
X55354411Y-60708895D01*
X55292099Y-60742921D01*
X55264658Y-60745798D01*
X55124221Y-60745062D01*
X55116841Y-60746834D01*
X55116839Y-60746834D01*
X54977563Y-60780271D01*
X54977560Y-60780272D01*
X54970184Y-60782043D01*
X54829414Y-60854700D01*
X54710039Y-60958838D01*
X54618950Y-61088444D01*
X54561406Y-61236037D01*
X54560414Y-61243570D01*
X54560414Y-61243571D01*
X54554220Y-61290623D01*
X54540729Y-61393096D01*
X54549421Y-61471824D01*
X54555958Y-61531030D01*
X54558113Y-61550553D01*
X54612553Y-61699319D01*
X54700908Y-61830805D01*
X54706527Y-61835918D01*
X54706528Y-61835919D01*
X54779299Y-61902135D01*
X54816222Y-61962775D01*
X54820500Y-61995329D01*
X54820500Y-66052616D01*
X54800498Y-66120737D01*
X54783595Y-66141711D01*
X53385449Y-67539857D01*
X53323137Y-67573883D01*
X53270158Y-67574009D01*
X53195600Y-67558161D01*
X53100151Y-67537872D01*
X53100146Y-67537872D01*
X53093694Y-67536500D01*
X52898306Y-67536500D01*
X52891854Y-67537872D01*
X52891849Y-67537872D01*
X52796400Y-67558161D01*
X52707187Y-67577124D01*
X52701154Y-67579810D01*
X52701151Y-67579811D01*
X52534722Y-67653909D01*
X52534719Y-67653911D01*
X52528690Y-67656595D01*
X52523349Y-67660475D01*
X52523348Y-67660476D01*
X52427148Y-67730370D01*
X52370617Y-67771442D01*
X52366196Y-67776352D01*
X52366195Y-67776353D01*
X52292894Y-67857763D01*
X52239877Y-67916644D01*
X52142182Y-68085856D01*
X52140141Y-68092138D01*
X52140140Y-68092140D01*
X52115833Y-68166951D01*
X52075760Y-68225557D01*
X52010363Y-68253194D01*
X51940407Y-68241087D01*
X51888100Y-68193082D01*
X51876167Y-68166951D01*
X51851860Y-68092140D01*
X51851859Y-68092138D01*
X51849818Y-68085856D01*
X51752123Y-67916644D01*
X51699107Y-67857763D01*
X51625805Y-67776353D01*
X51625804Y-67776352D01*
X51621383Y-67771442D01*
X51564853Y-67730370D01*
X51468652Y-67660476D01*
X51468651Y-67660475D01*
X51463310Y-67656595D01*
X51457281Y-67653911D01*
X51457278Y-67653909D01*
X51290849Y-67579811D01*
X51290846Y-67579810D01*
X51284813Y-67577124D01*
X51195600Y-67558161D01*
X51100151Y-67537872D01*
X51100146Y-67537872D01*
X51093694Y-67536500D01*
X50898306Y-67536500D01*
X50891854Y-67537872D01*
X50891849Y-67537872D01*
X50796400Y-67558161D01*
X50707187Y-67577124D01*
X50701154Y-67579810D01*
X50701151Y-67579811D01*
X50534722Y-67653909D01*
X50534719Y-67653911D01*
X50528690Y-67656595D01*
X50523349Y-67660475D01*
X50523348Y-67660476D01*
X50427148Y-67730370D01*
X50370617Y-67771442D01*
X50366196Y-67776352D01*
X50366195Y-67776353D01*
X50292894Y-67857763D01*
X50239877Y-67916644D01*
X50142182Y-68085856D01*
X50140141Y-68092138D01*
X50140140Y-68092140D01*
X50115833Y-68166951D01*
X50075760Y-68225557D01*
X50010363Y-68253194D01*
X49940407Y-68241087D01*
X49888100Y-68193082D01*
X49876167Y-68166951D01*
X49851860Y-68092140D01*
X49851859Y-68092138D01*
X49849818Y-68085856D01*
X49752123Y-67916644D01*
X49699107Y-67857763D01*
X49625805Y-67776353D01*
X49625804Y-67776352D01*
X49621383Y-67771442D01*
X49564853Y-67730370D01*
X49468652Y-67660476D01*
X49468651Y-67660475D01*
X49463310Y-67656595D01*
X49457280Y-67653910D01*
X49457276Y-67653908D01*
X49450250Y-67650780D01*
X49396154Y-67604799D01*
X49375500Y-67535674D01*
X49375500Y-67113384D01*
X49395502Y-67045263D01*
X49412405Y-67024289D01*
X51930219Y-64506476D01*
X51948961Y-64491339D01*
X51950190Y-64490221D01*
X51958940Y-64484571D01*
X51979729Y-64458200D01*
X51983676Y-64453759D01*
X51983603Y-64453697D01*
X51986963Y-64449732D01*
X51990638Y-64446057D01*
X51993655Y-64441835D01*
X51993660Y-64441829D01*
X52001862Y-64430350D01*
X52005428Y-64425600D01*
X52030711Y-64393528D01*
X52037156Y-64385353D01*
X52040189Y-64376716D01*
X52045513Y-64369266D01*
X52060202Y-64320151D01*
X52062034Y-64314514D01*
X52076390Y-64273633D01*
X52076390Y-64273632D01*
X52079018Y-64266149D01*
X52079500Y-64260584D01*
X52079500Y-64257876D01*
X52079614Y-64255242D01*
X52079643Y-64255144D01*
X52079807Y-64255151D01*
X52079851Y-64254447D01*
X52081713Y-64248222D01*
X52079597Y-64194365D01*
X52079500Y-64189418D01*
X52079500Y-63312666D01*
X52099502Y-63244545D01*
X52123669Y-63216855D01*
X52200536Y-63151204D01*
X52200536Y-63151203D01*
X52206314Y-63146269D01*
X52298755Y-63017624D01*
X52357842Y-62870641D01*
X52380162Y-62713807D01*
X52380307Y-62700000D01*
X52361276Y-62542733D01*
X52305280Y-62394546D01*
X52215553Y-62263992D01*
X52097275Y-62158611D01*
X52089889Y-62154700D01*
X51963988Y-62088039D01*
X51963989Y-62088039D01*
X51957274Y-62084484D01*
X51803633Y-62045892D01*
X51796034Y-62045852D01*
X51796033Y-62045852D01*
X51730181Y-62045507D01*
X51645221Y-62045062D01*
X51637841Y-62046834D01*
X51637839Y-62046834D01*
X51498563Y-62080271D01*
X51498560Y-62080272D01*
X51491184Y-62082043D01*
X51350414Y-62154700D01*
X51231039Y-62258838D01*
X51139950Y-62388444D01*
X51082406Y-62536037D01*
X51061729Y-62693096D01*
X51070421Y-62771825D01*
X51071510Y-62781684D01*
X51079113Y-62850553D01*
X51133553Y-62999319D01*
X51221908Y-63130805D01*
X51279299Y-63183026D01*
X51316222Y-63243666D01*
X51320500Y-63276220D01*
X51320500Y-63990616D01*
X51300498Y-64058737D01*
X51283595Y-64079711D01*
X48765784Y-66597522D01*
X48747036Y-66612664D01*
X48745811Y-66613779D01*
X48737060Y-66619429D01*
X48730613Y-66627607D01*
X48730611Y-66627609D01*
X48716271Y-66645800D01*
X48712325Y-66650241D01*
X48712398Y-66650303D01*
X48709039Y-66654267D01*
X48705362Y-66657944D01*
X48694108Y-66673692D01*
X48690602Y-66678362D01*
X48658844Y-66718647D01*
X48655812Y-66727281D01*
X48650486Y-66734734D01*
X48644367Y-66755196D01*
X48635799Y-66783844D01*
X48633964Y-66789492D01*
X48616982Y-66837851D01*
X48616500Y-66843416D01*
X48616500Y-66846124D01*
X48616386Y-66848758D01*
X48616357Y-66848856D01*
X48616193Y-66848849D01*
X48616149Y-66849553D01*
X48614287Y-66855778D01*
X48614696Y-66866183D01*
X48616403Y-66909635D01*
X48616500Y-66914582D01*
X48616500Y-67535674D01*
X48596498Y-67603795D01*
X48541750Y-67650780D01*
X48534724Y-67653908D01*
X48534720Y-67653910D01*
X48528690Y-67656595D01*
X48523349Y-67660475D01*
X48523348Y-67660476D01*
X48427148Y-67730370D01*
X48370617Y-67771442D01*
X48366196Y-67776352D01*
X48366195Y-67776353D01*
X48292894Y-67857763D01*
X48239877Y-67916644D01*
X48142182Y-68085856D01*
X48140140Y-68092140D01*
X48140140Y-68092141D01*
X48103648Y-68204454D01*
X48081804Y-68271682D01*
X48061380Y-68466000D01*
X45930620Y-68466000D01*
X45916104Y-68327892D01*
X45928876Y-68258053D01*
X45946972Y-68231314D01*
X45965670Y-68210142D01*
X45971017Y-68204454D01*
X45982351Y-68193120D01*
X45988553Y-68184845D01*
X45994940Y-68177000D01*
X46020060Y-68148557D01*
X46026001Y-68141830D01*
X46029814Y-68133708D01*
X46031654Y-68130907D01*
X46040063Y-68116912D01*
X46041685Y-68113949D01*
X46047070Y-68106764D01*
X46050224Y-68098352D01*
X46063546Y-68062818D01*
X46067471Y-68053502D01*
X46083601Y-68019145D01*
X46087417Y-68011018D01*
X46088799Y-68002144D01*
X46089785Y-67998917D01*
X46093925Y-67983134D01*
X46094646Y-67979856D01*
X46097798Y-67971448D01*
X46101276Y-67924643D01*
X46102430Y-67914596D01*
X46103751Y-67906114D01*
X46103751Y-67906111D01*
X46104500Y-67901303D01*
X46104500Y-67885938D01*
X46104846Y-67876601D01*
X46106246Y-67857763D01*
X46108507Y-67827333D01*
X46106634Y-67818558D01*
X46106041Y-67809862D01*
X46104500Y-67795262D01*
X46104500Y-56660148D01*
X46128177Y-56586622D01*
X46173326Y-56523790D01*
X46177757Y-56517624D01*
X46236844Y-56370641D01*
X46259164Y-56213807D01*
X46259309Y-56200000D01*
X46257061Y-56181419D01*
X46255104Y-56165254D01*
X46240278Y-56042733D01*
X46184282Y-55894546D01*
X46135755Y-55823938D01*
X46098857Y-55770251D01*
X46098856Y-55770249D01*
X46094555Y-55763992D01*
X45976277Y-55658611D01*
X45968891Y-55654700D01*
X45918338Y-55627934D01*
X45836276Y-55584484D01*
X45682635Y-55545892D01*
X45675036Y-55545852D01*
X45675035Y-55545852D01*
X45609183Y-55545507D01*
X45524223Y-55545062D01*
X45516843Y-55546834D01*
X45516841Y-55546834D01*
X45377565Y-55580271D01*
X45377562Y-55580272D01*
X45370186Y-55582043D01*
X45229416Y-55654700D01*
X45110041Y-55758838D01*
X45018952Y-55888444D01*
X44961408Y-56036037D01*
X44960416Y-56043570D01*
X44960416Y-56043571D01*
X44947034Y-56145222D01*
X44940731Y-56193096D01*
X44958115Y-56350553D01*
X45012555Y-56499319D01*
X45016793Y-56505625D01*
X45016794Y-56505628D01*
X45074081Y-56590879D01*
X45095500Y-56661155D01*
X45095500Y-67410500D01*
X45075498Y-67478621D01*
X45021842Y-67525114D01*
X44969500Y-67536500D01*
X44898306Y-67536500D01*
X44891854Y-67537872D01*
X44891849Y-67537872D01*
X44796400Y-67558161D01*
X44707187Y-67577124D01*
X44701154Y-67579810D01*
X44701151Y-67579811D01*
X44534722Y-67653909D01*
X44534719Y-67653911D01*
X44528690Y-67656595D01*
X44523349Y-67660475D01*
X44523348Y-67660476D01*
X44427148Y-67730370D01*
X44370617Y-67771442D01*
X44366196Y-67776352D01*
X44366195Y-67776353D01*
X44292894Y-67857763D01*
X44239877Y-67916644D01*
X44142182Y-68085856D01*
X44140140Y-68092140D01*
X44140140Y-68092141D01*
X44103648Y-68204454D01*
X44081804Y-68271682D01*
X44061380Y-68466000D01*
X38522655Y-68466000D01*
X38511815Y-68459435D01*
X38350422Y-68361692D01*
X38345989Y-68358878D01*
X37591750Y-67857763D01*
X37587416Y-67854751D01*
X36854826Y-67322493D01*
X36850622Y-67319302D01*
X36140961Y-66756832D01*
X36136895Y-66753468D01*
X36115192Y-66734734D01*
X35451421Y-66161784D01*
X35447501Y-66158254D01*
X34787384Y-65538362D01*
X34783634Y-65534690D01*
X34150052Y-64887696D01*
X34146440Y-64883849D01*
X33540527Y-64210915D01*
X33537078Y-64206920D01*
X32959875Y-63509200D01*
X32956597Y-63505065D01*
X32782894Y-63276220D01*
X32409103Y-62783768D01*
X32406019Y-62779523D01*
X32345951Y-62693096D01*
X31889199Y-62035917D01*
X31886289Y-62031536D01*
X31863312Y-61995329D01*
X31593797Y-61570641D01*
X31401093Y-61266988D01*
X31398359Y-61262474D01*
X30945597Y-60478268D01*
X30943054Y-60473643D01*
X30523518Y-59671143D01*
X30521172Y-59666416D01*
X30135626Y-58847091D01*
X30133479Y-58842270D01*
X29943175Y-58389554D01*
X29782562Y-58007472D01*
X29780626Y-58002582D01*
X29756996Y-57939041D01*
X29464976Y-57153821D01*
X29463244Y-57148847D01*
X29183423Y-56287645D01*
X29181898Y-56282593D01*
X28938388Y-55410439D01*
X28937075Y-55405327D01*
X28730293Y-54523709D01*
X28729196Y-54518547D01*
X28559517Y-53629058D01*
X28558637Y-53623854D01*
X28426358Y-52728060D01*
X28425696Y-52722825D01*
X28374865Y-52239204D01*
X28331038Y-51822212D01*
X28330598Y-51816968D01*
X28329846Y-51805007D01*
X28287572Y-51133101D01*
X28273740Y-50913241D01*
X28273519Y-50907968D01*
X28262731Y-50392976D01*
X28255384Y-50042186D01*
X30141018Y-50042186D01*
X30166579Y-50310100D01*
X30230547Y-50571518D01*
X30331583Y-50820963D01*
X30467569Y-51053210D01*
X30635658Y-51263395D01*
X30832327Y-51447113D01*
X30985192Y-51553159D01*
X31049244Y-51597593D01*
X31053457Y-51600516D01*
X31294416Y-51720391D01*
X31298750Y-51721812D01*
X31298753Y-51721813D01*
X31545823Y-51802807D01*
X31545829Y-51802808D01*
X31550156Y-51804227D01*
X31554647Y-51805007D01*
X31554648Y-51805007D01*
X31811538Y-51849611D01*
X31811546Y-51849612D01*
X31815319Y-51850267D01*
X31819156Y-51850458D01*
X31898777Y-51854422D01*
X31898785Y-51854422D01*
X31900348Y-51854500D01*
X32068374Y-51854500D01*
X32070642Y-51854335D01*
X32070654Y-51854335D01*
X32201457Y-51844844D01*
X32268425Y-51839985D01*
X32272880Y-51839001D01*
X32272883Y-51839001D01*
X32526770Y-51782947D01*
X32526772Y-51782946D01*
X32531226Y-51781963D01*
X32782900Y-51686613D01*
X33018172Y-51555931D01*
X33164842Y-51443996D01*
X33228491Y-51395421D01*
X33228495Y-51395417D01*
X33232116Y-51392654D01*
X33245950Y-51378503D01*
X33417063Y-51203462D01*
X33420249Y-51200203D01*
X33527242Y-51053210D01*
X33575942Y-50986304D01*
X33575947Y-50986297D01*
X33578630Y-50982610D01*
X33703941Y-50744433D01*
X33793557Y-50490662D01*
X33818688Y-50363156D01*
X33844720Y-50231083D01*
X33844721Y-50231077D01*
X33845601Y-50226611D01*
X33854782Y-50042186D01*
X33856882Y-50000000D01*
X37740663Y-50000000D01*
X37759992Y-50294903D01*
X37760796Y-50298943D01*
X37760796Y-50298946D01*
X37815856Y-50575749D01*
X37817648Y-50584759D01*
X37818973Y-50588663D01*
X37818974Y-50588666D01*
X37897828Y-50820963D01*
X37912645Y-50864611D01*
X37935328Y-50910607D01*
X38003707Y-51049265D01*
X38043357Y-51129668D01*
X38207547Y-51375397D01*
X38402407Y-51597593D01*
X38624603Y-51792453D01*
X38870331Y-51956643D01*
X38874030Y-51958467D01*
X38874035Y-51958470D01*
X39010009Y-52025525D01*
X39135389Y-52087355D01*
X39139294Y-52088680D01*
X39139295Y-52088681D01*
X39411334Y-52181026D01*
X39411337Y-52181027D01*
X39415241Y-52182352D01*
X39419280Y-52183155D01*
X39419286Y-52183157D01*
X39701054Y-52239204D01*
X39701057Y-52239204D01*
X39705097Y-52240008D01*
X39709208Y-52240277D01*
X39709212Y-52240278D01*
X39995881Y-52259067D01*
X40000000Y-52259337D01*
X40004119Y-52259067D01*
X40290788Y-52240278D01*
X40290792Y-52240277D01*
X40294903Y-52240008D01*
X40298943Y-52239204D01*
X40298946Y-52239204D01*
X40580714Y-52183157D01*
X40580720Y-52183155D01*
X40584759Y-52182352D01*
X40588663Y-52181027D01*
X40588666Y-52181026D01*
X40860705Y-52088681D01*
X40860706Y-52088680D01*
X40864611Y-52087355D01*
X40989991Y-52025525D01*
X41125965Y-51958470D01*
X41125970Y-51958467D01*
X41129669Y-51956643D01*
X41375397Y-51792453D01*
X41597593Y-51597593D01*
X41792453Y-51375397D01*
X41956643Y-51129668D01*
X41996294Y-51049265D01*
X42064672Y-50910607D01*
X42087355Y-50864611D01*
X42102172Y-50820963D01*
X42181026Y-50588666D01*
X42181027Y-50588663D01*
X42182352Y-50584759D01*
X42184145Y-50575749D01*
X42239204Y-50298946D01*
X42239204Y-50298943D01*
X42240008Y-50294903D01*
X42259337Y-50000000D01*
X42256273Y-49953258D01*
X42240278Y-49709212D01*
X42240277Y-49709208D01*
X42240008Y-49705097D01*
X42210686Y-49557686D01*
X42183157Y-49419286D01*
X42183155Y-49419280D01*
X42182352Y-49415241D01*
X42177179Y-49400000D01*
X42174835Y-49393096D01*
X50140729Y-49393096D01*
X50143621Y-49419286D01*
X50154058Y-49513820D01*
X50158113Y-49550553D01*
X50212553Y-49699319D01*
X50216789Y-49705622D01*
X50216789Y-49705623D01*
X50265388Y-49777945D01*
X50300908Y-49830805D01*
X50306527Y-49835918D01*
X50306528Y-49835919D01*
X50379299Y-49902135D01*
X50416222Y-49962775D01*
X50420500Y-49995329D01*
X50420500Y-59546080D01*
X50417951Y-59570028D01*
X50417872Y-59571693D01*
X50415680Y-59581876D01*
X50416904Y-59592217D01*
X50419627Y-59615223D01*
X50419977Y-59621154D01*
X50420072Y-59621146D01*
X50420500Y-59626324D01*
X50420500Y-59631524D01*
X50421354Y-59636653D01*
X50421354Y-59636656D01*
X50423669Y-59650565D01*
X50424506Y-59656443D01*
X50430530Y-59707341D01*
X50434493Y-59715593D01*
X50435996Y-59724626D01*
X50440943Y-59733795D01*
X50440944Y-59733797D01*
X50460334Y-59769732D01*
X50463031Y-59775025D01*
X50481785Y-59814082D01*
X50481788Y-59814086D01*
X50485219Y-59821232D01*
X50488814Y-59825508D01*
X50490737Y-59827431D01*
X50492509Y-59829363D01*
X50492552Y-59829442D01*
X50492428Y-59829555D01*
X50492904Y-59830095D01*
X50495990Y-59835814D01*
X50503635Y-59842881D01*
X50535586Y-59872416D01*
X50539152Y-59875846D01*
X51015989Y-60352683D01*
X51023345Y-60360703D01*
X51043426Y-60384593D01*
X51043428Y-60384595D01*
X51050127Y-60392564D01*
X51060193Y-60398624D01*
X51087225Y-60414899D01*
X51095494Y-60420331D01*
X51130734Y-60445514D01*
X51140712Y-60448498D01*
X51144992Y-60450595D01*
X51149446Y-60452358D01*
X51158365Y-60457728D01*
X51200716Y-60466846D01*
X51210264Y-60469298D01*
X51223761Y-60473334D01*
X51280936Y-60510358D01*
X51281908Y-60511805D01*
X51399076Y-60618419D01*
X51538293Y-60694008D01*
X51691522Y-60734207D01*
X51775477Y-60735526D01*
X51842319Y-60736576D01*
X51842322Y-60736576D01*
X51849916Y-60736695D01*
X52004332Y-60701329D01*
X52074742Y-60665917D01*
X52139072Y-60633563D01*
X52139075Y-60633561D01*
X52145855Y-60630151D01*
X52151626Y-60625222D01*
X52151629Y-60625220D01*
X52260536Y-60532204D01*
X52260536Y-60532203D01*
X52266314Y-60527269D01*
X52358755Y-60398624D01*
X52417842Y-60251641D01*
X52440162Y-60094807D01*
X52440307Y-60081000D01*
X52421276Y-59923733D01*
X52365280Y-59775546D01*
X52293526Y-59671143D01*
X52279855Y-59651251D01*
X52279854Y-59651249D01*
X52275553Y-59644992D01*
X52250420Y-59622599D01*
X52216319Y-59592217D01*
X52157275Y-59539611D01*
X52149889Y-59535700D01*
X52023988Y-59469039D01*
X52023989Y-59469039D01*
X52017274Y-59465484D01*
X51863633Y-59426892D01*
X51856034Y-59426852D01*
X51856033Y-59426852D01*
X51790181Y-59426507D01*
X51705221Y-59426062D01*
X51697841Y-59427834D01*
X51697839Y-59427834D01*
X51558563Y-59461271D01*
X51558560Y-59461272D01*
X51551184Y-59463043D01*
X51413390Y-59534164D01*
X51413387Y-59534165D01*
X51410414Y-59535700D01*
X51410158Y-59535204D01*
X51347530Y-59555359D01*
X51278916Y-59537117D01*
X51255191Y-59518496D01*
X51216405Y-59479710D01*
X51182379Y-59417398D01*
X51179500Y-59390615D01*
X51179500Y-49994730D01*
X51199502Y-49926609D01*
X51223669Y-49898919D01*
X51279536Y-49851204D01*
X51285314Y-49846269D01*
X51377755Y-49717624D01*
X51436842Y-49570641D01*
X51459162Y-49413807D01*
X51459307Y-49400000D01*
X51440276Y-49242733D01*
X51384280Y-49094546D01*
X51365945Y-49067868D01*
X51298855Y-48970251D01*
X51298854Y-48970249D01*
X51294553Y-48963992D01*
X51176275Y-48858611D01*
X51168889Y-48854700D01*
X51042988Y-48788039D01*
X51042989Y-48788039D01*
X51036274Y-48784484D01*
X50882633Y-48745892D01*
X50875034Y-48745852D01*
X50875033Y-48745852D01*
X50809181Y-48745507D01*
X50724221Y-48745062D01*
X50716841Y-48746834D01*
X50716839Y-48746834D01*
X50577563Y-48780271D01*
X50577560Y-48780272D01*
X50570184Y-48782043D01*
X50429414Y-48854700D01*
X50310039Y-48958838D01*
X50218950Y-49088444D01*
X50161406Y-49236037D01*
X50140729Y-49393096D01*
X42174835Y-49393096D01*
X42088681Y-49139295D01*
X42088680Y-49139294D01*
X42087355Y-49135389D01*
X42029164Y-49017390D01*
X41959090Y-48875293D01*
X41946900Y-48805351D01*
X41974459Y-48739922D01*
X41983001Y-48730470D01*
X44472066Y-46241405D01*
X44534378Y-46207379D01*
X44561161Y-46204500D01*
X54333153Y-46204500D01*
X54401274Y-46224502D01*
X54406068Y-46228185D01*
X54406266Y-46227907D01*
X54412459Y-46232308D01*
X54418076Y-46237419D01*
X54557293Y-46313008D01*
X54710522Y-46353207D01*
X54794477Y-46354526D01*
X54861319Y-46355576D01*
X54861322Y-46355576D01*
X54868916Y-46355695D01*
X55023332Y-46320329D01*
X55093742Y-46284917D01*
X55158072Y-46252563D01*
X55158075Y-46252561D01*
X55164855Y-46249151D01*
X55170626Y-46244222D01*
X55170629Y-46244220D01*
X55279536Y-46151204D01*
X55279536Y-46151203D01*
X55285314Y-46146269D01*
X55377755Y-46017624D01*
X55436842Y-45870641D01*
X55459162Y-45713807D01*
X55459307Y-45700000D01*
X55440276Y-45542733D01*
X55384280Y-45394546D01*
X55320154Y-45301242D01*
X55298855Y-45270251D01*
X55298854Y-45270249D01*
X55294553Y-45263992D01*
X55286542Y-45256854D01*
X55256653Y-45230225D01*
X55176275Y-45158611D01*
X55168889Y-45154700D01*
X55042988Y-45088039D01*
X55042989Y-45088039D01*
X55036274Y-45084484D01*
X54882633Y-45045892D01*
X54875034Y-45045852D01*
X54875033Y-45045852D01*
X54809181Y-45045507D01*
X54724221Y-45045062D01*
X54716841Y-45046834D01*
X54716839Y-45046834D01*
X54577563Y-45080271D01*
X54577560Y-45080272D01*
X54570184Y-45082043D01*
X54429414Y-45154700D01*
X54423692Y-45159692D01*
X54423690Y-45159693D01*
X54418236Y-45164451D01*
X54353753Y-45194157D01*
X54335409Y-45195500D01*
X44370624Y-45195500D01*
X44358619Y-45194159D01*
X44358579Y-45194655D01*
X44349632Y-45193935D01*
X44340876Y-45191954D01*
X44297338Y-45194655D01*
X44287618Y-45195258D01*
X44279816Y-45195500D01*
X44263774Y-45195500D01*
X44259343Y-45196135D01*
X44259338Y-45196135D01*
X44255313Y-45196712D01*
X44253543Y-45196965D01*
X44243486Y-45197996D01*
X44221024Y-45199389D01*
X44205600Y-45200346D01*
X44205598Y-45200346D01*
X44196641Y-45200902D01*
X44188201Y-45203949D01*
X44184911Y-45204630D01*
X44169062Y-45208582D01*
X44165832Y-45209527D01*
X44156948Y-45210799D01*
X44114222Y-45230225D01*
X44104860Y-45234036D01*
X44069158Y-45246925D01*
X44069157Y-45246926D01*
X44060716Y-45249973D01*
X44053467Y-45255269D01*
X44050486Y-45256854D01*
X44036408Y-45265080D01*
X44033569Y-45266896D01*
X44025395Y-45270612D01*
X44018591Y-45276475D01*
X43989848Y-45301242D01*
X43981930Y-45307530D01*
X43971056Y-45315473D01*
X43960194Y-45326335D01*
X43953348Y-45332693D01*
X43915918Y-45364944D01*
X43911034Y-45372479D01*
X43905301Y-45379051D01*
X43896074Y-45390455D01*
X41269530Y-48016999D01*
X41207218Y-48051025D01*
X41136403Y-48045960D01*
X41124707Y-48040910D01*
X41076220Y-48016999D01*
X40864611Y-47912645D01*
X40860705Y-47911319D01*
X40588666Y-47818974D01*
X40588663Y-47818973D01*
X40584759Y-47817648D01*
X40580720Y-47816845D01*
X40580714Y-47816843D01*
X40298946Y-47760796D01*
X40298943Y-47760796D01*
X40294903Y-47759992D01*
X40290792Y-47759723D01*
X40290788Y-47759722D01*
X40004119Y-47740933D01*
X40000000Y-47740663D01*
X39995881Y-47740933D01*
X39709212Y-47759722D01*
X39709208Y-47759723D01*
X39705097Y-47759992D01*
X39701057Y-47760796D01*
X39701054Y-47760796D01*
X39419286Y-47816843D01*
X39419280Y-47816845D01*
X39415241Y-47817648D01*
X39411337Y-47818973D01*
X39411334Y-47818974D01*
X39139295Y-47911319D01*
X39135389Y-47912645D01*
X39010143Y-47974410D01*
X38874036Y-48041530D01*
X38874031Y-48041533D01*
X38870332Y-48043357D01*
X38624603Y-48207547D01*
X38402407Y-48402407D01*
X38207547Y-48624603D01*
X38043357Y-48870332D01*
X38041533Y-48874031D01*
X38041530Y-48874036D01*
X37997169Y-48963992D01*
X37912645Y-49135389D01*
X37911320Y-49139294D01*
X37911319Y-49139295D01*
X37822822Y-49400000D01*
X37817648Y-49415241D01*
X37816845Y-49419280D01*
X37816843Y-49419286D01*
X37789314Y-49557686D01*
X37759992Y-49705097D01*
X37759723Y-49709208D01*
X37759722Y-49709212D01*
X37743727Y-49953258D01*
X37740663Y-50000000D01*
X33856882Y-50000000D01*
X33858755Y-49962383D01*
X33858755Y-49962377D01*
X33858982Y-49957814D01*
X33833421Y-49689900D01*
X33799324Y-49550553D01*
X33770539Y-49432920D01*
X33769453Y-49428482D01*
X33668417Y-49179037D01*
X33557565Y-48989715D01*
X33534741Y-48950735D01*
X33534740Y-48950734D01*
X33532431Y-48946790D01*
X33405475Y-48788039D01*
X33367194Y-48740171D01*
X33367193Y-48740169D01*
X33364342Y-48736605D01*
X33167673Y-48552887D01*
X32955221Y-48405504D01*
X32950291Y-48402084D01*
X32950290Y-48402084D01*
X32946543Y-48399484D01*
X32705584Y-48279609D01*
X32701250Y-48278188D01*
X32701247Y-48278187D01*
X32454177Y-48197193D01*
X32454171Y-48197192D01*
X32449844Y-48195773D01*
X32445352Y-48194993D01*
X32188462Y-48150389D01*
X32188454Y-48150388D01*
X32184681Y-48149733D01*
X32174718Y-48149237D01*
X32101223Y-48145578D01*
X32101215Y-48145578D01*
X32099652Y-48145500D01*
X31931626Y-48145500D01*
X31929358Y-48145665D01*
X31929346Y-48145665D01*
X31798543Y-48155156D01*
X31731575Y-48160015D01*
X31727120Y-48160999D01*
X31727117Y-48160999D01*
X31473230Y-48217053D01*
X31473228Y-48217054D01*
X31468774Y-48218037D01*
X31217100Y-48313387D01*
X30981828Y-48444069D01*
X30978196Y-48446841D01*
X30771509Y-48604579D01*
X30771505Y-48604583D01*
X30767884Y-48607346D01*
X30764699Y-48610604D01*
X30764698Y-48610605D01*
X30751014Y-48624603D01*
X30579751Y-48799797D01*
X30553851Y-48835379D01*
X30424058Y-49013696D01*
X30424053Y-49013703D01*
X30421370Y-49017390D01*
X30296059Y-49255567D01*
X30206443Y-49509338D01*
X30205560Y-49513820D01*
X30167756Y-49705623D01*
X30154399Y-49773389D01*
X30154172Y-49777942D01*
X30154172Y-49777945D01*
X30142987Y-50002639D01*
X30141018Y-50042186D01*
X28255384Y-50042186D01*
X28254555Y-50002626D01*
X28254555Y-49997361D01*
X28255280Y-49962775D01*
X28266779Y-49413807D01*
X28273519Y-49092032D01*
X28273740Y-49086759D01*
X28304076Y-48604579D01*
X28330599Y-48183016D01*
X28331039Y-48177773D01*
X28332906Y-48160015D01*
X28425696Y-47277175D01*
X28426358Y-47271940D01*
X28558637Y-46376146D01*
X28559517Y-46370942D01*
X28729196Y-45481453D01*
X28730293Y-45476291D01*
X28937075Y-44594673D01*
X28938388Y-44589561D01*
X29181898Y-43717407D01*
X29183423Y-43712355D01*
X29352140Y-43193096D01*
X46840727Y-43193096D01*
X46858111Y-43350553D01*
X46912551Y-43499319D01*
X46916787Y-43505622D01*
X46916787Y-43505623D01*
X46979371Y-43598757D01*
X47000906Y-43630805D01*
X47006525Y-43635918D01*
X47006526Y-43635919D01*
X47079152Y-43702003D01*
X47118074Y-43737419D01*
X47257291Y-43813008D01*
X47410520Y-43853207D01*
X47494475Y-43854526D01*
X47561317Y-43855576D01*
X47561320Y-43855576D01*
X47568914Y-43855695D01*
X47723330Y-43820329D01*
X47793740Y-43784917D01*
X47858070Y-43752563D01*
X47858073Y-43752561D01*
X47864853Y-43749151D01*
X47881787Y-43734688D01*
X47946577Y-43705658D01*
X47963617Y-43704500D01*
X50629376Y-43704500D01*
X50641381Y-43705841D01*
X50641421Y-43705345D01*
X50650368Y-43706065D01*
X50659124Y-43708046D01*
X50712382Y-43704742D01*
X50720184Y-43704500D01*
X50736226Y-43704500D01*
X50740657Y-43703865D01*
X50740662Y-43703865D01*
X50744687Y-43703288D01*
X50746457Y-43703035D01*
X50756514Y-43702004D01*
X50778976Y-43700611D01*
X50794400Y-43699654D01*
X50794402Y-43699654D01*
X50803359Y-43699098D01*
X50811799Y-43696051D01*
X50815089Y-43695370D01*
X50830938Y-43691418D01*
X50834168Y-43690473D01*
X50843052Y-43689201D01*
X50885763Y-43669782D01*
X50895128Y-43665970D01*
X50930837Y-43653078D01*
X50930840Y-43653076D01*
X50939284Y-43650028D01*
X50946533Y-43644732D01*
X50949490Y-43643160D01*
X50963614Y-43634907D01*
X50966437Y-43633102D01*
X50974605Y-43629388D01*
X50981402Y-43623531D01*
X50981404Y-43623530D01*
X51010153Y-43598757D01*
X51018064Y-43592475D01*
X51028944Y-43584527D01*
X51039806Y-43573665D01*
X51046653Y-43567307D01*
X51077282Y-43540915D01*
X51084082Y-43535056D01*
X51088966Y-43527521D01*
X51094699Y-43520949D01*
X51103926Y-43509545D01*
X58628834Y-35984637D01*
X58689800Y-35950912D01*
X58815927Y-35922025D01*
X58823332Y-35920329D01*
X58893742Y-35884917D01*
X58958072Y-35852563D01*
X58958075Y-35852561D01*
X58964855Y-35849151D01*
X58970626Y-35844222D01*
X58970629Y-35844220D01*
X59079536Y-35751204D01*
X59079536Y-35751203D01*
X59085314Y-35746269D01*
X59177755Y-35617624D01*
X59236842Y-35470641D01*
X59259162Y-35313807D01*
X59259307Y-35300000D01*
X59240276Y-35142733D01*
X59184280Y-34994546D01*
X59094553Y-34863992D01*
X58976275Y-34758611D01*
X58968889Y-34754700D01*
X58842988Y-34688039D01*
X58842989Y-34688039D01*
X58836274Y-34684484D01*
X58682633Y-34645892D01*
X58675034Y-34645852D01*
X58675033Y-34645852D01*
X58609181Y-34645507D01*
X58524221Y-34645062D01*
X58516841Y-34646834D01*
X58516839Y-34646834D01*
X58377563Y-34680271D01*
X58377560Y-34680272D01*
X58370184Y-34682043D01*
X58229414Y-34754700D01*
X58110039Y-34858838D01*
X58018950Y-34988444D01*
X57961406Y-35136037D01*
X57960415Y-35143568D01*
X57960414Y-35143570D01*
X57953482Y-35196226D01*
X57924759Y-35261153D01*
X57917655Y-35268874D01*
X50527934Y-42658595D01*
X50465622Y-42692621D01*
X50438839Y-42695500D01*
X47965665Y-42695500D01*
X47897544Y-42675498D01*
X47882141Y-42663802D01*
X47881952Y-42663670D01*
X47876273Y-42658611D01*
X47736272Y-42584484D01*
X47582631Y-42545892D01*
X47575032Y-42545852D01*
X47575031Y-42545852D01*
X47509179Y-42545507D01*
X47424219Y-42545062D01*
X47416839Y-42546834D01*
X47416837Y-42546834D01*
X47277561Y-42580271D01*
X47277558Y-42580272D01*
X47270182Y-42582043D01*
X47129412Y-42654700D01*
X47010037Y-42758838D01*
X46918948Y-42888444D01*
X46861404Y-43036037D01*
X46840727Y-43193096D01*
X29352140Y-43193096D01*
X29448827Y-42895524D01*
X29463247Y-42851143D01*
X29464979Y-42846169D01*
X29534737Y-42658595D01*
X29780633Y-41997401D01*
X29782569Y-41992511D01*
X29861087Y-41805726D01*
X30133479Y-41157730D01*
X30135626Y-41152909D01*
X30521172Y-40333584D01*
X30523518Y-40328857D01*
X30943054Y-39526357D01*
X30945597Y-39521732D01*
X31398359Y-38737526D01*
X31401093Y-38733012D01*
X31886289Y-37968464D01*
X31889209Y-37964068D01*
X32085410Y-37681773D01*
X32406020Y-37220475D01*
X32409103Y-37216232D01*
X32956597Y-36494935D01*
X32959875Y-36490800D01*
X33537078Y-35793080D01*
X33540527Y-35789085D01*
X34146440Y-35116151D01*
X34150052Y-35112304D01*
X34783634Y-34465310D01*
X34787384Y-34461638D01*
X35447503Y-33841745D01*
X35451423Y-33838215D01*
X36136895Y-33246532D01*
X36140961Y-33243168D01*
X36419976Y-33022024D01*
X36850624Y-32680696D01*
X36854826Y-32677507D01*
X37019746Y-32557686D01*
X37587416Y-32145249D01*
X37591750Y-32142237D01*
X37662059Y-32095524D01*
X38345989Y-31641122D01*
X38350422Y-31638308D01*
X38605362Y-31483911D01*
X39124984Y-31169218D01*
X39129554Y-31166579D01*
X39923085Y-30730331D01*
X39927762Y-30727886D01*
X40738851Y-30325257D01*
X40743626Y-30323010D01*
X41570870Y-29954698D01*
X41575735Y-29952653D01*
X41812303Y-29858989D01*
X42417700Y-29619295D01*
X42422624Y-29617464D01*
X42818021Y-29479773D01*
X43277774Y-29319671D01*
X43282793Y-29318040D01*
X43883890Y-29136557D01*
X44149701Y-29056304D01*
X44154701Y-29054907D01*
X45031849Y-28829694D01*
X45036957Y-28828496D01*
X45479848Y-28734356D01*
X45922755Y-28640214D01*
X45927907Y-28639232D01*
X46820761Y-28488216D01*
X46825957Y-28487449D01*
X47284167Y-28429564D01*
X47724350Y-28373956D01*
X47729599Y-28373404D01*
X48398079Y-28317270D01*
X48631972Y-28297630D01*
X48637230Y-28297299D01*
X49541948Y-28259380D01*
X49547225Y-28259269D01*
X50452775Y-28259269D01*
X50458052Y-28259380D01*
G37*
%TD.AperFunction*%
%TD*%
M02*
