%TF.GenerationSoftware,KiCad,Pcbnew,6.0.7-f9a2dced07~116~ubuntu22.04.1*%
%TF.CreationDate,2022-09-29T21:23:46+02:00*%
%TF.ProjectId,led_buck_3a,6c65645f-6275-4636-9b5f-33612e6b6963,rev?*%
%TF.SameCoordinates,Original*%
%TF.FileFunction,Copper,L2,Bot*%
%TF.FilePolarity,Positive*%
%FSLAX46Y46*%
G04 Gerber Fmt 4.6, Leading zero omitted, Abs format (unit mm)*
G04 Created by KiCad (PCBNEW 6.0.7-f9a2dced07~116~ubuntu22.04.1) date 2022-09-29 21:23:46*
%MOMM*%
%LPD*%
G01*
G04 APERTURE LIST*
%TA.AperFunction,ComponentPad*%
%ADD10R,1.350000X1.350000*%
%TD*%
%TA.AperFunction,ComponentPad*%
%ADD11O,1.350000X1.350000*%
%TD*%
%TA.AperFunction,ComponentPad*%
%ADD12C,4.000000*%
%TD*%
%TA.AperFunction,ViaPad*%
%ADD13C,0.800000*%
%TD*%
%TA.AperFunction,ViaPad*%
%ADD14C,0.600000*%
%TD*%
%TA.AperFunction,Conductor*%
%ADD15C,0.500000*%
%TD*%
%TA.AperFunction,Conductor*%
%ADD16C,0.200000*%
%TD*%
G04 APERTURE END LIST*
D10*
%TO.P,J4,1,Pin_1*%
%TO.N,+5V*%
X53610000Y-66130000D03*
D11*
%TO.P,J4,2,Pin_2*%
%TO.N,Net-(J4-Pad2)*%
X51610000Y-66130000D03*
%TO.P,J4,3,Pin_3*%
%TO.N,GND*%
X49610000Y-66130000D03*
%TO.P,J4,4,Pin_4*%
%TO.N,/RXD*%
X47610000Y-66130000D03*
%TO.P,J4,5,Pin_5*%
%TO.N,/TXD*%
X45610000Y-66130000D03*
%TD*%
D12*
%TO.P,J1,1,Pin_1*%
%TO.N,Net-(C3-Pad2)*%
X60000000Y-50000000D03*
%TD*%
%TO.P,J2,1,Pin_1*%
%TO.N,Net-(C3-Pad1)*%
X40000000Y-50000000D03*
%TD*%
D13*
%TO.N,GND*%
X46300000Y-44700000D03*
X48300000Y-44700000D03*
X47300000Y-44700000D03*
D14*
X52249579Y-60158736D03*
X37877500Y-63327500D03*
D13*
X45200000Y-44700000D03*
D14*
X58040000Y-56120000D03*
D13*
X57900000Y-37800000D03*
D14*
X49670000Y-60050000D03*
D13*
X59200000Y-37800000D03*
D14*
X55914000Y-56096000D03*
X38007500Y-57300000D03*
D13*
X60600000Y-36400000D03*
X43200000Y-44700000D03*
X44200000Y-44700000D03*
X60600000Y-37800000D03*
D14*
%TO.N,VCC*%
X46520000Y-57310000D03*
X51990000Y-53030000D03*
D13*
%TO.N,Net-(C3-Pad1)*%
X54800000Y-45700000D03*
D14*
%TO.N,+5V*%
X60446483Y-58553517D03*
D13*
X57700002Y-32400000D03*
D14*
X44090000Y-64830000D03*
%TO.N,/PWM*%
X60800000Y-39300000D03*
X50430000Y-57320000D03*
D13*
%TO.N,Net-(Q1-Pad4)*%
X47499998Y-43200000D03*
X58600000Y-35300000D03*
%TD*%
D15*
%TO.N,VCC*%
X46520000Y-57310000D02*
X47710000Y-57310000D01*
X47710000Y-57310000D02*
X51990000Y-53030000D01*
%TO.N,Net-(C3-Pad1)*%
X44300000Y-45700000D02*
X40000000Y-50000000D01*
X54800000Y-45700000D02*
X44300000Y-45700000D01*
%TO.N,+5V*%
X57470000Y-66280000D02*
X53520000Y-66280000D01*
X60446483Y-58553517D02*
X60446483Y-63303517D01*
X63200000Y-52400000D02*
X63200000Y-37334313D01*
X53520000Y-66280000D02*
X53520000Y-67940000D01*
X63200000Y-37334313D02*
X58265687Y-32400000D01*
X44120000Y-64860000D02*
X44090000Y-64830000D01*
X60446483Y-63303517D02*
X57470000Y-66280000D01*
X58265687Y-32400000D02*
X57700002Y-32400000D01*
X60446483Y-58553517D02*
X60446483Y-55153517D01*
X60446483Y-55153517D02*
X63200000Y-52400000D01*
X44640000Y-68300000D02*
X44120000Y-67780000D01*
X53160000Y-68300000D02*
X44640000Y-68300000D01*
X53520000Y-67940000D02*
X53160000Y-68300000D01*
X44120000Y-67780000D02*
X44120000Y-64860000D01*
D16*
%TO.N,/PWM*%
X62600000Y-41100000D02*
X60800000Y-39300000D01*
X50430000Y-56050000D02*
X52790000Y-53690000D01*
X61000000Y-53690000D02*
X62600000Y-52090000D01*
X52790000Y-53690000D02*
X61000000Y-53690000D01*
X50430000Y-57320000D02*
X50430000Y-56050000D01*
X62600000Y-52090000D02*
X62600000Y-41100000D01*
D15*
%TO.N,Net-(Q1-Pad4)*%
X58600000Y-35300000D02*
X50700000Y-43200000D01*
X50700000Y-43200000D02*
X47499998Y-43200000D01*
%TD*%
%TA.AperFunction,Conductor*%
%TO.N,GND*%
G36*
X50458052Y-28259380D02*
G01*
X51362770Y-28297299D01*
X51368028Y-28297630D01*
X51601921Y-28317270D01*
X52270401Y-28373404D01*
X52275650Y-28373956D01*
X52715833Y-28429564D01*
X53174043Y-28487449D01*
X53179239Y-28488216D01*
X54072093Y-28639232D01*
X54077245Y-28640214D01*
X54520152Y-28734356D01*
X54963043Y-28828496D01*
X54968151Y-28829694D01*
X55845299Y-29054907D01*
X55850299Y-29056304D01*
X56116110Y-29136557D01*
X56717207Y-29318040D01*
X56722226Y-29319671D01*
X57181979Y-29479773D01*
X57577376Y-29617464D01*
X57582300Y-29619295D01*
X58187697Y-29858989D01*
X58424265Y-29952653D01*
X58429130Y-29954698D01*
X59256374Y-30323010D01*
X59261149Y-30325257D01*
X60072238Y-30727886D01*
X60076915Y-30730331D01*
X60870446Y-31166579D01*
X60875016Y-31169218D01*
X61394638Y-31483911D01*
X61649578Y-31638308D01*
X61654011Y-31641122D01*
X62337941Y-32095524D01*
X62408250Y-32142237D01*
X62412584Y-32145249D01*
X62980255Y-32557686D01*
X63145174Y-32677507D01*
X63149376Y-32680696D01*
X63580025Y-33022024D01*
X63859039Y-33243168D01*
X63863105Y-33246532D01*
X64548577Y-33838215D01*
X64552497Y-33841745D01*
X65212616Y-34461638D01*
X65216366Y-34465310D01*
X65849948Y-35112304D01*
X65853560Y-35116151D01*
X66459473Y-35789085D01*
X66462922Y-35793080D01*
X67040125Y-36490800D01*
X67043403Y-36494935D01*
X67590897Y-37216232D01*
X67593980Y-37220475D01*
X67914591Y-37681773D01*
X68110791Y-37964068D01*
X68113711Y-37968464D01*
X68598907Y-38733012D01*
X68601641Y-38737526D01*
X69054403Y-39521732D01*
X69056946Y-39526357D01*
X69476482Y-40328857D01*
X69478828Y-40333584D01*
X69864374Y-41152909D01*
X69866521Y-41157730D01*
X70138914Y-41805726D01*
X70217431Y-41992511D01*
X70219367Y-41997401D01*
X70465263Y-42658595D01*
X70535021Y-42846169D01*
X70536753Y-42851143D01*
X70551173Y-42895524D01*
X70816577Y-43712355D01*
X70818102Y-43717407D01*
X71061612Y-44589561D01*
X71062925Y-44594673D01*
X71269707Y-45476291D01*
X71270804Y-45481453D01*
X71440483Y-46370942D01*
X71441363Y-46376146D01*
X71573642Y-47271940D01*
X71574304Y-47277175D01*
X71667095Y-48160015D01*
X71668961Y-48177773D01*
X71669401Y-48183016D01*
X71695924Y-48604579D01*
X71726260Y-49086759D01*
X71726481Y-49092032D01*
X71733251Y-49415241D01*
X71744617Y-49957814D01*
X71745445Y-49997361D01*
X71745445Y-50002626D01*
X71735963Y-50455303D01*
X71726481Y-50907968D01*
X71726260Y-50913241D01*
X71712428Y-51133101D01*
X71670155Y-51805007D01*
X71669402Y-51816968D01*
X71668962Y-51822212D01*
X71625135Y-52239204D01*
X71574304Y-52722825D01*
X71573642Y-52728060D01*
X71441363Y-53623854D01*
X71440483Y-53629058D01*
X71270804Y-54518547D01*
X71269707Y-54523709D01*
X71062925Y-55405327D01*
X71061612Y-55410439D01*
X70818102Y-56282593D01*
X70816577Y-56287645D01*
X70536756Y-57148847D01*
X70535024Y-57153821D01*
X70265228Y-57879285D01*
X70219374Y-58002582D01*
X70217438Y-58007472D01*
X70075276Y-58345662D01*
X69866521Y-58842270D01*
X69864374Y-58847091D01*
X69478828Y-59666416D01*
X69476482Y-59671143D01*
X69056946Y-60473643D01*
X69054403Y-60478268D01*
X68601641Y-61262474D01*
X68598907Y-61266988D01*
X68113711Y-62031536D01*
X68110801Y-62035917D01*
X67593981Y-62779523D01*
X67590897Y-62783768D01*
X67058169Y-63485612D01*
X67043403Y-63505065D01*
X67040125Y-63509200D01*
X66462922Y-64206920D01*
X66459473Y-64210915D01*
X65853560Y-64883849D01*
X65849948Y-64887696D01*
X65216366Y-65534690D01*
X65212616Y-65538362D01*
X64789514Y-65935682D01*
X64552499Y-66158254D01*
X64548579Y-66161784D01*
X63871792Y-66745970D01*
X63863105Y-66753468D01*
X63859042Y-66756830D01*
X63526689Y-67020249D01*
X63149378Y-67319302D01*
X63145174Y-67322493D01*
X62412584Y-67854751D01*
X62408250Y-67857763D01*
X61654011Y-68358878D01*
X61649578Y-68361692D01*
X61394638Y-68516089D01*
X60875016Y-68830782D01*
X60870446Y-68833421D01*
X60076915Y-69269669D01*
X60072238Y-69272114D01*
X59261149Y-69674743D01*
X59256374Y-69676990D01*
X58429130Y-70045302D01*
X58424265Y-70047347D01*
X57582300Y-70380705D01*
X57577376Y-70382536D01*
X57254366Y-70495019D01*
X56722226Y-70680329D01*
X56717207Y-70681960D01*
X56283763Y-70812825D01*
X55850299Y-70943696D01*
X55845299Y-70945093D01*
X54968151Y-71170306D01*
X54963043Y-71171504D01*
X54520152Y-71265643D01*
X54077245Y-71359786D01*
X54072093Y-71360768D01*
X53179239Y-71511784D01*
X53174043Y-71512551D01*
X52715833Y-71570436D01*
X52275650Y-71626044D01*
X52270401Y-71626596D01*
X51736916Y-71671394D01*
X51368028Y-71702370D01*
X51362770Y-71702701D01*
X50576436Y-71735658D01*
X50458051Y-71740620D01*
X50452775Y-71740731D01*
X49547225Y-71740731D01*
X49541949Y-71740620D01*
X49423564Y-71735658D01*
X48637230Y-71702701D01*
X48631972Y-71702370D01*
X48263084Y-71671394D01*
X47729599Y-71626596D01*
X47724350Y-71626044D01*
X47284167Y-71570436D01*
X46825957Y-71512551D01*
X46820761Y-71511784D01*
X45927907Y-71360768D01*
X45922755Y-71359786D01*
X45479848Y-71265643D01*
X45036957Y-71171504D01*
X45031849Y-71170306D01*
X44154701Y-70945093D01*
X44149701Y-70943696D01*
X43716238Y-70812826D01*
X43282793Y-70681960D01*
X43277774Y-70680329D01*
X42745634Y-70495019D01*
X42422624Y-70382536D01*
X42417700Y-70380705D01*
X41575735Y-70047347D01*
X41570870Y-70045302D01*
X40743626Y-69676990D01*
X40738851Y-69674743D01*
X39927762Y-69272114D01*
X39923085Y-69269669D01*
X39129554Y-68833421D01*
X39124984Y-68830782D01*
X38605362Y-68516089D01*
X38350422Y-68361692D01*
X38345989Y-68358878D01*
X37591750Y-67857763D01*
X37587416Y-67854751D01*
X36854826Y-67322493D01*
X36850622Y-67319302D01*
X36473311Y-67020249D01*
X36140958Y-66756830D01*
X36136895Y-66753468D01*
X36128209Y-66745970D01*
X35451421Y-66161784D01*
X35447501Y-66158254D01*
X35210486Y-65935682D01*
X34787384Y-65538362D01*
X34783634Y-65534690D01*
X34150052Y-64887696D01*
X34146440Y-64883849D01*
X34097954Y-64830000D01*
X43530715Y-64830000D01*
X43531793Y-64838188D01*
X43548694Y-64966563D01*
X43549772Y-64974754D01*
X43552931Y-64982380D01*
X43605645Y-65109642D01*
X43602770Y-65110833D01*
X43615500Y-65158318D01*
X43615500Y-67709376D01*
X43614159Y-67721381D01*
X43614655Y-67721421D01*
X43613935Y-67730368D01*
X43611954Y-67739124D01*
X43612510Y-67748084D01*
X43615258Y-67792382D01*
X43615500Y-67800184D01*
X43615500Y-67816226D01*
X43616135Y-67820657D01*
X43616135Y-67820662D01*
X43616965Y-67826453D01*
X43617996Y-67836514D01*
X43619314Y-67857763D01*
X43620276Y-67873262D01*
X43620902Y-67883359D01*
X43623949Y-67891799D01*
X43624630Y-67895089D01*
X43628582Y-67910938D01*
X43629527Y-67914168D01*
X43630799Y-67923052D01*
X43634514Y-67931223D01*
X43650218Y-67965763D01*
X43654030Y-67975128D01*
X43666922Y-68010837D01*
X43666924Y-68010840D01*
X43669972Y-68019284D01*
X43675268Y-68026533D01*
X43676840Y-68029490D01*
X43685093Y-68043614D01*
X43686898Y-68046437D01*
X43690612Y-68054605D01*
X43696469Y-68061402D01*
X43696470Y-68061404D01*
X43721243Y-68090153D01*
X43727525Y-68098064D01*
X43735473Y-68108944D01*
X43746335Y-68119806D01*
X43752693Y-68126652D01*
X43784944Y-68164082D01*
X43792479Y-68168966D01*
X43799051Y-68174699D01*
X43810455Y-68183926D01*
X44233323Y-68606794D01*
X44240865Y-68616234D01*
X44241245Y-68615911D01*
X44247063Y-68622747D01*
X44251853Y-68630339D01*
X44258581Y-68636281D01*
X44291859Y-68665671D01*
X44297546Y-68671017D01*
X44308880Y-68682351D01*
X44312463Y-68685036D01*
X44312465Y-68685038D01*
X44317155Y-68688553D01*
X44324998Y-68694938D01*
X44360170Y-68726001D01*
X44368292Y-68729814D01*
X44371093Y-68731654D01*
X44385088Y-68740063D01*
X44388051Y-68741685D01*
X44395236Y-68747070D01*
X44403646Y-68750223D01*
X44403648Y-68750224D01*
X44439182Y-68763546D01*
X44448495Y-68767470D01*
X44490982Y-68787417D01*
X44499856Y-68788799D01*
X44503083Y-68789785D01*
X44518866Y-68793925D01*
X44522144Y-68794646D01*
X44530552Y-68797798D01*
X44544309Y-68798820D01*
X44577357Y-68801276D01*
X44587404Y-68802430D01*
X44595886Y-68803751D01*
X44595889Y-68803751D01*
X44600697Y-68804500D01*
X44616062Y-68804500D01*
X44625400Y-68804846D01*
X44674667Y-68808507D01*
X44683442Y-68806634D01*
X44692138Y-68806041D01*
X44706738Y-68804500D01*
X53089376Y-68804500D01*
X53101381Y-68805841D01*
X53101421Y-68805345D01*
X53110368Y-68806065D01*
X53119124Y-68808046D01*
X53172382Y-68804742D01*
X53180184Y-68804500D01*
X53196226Y-68804500D01*
X53200657Y-68803865D01*
X53200662Y-68803865D01*
X53204687Y-68803288D01*
X53206457Y-68803035D01*
X53216514Y-68802004D01*
X53238976Y-68800611D01*
X53254400Y-68799654D01*
X53254402Y-68799654D01*
X53263359Y-68799098D01*
X53271799Y-68796051D01*
X53275089Y-68795370D01*
X53290938Y-68791418D01*
X53294168Y-68790473D01*
X53303052Y-68789201D01*
X53345763Y-68769782D01*
X53355128Y-68765970D01*
X53390837Y-68753078D01*
X53390840Y-68753076D01*
X53399284Y-68750028D01*
X53406533Y-68744732D01*
X53409490Y-68743160D01*
X53423614Y-68734907D01*
X53426437Y-68733102D01*
X53434605Y-68729388D01*
X53441402Y-68723531D01*
X53441404Y-68723530D01*
X53470153Y-68698757D01*
X53478064Y-68692475D01*
X53488944Y-68684527D01*
X53499806Y-68673665D01*
X53506653Y-68667307D01*
X53537282Y-68640915D01*
X53544082Y-68635056D01*
X53548966Y-68627521D01*
X53554699Y-68620949D01*
X53563926Y-68609545D01*
X53826794Y-68346677D01*
X53836234Y-68339135D01*
X53835911Y-68338755D01*
X53842747Y-68332937D01*
X53850339Y-68328147D01*
X53885672Y-68288140D01*
X53891017Y-68282454D01*
X53902351Y-68271120D01*
X53908553Y-68262845D01*
X53914940Y-68255000D01*
X53940060Y-68226557D01*
X53946001Y-68219830D01*
X53949814Y-68211708D01*
X53951654Y-68208907D01*
X53960063Y-68194912D01*
X53961685Y-68191949D01*
X53967070Y-68184764D01*
X53970224Y-68176352D01*
X53983546Y-68140818D01*
X53987471Y-68131502D01*
X53998062Y-68108944D01*
X54007417Y-68089018D01*
X54008799Y-68080144D01*
X54009785Y-68076917D01*
X54013925Y-68061134D01*
X54014646Y-68057856D01*
X54017798Y-68049448D01*
X54021276Y-68002643D01*
X54022430Y-67992596D01*
X54023751Y-67984114D01*
X54023751Y-67984111D01*
X54024500Y-67979303D01*
X54024500Y-67963938D01*
X54024846Y-67954601D01*
X54027842Y-67914281D01*
X54028507Y-67905333D01*
X54026634Y-67896558D01*
X54026041Y-67887862D01*
X54024500Y-67873262D01*
X54024500Y-67185499D01*
X54044502Y-67117378D01*
X54098158Y-67070885D01*
X54150500Y-67059499D01*
X54310066Y-67059499D01*
X54345818Y-67052388D01*
X54372126Y-67047156D01*
X54372128Y-67047155D01*
X54384301Y-67044734D01*
X54394621Y-67037839D01*
X54394622Y-67037838D01*
X54458168Y-66995377D01*
X54468484Y-66988484D01*
X54524734Y-66904301D01*
X54527155Y-66892131D01*
X54527156Y-66892128D01*
X54528390Y-66885921D01*
X54561296Y-66823011D01*
X54622990Y-66787878D01*
X54651969Y-66784500D01*
X57399376Y-66784500D01*
X57411381Y-66785841D01*
X57411421Y-66785345D01*
X57420368Y-66786065D01*
X57429124Y-66788046D01*
X57482382Y-66784742D01*
X57490184Y-66784500D01*
X57506226Y-66784500D01*
X57510657Y-66783865D01*
X57510662Y-66783865D01*
X57514687Y-66783288D01*
X57516457Y-66783035D01*
X57526514Y-66782004D01*
X57548976Y-66780611D01*
X57564400Y-66779654D01*
X57564402Y-66779654D01*
X57573359Y-66779098D01*
X57581799Y-66776051D01*
X57585089Y-66775370D01*
X57600938Y-66771418D01*
X57604168Y-66770473D01*
X57613052Y-66769201D01*
X57647656Y-66753468D01*
X57655763Y-66749782D01*
X57665128Y-66745970D01*
X57700837Y-66733078D01*
X57700840Y-66733076D01*
X57709284Y-66730028D01*
X57716533Y-66724732D01*
X57719490Y-66723160D01*
X57733614Y-66714907D01*
X57736437Y-66713102D01*
X57744605Y-66709388D01*
X57751402Y-66703531D01*
X57751404Y-66703530D01*
X57773762Y-66684264D01*
X57780158Y-66678753D01*
X57788064Y-66672475D01*
X57798944Y-66664527D01*
X57809806Y-66653665D01*
X57816653Y-66647307D01*
X57830187Y-66635645D01*
X57854082Y-66615056D01*
X57858966Y-66607521D01*
X57864699Y-66600949D01*
X57873926Y-66589545D01*
X60753275Y-63710195D01*
X60762718Y-63702650D01*
X60762395Y-63702271D01*
X60769228Y-63696455D01*
X60776822Y-63691664D01*
X60782766Y-63684934D01*
X60782768Y-63684932D01*
X60812161Y-63651651D01*
X60817507Y-63645963D01*
X60828834Y-63634636D01*
X60835033Y-63626365D01*
X60841420Y-63618520D01*
X60866540Y-63590077D01*
X60872484Y-63583347D01*
X60876299Y-63575220D01*
X60878152Y-63572400D01*
X60886561Y-63558404D01*
X60888171Y-63555463D01*
X60893554Y-63548281D01*
X60910027Y-63504339D01*
X60913954Y-63495018D01*
X60930085Y-63460661D01*
X60930085Y-63460660D01*
X60933900Y-63452535D01*
X60935281Y-63443664D01*
X60936266Y-63440442D01*
X60940406Y-63424659D01*
X60941128Y-63421375D01*
X60944281Y-63412965D01*
X60947759Y-63366160D01*
X60948913Y-63356112D01*
X60950234Y-63347631D01*
X60950234Y-63347630D01*
X60950983Y-63342820D01*
X60950983Y-63327451D01*
X60951330Y-63318113D01*
X60954326Y-63277801D01*
X60954326Y-63277800D01*
X60954991Y-63268850D01*
X60953118Y-63260075D01*
X60952526Y-63251391D01*
X60950983Y-63236775D01*
X60950983Y-58809590D01*
X60960574Y-58761372D01*
X60983551Y-58705900D01*
X60986711Y-58698271D01*
X61005768Y-58553517D01*
X60986711Y-58408763D01*
X60983551Y-58401134D01*
X60960574Y-58345662D01*
X60950983Y-58297444D01*
X60950983Y-55414678D01*
X60970985Y-55346557D01*
X60987888Y-55325583D01*
X63506794Y-52806677D01*
X63516234Y-52799135D01*
X63515911Y-52798755D01*
X63522747Y-52792937D01*
X63530339Y-52788147D01*
X63565672Y-52748140D01*
X63571017Y-52742454D01*
X63582351Y-52731120D01*
X63585038Y-52727535D01*
X63588553Y-52722845D01*
X63594940Y-52715000D01*
X63620060Y-52686557D01*
X63626001Y-52679830D01*
X63629814Y-52671708D01*
X63631654Y-52668907D01*
X63640063Y-52654912D01*
X63641685Y-52651949D01*
X63647070Y-52644764D01*
X63650224Y-52636352D01*
X63663546Y-52600818D01*
X63667471Y-52591502D01*
X63683601Y-52557145D01*
X63687417Y-52549018D01*
X63688799Y-52540144D01*
X63689785Y-52536917D01*
X63693925Y-52521134D01*
X63694646Y-52517856D01*
X63697798Y-52509448D01*
X63701276Y-52462643D01*
X63702430Y-52452596D01*
X63703751Y-52444114D01*
X63703751Y-52444111D01*
X63704500Y-52439303D01*
X63704500Y-52423938D01*
X63704846Y-52414601D01*
X63707842Y-52374281D01*
X63708507Y-52365333D01*
X63706634Y-52356558D01*
X63706041Y-52347862D01*
X63704500Y-52333262D01*
X63704500Y-50042186D01*
X66141018Y-50042186D01*
X66166579Y-50310100D01*
X66230547Y-50571518D01*
X66331583Y-50820963D01*
X66422555Y-50976331D01*
X66453148Y-51028580D01*
X66467569Y-51053210D01*
X66635658Y-51263395D01*
X66832327Y-51447113D01*
X66985192Y-51553159D01*
X67049244Y-51597593D01*
X67053457Y-51600516D01*
X67294416Y-51720391D01*
X67298750Y-51721812D01*
X67298753Y-51721813D01*
X67545823Y-51802807D01*
X67545829Y-51802808D01*
X67550156Y-51804227D01*
X67554647Y-51805007D01*
X67554648Y-51805007D01*
X67811538Y-51849611D01*
X67811546Y-51849612D01*
X67815319Y-51850267D01*
X67819156Y-51850458D01*
X67898777Y-51854422D01*
X67898785Y-51854422D01*
X67900348Y-51854500D01*
X68068374Y-51854500D01*
X68070642Y-51854335D01*
X68070654Y-51854335D01*
X68201457Y-51844844D01*
X68268425Y-51839985D01*
X68272880Y-51839001D01*
X68272883Y-51839001D01*
X68526770Y-51782947D01*
X68526772Y-51782946D01*
X68531226Y-51781963D01*
X68782900Y-51686613D01*
X69018172Y-51555931D01*
X69164842Y-51443996D01*
X69228491Y-51395421D01*
X69228495Y-51395417D01*
X69232116Y-51392654D01*
X69245950Y-51378503D01*
X69417063Y-51203462D01*
X69420249Y-51200203D01*
X69474286Y-51125964D01*
X69575942Y-50986304D01*
X69575947Y-50986297D01*
X69578630Y-50982610D01*
X69703941Y-50744433D01*
X69793557Y-50490662D01*
X69818688Y-50363156D01*
X69844720Y-50231083D01*
X69844721Y-50231077D01*
X69845601Y-50226611D01*
X69854782Y-50042186D01*
X69858755Y-49962383D01*
X69858755Y-49962377D01*
X69858982Y-49957814D01*
X69833421Y-49689900D01*
X69769453Y-49428482D01*
X69668417Y-49179037D01*
X69554109Y-48983813D01*
X69534741Y-48950735D01*
X69534740Y-48950734D01*
X69532431Y-48946790D01*
X69364342Y-48736605D01*
X69167673Y-48552887D01*
X68955221Y-48405504D01*
X68950291Y-48402084D01*
X68950290Y-48402084D01*
X68946543Y-48399484D01*
X68705584Y-48279609D01*
X68701250Y-48278188D01*
X68701247Y-48278187D01*
X68454177Y-48197193D01*
X68454171Y-48197192D01*
X68449844Y-48195773D01*
X68445352Y-48194993D01*
X68188462Y-48150389D01*
X68188454Y-48150388D01*
X68184681Y-48149733D01*
X68174718Y-48149237D01*
X68101223Y-48145578D01*
X68101215Y-48145578D01*
X68099652Y-48145500D01*
X67931626Y-48145500D01*
X67929358Y-48145665D01*
X67929346Y-48145665D01*
X67798543Y-48155156D01*
X67731575Y-48160015D01*
X67727120Y-48160999D01*
X67727117Y-48160999D01*
X67473230Y-48217053D01*
X67473228Y-48217054D01*
X67468774Y-48218037D01*
X67217100Y-48313387D01*
X66981828Y-48444069D01*
X66978196Y-48446841D01*
X66771509Y-48604579D01*
X66771505Y-48604583D01*
X66767884Y-48607346D01*
X66764699Y-48610604D01*
X66764698Y-48610605D01*
X66751014Y-48624603D01*
X66579751Y-48799797D01*
X66553851Y-48835379D01*
X66424058Y-49013696D01*
X66424053Y-49013703D01*
X66421370Y-49017390D01*
X66296059Y-49255567D01*
X66206443Y-49509338D01*
X66205560Y-49513820D01*
X66170855Y-49689900D01*
X66154399Y-49773389D01*
X66154172Y-49777942D01*
X66154172Y-49777945D01*
X66142987Y-50002639D01*
X66141018Y-50042186D01*
X63704500Y-50042186D01*
X63704500Y-37404937D01*
X63705841Y-37392932D01*
X63705345Y-37392892D01*
X63706065Y-37383945D01*
X63708046Y-37375189D01*
X63704742Y-37321931D01*
X63704500Y-37314129D01*
X63704500Y-37298087D01*
X63703035Y-37287856D01*
X63702003Y-37277790D01*
X63699654Y-37239913D01*
X63699654Y-37239911D01*
X63699098Y-37230954D01*
X63696051Y-37222514D01*
X63695370Y-37219224D01*
X63691418Y-37203375D01*
X63690473Y-37200145D01*
X63689201Y-37191261D01*
X63669774Y-37148531D01*
X63665964Y-37139173D01*
X63653075Y-37103471D01*
X63653074Y-37103470D01*
X63650027Y-37095029D01*
X63644731Y-37087780D01*
X63643146Y-37084799D01*
X63634920Y-37070721D01*
X63633104Y-37067882D01*
X63629388Y-37059708D01*
X63598757Y-37024159D01*
X63592465Y-37016236D01*
X63584527Y-37005369D01*
X63573665Y-36994507D01*
X63567307Y-36987660D01*
X63540915Y-36957031D01*
X63535056Y-36950231D01*
X63527521Y-36945347D01*
X63520949Y-36939614D01*
X63509545Y-36930387D01*
X58672364Y-32093206D01*
X58664822Y-32083766D01*
X58664442Y-32084089D01*
X58658624Y-32077253D01*
X58653834Y-32069661D01*
X58613827Y-32034328D01*
X58608141Y-32028983D01*
X58596807Y-32017649D01*
X58588532Y-32011447D01*
X58580687Y-32005060D01*
X58552244Y-31979940D01*
X58545517Y-31973999D01*
X58537395Y-31970186D01*
X58534594Y-31968346D01*
X58520599Y-31959937D01*
X58517636Y-31958315D01*
X58510451Y-31952930D01*
X58502041Y-31949777D01*
X58502039Y-31949776D01*
X58466505Y-31936454D01*
X58457189Y-31932529D01*
X58414705Y-31912583D01*
X58405831Y-31911201D01*
X58402604Y-31910215D01*
X58386821Y-31906075D01*
X58383543Y-31905354D01*
X58375135Y-31902202D01*
X58361378Y-31901180D01*
X58328330Y-31898724D01*
X58318283Y-31897570D01*
X58309801Y-31896249D01*
X58309798Y-31896249D01*
X58304990Y-31895500D01*
X58289625Y-31895500D01*
X58280288Y-31895154D01*
X58264206Y-31893959D01*
X58231020Y-31891493D01*
X58222245Y-31893366D01*
X58213549Y-31893959D01*
X58198949Y-31895500D01*
X58165669Y-31895500D01*
X58097548Y-31875498D01*
X58082145Y-31863802D01*
X58081956Y-31863670D01*
X58076277Y-31858611D01*
X57936276Y-31784484D01*
X57782635Y-31745892D01*
X57775036Y-31745852D01*
X57775035Y-31745852D01*
X57709183Y-31745507D01*
X57624223Y-31745062D01*
X57616843Y-31746834D01*
X57616841Y-31746834D01*
X57477565Y-31780271D01*
X57477562Y-31780272D01*
X57470186Y-31782043D01*
X57329416Y-31854700D01*
X57210041Y-31958838D01*
X57118952Y-32088444D01*
X57061408Y-32236037D01*
X57040731Y-32393096D01*
X57058115Y-32550553D01*
X57060725Y-32557684D01*
X57060725Y-32557686D01*
X57105741Y-32680698D01*
X57112555Y-32699319D01*
X57200910Y-32830805D01*
X57318078Y-32937419D01*
X57457295Y-33013008D01*
X57610524Y-33053207D01*
X57694479Y-33054526D01*
X57761321Y-33055576D01*
X57761324Y-33055576D01*
X57768918Y-33055695D01*
X57923334Y-33020329D01*
X58007817Y-32977839D01*
X58077660Y-32965101D01*
X58143304Y-32992145D01*
X58153525Y-33001309D01*
X62658595Y-37506379D01*
X62692621Y-37568691D01*
X62695500Y-37595474D01*
X62695500Y-40389972D01*
X62675498Y-40458093D01*
X62621842Y-40504586D01*
X62551568Y-40514690D01*
X62486988Y-40485196D01*
X62480405Y-40479067D01*
X61395112Y-39393774D01*
X61361086Y-39331462D01*
X61358415Y-39306611D01*
X61359285Y-39300000D01*
X61340228Y-39155246D01*
X61284355Y-39020358D01*
X61195474Y-38904526D01*
X61188924Y-38899500D01*
X61188921Y-38899497D01*
X61086196Y-38820673D01*
X61086194Y-38820672D01*
X61079643Y-38815645D01*
X60944754Y-38759772D01*
X60800000Y-38740715D01*
X60791812Y-38741793D01*
X60663432Y-38758694D01*
X60663430Y-38758695D01*
X60655246Y-38759772D01*
X60607430Y-38779578D01*
X60527986Y-38812485D01*
X60527984Y-38812486D01*
X60520358Y-38815645D01*
X60404526Y-38904526D01*
X60315645Y-39020358D01*
X60259772Y-39155246D01*
X60240715Y-39300000D01*
X60259772Y-39444754D01*
X60315645Y-39579642D01*
X60404526Y-39695474D01*
X60411076Y-39700500D01*
X60411079Y-39700503D01*
X60513804Y-39779327D01*
X60520357Y-39784355D01*
X60655246Y-39840228D01*
X60800000Y-39859285D01*
X60805765Y-39858526D01*
X60872799Y-39878209D01*
X60893773Y-39895112D01*
X62208595Y-41209934D01*
X62242621Y-41272246D01*
X62245500Y-41299029D01*
X62245500Y-48915692D01*
X62225498Y-48983813D01*
X62171842Y-49030306D01*
X62101568Y-49040410D01*
X62036988Y-49010916D01*
X62006494Y-48971420D01*
X61958470Y-48874036D01*
X61958467Y-48874031D01*
X61956643Y-48870332D01*
X61792453Y-48624603D01*
X61597593Y-48402407D01*
X61375397Y-48207547D01*
X61129669Y-48043357D01*
X61125970Y-48041533D01*
X61125965Y-48041530D01*
X60989991Y-47974475D01*
X60864611Y-47912645D01*
X60860705Y-47911319D01*
X60588666Y-47818974D01*
X60588663Y-47818973D01*
X60584759Y-47817648D01*
X60580720Y-47816845D01*
X60580714Y-47816843D01*
X60298946Y-47760796D01*
X60298943Y-47760796D01*
X60294903Y-47759992D01*
X60290792Y-47759723D01*
X60290788Y-47759722D01*
X60004119Y-47740933D01*
X60000000Y-47740663D01*
X59995881Y-47740933D01*
X59709212Y-47759722D01*
X59709208Y-47759723D01*
X59705097Y-47759992D01*
X59701057Y-47760796D01*
X59701054Y-47760796D01*
X59419286Y-47816843D01*
X59419280Y-47816845D01*
X59415241Y-47817648D01*
X59411337Y-47818973D01*
X59411334Y-47818974D01*
X59139295Y-47911319D01*
X59135389Y-47912645D01*
X59010143Y-47974410D01*
X58874036Y-48041530D01*
X58874031Y-48041533D01*
X58870332Y-48043357D01*
X58624603Y-48207547D01*
X58402407Y-48402407D01*
X58207547Y-48624603D01*
X58043357Y-48870332D01*
X58041533Y-48874031D01*
X58041530Y-48874036D01*
X57993506Y-48971420D01*
X57912645Y-49135389D01*
X57911320Y-49139294D01*
X57911319Y-49139295D01*
X57896393Y-49183267D01*
X57817648Y-49415241D01*
X57816845Y-49419280D01*
X57816843Y-49419286D01*
X57798931Y-49509338D01*
X57759992Y-49705097D01*
X57740663Y-50000000D01*
X57759992Y-50294903D01*
X57760796Y-50298943D01*
X57760796Y-50298946D01*
X57815856Y-50575749D01*
X57817648Y-50584759D01*
X57818973Y-50588663D01*
X57818974Y-50588666D01*
X57897828Y-50820963D01*
X57912645Y-50864611D01*
X57935328Y-50910607D01*
X58003707Y-51049265D01*
X58043357Y-51129668D01*
X58207547Y-51375397D01*
X58402407Y-51597593D01*
X58624603Y-51792453D01*
X58870331Y-51956643D01*
X58874030Y-51958467D01*
X58874035Y-51958470D01*
X58917828Y-51980066D01*
X59135389Y-52087355D01*
X59139294Y-52088680D01*
X59139295Y-52088681D01*
X59411334Y-52181026D01*
X59411337Y-52181027D01*
X59415241Y-52182352D01*
X59419280Y-52183155D01*
X59419286Y-52183157D01*
X59701054Y-52239204D01*
X59701057Y-52239204D01*
X59705097Y-52240008D01*
X59709208Y-52240277D01*
X59709212Y-52240278D01*
X59995881Y-52259067D01*
X60000000Y-52259337D01*
X60004119Y-52259067D01*
X60290788Y-52240278D01*
X60290792Y-52240277D01*
X60294903Y-52240008D01*
X60298943Y-52239204D01*
X60298946Y-52239204D01*
X60580714Y-52183157D01*
X60580720Y-52183155D01*
X60584759Y-52182352D01*
X60588663Y-52181027D01*
X60588666Y-52181026D01*
X60860705Y-52088681D01*
X60860706Y-52088680D01*
X60864611Y-52087355D01*
X61082172Y-51980066D01*
X61125965Y-51958470D01*
X61125970Y-51958467D01*
X61129669Y-51956643D01*
X61375397Y-51792453D01*
X61597593Y-51597593D01*
X61792453Y-51375397D01*
X61956643Y-51129668D01*
X62006494Y-51028579D01*
X62054562Y-50976331D01*
X62123248Y-50958364D01*
X62190743Y-50980383D01*
X62235620Y-51035398D01*
X62245500Y-51084308D01*
X62245500Y-51890971D01*
X62225498Y-51959092D01*
X62208595Y-51980066D01*
X60890067Y-53298595D01*
X60827755Y-53332620D01*
X60800972Y-53335500D01*
X52841257Y-53335500D01*
X52821463Y-53333394D01*
X52817110Y-53333189D01*
X52806930Y-53330997D01*
X52776260Y-53334627D01*
X52770917Y-53334942D01*
X52770928Y-53335072D01*
X52765748Y-53335500D01*
X52760549Y-53335500D01*
X52755425Y-53336353D01*
X52755412Y-53336354D01*
X52742959Y-53338427D01*
X52737084Y-53339264D01*
X52700071Y-53343645D01*
X52689730Y-53344869D01*
X52683175Y-53348016D01*
X52677256Y-53349363D01*
X52673583Y-53349975D01*
X52673566Y-53349978D01*
X52673297Y-53348359D01*
X52614180Y-53350977D01*
X52552814Y-53315274D01*
X52520492Y-53252061D01*
X52526807Y-53190867D01*
X52524930Y-53190364D01*
X52527069Y-53182379D01*
X52530228Y-53174754D01*
X52549285Y-53030000D01*
X52530228Y-52885246D01*
X52494402Y-52798755D01*
X52477515Y-52757986D01*
X52477514Y-52757984D01*
X52474355Y-52750358D01*
X52420237Y-52679830D01*
X52390501Y-52641077D01*
X52390500Y-52641076D01*
X52385474Y-52634526D01*
X52378924Y-52629500D01*
X52378921Y-52629497D01*
X52276196Y-52550673D01*
X52276194Y-52550672D01*
X52269643Y-52545645D01*
X52134754Y-52489772D01*
X51990000Y-52470715D01*
X51981812Y-52471793D01*
X51853432Y-52488694D01*
X51853430Y-52488695D01*
X51845246Y-52489772D01*
X51819354Y-52500497D01*
X51717986Y-52542485D01*
X51717984Y-52542486D01*
X51710358Y-52545645D01*
X51594526Y-52634526D01*
X51505645Y-52750358D01*
X51502486Y-52757984D01*
X51502485Y-52757986D01*
X51479507Y-52813460D01*
X51452193Y-52854336D01*
X47537934Y-56768595D01*
X47475622Y-56802621D01*
X47448839Y-56805500D01*
X46776072Y-56805500D01*
X46727854Y-56795909D01*
X46672383Y-56772932D01*
X46664754Y-56769772D01*
X46520000Y-56750715D01*
X46511812Y-56751793D01*
X46383432Y-56768694D01*
X46383430Y-56768695D01*
X46375246Y-56769772D01*
X46327430Y-56789578D01*
X46247986Y-56822485D01*
X46247984Y-56822486D01*
X46240358Y-56825645D01*
X46124526Y-56914526D01*
X46035645Y-57030358D01*
X46032486Y-57037984D01*
X46032485Y-57037986D01*
X46028343Y-57047986D01*
X45979772Y-57165246D01*
X45960715Y-57310000D01*
X45979772Y-57454754D01*
X46035645Y-57589642D01*
X46124526Y-57705474D01*
X46131076Y-57710500D01*
X46131079Y-57710503D01*
X46199596Y-57763078D01*
X46240357Y-57794355D01*
X46375246Y-57850228D01*
X46383434Y-57851306D01*
X46447623Y-57859757D01*
X46520000Y-57869285D01*
X46528188Y-57868207D01*
X46656566Y-57851306D01*
X46664754Y-57850228D01*
X46727855Y-57824091D01*
X46776072Y-57814500D01*
X47639376Y-57814500D01*
X47651381Y-57815841D01*
X47651421Y-57815345D01*
X47660368Y-57816065D01*
X47669124Y-57818046D01*
X47722382Y-57814742D01*
X47730184Y-57814500D01*
X47746226Y-57814500D01*
X47750657Y-57813865D01*
X47750662Y-57813865D01*
X47754687Y-57813288D01*
X47756457Y-57813035D01*
X47766514Y-57812004D01*
X47788976Y-57810611D01*
X47804400Y-57809654D01*
X47804402Y-57809654D01*
X47813359Y-57809098D01*
X47821799Y-57806051D01*
X47825089Y-57805370D01*
X47840938Y-57801418D01*
X47844168Y-57800473D01*
X47853052Y-57799201D01*
X47861223Y-57795486D01*
X47895763Y-57779782D01*
X47905128Y-57775970D01*
X47940837Y-57763078D01*
X47940840Y-57763076D01*
X47949284Y-57760028D01*
X47956533Y-57754732D01*
X47959490Y-57753160D01*
X47973614Y-57744907D01*
X47976437Y-57743102D01*
X47984605Y-57739388D01*
X47991402Y-57733531D01*
X47991404Y-57733530D01*
X48018127Y-57710503D01*
X48020158Y-57708753D01*
X48028064Y-57702475D01*
X48038944Y-57694527D01*
X48049806Y-57683665D01*
X48056653Y-57677307D01*
X48087282Y-57650915D01*
X48094082Y-57645056D01*
X48098966Y-57637521D01*
X48104699Y-57630949D01*
X48113926Y-57619545D01*
X49865741Y-55867730D01*
X49928053Y-55833704D01*
X49998868Y-55838769D01*
X50055704Y-55881316D01*
X50080515Y-55947836D01*
X50078102Y-55982080D01*
X50075950Y-55988208D01*
X50075500Y-55993404D01*
X50075500Y-55996109D01*
X50075403Y-55998365D01*
X50075260Y-55998841D01*
X50075214Y-55998839D01*
X50075201Y-55999038D01*
X50073432Y-56004955D01*
X50073841Y-56015359D01*
X50075403Y-56055124D01*
X50075500Y-56060070D01*
X50075500Y-56832886D01*
X50055498Y-56901007D01*
X50039813Y-56920470D01*
X50034526Y-56924526D01*
X49945645Y-57040358D01*
X49889772Y-57175246D01*
X49870715Y-57320000D01*
X49889772Y-57464754D01*
X49892931Y-57472380D01*
X49941503Y-57589642D01*
X49945645Y-57599642D01*
X49950672Y-57606193D01*
X50015809Y-57691081D01*
X50034526Y-57715474D01*
X50041076Y-57720500D01*
X50041079Y-57720503D01*
X50141443Y-57797515D01*
X50150357Y-57804355D01*
X50285246Y-57860228D01*
X50430000Y-57879285D01*
X50438188Y-57878207D01*
X50566566Y-57861306D01*
X50574754Y-57860228D01*
X50709643Y-57804355D01*
X50718557Y-57797515D01*
X50818921Y-57720503D01*
X50818924Y-57720500D01*
X50825474Y-57715474D01*
X50844192Y-57691081D01*
X50909328Y-57606193D01*
X50914355Y-57599642D01*
X50918498Y-57589642D01*
X50967069Y-57472380D01*
X50970228Y-57464754D01*
X50989285Y-57320000D01*
X50970228Y-57175246D01*
X50914355Y-57040358D01*
X50825474Y-56924526D01*
X50820863Y-56920988D01*
X50787379Y-56859668D01*
X50784500Y-56832885D01*
X50784500Y-56249029D01*
X50804502Y-56180908D01*
X50821405Y-56159934D01*
X52899933Y-54081405D01*
X52962245Y-54047380D01*
X52989028Y-54044500D01*
X60537839Y-54044500D01*
X60605960Y-54064502D01*
X60652453Y-54118158D01*
X60662557Y-54188432D01*
X60633063Y-54253012D01*
X60626934Y-54259595D01*
X60139689Y-54746840D01*
X60130249Y-54754382D01*
X60130572Y-54754762D01*
X60123736Y-54760580D01*
X60116144Y-54765370D01*
X60110202Y-54772098D01*
X60080812Y-54805376D01*
X60075466Y-54811063D01*
X60064132Y-54822397D01*
X60061447Y-54825980D01*
X60061445Y-54825982D01*
X60057930Y-54830672D01*
X60051545Y-54838515D01*
X60020482Y-54873687D01*
X60016669Y-54881809D01*
X60014829Y-54884610D01*
X60006420Y-54898605D01*
X60004798Y-54901568D01*
X59999413Y-54908753D01*
X59996260Y-54917163D01*
X59996259Y-54917165D01*
X59982937Y-54952699D01*
X59979013Y-54962012D01*
X59959066Y-55004499D01*
X59957684Y-55013373D01*
X59956698Y-55016600D01*
X59952558Y-55032383D01*
X59951837Y-55035661D01*
X59948685Y-55044069D01*
X59948020Y-55053020D01*
X59945207Y-55090874D01*
X59944053Y-55100921D01*
X59941983Y-55114214D01*
X59941983Y-55129579D01*
X59941637Y-55138916D01*
X59937976Y-55188184D01*
X59939849Y-55196959D01*
X59940442Y-55205655D01*
X59941983Y-55220255D01*
X59941983Y-58297444D01*
X59932392Y-58345662D01*
X59909415Y-58401134D01*
X59906255Y-58408763D01*
X59887198Y-58553517D01*
X59906255Y-58698271D01*
X59909415Y-58705900D01*
X59932392Y-58761372D01*
X59941983Y-58809590D01*
X59941983Y-63042356D01*
X59921981Y-63110477D01*
X59905078Y-63131451D01*
X57297934Y-65738595D01*
X57235622Y-65772621D01*
X57208839Y-65775500D01*
X54665499Y-65775500D01*
X54597378Y-65755498D01*
X54550885Y-65701842D01*
X54539499Y-65649500D01*
X54539499Y-65429934D01*
X54524734Y-65355699D01*
X54468484Y-65271516D01*
X54384301Y-65215266D01*
X54310067Y-65200500D01*
X53610114Y-65200500D01*
X52909934Y-65200501D01*
X52874182Y-65207612D01*
X52847874Y-65212844D01*
X52847872Y-65212845D01*
X52835699Y-65215266D01*
X52825379Y-65222161D01*
X52825378Y-65222162D01*
X52802144Y-65237687D01*
X52751516Y-65271516D01*
X52695266Y-65355699D01*
X52680500Y-65429933D01*
X52680500Y-65654923D01*
X52660498Y-65723044D01*
X52606842Y-65769537D01*
X52536568Y-65779641D01*
X52471988Y-65750147D01*
X52445381Y-65717923D01*
X52392977Y-65627156D01*
X52366123Y-65580644D01*
X52235383Y-65435442D01*
X52125627Y-65355699D01*
X52082652Y-65324476D01*
X52082651Y-65324475D01*
X52077310Y-65320595D01*
X52071281Y-65317911D01*
X52071278Y-65317909D01*
X51904849Y-65243811D01*
X51904846Y-65243810D01*
X51898813Y-65241124D01*
X51809600Y-65222161D01*
X51714151Y-65201872D01*
X51714146Y-65201872D01*
X51707694Y-65200500D01*
X51512306Y-65200500D01*
X51505854Y-65201872D01*
X51505849Y-65201872D01*
X51410400Y-65222161D01*
X51321187Y-65241124D01*
X51315154Y-65243810D01*
X51315151Y-65243811D01*
X51148722Y-65317909D01*
X51148719Y-65317911D01*
X51142690Y-65320595D01*
X51137349Y-65324475D01*
X51137348Y-65324476D01*
X51094374Y-65355699D01*
X50984617Y-65435442D01*
X50853877Y-65580644D01*
X50850576Y-65586362D01*
X50762684Y-65738595D01*
X50756182Y-65749856D01*
X50695804Y-65935682D01*
X50675380Y-66130000D01*
X50695804Y-66324318D01*
X50756182Y-66510144D01*
X50853877Y-66679356D01*
X50858295Y-66684263D01*
X50858296Y-66684264D01*
X50980195Y-66819647D01*
X50984617Y-66824558D01*
X50989959Y-66828439D01*
X50989961Y-66828441D01*
X51108576Y-66914620D01*
X51142690Y-66939405D01*
X51148719Y-66942089D01*
X51148722Y-66942091D01*
X51315151Y-67016189D01*
X51315154Y-67016190D01*
X51321187Y-67018876D01*
X51400727Y-67035783D01*
X51505849Y-67058128D01*
X51505854Y-67058128D01*
X51512306Y-67059500D01*
X51707694Y-67059500D01*
X51714146Y-67058128D01*
X51714151Y-67058128D01*
X51819273Y-67035783D01*
X51898813Y-67018876D01*
X51904846Y-67016190D01*
X51904849Y-67016189D01*
X52071278Y-66942091D01*
X52071281Y-66942089D01*
X52077310Y-66939405D01*
X52111424Y-66914620D01*
X52230039Y-66828441D01*
X52230041Y-66828439D01*
X52235383Y-66824558D01*
X52239805Y-66819647D01*
X52361704Y-66684264D01*
X52361705Y-66684263D01*
X52366123Y-66679356D01*
X52445382Y-66542076D01*
X52496765Y-66493083D01*
X52566478Y-66479647D01*
X52632389Y-66506033D01*
X52673571Y-66563866D01*
X52680501Y-66605075D01*
X52680501Y-66830066D01*
X52695266Y-66904301D01*
X52751516Y-66988484D01*
X52835699Y-67044734D01*
X52903855Y-67058291D01*
X52909933Y-67059500D01*
X52909591Y-67061217D01*
X52967693Y-67084686D01*
X53008697Y-67142645D01*
X53015500Y-67183488D01*
X53015500Y-67669500D01*
X52995498Y-67737621D01*
X52941842Y-67784114D01*
X52889500Y-67795500D01*
X44901161Y-67795500D01*
X44833040Y-67775498D01*
X44812066Y-67758595D01*
X44661405Y-67607934D01*
X44627379Y-67545622D01*
X44624500Y-67518839D01*
X44624500Y-66750259D01*
X44644502Y-66682138D01*
X44698158Y-66635645D01*
X44768432Y-66625541D01*
X44833012Y-66655035D01*
X44851406Y-66675075D01*
X44853877Y-66679356D01*
X44858295Y-66684263D01*
X44858296Y-66684264D01*
X44980195Y-66819647D01*
X44984617Y-66824558D01*
X44989959Y-66828439D01*
X44989961Y-66828441D01*
X45108576Y-66914620D01*
X45142690Y-66939405D01*
X45148719Y-66942089D01*
X45148722Y-66942091D01*
X45315151Y-67016189D01*
X45315154Y-67016190D01*
X45321187Y-67018876D01*
X45400727Y-67035783D01*
X45505849Y-67058128D01*
X45505854Y-67058128D01*
X45512306Y-67059500D01*
X45707694Y-67059500D01*
X45714146Y-67058128D01*
X45714151Y-67058128D01*
X45819273Y-67035783D01*
X45898813Y-67018876D01*
X45904846Y-67016190D01*
X45904849Y-67016189D01*
X46071278Y-66942091D01*
X46071281Y-66942089D01*
X46077310Y-66939405D01*
X46111424Y-66914620D01*
X46230039Y-66828441D01*
X46230041Y-66828439D01*
X46235383Y-66824558D01*
X46239805Y-66819647D01*
X46361704Y-66684264D01*
X46361705Y-66684263D01*
X46366123Y-66679356D01*
X46463818Y-66510144D01*
X46469362Y-66493083D01*
X46490167Y-66429049D01*
X46530240Y-66370443D01*
X46595637Y-66342806D01*
X46665593Y-66354913D01*
X46717900Y-66402918D01*
X46729833Y-66429049D01*
X46750639Y-66493083D01*
X46756182Y-66510144D01*
X46853877Y-66679356D01*
X46858295Y-66684263D01*
X46858296Y-66684264D01*
X46980195Y-66819647D01*
X46984617Y-66824558D01*
X46989959Y-66828439D01*
X46989961Y-66828441D01*
X47108576Y-66914620D01*
X47142690Y-66939405D01*
X47148719Y-66942089D01*
X47148722Y-66942091D01*
X47315151Y-67016189D01*
X47315154Y-67016190D01*
X47321187Y-67018876D01*
X47400727Y-67035783D01*
X47505849Y-67058128D01*
X47505854Y-67058128D01*
X47512306Y-67059500D01*
X47707694Y-67059500D01*
X47714146Y-67058128D01*
X47714151Y-67058128D01*
X47819273Y-67035783D01*
X47898813Y-67018876D01*
X47904846Y-67016190D01*
X47904849Y-67016189D01*
X48071278Y-66942091D01*
X48071281Y-66942089D01*
X48077310Y-66939405D01*
X48111424Y-66914620D01*
X48230039Y-66828441D01*
X48230041Y-66828439D01*
X48235383Y-66824558D01*
X48239805Y-66819647D01*
X48361704Y-66684264D01*
X48361705Y-66684263D01*
X48366123Y-66679356D01*
X48463818Y-66510144D01*
X48524196Y-66324318D01*
X48544620Y-66130000D01*
X48524196Y-65935682D01*
X48463818Y-65749856D01*
X48457317Y-65738595D01*
X48369424Y-65586362D01*
X48366123Y-65580644D01*
X48235383Y-65435442D01*
X48125627Y-65355699D01*
X48082652Y-65324476D01*
X48082651Y-65324475D01*
X48077310Y-65320595D01*
X48071281Y-65317911D01*
X48071278Y-65317909D01*
X47904849Y-65243811D01*
X47904846Y-65243810D01*
X47898813Y-65241124D01*
X47809600Y-65222161D01*
X47714151Y-65201872D01*
X47714146Y-65201872D01*
X47707694Y-65200500D01*
X47512306Y-65200500D01*
X47505854Y-65201872D01*
X47505849Y-65201872D01*
X47410400Y-65222161D01*
X47321187Y-65241124D01*
X47315154Y-65243810D01*
X47315151Y-65243811D01*
X47148722Y-65317909D01*
X47148719Y-65317911D01*
X47142690Y-65320595D01*
X47137349Y-65324475D01*
X47137348Y-65324476D01*
X47094374Y-65355699D01*
X46984617Y-65435442D01*
X46853877Y-65580644D01*
X46850576Y-65586362D01*
X46762684Y-65738595D01*
X46756182Y-65749856D01*
X46754141Y-65756138D01*
X46754140Y-65756140D01*
X46729833Y-65830951D01*
X46689760Y-65889557D01*
X46624363Y-65917194D01*
X46554407Y-65905087D01*
X46502100Y-65857082D01*
X46490167Y-65830951D01*
X46465860Y-65756140D01*
X46465859Y-65756138D01*
X46463818Y-65749856D01*
X46457317Y-65738595D01*
X46369424Y-65586362D01*
X46366123Y-65580644D01*
X46235383Y-65435442D01*
X46125627Y-65355699D01*
X46082652Y-65324476D01*
X46082651Y-65324475D01*
X46077310Y-65320595D01*
X46071281Y-65317911D01*
X46071278Y-65317909D01*
X45904849Y-65243811D01*
X45904846Y-65243810D01*
X45898813Y-65241124D01*
X45809600Y-65222161D01*
X45714151Y-65201872D01*
X45714146Y-65201872D01*
X45707694Y-65200500D01*
X45512306Y-65200500D01*
X45505854Y-65201872D01*
X45505849Y-65201872D01*
X45410400Y-65222161D01*
X45321187Y-65241124D01*
X45315154Y-65243810D01*
X45315151Y-65243811D01*
X45148722Y-65317909D01*
X45148719Y-65317911D01*
X45142690Y-65320595D01*
X45137349Y-65324475D01*
X45137348Y-65324476D01*
X45094374Y-65355699D01*
X44984617Y-65435442D01*
X44853877Y-65580644D01*
X44851747Y-65584334D01*
X44796212Y-65627156D01*
X44725476Y-65633231D01*
X44662685Y-65600099D01*
X44627774Y-65538278D01*
X44624500Y-65509741D01*
X44624500Y-65008554D01*
X44628354Y-64979278D01*
X44630228Y-64974754D01*
X44649285Y-64830000D01*
X44630228Y-64685246D01*
X44574355Y-64550358D01*
X44485474Y-64434526D01*
X44478924Y-64429500D01*
X44478921Y-64429497D01*
X44376196Y-64350673D01*
X44376194Y-64350672D01*
X44369643Y-64345645D01*
X44234754Y-64289772D01*
X44090000Y-64270715D01*
X44081812Y-64271793D01*
X43953432Y-64288694D01*
X43953430Y-64288695D01*
X43945246Y-64289772D01*
X43897430Y-64309578D01*
X43817986Y-64342485D01*
X43817984Y-64342486D01*
X43810358Y-64345645D01*
X43694526Y-64434526D01*
X43605645Y-64550358D01*
X43549772Y-64685246D01*
X43530715Y-64830000D01*
X34097954Y-64830000D01*
X33540527Y-64210915D01*
X33537078Y-64206920D01*
X32959875Y-63509200D01*
X32956597Y-63505065D01*
X32941831Y-63485612D01*
X32409103Y-62783768D01*
X32406019Y-62779523D01*
X31889199Y-62035917D01*
X31886289Y-62031536D01*
X31401093Y-61266988D01*
X31398359Y-61262474D01*
X30945597Y-60478268D01*
X30943054Y-60473643D01*
X30523518Y-59671143D01*
X30521172Y-59666416D01*
X30135626Y-58847091D01*
X30133479Y-58842270D01*
X29924724Y-58345662D01*
X29782562Y-58007472D01*
X29780626Y-58002582D01*
X29734773Y-57879285D01*
X29464976Y-57153821D01*
X29463244Y-57148847D01*
X29183423Y-56287645D01*
X29181898Y-56282593D01*
X28938388Y-55410439D01*
X28937075Y-55405327D01*
X28730293Y-54523709D01*
X28729196Y-54518547D01*
X28559517Y-53629058D01*
X28558637Y-53623854D01*
X28426358Y-52728060D01*
X28425696Y-52722825D01*
X28374865Y-52239204D01*
X28331038Y-51822212D01*
X28330598Y-51816968D01*
X28329846Y-51805007D01*
X28287572Y-51133101D01*
X28273740Y-50913241D01*
X28273519Y-50907968D01*
X28264037Y-50455303D01*
X28255384Y-50042186D01*
X30141018Y-50042186D01*
X30166579Y-50310100D01*
X30230547Y-50571518D01*
X30331583Y-50820963D01*
X30422555Y-50976331D01*
X30453148Y-51028580D01*
X30467569Y-51053210D01*
X30635658Y-51263395D01*
X30832327Y-51447113D01*
X30985192Y-51553159D01*
X31049244Y-51597593D01*
X31053457Y-51600516D01*
X31294416Y-51720391D01*
X31298750Y-51721812D01*
X31298753Y-51721813D01*
X31545823Y-51802807D01*
X31545829Y-51802808D01*
X31550156Y-51804227D01*
X31554647Y-51805007D01*
X31554648Y-51805007D01*
X31811538Y-51849611D01*
X31811546Y-51849612D01*
X31815319Y-51850267D01*
X31819156Y-51850458D01*
X31898777Y-51854422D01*
X31898785Y-51854422D01*
X31900348Y-51854500D01*
X32068374Y-51854500D01*
X32070642Y-51854335D01*
X32070654Y-51854335D01*
X32201457Y-51844844D01*
X32268425Y-51839985D01*
X32272880Y-51839001D01*
X32272883Y-51839001D01*
X32526770Y-51782947D01*
X32526772Y-51782946D01*
X32531226Y-51781963D01*
X32782900Y-51686613D01*
X33018172Y-51555931D01*
X33164842Y-51443996D01*
X33228491Y-51395421D01*
X33228495Y-51395417D01*
X33232116Y-51392654D01*
X33245950Y-51378503D01*
X33417063Y-51203462D01*
X33420249Y-51200203D01*
X33474286Y-51125964D01*
X33575942Y-50986304D01*
X33575947Y-50986297D01*
X33578630Y-50982610D01*
X33703941Y-50744433D01*
X33793557Y-50490662D01*
X33818688Y-50363156D01*
X33844720Y-50231083D01*
X33844721Y-50231077D01*
X33845601Y-50226611D01*
X33854782Y-50042186D01*
X33856882Y-50000000D01*
X37740663Y-50000000D01*
X37759992Y-50294903D01*
X37760796Y-50298943D01*
X37760796Y-50298946D01*
X37815856Y-50575749D01*
X37817648Y-50584759D01*
X37818973Y-50588663D01*
X37818974Y-50588666D01*
X37897828Y-50820963D01*
X37912645Y-50864611D01*
X37935328Y-50910607D01*
X38003707Y-51049265D01*
X38043357Y-51129668D01*
X38207547Y-51375397D01*
X38402407Y-51597593D01*
X38624603Y-51792453D01*
X38870331Y-51956643D01*
X38874030Y-51958467D01*
X38874035Y-51958470D01*
X38917828Y-51980066D01*
X39135389Y-52087355D01*
X39139294Y-52088680D01*
X39139295Y-52088681D01*
X39411334Y-52181026D01*
X39411337Y-52181027D01*
X39415241Y-52182352D01*
X39419280Y-52183155D01*
X39419286Y-52183157D01*
X39701054Y-52239204D01*
X39701057Y-52239204D01*
X39705097Y-52240008D01*
X39709208Y-52240277D01*
X39709212Y-52240278D01*
X39995881Y-52259067D01*
X40000000Y-52259337D01*
X40004119Y-52259067D01*
X40290788Y-52240278D01*
X40290792Y-52240277D01*
X40294903Y-52240008D01*
X40298943Y-52239204D01*
X40298946Y-52239204D01*
X40580714Y-52183157D01*
X40580720Y-52183155D01*
X40584759Y-52182352D01*
X40588663Y-52181027D01*
X40588666Y-52181026D01*
X40860705Y-52088681D01*
X40860706Y-52088680D01*
X40864611Y-52087355D01*
X41082172Y-51980066D01*
X41125965Y-51958470D01*
X41125970Y-51958467D01*
X41129669Y-51956643D01*
X41375397Y-51792453D01*
X41597593Y-51597593D01*
X41792453Y-51375397D01*
X41956643Y-51129668D01*
X41996294Y-51049265D01*
X42064672Y-50910607D01*
X42087355Y-50864611D01*
X42102172Y-50820963D01*
X42181026Y-50588666D01*
X42181027Y-50588663D01*
X42182352Y-50584759D01*
X42184145Y-50575749D01*
X42239204Y-50298946D01*
X42239204Y-50298943D01*
X42240008Y-50294903D01*
X42259337Y-50000000D01*
X42240008Y-49705097D01*
X42201069Y-49509338D01*
X42183157Y-49419286D01*
X42183155Y-49419280D01*
X42182352Y-49415241D01*
X42103608Y-49183267D01*
X42088681Y-49139295D01*
X42088680Y-49139294D01*
X42087355Y-49135389D01*
X42029164Y-49017390D01*
X41959090Y-48875293D01*
X41946900Y-48805351D01*
X41974459Y-48739922D01*
X41983001Y-48730470D01*
X44472066Y-46241405D01*
X44534378Y-46207379D01*
X44561161Y-46204500D01*
X54333153Y-46204500D01*
X54401274Y-46224502D01*
X54406068Y-46228185D01*
X54406266Y-46227907D01*
X54412459Y-46232308D01*
X54418076Y-46237419D01*
X54557293Y-46313008D01*
X54710522Y-46353207D01*
X54794477Y-46354526D01*
X54861319Y-46355576D01*
X54861322Y-46355576D01*
X54868916Y-46355695D01*
X55023332Y-46320329D01*
X55093742Y-46284917D01*
X55158072Y-46252563D01*
X55158075Y-46252561D01*
X55164855Y-46249151D01*
X55170626Y-46244222D01*
X55170629Y-46244220D01*
X55279536Y-46151204D01*
X55279536Y-46151203D01*
X55285314Y-46146269D01*
X55377755Y-46017624D01*
X55436842Y-45870641D01*
X55459162Y-45713807D01*
X55459307Y-45700000D01*
X55440276Y-45542733D01*
X55384280Y-45394546D01*
X55320154Y-45301242D01*
X55298855Y-45270251D01*
X55298854Y-45270249D01*
X55294553Y-45263992D01*
X55286542Y-45256854D01*
X55256653Y-45230225D01*
X55176275Y-45158611D01*
X55168889Y-45154700D01*
X55042988Y-45088039D01*
X55042989Y-45088039D01*
X55036274Y-45084484D01*
X54882633Y-45045892D01*
X54875034Y-45045852D01*
X54875033Y-45045852D01*
X54809181Y-45045507D01*
X54724221Y-45045062D01*
X54716841Y-45046834D01*
X54716839Y-45046834D01*
X54577563Y-45080271D01*
X54577560Y-45080272D01*
X54570184Y-45082043D01*
X54429414Y-45154700D01*
X54423692Y-45159692D01*
X54423690Y-45159693D01*
X54418236Y-45164451D01*
X54353753Y-45194157D01*
X54335409Y-45195500D01*
X44370624Y-45195500D01*
X44358619Y-45194159D01*
X44358579Y-45194655D01*
X44349632Y-45193935D01*
X44340876Y-45191954D01*
X44297338Y-45194655D01*
X44287618Y-45195258D01*
X44279816Y-45195500D01*
X44263774Y-45195500D01*
X44259343Y-45196135D01*
X44259338Y-45196135D01*
X44255313Y-45196712D01*
X44253543Y-45196965D01*
X44243486Y-45197996D01*
X44221024Y-45199389D01*
X44205600Y-45200346D01*
X44205598Y-45200346D01*
X44196641Y-45200902D01*
X44188201Y-45203949D01*
X44184911Y-45204630D01*
X44169062Y-45208582D01*
X44165832Y-45209527D01*
X44156948Y-45210799D01*
X44114222Y-45230225D01*
X44104860Y-45234036D01*
X44069158Y-45246925D01*
X44069157Y-45246926D01*
X44060716Y-45249973D01*
X44053467Y-45255269D01*
X44050486Y-45256854D01*
X44036408Y-45265080D01*
X44033569Y-45266896D01*
X44025395Y-45270612D01*
X44018591Y-45276475D01*
X43989848Y-45301242D01*
X43981930Y-45307530D01*
X43971056Y-45315473D01*
X43960194Y-45326335D01*
X43953348Y-45332693D01*
X43915918Y-45364944D01*
X43911034Y-45372479D01*
X43905301Y-45379051D01*
X43896074Y-45390455D01*
X41269530Y-48016999D01*
X41207218Y-48051025D01*
X41136403Y-48045960D01*
X41124707Y-48040910D01*
X41076220Y-48016999D01*
X40864611Y-47912645D01*
X40860705Y-47911319D01*
X40588666Y-47818974D01*
X40588663Y-47818973D01*
X40584759Y-47817648D01*
X40580720Y-47816845D01*
X40580714Y-47816843D01*
X40298946Y-47760796D01*
X40298943Y-47760796D01*
X40294903Y-47759992D01*
X40290792Y-47759723D01*
X40290788Y-47759722D01*
X40004119Y-47740933D01*
X40000000Y-47740663D01*
X39995881Y-47740933D01*
X39709212Y-47759722D01*
X39709208Y-47759723D01*
X39705097Y-47759992D01*
X39701057Y-47760796D01*
X39701054Y-47760796D01*
X39419286Y-47816843D01*
X39419280Y-47816845D01*
X39415241Y-47817648D01*
X39411337Y-47818973D01*
X39411334Y-47818974D01*
X39139295Y-47911319D01*
X39135389Y-47912645D01*
X39010143Y-47974410D01*
X38874036Y-48041530D01*
X38874031Y-48041533D01*
X38870332Y-48043357D01*
X38624603Y-48207547D01*
X38402407Y-48402407D01*
X38207547Y-48624603D01*
X38043357Y-48870332D01*
X38041533Y-48874031D01*
X38041530Y-48874036D01*
X37993506Y-48971420D01*
X37912645Y-49135389D01*
X37911320Y-49139294D01*
X37911319Y-49139295D01*
X37896393Y-49183267D01*
X37817648Y-49415241D01*
X37816845Y-49419280D01*
X37816843Y-49419286D01*
X37798931Y-49509338D01*
X37759992Y-49705097D01*
X37740663Y-50000000D01*
X33856882Y-50000000D01*
X33858755Y-49962383D01*
X33858755Y-49962377D01*
X33858982Y-49957814D01*
X33833421Y-49689900D01*
X33769453Y-49428482D01*
X33668417Y-49179037D01*
X33554109Y-48983813D01*
X33534741Y-48950735D01*
X33534740Y-48950734D01*
X33532431Y-48946790D01*
X33364342Y-48736605D01*
X33167673Y-48552887D01*
X32955221Y-48405504D01*
X32950291Y-48402084D01*
X32950290Y-48402084D01*
X32946543Y-48399484D01*
X32705584Y-48279609D01*
X32701250Y-48278188D01*
X32701247Y-48278187D01*
X32454177Y-48197193D01*
X32454171Y-48197192D01*
X32449844Y-48195773D01*
X32445352Y-48194993D01*
X32188462Y-48150389D01*
X32188454Y-48150388D01*
X32184681Y-48149733D01*
X32174718Y-48149237D01*
X32101223Y-48145578D01*
X32101215Y-48145578D01*
X32099652Y-48145500D01*
X31931626Y-48145500D01*
X31929358Y-48145665D01*
X31929346Y-48145665D01*
X31798543Y-48155156D01*
X31731575Y-48160015D01*
X31727120Y-48160999D01*
X31727117Y-48160999D01*
X31473230Y-48217053D01*
X31473228Y-48217054D01*
X31468774Y-48218037D01*
X31217100Y-48313387D01*
X30981828Y-48444069D01*
X30978196Y-48446841D01*
X30771509Y-48604579D01*
X30771505Y-48604583D01*
X30767884Y-48607346D01*
X30764699Y-48610604D01*
X30764698Y-48610605D01*
X30751014Y-48624603D01*
X30579751Y-48799797D01*
X30553851Y-48835379D01*
X30424058Y-49013696D01*
X30424053Y-49013703D01*
X30421370Y-49017390D01*
X30296059Y-49255567D01*
X30206443Y-49509338D01*
X30205560Y-49513820D01*
X30170855Y-49689900D01*
X30154399Y-49773389D01*
X30154172Y-49777942D01*
X30154172Y-49777945D01*
X30142987Y-50002639D01*
X30141018Y-50042186D01*
X28255384Y-50042186D01*
X28254555Y-50002626D01*
X28254555Y-49997361D01*
X28255384Y-49957814D01*
X28266749Y-49415241D01*
X28273519Y-49092032D01*
X28273740Y-49086759D01*
X28304076Y-48604579D01*
X28330599Y-48183016D01*
X28331039Y-48177773D01*
X28332906Y-48160015D01*
X28425696Y-47277175D01*
X28426358Y-47271940D01*
X28558637Y-46376146D01*
X28559517Y-46370942D01*
X28729196Y-45481453D01*
X28730293Y-45476291D01*
X28937075Y-44594673D01*
X28938388Y-44589561D01*
X29181898Y-43717407D01*
X29183423Y-43712355D01*
X29352140Y-43193096D01*
X46840727Y-43193096D01*
X46858111Y-43350553D01*
X46912551Y-43499319D01*
X46916787Y-43505622D01*
X46916787Y-43505623D01*
X46979371Y-43598757D01*
X47000906Y-43630805D01*
X47006525Y-43635918D01*
X47006526Y-43635919D01*
X47079152Y-43702003D01*
X47118074Y-43737419D01*
X47257291Y-43813008D01*
X47410520Y-43853207D01*
X47494475Y-43854526D01*
X47561317Y-43855576D01*
X47561320Y-43855576D01*
X47568914Y-43855695D01*
X47723330Y-43820329D01*
X47793740Y-43784917D01*
X47858070Y-43752563D01*
X47858073Y-43752561D01*
X47864853Y-43749151D01*
X47881787Y-43734688D01*
X47946577Y-43705658D01*
X47963617Y-43704500D01*
X50629376Y-43704500D01*
X50641381Y-43705841D01*
X50641421Y-43705345D01*
X50650368Y-43706065D01*
X50659124Y-43708046D01*
X50712382Y-43704742D01*
X50720184Y-43704500D01*
X50736226Y-43704500D01*
X50740657Y-43703865D01*
X50740662Y-43703865D01*
X50744687Y-43703288D01*
X50746457Y-43703035D01*
X50756514Y-43702004D01*
X50778976Y-43700611D01*
X50794400Y-43699654D01*
X50794402Y-43699654D01*
X50803359Y-43699098D01*
X50811799Y-43696051D01*
X50815089Y-43695370D01*
X50830938Y-43691418D01*
X50834168Y-43690473D01*
X50843052Y-43689201D01*
X50885763Y-43669782D01*
X50895128Y-43665970D01*
X50930837Y-43653078D01*
X50930840Y-43653076D01*
X50939284Y-43650028D01*
X50946533Y-43644732D01*
X50949490Y-43643160D01*
X50963614Y-43634907D01*
X50966437Y-43633102D01*
X50974605Y-43629388D01*
X50981402Y-43623531D01*
X50981404Y-43623530D01*
X51010153Y-43598757D01*
X51018064Y-43592475D01*
X51028944Y-43584527D01*
X51039806Y-43573665D01*
X51046653Y-43567307D01*
X51077282Y-43540915D01*
X51084082Y-43535056D01*
X51088966Y-43527521D01*
X51094699Y-43520949D01*
X51103926Y-43509545D01*
X58628834Y-35984637D01*
X58689800Y-35950912D01*
X58815927Y-35922025D01*
X58823332Y-35920329D01*
X58893742Y-35884917D01*
X58958072Y-35852563D01*
X58958075Y-35852561D01*
X58964855Y-35849151D01*
X58970626Y-35844222D01*
X58970629Y-35844220D01*
X59079536Y-35751204D01*
X59079536Y-35751203D01*
X59085314Y-35746269D01*
X59177755Y-35617624D01*
X59236842Y-35470641D01*
X59259162Y-35313807D01*
X59259307Y-35300000D01*
X59240276Y-35142733D01*
X59184280Y-34994546D01*
X59094553Y-34863992D01*
X58976275Y-34758611D01*
X58968889Y-34754700D01*
X58842988Y-34688039D01*
X58842989Y-34688039D01*
X58836274Y-34684484D01*
X58682633Y-34645892D01*
X58675034Y-34645852D01*
X58675033Y-34645852D01*
X58609181Y-34645507D01*
X58524221Y-34645062D01*
X58516841Y-34646834D01*
X58516839Y-34646834D01*
X58377563Y-34680271D01*
X58377560Y-34680272D01*
X58370184Y-34682043D01*
X58229414Y-34754700D01*
X58110039Y-34858838D01*
X58018950Y-34988444D01*
X57961406Y-35136037D01*
X57960415Y-35143568D01*
X57960414Y-35143570D01*
X57953482Y-35196226D01*
X57924759Y-35261153D01*
X57917655Y-35268874D01*
X50527934Y-42658595D01*
X50465622Y-42692621D01*
X50438839Y-42695500D01*
X47965665Y-42695500D01*
X47897544Y-42675498D01*
X47882141Y-42663802D01*
X47881952Y-42663670D01*
X47876273Y-42658611D01*
X47736272Y-42584484D01*
X47582631Y-42545892D01*
X47575032Y-42545852D01*
X47575031Y-42545852D01*
X47509179Y-42545507D01*
X47424219Y-42545062D01*
X47416839Y-42546834D01*
X47416837Y-42546834D01*
X47277561Y-42580271D01*
X47277558Y-42580272D01*
X47270182Y-42582043D01*
X47129412Y-42654700D01*
X47010037Y-42758838D01*
X46918948Y-42888444D01*
X46861404Y-43036037D01*
X46840727Y-43193096D01*
X29352140Y-43193096D01*
X29448827Y-42895524D01*
X29463247Y-42851143D01*
X29464979Y-42846169D01*
X29534737Y-42658595D01*
X29780633Y-41997401D01*
X29782569Y-41992511D01*
X29861087Y-41805726D01*
X30133479Y-41157730D01*
X30135626Y-41152909D01*
X30521172Y-40333584D01*
X30523518Y-40328857D01*
X30943054Y-39526357D01*
X30945597Y-39521732D01*
X31398359Y-38737526D01*
X31401093Y-38733012D01*
X31886289Y-37968464D01*
X31889209Y-37964068D01*
X32085410Y-37681773D01*
X32406020Y-37220475D01*
X32409103Y-37216232D01*
X32956597Y-36494935D01*
X32959875Y-36490800D01*
X33537078Y-35793080D01*
X33540527Y-35789085D01*
X34146440Y-35116151D01*
X34150052Y-35112304D01*
X34783634Y-34465310D01*
X34787384Y-34461638D01*
X35447503Y-33841745D01*
X35451423Y-33838215D01*
X36136895Y-33246532D01*
X36140961Y-33243168D01*
X36419976Y-33022024D01*
X36850624Y-32680696D01*
X36854826Y-32677507D01*
X37019746Y-32557686D01*
X37587416Y-32145249D01*
X37591750Y-32142237D01*
X37662059Y-32095524D01*
X38345989Y-31641122D01*
X38350422Y-31638308D01*
X38605362Y-31483911D01*
X39124984Y-31169218D01*
X39129554Y-31166579D01*
X39923085Y-30730331D01*
X39927762Y-30727886D01*
X40738851Y-30325257D01*
X40743626Y-30323010D01*
X41570870Y-29954698D01*
X41575735Y-29952653D01*
X41812303Y-29858989D01*
X42417700Y-29619295D01*
X42422624Y-29617464D01*
X42818021Y-29479773D01*
X43277774Y-29319671D01*
X43282793Y-29318040D01*
X43883890Y-29136557D01*
X44149701Y-29056304D01*
X44154701Y-29054907D01*
X45031849Y-28829694D01*
X45036957Y-28828496D01*
X45479848Y-28734356D01*
X45922755Y-28640214D01*
X45927907Y-28639232D01*
X46820761Y-28488216D01*
X46825957Y-28487449D01*
X47284167Y-28429564D01*
X47724350Y-28373956D01*
X47729599Y-28373404D01*
X48398079Y-28317270D01*
X48631972Y-28297630D01*
X48637230Y-28297299D01*
X49541948Y-28259380D01*
X49547225Y-28259269D01*
X50452775Y-28259269D01*
X50458052Y-28259380D01*
G37*
%TD.AperFunction*%
%TD*%
M02*
