%TF.GenerationSoftware,KiCad,Pcbnew,6.0.11-2627ca5db0~126~ubuntu22.04.1*%
%TF.CreationDate,2023-11-28T13:50:45+01:00*%
%TF.ProjectId,led_buck_3a,6c65645f-6275-4636-9b5f-33612e6b6963,rev?*%
%TF.SameCoordinates,Original*%
%TF.FileFunction,Paste,Top*%
%TF.FilePolarity,Positive*%
%FSLAX46Y46*%
G04 Gerber Fmt 4.6, Leading zero omitted, Abs format (unit mm)*
G04 Created by KiCad (PCBNEW 6.0.11-2627ca5db0~126~ubuntu22.04.1) date 2023-11-28 13:50:45*
%MOMM*%
%LPD*%
G01*
G04 APERTURE LIST*
G04 Aperture macros list*
%AMRoundRect*
0 Rectangle with rounded corners*
0 $1 Rounding radius*
0 $2 $3 $4 $5 $6 $7 $8 $9 X,Y pos of 4 corners*
0 Add a 4 corners polygon primitive as box body*
4,1,4,$2,$3,$4,$5,$6,$7,$8,$9,$2,$3,0*
0 Add four circle primitives for the rounded corners*
1,1,$1+$1,$2,$3*
1,1,$1+$1,$4,$5*
1,1,$1+$1,$6,$7*
1,1,$1+$1,$8,$9*
0 Add four rect primitives between the rounded corners*
20,1,$1+$1,$2,$3,$4,$5,0*
20,1,$1+$1,$4,$5,$6,$7,0*
20,1,$1+$1,$6,$7,$8,$9,0*
20,1,$1+$1,$8,$9,$2,$3,0*%
%AMFreePoly0*
4,1,14,0.334644,0.085355,0.385355,0.034644,0.400000,-0.000711,0.400000,-0.050000,0.385355,-0.085355,0.350000,-0.100000,-0.350000,-0.100000,-0.385355,-0.085355,-0.400000,-0.050000,-0.400000,0.050000,-0.385355,0.085355,-0.350000,0.100000,0.299289,0.100000,0.334644,0.085355,0.334644,0.085355,$1*%
%AMFreePoly1*
4,1,14,0.385355,0.085355,0.400000,0.050000,0.400000,0.000711,0.385355,-0.034644,0.334644,-0.085355,0.299289,-0.100000,-0.350000,-0.100000,-0.385355,-0.085355,-0.400000,-0.050000,-0.400000,0.050000,-0.385355,0.085355,-0.350000,0.100000,0.350000,0.100000,0.385355,0.085355,0.385355,0.085355,$1*%
%AMFreePoly2*
4,1,14,0.085355,0.385355,0.100000,0.350000,0.100000,-0.350000,0.085355,-0.385355,0.050000,-0.400000,-0.050000,-0.400000,-0.085355,-0.385355,-0.100000,-0.350000,-0.100000,0.299289,-0.085355,0.334644,-0.034644,0.385355,0.000711,0.400000,0.050000,0.400000,0.085355,0.385355,0.085355,0.385355,$1*%
%AMFreePoly3*
4,1,14,0.034644,0.385355,0.085355,0.334644,0.100000,0.299289,0.100000,-0.350000,0.085355,-0.385355,0.050000,-0.400000,-0.050000,-0.400000,-0.085355,-0.385355,-0.100000,-0.350000,-0.100000,0.350000,-0.085355,0.385355,-0.050000,0.400000,-0.000711,0.400000,0.034644,0.385355,0.034644,0.385355,$1*%
%AMFreePoly4*
4,1,14,0.385355,0.085355,0.400000,0.050000,0.400000,-0.050000,0.385355,-0.085355,0.350000,-0.100000,-0.299289,-0.100000,-0.334644,-0.085355,-0.385355,-0.034644,-0.400000,0.000711,-0.400000,0.050000,-0.385355,0.085355,-0.350000,0.100000,0.350000,0.100000,0.385355,0.085355,0.385355,0.085355,$1*%
%AMFreePoly5*
4,1,14,0.385355,0.085355,0.400000,0.050000,0.400000,-0.050000,0.385355,-0.085355,0.350000,-0.100000,-0.350000,-0.100000,-0.385355,-0.085355,-0.400000,-0.050000,-0.400000,-0.000711,-0.385355,0.034644,-0.334644,0.085355,-0.299289,0.100000,0.350000,0.100000,0.385355,0.085355,0.385355,0.085355,$1*%
%AMFreePoly6*
4,1,14,0.085355,0.385355,0.100000,0.350000,0.100000,-0.299289,0.085355,-0.334644,0.034644,-0.385355,-0.000711,-0.400000,-0.050000,-0.400000,-0.085355,-0.385355,-0.100000,-0.350000,-0.100000,0.350000,-0.085355,0.385355,-0.050000,0.400000,0.050000,0.400000,0.085355,0.385355,0.085355,0.385355,$1*%
%AMFreePoly7*
4,1,14,0.085355,0.385355,0.100000,0.350000,0.100000,-0.350000,0.085355,-0.385355,0.050000,-0.400000,0.000711,-0.400000,-0.034644,-0.385355,-0.085355,-0.334644,-0.100000,-0.299289,-0.100000,0.350000,-0.085355,0.385355,-0.050000,0.400000,0.050000,0.400000,0.085355,0.385355,0.085355,0.385355,$1*%
G04 Aperture macros list end*
%ADD10C,0.010000*%
%ADD11RoundRect,0.243750X-0.243750X-0.456250X0.243750X-0.456250X0.243750X0.456250X-0.243750X0.456250X0*%
%ADD12RoundRect,0.243750X0.456250X-0.243750X0.456250X0.243750X-0.456250X0.243750X-0.456250X-0.243750X0*%
%ADD13R,2.500000X1.800000*%
%ADD14RoundRect,0.243750X-0.456250X0.243750X-0.456250X-0.243750X0.456250X-0.243750X0.456250X0.243750X0*%
%ADD15RoundRect,0.172500X0.172500X0.172500X-0.172500X0.172500X-0.172500X-0.172500X0.172500X-0.172500X0*%
%ADD16FreePoly0,180.000000*%
%ADD17RoundRect,0.050000X0.350000X0.050000X-0.350000X0.050000X-0.350000X-0.050000X0.350000X-0.050000X0*%
%ADD18FreePoly1,180.000000*%
%ADD19FreePoly2,180.000000*%
%ADD20RoundRect,0.050000X0.050000X0.350000X-0.050000X0.350000X-0.050000X-0.350000X0.050000X-0.350000X0*%
%ADD21FreePoly3,180.000000*%
%ADD22FreePoly4,180.000000*%
%ADD23FreePoly5,180.000000*%
%ADD24FreePoly6,180.000000*%
%ADD25FreePoly7,180.000000*%
%ADD26RoundRect,0.250000X0.250000X2.500000X-0.250000X2.500000X-0.250000X-2.500000X0.250000X-2.500000X0*%
%ADD27RoundRect,0.250000X0.550000X1.250000X-0.550000X1.250000X-0.550000X-1.250000X0.550000X-1.250000X0*%
%ADD28R,0.420000X0.760000*%
%ADD29R,3.400000X2.000000*%
%ADD30RoundRect,0.250000X0.250000X0.475000X-0.250000X0.475000X-0.250000X-0.475000X0.250000X-0.475000X0*%
%ADD31RoundRect,0.250000X0.425000X1.425000X-0.425000X1.425000X-0.425000X-1.425000X0.425000X-1.425000X0*%
%ADD32RoundRect,0.243750X0.243750X0.456250X-0.243750X0.456250X-0.243750X-0.456250X0.243750X-0.456250X0*%
%ADD33R,0.500000X0.750000*%
%ADD34R,1.500000X1.500000*%
%ADD35R,0.400000X0.750000*%
G04 APERTURE END LIST*
%TO.C,U1*%
G36*
X59330000Y-38270000D02*
G01*
X57870000Y-38270000D01*
X57870000Y-37330000D01*
X59330000Y-37330000D01*
X59330000Y-38270000D01*
G37*
D10*
X59330000Y-38270000D02*
X57870000Y-38270000D01*
X57870000Y-37330000D01*
X59330000Y-37330000D01*
X59330000Y-38270000D01*
%TD*%
D11*
%TO.C,C4*%
X57662500Y-34040000D03*
X59537500Y-34040000D03*
%TD*%
D12*
%TO.C,C5*%
X58040000Y-59080000D03*
X58040000Y-57205000D03*
%TD*%
D13*
%TO.C,D1*%
X53400000Y-36900000D03*
X49400000Y-36900000D03*
%TD*%
D14*
%TO.C,D2*%
X55900000Y-61185000D03*
X55900000Y-63060000D03*
%TD*%
D12*
%TO.C,R2*%
X53670000Y-59090000D03*
X53670000Y-57215000D03*
%TD*%
D14*
%TO.C,R3*%
X44207500Y-57260000D03*
X44207500Y-59135000D03*
%TD*%
D12*
%TO.C,R4*%
X41987500Y-59155000D03*
X41987500Y-57280000D03*
%TD*%
%TO.C,R5*%
X58090000Y-63077500D03*
X58090000Y-61202500D03*
%TD*%
D15*
%TO.C,U2*%
X49195000Y-60415000D03*
X50045000Y-60415000D03*
X50045000Y-59565000D03*
X49195000Y-59565000D03*
D16*
X51070000Y-60790000D03*
D17*
X51070000Y-60390000D03*
X51070000Y-59990000D03*
X51070000Y-59590000D03*
D18*
X51070000Y-59190000D03*
D19*
X50420000Y-58540000D03*
D20*
X50020000Y-58540000D03*
X49620000Y-58540000D03*
X49220000Y-58540000D03*
D21*
X48820000Y-58540000D03*
D22*
X48170000Y-59190000D03*
D17*
X48170000Y-59590000D03*
X48170000Y-59990000D03*
X48170000Y-60390000D03*
D23*
X48170000Y-60790000D03*
D24*
X48820000Y-61440000D03*
D20*
X49220000Y-61440000D03*
X49620000Y-61440000D03*
X50020000Y-61440000D03*
D25*
X50420000Y-61440000D03*
%TD*%
D26*
%TO.C,J3*%
X52000000Y-49500000D03*
X50000000Y-49500000D03*
X48000000Y-49500000D03*
D27*
X54400000Y-51750000D03*
X45600000Y-51750000D03*
%TD*%
D28*
%TO.C,U1*%
X57650000Y-39285000D03*
X58600000Y-39285000D03*
X59550000Y-39285000D03*
X59550000Y-36315000D03*
X58600000Y-36315000D03*
X57650000Y-36315000D03*
%TD*%
D12*
%TO.C,C6*%
X55914000Y-59081500D03*
X55914000Y-57206500D03*
%TD*%
D29*
%TO.C,L1*%
X37800000Y-43550000D03*
X37800000Y-37850000D03*
%TD*%
D30*
%TO.C,C1*%
X52350000Y-42800000D03*
X50450000Y-42800000D03*
%TD*%
D12*
%TO.C,C7*%
X39647500Y-59162500D03*
X39647500Y-57287500D03*
%TD*%
D31*
%TO.C,R1*%
X61100000Y-42400000D03*
X55300000Y-42400000D03*
%TD*%
D32*
%TO.C,C2*%
X52537500Y-39900000D03*
X50662500Y-39900000D03*
%TD*%
D33*
%TO.C,Q1*%
X43965000Y-37395000D03*
X42695000Y-37395000D03*
D34*
X43750000Y-40500000D03*
X45450000Y-40500000D03*
D33*
X46505000Y-37395000D03*
D34*
X43750000Y-38800000D03*
D33*
X45235000Y-37395000D03*
D34*
X45450000Y-38800000D03*
D35*
X42695000Y-43200000D03*
X43965000Y-43200000D03*
X45235000Y-43200000D03*
X46505000Y-43200000D03*
%TD*%
D14*
%TO.C,R8*%
X53690000Y-61182500D03*
X53690000Y-63057500D03*
%TD*%
D11*
%TO.C,C3*%
X56025000Y-45700000D03*
X57900000Y-45700000D03*
%TD*%
M02*
