%TF.GenerationSoftware,KiCad,Pcbnew,6.0.7-f9a2dced07~116~ubuntu22.04.1*%
%TF.CreationDate,2022-09-29T21:23:46+02:00*%
%TF.ProjectId,led_buck_3a,6c65645f-6275-4636-9b5f-33612e6b6963,rev?*%
%TF.SameCoordinates,Original*%
%TF.FileFunction,Legend,Top*%
%TF.FilePolarity,Positive*%
%FSLAX46Y46*%
G04 Gerber Fmt 4.6, Leading zero omitted, Abs format (unit mm)*
G04 Created by KiCad (PCBNEW 6.0.7-f9a2dced07~116~ubuntu22.04.1) date 2022-09-29 21:23:46*
%MOMM*%
%LPD*%
G01*
G04 APERTURE LIST*
%ADD10C,0.200000*%
%ADD11C,0.300000*%
%ADD12C,0.150000*%
%ADD13C,0.015000*%
%ADD14C,0.120000*%
%ADD15C,0.127000*%
G04 APERTURE END LIST*
D10*
X52257619Y-68006190D02*
X51448095Y-68006190D01*
X51352857Y-68053809D01*
X51305238Y-68101428D01*
X51257619Y-68196666D01*
X51257619Y-68387142D01*
X51305238Y-68482380D01*
X51352857Y-68530000D01*
X51448095Y-68577619D01*
X52257619Y-68577619D01*
X51257619Y-69053809D02*
X52257619Y-69053809D01*
X52257619Y-69434761D01*
X52210000Y-69530000D01*
X52162380Y-69577619D01*
X52067142Y-69625238D01*
X51924285Y-69625238D01*
X51829047Y-69577619D01*
X51781428Y-69530000D01*
X51733809Y-69434761D01*
X51733809Y-69053809D01*
X51257619Y-70053809D02*
X52257619Y-70053809D01*
X52257619Y-70291904D01*
X52210000Y-70434761D01*
X52114761Y-70530000D01*
X52019523Y-70577619D01*
X51829047Y-70625238D01*
X51686190Y-70625238D01*
X51495714Y-70577619D01*
X51400476Y-70530000D01*
X51305238Y-70434761D01*
X51257619Y-70291904D01*
X51257619Y-70053809D01*
X51257619Y-71053809D02*
X52257619Y-71053809D01*
X54137619Y-68669523D02*
X54137619Y-68193333D01*
X53661428Y-68145714D01*
X53709047Y-68193333D01*
X53756666Y-68288571D01*
X53756666Y-68526666D01*
X53709047Y-68621904D01*
X53661428Y-68669523D01*
X53566190Y-68717142D01*
X53328095Y-68717142D01*
X53232857Y-68669523D01*
X53185238Y-68621904D01*
X53137619Y-68526666D01*
X53137619Y-68288571D01*
X53185238Y-68193333D01*
X53232857Y-68145714D01*
X54137619Y-69002857D02*
X53137619Y-69336190D01*
X54137619Y-69669523D01*
D11*
X46107142Y-31271071D02*
X45392857Y-31271071D01*
X45392857Y-29771071D01*
X46607142Y-30485357D02*
X47107142Y-30485357D01*
X47321428Y-31271071D02*
X46607142Y-31271071D01*
X46607142Y-29771071D01*
X47321428Y-29771071D01*
X47964285Y-31271071D02*
X47964285Y-29771071D01*
X48321428Y-29771071D01*
X48535714Y-29842500D01*
X48678571Y-29985357D01*
X48750000Y-30128214D01*
X48821428Y-30413928D01*
X48821428Y-30628214D01*
X48750000Y-30913928D01*
X48678571Y-31056785D01*
X48535714Y-31199642D01*
X48321428Y-31271071D01*
X47964285Y-31271071D01*
X50464285Y-30271071D02*
X50821428Y-31271071D01*
X51178571Y-30271071D01*
X52464285Y-29771071D02*
X51750000Y-29771071D01*
X51678571Y-30485357D01*
X51750000Y-30413928D01*
X51892857Y-30342500D01*
X52250000Y-30342500D01*
X52392857Y-30413928D01*
X52464285Y-30485357D01*
X52535714Y-30628214D01*
X52535714Y-30985357D01*
X52464285Y-31128214D01*
X52392857Y-31199642D01*
X52250000Y-31271071D01*
X51892857Y-31271071D01*
X51750000Y-31199642D01*
X51678571Y-31128214D01*
X53178571Y-31128214D02*
X53250000Y-31199642D01*
X53178571Y-31271071D01*
X53107142Y-31199642D01*
X53178571Y-31128214D01*
X53178571Y-31271071D01*
X54178571Y-29771071D02*
X54321428Y-29771071D01*
X54464285Y-29842500D01*
X54535714Y-29913928D01*
X54607142Y-30056785D01*
X54678571Y-30342500D01*
X54678571Y-30699642D01*
X54607142Y-30985357D01*
X54535714Y-31128214D01*
X54464285Y-31199642D01*
X54321428Y-31271071D01*
X54178571Y-31271071D01*
X54035714Y-31199642D01*
X53964285Y-31128214D01*
X53892857Y-30985357D01*
X53821428Y-30699642D01*
X53821428Y-30342500D01*
X53892857Y-30056785D01*
X53964285Y-29913928D01*
X54035714Y-29842500D01*
X54178571Y-29771071D01*
X46250000Y-32257500D02*
X46107142Y-32186071D01*
X45892857Y-32186071D01*
X45678571Y-32257500D01*
X45535714Y-32400357D01*
X45464285Y-32543214D01*
X45392857Y-32828928D01*
X45392857Y-33043214D01*
X45464285Y-33328928D01*
X45535714Y-33471785D01*
X45678571Y-33614642D01*
X45892857Y-33686071D01*
X46035714Y-33686071D01*
X46250000Y-33614642D01*
X46321428Y-33543214D01*
X46321428Y-33043214D01*
X46035714Y-33043214D01*
X46892857Y-33614642D02*
X47107142Y-33686071D01*
X47464285Y-33686071D01*
X47607142Y-33614642D01*
X47678571Y-33543214D01*
X47750000Y-33400357D01*
X47750000Y-33257500D01*
X47678571Y-33114642D01*
X47607142Y-33043214D01*
X47464285Y-32971785D01*
X47178571Y-32900357D01*
X47035714Y-32828928D01*
X46964285Y-32757500D01*
X46892857Y-32614642D01*
X46892857Y-32471785D01*
X46964285Y-32328928D01*
X47035714Y-32257500D01*
X47178571Y-32186071D01*
X47535714Y-32186071D01*
X47750000Y-32257500D01*
X49464285Y-32328928D02*
X49535714Y-32257500D01*
X49678571Y-32186071D01*
X50035714Y-32186071D01*
X50178571Y-32257500D01*
X50250000Y-32328928D01*
X50321428Y-32471785D01*
X50321428Y-32614642D01*
X50250000Y-32828928D01*
X49392857Y-33686071D01*
X50321428Y-33686071D01*
X51250000Y-32186071D02*
X51392857Y-32186071D01*
X51535714Y-32257500D01*
X51607142Y-32328928D01*
X51678571Y-32471785D01*
X51750000Y-32757500D01*
X51750000Y-33114642D01*
X51678571Y-33400357D01*
X51607142Y-33543214D01*
X51535714Y-33614642D01*
X51392857Y-33686071D01*
X51250000Y-33686071D01*
X51107142Y-33614642D01*
X51035714Y-33543214D01*
X50964285Y-33400357D01*
X50892857Y-33114642D01*
X50892857Y-32757500D01*
X50964285Y-32471785D01*
X51035714Y-32328928D01*
X51107142Y-32257500D01*
X51250000Y-32186071D01*
X52321428Y-32328928D02*
X52392857Y-32257500D01*
X52535714Y-32186071D01*
X52892857Y-32186071D01*
X53035714Y-32257500D01*
X53107142Y-32328928D01*
X53178571Y-32471785D01*
X53178571Y-32614642D01*
X53107142Y-32828928D01*
X52250000Y-33686071D01*
X53178571Y-33686071D01*
X53750000Y-32328928D02*
X53821428Y-32257500D01*
X53964285Y-32186071D01*
X54321428Y-32186071D01*
X54464285Y-32257500D01*
X54535714Y-32328928D01*
X54607142Y-32471785D01*
X54607142Y-32614642D01*
X54535714Y-32828928D01*
X53678571Y-33686071D01*
X54607142Y-33686071D01*
D10*
X47017619Y-68794761D02*
X47493809Y-68461428D01*
X47017619Y-68223333D02*
X48017619Y-68223333D01*
X48017619Y-68604285D01*
X47970000Y-68699523D01*
X47922380Y-68747142D01*
X47827142Y-68794761D01*
X47684285Y-68794761D01*
X47589047Y-68747142D01*
X47541428Y-68699523D01*
X47493809Y-68604285D01*
X47493809Y-68223333D01*
X47017619Y-69128095D02*
X47684285Y-69651904D01*
X47684285Y-69128095D02*
X47017619Y-69651904D01*
X47017619Y-70032857D02*
X48017619Y-70032857D01*
X48017619Y-70270952D01*
X47970000Y-70413809D01*
X47874761Y-70509047D01*
X47779523Y-70556666D01*
X47589047Y-70604285D01*
X47446190Y-70604285D01*
X47255714Y-70556666D01*
X47160476Y-70509047D01*
X47065238Y-70413809D01*
X47017619Y-70270952D01*
X47017619Y-70032857D01*
X45997619Y-68159523D02*
X45997619Y-68730952D01*
X44997619Y-68445238D02*
X45997619Y-68445238D01*
X44997619Y-68969047D02*
X45664285Y-69492857D01*
X45664285Y-68969047D02*
X44997619Y-69492857D01*
X44997619Y-69873809D02*
X45997619Y-69873809D01*
X45997619Y-70111904D01*
X45950000Y-70254761D01*
X45854761Y-70350000D01*
X45759523Y-70397619D01*
X45569047Y-70445238D01*
X45426190Y-70445238D01*
X45235714Y-70397619D01*
X45140476Y-70350000D01*
X45045238Y-70254761D01*
X44997619Y-70111904D01*
X44997619Y-69873809D01*
X49940000Y-68698095D02*
X49987619Y-68602857D01*
X49987619Y-68460000D01*
X49940000Y-68317142D01*
X49844761Y-68221904D01*
X49749523Y-68174285D01*
X49559047Y-68126666D01*
X49416190Y-68126666D01*
X49225714Y-68174285D01*
X49130476Y-68221904D01*
X49035238Y-68317142D01*
X48987619Y-68460000D01*
X48987619Y-68555238D01*
X49035238Y-68698095D01*
X49082857Y-68745714D01*
X49416190Y-68745714D01*
X49416190Y-68555238D01*
X48987619Y-69174285D02*
X49987619Y-69174285D01*
X48987619Y-69745714D01*
X49987619Y-69745714D01*
X48987619Y-70221904D02*
X49987619Y-70221904D01*
X49987619Y-70460000D01*
X49940000Y-70602857D01*
X49844761Y-70698095D01*
X49749523Y-70745714D01*
X49559047Y-70793333D01*
X49416190Y-70793333D01*
X49225714Y-70745714D01*
X49130476Y-70698095D01*
X49035238Y-70602857D01*
X48987619Y-70460000D01*
X48987619Y-70221904D01*
D12*
%TO.C,TP4*%
X46744095Y-61758380D02*
X47315523Y-61758380D01*
X47029809Y-62758380D02*
X47029809Y-61758380D01*
X47648857Y-62758380D02*
X47648857Y-61758380D01*
X48029809Y-61758380D01*
X48125047Y-61806000D01*
X48172666Y-61853619D01*
X48220285Y-61948857D01*
X48220285Y-62091714D01*
X48172666Y-62186952D01*
X48125047Y-62234571D01*
X48029809Y-62282190D01*
X47648857Y-62282190D01*
X49077428Y-62091714D02*
X49077428Y-62758380D01*
X48839333Y-61710761D02*
X48601238Y-62425047D01*
X49220285Y-62425047D01*
%TO.C,TP1*%
X48776095Y-61758380D02*
X49347523Y-61758380D01*
X49061809Y-62758380D02*
X49061809Y-61758380D01*
X49680857Y-62758380D02*
X49680857Y-61758380D01*
X50061809Y-61758380D01*
X50157047Y-61806000D01*
X50204666Y-61853619D01*
X50252285Y-61948857D01*
X50252285Y-62091714D01*
X50204666Y-62186952D01*
X50157047Y-62234571D01*
X50061809Y-62282190D01*
X49680857Y-62282190D01*
X51204666Y-62758380D02*
X50633238Y-62758380D01*
X50918952Y-62758380D02*
X50918952Y-61758380D01*
X50823714Y-61901238D01*
X50728476Y-61996476D01*
X50633238Y-62044095D01*
%TO.C,C4*%
X60849333Y-34151142D02*
X60801714Y-34198761D01*
X60658857Y-34246380D01*
X60563619Y-34246380D01*
X60420761Y-34198761D01*
X60325523Y-34103523D01*
X60277904Y-34008285D01*
X60230285Y-33817809D01*
X60230285Y-33674952D01*
X60277904Y-33484476D01*
X60325523Y-33389238D01*
X60420761Y-33294000D01*
X60563619Y-33246380D01*
X60658857Y-33246380D01*
X60801714Y-33294000D01*
X60849333Y-33341619D01*
X61706476Y-33579714D02*
X61706476Y-34246380D01*
X61468380Y-33198761D02*
X61230285Y-33913047D01*
X61849333Y-33913047D01*
%TO.C,C5*%
X57993333Y-55707142D02*
X57945714Y-55754761D01*
X57802857Y-55802380D01*
X57707619Y-55802380D01*
X57564761Y-55754761D01*
X57469523Y-55659523D01*
X57421904Y-55564285D01*
X57374285Y-55373809D01*
X57374285Y-55230952D01*
X57421904Y-55040476D01*
X57469523Y-54945238D01*
X57564761Y-54850000D01*
X57707619Y-54802380D01*
X57802857Y-54802380D01*
X57945714Y-54850000D01*
X57993333Y-54897619D01*
X58898095Y-54802380D02*
X58421904Y-54802380D01*
X58374285Y-55278571D01*
X58421904Y-55230952D01*
X58517142Y-55183333D01*
X58755238Y-55183333D01*
X58850476Y-55230952D01*
X58898095Y-55278571D01*
X58945714Y-55373809D01*
X58945714Y-55611904D01*
X58898095Y-55707142D01*
X58850476Y-55754761D01*
X58755238Y-55802380D01*
X58517142Y-55802380D01*
X58421904Y-55754761D01*
X58374285Y-55707142D01*
%TO.C,D1*%
X50561904Y-35352380D02*
X50561904Y-34352380D01*
X50800000Y-34352380D01*
X50942857Y-34400000D01*
X51038095Y-34495238D01*
X51085714Y-34590476D01*
X51133333Y-34780952D01*
X51133333Y-34923809D01*
X51085714Y-35114285D01*
X51038095Y-35209523D01*
X50942857Y-35304761D01*
X50800000Y-35352380D01*
X50561904Y-35352380D01*
X52085714Y-35352380D02*
X51514285Y-35352380D01*
X51800000Y-35352380D02*
X51800000Y-34352380D01*
X51704761Y-34495238D01*
X51609523Y-34590476D01*
X51514285Y-34638095D01*
%TO.C,D2*%
X55421904Y-65052380D02*
X55421904Y-64052380D01*
X55660000Y-64052380D01*
X55802857Y-64100000D01*
X55898095Y-64195238D01*
X55945714Y-64290476D01*
X55993333Y-64480952D01*
X55993333Y-64623809D01*
X55945714Y-64814285D01*
X55898095Y-64909523D01*
X55802857Y-65004761D01*
X55660000Y-65052380D01*
X55421904Y-65052380D01*
X56374285Y-64147619D02*
X56421904Y-64100000D01*
X56517142Y-64052380D01*
X56755238Y-64052380D01*
X56850476Y-64100000D01*
X56898095Y-64147619D01*
X56945714Y-64242857D01*
X56945714Y-64338095D01*
X56898095Y-64480952D01*
X56326666Y-65052380D01*
X56945714Y-65052380D01*
%TO.C,R2*%
X53633333Y-56032380D02*
X53300000Y-55556190D01*
X53061904Y-56032380D02*
X53061904Y-55032380D01*
X53442857Y-55032380D01*
X53538095Y-55080000D01*
X53585714Y-55127619D01*
X53633333Y-55222857D01*
X53633333Y-55365714D01*
X53585714Y-55460952D01*
X53538095Y-55508571D01*
X53442857Y-55556190D01*
X53061904Y-55556190D01*
X54014285Y-55127619D02*
X54061904Y-55080000D01*
X54157142Y-55032380D01*
X54395238Y-55032380D01*
X54490476Y-55080000D01*
X54538095Y-55127619D01*
X54585714Y-55222857D01*
X54585714Y-55318095D01*
X54538095Y-55460952D01*
X53966666Y-56032380D01*
X54585714Y-56032380D01*
%TO.C,R3*%
X44044833Y-56033880D02*
X43711500Y-55557690D01*
X43473404Y-56033880D02*
X43473404Y-55033880D01*
X43854357Y-55033880D01*
X43949595Y-55081500D01*
X43997214Y-55129119D01*
X44044833Y-55224357D01*
X44044833Y-55367214D01*
X43997214Y-55462452D01*
X43949595Y-55510071D01*
X43854357Y-55557690D01*
X43473404Y-55557690D01*
X44378166Y-55033880D02*
X44997214Y-55033880D01*
X44663880Y-55414833D01*
X44806738Y-55414833D01*
X44901976Y-55462452D01*
X44949595Y-55510071D01*
X44997214Y-55605309D01*
X44997214Y-55843404D01*
X44949595Y-55938642D01*
X44901976Y-55986261D01*
X44806738Y-56033880D01*
X44521023Y-56033880D01*
X44425785Y-55986261D01*
X44378166Y-55938642D01*
%TO.C,R4*%
X41853333Y-56212380D02*
X41520000Y-55736190D01*
X41281904Y-56212380D02*
X41281904Y-55212380D01*
X41662857Y-55212380D01*
X41758095Y-55260000D01*
X41805714Y-55307619D01*
X41853333Y-55402857D01*
X41853333Y-55545714D01*
X41805714Y-55640952D01*
X41758095Y-55688571D01*
X41662857Y-55736190D01*
X41281904Y-55736190D01*
X42710476Y-55545714D02*
X42710476Y-56212380D01*
X42472380Y-55164761D02*
X42234285Y-55879047D01*
X42853333Y-55879047D01*
%TO.C,R5*%
X58023333Y-65054880D02*
X57690000Y-64578690D01*
X57451904Y-65054880D02*
X57451904Y-64054880D01*
X57832857Y-64054880D01*
X57928095Y-64102500D01*
X57975714Y-64150119D01*
X58023333Y-64245357D01*
X58023333Y-64388214D01*
X57975714Y-64483452D01*
X57928095Y-64531071D01*
X57832857Y-64578690D01*
X57451904Y-64578690D01*
X58928095Y-64054880D02*
X58451904Y-64054880D01*
X58404285Y-64531071D01*
X58451904Y-64483452D01*
X58547142Y-64435833D01*
X58785238Y-64435833D01*
X58880476Y-64483452D01*
X58928095Y-64531071D01*
X58975714Y-64626309D01*
X58975714Y-64864404D01*
X58928095Y-64959642D01*
X58880476Y-65007261D01*
X58785238Y-65054880D01*
X58547142Y-65054880D01*
X58451904Y-65007261D01*
X58404285Y-64959642D01*
%TO.C,R6*%
X45963333Y-62922380D02*
X45630000Y-62446190D01*
X45391904Y-62922380D02*
X45391904Y-61922380D01*
X45772857Y-61922380D01*
X45868095Y-61970000D01*
X45915714Y-62017619D01*
X45963333Y-62112857D01*
X45963333Y-62255714D01*
X45915714Y-62350952D01*
X45868095Y-62398571D01*
X45772857Y-62446190D01*
X45391904Y-62446190D01*
X46820476Y-61922380D02*
X46630000Y-61922380D01*
X46534761Y-61970000D01*
X46487142Y-62017619D01*
X46391904Y-62160476D01*
X46344285Y-62350952D01*
X46344285Y-62731904D01*
X46391904Y-62827142D01*
X46439523Y-62874761D01*
X46534761Y-62922380D01*
X46725238Y-62922380D01*
X46820476Y-62874761D01*
X46868095Y-62827142D01*
X46915714Y-62731904D01*
X46915714Y-62493809D01*
X46868095Y-62398571D01*
X46820476Y-62350952D01*
X46725238Y-62303333D01*
X46534761Y-62303333D01*
X46439523Y-62350952D01*
X46391904Y-62398571D01*
X46344285Y-62493809D01*
%TO.C,R7*%
X39233333Y-65532380D02*
X38900000Y-65056190D01*
X38661904Y-65532380D02*
X38661904Y-64532380D01*
X39042857Y-64532380D01*
X39138095Y-64580000D01*
X39185714Y-64627619D01*
X39233333Y-64722857D01*
X39233333Y-64865714D01*
X39185714Y-64960952D01*
X39138095Y-65008571D01*
X39042857Y-65056190D01*
X38661904Y-65056190D01*
X39566666Y-64532380D02*
X40233333Y-64532380D01*
X39804761Y-65532380D01*
%TO.C,U2*%
X47918095Y-56332380D02*
X47918095Y-57141904D01*
X47965714Y-57237142D01*
X48013333Y-57284761D01*
X48108571Y-57332380D01*
X48299047Y-57332380D01*
X48394285Y-57284761D01*
X48441904Y-57237142D01*
X48489523Y-57141904D01*
X48489523Y-56332380D01*
X48918095Y-56427619D02*
X48965714Y-56380000D01*
X49060952Y-56332380D01*
X49299047Y-56332380D01*
X49394285Y-56380000D01*
X49441904Y-56427619D01*
X49489523Y-56522857D01*
X49489523Y-56618095D01*
X49441904Y-56760952D01*
X48870476Y-57332380D01*
X49489523Y-57332380D01*
%TO.C,J3*%
X44916666Y-47222380D02*
X44916666Y-47936666D01*
X44869047Y-48079523D01*
X44773809Y-48174761D01*
X44630952Y-48222380D01*
X44535714Y-48222380D01*
X45297619Y-47222380D02*
X45916666Y-47222380D01*
X45583333Y-47603333D01*
X45726190Y-47603333D01*
X45821428Y-47650952D01*
X45869047Y-47698571D01*
X45916666Y-47793809D01*
X45916666Y-48031904D01*
X45869047Y-48127142D01*
X45821428Y-48174761D01*
X45726190Y-48222380D01*
X45440476Y-48222380D01*
X45345238Y-48174761D01*
X45297619Y-48127142D01*
D13*
%TO.C,U1*%
X56838095Y-34452380D02*
X56838095Y-35261904D01*
X56885714Y-35357142D01*
X56933333Y-35404761D01*
X57028571Y-35452380D01*
X57219047Y-35452380D01*
X57314285Y-35404761D01*
X57361904Y-35357142D01*
X57409523Y-35261904D01*
X57409523Y-34452380D01*
X58409523Y-35452380D02*
X57838095Y-35452380D01*
X58123809Y-35452380D02*
X58123809Y-34452380D01*
X58028571Y-34595238D01*
X57933333Y-34690476D01*
X57838095Y-34738095D01*
D12*
%TO.C,C6*%
X55747333Y-55901142D02*
X55699714Y-55948761D01*
X55556857Y-55996380D01*
X55461619Y-55996380D01*
X55318761Y-55948761D01*
X55223523Y-55853523D01*
X55175904Y-55758285D01*
X55128285Y-55567809D01*
X55128285Y-55424952D01*
X55175904Y-55234476D01*
X55223523Y-55139238D01*
X55318761Y-55044000D01*
X55461619Y-54996380D01*
X55556857Y-54996380D01*
X55699714Y-55044000D01*
X55747333Y-55091619D01*
X56604476Y-54996380D02*
X56414000Y-54996380D01*
X56318761Y-55044000D01*
X56271142Y-55091619D01*
X56175904Y-55234476D01*
X56128285Y-55424952D01*
X56128285Y-55805904D01*
X56175904Y-55901142D01*
X56223523Y-55948761D01*
X56318761Y-55996380D01*
X56509238Y-55996380D01*
X56604476Y-55948761D01*
X56652095Y-55901142D01*
X56699714Y-55805904D01*
X56699714Y-55567809D01*
X56652095Y-55472571D01*
X56604476Y-55424952D01*
X56509238Y-55377333D01*
X56318761Y-55377333D01*
X56223523Y-55424952D01*
X56175904Y-55472571D01*
X56128285Y-55567809D01*
%TO.C,L1*%
X37533333Y-36152380D02*
X37057142Y-36152380D01*
X37057142Y-35152380D01*
X38390476Y-36152380D02*
X37819047Y-36152380D01*
X38104761Y-36152380D02*
X38104761Y-35152380D01*
X38009523Y-35295238D01*
X37914285Y-35390476D01*
X37819047Y-35438095D01*
%TO.C,C1*%
X51233333Y-44837142D02*
X51185714Y-44884761D01*
X51042857Y-44932380D01*
X50947619Y-44932380D01*
X50804761Y-44884761D01*
X50709523Y-44789523D01*
X50661904Y-44694285D01*
X50614285Y-44503809D01*
X50614285Y-44360952D01*
X50661904Y-44170476D01*
X50709523Y-44075238D01*
X50804761Y-43980000D01*
X50947619Y-43932380D01*
X51042857Y-43932380D01*
X51185714Y-43980000D01*
X51233333Y-44027619D01*
X52185714Y-44932380D02*
X51614285Y-44932380D01*
X51900000Y-44932380D02*
X51900000Y-43932380D01*
X51804761Y-44075238D01*
X51709523Y-44170476D01*
X51614285Y-44218095D01*
%TO.C,C7*%
X39513333Y-56117142D02*
X39465714Y-56164761D01*
X39322857Y-56212380D01*
X39227619Y-56212380D01*
X39084761Y-56164761D01*
X38989523Y-56069523D01*
X38941904Y-55974285D01*
X38894285Y-55783809D01*
X38894285Y-55640952D01*
X38941904Y-55450476D01*
X38989523Y-55355238D01*
X39084761Y-55260000D01*
X39227619Y-55212380D01*
X39322857Y-55212380D01*
X39465714Y-55260000D01*
X39513333Y-55307619D01*
X39846666Y-55212380D02*
X40513333Y-55212380D01*
X40084761Y-56212380D01*
%TO.C,R1*%
X63013333Y-42688380D02*
X62680000Y-42212190D01*
X62441904Y-42688380D02*
X62441904Y-41688380D01*
X62822857Y-41688380D01*
X62918095Y-41736000D01*
X62965714Y-41783619D01*
X63013333Y-41878857D01*
X63013333Y-42021714D01*
X62965714Y-42116952D01*
X62918095Y-42164571D01*
X62822857Y-42212190D01*
X62441904Y-42212190D01*
X63965714Y-42688380D02*
X63394285Y-42688380D01*
X63680000Y-42688380D02*
X63680000Y-41688380D01*
X63584761Y-41831238D01*
X63489523Y-41926476D01*
X63394285Y-41974095D01*
%TO.C,C2*%
X48533333Y-40157142D02*
X48485714Y-40204761D01*
X48342857Y-40252380D01*
X48247619Y-40252380D01*
X48104761Y-40204761D01*
X48009523Y-40109523D01*
X47961904Y-40014285D01*
X47914285Y-39823809D01*
X47914285Y-39680952D01*
X47961904Y-39490476D01*
X48009523Y-39395238D01*
X48104761Y-39300000D01*
X48247619Y-39252380D01*
X48342857Y-39252380D01*
X48485714Y-39300000D01*
X48533333Y-39347619D01*
X48914285Y-39347619D02*
X48961904Y-39300000D01*
X49057142Y-39252380D01*
X49295238Y-39252380D01*
X49390476Y-39300000D01*
X49438095Y-39347619D01*
X49485714Y-39442857D01*
X49485714Y-39538095D01*
X49438095Y-39680952D01*
X48866666Y-40252380D01*
X49485714Y-40252380D01*
%TO.C,Q1*%
X44504761Y-36347619D02*
X44409523Y-36300000D01*
X44314285Y-36204761D01*
X44171428Y-36061904D01*
X44076190Y-36014285D01*
X43980952Y-36014285D01*
X44028571Y-36252380D02*
X43933333Y-36204761D01*
X43838095Y-36109523D01*
X43790476Y-35919047D01*
X43790476Y-35585714D01*
X43838095Y-35395238D01*
X43933333Y-35300000D01*
X44028571Y-35252380D01*
X44219047Y-35252380D01*
X44314285Y-35300000D01*
X44409523Y-35395238D01*
X44457142Y-35585714D01*
X44457142Y-35919047D01*
X44409523Y-36109523D01*
X44314285Y-36204761D01*
X44219047Y-36252380D01*
X44028571Y-36252380D01*
X45409523Y-36252380D02*
X44838095Y-36252380D01*
X45123809Y-36252380D02*
X45123809Y-35252380D01*
X45028571Y-35395238D01*
X44933333Y-35490476D01*
X44838095Y-35538095D01*
%TO.C,R8*%
X51483333Y-64289880D02*
X51150000Y-63813690D01*
X50911904Y-64289880D02*
X50911904Y-63289880D01*
X51292857Y-63289880D01*
X51388095Y-63337500D01*
X51435714Y-63385119D01*
X51483333Y-63480357D01*
X51483333Y-63623214D01*
X51435714Y-63718452D01*
X51388095Y-63766071D01*
X51292857Y-63813690D01*
X50911904Y-63813690D01*
X52054761Y-63718452D02*
X51959523Y-63670833D01*
X51911904Y-63623214D01*
X51864285Y-63527976D01*
X51864285Y-63480357D01*
X51911904Y-63385119D01*
X51959523Y-63337500D01*
X52054761Y-63289880D01*
X52245238Y-63289880D01*
X52340476Y-63337500D01*
X52388095Y-63385119D01*
X52435714Y-63480357D01*
X52435714Y-63527976D01*
X52388095Y-63623214D01*
X52340476Y-63670833D01*
X52245238Y-63718452D01*
X52054761Y-63718452D01*
X51959523Y-63766071D01*
X51911904Y-63813690D01*
X51864285Y-63908928D01*
X51864285Y-64099404D01*
X51911904Y-64194642D01*
X51959523Y-64242261D01*
X52054761Y-64289880D01*
X52245238Y-64289880D01*
X52340476Y-64242261D01*
X52388095Y-64194642D01*
X52435714Y-64099404D01*
X52435714Y-63908928D01*
X52388095Y-63813690D01*
X52340476Y-63766071D01*
X52245238Y-63718452D01*
%TO.C,C3*%
X56733333Y-47857142D02*
X56685714Y-47904761D01*
X56542857Y-47952380D01*
X56447619Y-47952380D01*
X56304761Y-47904761D01*
X56209523Y-47809523D01*
X56161904Y-47714285D01*
X56114285Y-47523809D01*
X56114285Y-47380952D01*
X56161904Y-47190476D01*
X56209523Y-47095238D01*
X56304761Y-47000000D01*
X56447619Y-46952380D01*
X56542857Y-46952380D01*
X56685714Y-47000000D01*
X56733333Y-47047619D01*
X57066666Y-46952380D02*
X57685714Y-46952380D01*
X57352380Y-47333333D01*
X57495238Y-47333333D01*
X57590476Y-47380952D01*
X57638095Y-47428571D01*
X57685714Y-47523809D01*
X57685714Y-47761904D01*
X57638095Y-47857142D01*
X57590476Y-47904761D01*
X57495238Y-47952380D01*
X57209523Y-47952380D01*
X57114285Y-47904761D01*
X57066666Y-47857142D01*
%TO.C,J4*%
X55686666Y-65792380D02*
X55686666Y-66506666D01*
X55639047Y-66649523D01*
X55543809Y-66744761D01*
X55400952Y-66792380D01*
X55305714Y-66792380D01*
X56591428Y-66125714D02*
X56591428Y-66792380D01*
X56353333Y-65744761D02*
X56115238Y-66459047D01*
X56734285Y-66459047D01*
%TO.C,C8*%
X41543333Y-65407142D02*
X41495714Y-65454761D01*
X41352857Y-65502380D01*
X41257619Y-65502380D01*
X41114761Y-65454761D01*
X41019523Y-65359523D01*
X40971904Y-65264285D01*
X40924285Y-65073809D01*
X40924285Y-64930952D01*
X40971904Y-64740476D01*
X41019523Y-64645238D01*
X41114761Y-64550000D01*
X41257619Y-64502380D01*
X41352857Y-64502380D01*
X41495714Y-64550000D01*
X41543333Y-64597619D01*
X42114761Y-64930952D02*
X42019523Y-64883333D01*
X41971904Y-64835714D01*
X41924285Y-64740476D01*
X41924285Y-64692857D01*
X41971904Y-64597619D01*
X42019523Y-64550000D01*
X42114761Y-64502380D01*
X42305238Y-64502380D01*
X42400476Y-64550000D01*
X42448095Y-64597619D01*
X42495714Y-64692857D01*
X42495714Y-64740476D01*
X42448095Y-64835714D01*
X42400476Y-64883333D01*
X42305238Y-64930952D01*
X42114761Y-64930952D01*
X42019523Y-64978571D01*
X41971904Y-65026190D01*
X41924285Y-65121428D01*
X41924285Y-65311904D01*
X41971904Y-65407142D01*
X42019523Y-65454761D01*
X42114761Y-65502380D01*
X42305238Y-65502380D01*
X42400476Y-65454761D01*
X42448095Y-65407142D01*
X42495714Y-65311904D01*
X42495714Y-65121428D01*
X42448095Y-65026190D01*
X42400476Y-64978571D01*
X42305238Y-64930952D01*
%TO.C,J1*%
X59666666Y-46404380D02*
X59666666Y-47118666D01*
X59619047Y-47261523D01*
X59523809Y-47356761D01*
X59380952Y-47404380D01*
X59285714Y-47404380D01*
X60666666Y-47404380D02*
X60095238Y-47404380D01*
X60380952Y-47404380D02*
X60380952Y-46404380D01*
X60285714Y-46547238D01*
X60190476Y-46642476D01*
X60095238Y-46690095D01*
%TO.C,J2*%
X39666666Y-46404380D02*
X39666666Y-47118666D01*
X39619047Y-47261523D01*
X39523809Y-47356761D01*
X39380952Y-47404380D01*
X39285714Y-47404380D01*
X40095238Y-46499619D02*
X40142857Y-46452000D01*
X40238095Y-46404380D01*
X40476190Y-46404380D01*
X40571428Y-46452000D01*
X40619047Y-46499619D01*
X40666666Y-46594857D01*
X40666666Y-46690095D01*
X40619047Y-46832952D01*
X40047619Y-47404380D01*
X40666666Y-47404380D01*
D14*
%TO.C,TP4*%
X47306000Y-64454000D02*
X47306000Y-63054000D01*
X48706000Y-63054000D02*
X48706000Y-64454000D01*
X47306000Y-63054000D02*
X48706000Y-63054000D01*
X48706000Y-64454000D02*
X47306000Y-64454000D01*
%TO.C,TP1*%
X49338000Y-64454000D02*
X49338000Y-63054000D01*
X50738000Y-63054000D02*
X50738000Y-64454000D01*
X49338000Y-63054000D02*
X50738000Y-63054000D01*
X50738000Y-64454000D02*
X49338000Y-64454000D01*
%TO.C,C4*%
X58341422Y-34750000D02*
X58858578Y-34750000D01*
X58341422Y-33330000D02*
X58858578Y-33330000D01*
%TO.C,C5*%
X57330000Y-58401078D02*
X57330000Y-57883922D01*
X58750000Y-58401078D02*
X58750000Y-57883922D01*
%TO.C,D1*%
X54800000Y-38550000D02*
X54800000Y-35250000D01*
X54800000Y-35250000D02*
X49400000Y-35250000D01*
X54800000Y-38550000D02*
X49400000Y-38550000D01*
%TO.C,D2*%
X56860000Y-60437500D02*
X54940000Y-60437500D01*
X54940000Y-60437500D02*
X54940000Y-63122500D01*
X56860000Y-63122500D02*
X56860000Y-60437500D01*
%TO.C,R2*%
X54380000Y-58411078D02*
X54380000Y-57893922D01*
X52960000Y-58411078D02*
X52960000Y-57893922D01*
%TO.C,R3*%
X43497500Y-57938922D02*
X43497500Y-58456078D01*
X44917500Y-57938922D02*
X44917500Y-58456078D01*
%TO.C,R4*%
X42697500Y-58476078D02*
X42697500Y-57958922D01*
X41277500Y-58476078D02*
X41277500Y-57958922D01*
%TO.C,R5*%
X57380000Y-62398578D02*
X57380000Y-61881422D01*
X58800000Y-62398578D02*
X58800000Y-61881422D01*
%TO.C,R6*%
X44997500Y-62668578D02*
X44997500Y-62151422D01*
X43577500Y-62668578D02*
X43577500Y-62151422D01*
%TO.C,R7*%
X38737500Y-62131422D02*
X38737500Y-62648578D01*
X40157500Y-62131422D02*
X40157500Y-62648578D01*
%TO.C,U2*%
X48460000Y-58380000D02*
X48010000Y-58380000D01*
X50780000Y-58380000D02*
X51230000Y-58380000D01*
X51230000Y-58380000D02*
X51230000Y-58830000D01*
X48010000Y-58380000D02*
X48010000Y-58830000D01*
X50780000Y-61600000D02*
X51230000Y-61600000D01*
X48010000Y-61600000D02*
X48010000Y-61150000D01*
X48460000Y-61600000D02*
X48010000Y-61600000D01*
%TO.C,J3*%
X55085000Y-49140000D02*
X52760000Y-49140000D01*
X55085000Y-49990000D02*
X55085000Y-49140000D01*
X55085000Y-53510000D02*
X55085000Y-54360000D01*
X44915000Y-54360000D02*
X44915000Y-53510000D01*
X44915000Y-49140000D02*
X47240000Y-49140000D01*
X44915000Y-49990000D02*
X44915000Y-49140000D01*
X55085000Y-54360000D02*
X44915000Y-54360000D01*
X52760000Y-49140000D02*
X52760000Y-46750000D01*
D15*
%TO.C,U1*%
X57050000Y-39350000D02*
X57050000Y-36250000D01*
X60150000Y-39350000D02*
X60150000Y-36250000D01*
D10*
X57750000Y-40245000D02*
G75*
G03*
X57750000Y-40245000I-100000J0D01*
G01*
D14*
%TO.C,C6*%
X56624000Y-58402578D02*
X56624000Y-57885422D01*
X55204000Y-58402578D02*
X55204000Y-57885422D01*
%TO.C,L1*%
X41160000Y-37950000D02*
X41160000Y-43450000D01*
X35900000Y-44060000D02*
X35050000Y-44060000D01*
X39700000Y-37340000D02*
X40550000Y-37340000D01*
X35050000Y-37340000D02*
X35900000Y-37340000D01*
X40550000Y-44060000D02*
X39700000Y-44060000D01*
X34440000Y-43450000D02*
X34440000Y-37950000D01*
X40550000Y-44060000D02*
G75*
G03*
X41160000Y-43450000I0J610000D01*
G01*
X34440000Y-43450000D02*
G75*
G03*
X35050000Y-44060000I610000J0D01*
G01*
X35050000Y-37340000D02*
G75*
G03*
X34440000Y-37950000I0J-610000D01*
G01*
X41160000Y-37950000D02*
G75*
G03*
X40550000Y-37340000I-610000J0D01*
G01*
%TO.C,C1*%
X51661252Y-42065000D02*
X51138748Y-42065000D01*
X51661252Y-43535000D02*
X51138748Y-43535000D01*
%TO.C,C7*%
X40357500Y-58483578D02*
X40357500Y-57966422D01*
X38937500Y-58483578D02*
X38937500Y-57966422D01*
%TO.C,R1*%
X60252064Y-44110000D02*
X56147936Y-44110000D01*
X60252064Y-40690000D02*
X56147936Y-40690000D01*
%TO.C,C2*%
X51858578Y-40610000D02*
X51341422Y-40610000D01*
X51858578Y-39190000D02*
X51341422Y-39190000D01*
%TO.C,Q1*%
X46935000Y-43360000D02*
X47285000Y-43360000D01*
X46985000Y-37240000D02*
X47285000Y-37240000D01*
X47285000Y-37240000D02*
X47285000Y-43360000D01*
X42215000Y-37240000D02*
X41915000Y-37240000D01*
X41915000Y-37240000D02*
X41915000Y-43360000D01*
%TO.C,R8*%
X54400000Y-61861422D02*
X54400000Y-62378578D01*
X52980000Y-61861422D02*
X52980000Y-62378578D01*
%TO.C,C3*%
X56703922Y-44990000D02*
X57221078Y-44990000D01*
X56703922Y-46410000D02*
X57221078Y-46410000D01*
%TO.C,J4*%
X52610000Y-65070000D02*
X52610000Y-67190000D01*
X54670000Y-65070000D02*
X54670000Y-66130000D01*
X44550000Y-65070000D02*
X44550000Y-67190000D01*
X53610000Y-65070000D02*
X54670000Y-65070000D01*
X52610000Y-65070000D02*
X44550000Y-65070000D01*
X52610000Y-67190000D02*
X44550000Y-67190000D01*
%TO.C,C8*%
X42702500Y-62128748D02*
X42702500Y-62651252D01*
X41232500Y-62128748D02*
X41232500Y-62651252D01*
%TO.C,J1*%
X62286000Y-50000000D02*
G75*
G03*
X62286000Y-50000000I-2286000J0D01*
G01*
%TO.C,J2*%
X42286000Y-50000000D02*
G75*
G03*
X42286000Y-50000000I-2286000J0D01*
G01*
%TD*%
M02*
