M48
; DRILL file {KiCad 8.0.9-8.0.9-0~ubuntu22.04.1} date 2025-09-24T08:27:35+0200
; FORMAT={-:-/ absolute / inch / decimal}
; #@! TF.CreationDate,2025-09-24T08:27:35+02:00
; #@! TF.GenerationSoftware,Kicad,Pcbnew,8.0.9-8.0.9-0~ubuntu22.04.1
; #@! TF.FileFunction,Plated,1,2,PTH
FMAT,2
INCH
; #@! TA.AperFunction,Plated,PTH,ViaDrill
T1C0.0118
; #@! TA.AperFunction,Plated,PTH,ViaDrill
T2C0.0157
; #@! TA.AperFunction,Plated,PTH,ComponentDrill
T3C0.0315
; #@! TA.AperFunction,Plated,PTH,ComponentDrill
T4C0.1181
%
G90
G05
T1
X1.4964Y-2.2559
X1.8898Y-1.815
X1.8898Y-2.126
X1.8898Y-2.1673
X1.9488Y-2.126
X1.9555Y-2.3642
X1.9854Y-2.2567
X1.9882Y-2.126
X2.0571Y-2.3685
X2.1122Y-1.8524
X2.1142Y-1.8898
X2.1142Y-1.9252
X2.1713Y-1.815
X2.2008Y-2.1949
X2.3798Y-2.3227
X2.3937Y-1.5472
T2
X1.7008Y-1.7598
X1.7402Y-1.7598
X1.7795Y-1.7598
X1.8228Y-1.7598
X1.8622Y-1.7598
X1.8701Y-1.7008
X1.9016Y-1.7598
X1.9429Y-1.7598
X1.9843Y-1.7598
X2.2717Y-1.2756
X2.2795Y-1.4882
X2.3071Y-1.3898
X2.3307Y-1.4882
X2.3858Y-1.4331
X2.3858Y-1.4882
T3
X1.7957Y-2.6035
X1.8744Y-2.6035
X1.9531Y-2.6035
X2.0319Y-2.6035
X2.1106Y-2.6035
T4
X1.5748Y-1.9685
X2.3622Y-1.9685
M30
