%TF.GenerationSoftware,KiCad,Pcbnew,8.0.9-8.0.9-0~ubuntu22.04.1*%
%TF.CreationDate,2025-09-24T08:27:35+02:00*%
%TF.ProjectId,led_buck_3a,6c65645f-6275-4636-9b5f-33612e6b6963,rev?*%
%TF.SameCoordinates,Original*%
%TF.FileFunction,Soldermask,Top*%
%TF.FilePolarity,Negative*%
%FSLAX46Y46*%
G04 Gerber Fmt 4.6, Leading zero omitted, Abs format (unit mm)*
G04 Created by KiCad (PCBNEW 8.0.9-8.0.9-0~ubuntu22.04.1) date 2025-09-24 08:27:35*
%MOMM*%
%LPD*%
G01*
G04 APERTURE LIST*
G04 Aperture macros list*
%AMRoundRect*
0 Rectangle with rounded corners*
0 $1 Rounding radius*
0 $2 $3 $4 $5 $6 $7 $8 $9 X,Y pos of 4 corners*
0 Add a 4 corners polygon primitive as box body*
4,1,4,$2,$3,$4,$5,$6,$7,$8,$9,$2,$3,0*
0 Add four circle primitives for the rounded corners*
1,1,$1+$1,$2,$3*
1,1,$1+$1,$4,$5*
1,1,$1+$1,$6,$7*
1,1,$1+$1,$8,$9*
0 Add four rect primitives between the rounded corners*
20,1,$1+$1,$2,$3,$4,$5,0*
20,1,$1+$1,$4,$5,$6,$7,0*
20,1,$1+$1,$6,$7,$8,$9,0*
20,1,$1+$1,$8,$9,$2,$3,0*%
%AMFreePoly0*
4,1,27,0.318424,0.146194,0.353779,0.131549,0.369999,0.120710,0.420710,0.069999,0.431549,0.053779,0.446194,0.018424,0.450000,-0.000711,0.450000,-0.050000,0.446194,-0.069135,0.431549,-0.104490,0.404490,-0.131549,0.369135,-0.146194,0.350000,-0.150000,-0.350000,-0.150000,-0.369135,-0.146194,-0.404490,-0.131549,-0.431549,-0.104490,-0.446194,-0.069135,-0.450000,-0.050000,-0.450000,0.050000,
-0.446194,0.069135,-0.431549,0.104490,-0.404490,0.131549,-0.369135,0.146194,-0.350000,0.150000,0.299289,0.150000,0.318424,0.146194,0.318424,0.146194,$1*%
%AMFreePoly1*
4,1,27,0.369135,0.146194,0.404490,0.131549,0.431549,0.104490,0.446194,0.069135,0.450000,0.050000,0.450000,0.000711,0.446194,-0.018424,0.431549,-0.053779,0.420710,-0.069999,0.369999,-0.120710,0.353779,-0.131549,0.318424,-0.146194,0.299289,-0.150000,-0.350000,-0.150000,-0.369135,-0.146194,-0.404490,-0.131549,-0.431549,-0.104490,-0.446194,-0.069135,-0.450000,-0.050000,-0.450000,0.050000,
-0.446194,0.069135,-0.431549,0.104490,-0.404490,0.131549,-0.369135,0.146194,-0.350000,0.150000,0.350000,0.150000,0.369135,0.146194,0.369135,0.146194,$1*%
%AMFreePoly2*
4,1,27,0.069135,0.446194,0.104490,0.431549,0.131549,0.404490,0.146194,0.369135,0.150000,0.350000,0.150000,-0.350000,0.146194,-0.369135,0.131549,-0.404490,0.104490,-0.431549,0.069135,-0.446194,0.050000,-0.450000,-0.050000,-0.450000,-0.069135,-0.446194,-0.104490,-0.431549,-0.131549,-0.404490,-0.146194,-0.369135,-0.150000,-0.350000,-0.150000,0.299289,-0.146194,0.318424,-0.131549,0.353779,
-0.120710,0.369999,-0.069999,0.420710,-0.053779,0.431549,-0.018424,0.446194,0.000711,0.450000,0.050000,0.450000,0.069135,0.446194,0.069135,0.446194,$1*%
%AMFreePoly3*
4,1,27,0.018424,0.446194,0.053779,0.431549,0.069999,0.420710,0.120710,0.369999,0.131549,0.353779,0.146194,0.318424,0.150000,0.299289,0.150000,-0.350000,0.146194,-0.369135,0.131549,-0.404490,0.104490,-0.431549,0.069135,-0.446194,0.050000,-0.450000,-0.050000,-0.450000,-0.069135,-0.446194,-0.104490,-0.431549,-0.131549,-0.404490,-0.146194,-0.369135,-0.150000,-0.350000,-0.150000,0.350000,
-0.146194,0.369135,-0.131549,0.404490,-0.104490,0.431549,-0.069135,0.446194,-0.050000,0.450000,-0.000711,0.450000,0.018424,0.446194,0.018424,0.446194,$1*%
%AMFreePoly4*
4,1,27,0.369135,0.146194,0.404490,0.131549,0.431549,0.104490,0.446194,0.069135,0.450000,0.050000,0.450000,-0.050000,0.446194,-0.069135,0.431549,-0.104490,0.404490,-0.131549,0.369135,-0.146194,0.350000,-0.150000,-0.299289,-0.150000,-0.318424,-0.146194,-0.353779,-0.131549,-0.369999,-0.120710,-0.420710,-0.069999,-0.431549,-0.053779,-0.446194,-0.018424,-0.450000,0.000711,-0.450000,0.050000,
-0.446194,0.069135,-0.431549,0.104490,-0.404490,0.131549,-0.369135,0.146194,-0.350000,0.150000,0.350000,0.150000,0.369135,0.146194,0.369135,0.146194,$1*%
%AMFreePoly5*
4,1,27,0.369135,0.146194,0.404490,0.131549,0.431549,0.104490,0.446194,0.069135,0.450000,0.050000,0.450000,-0.050000,0.446194,-0.069135,0.431549,-0.104490,0.404490,-0.131549,0.369135,-0.146194,0.350000,-0.150000,-0.350000,-0.150000,-0.369135,-0.146194,-0.404490,-0.131549,-0.431549,-0.104490,-0.446194,-0.069135,-0.450000,-0.050000,-0.450000,-0.000711,-0.446194,0.018424,-0.431549,0.053779,
-0.420710,0.069999,-0.369999,0.120710,-0.353779,0.131549,-0.318424,0.146194,-0.299289,0.150000,0.350000,0.150000,0.369135,0.146194,0.369135,0.146194,$1*%
%AMFreePoly6*
4,1,27,0.069135,0.446194,0.104490,0.431549,0.131549,0.404490,0.146194,0.369135,0.150000,0.350000,0.150000,-0.299289,0.146194,-0.318424,0.131549,-0.353779,0.120710,-0.369999,0.069999,-0.420710,0.053779,-0.431549,0.018424,-0.446194,-0.000711,-0.450000,-0.050000,-0.450000,-0.069135,-0.446194,-0.104490,-0.431549,-0.131549,-0.404490,-0.146194,-0.369135,-0.150000,-0.350000,-0.150000,0.350000,
-0.146194,0.369135,-0.131549,0.404490,-0.104490,0.431549,-0.069135,0.446194,-0.050000,0.450000,0.050000,0.450000,0.069135,0.446194,0.069135,0.446194,$1*%
%AMFreePoly7*
4,1,27,0.069135,0.446194,0.104490,0.431549,0.131549,0.404490,0.146194,0.369135,0.150000,0.350000,0.150000,-0.350000,0.146194,-0.369135,0.131549,-0.404490,0.104490,-0.431549,0.069135,-0.446194,0.050000,-0.450000,0.000711,-0.450000,-0.018424,-0.446194,-0.053779,-0.431549,-0.069999,-0.420710,-0.120710,-0.369999,-0.131549,-0.353779,-0.146194,-0.318424,-0.150000,-0.299289,-0.150000,0.350000,
-0.146194,0.369135,-0.131549,0.404490,-0.104490,0.431549,-0.069135,0.446194,-0.050000,0.450000,0.050000,0.450000,0.069135,0.446194,0.069135,0.446194,$1*%
%AMFreePoly8*
4,1,17,2.675000,1.605000,1.875000,1.605000,1.875000,0.935000,2.675000,0.935000,2.675000,0.335000,1.875000,0.335000,1.875000,-0.335000,2.675000,-0.335000,2.675000,-0.935000,1.875000,-0.935000,1.875000,-1.605000,2.675000,-1.605000,2.675000,-2.205000,-1.875000,-2.205000,-1.875000,2.205000,2.675000,2.205000,2.675000,1.605000,2.675000,1.605000,$1*%
G04 Aperture macros list end*
%ADD10RoundRect,0.268750X-0.268750X-0.481250X0.268750X-0.481250X0.268750X0.481250X-0.268750X0.481250X0*%
%ADD11RoundRect,0.268750X0.481250X-0.268750X0.481250X0.268750X-0.481250X0.268750X-0.481250X-0.268750X0*%
%ADD12RoundRect,0.050000X1.250000X0.900000X-1.250000X0.900000X-1.250000X-0.900000X1.250000X-0.900000X0*%
%ADD13RoundRect,0.268750X-0.481250X0.268750X-0.481250X-0.268750X0.481250X-0.268750X0.481250X0.268750X0*%
%ADD14FreePoly0,180.000000*%
%ADD15RoundRect,0.075000X0.375000X0.075000X-0.375000X0.075000X-0.375000X-0.075000X0.375000X-0.075000X0*%
%ADD16FreePoly1,180.000000*%
%ADD17FreePoly2,180.000000*%
%ADD18RoundRect,0.075000X0.075000X0.375000X-0.075000X0.375000X-0.075000X-0.375000X0.075000X-0.375000X0*%
%ADD19FreePoly3,180.000000*%
%ADD20FreePoly4,180.000000*%
%ADD21FreePoly5,180.000000*%
%ADD22FreePoly6,180.000000*%
%ADD23FreePoly7,180.000000*%
%ADD24RoundRect,0.050000X0.850000X0.850000X-0.850000X0.850000X-0.850000X-0.850000X0.850000X-0.850000X0*%
%ADD25C,3.300000*%
%ADD26RoundRect,0.050000X0.210000X-0.380000X0.210000X0.380000X-0.210000X0.380000X-0.210000X-0.380000X0*%
%ADD27RoundRect,0.050000X1.150000X-0.750000X1.150000X0.750000X-1.150000X0.750000X-1.150000X-0.750000X0*%
%ADD28RoundRect,0.050000X1.700000X-1.000000X1.700000X1.000000X-1.700000X1.000000X-1.700000X-1.000000X0*%
%ADD29RoundRect,0.275000X0.275000X0.500000X-0.275000X0.500000X-0.275000X-0.500000X0.275000X-0.500000X0*%
%ADD30RoundRect,0.268519X0.456481X1.456481X-0.456481X1.456481X-0.456481X-1.456481X0.456481X-1.456481X0*%
%ADD31RoundRect,0.268750X0.268750X0.481250X-0.268750X0.481250X-0.268750X-0.481250X0.268750X-0.481250X0*%
%ADD32FreePoly8,90.000000*%
%ADD33RoundRect,0.050000X0.250000X-0.425000X0.250000X0.425000X-0.250000X0.425000X-0.250000X-0.425000X0*%
%ADD34RoundRect,0.050000X-0.500000X-0.500000X0.500000X-0.500000X0.500000X0.500000X-0.500000X0.500000X0*%
%ADD35C,4.100000*%
%ADD36RoundRect,0.050000X-0.675000X0.675000X-0.675000X-0.675000X0.675000X-0.675000X0.675000X0.675000X0*%
%ADD37O,1.450000X1.450000*%
%ADD38C,0.600000*%
%ADD39RoundRect,0.050000X-0.500000X1.290000X-0.500000X-1.290000X0.500000X-1.290000X0.500000X1.290000X0*%
G04 APERTURE END LIST*
D10*
%TO.C,C4*%
X57662500Y-34040000D03*
X59537500Y-34040000D03*
%TD*%
D11*
%TO.C,C5*%
X58040000Y-59080000D03*
X58040000Y-57205000D03*
%TD*%
D12*
%TO.C,D1*%
X53400000Y-36900000D03*
X49400000Y-36900000D03*
%TD*%
D13*
%TO.C,D2*%
X55900000Y-61185000D03*
X55900000Y-63060000D03*
%TD*%
D11*
%TO.C,R2*%
X53670000Y-59090000D03*
X53670000Y-57215000D03*
%TD*%
D13*
%TO.C,R3*%
X44207500Y-57260000D03*
X44207500Y-59135000D03*
%TD*%
D11*
%TO.C,R4*%
X41987500Y-59155000D03*
X41987500Y-57280000D03*
%TD*%
%TO.C,R5*%
X58090000Y-63077500D03*
X58090000Y-61202500D03*
%TD*%
D14*
%TO.C,U2*%
X51070000Y-60790000D03*
D15*
X51070000Y-60390000D03*
X51070000Y-59990000D03*
X51070000Y-59590000D03*
D16*
X51070000Y-59190000D03*
D17*
X50420000Y-58540000D03*
D18*
X50020000Y-58540000D03*
X49620000Y-58540000D03*
X49220000Y-58540000D03*
D19*
X48820000Y-58540000D03*
D20*
X48170000Y-59190000D03*
D15*
X48170000Y-59590000D03*
X48170000Y-59990000D03*
X48170000Y-60390000D03*
D21*
X48170000Y-60790000D03*
D22*
X48820000Y-61440000D03*
D18*
X49220000Y-61440000D03*
X49620000Y-61440000D03*
X50020000Y-61440000D03*
D23*
X50420000Y-61440000D03*
D24*
X49620000Y-59990000D03*
%TD*%
D25*
%TO.C,H1*%
X32000000Y-50000000D03*
%TD*%
D26*
%TO.C,U1*%
X57650000Y-39285000D03*
X58600000Y-39285000D03*
X59550000Y-39285000D03*
X59550000Y-36315000D03*
X58600000Y-36315000D03*
X57650000Y-36315000D03*
D27*
X58600000Y-37800000D03*
%TD*%
D11*
%TO.C,C6*%
X55914000Y-59081500D03*
X55914000Y-57206500D03*
%TD*%
D28*
%TO.C,L1*%
X37800000Y-43550000D03*
X37800000Y-37850000D03*
%TD*%
D29*
%TO.C,C1*%
X52350000Y-42800000D03*
X50450000Y-42800000D03*
%TD*%
D11*
%TO.C,C7*%
X39647500Y-59162500D03*
X39647500Y-57287500D03*
%TD*%
D30*
%TO.C,R1*%
X61100000Y-42400000D03*
X55300000Y-42400000D03*
%TD*%
D31*
%TO.C,C2*%
X52537500Y-39900000D03*
X50662500Y-39900000D03*
%TD*%
D32*
%TO.C,Q1*%
X44600000Y-39650000D03*
D33*
X42695000Y-43200000D03*
X43965000Y-43200000D03*
X45235000Y-43200000D03*
X46505000Y-43200000D03*
%TD*%
D13*
%TO.C,R8*%
X53690000Y-61182500D03*
X53690000Y-63057500D03*
%TD*%
D34*
%TO.C,TP1*%
X50250000Y-63450000D03*
%TD*%
%TO.C,TP4*%
X48000000Y-63450000D03*
%TD*%
D35*
%TO.C,J2*%
X40000000Y-50000000D03*
%TD*%
%TO.C,J1*%
X60000000Y-50000000D03*
%TD*%
D25*
%TO.C,H2*%
X68000000Y-50000000D03*
%TD*%
D36*
%TO.C,J4*%
X53610000Y-66130000D03*
D37*
X51610000Y-66130000D03*
X49610000Y-66130000D03*
X47610000Y-66130000D03*
X45610000Y-66130000D03*
%TD*%
D38*
%TO.C,J3*%
X51000000Y-50000000D03*
X49000000Y-50000000D03*
D39*
X52000000Y-47915000D03*
X52000000Y-52085000D03*
X50000000Y-47915000D03*
X50000000Y-52085000D03*
X48000000Y-47915000D03*
X48000000Y-52085000D03*
%TD*%
M02*
