%TF.GenerationSoftware,KiCad,Pcbnew,5.1.6+dfsg1-1*%
%TF.CreationDate,2020-11-19T10:40:28+01:00*%
%TF.ProjectId,buck_3a_v4,6275636b-5f33-4615-9f76-342e6b696361,rev?*%
%TF.SameCoordinates,Original*%
%TF.FileFunction,Soldermask,Top*%
%TF.FilePolarity,Negative*%
%FSLAX46Y46*%
G04 Gerber Fmt 4.6, Leading zero omitted, Abs format (unit mm)*
G04 Created by KiCad (PCBNEW 5.1.6+dfsg1-1) date 2020-11-19 10:40:28*
%MOMM*%
%LPD*%
G01*
G04 APERTURE LIST*
%ADD10R,1.500000X1.490000*%
%ADD11R,4.960000X3.460000*%
%ADD12R,2.800000X3.700000*%
%ADD13C,4.100000*%
%ADD14C,3.300000*%
%ADD15O,1.450000X1.450000*%
%ADD16R,1.450000X1.450000*%
%ADD17R,1.800000X0.750000*%
%ADD18R,0.520000X0.860000*%
%ADD19R,2.400000X1.600000*%
%ADD20C,0.100000*%
%ADD21R,0.950000X0.600000*%
G04 APERTURE END LIST*
D10*
%TO.C,D1*%
X48638000Y-43320000D03*
X48638000Y-41480000D03*
D11*
X52620000Y-42400000D03*
%TD*%
D12*
%TO.C,L1*%
X45000000Y-39500000D03*
X36700000Y-39500000D03*
%TD*%
%TO.C,C6*%
G36*
G01*
X43881250Y-57400000D02*
X42918750Y-57400000D01*
G75*
G02*
X42650000Y-57131250I0J268750D01*
G01*
X42650000Y-56593750D01*
G75*
G02*
X42918750Y-56325000I268750J0D01*
G01*
X43881250Y-56325000D01*
G75*
G02*
X44150000Y-56593750I0J-268750D01*
G01*
X44150000Y-57131250D01*
G75*
G02*
X43881250Y-57400000I-268750J0D01*
G01*
G37*
G36*
G01*
X43881250Y-59275000D02*
X42918750Y-59275000D01*
G75*
G02*
X42650000Y-59006250I0J268750D01*
G01*
X42650000Y-58468750D01*
G75*
G02*
X42918750Y-58200000I268750J0D01*
G01*
X43881250Y-58200000D01*
G75*
G02*
X44150000Y-58468750I0J-268750D01*
G01*
X44150000Y-59006250D01*
G75*
G02*
X43881250Y-59275000I-268750J0D01*
G01*
G37*
%TD*%
D13*
%TO.C,J1*%
X60000000Y-50000000D03*
%TD*%
%TO.C,J2*%
X40000000Y-50000000D03*
%TD*%
D14*
%TO.C,H2*%
X68000000Y-50000000D03*
%TD*%
%TO.C,H1*%
X32000000Y-50000000D03*
%TD*%
%TO.C,J3*%
G36*
G01*
X46100000Y-50863889D02*
X46100000Y-53736111D01*
G75*
G02*
X45836111Y-54000000I-263889J0D01*
G01*
X44463889Y-54000000D01*
G75*
G02*
X44200000Y-53736111I0J263889D01*
G01*
X44200000Y-50863889D01*
G75*
G02*
X44463889Y-50600000I263889J0D01*
G01*
X45836111Y-50600000D01*
G75*
G02*
X46100000Y-50863889I0J-263889D01*
G01*
G37*
G36*
G01*
X55800000Y-50863889D02*
X55800000Y-53736111D01*
G75*
G02*
X55536111Y-54000000I-263889J0D01*
G01*
X54163889Y-54000000D01*
G75*
G02*
X53900000Y-53736111I0J263889D01*
G01*
X53900000Y-50863889D01*
G75*
G02*
X54163889Y-50600000I263889J0D01*
G01*
X55536111Y-50600000D01*
G75*
G02*
X55800000Y-50863889I0J-263889D01*
G01*
G37*
G36*
G01*
X48200000Y-46225000D02*
X48200000Y-48275000D01*
G75*
G02*
X47975000Y-48500000I-225000J0D01*
G01*
X47525000Y-48500000D01*
G75*
G02*
X47300000Y-48275000I0J225000D01*
G01*
X47300000Y-46225000D01*
G75*
G02*
X47525000Y-46000000I225000J0D01*
G01*
X47975000Y-46000000D01*
G75*
G02*
X48200000Y-46225000I0J-225000D01*
G01*
G37*
G36*
G01*
X49700000Y-46225000D02*
X49700000Y-48275000D01*
G75*
G02*
X49475000Y-48500000I-225000J0D01*
G01*
X49025000Y-48500000D01*
G75*
G02*
X48800000Y-48275000I0J225000D01*
G01*
X48800000Y-46225000D01*
G75*
G02*
X49025000Y-46000000I225000J0D01*
G01*
X49475000Y-46000000D01*
G75*
G02*
X49700000Y-46225000I0J-225000D01*
G01*
G37*
G36*
G01*
X51200000Y-46225000D02*
X51200000Y-48275000D01*
G75*
G02*
X50975000Y-48500000I-225000J0D01*
G01*
X50525000Y-48500000D01*
G75*
G02*
X50300000Y-48275000I0J225000D01*
G01*
X50300000Y-46225000D01*
G75*
G02*
X50525000Y-46000000I225000J0D01*
G01*
X50975000Y-46000000D01*
G75*
G02*
X51200000Y-46225000I0J-225000D01*
G01*
G37*
G36*
G01*
X52700000Y-46225000D02*
X52700000Y-48275000D01*
G75*
G02*
X52475000Y-48500000I-225000J0D01*
G01*
X52025000Y-48500000D01*
G75*
G02*
X51800000Y-48275000I0J225000D01*
G01*
X51800000Y-46225000D01*
G75*
G02*
X52025000Y-46000000I225000J0D01*
G01*
X52475000Y-46000000D01*
G75*
G02*
X52700000Y-46225000I0J-225000D01*
G01*
G37*
%TD*%
D15*
%TO.C,J5*%
X44996000Y-68466000D03*
X46996000Y-68466000D03*
X48996000Y-68466000D03*
X50996000Y-68466000D03*
X52996000Y-68466000D03*
D16*
X54996000Y-68466000D03*
%TD*%
D15*
%TO.C,J4*%
X39596000Y-64516000D03*
D16*
X39596000Y-62516000D03*
%TD*%
D17*
%TO.C,U2*%
X53546000Y-58811000D03*
X53546000Y-60081000D03*
X53546000Y-61351000D03*
X53546000Y-62621000D03*
X46246000Y-62621000D03*
X46246000Y-61351000D03*
X46246000Y-60081000D03*
X46246000Y-58811000D03*
%TD*%
D18*
%TO.C,U1*%
X60550000Y-36885000D03*
X61500000Y-36885000D03*
X62450000Y-36885000D03*
X62450000Y-33915000D03*
X61500000Y-33915000D03*
X60550000Y-33915000D03*
D19*
X61500000Y-35400000D03*
%TD*%
%TO.C,R7*%
G36*
G01*
X48200000Y-56681250D02*
X48200000Y-55718750D01*
G75*
G02*
X48468750Y-55450000I268750J0D01*
G01*
X49006250Y-55450000D01*
G75*
G02*
X49275000Y-55718750I0J-268750D01*
G01*
X49275000Y-56681250D01*
G75*
G02*
X49006250Y-56950000I-268750J0D01*
G01*
X48468750Y-56950000D01*
G75*
G02*
X48200000Y-56681250I0J268750D01*
G01*
G37*
G36*
G01*
X46325000Y-56681250D02*
X46325000Y-55718750D01*
G75*
G02*
X46593750Y-55450000I268750J0D01*
G01*
X47131250Y-55450000D01*
G75*
G02*
X47400000Y-55718750I0J-268750D01*
G01*
X47400000Y-56681250D01*
G75*
G02*
X47131250Y-56950000I-268750J0D01*
G01*
X46593750Y-56950000D01*
G75*
G02*
X46325000Y-56681250I0J268750D01*
G01*
G37*
%TD*%
%TO.C,R6*%
G36*
G01*
X43327250Y-62178500D02*
X42364750Y-62178500D01*
G75*
G02*
X42096000Y-61909750I0J268750D01*
G01*
X42096000Y-61372250D01*
G75*
G02*
X42364750Y-61103500I268750J0D01*
G01*
X43327250Y-61103500D01*
G75*
G02*
X43596000Y-61372250I0J-268750D01*
G01*
X43596000Y-61909750D01*
G75*
G02*
X43327250Y-62178500I-268750J0D01*
G01*
G37*
G36*
G01*
X43327250Y-64053500D02*
X42364750Y-64053500D01*
G75*
G02*
X42096000Y-63784750I0J268750D01*
G01*
X42096000Y-63247250D01*
G75*
G02*
X42364750Y-62978500I268750J0D01*
G01*
X43327250Y-62978500D01*
G75*
G02*
X43596000Y-63247250I0J-268750D01*
G01*
X43596000Y-63784750D01*
G75*
G02*
X43327250Y-64053500I-268750J0D01*
G01*
G37*
%TD*%
%TO.C,R5*%
G36*
G01*
X60981250Y-61937500D02*
X60018750Y-61937500D01*
G75*
G02*
X59750000Y-61668750I0J268750D01*
G01*
X59750000Y-61131250D01*
G75*
G02*
X60018750Y-60862500I268750J0D01*
G01*
X60981250Y-60862500D01*
G75*
G02*
X61250000Y-61131250I0J-268750D01*
G01*
X61250000Y-61668750D01*
G75*
G02*
X60981250Y-61937500I-268750J0D01*
G01*
G37*
G36*
G01*
X60981250Y-63812500D02*
X60018750Y-63812500D01*
G75*
G02*
X59750000Y-63543750I0J268750D01*
G01*
X59750000Y-63006250D01*
G75*
G02*
X60018750Y-62737500I268750J0D01*
G01*
X60981250Y-62737500D01*
G75*
G02*
X61250000Y-63006250I0J-268750D01*
G01*
X61250000Y-63543750D01*
G75*
G02*
X60981250Y-63812500I-268750J0D01*
G01*
G37*
%TD*%
%TO.C,R4*%
G36*
G01*
X38427250Y-57316000D02*
X37464750Y-57316000D01*
G75*
G02*
X37196000Y-57047250I0J268750D01*
G01*
X37196000Y-56509750D01*
G75*
G02*
X37464750Y-56241000I268750J0D01*
G01*
X38427250Y-56241000D01*
G75*
G02*
X38696000Y-56509750I0J-268750D01*
G01*
X38696000Y-57047250D01*
G75*
G02*
X38427250Y-57316000I-268750J0D01*
G01*
G37*
G36*
G01*
X38427250Y-59191000D02*
X37464750Y-59191000D01*
G75*
G02*
X37196000Y-58922250I0J268750D01*
G01*
X37196000Y-58384750D01*
G75*
G02*
X37464750Y-58116000I268750J0D01*
G01*
X38427250Y-58116000D01*
G75*
G02*
X38696000Y-58384750I0J-268750D01*
G01*
X38696000Y-58922250D01*
G75*
G02*
X38427250Y-59191000I-268750J0D01*
G01*
G37*
%TD*%
%TO.C,R3*%
G36*
G01*
X40114750Y-58116000D02*
X41077250Y-58116000D01*
G75*
G02*
X41346000Y-58384750I0J-268750D01*
G01*
X41346000Y-58922250D01*
G75*
G02*
X41077250Y-59191000I-268750J0D01*
G01*
X40114750Y-59191000D01*
G75*
G02*
X39846000Y-58922250I0J268750D01*
G01*
X39846000Y-58384750D01*
G75*
G02*
X40114750Y-58116000I268750J0D01*
G01*
G37*
G36*
G01*
X40114750Y-56241000D02*
X41077250Y-56241000D01*
G75*
G02*
X41346000Y-56509750I0J-268750D01*
G01*
X41346000Y-57047250D01*
G75*
G02*
X41077250Y-57316000I-268750J0D01*
G01*
X40114750Y-57316000D01*
G75*
G02*
X39846000Y-57047250I0J268750D01*
G01*
X39846000Y-56509750D01*
G75*
G02*
X40114750Y-56241000I268750J0D01*
G01*
G37*
%TD*%
%TO.C,R2*%
G36*
G01*
X57046000Y-60334750D02*
X57046000Y-61297250D01*
G75*
G02*
X56777250Y-61566000I-268750J0D01*
G01*
X56239750Y-61566000D01*
G75*
G02*
X55971000Y-61297250I0J268750D01*
G01*
X55971000Y-60334750D01*
G75*
G02*
X56239750Y-60066000I268750J0D01*
G01*
X56777250Y-60066000D01*
G75*
G02*
X57046000Y-60334750I0J-268750D01*
G01*
G37*
G36*
G01*
X58921000Y-60334750D02*
X58921000Y-61297250D01*
G75*
G02*
X58652250Y-61566000I-268750J0D01*
G01*
X58114750Y-61566000D01*
G75*
G02*
X57846000Y-61297250I0J268750D01*
G01*
X57846000Y-60334750D01*
G75*
G02*
X58114750Y-60066000I268750J0D01*
G01*
X58652250Y-60066000D01*
G75*
G02*
X58921000Y-60334750I0J-268750D01*
G01*
G37*
%TD*%
%TO.C,R1*%
G36*
G01*
X57745000Y-41143518D02*
X57745000Y-44056482D01*
G75*
G02*
X57476482Y-44325000I-268518J0D01*
G01*
X56563518Y-44325000D01*
G75*
G02*
X56295000Y-44056482I0J268518D01*
G01*
X56295000Y-41143518D01*
G75*
G02*
X56563518Y-40875000I268518J0D01*
G01*
X57476482Y-40875000D01*
G75*
G02*
X57745000Y-41143518I0J-268518D01*
G01*
G37*
G36*
G01*
X63545000Y-41143518D02*
X63545000Y-44056482D01*
G75*
G02*
X63276482Y-44325000I-268518J0D01*
G01*
X62363518Y-44325000D01*
G75*
G02*
X62095000Y-44056482I0J268518D01*
G01*
X62095000Y-41143518D01*
G75*
G02*
X62363518Y-40875000I268518J0D01*
G01*
X63276482Y-40875000D01*
G75*
G02*
X63545000Y-41143518I0J-268518D01*
G01*
G37*
%TD*%
D20*
%TO.C,Q1*%
G36*
X47675000Y-38181000D02*
G01*
X48475000Y-38181000D01*
X48475000Y-37511000D01*
X47675000Y-37511000D01*
X47675000Y-36911000D01*
X48475000Y-36911000D01*
X48475000Y-36241000D01*
X47675000Y-36241000D01*
X47675000Y-35641000D01*
X48475000Y-35641000D01*
X48475000Y-34971000D01*
X47675000Y-34971000D01*
X47675000Y-34371000D01*
X52225000Y-34371000D01*
X52225000Y-38781000D01*
X47675000Y-38781000D01*
X47675000Y-38181000D01*
G37*
D21*
X53900000Y-34671000D03*
X53900000Y-35941000D03*
X53900000Y-37211000D03*
X53900000Y-38481000D03*
%TD*%
%TO.C,D2*%
G36*
G01*
X57837500Y-64081250D02*
X57837500Y-63118750D01*
G75*
G02*
X58106250Y-62850000I268750J0D01*
G01*
X58643750Y-62850000D01*
G75*
G02*
X58912500Y-63118750I0J-268750D01*
G01*
X58912500Y-64081250D01*
G75*
G02*
X58643750Y-64350000I-268750J0D01*
G01*
X58106250Y-64350000D01*
G75*
G02*
X57837500Y-64081250I0J268750D01*
G01*
G37*
G36*
G01*
X55962500Y-64081250D02*
X55962500Y-63118750D01*
G75*
G02*
X56231250Y-62850000I268750J0D01*
G01*
X56768750Y-62850000D01*
G75*
G02*
X57037500Y-63118750I0J-268750D01*
G01*
X57037500Y-64081250D01*
G75*
G02*
X56768750Y-64350000I-268750J0D01*
G01*
X56231250Y-64350000D01*
G75*
G02*
X55962500Y-64081250I0J268750D01*
G01*
G37*
%TD*%
%TO.C,C5*%
G36*
G01*
X59427250Y-57178500D02*
X58464750Y-57178500D01*
G75*
G02*
X58196000Y-56909750I0J268750D01*
G01*
X58196000Y-56372250D01*
G75*
G02*
X58464750Y-56103500I268750J0D01*
G01*
X59427250Y-56103500D01*
G75*
G02*
X59696000Y-56372250I0J-268750D01*
G01*
X59696000Y-56909750D01*
G75*
G02*
X59427250Y-57178500I-268750J0D01*
G01*
G37*
G36*
G01*
X59427250Y-59053500D02*
X58464750Y-59053500D01*
G75*
G02*
X58196000Y-58784750I0J268750D01*
G01*
X58196000Y-58247250D01*
G75*
G02*
X58464750Y-57978500I268750J0D01*
G01*
X59427250Y-57978500D01*
G75*
G02*
X59696000Y-58247250I0J-268750D01*
G01*
X59696000Y-58784750D01*
G75*
G02*
X59427250Y-59053500I-268750J0D01*
G01*
G37*
%TD*%
%TO.C,C4*%
G36*
G01*
X57127250Y-57216000D02*
X56164750Y-57216000D01*
G75*
G02*
X55896000Y-56947250I0J268750D01*
G01*
X55896000Y-56409750D01*
G75*
G02*
X56164750Y-56141000I268750J0D01*
G01*
X57127250Y-56141000D01*
G75*
G02*
X57396000Y-56409750I0J-268750D01*
G01*
X57396000Y-56947250D01*
G75*
G02*
X57127250Y-57216000I-268750J0D01*
G01*
G37*
G36*
G01*
X57127250Y-59091000D02*
X56164750Y-59091000D01*
G75*
G02*
X55896000Y-58822250I0J268750D01*
G01*
X55896000Y-58284750D01*
G75*
G02*
X56164750Y-58016000I268750J0D01*
G01*
X57127250Y-58016000D01*
G75*
G02*
X57396000Y-58284750I0J-268750D01*
G01*
X57396000Y-58822250D01*
G75*
G02*
X57127250Y-59091000I-268750J0D01*
G01*
G37*
%TD*%
%TO.C,C3*%
G36*
G01*
X62700000Y-38318750D02*
X62700000Y-39281250D01*
G75*
G02*
X62431250Y-39550000I-268750J0D01*
G01*
X61893750Y-39550000D01*
G75*
G02*
X61625000Y-39281250I0J268750D01*
G01*
X61625000Y-38318750D01*
G75*
G02*
X61893750Y-38050000I268750J0D01*
G01*
X62431250Y-38050000D01*
G75*
G02*
X62700000Y-38318750I0J-268750D01*
G01*
G37*
G36*
G01*
X64575000Y-38318750D02*
X64575000Y-39281250D01*
G75*
G02*
X64306250Y-39550000I-268750J0D01*
G01*
X63768750Y-39550000D01*
G75*
G02*
X63500000Y-39281250I0J268750D01*
G01*
X63500000Y-38318750D01*
G75*
G02*
X63768750Y-38050000I268750J0D01*
G01*
X64306250Y-38050000D01*
G75*
G02*
X64575000Y-38318750I0J-268750D01*
G01*
G37*
%TD*%
%TO.C,C2*%
G36*
G01*
X57237500Y-36218750D02*
X57237500Y-37181250D01*
G75*
G02*
X56968750Y-37450000I-268750J0D01*
G01*
X56431250Y-37450000D01*
G75*
G02*
X56162500Y-37181250I0J268750D01*
G01*
X56162500Y-36218750D01*
G75*
G02*
X56431250Y-35950000I268750J0D01*
G01*
X56968750Y-35950000D01*
G75*
G02*
X57237500Y-36218750I0J-268750D01*
G01*
G37*
G36*
G01*
X59112500Y-36218750D02*
X59112500Y-37181250D01*
G75*
G02*
X58843750Y-37450000I-268750J0D01*
G01*
X58306250Y-37450000D01*
G75*
G02*
X58037500Y-37181250I0J268750D01*
G01*
X58037500Y-36218750D01*
G75*
G02*
X58306250Y-35950000I268750J0D01*
G01*
X58843750Y-35950000D01*
G75*
G02*
X59112500Y-36218750I0J-268750D01*
G01*
G37*
%TD*%
%TO.C,C1*%
G36*
G01*
X57262500Y-38380750D02*
X57262500Y-39343250D01*
G75*
G02*
X56993750Y-39612000I-268750J0D01*
G01*
X56456250Y-39612000D01*
G75*
G02*
X56187500Y-39343250I0J268750D01*
G01*
X56187500Y-38380750D01*
G75*
G02*
X56456250Y-38112000I268750J0D01*
G01*
X56993750Y-38112000D01*
G75*
G02*
X57262500Y-38380750I0J-268750D01*
G01*
G37*
G36*
G01*
X59137500Y-38380750D02*
X59137500Y-39343250D01*
G75*
G02*
X58868750Y-39612000I-268750J0D01*
G01*
X58331250Y-39612000D01*
G75*
G02*
X58062500Y-39343250I0J268750D01*
G01*
X58062500Y-38380750D01*
G75*
G02*
X58331250Y-38112000I268750J0D01*
G01*
X58868750Y-38112000D01*
G75*
G02*
X59137500Y-38380750I0J-268750D01*
G01*
G37*
%TD*%
M02*
