%TF.GenerationSoftware,KiCad,Pcbnew,5.1.6+dfsg1-1*%
%TF.CreationDate,2020-11-02T20:08:44+01:00*%
%TF.ProjectId,buck_3a_v4,6275636b-5f33-4615-9f76-342e6b696361,rev?*%
%TF.SameCoordinates,Original*%
%TF.FileFunction,Soldermask,Top*%
%TF.FilePolarity,Negative*%
%FSLAX46Y46*%
G04 Gerber Fmt 4.6, Leading zero omitted, Abs format (unit mm)*
G04 Created by KiCad (PCBNEW 5.1.6+dfsg1-1) date 2020-11-02 20:08:44*
%MOMM*%
%LPD*%
G01*
G04 APERTURE LIST*
%ADD10C,4.100000*%
%ADD11C,3.300000*%
%ADD12R,1.600000X2.500000*%
%ADD13O,1.450000X1.450000*%
%ADD14R,1.450000X1.450000*%
%ADD15R,1.800000X0.750000*%
%ADD16R,0.520000X0.860000*%
%ADD17R,2.400000X1.600000*%
%ADD18C,0.100000*%
%ADD19R,0.950000X0.600000*%
%ADD20R,2.600000X1.900000*%
G04 APERTURE END LIST*
D10*
%TO.C,LED+*%
X60000000Y-50000000D03*
%TD*%
%TO.C,LED-*%
X40000000Y-50000000D03*
%TD*%
D11*
%TO.C,H2*%
X68000000Y-50000000D03*
%TD*%
%TO.C,H1*%
X32000000Y-50000000D03*
%TD*%
%TO.C,J3*%
G36*
G01*
X46100000Y-50863889D02*
X46100000Y-53736111D01*
G75*
G02*
X45836111Y-54000000I-263889J0D01*
G01*
X44463889Y-54000000D01*
G75*
G02*
X44200000Y-53736111I0J263889D01*
G01*
X44200000Y-50863889D01*
G75*
G02*
X44463889Y-50600000I263889J0D01*
G01*
X45836111Y-50600000D01*
G75*
G02*
X46100000Y-50863889I0J-263889D01*
G01*
G37*
G36*
G01*
X55800000Y-50863889D02*
X55800000Y-53736111D01*
G75*
G02*
X55536111Y-54000000I-263889J0D01*
G01*
X54163889Y-54000000D01*
G75*
G02*
X53900000Y-53736111I0J263889D01*
G01*
X53900000Y-50863889D01*
G75*
G02*
X54163889Y-50600000I263889J0D01*
G01*
X55536111Y-50600000D01*
G75*
G02*
X55800000Y-50863889I0J-263889D01*
G01*
G37*
G36*
G01*
X48200000Y-46225000D02*
X48200000Y-48275000D01*
G75*
G02*
X47975000Y-48500000I-225000J0D01*
G01*
X47525000Y-48500000D01*
G75*
G02*
X47300000Y-48275000I0J225000D01*
G01*
X47300000Y-46225000D01*
G75*
G02*
X47525000Y-46000000I225000J0D01*
G01*
X47975000Y-46000000D01*
G75*
G02*
X48200000Y-46225000I0J-225000D01*
G01*
G37*
G36*
G01*
X49700000Y-46225000D02*
X49700000Y-48275000D01*
G75*
G02*
X49475000Y-48500000I-225000J0D01*
G01*
X49025000Y-48500000D01*
G75*
G02*
X48800000Y-48275000I0J225000D01*
G01*
X48800000Y-46225000D01*
G75*
G02*
X49025000Y-46000000I225000J0D01*
G01*
X49475000Y-46000000D01*
G75*
G02*
X49700000Y-46225000I0J-225000D01*
G01*
G37*
G36*
G01*
X51200000Y-46225000D02*
X51200000Y-48275000D01*
G75*
G02*
X50975000Y-48500000I-225000J0D01*
G01*
X50525000Y-48500000D01*
G75*
G02*
X50300000Y-48275000I0J225000D01*
G01*
X50300000Y-46225000D01*
G75*
G02*
X50525000Y-46000000I225000J0D01*
G01*
X50975000Y-46000000D01*
G75*
G02*
X51200000Y-46225000I0J-225000D01*
G01*
G37*
G36*
G01*
X52700000Y-46225000D02*
X52700000Y-48275000D01*
G75*
G02*
X52475000Y-48500000I-225000J0D01*
G01*
X52025000Y-48500000D01*
G75*
G02*
X51800000Y-48275000I0J225000D01*
G01*
X51800000Y-46225000D01*
G75*
G02*
X52025000Y-46000000I225000J0D01*
G01*
X52475000Y-46000000D01*
G75*
G02*
X52700000Y-46225000I0J-225000D01*
G01*
G37*
%TD*%
D12*
%TO.C,L1*%
X44406000Y-40640000D03*
X38906000Y-40640000D03*
%TD*%
D13*
%TO.C,J5*%
X44996000Y-68466000D03*
X46996000Y-68466000D03*
X48996000Y-68466000D03*
X50996000Y-68466000D03*
X52996000Y-68466000D03*
D14*
X54996000Y-68466000D03*
%TD*%
D13*
%TO.C,J4*%
X39596000Y-64516000D03*
D14*
X39596000Y-62516000D03*
%TD*%
D15*
%TO.C,U2*%
X53546000Y-58811000D03*
X53546000Y-60081000D03*
X53546000Y-61351000D03*
X53546000Y-62621000D03*
X46246000Y-62621000D03*
X46246000Y-61351000D03*
X46246000Y-60081000D03*
X46246000Y-58811000D03*
%TD*%
D16*
%TO.C,U1*%
X59050000Y-36885000D03*
X60000000Y-36885000D03*
X60950000Y-36885000D03*
X60950000Y-33915000D03*
X60000000Y-33915000D03*
X59050000Y-33915000D03*
D17*
X60000000Y-35400000D03*
%TD*%
%TO.C,R7*%
G36*
G01*
X42764750Y-58016000D02*
X43727250Y-58016000D01*
G75*
G02*
X43996000Y-58284750I0J-268750D01*
G01*
X43996000Y-58822250D01*
G75*
G02*
X43727250Y-59091000I-268750J0D01*
G01*
X42764750Y-59091000D01*
G75*
G02*
X42496000Y-58822250I0J268750D01*
G01*
X42496000Y-58284750D01*
G75*
G02*
X42764750Y-58016000I268750J0D01*
G01*
G37*
G36*
G01*
X42764750Y-56141000D02*
X43727250Y-56141000D01*
G75*
G02*
X43996000Y-56409750I0J-268750D01*
G01*
X43996000Y-56947250D01*
G75*
G02*
X43727250Y-57216000I-268750J0D01*
G01*
X42764750Y-57216000D01*
G75*
G02*
X42496000Y-56947250I0J268750D01*
G01*
X42496000Y-56409750D01*
G75*
G02*
X42764750Y-56141000I268750J0D01*
G01*
G37*
%TD*%
%TO.C,R6*%
G36*
G01*
X43327250Y-62178500D02*
X42364750Y-62178500D01*
G75*
G02*
X42096000Y-61909750I0J268750D01*
G01*
X42096000Y-61372250D01*
G75*
G02*
X42364750Y-61103500I268750J0D01*
G01*
X43327250Y-61103500D01*
G75*
G02*
X43596000Y-61372250I0J-268750D01*
G01*
X43596000Y-61909750D01*
G75*
G02*
X43327250Y-62178500I-268750J0D01*
G01*
G37*
G36*
G01*
X43327250Y-64053500D02*
X42364750Y-64053500D01*
G75*
G02*
X42096000Y-63784750I0J268750D01*
G01*
X42096000Y-63247250D01*
G75*
G02*
X42364750Y-62978500I268750J0D01*
G01*
X43327250Y-62978500D01*
G75*
G02*
X43596000Y-63247250I0J-268750D01*
G01*
X43596000Y-63784750D01*
G75*
G02*
X43327250Y-64053500I-268750J0D01*
G01*
G37*
%TD*%
%TO.C,R5*%
G36*
G01*
X60981250Y-61937500D02*
X60018750Y-61937500D01*
G75*
G02*
X59750000Y-61668750I0J268750D01*
G01*
X59750000Y-61131250D01*
G75*
G02*
X60018750Y-60862500I268750J0D01*
G01*
X60981250Y-60862500D01*
G75*
G02*
X61250000Y-61131250I0J-268750D01*
G01*
X61250000Y-61668750D01*
G75*
G02*
X60981250Y-61937500I-268750J0D01*
G01*
G37*
G36*
G01*
X60981250Y-63812500D02*
X60018750Y-63812500D01*
G75*
G02*
X59750000Y-63543750I0J268750D01*
G01*
X59750000Y-63006250D01*
G75*
G02*
X60018750Y-62737500I268750J0D01*
G01*
X60981250Y-62737500D01*
G75*
G02*
X61250000Y-63006250I0J-268750D01*
G01*
X61250000Y-63543750D01*
G75*
G02*
X60981250Y-63812500I-268750J0D01*
G01*
G37*
%TD*%
%TO.C,R4*%
G36*
G01*
X38427250Y-57316000D02*
X37464750Y-57316000D01*
G75*
G02*
X37196000Y-57047250I0J268750D01*
G01*
X37196000Y-56509750D01*
G75*
G02*
X37464750Y-56241000I268750J0D01*
G01*
X38427250Y-56241000D01*
G75*
G02*
X38696000Y-56509750I0J-268750D01*
G01*
X38696000Y-57047250D01*
G75*
G02*
X38427250Y-57316000I-268750J0D01*
G01*
G37*
G36*
G01*
X38427250Y-59191000D02*
X37464750Y-59191000D01*
G75*
G02*
X37196000Y-58922250I0J268750D01*
G01*
X37196000Y-58384750D01*
G75*
G02*
X37464750Y-58116000I268750J0D01*
G01*
X38427250Y-58116000D01*
G75*
G02*
X38696000Y-58384750I0J-268750D01*
G01*
X38696000Y-58922250D01*
G75*
G02*
X38427250Y-59191000I-268750J0D01*
G01*
G37*
%TD*%
%TO.C,R3*%
G36*
G01*
X40114750Y-58116000D02*
X41077250Y-58116000D01*
G75*
G02*
X41346000Y-58384750I0J-268750D01*
G01*
X41346000Y-58922250D01*
G75*
G02*
X41077250Y-59191000I-268750J0D01*
G01*
X40114750Y-59191000D01*
G75*
G02*
X39846000Y-58922250I0J268750D01*
G01*
X39846000Y-58384750D01*
G75*
G02*
X40114750Y-58116000I268750J0D01*
G01*
G37*
G36*
G01*
X40114750Y-56241000D02*
X41077250Y-56241000D01*
G75*
G02*
X41346000Y-56509750I0J-268750D01*
G01*
X41346000Y-57047250D01*
G75*
G02*
X41077250Y-57316000I-268750J0D01*
G01*
X40114750Y-57316000D01*
G75*
G02*
X39846000Y-57047250I0J268750D01*
G01*
X39846000Y-56509750D01*
G75*
G02*
X40114750Y-56241000I268750J0D01*
G01*
G37*
%TD*%
%TO.C,R2*%
G36*
G01*
X57046000Y-60334750D02*
X57046000Y-61297250D01*
G75*
G02*
X56777250Y-61566000I-268750J0D01*
G01*
X56239750Y-61566000D01*
G75*
G02*
X55971000Y-61297250I0J268750D01*
G01*
X55971000Y-60334750D01*
G75*
G02*
X56239750Y-60066000I268750J0D01*
G01*
X56777250Y-60066000D01*
G75*
G02*
X57046000Y-60334750I0J-268750D01*
G01*
G37*
G36*
G01*
X58921000Y-60334750D02*
X58921000Y-61297250D01*
G75*
G02*
X58652250Y-61566000I-268750J0D01*
G01*
X58114750Y-61566000D01*
G75*
G02*
X57846000Y-61297250I0J268750D01*
G01*
X57846000Y-60334750D01*
G75*
G02*
X58114750Y-60066000I268750J0D01*
G01*
X58652250Y-60066000D01*
G75*
G02*
X58921000Y-60334750I0J-268750D01*
G01*
G37*
%TD*%
%TO.C,R1*%
G36*
G01*
X56245000Y-40707518D02*
X56245000Y-43620482D01*
G75*
G02*
X55976482Y-43889000I-268518J0D01*
G01*
X55063518Y-43889000D01*
G75*
G02*
X54795000Y-43620482I0J268518D01*
G01*
X54795000Y-40707518D01*
G75*
G02*
X55063518Y-40439000I268518J0D01*
G01*
X55976482Y-40439000D01*
G75*
G02*
X56245000Y-40707518I0J-268518D01*
G01*
G37*
G36*
G01*
X62045000Y-40707518D02*
X62045000Y-43620482D01*
G75*
G02*
X61776482Y-43889000I-268518J0D01*
G01*
X60863518Y-43889000D01*
G75*
G02*
X60595000Y-43620482I0J268518D01*
G01*
X60595000Y-40707518D01*
G75*
G02*
X60863518Y-40439000I268518J0D01*
G01*
X61776482Y-40439000D01*
G75*
G02*
X62045000Y-40707518I0J-268518D01*
G01*
G37*
%TD*%
D18*
%TO.C,Q1*%
G36*
X46275000Y-38181000D02*
G01*
X47075000Y-38181000D01*
X47075000Y-37511000D01*
X46275000Y-37511000D01*
X46275000Y-36911000D01*
X47075000Y-36911000D01*
X47075000Y-36241000D01*
X46275000Y-36241000D01*
X46275000Y-35641000D01*
X47075000Y-35641000D01*
X47075000Y-34971000D01*
X46275000Y-34971000D01*
X46275000Y-34371000D01*
X50825000Y-34371000D01*
X50825000Y-38781000D01*
X46275000Y-38781000D01*
X46275000Y-38181000D01*
G37*
D19*
X52500000Y-34671000D03*
X52500000Y-35941000D03*
X52500000Y-37211000D03*
X52500000Y-38481000D03*
%TD*%
%TO.C,D2*%
G36*
G01*
X57837500Y-64081250D02*
X57837500Y-63118750D01*
G75*
G02*
X58106250Y-62850000I268750J0D01*
G01*
X58643750Y-62850000D01*
G75*
G02*
X58912500Y-63118750I0J-268750D01*
G01*
X58912500Y-64081250D01*
G75*
G02*
X58643750Y-64350000I-268750J0D01*
G01*
X58106250Y-64350000D01*
G75*
G02*
X57837500Y-64081250I0J268750D01*
G01*
G37*
G36*
G01*
X55962500Y-64081250D02*
X55962500Y-63118750D01*
G75*
G02*
X56231250Y-62850000I268750J0D01*
G01*
X56768750Y-62850000D01*
G75*
G02*
X57037500Y-63118750I0J-268750D01*
G01*
X57037500Y-64081250D01*
G75*
G02*
X56768750Y-64350000I-268750J0D01*
G01*
X56231250Y-64350000D01*
G75*
G02*
X55962500Y-64081250I0J268750D01*
G01*
G37*
%TD*%
D20*
%TO.C,D1*%
X47816000Y-42164000D03*
X51816000Y-42164000D03*
%TD*%
%TO.C,C5*%
G36*
G01*
X59427250Y-57178500D02*
X58464750Y-57178500D01*
G75*
G02*
X58196000Y-56909750I0J268750D01*
G01*
X58196000Y-56372250D01*
G75*
G02*
X58464750Y-56103500I268750J0D01*
G01*
X59427250Y-56103500D01*
G75*
G02*
X59696000Y-56372250I0J-268750D01*
G01*
X59696000Y-56909750D01*
G75*
G02*
X59427250Y-57178500I-268750J0D01*
G01*
G37*
G36*
G01*
X59427250Y-59053500D02*
X58464750Y-59053500D01*
G75*
G02*
X58196000Y-58784750I0J268750D01*
G01*
X58196000Y-58247250D01*
G75*
G02*
X58464750Y-57978500I268750J0D01*
G01*
X59427250Y-57978500D01*
G75*
G02*
X59696000Y-58247250I0J-268750D01*
G01*
X59696000Y-58784750D01*
G75*
G02*
X59427250Y-59053500I-268750J0D01*
G01*
G37*
%TD*%
%TO.C,C4*%
G36*
G01*
X57127250Y-57216000D02*
X56164750Y-57216000D01*
G75*
G02*
X55896000Y-56947250I0J268750D01*
G01*
X55896000Y-56409750D01*
G75*
G02*
X56164750Y-56141000I268750J0D01*
G01*
X57127250Y-56141000D01*
G75*
G02*
X57396000Y-56409750I0J-268750D01*
G01*
X57396000Y-56947250D01*
G75*
G02*
X57127250Y-57216000I-268750J0D01*
G01*
G37*
G36*
G01*
X57127250Y-59091000D02*
X56164750Y-59091000D01*
G75*
G02*
X55896000Y-58822250I0J268750D01*
G01*
X55896000Y-58284750D01*
G75*
G02*
X56164750Y-58016000I268750J0D01*
G01*
X57127250Y-58016000D01*
G75*
G02*
X57396000Y-58284750I0J-268750D01*
G01*
X57396000Y-58822250D01*
G75*
G02*
X57127250Y-59091000I-268750J0D01*
G01*
G37*
%TD*%
%TO.C,C3*%
G36*
G01*
X63362500Y-39481250D02*
X63362500Y-38518750D01*
G75*
G02*
X63631250Y-38250000I268750J0D01*
G01*
X64168750Y-38250000D01*
G75*
G02*
X64437500Y-38518750I0J-268750D01*
G01*
X64437500Y-39481250D01*
G75*
G02*
X64168750Y-39750000I-268750J0D01*
G01*
X63631250Y-39750000D01*
G75*
G02*
X63362500Y-39481250I0J268750D01*
G01*
G37*
G36*
G01*
X61487500Y-39481250D02*
X61487500Y-38518750D01*
G75*
G02*
X61756250Y-38250000I268750J0D01*
G01*
X62293750Y-38250000D01*
G75*
G02*
X62562500Y-38518750I0J-268750D01*
G01*
X62562500Y-39481250D01*
G75*
G02*
X62293750Y-39750000I-268750J0D01*
G01*
X61756250Y-39750000D01*
G75*
G02*
X61487500Y-39481250I0J268750D01*
G01*
G37*
%TD*%
%TO.C,C2*%
G36*
G01*
X55737500Y-36218750D02*
X55737500Y-37181250D01*
G75*
G02*
X55468750Y-37450000I-268750J0D01*
G01*
X54931250Y-37450000D01*
G75*
G02*
X54662500Y-37181250I0J268750D01*
G01*
X54662500Y-36218750D01*
G75*
G02*
X54931250Y-35950000I268750J0D01*
G01*
X55468750Y-35950000D01*
G75*
G02*
X55737500Y-36218750I0J-268750D01*
G01*
G37*
G36*
G01*
X57612500Y-36218750D02*
X57612500Y-37181250D01*
G75*
G02*
X57343750Y-37450000I-268750J0D01*
G01*
X56806250Y-37450000D01*
G75*
G02*
X56537500Y-37181250I0J268750D01*
G01*
X56537500Y-36218750D01*
G75*
G02*
X56806250Y-35950000I268750J0D01*
G01*
X57343750Y-35950000D01*
G75*
G02*
X57612500Y-36218750I0J-268750D01*
G01*
G37*
%TD*%
%TO.C,C1*%
G36*
G01*
X56562500Y-39343250D02*
X56562500Y-38380750D01*
G75*
G02*
X56831250Y-38112000I268750J0D01*
G01*
X57368750Y-38112000D01*
G75*
G02*
X57637500Y-38380750I0J-268750D01*
G01*
X57637500Y-39343250D01*
G75*
G02*
X57368750Y-39612000I-268750J0D01*
G01*
X56831250Y-39612000D01*
G75*
G02*
X56562500Y-39343250I0J268750D01*
G01*
G37*
G36*
G01*
X54687500Y-39343250D02*
X54687500Y-38380750D01*
G75*
G02*
X54956250Y-38112000I268750J0D01*
G01*
X55493750Y-38112000D01*
G75*
G02*
X55762500Y-38380750I0J-268750D01*
G01*
X55762500Y-39343250D01*
G75*
G02*
X55493750Y-39612000I-268750J0D01*
G01*
X54956250Y-39612000D01*
G75*
G02*
X54687500Y-39343250I0J268750D01*
G01*
G37*
%TD*%
M02*
