%TF.GenerationSoftware,KiCad,Pcbnew,5.1.6+dfsg1-1*%
%TF.CreationDate,2021-02-01T07:44:42+01:00*%
%TF.ProjectId,buck_3a_v4,6275636b-5f33-4615-9f76-342e6b696361,rev?*%
%TF.SameCoordinates,Original*%
%TF.FileFunction,Other,User*%
%FSLAX46Y46*%
G04 Gerber Fmt 4.6, Leading zero omitted, Abs format (unit mm)*
G04 Created by KiCad (PCBNEW 5.1.6+dfsg1-1) date 2021-02-01 07:44:42*
%MOMM*%
%LPD*%
G01*
G04 APERTURE LIST*
%ADD10C,0.050000*%
G04 APERTURE END LIST*
D10*
%TO.C,C4*%
X57766000Y-59680000D02*
X55526000Y-59680000D01*
X55526000Y-59680000D02*
X55526000Y-55120000D01*
X55526000Y-55120000D02*
X57766000Y-55120000D01*
X57766000Y-55120000D02*
X57766000Y-59680000D01*
%TO.C,U1*%
X59700000Y-37515000D02*
X59700000Y-33285000D01*
X63300000Y-37515000D02*
X63300000Y-33285000D01*
X59700000Y-37515000D02*
X63300000Y-37515000D01*
X59700000Y-33285000D02*
X63300000Y-33285000D01*
%TO.C,C3*%
X65030000Y-41970000D02*
X65030000Y-45130000D01*
X65030000Y-45130000D02*
X60470000Y-45130000D01*
X60470000Y-45130000D02*
X60470000Y-41970000D01*
X60470000Y-41970000D02*
X65030000Y-41970000D01*
%TO.C,C1*%
X55870000Y-45130000D02*
X55870000Y-41970000D01*
X55870000Y-41970000D02*
X60430000Y-41970000D01*
X60430000Y-41970000D02*
X60430000Y-45130000D01*
X60430000Y-45130000D02*
X55870000Y-45130000D01*
%TO.C,D1*%
X55300000Y-40120000D02*
X55300000Y-44680000D01*
X55300000Y-44680000D02*
X47690000Y-44680000D01*
X47690000Y-44680000D02*
X47690000Y-40120000D01*
X47690000Y-40120000D02*
X55300000Y-40120000D01*
%TO.C,L1*%
X46600000Y-34050000D02*
X35100000Y-34050000D01*
X46600000Y-44950000D02*
X46600000Y-34050000D01*
X35100000Y-44950000D02*
X46600000Y-44950000D01*
X35100000Y-34050000D02*
X35100000Y-44950000D01*
%TO.C,C6*%
X44350000Y-56120000D02*
X44350000Y-59480000D01*
X42450000Y-56120000D02*
X44350000Y-56120000D01*
X42450000Y-59480000D02*
X42450000Y-56120000D01*
X44350000Y-59480000D02*
X42450000Y-59480000D01*
%TO.C,J1*%
X62500000Y-50000000D02*
G75*
G03*
X62500000Y-50000000I-2500000J0D01*
G01*
%TO.C,J2*%
X42500000Y-50000000D02*
G75*
G03*
X42500000Y-50000000I-2500000J0D01*
G01*
%TO.C,H2*%
X71450000Y-50000000D02*
G75*
G03*
X71450000Y-50000000I-3450000J0D01*
G01*
%TO.C,H1*%
X35450000Y-50000000D02*
G75*
G03*
X35450000Y-50000000I-3450000J0D01*
G01*
%TO.C,J3*%
X56250000Y-54450000D02*
X56250000Y-45550000D01*
X56250000Y-45550000D02*
X43750000Y-45550000D01*
X43750000Y-45550000D02*
X43750000Y-54450000D01*
X43750000Y-54450000D02*
X56250000Y-54450000D01*
%TO.C,J5*%
X56496000Y-66966000D02*
X43496000Y-66966000D01*
X43496000Y-66966000D02*
X43496000Y-69966000D01*
X43496000Y-69966000D02*
X56496000Y-69966000D01*
X56496000Y-69966000D02*
X56496000Y-66966000D01*
%TO.C,J4*%
X38096000Y-61016000D02*
X38096000Y-66016000D01*
X38096000Y-66016000D02*
X41096000Y-66016000D01*
X41096000Y-66016000D02*
X41096000Y-61016000D01*
X41096000Y-61016000D02*
X38096000Y-61016000D01*
%TO.C,U2*%
X45146000Y-57766000D02*
X45146000Y-63666000D01*
X54646000Y-57766000D02*
X54646000Y-63666000D01*
X45146000Y-57766000D02*
X54646000Y-57766000D01*
X45146000Y-63666000D02*
X54646000Y-63666000D01*
%TO.C,R7*%
X46120000Y-57150000D02*
X46120000Y-55250000D01*
X46120000Y-55250000D02*
X49480000Y-55250000D01*
X49480000Y-55250000D02*
X49480000Y-57150000D01*
X49480000Y-57150000D02*
X46120000Y-57150000D01*
%TO.C,R6*%
X43796000Y-64258500D02*
X41896000Y-64258500D01*
X41896000Y-64258500D02*
X41896000Y-60898500D01*
X41896000Y-60898500D02*
X43796000Y-60898500D01*
X43796000Y-60898500D02*
X43796000Y-64258500D01*
%TO.C,R5*%
X61450000Y-64017500D02*
X59550000Y-64017500D01*
X59550000Y-64017500D02*
X59550000Y-60657500D01*
X59550000Y-60657500D02*
X61450000Y-60657500D01*
X61450000Y-60657500D02*
X61450000Y-64017500D01*
%TO.C,R4*%
X38896000Y-59396000D02*
X36996000Y-59396000D01*
X36996000Y-59396000D02*
X36996000Y-56036000D01*
X36996000Y-56036000D02*
X38896000Y-56036000D01*
X38896000Y-56036000D02*
X38896000Y-59396000D01*
%TO.C,R3*%
X39646000Y-56036000D02*
X41546000Y-56036000D01*
X41546000Y-56036000D02*
X41546000Y-59396000D01*
X41546000Y-59396000D02*
X39646000Y-59396000D01*
X39646000Y-59396000D02*
X39646000Y-56036000D01*
%TO.C,R2*%
X59126000Y-59866000D02*
X59126000Y-61766000D01*
X59126000Y-61766000D02*
X55766000Y-61766000D01*
X55766000Y-61766000D02*
X55766000Y-59866000D01*
X55766000Y-59866000D02*
X59126000Y-59866000D01*
%TO.C,R1*%
X64220000Y-37930000D02*
X64220000Y-41770000D01*
X64220000Y-41770000D02*
X56580000Y-41770000D01*
X56580000Y-41770000D02*
X56580000Y-37930000D01*
X56580000Y-37930000D02*
X64220000Y-37930000D01*
%TO.C,Q1*%
X54580000Y-33746000D02*
X47420000Y-33746000D01*
X54580000Y-39406000D02*
X54580000Y-33746000D01*
X47420000Y-39406000D02*
X54580000Y-39406000D01*
X47420000Y-33746000D02*
X47420000Y-39406000D01*
%TO.C,D2*%
X55757500Y-64550000D02*
X55757500Y-62650000D01*
X55757500Y-62650000D02*
X59117500Y-62650000D01*
X59117500Y-62650000D02*
X59117500Y-64550000D01*
X59117500Y-64550000D02*
X55757500Y-64550000D01*
%TO.C,C5*%
X59896000Y-59258500D02*
X57996000Y-59258500D01*
X57996000Y-59258500D02*
X57996000Y-55898500D01*
X57996000Y-55898500D02*
X59896000Y-55898500D01*
X59896000Y-55898500D02*
X59896000Y-59258500D01*
%TO.C,C2*%
X59317500Y-35750000D02*
X59317500Y-37650000D01*
X59317500Y-37650000D02*
X55957500Y-37650000D01*
X55957500Y-37650000D02*
X55957500Y-35750000D01*
X55957500Y-35750000D02*
X59317500Y-35750000D01*
%TD*%
M02*
