%TF.GenerationSoftware,KiCad,Pcbnew,5.1.6+dfsg1-1*%
%TF.CreationDate,2021-02-01T07:44:42+01:00*%
%TF.ProjectId,buck_3a_v4,6275636b-5f33-4615-9f76-342e6b696361,rev?*%
%TF.SameCoordinates,Original*%
%TF.FileFunction,Copper,L2,Bot*%
%TF.FilePolarity,Positive*%
%FSLAX46Y46*%
G04 Gerber Fmt 4.6, Leading zero omitted, Abs format (unit mm)*
G04 Created by KiCad (PCBNEW 5.1.6+dfsg1-1) date 2021-02-01 07:44:42*
%MOMM*%
%LPD*%
G01*
G04 APERTURE LIST*
%TA.AperFunction,ComponentPad*%
%ADD10C,4.000000*%
%TD*%
%TA.AperFunction,ComponentPad*%
%ADD11O,1.350000X1.350000*%
%TD*%
%TA.AperFunction,ComponentPad*%
%ADD12R,1.350000X1.350000*%
%TD*%
%TA.AperFunction,ViaPad*%
%ADD13C,0.800000*%
%TD*%
%TA.AperFunction,Conductor*%
%ADD14C,0.250000*%
%TD*%
%TA.AperFunction,Conductor*%
%ADD15C,0.500000*%
%TD*%
%TA.AperFunction,Conductor*%
%ADD16C,0.254000*%
%TD*%
G04 APERTURE END LIST*
D10*
%TO.P,J1,1*%
%TO.N,Net-(C3-Pad1)*%
X60000000Y-50000000D03*
%TD*%
%TO.P,J2,1*%
%TO.N,Net-(J2-Pad1)*%
X40000000Y-50000000D03*
%TD*%
D11*
%TO.P,J5,6*%
%TO.N,+5V*%
X44996000Y-68466000D03*
%TO.P,J5,5*%
%TO.N,GND*%
X46996000Y-68466000D03*
%TO.P,J5,4*%
%TO.N,/LED*%
X48996000Y-68466000D03*
%TO.P,J5,3*%
%TO.N,/RESET*%
X50996000Y-68466000D03*
%TO.P,J5,2*%
%TO.N,/PWM*%
X52996000Y-68466000D03*
D12*
%TO.P,J5,1*%
%TO.N,/MODE*%
X54996000Y-68466000D03*
%TD*%
D11*
%TO.P,J4,2*%
%TO.N,GND*%
X39596000Y-64516000D03*
D12*
%TO.P,J4,1*%
%TO.N,/TMESS*%
X39596000Y-62516000D03*
%TD*%
D13*
%TO.N,GND*%
X62200000Y-35400000D03*
X55100000Y-35900000D03*
X55100000Y-37000000D03*
X55100000Y-38000000D03*
X55100000Y-39000000D03*
X54200000Y-39400000D03*
X53200000Y-39400000D03*
X44421000Y-62621000D03*
X60700000Y-56700000D03*
X49400000Y-49200000D03*
X48400000Y-49200000D03*
X47400000Y-49200000D03*
X37946002Y-55653998D03*
X43400000Y-55600000D03*
X60900000Y-35400000D03*
X59250000Y-41350000D03*
X60450000Y-41350000D03*
X61550000Y-41350000D03*
%TO.N,+5V*%
X59762653Y-33962653D03*
X55100000Y-58800000D03*
X45600002Y-56200000D03*
%TO.N,/LED*%
X51721000Y-62700000D03*
%TO.N,/PWM*%
X55200000Y-61400000D03*
X64350010Y-36985453D03*
%TD*%
D14*
%TO.N,+5V*%
X45600000Y-56200002D02*
X45600002Y-56200000D01*
D15*
X45600000Y-67862000D02*
X45600000Y-56200002D01*
X44996000Y-68466000D02*
X45600000Y-67862000D01*
D14*
X63062653Y-33962653D02*
X63200000Y-34100000D01*
D15*
X56900000Y-57000000D02*
X55100000Y-58800000D01*
X57600000Y-57000000D02*
X56900000Y-57000000D01*
X63500000Y-34400000D02*
X63500000Y-51100000D01*
X63500000Y-51100000D02*
X57600000Y-57000000D01*
X63200000Y-34100000D02*
X63500000Y-34400000D01*
X62379345Y-33962653D02*
X63062653Y-33962653D01*
X59762653Y-33962653D02*
X62379345Y-33962653D01*
D14*
%TO.N,/LED*%
X48996000Y-68466000D02*
X48996000Y-66904000D01*
X48996000Y-66904000D02*
X51700000Y-64200000D01*
X51700000Y-62721000D02*
X51721000Y-62700000D01*
X51700000Y-64200000D02*
X51700000Y-62721000D01*
%TO.N,/PWM*%
X55200000Y-66262000D02*
X52996000Y-68466000D01*
X55200000Y-61400000D02*
X55200000Y-66262000D01*
X64350010Y-51684305D02*
X64350010Y-36985453D01*
X55200000Y-60834315D02*
X64350010Y-51684305D01*
X55200000Y-61400000D02*
X55200000Y-60834315D01*
%TD*%
D16*
%TO.N,GND*%
G36*
X51831299Y-28483793D02*
G01*
X53649404Y-28716610D01*
X55441214Y-29102775D01*
X57193821Y-29639504D01*
X58894596Y-30322932D01*
X60531285Y-31148133D01*
X62092096Y-32109163D01*
X63565783Y-33199096D01*
X64941728Y-34410080D01*
X66210018Y-35733390D01*
X67361514Y-37159491D01*
X68387920Y-38678109D01*
X69281841Y-40278300D01*
X70036836Y-41948537D01*
X70647464Y-43676785D01*
X71109328Y-45450592D01*
X71419098Y-47257177D01*
X71574543Y-49083525D01*
X71574543Y-50916475D01*
X71419098Y-52742823D01*
X71109328Y-54549408D01*
X70647464Y-56323215D01*
X70036836Y-58051463D01*
X69281841Y-59721700D01*
X68387920Y-61321891D01*
X67361514Y-62840509D01*
X66210018Y-64266610D01*
X64941728Y-65589920D01*
X63565783Y-66800904D01*
X62092096Y-67890837D01*
X60531285Y-68851867D01*
X58894596Y-69677068D01*
X57193821Y-70360496D01*
X55441214Y-70897225D01*
X53649404Y-71283390D01*
X51831299Y-71516207D01*
X50000000Y-71594000D01*
X48168701Y-71516207D01*
X46350596Y-71283390D01*
X44558786Y-70897225D01*
X42806179Y-70360496D01*
X41105404Y-69677068D01*
X39468715Y-68851867D01*
X38673110Y-68361993D01*
X43940000Y-68361993D01*
X43940000Y-68570007D01*
X43980581Y-68774024D01*
X44060185Y-68966204D01*
X44175751Y-69139161D01*
X44322839Y-69286249D01*
X44495796Y-69401815D01*
X44687976Y-69481419D01*
X44891993Y-69522000D01*
X45100007Y-69522000D01*
X45304024Y-69481419D01*
X45496204Y-69401815D01*
X45669161Y-69286249D01*
X45816249Y-69139161D01*
X45931815Y-68966204D01*
X46011419Y-68774024D01*
X46052000Y-68570007D01*
X46052000Y-68361993D01*
X47940000Y-68361993D01*
X47940000Y-68570007D01*
X47980581Y-68774024D01*
X48060185Y-68966204D01*
X48175751Y-69139161D01*
X48322839Y-69286249D01*
X48495796Y-69401815D01*
X48687976Y-69481419D01*
X48891993Y-69522000D01*
X49100007Y-69522000D01*
X49304024Y-69481419D01*
X49496204Y-69401815D01*
X49669161Y-69286249D01*
X49816249Y-69139161D01*
X49931815Y-68966204D01*
X49996000Y-68811249D01*
X50060185Y-68966204D01*
X50175751Y-69139161D01*
X50322839Y-69286249D01*
X50495796Y-69401815D01*
X50687976Y-69481419D01*
X50891993Y-69522000D01*
X51100007Y-69522000D01*
X51304024Y-69481419D01*
X51496204Y-69401815D01*
X51669161Y-69286249D01*
X51816249Y-69139161D01*
X51931815Y-68966204D01*
X51996000Y-68811249D01*
X52060185Y-68966204D01*
X52175751Y-69139161D01*
X52322839Y-69286249D01*
X52495796Y-69401815D01*
X52687976Y-69481419D01*
X52891993Y-69522000D01*
X53100007Y-69522000D01*
X53304024Y-69481419D01*
X53496204Y-69401815D01*
X53669161Y-69286249D01*
X53816249Y-69139161D01*
X53931815Y-68966204D01*
X53938157Y-68950893D01*
X53938157Y-69141000D01*
X53945513Y-69215689D01*
X53967299Y-69287508D01*
X54002678Y-69353696D01*
X54050289Y-69411711D01*
X54108304Y-69459322D01*
X54174492Y-69494701D01*
X54246311Y-69516487D01*
X54321000Y-69523843D01*
X55671000Y-69523843D01*
X55745689Y-69516487D01*
X55817508Y-69494701D01*
X55883696Y-69459322D01*
X55941711Y-69411711D01*
X55989322Y-69353696D01*
X56024701Y-69287508D01*
X56046487Y-69215689D01*
X56053843Y-69141000D01*
X56053843Y-67791000D01*
X56046487Y-67716311D01*
X56024701Y-67644492D01*
X55989322Y-67578304D01*
X55941711Y-67520289D01*
X55883696Y-67472678D01*
X55817508Y-67437299D01*
X55745689Y-67415513D01*
X55671000Y-67408157D01*
X54769435Y-67408157D01*
X55540220Y-66637372D01*
X55559527Y-66621527D01*
X55622759Y-66544479D01*
X55669745Y-66456575D01*
X55698678Y-66361193D01*
X55706000Y-66286854D01*
X55708448Y-66262000D01*
X55706000Y-66237146D01*
X55706000Y-61998501D01*
X55806642Y-61897859D01*
X55892113Y-61769942D01*
X55950987Y-61627809D01*
X55981000Y-61476922D01*
X55981000Y-61323078D01*
X55950987Y-61172191D01*
X55892113Y-61030058D01*
X55823114Y-60926793D01*
X64690230Y-52059677D01*
X64709537Y-52043832D01*
X64772769Y-51966784D01*
X64819755Y-51878880D01*
X64848688Y-51783498D01*
X64856010Y-51709159D01*
X64856010Y-51709152D01*
X64858457Y-51684306D01*
X64856010Y-51659460D01*
X64856010Y-49804889D01*
X66019000Y-49804889D01*
X66019000Y-50195111D01*
X66095129Y-50577836D01*
X66244461Y-50938355D01*
X66461257Y-51262814D01*
X66737186Y-51538743D01*
X67061645Y-51755539D01*
X67422164Y-51904871D01*
X67804889Y-51981000D01*
X68195111Y-51981000D01*
X68577836Y-51904871D01*
X68938355Y-51755539D01*
X69262814Y-51538743D01*
X69538743Y-51262814D01*
X69755539Y-50938355D01*
X69904871Y-50577836D01*
X69981000Y-50195111D01*
X69981000Y-49804889D01*
X69904871Y-49422164D01*
X69755539Y-49061645D01*
X69538743Y-48737186D01*
X69262814Y-48461257D01*
X68938355Y-48244461D01*
X68577836Y-48095129D01*
X68195111Y-48019000D01*
X67804889Y-48019000D01*
X67422164Y-48095129D01*
X67061645Y-48244461D01*
X66737186Y-48461257D01*
X66461257Y-48737186D01*
X66244461Y-49061645D01*
X66095129Y-49422164D01*
X66019000Y-49804889D01*
X64856010Y-49804889D01*
X64856010Y-37583954D01*
X64956652Y-37483312D01*
X65042123Y-37355395D01*
X65100997Y-37213262D01*
X65131010Y-37062375D01*
X65131010Y-36908531D01*
X65100997Y-36757644D01*
X65042123Y-36615511D01*
X64956652Y-36487594D01*
X64847869Y-36378811D01*
X64719952Y-36293340D01*
X64577819Y-36234466D01*
X64426932Y-36204453D01*
X64273088Y-36204453D01*
X64131000Y-36232716D01*
X64131000Y-34430987D01*
X64134052Y-34399999D01*
X64131000Y-34369011D01*
X64131000Y-34369002D01*
X64121870Y-34276302D01*
X64085789Y-34157358D01*
X64027196Y-34047739D01*
X63948343Y-33951657D01*
X63924264Y-33931896D01*
X63624265Y-33631897D01*
X63572908Y-33589749D01*
X63510996Y-33514310D01*
X63414914Y-33435457D01*
X63305295Y-33376864D01*
X63186351Y-33340783D01*
X63093651Y-33331653D01*
X60224058Y-33331653D01*
X60132595Y-33270540D01*
X59990462Y-33211666D01*
X59839575Y-33181653D01*
X59685731Y-33181653D01*
X59534844Y-33211666D01*
X59392711Y-33270540D01*
X59264794Y-33356011D01*
X59156011Y-33464794D01*
X59070540Y-33592711D01*
X59011666Y-33734844D01*
X58981653Y-33885731D01*
X58981653Y-34039575D01*
X59011666Y-34190462D01*
X59070540Y-34332595D01*
X59156011Y-34460512D01*
X59264794Y-34569295D01*
X59392711Y-34654766D01*
X59534844Y-34713640D01*
X59685731Y-34743653D01*
X59839575Y-34743653D01*
X59990462Y-34713640D01*
X60132595Y-34654766D01*
X60224058Y-34593653D01*
X62801285Y-34593653D01*
X62869000Y-34661368D01*
X62869001Y-50838630D01*
X57338632Y-56369000D01*
X56930987Y-56369000D01*
X56899999Y-56365948D01*
X56869011Y-56369000D01*
X56869002Y-56369000D01*
X56776302Y-56378130D01*
X56657358Y-56414211D01*
X56547739Y-56472804D01*
X56451657Y-56551657D01*
X56431897Y-56575735D01*
X54980079Y-58027553D01*
X54872191Y-58049013D01*
X54730058Y-58107887D01*
X54602141Y-58193358D01*
X54493358Y-58302141D01*
X54407887Y-58430058D01*
X54349013Y-58572191D01*
X54319000Y-58723078D01*
X54319000Y-58876922D01*
X54349013Y-59027809D01*
X54407887Y-59169942D01*
X54493358Y-59297859D01*
X54602141Y-59406642D01*
X54730058Y-59492113D01*
X54872191Y-59550987D01*
X55023078Y-59581000D01*
X55176922Y-59581000D01*
X55327809Y-59550987D01*
X55469942Y-59492113D01*
X55597859Y-59406642D01*
X55706642Y-59297859D01*
X55792113Y-59169942D01*
X55850987Y-59027809D01*
X55872447Y-58919921D01*
X57161368Y-57631000D01*
X57569010Y-57631000D01*
X57600000Y-57634052D01*
X57630990Y-57631000D01*
X57630998Y-57631000D01*
X57693921Y-57624803D01*
X54859781Y-60458943D01*
X54840474Y-60474788D01*
X54777242Y-60551836D01*
X54752127Y-60598823D01*
X54730255Y-60639741D01*
X54701322Y-60735123D01*
X54694871Y-60800628D01*
X54593358Y-60902141D01*
X54507887Y-61030058D01*
X54449013Y-61172191D01*
X54419000Y-61323078D01*
X54419000Y-61476922D01*
X54449013Y-61627809D01*
X54507887Y-61769942D01*
X54593358Y-61897859D01*
X54694000Y-61998501D01*
X54694001Y-66052407D01*
X53297188Y-67449221D01*
X53100007Y-67410000D01*
X52891993Y-67410000D01*
X52687976Y-67450581D01*
X52495796Y-67530185D01*
X52322839Y-67645751D01*
X52175751Y-67792839D01*
X52060185Y-67965796D01*
X51996000Y-68120751D01*
X51931815Y-67965796D01*
X51816249Y-67792839D01*
X51669161Y-67645751D01*
X51496204Y-67530185D01*
X51304024Y-67450581D01*
X51100007Y-67410000D01*
X50891993Y-67410000D01*
X50687976Y-67450581D01*
X50495796Y-67530185D01*
X50322839Y-67645751D01*
X50175751Y-67792839D01*
X50060185Y-67965796D01*
X49996000Y-68120751D01*
X49931815Y-67965796D01*
X49816249Y-67792839D01*
X49669161Y-67645751D01*
X49502000Y-67534058D01*
X49502000Y-67113591D01*
X52040220Y-64575372D01*
X52059527Y-64559527D01*
X52122759Y-64482479D01*
X52169745Y-64394575D01*
X52198678Y-64299193D01*
X52206000Y-64224854D01*
X52206000Y-64224847D01*
X52208447Y-64200001D01*
X52206000Y-64175155D01*
X52206000Y-63315234D01*
X52218859Y-63306642D01*
X52327642Y-63197859D01*
X52413113Y-63069942D01*
X52471987Y-62927809D01*
X52502000Y-62776922D01*
X52502000Y-62623078D01*
X52471987Y-62472191D01*
X52413113Y-62330058D01*
X52327642Y-62202141D01*
X52218859Y-62093358D01*
X52090942Y-62007887D01*
X51948809Y-61949013D01*
X51797922Y-61919000D01*
X51644078Y-61919000D01*
X51493191Y-61949013D01*
X51351058Y-62007887D01*
X51223141Y-62093358D01*
X51114358Y-62202141D01*
X51028887Y-62330058D01*
X50970013Y-62472191D01*
X50940000Y-62623078D01*
X50940000Y-62776922D01*
X50970013Y-62927809D01*
X51028887Y-63069942D01*
X51114358Y-63197859D01*
X51194001Y-63277502D01*
X51194000Y-63990408D01*
X48655781Y-66528628D01*
X48636474Y-66544473D01*
X48573242Y-66621521D01*
X48573239Y-66621527D01*
X48526255Y-66709426D01*
X48497322Y-66804808D01*
X48487553Y-66904000D01*
X48490001Y-66928856D01*
X48490001Y-67534057D01*
X48322839Y-67645751D01*
X48175751Y-67792839D01*
X48060185Y-67965796D01*
X47980581Y-68157976D01*
X47940000Y-68361993D01*
X46052000Y-68361993D01*
X46042655Y-68315011D01*
X46048343Y-68310343D01*
X46127196Y-68214261D01*
X46185789Y-68104642D01*
X46221870Y-67985698D01*
X46231000Y-67892998D01*
X46231000Y-67892991D01*
X46234052Y-67862000D01*
X46231000Y-67831010D01*
X46231000Y-56661407D01*
X46292115Y-56569942D01*
X46350989Y-56427809D01*
X46381002Y-56276922D01*
X46381002Y-56123078D01*
X46350989Y-55972191D01*
X46292115Y-55830058D01*
X46206644Y-55702141D01*
X46097861Y-55593358D01*
X45969944Y-55507887D01*
X45827811Y-55449013D01*
X45676924Y-55419000D01*
X45523080Y-55419000D01*
X45372193Y-55449013D01*
X45230060Y-55507887D01*
X45102143Y-55593358D01*
X44993360Y-55702141D01*
X44907889Y-55830058D01*
X44849015Y-55972191D01*
X44819002Y-56123078D01*
X44819002Y-56276922D01*
X44849015Y-56427809D01*
X44907889Y-56569942D01*
X44969001Y-56661403D01*
X44969000Y-67410000D01*
X44891993Y-67410000D01*
X44687976Y-67450581D01*
X44495796Y-67530185D01*
X44322839Y-67645751D01*
X44175751Y-67792839D01*
X44060185Y-67965796D01*
X43980581Y-68157976D01*
X43940000Y-68361993D01*
X38673110Y-68361993D01*
X37907904Y-67890837D01*
X36434217Y-66800904D01*
X35058272Y-65589920D01*
X33789982Y-64266610D01*
X32638486Y-62840509D01*
X31962937Y-61841000D01*
X38538157Y-61841000D01*
X38538157Y-63191000D01*
X38545513Y-63265689D01*
X38567299Y-63337508D01*
X38602678Y-63403696D01*
X38650289Y-63461711D01*
X38708304Y-63509322D01*
X38774492Y-63544701D01*
X38846311Y-63566487D01*
X38921000Y-63573843D01*
X40271000Y-63573843D01*
X40345689Y-63566487D01*
X40417508Y-63544701D01*
X40483696Y-63509322D01*
X40541711Y-63461711D01*
X40589322Y-63403696D01*
X40624701Y-63337508D01*
X40646487Y-63265689D01*
X40653843Y-63191000D01*
X40653843Y-61841000D01*
X40646487Y-61766311D01*
X40624701Y-61694492D01*
X40589322Y-61628304D01*
X40541711Y-61570289D01*
X40483696Y-61522678D01*
X40417508Y-61487299D01*
X40345689Y-61465513D01*
X40271000Y-61458157D01*
X38921000Y-61458157D01*
X38846311Y-61465513D01*
X38774492Y-61487299D01*
X38708304Y-61522678D01*
X38650289Y-61570289D01*
X38602678Y-61628304D01*
X38567299Y-61694492D01*
X38545513Y-61766311D01*
X38538157Y-61841000D01*
X31962937Y-61841000D01*
X31612080Y-61321891D01*
X30718159Y-59721700D01*
X29963164Y-58051463D01*
X29352536Y-56323215D01*
X28890672Y-54549408D01*
X28580902Y-52742823D01*
X28425457Y-50916475D01*
X28425457Y-49804889D01*
X30019000Y-49804889D01*
X30019000Y-50195111D01*
X30095129Y-50577836D01*
X30244461Y-50938355D01*
X30461257Y-51262814D01*
X30737186Y-51538743D01*
X31061645Y-51755539D01*
X31422164Y-51904871D01*
X31804889Y-51981000D01*
X32195111Y-51981000D01*
X32577836Y-51904871D01*
X32938355Y-51755539D01*
X33262814Y-51538743D01*
X33538743Y-51262814D01*
X33755539Y-50938355D01*
X33904871Y-50577836D01*
X33981000Y-50195111D01*
X33981000Y-49804889D01*
X33973164Y-49765492D01*
X37619000Y-49765492D01*
X37619000Y-50234508D01*
X37710500Y-50694512D01*
X37889985Y-51127827D01*
X38150556Y-51517799D01*
X38482201Y-51849444D01*
X38872173Y-52110015D01*
X39305488Y-52289500D01*
X39765492Y-52381000D01*
X40234508Y-52381000D01*
X40694512Y-52289500D01*
X41127827Y-52110015D01*
X41517799Y-51849444D01*
X41849444Y-51517799D01*
X42110015Y-51127827D01*
X42289500Y-50694512D01*
X42381000Y-50234508D01*
X42381000Y-49765492D01*
X57619000Y-49765492D01*
X57619000Y-50234508D01*
X57710500Y-50694512D01*
X57889985Y-51127827D01*
X58150556Y-51517799D01*
X58482201Y-51849444D01*
X58872173Y-52110015D01*
X59305488Y-52289500D01*
X59765492Y-52381000D01*
X60234508Y-52381000D01*
X60694512Y-52289500D01*
X61127827Y-52110015D01*
X61517799Y-51849444D01*
X61849444Y-51517799D01*
X62110015Y-51127827D01*
X62289500Y-50694512D01*
X62381000Y-50234508D01*
X62381000Y-49765492D01*
X62289500Y-49305488D01*
X62110015Y-48872173D01*
X61849444Y-48482201D01*
X61517799Y-48150556D01*
X61127827Y-47889985D01*
X60694512Y-47710500D01*
X60234508Y-47619000D01*
X59765492Y-47619000D01*
X59305488Y-47710500D01*
X58872173Y-47889985D01*
X58482201Y-48150556D01*
X58150556Y-48482201D01*
X57889985Y-48872173D01*
X57710500Y-49305488D01*
X57619000Y-49765492D01*
X42381000Y-49765492D01*
X42289500Y-49305488D01*
X42110015Y-48872173D01*
X41849444Y-48482201D01*
X41517799Y-48150556D01*
X41127827Y-47889985D01*
X40694512Y-47710500D01*
X40234508Y-47619000D01*
X39765492Y-47619000D01*
X39305488Y-47710500D01*
X38872173Y-47889985D01*
X38482201Y-48150556D01*
X38150556Y-48482201D01*
X37889985Y-48872173D01*
X37710500Y-49305488D01*
X37619000Y-49765492D01*
X33973164Y-49765492D01*
X33904871Y-49422164D01*
X33755539Y-49061645D01*
X33538743Y-48737186D01*
X33262814Y-48461257D01*
X32938355Y-48244461D01*
X32577836Y-48095129D01*
X32195111Y-48019000D01*
X31804889Y-48019000D01*
X31422164Y-48095129D01*
X31061645Y-48244461D01*
X30737186Y-48461257D01*
X30461257Y-48737186D01*
X30244461Y-49061645D01*
X30095129Y-49422164D01*
X30019000Y-49804889D01*
X28425457Y-49804889D01*
X28425457Y-49083525D01*
X28580902Y-47257177D01*
X28890672Y-45450592D01*
X29352536Y-43676785D01*
X29963164Y-41948537D01*
X30718159Y-40278300D01*
X31612080Y-38678109D01*
X32638486Y-37159491D01*
X33789982Y-35733390D01*
X35058272Y-34410080D01*
X36434217Y-33199096D01*
X37907904Y-32109163D01*
X39468715Y-31148133D01*
X41105404Y-30322932D01*
X42806179Y-29639504D01*
X44558786Y-29102775D01*
X46350596Y-28716610D01*
X48168701Y-28483793D01*
X50000000Y-28406000D01*
X51831299Y-28483793D01*
G37*
X51831299Y-28483793D02*
X53649404Y-28716610D01*
X55441214Y-29102775D01*
X57193821Y-29639504D01*
X58894596Y-30322932D01*
X60531285Y-31148133D01*
X62092096Y-32109163D01*
X63565783Y-33199096D01*
X64941728Y-34410080D01*
X66210018Y-35733390D01*
X67361514Y-37159491D01*
X68387920Y-38678109D01*
X69281841Y-40278300D01*
X70036836Y-41948537D01*
X70647464Y-43676785D01*
X71109328Y-45450592D01*
X71419098Y-47257177D01*
X71574543Y-49083525D01*
X71574543Y-50916475D01*
X71419098Y-52742823D01*
X71109328Y-54549408D01*
X70647464Y-56323215D01*
X70036836Y-58051463D01*
X69281841Y-59721700D01*
X68387920Y-61321891D01*
X67361514Y-62840509D01*
X66210018Y-64266610D01*
X64941728Y-65589920D01*
X63565783Y-66800904D01*
X62092096Y-67890837D01*
X60531285Y-68851867D01*
X58894596Y-69677068D01*
X57193821Y-70360496D01*
X55441214Y-70897225D01*
X53649404Y-71283390D01*
X51831299Y-71516207D01*
X50000000Y-71594000D01*
X48168701Y-71516207D01*
X46350596Y-71283390D01*
X44558786Y-70897225D01*
X42806179Y-70360496D01*
X41105404Y-69677068D01*
X39468715Y-68851867D01*
X38673110Y-68361993D01*
X43940000Y-68361993D01*
X43940000Y-68570007D01*
X43980581Y-68774024D01*
X44060185Y-68966204D01*
X44175751Y-69139161D01*
X44322839Y-69286249D01*
X44495796Y-69401815D01*
X44687976Y-69481419D01*
X44891993Y-69522000D01*
X45100007Y-69522000D01*
X45304024Y-69481419D01*
X45496204Y-69401815D01*
X45669161Y-69286249D01*
X45816249Y-69139161D01*
X45931815Y-68966204D01*
X46011419Y-68774024D01*
X46052000Y-68570007D01*
X46052000Y-68361993D01*
X47940000Y-68361993D01*
X47940000Y-68570007D01*
X47980581Y-68774024D01*
X48060185Y-68966204D01*
X48175751Y-69139161D01*
X48322839Y-69286249D01*
X48495796Y-69401815D01*
X48687976Y-69481419D01*
X48891993Y-69522000D01*
X49100007Y-69522000D01*
X49304024Y-69481419D01*
X49496204Y-69401815D01*
X49669161Y-69286249D01*
X49816249Y-69139161D01*
X49931815Y-68966204D01*
X49996000Y-68811249D01*
X50060185Y-68966204D01*
X50175751Y-69139161D01*
X50322839Y-69286249D01*
X50495796Y-69401815D01*
X50687976Y-69481419D01*
X50891993Y-69522000D01*
X51100007Y-69522000D01*
X51304024Y-69481419D01*
X51496204Y-69401815D01*
X51669161Y-69286249D01*
X51816249Y-69139161D01*
X51931815Y-68966204D01*
X51996000Y-68811249D01*
X52060185Y-68966204D01*
X52175751Y-69139161D01*
X52322839Y-69286249D01*
X52495796Y-69401815D01*
X52687976Y-69481419D01*
X52891993Y-69522000D01*
X53100007Y-69522000D01*
X53304024Y-69481419D01*
X53496204Y-69401815D01*
X53669161Y-69286249D01*
X53816249Y-69139161D01*
X53931815Y-68966204D01*
X53938157Y-68950893D01*
X53938157Y-69141000D01*
X53945513Y-69215689D01*
X53967299Y-69287508D01*
X54002678Y-69353696D01*
X54050289Y-69411711D01*
X54108304Y-69459322D01*
X54174492Y-69494701D01*
X54246311Y-69516487D01*
X54321000Y-69523843D01*
X55671000Y-69523843D01*
X55745689Y-69516487D01*
X55817508Y-69494701D01*
X55883696Y-69459322D01*
X55941711Y-69411711D01*
X55989322Y-69353696D01*
X56024701Y-69287508D01*
X56046487Y-69215689D01*
X56053843Y-69141000D01*
X56053843Y-67791000D01*
X56046487Y-67716311D01*
X56024701Y-67644492D01*
X55989322Y-67578304D01*
X55941711Y-67520289D01*
X55883696Y-67472678D01*
X55817508Y-67437299D01*
X55745689Y-67415513D01*
X55671000Y-67408157D01*
X54769435Y-67408157D01*
X55540220Y-66637372D01*
X55559527Y-66621527D01*
X55622759Y-66544479D01*
X55669745Y-66456575D01*
X55698678Y-66361193D01*
X55706000Y-66286854D01*
X55708448Y-66262000D01*
X55706000Y-66237146D01*
X55706000Y-61998501D01*
X55806642Y-61897859D01*
X55892113Y-61769942D01*
X55950987Y-61627809D01*
X55981000Y-61476922D01*
X55981000Y-61323078D01*
X55950987Y-61172191D01*
X55892113Y-61030058D01*
X55823114Y-60926793D01*
X64690230Y-52059677D01*
X64709537Y-52043832D01*
X64772769Y-51966784D01*
X64819755Y-51878880D01*
X64848688Y-51783498D01*
X64856010Y-51709159D01*
X64856010Y-51709152D01*
X64858457Y-51684306D01*
X64856010Y-51659460D01*
X64856010Y-49804889D01*
X66019000Y-49804889D01*
X66019000Y-50195111D01*
X66095129Y-50577836D01*
X66244461Y-50938355D01*
X66461257Y-51262814D01*
X66737186Y-51538743D01*
X67061645Y-51755539D01*
X67422164Y-51904871D01*
X67804889Y-51981000D01*
X68195111Y-51981000D01*
X68577836Y-51904871D01*
X68938355Y-51755539D01*
X69262814Y-51538743D01*
X69538743Y-51262814D01*
X69755539Y-50938355D01*
X69904871Y-50577836D01*
X69981000Y-50195111D01*
X69981000Y-49804889D01*
X69904871Y-49422164D01*
X69755539Y-49061645D01*
X69538743Y-48737186D01*
X69262814Y-48461257D01*
X68938355Y-48244461D01*
X68577836Y-48095129D01*
X68195111Y-48019000D01*
X67804889Y-48019000D01*
X67422164Y-48095129D01*
X67061645Y-48244461D01*
X66737186Y-48461257D01*
X66461257Y-48737186D01*
X66244461Y-49061645D01*
X66095129Y-49422164D01*
X66019000Y-49804889D01*
X64856010Y-49804889D01*
X64856010Y-37583954D01*
X64956652Y-37483312D01*
X65042123Y-37355395D01*
X65100997Y-37213262D01*
X65131010Y-37062375D01*
X65131010Y-36908531D01*
X65100997Y-36757644D01*
X65042123Y-36615511D01*
X64956652Y-36487594D01*
X64847869Y-36378811D01*
X64719952Y-36293340D01*
X64577819Y-36234466D01*
X64426932Y-36204453D01*
X64273088Y-36204453D01*
X64131000Y-36232716D01*
X64131000Y-34430987D01*
X64134052Y-34399999D01*
X64131000Y-34369011D01*
X64131000Y-34369002D01*
X64121870Y-34276302D01*
X64085789Y-34157358D01*
X64027196Y-34047739D01*
X63948343Y-33951657D01*
X63924264Y-33931896D01*
X63624265Y-33631897D01*
X63572908Y-33589749D01*
X63510996Y-33514310D01*
X63414914Y-33435457D01*
X63305295Y-33376864D01*
X63186351Y-33340783D01*
X63093651Y-33331653D01*
X60224058Y-33331653D01*
X60132595Y-33270540D01*
X59990462Y-33211666D01*
X59839575Y-33181653D01*
X59685731Y-33181653D01*
X59534844Y-33211666D01*
X59392711Y-33270540D01*
X59264794Y-33356011D01*
X59156011Y-33464794D01*
X59070540Y-33592711D01*
X59011666Y-33734844D01*
X58981653Y-33885731D01*
X58981653Y-34039575D01*
X59011666Y-34190462D01*
X59070540Y-34332595D01*
X59156011Y-34460512D01*
X59264794Y-34569295D01*
X59392711Y-34654766D01*
X59534844Y-34713640D01*
X59685731Y-34743653D01*
X59839575Y-34743653D01*
X59990462Y-34713640D01*
X60132595Y-34654766D01*
X60224058Y-34593653D01*
X62801285Y-34593653D01*
X62869000Y-34661368D01*
X62869001Y-50838630D01*
X57338632Y-56369000D01*
X56930987Y-56369000D01*
X56899999Y-56365948D01*
X56869011Y-56369000D01*
X56869002Y-56369000D01*
X56776302Y-56378130D01*
X56657358Y-56414211D01*
X56547739Y-56472804D01*
X56451657Y-56551657D01*
X56431897Y-56575735D01*
X54980079Y-58027553D01*
X54872191Y-58049013D01*
X54730058Y-58107887D01*
X54602141Y-58193358D01*
X54493358Y-58302141D01*
X54407887Y-58430058D01*
X54349013Y-58572191D01*
X54319000Y-58723078D01*
X54319000Y-58876922D01*
X54349013Y-59027809D01*
X54407887Y-59169942D01*
X54493358Y-59297859D01*
X54602141Y-59406642D01*
X54730058Y-59492113D01*
X54872191Y-59550987D01*
X55023078Y-59581000D01*
X55176922Y-59581000D01*
X55327809Y-59550987D01*
X55469942Y-59492113D01*
X55597859Y-59406642D01*
X55706642Y-59297859D01*
X55792113Y-59169942D01*
X55850987Y-59027809D01*
X55872447Y-58919921D01*
X57161368Y-57631000D01*
X57569010Y-57631000D01*
X57600000Y-57634052D01*
X57630990Y-57631000D01*
X57630998Y-57631000D01*
X57693921Y-57624803D01*
X54859781Y-60458943D01*
X54840474Y-60474788D01*
X54777242Y-60551836D01*
X54752127Y-60598823D01*
X54730255Y-60639741D01*
X54701322Y-60735123D01*
X54694871Y-60800628D01*
X54593358Y-60902141D01*
X54507887Y-61030058D01*
X54449013Y-61172191D01*
X54419000Y-61323078D01*
X54419000Y-61476922D01*
X54449013Y-61627809D01*
X54507887Y-61769942D01*
X54593358Y-61897859D01*
X54694000Y-61998501D01*
X54694001Y-66052407D01*
X53297188Y-67449221D01*
X53100007Y-67410000D01*
X52891993Y-67410000D01*
X52687976Y-67450581D01*
X52495796Y-67530185D01*
X52322839Y-67645751D01*
X52175751Y-67792839D01*
X52060185Y-67965796D01*
X51996000Y-68120751D01*
X51931815Y-67965796D01*
X51816249Y-67792839D01*
X51669161Y-67645751D01*
X51496204Y-67530185D01*
X51304024Y-67450581D01*
X51100007Y-67410000D01*
X50891993Y-67410000D01*
X50687976Y-67450581D01*
X50495796Y-67530185D01*
X50322839Y-67645751D01*
X50175751Y-67792839D01*
X50060185Y-67965796D01*
X49996000Y-68120751D01*
X49931815Y-67965796D01*
X49816249Y-67792839D01*
X49669161Y-67645751D01*
X49502000Y-67534058D01*
X49502000Y-67113591D01*
X52040220Y-64575372D01*
X52059527Y-64559527D01*
X52122759Y-64482479D01*
X52169745Y-64394575D01*
X52198678Y-64299193D01*
X52206000Y-64224854D01*
X52206000Y-64224847D01*
X52208447Y-64200001D01*
X52206000Y-64175155D01*
X52206000Y-63315234D01*
X52218859Y-63306642D01*
X52327642Y-63197859D01*
X52413113Y-63069942D01*
X52471987Y-62927809D01*
X52502000Y-62776922D01*
X52502000Y-62623078D01*
X52471987Y-62472191D01*
X52413113Y-62330058D01*
X52327642Y-62202141D01*
X52218859Y-62093358D01*
X52090942Y-62007887D01*
X51948809Y-61949013D01*
X51797922Y-61919000D01*
X51644078Y-61919000D01*
X51493191Y-61949013D01*
X51351058Y-62007887D01*
X51223141Y-62093358D01*
X51114358Y-62202141D01*
X51028887Y-62330058D01*
X50970013Y-62472191D01*
X50940000Y-62623078D01*
X50940000Y-62776922D01*
X50970013Y-62927809D01*
X51028887Y-63069942D01*
X51114358Y-63197859D01*
X51194001Y-63277502D01*
X51194000Y-63990408D01*
X48655781Y-66528628D01*
X48636474Y-66544473D01*
X48573242Y-66621521D01*
X48573239Y-66621527D01*
X48526255Y-66709426D01*
X48497322Y-66804808D01*
X48487553Y-66904000D01*
X48490001Y-66928856D01*
X48490001Y-67534057D01*
X48322839Y-67645751D01*
X48175751Y-67792839D01*
X48060185Y-67965796D01*
X47980581Y-68157976D01*
X47940000Y-68361993D01*
X46052000Y-68361993D01*
X46042655Y-68315011D01*
X46048343Y-68310343D01*
X46127196Y-68214261D01*
X46185789Y-68104642D01*
X46221870Y-67985698D01*
X46231000Y-67892998D01*
X46231000Y-67892991D01*
X46234052Y-67862000D01*
X46231000Y-67831010D01*
X46231000Y-56661407D01*
X46292115Y-56569942D01*
X46350989Y-56427809D01*
X46381002Y-56276922D01*
X46381002Y-56123078D01*
X46350989Y-55972191D01*
X46292115Y-55830058D01*
X46206644Y-55702141D01*
X46097861Y-55593358D01*
X45969944Y-55507887D01*
X45827811Y-55449013D01*
X45676924Y-55419000D01*
X45523080Y-55419000D01*
X45372193Y-55449013D01*
X45230060Y-55507887D01*
X45102143Y-55593358D01*
X44993360Y-55702141D01*
X44907889Y-55830058D01*
X44849015Y-55972191D01*
X44819002Y-56123078D01*
X44819002Y-56276922D01*
X44849015Y-56427809D01*
X44907889Y-56569942D01*
X44969001Y-56661403D01*
X44969000Y-67410000D01*
X44891993Y-67410000D01*
X44687976Y-67450581D01*
X44495796Y-67530185D01*
X44322839Y-67645751D01*
X44175751Y-67792839D01*
X44060185Y-67965796D01*
X43980581Y-68157976D01*
X43940000Y-68361993D01*
X38673110Y-68361993D01*
X37907904Y-67890837D01*
X36434217Y-66800904D01*
X35058272Y-65589920D01*
X33789982Y-64266610D01*
X32638486Y-62840509D01*
X31962937Y-61841000D01*
X38538157Y-61841000D01*
X38538157Y-63191000D01*
X38545513Y-63265689D01*
X38567299Y-63337508D01*
X38602678Y-63403696D01*
X38650289Y-63461711D01*
X38708304Y-63509322D01*
X38774492Y-63544701D01*
X38846311Y-63566487D01*
X38921000Y-63573843D01*
X40271000Y-63573843D01*
X40345689Y-63566487D01*
X40417508Y-63544701D01*
X40483696Y-63509322D01*
X40541711Y-63461711D01*
X40589322Y-63403696D01*
X40624701Y-63337508D01*
X40646487Y-63265689D01*
X40653843Y-63191000D01*
X40653843Y-61841000D01*
X40646487Y-61766311D01*
X40624701Y-61694492D01*
X40589322Y-61628304D01*
X40541711Y-61570289D01*
X40483696Y-61522678D01*
X40417508Y-61487299D01*
X40345689Y-61465513D01*
X40271000Y-61458157D01*
X38921000Y-61458157D01*
X38846311Y-61465513D01*
X38774492Y-61487299D01*
X38708304Y-61522678D01*
X38650289Y-61570289D01*
X38602678Y-61628304D01*
X38567299Y-61694492D01*
X38545513Y-61766311D01*
X38538157Y-61841000D01*
X31962937Y-61841000D01*
X31612080Y-61321891D01*
X30718159Y-59721700D01*
X29963164Y-58051463D01*
X29352536Y-56323215D01*
X28890672Y-54549408D01*
X28580902Y-52742823D01*
X28425457Y-50916475D01*
X28425457Y-49804889D01*
X30019000Y-49804889D01*
X30019000Y-50195111D01*
X30095129Y-50577836D01*
X30244461Y-50938355D01*
X30461257Y-51262814D01*
X30737186Y-51538743D01*
X31061645Y-51755539D01*
X31422164Y-51904871D01*
X31804889Y-51981000D01*
X32195111Y-51981000D01*
X32577836Y-51904871D01*
X32938355Y-51755539D01*
X33262814Y-51538743D01*
X33538743Y-51262814D01*
X33755539Y-50938355D01*
X33904871Y-50577836D01*
X33981000Y-50195111D01*
X33981000Y-49804889D01*
X33973164Y-49765492D01*
X37619000Y-49765492D01*
X37619000Y-50234508D01*
X37710500Y-50694512D01*
X37889985Y-51127827D01*
X38150556Y-51517799D01*
X38482201Y-51849444D01*
X38872173Y-52110015D01*
X39305488Y-52289500D01*
X39765492Y-52381000D01*
X40234508Y-52381000D01*
X40694512Y-52289500D01*
X41127827Y-52110015D01*
X41517799Y-51849444D01*
X41849444Y-51517799D01*
X42110015Y-51127827D01*
X42289500Y-50694512D01*
X42381000Y-50234508D01*
X42381000Y-49765492D01*
X57619000Y-49765492D01*
X57619000Y-50234508D01*
X57710500Y-50694512D01*
X57889985Y-51127827D01*
X58150556Y-51517799D01*
X58482201Y-51849444D01*
X58872173Y-52110015D01*
X59305488Y-52289500D01*
X59765492Y-52381000D01*
X60234508Y-52381000D01*
X60694512Y-52289500D01*
X61127827Y-52110015D01*
X61517799Y-51849444D01*
X61849444Y-51517799D01*
X62110015Y-51127827D01*
X62289500Y-50694512D01*
X62381000Y-50234508D01*
X62381000Y-49765492D01*
X62289500Y-49305488D01*
X62110015Y-48872173D01*
X61849444Y-48482201D01*
X61517799Y-48150556D01*
X61127827Y-47889985D01*
X60694512Y-47710500D01*
X60234508Y-47619000D01*
X59765492Y-47619000D01*
X59305488Y-47710500D01*
X58872173Y-47889985D01*
X58482201Y-48150556D01*
X58150556Y-48482201D01*
X57889985Y-48872173D01*
X57710500Y-49305488D01*
X57619000Y-49765492D01*
X42381000Y-49765492D01*
X42289500Y-49305488D01*
X42110015Y-48872173D01*
X41849444Y-48482201D01*
X41517799Y-48150556D01*
X41127827Y-47889985D01*
X40694512Y-47710500D01*
X40234508Y-47619000D01*
X39765492Y-47619000D01*
X39305488Y-47710500D01*
X38872173Y-47889985D01*
X38482201Y-48150556D01*
X38150556Y-48482201D01*
X37889985Y-48872173D01*
X37710500Y-49305488D01*
X37619000Y-49765492D01*
X33973164Y-49765492D01*
X33904871Y-49422164D01*
X33755539Y-49061645D01*
X33538743Y-48737186D01*
X33262814Y-48461257D01*
X32938355Y-48244461D01*
X32577836Y-48095129D01*
X32195111Y-48019000D01*
X31804889Y-48019000D01*
X31422164Y-48095129D01*
X31061645Y-48244461D01*
X30737186Y-48461257D01*
X30461257Y-48737186D01*
X30244461Y-49061645D01*
X30095129Y-49422164D01*
X30019000Y-49804889D01*
X28425457Y-49804889D01*
X28425457Y-49083525D01*
X28580902Y-47257177D01*
X28890672Y-45450592D01*
X29352536Y-43676785D01*
X29963164Y-41948537D01*
X30718159Y-40278300D01*
X31612080Y-38678109D01*
X32638486Y-37159491D01*
X33789982Y-35733390D01*
X35058272Y-34410080D01*
X36434217Y-33199096D01*
X37907904Y-32109163D01*
X39468715Y-31148133D01*
X41105404Y-30322932D01*
X42806179Y-29639504D01*
X44558786Y-29102775D01*
X46350596Y-28716610D01*
X48168701Y-28483793D01*
X50000000Y-28406000D01*
X51831299Y-28483793D01*
%TD*%
M02*
