%TF.GenerationSoftware,KiCad,Pcbnew,5.1.6+dfsg1-1*%
%TF.CreationDate,2020-11-02T20:08:44+01:00*%
%TF.ProjectId,buck_3a_v4,6275636b-5f33-4615-9f76-342e6b696361,rev?*%
%TF.SameCoordinates,Original*%
%TF.FileFunction,Legend,Top*%
%TF.FilePolarity,Positive*%
%FSLAX46Y46*%
G04 Gerber Fmt 4.6, Leading zero omitted, Abs format (unit mm)*
G04 Created by KiCad (PCBNEW 5.1.6+dfsg1-1) date 2020-11-02 20:08:44*
%MOMM*%
%LPD*%
G01*
G04 APERTURE LIST*
%ADD10C,0.300000*%
%ADD11C,0.120000*%
%ADD12C,0.150000*%
%ADD13C,0.200000*%
%ADD14C,0.127000*%
%ADD15C,0.015000*%
G04 APERTURE END LIST*
D10*
X62578571Y-55928571D02*
X61864285Y-55928571D01*
X61864285Y-54428571D01*
X63078571Y-55142857D02*
X63578571Y-55142857D01*
X63792857Y-55928571D02*
X63078571Y-55928571D01*
X63078571Y-54428571D01*
X63792857Y-54428571D01*
X64435714Y-55928571D02*
X64435714Y-54428571D01*
X64792857Y-54428571D01*
X65007142Y-54500000D01*
X65150000Y-54642857D01*
X65221428Y-54785714D01*
X65292857Y-55071428D01*
X65292857Y-55285714D01*
X65221428Y-55571428D01*
X65150000Y-55714285D01*
X65007142Y-55857142D01*
X64792857Y-55928571D01*
X64435714Y-55928571D01*
X66935714Y-54928571D02*
X67292857Y-55928571D01*
X67650000Y-54928571D01*
X68864285Y-54928571D02*
X68864285Y-55928571D01*
X68507142Y-54357142D02*
X68150000Y-55428571D01*
X69078571Y-55428571D01*
X65078571Y-57050000D02*
X64935714Y-56978571D01*
X64721428Y-56978571D01*
X64507142Y-57050000D01*
X64364285Y-57192857D01*
X64292857Y-57335714D01*
X64221428Y-57621428D01*
X64221428Y-57835714D01*
X64292857Y-58121428D01*
X64364285Y-58264285D01*
X64507142Y-58407142D01*
X64721428Y-58478571D01*
X64864285Y-58478571D01*
X65078571Y-58407142D01*
X65150000Y-58335714D01*
X65150000Y-57835714D01*
X64864285Y-57835714D01*
X65721428Y-58407142D02*
X65935714Y-58478571D01*
X66292857Y-58478571D01*
X66435714Y-58407142D01*
X66507142Y-58335714D01*
X66578571Y-58192857D01*
X66578571Y-58050000D01*
X66507142Y-57907142D01*
X66435714Y-57835714D01*
X66292857Y-57764285D01*
X66007142Y-57692857D01*
X65864285Y-57621428D01*
X65792857Y-57550000D01*
X65721428Y-57407142D01*
X65721428Y-57264285D01*
X65792857Y-57121428D01*
X65864285Y-57050000D01*
X66007142Y-56978571D01*
X66364285Y-56978571D01*
X66578571Y-57050000D01*
X62828571Y-59671428D02*
X62900000Y-59600000D01*
X63042857Y-59528571D01*
X63400000Y-59528571D01*
X63542857Y-59600000D01*
X63614285Y-59671428D01*
X63685714Y-59814285D01*
X63685714Y-59957142D01*
X63614285Y-60171428D01*
X62757142Y-61028571D01*
X63685714Y-61028571D01*
X64614285Y-59528571D02*
X64757142Y-59528571D01*
X64900000Y-59600000D01*
X64971428Y-59671428D01*
X65042857Y-59814285D01*
X65114285Y-60100000D01*
X65114285Y-60457142D01*
X65042857Y-60742857D01*
X64971428Y-60885714D01*
X64900000Y-60957142D01*
X64757142Y-61028571D01*
X64614285Y-61028571D01*
X64471428Y-60957142D01*
X64400000Y-60885714D01*
X64328571Y-60742857D01*
X64257142Y-60457142D01*
X64257142Y-60100000D01*
X64328571Y-59814285D01*
X64400000Y-59671428D01*
X64471428Y-59600000D01*
X64614285Y-59528571D01*
X65685714Y-59671428D02*
X65757142Y-59600000D01*
X65900000Y-59528571D01*
X66257142Y-59528571D01*
X66400000Y-59600000D01*
X66471428Y-59671428D01*
X66542857Y-59814285D01*
X66542857Y-59957142D01*
X66471428Y-60171428D01*
X65614285Y-61028571D01*
X66542857Y-61028571D01*
X67471428Y-59528571D02*
X67614285Y-59528571D01*
X67757142Y-59600000D01*
X67828571Y-59671428D01*
X67900000Y-59814285D01*
X67971428Y-60100000D01*
X67971428Y-60457142D01*
X67900000Y-60742857D01*
X67828571Y-60885714D01*
X67757142Y-60957142D01*
X67614285Y-61028571D01*
X67471428Y-61028571D01*
X67328571Y-60957142D01*
X67257142Y-60885714D01*
X67185714Y-60742857D01*
X67114285Y-60457142D01*
X67114285Y-60100000D01*
X67185714Y-59814285D01*
X67257142Y-59671428D01*
X67328571Y-59600000D01*
X67471428Y-59528571D01*
D11*
%TO.C,LED+*%
X62286000Y-50000000D02*
G75*
G03*
X62286000Y-50000000I-2286000J0D01*
G01*
%TO.C,LED-*%
X42286000Y-50000000D02*
G75*
G03*
X42286000Y-50000000I-2286000J0D01*
G01*
%TO.C,J3*%
X55360000Y-50390000D02*
X55360000Y-47640000D01*
X55360000Y-47640000D02*
X52910000Y-47640000D01*
X52910000Y-47640000D02*
X52910000Y-46050000D01*
X44640000Y-50390000D02*
X44640000Y-47640000D01*
X44640000Y-47640000D02*
X47090000Y-47640000D01*
X53690000Y-53660000D02*
X46310000Y-53660000D01*
%TO.C,L1*%
X44956000Y-42140000D02*
X44956000Y-43840000D01*
X44956000Y-43840000D02*
X38356000Y-43840000D01*
X38356000Y-43840000D02*
X38356000Y-42140000D01*
X38356000Y-39140000D02*
X38356000Y-37440000D01*
X38356000Y-37440000D02*
X44956000Y-37440000D01*
X44956000Y-37440000D02*
X44956000Y-39140000D01*
%TO.C,J5*%
X43936000Y-67406000D02*
X43936000Y-69526000D01*
X53996000Y-67406000D02*
X43936000Y-67406000D01*
X53996000Y-69526000D02*
X43936000Y-69526000D01*
X53996000Y-67406000D02*
X53996000Y-69526000D01*
X54996000Y-67406000D02*
X56056000Y-67406000D01*
X56056000Y-67406000D02*
X56056000Y-68466000D01*
%TO.C,J4*%
X38536000Y-65576000D02*
X40656000Y-65576000D01*
X38536000Y-63516000D02*
X38536000Y-65576000D01*
X40656000Y-63516000D02*
X40656000Y-65576000D01*
X38536000Y-63516000D02*
X40656000Y-63516000D01*
X38536000Y-62516000D02*
X38536000Y-61456000D01*
X38536000Y-61456000D02*
X39596000Y-61456000D01*
D12*
%TO.C,U2*%
X47146000Y-57961000D02*
X47146000Y-58166000D01*
X52646000Y-57961000D02*
X52646000Y-58261000D01*
X52646000Y-63471000D02*
X52646000Y-63171000D01*
X47146000Y-63471000D02*
X47146000Y-63171000D01*
X47146000Y-57961000D02*
X52646000Y-57961000D01*
X47146000Y-63471000D02*
X52646000Y-63471000D01*
X47146000Y-58166000D02*
X45396000Y-58166000D01*
D13*
%TO.C,U1*%
X59150000Y-37845000D02*
G75*
G03*
X59150000Y-37845000I-100000J0D01*
G01*
D14*
X58450000Y-36950000D02*
X58450000Y-33850000D01*
X61550000Y-36950000D02*
X61550000Y-33850000D01*
D11*
%TO.C,R7*%
X43956000Y-57357422D02*
X43956000Y-57874578D01*
X42536000Y-57357422D02*
X42536000Y-57874578D01*
%TO.C,R6*%
X42136000Y-62837078D02*
X42136000Y-62319922D01*
X43556000Y-62837078D02*
X43556000Y-62319922D01*
%TO.C,R5*%
X59790000Y-62596078D02*
X59790000Y-62078922D01*
X61210000Y-62596078D02*
X61210000Y-62078922D01*
%TO.C,R4*%
X37236000Y-57974578D02*
X37236000Y-57457422D01*
X38656000Y-57974578D02*
X38656000Y-57457422D01*
%TO.C,R3*%
X41306000Y-57457422D02*
X41306000Y-57974578D01*
X39886000Y-57457422D02*
X39886000Y-57974578D01*
%TO.C,R2*%
X57704578Y-61526000D02*
X57187422Y-61526000D01*
X57704578Y-60106000D02*
X57187422Y-60106000D01*
%TO.C,R1*%
X60472064Y-43874000D02*
X56367936Y-43874000D01*
X60472064Y-40454000D02*
X56367936Y-40454000D01*
%TO.C,Q1*%
X46540000Y-33891000D02*
X52660000Y-33891000D01*
X46540000Y-39261000D02*
X52660000Y-39261000D01*
X52660000Y-34241000D02*
X52660000Y-33891000D01*
X46540000Y-34191000D02*
X46540000Y-33891000D01*
X46540000Y-38961000D02*
X46540000Y-39261000D01*
%TO.C,D2*%
X58437500Y-62640000D02*
X55752500Y-62640000D01*
X55752500Y-62640000D02*
X55752500Y-64560000D01*
X55752500Y-64560000D02*
X58437500Y-64560000D01*
%TO.C,D1*%
X53216000Y-43814000D02*
X53216000Y-40514000D01*
X53216000Y-40514000D02*
X47816000Y-40514000D01*
X53216000Y-43814000D02*
X47816000Y-43814000D01*
%TO.C,C5*%
X58236000Y-57837078D02*
X58236000Y-57319922D01*
X59656000Y-57837078D02*
X59656000Y-57319922D01*
%TO.C,C4*%
X55936000Y-57874578D02*
X55936000Y-57357422D01*
X57356000Y-57874578D02*
X57356000Y-57357422D01*
%TO.C,C3*%
X62703922Y-38290000D02*
X63221078Y-38290000D01*
X62703922Y-39710000D02*
X63221078Y-39710000D01*
%TO.C,C2*%
X56396078Y-37410000D02*
X55878922Y-37410000D01*
X56396078Y-35990000D02*
X55878922Y-35990000D01*
%TO.C,C1*%
X55903922Y-38152000D02*
X56421078Y-38152000D01*
X55903922Y-39572000D02*
X56421078Y-39572000D01*
%TO.C,LED+*%
D12*
X58938095Y-46852380D02*
X58461904Y-46852380D01*
X58461904Y-45852380D01*
X59271428Y-46328571D02*
X59604761Y-46328571D01*
X59747619Y-46852380D02*
X59271428Y-46852380D01*
X59271428Y-45852380D01*
X59747619Y-45852380D01*
X60176190Y-46852380D02*
X60176190Y-45852380D01*
X60414285Y-45852380D01*
X60557142Y-45900000D01*
X60652380Y-45995238D01*
X60700000Y-46090476D01*
X60747619Y-46280952D01*
X60747619Y-46423809D01*
X60700000Y-46614285D01*
X60652380Y-46709523D01*
X60557142Y-46804761D01*
X60414285Y-46852380D01*
X60176190Y-46852380D01*
X61176190Y-46471428D02*
X61938095Y-46471428D01*
X61557142Y-46852380D02*
X61557142Y-46090476D01*
%TO.C,LED-*%
X39138095Y-47052380D02*
X38661904Y-47052380D01*
X38661904Y-46052380D01*
X39471428Y-46528571D02*
X39804761Y-46528571D01*
X39947619Y-47052380D02*
X39471428Y-47052380D01*
X39471428Y-46052380D01*
X39947619Y-46052380D01*
X40376190Y-47052380D02*
X40376190Y-46052380D01*
X40614285Y-46052380D01*
X40757142Y-46100000D01*
X40852380Y-46195238D01*
X40900000Y-46290476D01*
X40947619Y-46480952D01*
X40947619Y-46623809D01*
X40900000Y-46814285D01*
X40852380Y-46909523D01*
X40757142Y-47004761D01*
X40614285Y-47052380D01*
X40376190Y-47052380D01*
X41376190Y-46671428D02*
X42138095Y-46671428D01*
%TO.C,J3*%
X49666666Y-54852380D02*
X49666666Y-55566666D01*
X49619047Y-55709523D01*
X49523809Y-55804761D01*
X49380952Y-55852380D01*
X49285714Y-55852380D01*
X50047619Y-54852380D02*
X50666666Y-54852380D01*
X50333333Y-55233333D01*
X50476190Y-55233333D01*
X50571428Y-55280952D01*
X50619047Y-55328571D01*
X50666666Y-55423809D01*
X50666666Y-55661904D01*
X50619047Y-55757142D01*
X50571428Y-55804761D01*
X50476190Y-55852380D01*
X50190476Y-55852380D01*
X50095238Y-55804761D01*
X50047619Y-55757142D01*
%TO.C,L1*%
X41489333Y-36642380D02*
X41013142Y-36642380D01*
X41013142Y-35642380D01*
X42346476Y-36642380D02*
X41775047Y-36642380D01*
X42060761Y-36642380D02*
X42060761Y-35642380D01*
X41965523Y-35785238D01*
X41870285Y-35880476D01*
X41775047Y-35928095D01*
%TO.C,J5*%
X49666666Y-70252380D02*
X49666666Y-70966666D01*
X49619047Y-71109523D01*
X49523809Y-71204761D01*
X49380952Y-71252380D01*
X49285714Y-71252380D01*
X50619047Y-70252380D02*
X50142857Y-70252380D01*
X50095238Y-70728571D01*
X50142857Y-70680952D01*
X50238095Y-70633333D01*
X50476190Y-70633333D01*
X50571428Y-70680952D01*
X50619047Y-70728571D01*
X50666666Y-70823809D01*
X50666666Y-71061904D01*
X50619047Y-71157142D01*
X50571428Y-71204761D01*
X50476190Y-71252380D01*
X50238095Y-71252380D01*
X50142857Y-71204761D01*
X50095238Y-71157142D01*
%TO.C,J4*%
X39262666Y-59908380D02*
X39262666Y-60622666D01*
X39215047Y-60765523D01*
X39119809Y-60860761D01*
X38976952Y-60908380D01*
X38881714Y-60908380D01*
X40167428Y-60241714D02*
X40167428Y-60908380D01*
X39929333Y-59860761D02*
X39691238Y-60575047D01*
X40310285Y-60575047D01*
%TO.C,U2*%
X49134095Y-63852380D02*
X49134095Y-64661904D01*
X49181714Y-64757142D01*
X49229333Y-64804761D01*
X49324571Y-64852380D01*
X49515047Y-64852380D01*
X49610285Y-64804761D01*
X49657904Y-64757142D01*
X49705523Y-64661904D01*
X49705523Y-63852380D01*
X50134095Y-63947619D02*
X50181714Y-63900000D01*
X50276952Y-63852380D01*
X50515047Y-63852380D01*
X50610285Y-63900000D01*
X50657904Y-63947619D01*
X50705523Y-64042857D01*
X50705523Y-64138095D01*
X50657904Y-64280952D01*
X50086476Y-64852380D01*
X50705523Y-64852380D01*
%TO.C,U1*%
D15*
X58238095Y-32052380D02*
X58238095Y-32861904D01*
X58285714Y-32957142D01*
X58333333Y-33004761D01*
X58428571Y-33052380D01*
X58619047Y-33052380D01*
X58714285Y-33004761D01*
X58761904Y-32957142D01*
X58809523Y-32861904D01*
X58809523Y-32052380D01*
X59809523Y-33052380D02*
X59238095Y-33052380D01*
X59523809Y-33052380D02*
X59523809Y-32052380D01*
X59428571Y-32195238D01*
X59333333Y-32290476D01*
X59238095Y-32338095D01*
%TO.C,R7*%
D12*
X42833333Y-55652380D02*
X42500000Y-55176190D01*
X42261904Y-55652380D02*
X42261904Y-54652380D01*
X42642857Y-54652380D01*
X42738095Y-54700000D01*
X42785714Y-54747619D01*
X42833333Y-54842857D01*
X42833333Y-54985714D01*
X42785714Y-55080952D01*
X42738095Y-55128571D01*
X42642857Y-55176190D01*
X42261904Y-55176190D01*
X43166666Y-54652380D02*
X43833333Y-54652380D01*
X43404761Y-55652380D01*
%TO.C,R6*%
X42633333Y-60652380D02*
X42300000Y-60176190D01*
X42061904Y-60652380D02*
X42061904Y-59652380D01*
X42442857Y-59652380D01*
X42538095Y-59700000D01*
X42585714Y-59747619D01*
X42633333Y-59842857D01*
X42633333Y-59985714D01*
X42585714Y-60080952D01*
X42538095Y-60128571D01*
X42442857Y-60176190D01*
X42061904Y-60176190D01*
X43490476Y-59652380D02*
X43300000Y-59652380D01*
X43204761Y-59700000D01*
X43157142Y-59747619D01*
X43061904Y-59890476D01*
X43014285Y-60080952D01*
X43014285Y-60461904D01*
X43061904Y-60557142D01*
X43109523Y-60604761D01*
X43204761Y-60652380D01*
X43395238Y-60652380D01*
X43490476Y-60604761D01*
X43538095Y-60557142D01*
X43585714Y-60461904D01*
X43585714Y-60223809D01*
X43538095Y-60128571D01*
X43490476Y-60080952D01*
X43395238Y-60033333D01*
X43204761Y-60033333D01*
X43109523Y-60080952D01*
X43061904Y-60128571D01*
X43014285Y-60223809D01*
%TO.C,R5*%
X60433333Y-65252380D02*
X60100000Y-64776190D01*
X59861904Y-65252380D02*
X59861904Y-64252380D01*
X60242857Y-64252380D01*
X60338095Y-64300000D01*
X60385714Y-64347619D01*
X60433333Y-64442857D01*
X60433333Y-64585714D01*
X60385714Y-64680952D01*
X60338095Y-64728571D01*
X60242857Y-64776190D01*
X59861904Y-64776190D01*
X61338095Y-64252380D02*
X60861904Y-64252380D01*
X60814285Y-64728571D01*
X60861904Y-64680952D01*
X60957142Y-64633333D01*
X61195238Y-64633333D01*
X61290476Y-64680952D01*
X61338095Y-64728571D01*
X61385714Y-64823809D01*
X61385714Y-65061904D01*
X61338095Y-65157142D01*
X61290476Y-65204761D01*
X61195238Y-65252380D01*
X60957142Y-65252380D01*
X60861904Y-65204761D01*
X60814285Y-65157142D01*
%TO.C,R4*%
X35633333Y-57652380D02*
X35300000Y-57176190D01*
X35061904Y-57652380D02*
X35061904Y-56652380D01*
X35442857Y-56652380D01*
X35538095Y-56700000D01*
X35585714Y-56747619D01*
X35633333Y-56842857D01*
X35633333Y-56985714D01*
X35585714Y-57080952D01*
X35538095Y-57128571D01*
X35442857Y-57176190D01*
X35061904Y-57176190D01*
X36490476Y-56985714D02*
X36490476Y-57652380D01*
X36252380Y-56604761D02*
X36014285Y-57319047D01*
X36633333Y-57319047D01*
%TO.C,R3*%
X40433333Y-55652380D02*
X40100000Y-55176190D01*
X39861904Y-55652380D02*
X39861904Y-54652380D01*
X40242857Y-54652380D01*
X40338095Y-54700000D01*
X40385714Y-54747619D01*
X40433333Y-54842857D01*
X40433333Y-54985714D01*
X40385714Y-55080952D01*
X40338095Y-55128571D01*
X40242857Y-55176190D01*
X39861904Y-55176190D01*
X40766666Y-54652380D02*
X41385714Y-54652380D01*
X41052380Y-55033333D01*
X41195238Y-55033333D01*
X41290476Y-55080952D01*
X41338095Y-55128571D01*
X41385714Y-55223809D01*
X41385714Y-55461904D01*
X41338095Y-55557142D01*
X41290476Y-55604761D01*
X41195238Y-55652380D01*
X40909523Y-55652380D01*
X40814285Y-55604761D01*
X40766666Y-55557142D01*
%TO.C,R2*%
X60033333Y-60452380D02*
X59700000Y-59976190D01*
X59461904Y-60452380D02*
X59461904Y-59452380D01*
X59842857Y-59452380D01*
X59938095Y-59500000D01*
X59985714Y-59547619D01*
X60033333Y-59642857D01*
X60033333Y-59785714D01*
X59985714Y-59880952D01*
X59938095Y-59928571D01*
X59842857Y-59976190D01*
X59461904Y-59976190D01*
X60414285Y-59547619D02*
X60461904Y-59500000D01*
X60557142Y-59452380D01*
X60795238Y-59452380D01*
X60890476Y-59500000D01*
X60938095Y-59547619D01*
X60985714Y-59642857D01*
X60985714Y-59738095D01*
X60938095Y-59880952D01*
X60366666Y-60452380D01*
X60985714Y-60452380D01*
%TO.C,R1*%
X63233333Y-42452380D02*
X62900000Y-41976190D01*
X62661904Y-42452380D02*
X62661904Y-41452380D01*
X63042857Y-41452380D01*
X63138095Y-41500000D01*
X63185714Y-41547619D01*
X63233333Y-41642857D01*
X63233333Y-41785714D01*
X63185714Y-41880952D01*
X63138095Y-41928571D01*
X63042857Y-41976190D01*
X62661904Y-41976190D01*
X64185714Y-42452380D02*
X63614285Y-42452380D01*
X63900000Y-42452380D02*
X63900000Y-41452380D01*
X63804761Y-41595238D01*
X63709523Y-41690476D01*
X63614285Y-41738095D01*
%TO.C,Q1*%
X49704761Y-33347619D02*
X49609523Y-33300000D01*
X49514285Y-33204761D01*
X49371428Y-33061904D01*
X49276190Y-33014285D01*
X49180952Y-33014285D01*
X49228571Y-33252380D02*
X49133333Y-33204761D01*
X49038095Y-33109523D01*
X48990476Y-32919047D01*
X48990476Y-32585714D01*
X49038095Y-32395238D01*
X49133333Y-32300000D01*
X49228571Y-32252380D01*
X49419047Y-32252380D01*
X49514285Y-32300000D01*
X49609523Y-32395238D01*
X49657142Y-32585714D01*
X49657142Y-32919047D01*
X49609523Y-33109523D01*
X49514285Y-33204761D01*
X49419047Y-33252380D01*
X49228571Y-33252380D01*
X50609523Y-33252380D02*
X50038095Y-33252380D01*
X50323809Y-33252380D02*
X50323809Y-32252380D01*
X50228571Y-32395238D01*
X50133333Y-32490476D01*
X50038095Y-32538095D01*
%TO.C,D2*%
X56861904Y-66052380D02*
X56861904Y-65052380D01*
X57100000Y-65052380D01*
X57242857Y-65100000D01*
X57338095Y-65195238D01*
X57385714Y-65290476D01*
X57433333Y-65480952D01*
X57433333Y-65623809D01*
X57385714Y-65814285D01*
X57338095Y-65909523D01*
X57242857Y-66004761D01*
X57100000Y-66052380D01*
X56861904Y-66052380D01*
X57814285Y-65147619D02*
X57861904Y-65100000D01*
X57957142Y-65052380D01*
X58195238Y-65052380D01*
X58290476Y-65100000D01*
X58338095Y-65147619D01*
X58385714Y-65242857D01*
X58385714Y-65338095D01*
X58338095Y-65480952D01*
X57766666Y-66052380D01*
X58385714Y-66052380D01*
%TO.C,D1*%
X49077904Y-45116380D02*
X49077904Y-44116380D01*
X49316000Y-44116380D01*
X49458857Y-44164000D01*
X49554095Y-44259238D01*
X49601714Y-44354476D01*
X49649333Y-44544952D01*
X49649333Y-44687809D01*
X49601714Y-44878285D01*
X49554095Y-44973523D01*
X49458857Y-45068761D01*
X49316000Y-45116380D01*
X49077904Y-45116380D01*
X50601714Y-45116380D02*
X50030285Y-45116380D01*
X50316000Y-45116380D02*
X50316000Y-44116380D01*
X50220761Y-44259238D01*
X50125523Y-44354476D01*
X50030285Y-44402095D01*
%TO.C,C5*%
X58833333Y-55557142D02*
X58785714Y-55604761D01*
X58642857Y-55652380D01*
X58547619Y-55652380D01*
X58404761Y-55604761D01*
X58309523Y-55509523D01*
X58261904Y-55414285D01*
X58214285Y-55223809D01*
X58214285Y-55080952D01*
X58261904Y-54890476D01*
X58309523Y-54795238D01*
X58404761Y-54700000D01*
X58547619Y-54652380D01*
X58642857Y-54652380D01*
X58785714Y-54700000D01*
X58833333Y-54747619D01*
X59738095Y-54652380D02*
X59261904Y-54652380D01*
X59214285Y-55128571D01*
X59261904Y-55080952D01*
X59357142Y-55033333D01*
X59595238Y-55033333D01*
X59690476Y-55080952D01*
X59738095Y-55128571D01*
X59785714Y-55223809D01*
X59785714Y-55461904D01*
X59738095Y-55557142D01*
X59690476Y-55604761D01*
X59595238Y-55652380D01*
X59357142Y-55652380D01*
X59261904Y-55604761D01*
X59214285Y-55557142D01*
%TO.C,C4*%
X56233333Y-55557142D02*
X56185714Y-55604761D01*
X56042857Y-55652380D01*
X55947619Y-55652380D01*
X55804761Y-55604761D01*
X55709523Y-55509523D01*
X55661904Y-55414285D01*
X55614285Y-55223809D01*
X55614285Y-55080952D01*
X55661904Y-54890476D01*
X55709523Y-54795238D01*
X55804761Y-54700000D01*
X55947619Y-54652380D01*
X56042857Y-54652380D01*
X56185714Y-54700000D01*
X56233333Y-54747619D01*
X57090476Y-54985714D02*
X57090476Y-55652380D01*
X56852380Y-54604761D02*
X56614285Y-55319047D01*
X57233333Y-55319047D01*
%TO.C,C3*%
X62795833Y-37707142D02*
X62748214Y-37754761D01*
X62605357Y-37802380D01*
X62510119Y-37802380D01*
X62367261Y-37754761D01*
X62272023Y-37659523D01*
X62224404Y-37564285D01*
X62176785Y-37373809D01*
X62176785Y-37230952D01*
X62224404Y-37040476D01*
X62272023Y-36945238D01*
X62367261Y-36850000D01*
X62510119Y-36802380D01*
X62605357Y-36802380D01*
X62748214Y-36850000D01*
X62795833Y-36897619D01*
X63129166Y-36802380D02*
X63748214Y-36802380D01*
X63414880Y-37183333D01*
X63557738Y-37183333D01*
X63652976Y-37230952D01*
X63700595Y-37278571D01*
X63748214Y-37373809D01*
X63748214Y-37611904D01*
X63700595Y-37707142D01*
X63652976Y-37754761D01*
X63557738Y-37802380D01*
X63272023Y-37802380D01*
X63176785Y-37754761D01*
X63129166Y-37707142D01*
%TO.C,C2*%
X58833333Y-39357142D02*
X58785714Y-39404761D01*
X58642857Y-39452380D01*
X58547619Y-39452380D01*
X58404761Y-39404761D01*
X58309523Y-39309523D01*
X58261904Y-39214285D01*
X58214285Y-39023809D01*
X58214285Y-38880952D01*
X58261904Y-38690476D01*
X58309523Y-38595238D01*
X58404761Y-38500000D01*
X58547619Y-38452380D01*
X58642857Y-38452380D01*
X58785714Y-38500000D01*
X58833333Y-38547619D01*
X59214285Y-38547619D02*
X59261904Y-38500000D01*
X59357142Y-38452380D01*
X59595238Y-38452380D01*
X59690476Y-38500000D01*
X59738095Y-38547619D01*
X59785714Y-38642857D01*
X59785714Y-38738095D01*
X59738095Y-38880952D01*
X59166666Y-39452380D01*
X59785714Y-39452380D01*
%TO.C,C1*%
X55995833Y-35357142D02*
X55948214Y-35404761D01*
X55805357Y-35452380D01*
X55710119Y-35452380D01*
X55567261Y-35404761D01*
X55472023Y-35309523D01*
X55424404Y-35214285D01*
X55376785Y-35023809D01*
X55376785Y-34880952D01*
X55424404Y-34690476D01*
X55472023Y-34595238D01*
X55567261Y-34500000D01*
X55710119Y-34452380D01*
X55805357Y-34452380D01*
X55948214Y-34500000D01*
X55995833Y-34547619D01*
X56948214Y-35452380D02*
X56376785Y-35452380D01*
X56662500Y-35452380D02*
X56662500Y-34452380D01*
X56567261Y-34595238D01*
X56472023Y-34690476D01*
X56376785Y-34738095D01*
%TD*%
M02*
