M48
; DRILL file {KiCad 5.1.6+dfsg1-1} date Mon Nov  2 20:08:46 2020
; FORMAT={-:-/ absolute / inch / decimal}
; #@! TF.CreationDate,2020-11-02T20:08:46+01:00
; #@! TF.GenerationSoftware,Kicad,Pcbnew,5.1.6+dfsg1-1
; #@! TF.FileFunction,Plated,1,2,PTH
FMAT,2
INCH
T1C0.0157
T2C0.0315
T3C0.1181
%
G90
G05
T1
X1.4939Y-2.1754
X1.7489Y-2.4654
X1.7669Y-2.2314
X1.8248Y-1.8602
X2.0354Y-1.5512
X2.0363Y-2.4685
X2.0748Y-1.5512
X2.1102Y-1.4134
X2.1102Y-1.4567
X2.1102Y-1.4961
X2.1102Y-1.5354
X2.1693Y-2.315
X2.1732Y-2.4173
X2.252Y-1.6024
X2.2938Y-1.3371
X2.3425Y-1.3937
X2.3745Y-1.5005
X2.3898Y-1.3937
X2.3898Y-2.2323
X2.5748Y-1.5354
T2
X1.7715Y-2.6955
X1.8502Y-2.6955
X1.929Y-2.6955
X2.0077Y-2.6955
X2.0865Y-2.6955
X2.1652Y-2.6955
X1.5589Y-2.4613
X1.5589Y-2.54
T3
X1.5748Y-1.9685
X2.3622Y-1.9685
T0
M30
