%TF.GenerationSoftware,KiCad,Pcbnew,5.1.6+dfsg1-1*%
%TF.CreationDate,2020-11-02T20:08:44+01:00*%
%TF.ProjectId,buck_3a_v4,6275636b-5f33-4615-9f76-342e6b696361,rev?*%
%TF.SameCoordinates,Original*%
%TF.FileFunction,Paste,Top*%
%TF.FilePolarity,Positive*%
%FSLAX46Y46*%
G04 Gerber Fmt 4.6, Leading zero omitted, Abs format (unit mm)*
G04 Created by KiCad (PCBNEW 5.1.6+dfsg1-1) date 2020-11-02 20:08:44*
%MOMM*%
%LPD*%
G01*
G04 APERTURE LIST*
%ADD10C,0.010000*%
%ADD11R,1.500000X2.400000*%
%ADD12R,1.700000X0.650000*%
%ADD13R,0.420000X0.760000*%
%ADD14R,0.750000X0.500000*%
%ADD15R,1.500000X1.500000*%
%ADD16R,0.750000X0.400000*%
%ADD17R,2.500000X1.800000*%
G04 APERTURE END LIST*
D10*
%TO.C,U1*%
G36*
X59270000Y-35870000D02*
G01*
X59270000Y-34930000D01*
X60730000Y-34930000D01*
X60730000Y-35870000D01*
X59270000Y-35870000D01*
G37*
X59270000Y-35870000D02*
X59270000Y-34930000D01*
X60730000Y-34930000D01*
X60730000Y-35870000D01*
X59270000Y-35870000D01*
%TD*%
%TO.C,J3*%
G36*
G01*
X46050000Y-50900000D02*
X46050000Y-53700000D01*
G75*
G02*
X45800000Y-53950000I-250000J0D01*
G01*
X44500000Y-53950000D01*
G75*
G02*
X44250000Y-53700000I0J250000D01*
G01*
X44250000Y-50900000D01*
G75*
G02*
X44500000Y-50650000I250000J0D01*
G01*
X45800000Y-50650000D01*
G75*
G02*
X46050000Y-50900000I0J-250000D01*
G01*
G37*
G36*
G01*
X55750000Y-50900000D02*
X55750000Y-53700000D01*
G75*
G02*
X55500000Y-53950000I-250000J0D01*
G01*
X54200000Y-53950000D01*
G75*
G02*
X53950000Y-53700000I0J250000D01*
G01*
X53950000Y-50900000D01*
G75*
G02*
X54200000Y-50650000I250000J0D01*
G01*
X55500000Y-50650000D01*
G75*
G02*
X55750000Y-50900000I0J-250000D01*
G01*
G37*
G36*
G01*
X48150000Y-46250000D02*
X48150000Y-48250000D01*
G75*
G02*
X47950000Y-48450000I-200000J0D01*
G01*
X47550000Y-48450000D01*
G75*
G02*
X47350000Y-48250000I0J200000D01*
G01*
X47350000Y-46250000D01*
G75*
G02*
X47550000Y-46050000I200000J0D01*
G01*
X47950000Y-46050000D01*
G75*
G02*
X48150000Y-46250000I0J-200000D01*
G01*
G37*
G36*
G01*
X49650000Y-46250000D02*
X49650000Y-48250000D01*
G75*
G02*
X49450000Y-48450000I-200000J0D01*
G01*
X49050000Y-48450000D01*
G75*
G02*
X48850000Y-48250000I0J200000D01*
G01*
X48850000Y-46250000D01*
G75*
G02*
X49050000Y-46050000I200000J0D01*
G01*
X49450000Y-46050000D01*
G75*
G02*
X49650000Y-46250000I0J-200000D01*
G01*
G37*
G36*
G01*
X51150000Y-46250000D02*
X51150000Y-48250000D01*
G75*
G02*
X50950000Y-48450000I-200000J0D01*
G01*
X50550000Y-48450000D01*
G75*
G02*
X50350000Y-48250000I0J200000D01*
G01*
X50350000Y-46250000D01*
G75*
G02*
X50550000Y-46050000I200000J0D01*
G01*
X50950000Y-46050000D01*
G75*
G02*
X51150000Y-46250000I0J-200000D01*
G01*
G37*
G36*
G01*
X52650000Y-46250000D02*
X52650000Y-48250000D01*
G75*
G02*
X52450000Y-48450000I-200000J0D01*
G01*
X52050000Y-48450000D01*
G75*
G02*
X51850000Y-48250000I0J200000D01*
G01*
X51850000Y-46250000D01*
G75*
G02*
X52050000Y-46050000I200000J0D01*
G01*
X52450000Y-46050000D01*
G75*
G02*
X52650000Y-46250000I0J-200000D01*
G01*
G37*
%TD*%
D11*
%TO.C,L1*%
X44406000Y-40640000D03*
X38906000Y-40640000D03*
%TD*%
D12*
%TO.C,U2*%
X53546000Y-58811000D03*
X53546000Y-60081000D03*
X53546000Y-61351000D03*
X53546000Y-62621000D03*
X46246000Y-62621000D03*
X46246000Y-61351000D03*
X46246000Y-60081000D03*
X46246000Y-58811000D03*
%TD*%
D13*
%TO.C,U1*%
X59050000Y-36885000D03*
X60000000Y-36885000D03*
X60950000Y-36885000D03*
X60950000Y-33915000D03*
X60000000Y-33915000D03*
X59050000Y-33915000D03*
%TD*%
%TO.C,R7*%
G36*
G01*
X42789750Y-58066000D02*
X43702250Y-58066000D01*
G75*
G02*
X43946000Y-58309750I0J-243750D01*
G01*
X43946000Y-58797250D01*
G75*
G02*
X43702250Y-59041000I-243750J0D01*
G01*
X42789750Y-59041000D01*
G75*
G02*
X42546000Y-58797250I0J243750D01*
G01*
X42546000Y-58309750D01*
G75*
G02*
X42789750Y-58066000I243750J0D01*
G01*
G37*
G36*
G01*
X42789750Y-56191000D02*
X43702250Y-56191000D01*
G75*
G02*
X43946000Y-56434750I0J-243750D01*
G01*
X43946000Y-56922250D01*
G75*
G02*
X43702250Y-57166000I-243750J0D01*
G01*
X42789750Y-57166000D01*
G75*
G02*
X42546000Y-56922250I0J243750D01*
G01*
X42546000Y-56434750D01*
G75*
G02*
X42789750Y-56191000I243750J0D01*
G01*
G37*
%TD*%
%TO.C,R6*%
G36*
G01*
X43302250Y-62128500D02*
X42389750Y-62128500D01*
G75*
G02*
X42146000Y-61884750I0J243750D01*
G01*
X42146000Y-61397250D01*
G75*
G02*
X42389750Y-61153500I243750J0D01*
G01*
X43302250Y-61153500D01*
G75*
G02*
X43546000Y-61397250I0J-243750D01*
G01*
X43546000Y-61884750D01*
G75*
G02*
X43302250Y-62128500I-243750J0D01*
G01*
G37*
G36*
G01*
X43302250Y-64003500D02*
X42389750Y-64003500D01*
G75*
G02*
X42146000Y-63759750I0J243750D01*
G01*
X42146000Y-63272250D01*
G75*
G02*
X42389750Y-63028500I243750J0D01*
G01*
X43302250Y-63028500D01*
G75*
G02*
X43546000Y-63272250I0J-243750D01*
G01*
X43546000Y-63759750D01*
G75*
G02*
X43302250Y-64003500I-243750J0D01*
G01*
G37*
%TD*%
%TO.C,R5*%
G36*
G01*
X60956250Y-61887500D02*
X60043750Y-61887500D01*
G75*
G02*
X59800000Y-61643750I0J243750D01*
G01*
X59800000Y-61156250D01*
G75*
G02*
X60043750Y-60912500I243750J0D01*
G01*
X60956250Y-60912500D01*
G75*
G02*
X61200000Y-61156250I0J-243750D01*
G01*
X61200000Y-61643750D01*
G75*
G02*
X60956250Y-61887500I-243750J0D01*
G01*
G37*
G36*
G01*
X60956250Y-63762500D02*
X60043750Y-63762500D01*
G75*
G02*
X59800000Y-63518750I0J243750D01*
G01*
X59800000Y-63031250D01*
G75*
G02*
X60043750Y-62787500I243750J0D01*
G01*
X60956250Y-62787500D01*
G75*
G02*
X61200000Y-63031250I0J-243750D01*
G01*
X61200000Y-63518750D01*
G75*
G02*
X60956250Y-63762500I-243750J0D01*
G01*
G37*
%TD*%
%TO.C,R4*%
G36*
G01*
X38402250Y-57266000D02*
X37489750Y-57266000D01*
G75*
G02*
X37246000Y-57022250I0J243750D01*
G01*
X37246000Y-56534750D01*
G75*
G02*
X37489750Y-56291000I243750J0D01*
G01*
X38402250Y-56291000D01*
G75*
G02*
X38646000Y-56534750I0J-243750D01*
G01*
X38646000Y-57022250D01*
G75*
G02*
X38402250Y-57266000I-243750J0D01*
G01*
G37*
G36*
G01*
X38402250Y-59141000D02*
X37489750Y-59141000D01*
G75*
G02*
X37246000Y-58897250I0J243750D01*
G01*
X37246000Y-58409750D01*
G75*
G02*
X37489750Y-58166000I243750J0D01*
G01*
X38402250Y-58166000D01*
G75*
G02*
X38646000Y-58409750I0J-243750D01*
G01*
X38646000Y-58897250D01*
G75*
G02*
X38402250Y-59141000I-243750J0D01*
G01*
G37*
%TD*%
%TO.C,R3*%
G36*
G01*
X40139750Y-58166000D02*
X41052250Y-58166000D01*
G75*
G02*
X41296000Y-58409750I0J-243750D01*
G01*
X41296000Y-58897250D01*
G75*
G02*
X41052250Y-59141000I-243750J0D01*
G01*
X40139750Y-59141000D01*
G75*
G02*
X39896000Y-58897250I0J243750D01*
G01*
X39896000Y-58409750D01*
G75*
G02*
X40139750Y-58166000I243750J0D01*
G01*
G37*
G36*
G01*
X40139750Y-56291000D02*
X41052250Y-56291000D01*
G75*
G02*
X41296000Y-56534750I0J-243750D01*
G01*
X41296000Y-57022250D01*
G75*
G02*
X41052250Y-57266000I-243750J0D01*
G01*
X40139750Y-57266000D01*
G75*
G02*
X39896000Y-57022250I0J243750D01*
G01*
X39896000Y-56534750D01*
G75*
G02*
X40139750Y-56291000I243750J0D01*
G01*
G37*
%TD*%
%TO.C,R2*%
G36*
G01*
X56996000Y-60359750D02*
X56996000Y-61272250D01*
G75*
G02*
X56752250Y-61516000I-243750J0D01*
G01*
X56264750Y-61516000D01*
G75*
G02*
X56021000Y-61272250I0J243750D01*
G01*
X56021000Y-60359750D01*
G75*
G02*
X56264750Y-60116000I243750J0D01*
G01*
X56752250Y-60116000D01*
G75*
G02*
X56996000Y-60359750I0J-243750D01*
G01*
G37*
G36*
G01*
X58871000Y-60359750D02*
X58871000Y-61272250D01*
G75*
G02*
X58627250Y-61516000I-243750J0D01*
G01*
X58139750Y-61516000D01*
G75*
G02*
X57896000Y-61272250I0J243750D01*
G01*
X57896000Y-60359750D01*
G75*
G02*
X58139750Y-60116000I243750J0D01*
G01*
X58627250Y-60116000D01*
G75*
G02*
X58871000Y-60359750I0J-243750D01*
G01*
G37*
%TD*%
%TO.C,R1*%
G36*
G01*
X56195000Y-40738999D02*
X56195000Y-43589001D01*
G75*
G02*
X55945001Y-43839000I-249999J0D01*
G01*
X55094999Y-43839000D01*
G75*
G02*
X54845000Y-43589001I0J249999D01*
G01*
X54845000Y-40738999D01*
G75*
G02*
X55094999Y-40489000I249999J0D01*
G01*
X55945001Y-40489000D01*
G75*
G02*
X56195000Y-40738999I0J-249999D01*
G01*
G37*
G36*
G01*
X61995000Y-40738999D02*
X61995000Y-43589001D01*
G75*
G02*
X61745001Y-43839000I-249999J0D01*
G01*
X60894999Y-43839000D01*
G75*
G02*
X60645000Y-43589001I0J249999D01*
G01*
X60645000Y-40738999D01*
G75*
G02*
X60894999Y-40489000I249999J0D01*
G01*
X61745001Y-40489000D01*
G75*
G02*
X61995000Y-40738999I0J-249999D01*
G01*
G37*
%TD*%
D14*
%TO.C,Q1*%
X46695000Y-34671000D03*
X46695000Y-35941000D03*
X46695000Y-37211000D03*
X46695000Y-38481000D03*
D15*
X49800000Y-35726000D03*
X49800000Y-37426000D03*
X48100000Y-35726000D03*
X48100000Y-37426000D03*
D16*
X52500000Y-34671000D03*
X52500000Y-35941000D03*
X52500000Y-37211000D03*
X52500000Y-38481000D03*
%TD*%
%TO.C,D2*%
G36*
G01*
X57887500Y-64056250D02*
X57887500Y-63143750D01*
G75*
G02*
X58131250Y-62900000I243750J0D01*
G01*
X58618750Y-62900000D01*
G75*
G02*
X58862500Y-63143750I0J-243750D01*
G01*
X58862500Y-64056250D01*
G75*
G02*
X58618750Y-64300000I-243750J0D01*
G01*
X58131250Y-64300000D01*
G75*
G02*
X57887500Y-64056250I0J243750D01*
G01*
G37*
G36*
G01*
X56012500Y-64056250D02*
X56012500Y-63143750D01*
G75*
G02*
X56256250Y-62900000I243750J0D01*
G01*
X56743750Y-62900000D01*
G75*
G02*
X56987500Y-63143750I0J-243750D01*
G01*
X56987500Y-64056250D01*
G75*
G02*
X56743750Y-64300000I-243750J0D01*
G01*
X56256250Y-64300000D01*
G75*
G02*
X56012500Y-64056250I0J243750D01*
G01*
G37*
%TD*%
D17*
%TO.C,D1*%
X47816000Y-42164000D03*
X51816000Y-42164000D03*
%TD*%
%TO.C,C5*%
G36*
G01*
X59402250Y-57128500D02*
X58489750Y-57128500D01*
G75*
G02*
X58246000Y-56884750I0J243750D01*
G01*
X58246000Y-56397250D01*
G75*
G02*
X58489750Y-56153500I243750J0D01*
G01*
X59402250Y-56153500D01*
G75*
G02*
X59646000Y-56397250I0J-243750D01*
G01*
X59646000Y-56884750D01*
G75*
G02*
X59402250Y-57128500I-243750J0D01*
G01*
G37*
G36*
G01*
X59402250Y-59003500D02*
X58489750Y-59003500D01*
G75*
G02*
X58246000Y-58759750I0J243750D01*
G01*
X58246000Y-58272250D01*
G75*
G02*
X58489750Y-58028500I243750J0D01*
G01*
X59402250Y-58028500D01*
G75*
G02*
X59646000Y-58272250I0J-243750D01*
G01*
X59646000Y-58759750D01*
G75*
G02*
X59402250Y-59003500I-243750J0D01*
G01*
G37*
%TD*%
%TO.C,C4*%
G36*
G01*
X57102250Y-57166000D02*
X56189750Y-57166000D01*
G75*
G02*
X55946000Y-56922250I0J243750D01*
G01*
X55946000Y-56434750D01*
G75*
G02*
X56189750Y-56191000I243750J0D01*
G01*
X57102250Y-56191000D01*
G75*
G02*
X57346000Y-56434750I0J-243750D01*
G01*
X57346000Y-56922250D01*
G75*
G02*
X57102250Y-57166000I-243750J0D01*
G01*
G37*
G36*
G01*
X57102250Y-59041000D02*
X56189750Y-59041000D01*
G75*
G02*
X55946000Y-58797250I0J243750D01*
G01*
X55946000Y-58309750D01*
G75*
G02*
X56189750Y-58066000I243750J0D01*
G01*
X57102250Y-58066000D01*
G75*
G02*
X57346000Y-58309750I0J-243750D01*
G01*
X57346000Y-58797250D01*
G75*
G02*
X57102250Y-59041000I-243750J0D01*
G01*
G37*
%TD*%
%TO.C,C3*%
G36*
G01*
X63412500Y-39456250D02*
X63412500Y-38543750D01*
G75*
G02*
X63656250Y-38300000I243750J0D01*
G01*
X64143750Y-38300000D01*
G75*
G02*
X64387500Y-38543750I0J-243750D01*
G01*
X64387500Y-39456250D01*
G75*
G02*
X64143750Y-39700000I-243750J0D01*
G01*
X63656250Y-39700000D01*
G75*
G02*
X63412500Y-39456250I0J243750D01*
G01*
G37*
G36*
G01*
X61537500Y-39456250D02*
X61537500Y-38543750D01*
G75*
G02*
X61781250Y-38300000I243750J0D01*
G01*
X62268750Y-38300000D01*
G75*
G02*
X62512500Y-38543750I0J-243750D01*
G01*
X62512500Y-39456250D01*
G75*
G02*
X62268750Y-39700000I-243750J0D01*
G01*
X61781250Y-39700000D01*
G75*
G02*
X61537500Y-39456250I0J243750D01*
G01*
G37*
%TD*%
%TO.C,C2*%
G36*
G01*
X55687500Y-36243750D02*
X55687500Y-37156250D01*
G75*
G02*
X55443750Y-37400000I-243750J0D01*
G01*
X54956250Y-37400000D01*
G75*
G02*
X54712500Y-37156250I0J243750D01*
G01*
X54712500Y-36243750D01*
G75*
G02*
X54956250Y-36000000I243750J0D01*
G01*
X55443750Y-36000000D01*
G75*
G02*
X55687500Y-36243750I0J-243750D01*
G01*
G37*
G36*
G01*
X57562500Y-36243750D02*
X57562500Y-37156250D01*
G75*
G02*
X57318750Y-37400000I-243750J0D01*
G01*
X56831250Y-37400000D01*
G75*
G02*
X56587500Y-37156250I0J243750D01*
G01*
X56587500Y-36243750D01*
G75*
G02*
X56831250Y-36000000I243750J0D01*
G01*
X57318750Y-36000000D01*
G75*
G02*
X57562500Y-36243750I0J-243750D01*
G01*
G37*
%TD*%
%TO.C,C1*%
G36*
G01*
X56612500Y-39318250D02*
X56612500Y-38405750D01*
G75*
G02*
X56856250Y-38162000I243750J0D01*
G01*
X57343750Y-38162000D01*
G75*
G02*
X57587500Y-38405750I0J-243750D01*
G01*
X57587500Y-39318250D01*
G75*
G02*
X57343750Y-39562000I-243750J0D01*
G01*
X56856250Y-39562000D01*
G75*
G02*
X56612500Y-39318250I0J243750D01*
G01*
G37*
G36*
G01*
X54737500Y-39318250D02*
X54737500Y-38405750D01*
G75*
G02*
X54981250Y-38162000I243750J0D01*
G01*
X55468750Y-38162000D01*
G75*
G02*
X55712500Y-38405750I0J-243750D01*
G01*
X55712500Y-39318250D01*
G75*
G02*
X55468750Y-39562000I-243750J0D01*
G01*
X54981250Y-39562000D01*
G75*
G02*
X54737500Y-39318250I0J243750D01*
G01*
G37*
%TD*%
M02*
