%TF.GenerationSoftware,KiCad,Pcbnew,5.1.6+dfsg1-1*%
%TF.CreationDate,2020-11-19T10:40:28+01:00*%
%TF.ProjectId,buck_3a_v4,6275636b-5f33-4615-9f76-342e6b696361,rev?*%
%TF.SameCoordinates,Original*%
%TF.FileFunction,Copper,L1,Top*%
%TF.FilePolarity,Positive*%
%FSLAX46Y46*%
G04 Gerber Fmt 4.6, Leading zero omitted, Abs format (unit mm)*
G04 Created by KiCad (PCBNEW 5.1.6+dfsg1-1) date 2020-11-19 10:40:28*
%MOMM*%
%LPD*%
G01*
G04 APERTURE LIST*
%TA.AperFunction,SMDPad,CuDef*%
%ADD10R,1.400000X1.390000*%
%TD*%
%TA.AperFunction,SMDPad,CuDef*%
%ADD11R,4.860000X3.360000*%
%TD*%
%TA.AperFunction,SMDPad,CuDef*%
%ADD12R,2.700000X3.600000*%
%TD*%
%TA.AperFunction,ComponentPad*%
%ADD13C,4.000000*%
%TD*%
%TA.AperFunction,ComponentPad*%
%ADD14O,1.350000X1.350000*%
%TD*%
%TA.AperFunction,ComponentPad*%
%ADD15R,1.350000X1.350000*%
%TD*%
%TA.AperFunction,SMDPad,CuDef*%
%ADD16R,1.700000X0.650000*%
%TD*%
%TA.AperFunction,SMDPad,CuDef*%
%ADD17R,0.420000X0.760000*%
%TD*%
%TA.AperFunction,SMDPad,CuDef*%
%ADD18R,2.300000X1.500000*%
%TD*%
%TA.AperFunction,Conductor*%
%ADD19R,4.550000X4.410000*%
%TD*%
%TA.AperFunction,SMDPad,CuDef*%
%ADD20R,0.850000X0.500000*%
%TD*%
%TA.AperFunction,ViaPad*%
%ADD21C,0.800000*%
%TD*%
%TA.AperFunction,Conductor*%
%ADD22C,0.250000*%
%TD*%
%TA.AperFunction,Conductor*%
%ADD23C,0.500000*%
%TD*%
%TA.AperFunction,Conductor*%
%ADD24C,0.254000*%
%TD*%
G04 APERTURE END LIST*
D10*
%TO.P,D1,2*%
%TO.N,Net-(D1-Pad2)*%
X48638000Y-43320000D03*
X48638000Y-41480000D03*
D11*
%TO.P,D1,1*%
%TO.N,VCC*%
X52620000Y-42400000D03*
%TD*%
D12*
%TO.P,L1,2*%
%TO.N,Net-(D1-Pad2)*%
X45000000Y-39500000D03*
%TO.P,L1,1*%
%TO.N,Net-(J2-Pad1)*%
X36700000Y-39500000D03*
%TD*%
%TO.P,C6,2*%
%TO.N,GND*%
%TA.AperFunction,SMDPad,CuDef*%
G36*
G01*
X43856250Y-57350000D02*
X42943750Y-57350000D01*
G75*
G02*
X42700000Y-57106250I0J243750D01*
G01*
X42700000Y-56618750D01*
G75*
G02*
X42943750Y-56375000I243750J0D01*
G01*
X43856250Y-56375000D01*
G75*
G02*
X44100000Y-56618750I0J-243750D01*
G01*
X44100000Y-57106250D01*
G75*
G02*
X43856250Y-57350000I-243750J0D01*
G01*
G37*
%TD.AperFunction*%
%TO.P,C6,1*%
%TO.N,/VMESS*%
%TA.AperFunction,SMDPad,CuDef*%
G36*
G01*
X43856250Y-59225000D02*
X42943750Y-59225000D01*
G75*
G02*
X42700000Y-58981250I0J243750D01*
G01*
X42700000Y-58493750D01*
G75*
G02*
X42943750Y-58250000I243750J0D01*
G01*
X43856250Y-58250000D01*
G75*
G02*
X44100000Y-58493750I0J-243750D01*
G01*
X44100000Y-58981250D01*
G75*
G02*
X43856250Y-59225000I-243750J0D01*
G01*
G37*
%TD.AperFunction*%
%TD*%
D13*
%TO.P,J1,1*%
%TO.N,Net-(C3-Pad1)*%
X60000000Y-50000000D03*
%TD*%
%TO.P,J2,1*%
%TO.N,Net-(J2-Pad1)*%
X40000000Y-50000000D03*
%TD*%
%TO.P,J3,MP*%
%TO.N,N/C*%
%TA.AperFunction,SMDPad,CuDef*%
G36*
G01*
X46050000Y-50900000D02*
X46050000Y-53700000D01*
G75*
G02*
X45800000Y-53950000I-250000J0D01*
G01*
X44500000Y-53950000D01*
G75*
G02*
X44250000Y-53700000I0J250000D01*
G01*
X44250000Y-50900000D01*
G75*
G02*
X44500000Y-50650000I250000J0D01*
G01*
X45800000Y-50650000D01*
G75*
G02*
X46050000Y-50900000I0J-250000D01*
G01*
G37*
%TD.AperFunction*%
%TA.AperFunction,SMDPad,CuDef*%
G36*
G01*
X55750000Y-50900000D02*
X55750000Y-53700000D01*
G75*
G02*
X55500000Y-53950000I-250000J0D01*
G01*
X54200000Y-53950000D01*
G75*
G02*
X53950000Y-53700000I0J250000D01*
G01*
X53950000Y-50900000D01*
G75*
G02*
X54200000Y-50650000I250000J0D01*
G01*
X55500000Y-50650000D01*
G75*
G02*
X55750000Y-50900000I0J-250000D01*
G01*
G37*
%TD.AperFunction*%
%TO.P,J3,4*%
%TO.N,GND*%
%TA.AperFunction,SMDPad,CuDef*%
G36*
G01*
X48150000Y-46250000D02*
X48150000Y-48250000D01*
G75*
G02*
X47950000Y-48450000I-200000J0D01*
G01*
X47550000Y-48450000D01*
G75*
G02*
X47350000Y-48250000I0J200000D01*
G01*
X47350000Y-46250000D01*
G75*
G02*
X47550000Y-46050000I200000J0D01*
G01*
X47950000Y-46050000D01*
G75*
G02*
X48150000Y-46250000I0J-200000D01*
G01*
G37*
%TD.AperFunction*%
%TO.P,J3,3*%
%TA.AperFunction,SMDPad,CuDef*%
G36*
G01*
X49650000Y-46250000D02*
X49650000Y-48250000D01*
G75*
G02*
X49450000Y-48450000I-200000J0D01*
G01*
X49050000Y-48450000D01*
G75*
G02*
X48850000Y-48250000I0J200000D01*
G01*
X48850000Y-46250000D01*
G75*
G02*
X49050000Y-46050000I200000J0D01*
G01*
X49450000Y-46050000D01*
G75*
G02*
X49650000Y-46250000I0J-200000D01*
G01*
G37*
%TD.AperFunction*%
%TO.P,J3,2*%
%TO.N,/MODE*%
%TA.AperFunction,SMDPad,CuDef*%
G36*
G01*
X51150000Y-46250000D02*
X51150000Y-48250000D01*
G75*
G02*
X50950000Y-48450000I-200000J0D01*
G01*
X50550000Y-48450000D01*
G75*
G02*
X50350000Y-48250000I0J200000D01*
G01*
X50350000Y-46250000D01*
G75*
G02*
X50550000Y-46050000I200000J0D01*
G01*
X50950000Y-46050000D01*
G75*
G02*
X51150000Y-46250000I0J-200000D01*
G01*
G37*
%TD.AperFunction*%
%TO.P,J3,1*%
%TO.N,VCC*%
%TA.AperFunction,SMDPad,CuDef*%
G36*
G01*
X52650000Y-46250000D02*
X52650000Y-48250000D01*
G75*
G02*
X52450000Y-48450000I-200000J0D01*
G01*
X52050000Y-48450000D01*
G75*
G02*
X51850000Y-48250000I0J200000D01*
G01*
X51850000Y-46250000D01*
G75*
G02*
X52050000Y-46050000I200000J0D01*
G01*
X52450000Y-46050000D01*
G75*
G02*
X52650000Y-46250000I0J-200000D01*
G01*
G37*
%TD.AperFunction*%
%TD*%
D14*
%TO.P,J5,6*%
%TO.N,+5V*%
X44996000Y-68466000D03*
%TO.P,J5,5*%
%TO.N,GND*%
X46996000Y-68466000D03*
%TO.P,J5,4*%
%TO.N,/LED*%
X48996000Y-68466000D03*
%TO.P,J5,3*%
%TO.N,/RESET*%
X50996000Y-68466000D03*
%TO.P,J5,2*%
%TO.N,/PWM*%
X52996000Y-68466000D03*
D15*
%TO.P,J5,1*%
%TO.N,/MODE*%
X54996000Y-68466000D03*
%TD*%
D14*
%TO.P,J4,2*%
%TO.N,GND*%
X39596000Y-64516000D03*
D15*
%TO.P,J4,1*%
%TO.N,/TMESS*%
X39596000Y-62516000D03*
%TD*%
D16*
%TO.P,U2,8*%
%TO.N,+5V*%
X53546000Y-58811000D03*
%TO.P,U2,7*%
%TO.N,/MODE*%
X53546000Y-60081000D03*
%TO.P,U2,6*%
%TO.N,/PWM*%
X53546000Y-61351000D03*
%TO.P,U2,5*%
%TO.N,/LED*%
X53546000Y-62621000D03*
%TO.P,U2,4*%
%TO.N,GND*%
X46246000Y-62621000D03*
%TO.P,U2,3*%
%TO.N,/TMESS*%
X46246000Y-61351000D03*
%TO.P,U2,2*%
%TO.N,/VMESS*%
X46246000Y-60081000D03*
%TO.P,U2,1*%
%TO.N,/RESET*%
X46246000Y-58811000D03*
%TD*%
D17*
%TO.P,U1,1*%
%TO.N,VCC*%
X60550000Y-36885000D03*
%TO.P,U1,2*%
%TO.N,Net-(C3-Pad1)*%
X61500000Y-36885000D03*
%TO.P,U1,3*%
%TO.N,/PWM*%
X62450000Y-36885000D03*
%TO.P,U1,4*%
%TO.N,GND*%
X62450000Y-33915000D03*
%TO.P,U1,5*%
%TO.N,Net-(Q1-Pad4)*%
X61500000Y-33915000D03*
%TO.P,U1,6*%
%TO.N,+5V*%
X60550000Y-33915000D03*
D18*
%TO.P,U1,7*%
%TO.N,GND*%
X61500000Y-35400000D03*
%TD*%
%TO.P,R7,2*%
%TO.N,/RESET*%
%TA.AperFunction,SMDPad,CuDef*%
G36*
G01*
X48250000Y-56656250D02*
X48250000Y-55743750D01*
G75*
G02*
X48493750Y-55500000I243750J0D01*
G01*
X48981250Y-55500000D01*
G75*
G02*
X49225000Y-55743750I0J-243750D01*
G01*
X49225000Y-56656250D01*
G75*
G02*
X48981250Y-56900000I-243750J0D01*
G01*
X48493750Y-56900000D01*
G75*
G02*
X48250000Y-56656250I0J243750D01*
G01*
G37*
%TD.AperFunction*%
%TO.P,R7,1*%
%TO.N,+5V*%
%TA.AperFunction,SMDPad,CuDef*%
G36*
G01*
X46375000Y-56656250D02*
X46375000Y-55743750D01*
G75*
G02*
X46618750Y-55500000I243750J0D01*
G01*
X47106250Y-55500000D01*
G75*
G02*
X47350000Y-55743750I0J-243750D01*
G01*
X47350000Y-56656250D01*
G75*
G02*
X47106250Y-56900000I-243750J0D01*
G01*
X46618750Y-56900000D01*
G75*
G02*
X46375000Y-56656250I0J243750D01*
G01*
G37*
%TD.AperFunction*%
%TD*%
%TO.P,R6,2*%
%TO.N,/TMESS*%
%TA.AperFunction,SMDPad,CuDef*%
G36*
G01*
X43302250Y-62128500D02*
X42389750Y-62128500D01*
G75*
G02*
X42146000Y-61884750I0J243750D01*
G01*
X42146000Y-61397250D01*
G75*
G02*
X42389750Y-61153500I243750J0D01*
G01*
X43302250Y-61153500D01*
G75*
G02*
X43546000Y-61397250I0J-243750D01*
G01*
X43546000Y-61884750D01*
G75*
G02*
X43302250Y-62128500I-243750J0D01*
G01*
G37*
%TD.AperFunction*%
%TO.P,R6,1*%
%TO.N,+5V*%
%TA.AperFunction,SMDPad,CuDef*%
G36*
G01*
X43302250Y-64003500D02*
X42389750Y-64003500D01*
G75*
G02*
X42146000Y-63759750I0J243750D01*
G01*
X42146000Y-63272250D01*
G75*
G02*
X42389750Y-63028500I243750J0D01*
G01*
X43302250Y-63028500D01*
G75*
G02*
X43546000Y-63272250I0J-243750D01*
G01*
X43546000Y-63759750D01*
G75*
G02*
X43302250Y-64003500I-243750J0D01*
G01*
G37*
%TD.AperFunction*%
%TD*%
%TO.P,R5,2*%
%TO.N,+5V*%
%TA.AperFunction,SMDPad,CuDef*%
G36*
G01*
X60956250Y-61887500D02*
X60043750Y-61887500D01*
G75*
G02*
X59800000Y-61643750I0J243750D01*
G01*
X59800000Y-61156250D01*
G75*
G02*
X60043750Y-60912500I243750J0D01*
G01*
X60956250Y-60912500D01*
G75*
G02*
X61200000Y-61156250I0J-243750D01*
G01*
X61200000Y-61643750D01*
G75*
G02*
X60956250Y-61887500I-243750J0D01*
G01*
G37*
%TD.AperFunction*%
%TO.P,R5,1*%
%TO.N,Net-(D2-Pad2)*%
%TA.AperFunction,SMDPad,CuDef*%
G36*
G01*
X60956250Y-63762500D02*
X60043750Y-63762500D01*
G75*
G02*
X59800000Y-63518750I0J243750D01*
G01*
X59800000Y-63031250D01*
G75*
G02*
X60043750Y-62787500I243750J0D01*
G01*
X60956250Y-62787500D01*
G75*
G02*
X61200000Y-63031250I0J-243750D01*
G01*
X61200000Y-63518750D01*
G75*
G02*
X60956250Y-63762500I-243750J0D01*
G01*
G37*
%TD.AperFunction*%
%TD*%
%TO.P,R4,2*%
%TO.N,GND*%
%TA.AperFunction,SMDPad,CuDef*%
G36*
G01*
X38402250Y-57266000D02*
X37489750Y-57266000D01*
G75*
G02*
X37246000Y-57022250I0J243750D01*
G01*
X37246000Y-56534750D01*
G75*
G02*
X37489750Y-56291000I243750J0D01*
G01*
X38402250Y-56291000D01*
G75*
G02*
X38646000Y-56534750I0J-243750D01*
G01*
X38646000Y-57022250D01*
G75*
G02*
X38402250Y-57266000I-243750J0D01*
G01*
G37*
%TD.AperFunction*%
%TO.P,R4,1*%
%TO.N,/VMESS*%
%TA.AperFunction,SMDPad,CuDef*%
G36*
G01*
X38402250Y-59141000D02*
X37489750Y-59141000D01*
G75*
G02*
X37246000Y-58897250I0J243750D01*
G01*
X37246000Y-58409750D01*
G75*
G02*
X37489750Y-58166000I243750J0D01*
G01*
X38402250Y-58166000D01*
G75*
G02*
X38646000Y-58409750I0J-243750D01*
G01*
X38646000Y-58897250D01*
G75*
G02*
X38402250Y-59141000I-243750J0D01*
G01*
G37*
%TD.AperFunction*%
%TD*%
%TO.P,R3,2*%
%TO.N,/VMESS*%
%TA.AperFunction,SMDPad,CuDef*%
G36*
G01*
X40139750Y-58166000D02*
X41052250Y-58166000D01*
G75*
G02*
X41296000Y-58409750I0J-243750D01*
G01*
X41296000Y-58897250D01*
G75*
G02*
X41052250Y-59141000I-243750J0D01*
G01*
X40139750Y-59141000D01*
G75*
G02*
X39896000Y-58897250I0J243750D01*
G01*
X39896000Y-58409750D01*
G75*
G02*
X40139750Y-58166000I243750J0D01*
G01*
G37*
%TD.AperFunction*%
%TO.P,R3,1*%
%TO.N,VCC*%
%TA.AperFunction,SMDPad,CuDef*%
G36*
G01*
X40139750Y-56291000D02*
X41052250Y-56291000D01*
G75*
G02*
X41296000Y-56534750I0J-243750D01*
G01*
X41296000Y-57022250D01*
G75*
G02*
X41052250Y-57266000I-243750J0D01*
G01*
X40139750Y-57266000D01*
G75*
G02*
X39896000Y-57022250I0J243750D01*
G01*
X39896000Y-56534750D01*
G75*
G02*
X40139750Y-56291000I243750J0D01*
G01*
G37*
%TD.AperFunction*%
%TD*%
%TO.P,R2,2*%
%TO.N,/MODE*%
%TA.AperFunction,SMDPad,CuDef*%
G36*
G01*
X56996000Y-60359750D02*
X56996000Y-61272250D01*
G75*
G02*
X56752250Y-61516000I-243750J0D01*
G01*
X56264750Y-61516000D01*
G75*
G02*
X56021000Y-61272250I0J243750D01*
G01*
X56021000Y-60359750D01*
G75*
G02*
X56264750Y-60116000I243750J0D01*
G01*
X56752250Y-60116000D01*
G75*
G02*
X56996000Y-60359750I0J-243750D01*
G01*
G37*
%TD.AperFunction*%
%TO.P,R2,1*%
%TO.N,+5V*%
%TA.AperFunction,SMDPad,CuDef*%
G36*
G01*
X58871000Y-60359750D02*
X58871000Y-61272250D01*
G75*
G02*
X58627250Y-61516000I-243750J0D01*
G01*
X58139750Y-61516000D01*
G75*
G02*
X57896000Y-61272250I0J243750D01*
G01*
X57896000Y-60359750D01*
G75*
G02*
X58139750Y-60116000I243750J0D01*
G01*
X58627250Y-60116000D01*
G75*
G02*
X58871000Y-60359750I0J-243750D01*
G01*
G37*
%TD.AperFunction*%
%TD*%
%TO.P,R1,2*%
%TO.N,VCC*%
%TA.AperFunction,SMDPad,CuDef*%
G36*
G01*
X57695000Y-41174999D02*
X57695000Y-44025001D01*
G75*
G02*
X57445001Y-44275000I-249999J0D01*
G01*
X56594999Y-44275000D01*
G75*
G02*
X56345000Y-44025001I0J249999D01*
G01*
X56345000Y-41174999D01*
G75*
G02*
X56594999Y-40925000I249999J0D01*
G01*
X57445001Y-40925000D01*
G75*
G02*
X57695000Y-41174999I0J-249999D01*
G01*
G37*
%TD.AperFunction*%
%TO.P,R1,1*%
%TO.N,Net-(C3-Pad1)*%
%TA.AperFunction,SMDPad,CuDef*%
G36*
G01*
X63495000Y-41174999D02*
X63495000Y-44025001D01*
G75*
G02*
X63245001Y-44275000I-249999J0D01*
G01*
X62394999Y-44275000D01*
G75*
G02*
X62145000Y-44025001I0J249999D01*
G01*
X62145000Y-41174999D01*
G75*
G02*
X62394999Y-40925000I249999J0D01*
G01*
X63245001Y-40925000D01*
G75*
G02*
X63495000Y-41174999I0J-249999D01*
G01*
G37*
%TD.AperFunction*%
%TD*%
D19*
%TO.N,Net-(D1-Pad2)*%
%TO.C,Q1*%
X49950000Y-36576000D03*
D20*
%TD*%
%TO.P,Q1,4*%
%TO.N,Net-(Q1-Pad4)*%
X53900000Y-34671000D03*
%TO.P,Q1,3*%
%TO.N,GND*%
X53900000Y-35941000D03*
%TO.P,Q1,2*%
X53900000Y-37211000D03*
%TO.P,Q1,1*%
X53900000Y-38481000D03*
%TD*%
%TO.P,D2,2*%
%TO.N,Net-(D2-Pad2)*%
%TA.AperFunction,SMDPad,CuDef*%
G36*
G01*
X57887500Y-64056250D02*
X57887500Y-63143750D01*
G75*
G02*
X58131250Y-62900000I243750J0D01*
G01*
X58618750Y-62900000D01*
G75*
G02*
X58862500Y-63143750I0J-243750D01*
G01*
X58862500Y-64056250D01*
G75*
G02*
X58618750Y-64300000I-243750J0D01*
G01*
X58131250Y-64300000D01*
G75*
G02*
X57887500Y-64056250I0J243750D01*
G01*
G37*
%TD.AperFunction*%
%TO.P,D2,1*%
%TO.N,/LED*%
%TA.AperFunction,SMDPad,CuDef*%
G36*
G01*
X56012500Y-64056250D02*
X56012500Y-63143750D01*
G75*
G02*
X56256250Y-62900000I243750J0D01*
G01*
X56743750Y-62900000D01*
G75*
G02*
X56987500Y-63143750I0J-243750D01*
G01*
X56987500Y-64056250D01*
G75*
G02*
X56743750Y-64300000I-243750J0D01*
G01*
X56256250Y-64300000D01*
G75*
G02*
X56012500Y-64056250I0J243750D01*
G01*
G37*
%TD.AperFunction*%
%TD*%
%TO.P,C5,2*%
%TO.N,GND*%
%TA.AperFunction,SMDPad,CuDef*%
G36*
G01*
X59402250Y-57128500D02*
X58489750Y-57128500D01*
G75*
G02*
X58246000Y-56884750I0J243750D01*
G01*
X58246000Y-56397250D01*
G75*
G02*
X58489750Y-56153500I243750J0D01*
G01*
X59402250Y-56153500D01*
G75*
G02*
X59646000Y-56397250I0J-243750D01*
G01*
X59646000Y-56884750D01*
G75*
G02*
X59402250Y-57128500I-243750J0D01*
G01*
G37*
%TD.AperFunction*%
%TO.P,C5,1*%
%TO.N,+5V*%
%TA.AperFunction,SMDPad,CuDef*%
G36*
G01*
X59402250Y-59003500D02*
X58489750Y-59003500D01*
G75*
G02*
X58246000Y-58759750I0J243750D01*
G01*
X58246000Y-58272250D01*
G75*
G02*
X58489750Y-58028500I243750J0D01*
G01*
X59402250Y-58028500D01*
G75*
G02*
X59646000Y-58272250I0J-243750D01*
G01*
X59646000Y-58759750D01*
G75*
G02*
X59402250Y-59003500I-243750J0D01*
G01*
G37*
%TD.AperFunction*%
%TD*%
%TO.P,C4,2*%
%TO.N,GND*%
%TA.AperFunction,SMDPad,CuDef*%
G36*
G01*
X57102250Y-57166000D02*
X56189750Y-57166000D01*
G75*
G02*
X55946000Y-56922250I0J243750D01*
G01*
X55946000Y-56434750D01*
G75*
G02*
X56189750Y-56191000I243750J0D01*
G01*
X57102250Y-56191000D01*
G75*
G02*
X57346000Y-56434750I0J-243750D01*
G01*
X57346000Y-56922250D01*
G75*
G02*
X57102250Y-57166000I-243750J0D01*
G01*
G37*
%TD.AperFunction*%
%TO.P,C4,1*%
%TO.N,+5V*%
%TA.AperFunction,SMDPad,CuDef*%
G36*
G01*
X57102250Y-59041000D02*
X56189750Y-59041000D01*
G75*
G02*
X55946000Y-58797250I0J243750D01*
G01*
X55946000Y-58309750D01*
G75*
G02*
X56189750Y-58066000I243750J0D01*
G01*
X57102250Y-58066000D01*
G75*
G02*
X57346000Y-58309750I0J-243750D01*
G01*
X57346000Y-58797250D01*
G75*
G02*
X57102250Y-59041000I-243750J0D01*
G01*
G37*
%TD.AperFunction*%
%TD*%
%TO.P,C3,2*%
%TO.N,GND*%
%TA.AperFunction,SMDPad,CuDef*%
G36*
G01*
X62650000Y-38343750D02*
X62650000Y-39256250D01*
G75*
G02*
X62406250Y-39500000I-243750J0D01*
G01*
X61918750Y-39500000D01*
G75*
G02*
X61675000Y-39256250I0J243750D01*
G01*
X61675000Y-38343750D01*
G75*
G02*
X61918750Y-38100000I243750J0D01*
G01*
X62406250Y-38100000D01*
G75*
G02*
X62650000Y-38343750I0J-243750D01*
G01*
G37*
%TD.AperFunction*%
%TO.P,C3,1*%
%TO.N,Net-(C3-Pad1)*%
%TA.AperFunction,SMDPad,CuDef*%
G36*
G01*
X64525000Y-38343750D02*
X64525000Y-39256250D01*
G75*
G02*
X64281250Y-39500000I-243750J0D01*
G01*
X63793750Y-39500000D01*
G75*
G02*
X63550000Y-39256250I0J243750D01*
G01*
X63550000Y-38343750D01*
G75*
G02*
X63793750Y-38100000I243750J0D01*
G01*
X64281250Y-38100000D01*
G75*
G02*
X64525000Y-38343750I0J-243750D01*
G01*
G37*
%TD.AperFunction*%
%TD*%
%TO.P,C2,2*%
%TO.N,GND*%
%TA.AperFunction,SMDPad,CuDef*%
G36*
G01*
X57187500Y-36243750D02*
X57187500Y-37156250D01*
G75*
G02*
X56943750Y-37400000I-243750J0D01*
G01*
X56456250Y-37400000D01*
G75*
G02*
X56212500Y-37156250I0J243750D01*
G01*
X56212500Y-36243750D01*
G75*
G02*
X56456250Y-36000000I243750J0D01*
G01*
X56943750Y-36000000D01*
G75*
G02*
X57187500Y-36243750I0J-243750D01*
G01*
G37*
%TD.AperFunction*%
%TO.P,C2,1*%
%TO.N,VCC*%
%TA.AperFunction,SMDPad,CuDef*%
G36*
G01*
X59062500Y-36243750D02*
X59062500Y-37156250D01*
G75*
G02*
X58818750Y-37400000I-243750J0D01*
G01*
X58331250Y-37400000D01*
G75*
G02*
X58087500Y-37156250I0J243750D01*
G01*
X58087500Y-36243750D01*
G75*
G02*
X58331250Y-36000000I243750J0D01*
G01*
X58818750Y-36000000D01*
G75*
G02*
X59062500Y-36243750I0J-243750D01*
G01*
G37*
%TD.AperFunction*%
%TD*%
%TO.P,C1,2*%
%TO.N,GND*%
%TA.AperFunction,SMDPad,CuDef*%
G36*
G01*
X57212500Y-38405750D02*
X57212500Y-39318250D01*
G75*
G02*
X56968750Y-39562000I-243750J0D01*
G01*
X56481250Y-39562000D01*
G75*
G02*
X56237500Y-39318250I0J243750D01*
G01*
X56237500Y-38405750D01*
G75*
G02*
X56481250Y-38162000I243750J0D01*
G01*
X56968750Y-38162000D01*
G75*
G02*
X57212500Y-38405750I0J-243750D01*
G01*
G37*
%TD.AperFunction*%
%TO.P,C1,1*%
%TO.N,VCC*%
%TA.AperFunction,SMDPad,CuDef*%
G36*
G01*
X59087500Y-38405750D02*
X59087500Y-39318250D01*
G75*
G02*
X58843750Y-39562000I-243750J0D01*
G01*
X58356250Y-39562000D01*
G75*
G02*
X58112500Y-39318250I0J243750D01*
G01*
X58112500Y-38405750D01*
G75*
G02*
X58356250Y-38162000I243750J0D01*
G01*
X58843750Y-38162000D01*
G75*
G02*
X59087500Y-38405750I0J-243750D01*
G01*
G37*
%TD.AperFunction*%
%TD*%
D21*
%TO.N,GND*%
X62200000Y-35400000D03*
X55100000Y-35900000D03*
X55100000Y-37000000D03*
X55100000Y-38000000D03*
X55100000Y-39000000D03*
X54200000Y-39400000D03*
X53200000Y-39400000D03*
X44421000Y-62621000D03*
X60700000Y-56700000D03*
X49400000Y-49200000D03*
X48400000Y-49200000D03*
X47400000Y-49200000D03*
X37946002Y-55653998D03*
X61125000Y-38876151D03*
X43400000Y-55600000D03*
X60900000Y-35400000D03*
%TO.N,+5V*%
X59762653Y-33962653D03*
X55100000Y-58800000D03*
X45600002Y-56200000D03*
%TO.N,/LED*%
X51721000Y-62700000D03*
%TO.N,/PWM*%
X55200000Y-61400000D03*
X64350010Y-36985453D03*
%TD*%
D22*
%TO.N,GND*%
X56400000Y-37000000D02*
X56700000Y-36700000D01*
X62450000Y-34450000D02*
X61500000Y-35400000D01*
X62450000Y-33915000D02*
X62450000Y-34450000D01*
X56700000Y-36700000D02*
X56700000Y-36100000D01*
X46246000Y-62621000D02*
X44421000Y-62621000D01*
X58908500Y-56678500D02*
X58946000Y-56641000D01*
X56646000Y-56678500D02*
X58908500Y-56678500D01*
X60641000Y-56641000D02*
X60700000Y-56700000D01*
X58946000Y-56641000D02*
X60641000Y-56641000D01*
X55238000Y-38862000D02*
X55100000Y-39000000D01*
X56700000Y-38837000D02*
X56725000Y-38862000D01*
D23*
X56700000Y-36700000D02*
X56700000Y-38837000D01*
D22*
X37946000Y-56778500D02*
X37946000Y-55654000D01*
X37946000Y-55654000D02*
X37946002Y-55653998D01*
D23*
X62162500Y-38800000D02*
X61201151Y-38800000D01*
D22*
X61201151Y-38800000D02*
X61125000Y-38876151D01*
X43400000Y-56862500D02*
X43400000Y-55600000D01*
D23*
X56700000Y-36100000D02*
X57400000Y-35400000D01*
X57400000Y-35400000D02*
X60900000Y-35400000D01*
D22*
%TO.N,VCC*%
X58600000Y-36725000D02*
X58575000Y-36700000D01*
X60500000Y-36935000D02*
X60550000Y-36885000D01*
X58900000Y-39162000D02*
X58600000Y-38862000D01*
D23*
X58800000Y-41900000D02*
X58800000Y-39262000D01*
X58536000Y-42164000D02*
X58800000Y-41900000D01*
X57020000Y-42164000D02*
X58536000Y-42164000D01*
X60535000Y-36900000D02*
X60550000Y-36885000D01*
X58775000Y-36900000D02*
X60535000Y-36900000D01*
X58575000Y-36700000D02*
X58775000Y-36900000D01*
X58800000Y-36925000D02*
X58600000Y-36725000D01*
X58800000Y-38662000D02*
X58800000Y-36925000D01*
X58600000Y-38862000D02*
X58800000Y-38662000D01*
X47000000Y-45000000D02*
X52100000Y-45000000D01*
X43574500Y-48425500D02*
X47000000Y-45000000D01*
X53316000Y-43784000D02*
X53316000Y-42164000D01*
X42700000Y-54400000D02*
X43574500Y-53525500D01*
X43574500Y-53525500D02*
X43574500Y-48425500D01*
X41200000Y-54400000D02*
X42700000Y-54400000D01*
X52100000Y-45000000D02*
X53316000Y-43784000D01*
X40596000Y-55004000D02*
X41200000Y-54400000D01*
X40596000Y-56778500D02*
X40596000Y-55004000D01*
D22*
%TO.N,Net-(C3-Pad1)*%
X61500000Y-37500000D02*
X61500000Y-36885000D01*
X59500000Y-42000000D02*
X59500000Y-38300000D01*
X59664000Y-42164000D02*
X59500000Y-42000000D01*
X61000000Y-38000000D02*
X61500000Y-37500000D01*
X59800000Y-38000000D02*
X61000000Y-38000000D01*
X59500000Y-38300000D02*
X59800000Y-38000000D01*
X62820000Y-42164000D02*
X59664000Y-42164000D01*
%TO.N,+5V*%
X59810306Y-33915000D02*
X59762653Y-33962653D01*
D23*
X60550000Y-33915000D02*
X59810306Y-33915000D01*
D22*
X53557000Y-58800000D02*
X53546000Y-58811000D01*
D23*
X55100000Y-58800000D02*
X53557000Y-58800000D01*
D22*
X56399500Y-58800000D02*
X56646000Y-58553500D01*
D23*
X55100000Y-58800000D02*
X56399500Y-58800000D01*
D22*
X58908500Y-58553500D02*
X58946000Y-58516000D01*
D23*
X59800000Y-61400000D02*
X59300000Y-60900000D01*
D22*
X60500000Y-61400000D02*
X59800000Y-61400000D01*
X58467500Y-60900000D02*
X58383500Y-60816000D01*
D23*
X59300000Y-60900000D02*
X58467500Y-60900000D01*
D22*
X58400000Y-60799500D02*
X58383500Y-60816000D01*
D23*
X58400000Y-59800000D02*
X58400000Y-60799500D01*
X58946000Y-59254000D02*
X58400000Y-59800000D01*
X58946000Y-58516000D02*
X58946000Y-59254000D01*
X42846000Y-63516000D02*
X42846000Y-64146000D01*
X44996000Y-66296000D02*
X44996000Y-68466000D01*
X42846000Y-64146000D02*
X44996000Y-66296000D01*
X46862500Y-56200000D02*
X45600002Y-56200000D01*
X46430000Y-69900000D02*
X44996000Y-68466000D01*
X57561106Y-69900000D02*
X46430000Y-69900000D01*
X61900000Y-65561106D02*
X57561106Y-69900000D01*
X61900000Y-62800000D02*
X61900000Y-65561106D01*
X60500000Y-61400000D02*
X61900000Y-62800000D01*
X56646000Y-58553500D02*
X58908500Y-58553500D01*
D22*
%TO.N,Net-(D2-Pad2)*%
X60475000Y-63300000D02*
X60500000Y-63275000D01*
X58675000Y-63300000D02*
X60475000Y-63300000D01*
X58375000Y-63600000D02*
X58675000Y-63300000D01*
%TO.N,/LED*%
X53546000Y-63146000D02*
X53546000Y-62621000D01*
X53900000Y-63500000D02*
X53546000Y-63146000D01*
X56121000Y-63500000D02*
X53900000Y-63500000D01*
X51800000Y-62621000D02*
X51721000Y-62700000D01*
X53546000Y-62621000D02*
X51800000Y-62621000D01*
%TO.N,/MODE*%
X50750000Y-47250000D02*
X50750000Y-59050000D01*
X51781000Y-60081000D02*
X53546000Y-60081000D01*
X50750000Y-59050000D02*
X51781000Y-60081000D01*
X55773500Y-60081000D02*
X56508500Y-60816000D01*
X53546000Y-60081000D02*
X55773500Y-60081000D01*
X56508500Y-60816000D02*
X57312510Y-61620010D01*
X57312510Y-61620010D02*
X57312510Y-66149490D01*
X57312510Y-66149490D02*
X54996000Y-68466000D01*
%TO.N,/TMESS*%
X45956000Y-61641000D02*
X46246000Y-61351000D01*
X42846000Y-61641000D02*
X45956000Y-61641000D01*
X41971000Y-62516000D02*
X42846000Y-61641000D01*
X39596000Y-62516000D02*
X41971000Y-62516000D01*
%TO.N,/RESET*%
X45988500Y-58553500D02*
X46246000Y-58811000D01*
X46246000Y-58811000D02*
X48189000Y-58811000D01*
X50996000Y-61128500D02*
X50996000Y-68466000D01*
X48678500Y-58811000D02*
X50996000Y-61128500D01*
X47811000Y-58811000D02*
X48678500Y-58811000D01*
X48737500Y-58752000D02*
X48678500Y-58811000D01*
X48737500Y-56200000D02*
X48737500Y-58752000D01*
%TO.N,/PWM*%
X55151000Y-61351000D02*
X55200000Y-61400000D01*
X53546000Y-61351000D02*
X55151000Y-61351000D01*
X62450000Y-36885000D02*
X64249557Y-36885000D01*
X64249557Y-36885000D02*
X64350010Y-36985453D01*
D23*
%TO.N,Net-(Q1-Pad4)*%
X61500000Y-33000000D02*
X61500000Y-33915000D01*
X61100000Y-32600000D02*
X61500000Y-33000000D01*
X58200000Y-32600000D02*
X61100000Y-32600000D01*
X56129000Y-34671000D02*
X58200000Y-32600000D01*
X54000000Y-34671000D02*
X56129000Y-34671000D01*
D22*
%TO.N,/VMESS*%
X37946000Y-58653500D02*
X40596000Y-58653500D01*
X43316000Y-58653500D02*
X43400000Y-58737500D01*
X40596000Y-58653500D02*
X43316000Y-58653500D01*
X44743500Y-60081000D02*
X46246000Y-60081000D01*
X43400000Y-58737500D02*
X44743500Y-60081000D01*
%TD*%
D24*
%TO.N,Net-(C3-Pad1)*%
G36*
X64773000Y-53173000D02*
G01*
X57127000Y-53173000D01*
X57127000Y-44827000D01*
X61600000Y-44827000D01*
X61624776Y-44824560D01*
X61648601Y-44817333D01*
X61670557Y-44805597D01*
X61689803Y-44789803D01*
X61705597Y-44770557D01*
X61717333Y-44748601D01*
X61724560Y-44724776D01*
X61727000Y-44700000D01*
X61727000Y-39849718D01*
X61796508Y-39870803D01*
X61918750Y-39882843D01*
X62406250Y-39882843D01*
X62528492Y-39870803D01*
X62646037Y-39835146D01*
X62754366Y-39777243D01*
X62849318Y-39699318D01*
X62927243Y-39604366D01*
X62985146Y-39496037D01*
X63020803Y-39378492D01*
X63032843Y-39256250D01*
X63032843Y-38343750D01*
X63020803Y-38221508D01*
X62985146Y-38103963D01*
X62927243Y-37995634D01*
X62870917Y-37927000D01*
X64773000Y-37927000D01*
X64773000Y-53173000D01*
G37*
X64773000Y-53173000D02*
X57127000Y-53173000D01*
X57127000Y-44827000D01*
X61600000Y-44827000D01*
X61624776Y-44824560D01*
X61648601Y-44817333D01*
X61670557Y-44805597D01*
X61689803Y-44789803D01*
X61705597Y-44770557D01*
X61717333Y-44748601D01*
X61724560Y-44724776D01*
X61727000Y-44700000D01*
X61727000Y-39849718D01*
X61796508Y-39870803D01*
X61918750Y-39882843D01*
X62406250Y-39882843D01*
X62528492Y-39870803D01*
X62646037Y-39835146D01*
X62754366Y-39777243D01*
X62849318Y-39699318D01*
X62927243Y-39604366D01*
X62985146Y-39496037D01*
X63020803Y-39378492D01*
X63032843Y-39256250D01*
X63032843Y-38343750D01*
X63020803Y-38221508D01*
X62985146Y-38103963D01*
X62927243Y-37995634D01*
X62870917Y-37927000D01*
X64773000Y-37927000D01*
X64773000Y-53173000D01*
%TO.N,GND*%
G36*
X55473000Y-39773000D02*
G01*
X52827000Y-39773000D01*
X52827000Y-35327000D01*
X55473000Y-35327000D01*
X55473000Y-39773000D01*
G37*
X55473000Y-39773000D02*
X52827000Y-39773000D01*
X52827000Y-35327000D01*
X55473000Y-35327000D01*
X55473000Y-39773000D01*
%TO.N,Net-(J2-Pad1)*%
G36*
X41373000Y-44800000D02*
G01*
X41375440Y-44824776D01*
X41382667Y-44848601D01*
X41394403Y-44870557D01*
X41410197Y-44889803D01*
X41429443Y-44905597D01*
X41451399Y-44917333D01*
X41475224Y-44924560D01*
X41500000Y-44927000D01*
X43073000Y-44927000D01*
X43073000Y-48041929D01*
X43047304Y-48073240D01*
X42988711Y-48182859D01*
X42952630Y-48301803D01*
X42940448Y-48425500D01*
X42943501Y-48456500D01*
X42943500Y-53173000D01*
X36727000Y-53173000D01*
X36727000Y-45100000D01*
X36724560Y-45075224D01*
X36717333Y-45051399D01*
X36705597Y-45029443D01*
X36689803Y-45010197D01*
X36670557Y-44994403D01*
X36648601Y-44982667D01*
X36624776Y-44975440D01*
X36600000Y-44973000D01*
X35127000Y-44973000D01*
X35127000Y-37127000D01*
X41373000Y-37127000D01*
X41373000Y-44800000D01*
G37*
X41373000Y-44800000D02*
X41375440Y-44824776D01*
X41382667Y-44848601D01*
X41394403Y-44870557D01*
X41410197Y-44889803D01*
X41429443Y-44905597D01*
X41451399Y-44917333D01*
X41475224Y-44924560D01*
X41500000Y-44927000D01*
X43073000Y-44927000D01*
X43073000Y-48041929D01*
X43047304Y-48073240D01*
X42988711Y-48182859D01*
X42952630Y-48301803D01*
X42940448Y-48425500D01*
X42943501Y-48456500D01*
X42943500Y-53173000D01*
X36727000Y-53173000D01*
X36727000Y-45100000D01*
X36724560Y-45075224D01*
X36717333Y-45051399D01*
X36705597Y-45029443D01*
X36689803Y-45010197D01*
X36670557Y-44994403D01*
X36648601Y-44982667D01*
X36624776Y-44975440D01*
X36600000Y-44973000D01*
X35127000Y-44973000D01*
X35127000Y-37127000D01*
X41373000Y-37127000D01*
X41373000Y-44800000D01*
%TO.N,Net-(D1-Pad2)*%
G36*
X52273000Y-39773000D02*
G01*
X49900000Y-39773000D01*
X49875224Y-39775440D01*
X49851399Y-39782667D01*
X49829443Y-39794403D01*
X49810197Y-39810197D01*
X49794403Y-39829443D01*
X49782667Y-39851399D01*
X49775440Y-39875224D01*
X49773000Y-39900000D01*
X49773000Y-44369000D01*
X47030998Y-44369000D01*
X47000000Y-44365947D01*
X46969002Y-44369000D01*
X46928389Y-44373000D01*
X41927000Y-44373000D01*
X41927000Y-34227000D01*
X52273000Y-34227000D01*
X52273000Y-39773000D01*
G37*
X52273000Y-39773000D02*
X49900000Y-39773000D01*
X49875224Y-39775440D01*
X49851399Y-39782667D01*
X49829443Y-39794403D01*
X49810197Y-39810197D01*
X49794403Y-39829443D01*
X49782667Y-39851399D01*
X49775440Y-39875224D01*
X49773000Y-39900000D01*
X49773000Y-44369000D01*
X47030998Y-44369000D01*
X47000000Y-44365947D01*
X46969002Y-44369000D01*
X46928389Y-44373000D01*
X41927000Y-44373000D01*
X41927000Y-34227000D01*
X52273000Y-34227000D01*
X52273000Y-39773000D01*
%TO.N,GND*%
G36*
X49873000Y-49873000D02*
G01*
X46927000Y-49873000D01*
X46927000Y-45965369D01*
X46965369Y-45927000D01*
X49873000Y-45927000D01*
X49873000Y-49873000D01*
G37*
X49873000Y-49873000D02*
X46927000Y-49873000D01*
X46927000Y-45965369D01*
X46965369Y-45927000D01*
X49873000Y-45927000D01*
X49873000Y-49873000D01*
%TO.N,VCC*%
G36*
X57973000Y-44273000D02*
G01*
X56700000Y-44273000D01*
X56675224Y-44275440D01*
X56651399Y-44282667D01*
X56629443Y-44294403D01*
X56610197Y-44310197D01*
X56594403Y-44329443D01*
X56582667Y-44351399D01*
X56575440Y-44375224D01*
X56573000Y-44400000D01*
X56573000Y-48672206D01*
X51689000Y-48641788D01*
X51689000Y-44704000D01*
X51686560Y-44679224D01*
X51679333Y-44655399D01*
X51667597Y-44633443D01*
X51651803Y-44614197D01*
X51632557Y-44598403D01*
X51610601Y-44586667D01*
X51586776Y-44579440D01*
X51562373Y-44577001D01*
X50327000Y-44573373D01*
X50327000Y-40327000D01*
X57973000Y-40327000D01*
X57973000Y-44273000D01*
G37*
X57973000Y-44273000D02*
X56700000Y-44273000D01*
X56675224Y-44275440D01*
X56651399Y-44282667D01*
X56629443Y-44294403D01*
X56610197Y-44310197D01*
X56594403Y-44329443D01*
X56582667Y-44351399D01*
X56575440Y-44375224D01*
X56573000Y-44400000D01*
X56573000Y-48672206D01*
X51689000Y-48641788D01*
X51689000Y-44704000D01*
X51686560Y-44679224D01*
X51679333Y-44655399D01*
X51667597Y-44633443D01*
X51651803Y-44614197D01*
X51632557Y-44598403D01*
X51610601Y-44586667D01*
X51586776Y-44579440D01*
X51562373Y-44577001D01*
X50327000Y-44573373D01*
X50327000Y-40327000D01*
X57973000Y-40327000D01*
X57973000Y-44273000D01*
%TD*%
M02*
