M48
; DRILL file {KiCad 5.1.6+dfsg1-1} date Thu Nov 19 10:40:30 2020
; FORMAT={-:-/ absolute / inch / decimal}
; #@! TF.CreationDate,2020-11-19T10:40:30+01:00
; #@! TF.GenerationSoftware,Kicad,Pcbnew,5.1.6+dfsg1-1
; #@! TF.FileFunction,Plated,1,2,PTH
FMAT,2
INCH
T1C0.0157
T2C0.0315
T3C0.1181
%
G90
G05
T1
X1.4939Y-2.1911
X1.7087Y-2.189
X1.7489Y-2.4654
X1.7953Y-2.2126
X1.8661Y-1.937
X1.9055Y-1.937
X1.9449Y-1.937
X2.0363Y-2.4685
X2.0945Y-1.5512
X2.1339Y-1.5512
X2.1693Y-1.4134
X2.1693Y-1.4567
X2.1693Y-1.4961
X2.1693Y-1.5354
X2.1693Y-2.315
X2.1732Y-2.4173
X2.3529Y-1.3371
X2.3898Y-2.2323
X2.3976Y-1.3937
X2.4065Y-1.5306
X2.4488Y-1.3937
X2.5335Y-1.4561
T2
X1.7715Y-2.6955
X1.8502Y-2.6955
X1.929Y-2.6955
X2.0077Y-2.6955
X2.0865Y-2.6955
X2.1652Y-2.6955
X1.5589Y-2.4613
X1.5589Y-2.54
T3
X1.5748Y-1.9685
X2.3622Y-1.9685
T0
M30
