%TF.GenerationSoftware,KiCad,Pcbnew,8.0.9-8.0.9-0~ubuntu22.04.1*%
%TF.CreationDate,2025-09-24T08:27:35+02:00*%
%TF.ProjectId,led_buck_3a,6c65645f-6275-4636-9b5f-33612e6b6963,rev?*%
%TF.SameCoordinates,Original*%
%TF.FileFunction,Legend,Top*%
%TF.FilePolarity,Positive*%
%FSLAX46Y46*%
G04 Gerber Fmt 4.6, Leading zero omitted, Abs format (unit mm)*
G04 Created by KiCad (PCBNEW 8.0.9-8.0.9-0~ubuntu22.04.1) date 2025-09-24 08:27:35*
%MOMM*%
%LPD*%
G01*
G04 APERTURE LIST*
G04 Aperture macros list*
%AMRoundRect*
0 Rectangle with rounded corners*
0 $1 Rounding radius*
0 $2 $3 $4 $5 $6 $7 $8 $9 X,Y pos of 4 corners*
0 Add a 4 corners polygon primitive as box body*
4,1,4,$2,$3,$4,$5,$6,$7,$8,$9,$2,$3,0*
0 Add four circle primitives for the rounded corners*
1,1,$1+$1,$2,$3*
1,1,$1+$1,$4,$5*
1,1,$1+$1,$6,$7*
1,1,$1+$1,$8,$9*
0 Add four rect primitives between the rounded corners*
20,1,$1+$1,$2,$3,$4,$5,0*
20,1,$1+$1,$4,$5,$6,$7,0*
20,1,$1+$1,$6,$7,$8,$9,0*
20,1,$1+$1,$8,$9,$2,$3,0*%
%AMFreePoly0*
4,1,27,0.318424,0.146194,0.353779,0.131549,0.369999,0.120710,0.420710,0.069999,0.431549,0.053779,0.446194,0.018424,0.450000,-0.000711,0.450000,-0.050000,0.446194,-0.069135,0.431549,-0.104490,0.404490,-0.131549,0.369135,-0.146194,0.350000,-0.150000,-0.350000,-0.150000,-0.369135,-0.146194,-0.404490,-0.131549,-0.431549,-0.104490,-0.446194,-0.069135,-0.450000,-0.050000,-0.450000,0.050000,
-0.446194,0.069135,-0.431549,0.104490,-0.404490,0.131549,-0.369135,0.146194,-0.350000,0.150000,0.299289,0.150000,0.318424,0.146194,0.318424,0.146194,$1*%
%AMFreePoly1*
4,1,27,0.369135,0.146194,0.404490,0.131549,0.431549,0.104490,0.446194,0.069135,0.450000,0.050000,0.450000,0.000711,0.446194,-0.018424,0.431549,-0.053779,0.420710,-0.069999,0.369999,-0.120710,0.353779,-0.131549,0.318424,-0.146194,0.299289,-0.150000,-0.350000,-0.150000,-0.369135,-0.146194,-0.404490,-0.131549,-0.431549,-0.104490,-0.446194,-0.069135,-0.450000,-0.050000,-0.450000,0.050000,
-0.446194,0.069135,-0.431549,0.104490,-0.404490,0.131549,-0.369135,0.146194,-0.350000,0.150000,0.350000,0.150000,0.369135,0.146194,0.369135,0.146194,$1*%
%AMFreePoly2*
4,1,27,0.069135,0.446194,0.104490,0.431549,0.131549,0.404490,0.146194,0.369135,0.150000,0.350000,0.150000,-0.350000,0.146194,-0.369135,0.131549,-0.404490,0.104490,-0.431549,0.069135,-0.446194,0.050000,-0.450000,-0.050000,-0.450000,-0.069135,-0.446194,-0.104490,-0.431549,-0.131549,-0.404490,-0.146194,-0.369135,-0.150000,-0.350000,-0.150000,0.299289,-0.146194,0.318424,-0.131549,0.353779,
-0.120710,0.369999,-0.069999,0.420710,-0.053779,0.431549,-0.018424,0.446194,0.000711,0.450000,0.050000,0.450000,0.069135,0.446194,0.069135,0.446194,$1*%
%AMFreePoly3*
4,1,27,0.018424,0.446194,0.053779,0.431549,0.069999,0.420710,0.120710,0.369999,0.131549,0.353779,0.146194,0.318424,0.150000,0.299289,0.150000,-0.350000,0.146194,-0.369135,0.131549,-0.404490,0.104490,-0.431549,0.069135,-0.446194,0.050000,-0.450000,-0.050000,-0.450000,-0.069135,-0.446194,-0.104490,-0.431549,-0.131549,-0.404490,-0.146194,-0.369135,-0.150000,-0.350000,-0.150000,0.350000,
-0.146194,0.369135,-0.131549,0.404490,-0.104490,0.431549,-0.069135,0.446194,-0.050000,0.450000,-0.000711,0.450000,0.018424,0.446194,0.018424,0.446194,$1*%
%AMFreePoly4*
4,1,27,0.369135,0.146194,0.404490,0.131549,0.431549,0.104490,0.446194,0.069135,0.450000,0.050000,0.450000,-0.050000,0.446194,-0.069135,0.431549,-0.104490,0.404490,-0.131549,0.369135,-0.146194,0.350000,-0.150000,-0.299289,-0.150000,-0.318424,-0.146194,-0.353779,-0.131549,-0.369999,-0.120710,-0.420710,-0.069999,-0.431549,-0.053779,-0.446194,-0.018424,-0.450000,0.000711,-0.450000,0.050000,
-0.446194,0.069135,-0.431549,0.104490,-0.404490,0.131549,-0.369135,0.146194,-0.350000,0.150000,0.350000,0.150000,0.369135,0.146194,0.369135,0.146194,$1*%
%AMFreePoly5*
4,1,27,0.369135,0.146194,0.404490,0.131549,0.431549,0.104490,0.446194,0.069135,0.450000,0.050000,0.450000,-0.050000,0.446194,-0.069135,0.431549,-0.104490,0.404490,-0.131549,0.369135,-0.146194,0.350000,-0.150000,-0.350000,-0.150000,-0.369135,-0.146194,-0.404490,-0.131549,-0.431549,-0.104490,-0.446194,-0.069135,-0.450000,-0.050000,-0.450000,-0.000711,-0.446194,0.018424,-0.431549,0.053779,
-0.420710,0.069999,-0.369999,0.120710,-0.353779,0.131549,-0.318424,0.146194,-0.299289,0.150000,0.350000,0.150000,0.369135,0.146194,0.369135,0.146194,$1*%
%AMFreePoly6*
4,1,27,0.069135,0.446194,0.104490,0.431549,0.131549,0.404490,0.146194,0.369135,0.150000,0.350000,0.150000,-0.299289,0.146194,-0.318424,0.131549,-0.353779,0.120710,-0.369999,0.069999,-0.420710,0.053779,-0.431549,0.018424,-0.446194,-0.000711,-0.450000,-0.050000,-0.450000,-0.069135,-0.446194,-0.104490,-0.431549,-0.131549,-0.404490,-0.146194,-0.369135,-0.150000,-0.350000,-0.150000,0.350000,
-0.146194,0.369135,-0.131549,0.404490,-0.104490,0.431549,-0.069135,0.446194,-0.050000,0.450000,0.050000,0.450000,0.069135,0.446194,0.069135,0.446194,$1*%
%AMFreePoly7*
4,1,27,0.069135,0.446194,0.104490,0.431549,0.131549,0.404490,0.146194,0.369135,0.150000,0.350000,0.150000,-0.350000,0.146194,-0.369135,0.131549,-0.404490,0.104490,-0.431549,0.069135,-0.446194,0.050000,-0.450000,0.000711,-0.450000,-0.018424,-0.446194,-0.053779,-0.431549,-0.069999,-0.420710,-0.120710,-0.369999,-0.131549,-0.353779,-0.146194,-0.318424,-0.150000,-0.299289,-0.150000,0.350000,
-0.146194,0.369135,-0.131549,0.404490,-0.104490,0.431549,-0.069135,0.446194,-0.050000,0.450000,0.050000,0.450000,0.069135,0.446194,0.069135,0.446194,$1*%
%AMFreePoly8*
4,1,17,2.675000,1.605000,1.875000,1.605000,1.875000,0.935000,2.675000,0.935000,2.675000,0.335000,1.875000,0.335000,1.875000,-0.335000,2.675000,-0.335000,2.675000,-0.935000,1.875000,-0.935000,1.875000,-1.605000,2.675000,-1.605000,2.675000,-2.205000,-1.875000,-2.205000,-1.875000,2.205000,2.675000,2.205000,2.675000,1.605000,2.675000,1.605000,$1*%
G04 Aperture macros list end*
%ADD10C,0.200000*%
%ADD11C,0.300000*%
%ADD12C,0.150000*%
%ADD13C,0.015000*%
%ADD14C,0.120000*%
%ADD15C,0.127000*%
%ADD16RoundRect,0.268750X-0.268750X-0.481250X0.268750X-0.481250X0.268750X0.481250X-0.268750X0.481250X0*%
%ADD17RoundRect,0.268750X0.481250X-0.268750X0.481250X0.268750X-0.481250X0.268750X-0.481250X-0.268750X0*%
%ADD18RoundRect,0.050000X1.250000X0.900000X-1.250000X0.900000X-1.250000X-0.900000X1.250000X-0.900000X0*%
%ADD19RoundRect,0.268750X-0.481250X0.268750X-0.481250X-0.268750X0.481250X-0.268750X0.481250X0.268750X0*%
%ADD20FreePoly0,180.000000*%
%ADD21RoundRect,0.075000X0.375000X0.075000X-0.375000X0.075000X-0.375000X-0.075000X0.375000X-0.075000X0*%
%ADD22FreePoly1,180.000000*%
%ADD23FreePoly2,180.000000*%
%ADD24RoundRect,0.075000X0.075000X0.375000X-0.075000X0.375000X-0.075000X-0.375000X0.075000X-0.375000X0*%
%ADD25FreePoly3,180.000000*%
%ADD26FreePoly4,180.000000*%
%ADD27FreePoly5,180.000000*%
%ADD28FreePoly6,180.000000*%
%ADD29FreePoly7,180.000000*%
%ADD30RoundRect,0.050000X0.850000X0.850000X-0.850000X0.850000X-0.850000X-0.850000X0.850000X-0.850000X0*%
%ADD31C,3.300000*%
%ADD32RoundRect,0.050000X0.210000X-0.380000X0.210000X0.380000X-0.210000X0.380000X-0.210000X-0.380000X0*%
%ADD33RoundRect,0.050000X1.150000X-0.750000X1.150000X0.750000X-1.150000X0.750000X-1.150000X-0.750000X0*%
%ADD34RoundRect,0.050000X1.700000X-1.000000X1.700000X1.000000X-1.700000X1.000000X-1.700000X-1.000000X0*%
%ADD35RoundRect,0.275000X0.275000X0.500000X-0.275000X0.500000X-0.275000X-0.500000X0.275000X-0.500000X0*%
%ADD36RoundRect,0.268519X0.456481X1.456481X-0.456481X1.456481X-0.456481X-1.456481X0.456481X-1.456481X0*%
%ADD37RoundRect,0.268750X0.268750X0.481250X-0.268750X0.481250X-0.268750X-0.481250X0.268750X-0.481250X0*%
%ADD38FreePoly8,90.000000*%
%ADD39RoundRect,0.050000X0.250000X-0.425000X0.250000X0.425000X-0.250000X0.425000X-0.250000X-0.425000X0*%
%ADD40RoundRect,0.050000X-0.500000X-0.500000X0.500000X-0.500000X0.500000X0.500000X-0.500000X0.500000X0*%
%ADD41C,4.100000*%
%ADD42RoundRect,0.050000X-0.675000X0.675000X-0.675000X-0.675000X0.675000X-0.675000X0.675000X0.675000X0*%
%ADD43O,1.450000X1.450000*%
%ADD44C,0.600000*%
%ADD45RoundRect,0.050000X-0.500000X1.290000X-0.500000X-1.290000X0.500000X-1.290000X0.500000X1.290000X0*%
G04 APERTURE END LIST*
D10*
X52257780Y-68006191D02*
X51448257Y-68006191D01*
X51448257Y-68006191D02*
X51353019Y-68053810D01*
X51353019Y-68053810D02*
X51305400Y-68101429D01*
X51305400Y-68101429D02*
X51257780Y-68196667D01*
X51257780Y-68196667D02*
X51257780Y-68387143D01*
X51257780Y-68387143D02*
X51305400Y-68482381D01*
X51305400Y-68482381D02*
X51353019Y-68530000D01*
X51353019Y-68530000D02*
X51448257Y-68577619D01*
X51448257Y-68577619D02*
X52257780Y-68577619D01*
X51257780Y-69053810D02*
X52257780Y-69053810D01*
X52257780Y-69053810D02*
X52257780Y-69434762D01*
X52257780Y-69434762D02*
X52210161Y-69530000D01*
X52210161Y-69530000D02*
X52162542Y-69577619D01*
X52162542Y-69577619D02*
X52067304Y-69625238D01*
X52067304Y-69625238D02*
X51924447Y-69625238D01*
X51924447Y-69625238D02*
X51829209Y-69577619D01*
X51829209Y-69577619D02*
X51781590Y-69530000D01*
X51781590Y-69530000D02*
X51733971Y-69434762D01*
X51733971Y-69434762D02*
X51733971Y-69053810D01*
X51257780Y-70053810D02*
X52257780Y-70053810D01*
X52257780Y-70053810D02*
X52257780Y-70291905D01*
X52257780Y-70291905D02*
X52210161Y-70434762D01*
X52210161Y-70434762D02*
X52114923Y-70530000D01*
X52114923Y-70530000D02*
X52019685Y-70577619D01*
X52019685Y-70577619D02*
X51829209Y-70625238D01*
X51829209Y-70625238D02*
X51686352Y-70625238D01*
X51686352Y-70625238D02*
X51495876Y-70577619D01*
X51495876Y-70577619D02*
X51400638Y-70530000D01*
X51400638Y-70530000D02*
X51305400Y-70434762D01*
X51305400Y-70434762D02*
X51257780Y-70291905D01*
X51257780Y-70291905D02*
X51257780Y-70053810D01*
X51257780Y-71053810D02*
X52257780Y-71053810D01*
X54137780Y-68669523D02*
X54137780Y-68193333D01*
X54137780Y-68193333D02*
X53661590Y-68145714D01*
X53661590Y-68145714D02*
X53709209Y-68193333D01*
X53709209Y-68193333D02*
X53756828Y-68288571D01*
X53756828Y-68288571D02*
X53756828Y-68526666D01*
X53756828Y-68526666D02*
X53709209Y-68621904D01*
X53709209Y-68621904D02*
X53661590Y-68669523D01*
X53661590Y-68669523D02*
X53566352Y-68717142D01*
X53566352Y-68717142D02*
X53328257Y-68717142D01*
X53328257Y-68717142D02*
X53233019Y-68669523D01*
X53233019Y-68669523D02*
X53185400Y-68621904D01*
X53185400Y-68621904D02*
X53137780Y-68526666D01*
X53137780Y-68526666D02*
X53137780Y-68288571D01*
X53137780Y-68288571D02*
X53185400Y-68193333D01*
X53185400Y-68193333D02*
X53233019Y-68145714D01*
X54137780Y-69002857D02*
X53137780Y-69336190D01*
X53137780Y-69336190D02*
X54137780Y-69669523D01*
D11*
X45907143Y-30720870D02*
X45192857Y-30720870D01*
X45192857Y-30720870D02*
X45192857Y-29220870D01*
X46407143Y-29935156D02*
X46907143Y-29935156D01*
X47121429Y-30720870D02*
X46407143Y-30720870D01*
X46407143Y-30720870D02*
X46407143Y-29220870D01*
X46407143Y-29220870D02*
X47121429Y-29220870D01*
X47764286Y-30720870D02*
X47764286Y-29220870D01*
X47764286Y-29220870D02*
X48121429Y-29220870D01*
X48121429Y-29220870D02*
X48335715Y-29292299D01*
X48335715Y-29292299D02*
X48478572Y-29435156D01*
X48478572Y-29435156D02*
X48550001Y-29578013D01*
X48550001Y-29578013D02*
X48621429Y-29863727D01*
X48621429Y-29863727D02*
X48621429Y-30078013D01*
X48621429Y-30078013D02*
X48550001Y-30363727D01*
X48550001Y-30363727D02*
X48478572Y-30506584D01*
X48478572Y-30506584D02*
X48335715Y-30649442D01*
X48335715Y-30649442D02*
X48121429Y-30720870D01*
X48121429Y-30720870D02*
X47764286Y-30720870D01*
X50264286Y-29720870D02*
X50621429Y-30720870D01*
X50621429Y-30720870D02*
X50978572Y-29720870D01*
X52192858Y-29220870D02*
X51907143Y-29220870D01*
X51907143Y-29220870D02*
X51764286Y-29292299D01*
X51764286Y-29292299D02*
X51692858Y-29363727D01*
X51692858Y-29363727D02*
X51550000Y-29578013D01*
X51550000Y-29578013D02*
X51478572Y-29863727D01*
X51478572Y-29863727D02*
X51478572Y-30435156D01*
X51478572Y-30435156D02*
X51550000Y-30578013D01*
X51550000Y-30578013D02*
X51621429Y-30649442D01*
X51621429Y-30649442D02*
X51764286Y-30720870D01*
X51764286Y-30720870D02*
X52050000Y-30720870D01*
X52050000Y-30720870D02*
X52192858Y-30649442D01*
X52192858Y-30649442D02*
X52264286Y-30578013D01*
X52264286Y-30578013D02*
X52335715Y-30435156D01*
X52335715Y-30435156D02*
X52335715Y-30078013D01*
X52335715Y-30078013D02*
X52264286Y-29935156D01*
X52264286Y-29935156D02*
X52192858Y-29863727D01*
X52192858Y-29863727D02*
X52050000Y-29792299D01*
X52050000Y-29792299D02*
X51764286Y-29792299D01*
X51764286Y-29792299D02*
X51621429Y-29863727D01*
X51621429Y-29863727D02*
X51550000Y-29935156D01*
X51550000Y-29935156D02*
X51478572Y-30078013D01*
X52978571Y-30578013D02*
X53050000Y-30649442D01*
X53050000Y-30649442D02*
X52978571Y-30720870D01*
X52978571Y-30720870D02*
X52907143Y-30649442D01*
X52907143Y-30649442D02*
X52978571Y-30578013D01*
X52978571Y-30578013D02*
X52978571Y-30720870D01*
X53978572Y-29220870D02*
X54121429Y-29220870D01*
X54121429Y-29220870D02*
X54264286Y-29292299D01*
X54264286Y-29292299D02*
X54335715Y-29363727D01*
X54335715Y-29363727D02*
X54407143Y-29506584D01*
X54407143Y-29506584D02*
X54478572Y-29792299D01*
X54478572Y-29792299D02*
X54478572Y-30149442D01*
X54478572Y-30149442D02*
X54407143Y-30435156D01*
X54407143Y-30435156D02*
X54335715Y-30578013D01*
X54335715Y-30578013D02*
X54264286Y-30649442D01*
X54264286Y-30649442D02*
X54121429Y-30720870D01*
X54121429Y-30720870D02*
X53978572Y-30720870D01*
X53978572Y-30720870D02*
X53835715Y-30649442D01*
X53835715Y-30649442D02*
X53764286Y-30578013D01*
X53764286Y-30578013D02*
X53692857Y-30435156D01*
X53692857Y-30435156D02*
X53621429Y-30149442D01*
X53621429Y-30149442D02*
X53621429Y-29792299D01*
X53621429Y-29792299D02*
X53692857Y-29506584D01*
X53692857Y-29506584D02*
X53764286Y-29363727D01*
X53764286Y-29363727D02*
X53835715Y-29292299D01*
X53835715Y-29292299D02*
X53978572Y-29220870D01*
X46050001Y-31707215D02*
X45907144Y-31635786D01*
X45907144Y-31635786D02*
X45692858Y-31635786D01*
X45692858Y-31635786D02*
X45478572Y-31707215D01*
X45478572Y-31707215D02*
X45335715Y-31850072D01*
X45335715Y-31850072D02*
X45264286Y-31992929D01*
X45264286Y-31992929D02*
X45192858Y-32278643D01*
X45192858Y-32278643D02*
X45192858Y-32492929D01*
X45192858Y-32492929D02*
X45264286Y-32778643D01*
X45264286Y-32778643D02*
X45335715Y-32921500D01*
X45335715Y-32921500D02*
X45478572Y-33064358D01*
X45478572Y-33064358D02*
X45692858Y-33135786D01*
X45692858Y-33135786D02*
X45835715Y-33135786D01*
X45835715Y-33135786D02*
X46050001Y-33064358D01*
X46050001Y-33064358D02*
X46121429Y-32992929D01*
X46121429Y-32992929D02*
X46121429Y-32492929D01*
X46121429Y-32492929D02*
X45835715Y-32492929D01*
X46692858Y-33064358D02*
X46907144Y-33135786D01*
X46907144Y-33135786D02*
X47264286Y-33135786D01*
X47264286Y-33135786D02*
X47407144Y-33064358D01*
X47407144Y-33064358D02*
X47478572Y-32992929D01*
X47478572Y-32992929D02*
X47550001Y-32850072D01*
X47550001Y-32850072D02*
X47550001Y-32707215D01*
X47550001Y-32707215D02*
X47478572Y-32564358D01*
X47478572Y-32564358D02*
X47407144Y-32492929D01*
X47407144Y-32492929D02*
X47264286Y-32421500D01*
X47264286Y-32421500D02*
X46978572Y-32350072D01*
X46978572Y-32350072D02*
X46835715Y-32278643D01*
X46835715Y-32278643D02*
X46764286Y-32207215D01*
X46764286Y-32207215D02*
X46692858Y-32064358D01*
X46692858Y-32064358D02*
X46692858Y-31921500D01*
X46692858Y-31921500D02*
X46764286Y-31778643D01*
X46764286Y-31778643D02*
X46835715Y-31707215D01*
X46835715Y-31707215D02*
X46978572Y-31635786D01*
X46978572Y-31635786D02*
X47335715Y-31635786D01*
X47335715Y-31635786D02*
X47550001Y-31707215D01*
X49264286Y-31778643D02*
X49335714Y-31707215D01*
X49335714Y-31707215D02*
X49478572Y-31635786D01*
X49478572Y-31635786D02*
X49835714Y-31635786D01*
X49835714Y-31635786D02*
X49978572Y-31707215D01*
X49978572Y-31707215D02*
X50050000Y-31778643D01*
X50050000Y-31778643D02*
X50121429Y-31921500D01*
X50121429Y-31921500D02*
X50121429Y-32064358D01*
X50121429Y-32064358D02*
X50050000Y-32278643D01*
X50050000Y-32278643D02*
X49192857Y-33135786D01*
X49192857Y-33135786D02*
X50121429Y-33135786D01*
X51050000Y-31635786D02*
X51192857Y-31635786D01*
X51192857Y-31635786D02*
X51335714Y-31707215D01*
X51335714Y-31707215D02*
X51407143Y-31778643D01*
X51407143Y-31778643D02*
X51478571Y-31921500D01*
X51478571Y-31921500D02*
X51550000Y-32207215D01*
X51550000Y-32207215D02*
X51550000Y-32564358D01*
X51550000Y-32564358D02*
X51478571Y-32850072D01*
X51478571Y-32850072D02*
X51407143Y-32992929D01*
X51407143Y-32992929D02*
X51335714Y-33064358D01*
X51335714Y-33064358D02*
X51192857Y-33135786D01*
X51192857Y-33135786D02*
X51050000Y-33135786D01*
X51050000Y-33135786D02*
X50907143Y-33064358D01*
X50907143Y-33064358D02*
X50835714Y-32992929D01*
X50835714Y-32992929D02*
X50764285Y-32850072D01*
X50764285Y-32850072D02*
X50692857Y-32564358D01*
X50692857Y-32564358D02*
X50692857Y-32207215D01*
X50692857Y-32207215D02*
X50764285Y-31921500D01*
X50764285Y-31921500D02*
X50835714Y-31778643D01*
X50835714Y-31778643D02*
X50907143Y-31707215D01*
X50907143Y-31707215D02*
X51050000Y-31635786D01*
X52121428Y-31778643D02*
X52192856Y-31707215D01*
X52192856Y-31707215D02*
X52335714Y-31635786D01*
X52335714Y-31635786D02*
X52692856Y-31635786D01*
X52692856Y-31635786D02*
X52835714Y-31707215D01*
X52835714Y-31707215D02*
X52907142Y-31778643D01*
X52907142Y-31778643D02*
X52978571Y-31921500D01*
X52978571Y-31921500D02*
X52978571Y-32064358D01*
X52978571Y-32064358D02*
X52907142Y-32278643D01*
X52907142Y-32278643D02*
X52049999Y-33135786D01*
X52049999Y-33135786D02*
X52978571Y-33135786D01*
X54335713Y-31635786D02*
X53621427Y-31635786D01*
X53621427Y-31635786D02*
X53549999Y-32350072D01*
X53549999Y-32350072D02*
X53621427Y-32278643D01*
X53621427Y-32278643D02*
X53764285Y-32207215D01*
X53764285Y-32207215D02*
X54121427Y-32207215D01*
X54121427Y-32207215D02*
X54264285Y-32278643D01*
X54264285Y-32278643D02*
X54335713Y-32350072D01*
X54335713Y-32350072D02*
X54407142Y-32492929D01*
X54407142Y-32492929D02*
X54407142Y-32850072D01*
X54407142Y-32850072D02*
X54335713Y-32992929D01*
X54335713Y-32992929D02*
X54264285Y-33064358D01*
X54264285Y-33064358D02*
X54121427Y-33135786D01*
X54121427Y-33135786D02*
X53764285Y-33135786D01*
X53764285Y-33135786D02*
X53621427Y-33064358D01*
X53621427Y-33064358D02*
X53549999Y-32992929D01*
D10*
X47017780Y-68794761D02*
X47493971Y-68461428D01*
X47017780Y-68223333D02*
X48017780Y-68223333D01*
X48017780Y-68223333D02*
X48017780Y-68604285D01*
X48017780Y-68604285D02*
X47970161Y-68699523D01*
X47970161Y-68699523D02*
X47922542Y-68747142D01*
X47922542Y-68747142D02*
X47827304Y-68794761D01*
X47827304Y-68794761D02*
X47684447Y-68794761D01*
X47684447Y-68794761D02*
X47589209Y-68747142D01*
X47589209Y-68747142D02*
X47541590Y-68699523D01*
X47541590Y-68699523D02*
X47493971Y-68604285D01*
X47493971Y-68604285D02*
X47493971Y-68223333D01*
X47017780Y-69128095D02*
X47684447Y-69651904D01*
X47684447Y-69128095D02*
X47017780Y-69651904D01*
X47017780Y-70032857D02*
X48017780Y-70032857D01*
X48017780Y-70032857D02*
X48017780Y-70270952D01*
X48017780Y-70270952D02*
X47970161Y-70413809D01*
X47970161Y-70413809D02*
X47874923Y-70509047D01*
X47874923Y-70509047D02*
X47779685Y-70556666D01*
X47779685Y-70556666D02*
X47589209Y-70604285D01*
X47589209Y-70604285D02*
X47446352Y-70604285D01*
X47446352Y-70604285D02*
X47255876Y-70556666D01*
X47255876Y-70556666D02*
X47160638Y-70509047D01*
X47160638Y-70509047D02*
X47065400Y-70413809D01*
X47065400Y-70413809D02*
X47017780Y-70270952D01*
X47017780Y-70270952D02*
X47017780Y-70032857D01*
X45997780Y-68159524D02*
X45997780Y-68730952D01*
X44997780Y-68445238D02*
X45997780Y-68445238D01*
X44997780Y-68969048D02*
X45664447Y-69492857D01*
X45664447Y-68969048D02*
X44997780Y-69492857D01*
X44997780Y-69873810D02*
X45997780Y-69873810D01*
X45997780Y-69873810D02*
X45997780Y-70111905D01*
X45997780Y-70111905D02*
X45950161Y-70254762D01*
X45950161Y-70254762D02*
X45854923Y-70350000D01*
X45854923Y-70350000D02*
X45759685Y-70397619D01*
X45759685Y-70397619D02*
X45569209Y-70445238D01*
X45569209Y-70445238D02*
X45426352Y-70445238D01*
X45426352Y-70445238D02*
X45235876Y-70397619D01*
X45235876Y-70397619D02*
X45140638Y-70350000D01*
X45140638Y-70350000D02*
X45045400Y-70254762D01*
X45045400Y-70254762D02*
X44997780Y-70111905D01*
X44997780Y-70111905D02*
X44997780Y-69873810D01*
X49940161Y-68698095D02*
X49987780Y-68602857D01*
X49987780Y-68602857D02*
X49987780Y-68460000D01*
X49987780Y-68460000D02*
X49940161Y-68317143D01*
X49940161Y-68317143D02*
X49844923Y-68221905D01*
X49844923Y-68221905D02*
X49749685Y-68174286D01*
X49749685Y-68174286D02*
X49559209Y-68126667D01*
X49559209Y-68126667D02*
X49416352Y-68126667D01*
X49416352Y-68126667D02*
X49225876Y-68174286D01*
X49225876Y-68174286D02*
X49130638Y-68221905D01*
X49130638Y-68221905D02*
X49035400Y-68317143D01*
X49035400Y-68317143D02*
X48987780Y-68460000D01*
X48987780Y-68460000D02*
X48987780Y-68555238D01*
X48987780Y-68555238D02*
X49035400Y-68698095D01*
X49035400Y-68698095D02*
X49083019Y-68745714D01*
X49083019Y-68745714D02*
X49416352Y-68745714D01*
X49416352Y-68745714D02*
X49416352Y-68555238D01*
X48987780Y-69174286D02*
X49987780Y-69174286D01*
X49987780Y-69174286D02*
X48987780Y-69745714D01*
X48987780Y-69745714D02*
X49987780Y-69745714D01*
X48987780Y-70221905D02*
X49987780Y-70221905D01*
X49987780Y-70221905D02*
X49987780Y-70460000D01*
X49987780Y-70460000D02*
X49940161Y-70602857D01*
X49940161Y-70602857D02*
X49844923Y-70698095D01*
X49844923Y-70698095D02*
X49749685Y-70745714D01*
X49749685Y-70745714D02*
X49559209Y-70793333D01*
X49559209Y-70793333D02*
X49416352Y-70793333D01*
X49416352Y-70793333D02*
X49225876Y-70745714D01*
X49225876Y-70745714D02*
X49130638Y-70698095D01*
X49130638Y-70698095D02*
X49035400Y-70602857D01*
X49035400Y-70602857D02*
X48987780Y-70460000D01*
X48987780Y-70460000D02*
X48987780Y-70221905D01*
D12*
X60849333Y-34153580D02*
X60801714Y-34201200D01*
X60801714Y-34201200D02*
X60658857Y-34248819D01*
X60658857Y-34248819D02*
X60563619Y-34248819D01*
X60563619Y-34248819D02*
X60420762Y-34201200D01*
X60420762Y-34201200D02*
X60325524Y-34105961D01*
X60325524Y-34105961D02*
X60277905Y-34010723D01*
X60277905Y-34010723D02*
X60230286Y-33820247D01*
X60230286Y-33820247D02*
X60230286Y-33677390D01*
X60230286Y-33677390D02*
X60277905Y-33486914D01*
X60277905Y-33486914D02*
X60325524Y-33391676D01*
X60325524Y-33391676D02*
X60420762Y-33296438D01*
X60420762Y-33296438D02*
X60563619Y-33248819D01*
X60563619Y-33248819D02*
X60658857Y-33248819D01*
X60658857Y-33248819D02*
X60801714Y-33296438D01*
X60801714Y-33296438D02*
X60849333Y-33344057D01*
X61706476Y-33582152D02*
X61706476Y-34248819D01*
X61468381Y-33201200D02*
X61230286Y-33915485D01*
X61230286Y-33915485D02*
X61849333Y-33915485D01*
X57993333Y-55709580D02*
X57945714Y-55757200D01*
X57945714Y-55757200D02*
X57802857Y-55804819D01*
X57802857Y-55804819D02*
X57707619Y-55804819D01*
X57707619Y-55804819D02*
X57564762Y-55757200D01*
X57564762Y-55757200D02*
X57469524Y-55661961D01*
X57469524Y-55661961D02*
X57421905Y-55566723D01*
X57421905Y-55566723D02*
X57374286Y-55376247D01*
X57374286Y-55376247D02*
X57374286Y-55233390D01*
X57374286Y-55233390D02*
X57421905Y-55042914D01*
X57421905Y-55042914D02*
X57469524Y-54947676D01*
X57469524Y-54947676D02*
X57564762Y-54852438D01*
X57564762Y-54852438D02*
X57707619Y-54804819D01*
X57707619Y-54804819D02*
X57802857Y-54804819D01*
X57802857Y-54804819D02*
X57945714Y-54852438D01*
X57945714Y-54852438D02*
X57993333Y-54900057D01*
X58898095Y-54804819D02*
X58421905Y-54804819D01*
X58421905Y-54804819D02*
X58374286Y-55281009D01*
X58374286Y-55281009D02*
X58421905Y-55233390D01*
X58421905Y-55233390D02*
X58517143Y-55185771D01*
X58517143Y-55185771D02*
X58755238Y-55185771D01*
X58755238Y-55185771D02*
X58850476Y-55233390D01*
X58850476Y-55233390D02*
X58898095Y-55281009D01*
X58898095Y-55281009D02*
X58945714Y-55376247D01*
X58945714Y-55376247D02*
X58945714Y-55614342D01*
X58945714Y-55614342D02*
X58898095Y-55709580D01*
X58898095Y-55709580D02*
X58850476Y-55757200D01*
X58850476Y-55757200D02*
X58755238Y-55804819D01*
X58755238Y-55804819D02*
X58517143Y-55804819D01*
X58517143Y-55804819D02*
X58421905Y-55757200D01*
X58421905Y-55757200D02*
X58374286Y-55709580D01*
X48061905Y-34854819D02*
X48061905Y-33854819D01*
X48061905Y-33854819D02*
X48300000Y-33854819D01*
X48300000Y-33854819D02*
X48442857Y-33902438D01*
X48442857Y-33902438D02*
X48538095Y-33997676D01*
X48538095Y-33997676D02*
X48585714Y-34092914D01*
X48585714Y-34092914D02*
X48633333Y-34283390D01*
X48633333Y-34283390D02*
X48633333Y-34426247D01*
X48633333Y-34426247D02*
X48585714Y-34616723D01*
X48585714Y-34616723D02*
X48538095Y-34711961D01*
X48538095Y-34711961D02*
X48442857Y-34807200D01*
X48442857Y-34807200D02*
X48300000Y-34854819D01*
X48300000Y-34854819D02*
X48061905Y-34854819D01*
X49585714Y-34854819D02*
X49014286Y-34854819D01*
X49300000Y-34854819D02*
X49300000Y-33854819D01*
X49300000Y-33854819D02*
X49204762Y-33997676D01*
X49204762Y-33997676D02*
X49109524Y-34092914D01*
X49109524Y-34092914D02*
X49014286Y-34140533D01*
X55421905Y-65054819D02*
X55421905Y-64054819D01*
X55421905Y-64054819D02*
X55660000Y-64054819D01*
X55660000Y-64054819D02*
X55802857Y-64102438D01*
X55802857Y-64102438D02*
X55898095Y-64197676D01*
X55898095Y-64197676D02*
X55945714Y-64292914D01*
X55945714Y-64292914D02*
X55993333Y-64483390D01*
X55993333Y-64483390D02*
X55993333Y-64626247D01*
X55993333Y-64626247D02*
X55945714Y-64816723D01*
X55945714Y-64816723D02*
X55898095Y-64911961D01*
X55898095Y-64911961D02*
X55802857Y-65007200D01*
X55802857Y-65007200D02*
X55660000Y-65054819D01*
X55660000Y-65054819D02*
X55421905Y-65054819D01*
X56374286Y-64150057D02*
X56421905Y-64102438D01*
X56421905Y-64102438D02*
X56517143Y-64054819D01*
X56517143Y-64054819D02*
X56755238Y-64054819D01*
X56755238Y-64054819D02*
X56850476Y-64102438D01*
X56850476Y-64102438D02*
X56898095Y-64150057D01*
X56898095Y-64150057D02*
X56945714Y-64245295D01*
X56945714Y-64245295D02*
X56945714Y-64340533D01*
X56945714Y-64340533D02*
X56898095Y-64483390D01*
X56898095Y-64483390D02*
X56326667Y-65054819D01*
X56326667Y-65054819D02*
X56945714Y-65054819D01*
X53633333Y-56034819D02*
X53300000Y-55558628D01*
X53061905Y-56034819D02*
X53061905Y-55034819D01*
X53061905Y-55034819D02*
X53442857Y-55034819D01*
X53442857Y-55034819D02*
X53538095Y-55082438D01*
X53538095Y-55082438D02*
X53585714Y-55130057D01*
X53585714Y-55130057D02*
X53633333Y-55225295D01*
X53633333Y-55225295D02*
X53633333Y-55368152D01*
X53633333Y-55368152D02*
X53585714Y-55463390D01*
X53585714Y-55463390D02*
X53538095Y-55511009D01*
X53538095Y-55511009D02*
X53442857Y-55558628D01*
X53442857Y-55558628D02*
X53061905Y-55558628D01*
X54014286Y-55130057D02*
X54061905Y-55082438D01*
X54061905Y-55082438D02*
X54157143Y-55034819D01*
X54157143Y-55034819D02*
X54395238Y-55034819D01*
X54395238Y-55034819D02*
X54490476Y-55082438D01*
X54490476Y-55082438D02*
X54538095Y-55130057D01*
X54538095Y-55130057D02*
X54585714Y-55225295D01*
X54585714Y-55225295D02*
X54585714Y-55320533D01*
X54585714Y-55320533D02*
X54538095Y-55463390D01*
X54538095Y-55463390D02*
X53966667Y-56034819D01*
X53966667Y-56034819D02*
X54585714Y-56034819D01*
X44044833Y-56036319D02*
X43711500Y-55560128D01*
X43473405Y-56036319D02*
X43473405Y-55036319D01*
X43473405Y-55036319D02*
X43854357Y-55036319D01*
X43854357Y-55036319D02*
X43949595Y-55083938D01*
X43949595Y-55083938D02*
X43997214Y-55131557D01*
X43997214Y-55131557D02*
X44044833Y-55226795D01*
X44044833Y-55226795D02*
X44044833Y-55369652D01*
X44044833Y-55369652D02*
X43997214Y-55464890D01*
X43997214Y-55464890D02*
X43949595Y-55512509D01*
X43949595Y-55512509D02*
X43854357Y-55560128D01*
X43854357Y-55560128D02*
X43473405Y-55560128D01*
X44378167Y-55036319D02*
X44997214Y-55036319D01*
X44997214Y-55036319D02*
X44663881Y-55417271D01*
X44663881Y-55417271D02*
X44806738Y-55417271D01*
X44806738Y-55417271D02*
X44901976Y-55464890D01*
X44901976Y-55464890D02*
X44949595Y-55512509D01*
X44949595Y-55512509D02*
X44997214Y-55607747D01*
X44997214Y-55607747D02*
X44997214Y-55845842D01*
X44997214Y-55845842D02*
X44949595Y-55941080D01*
X44949595Y-55941080D02*
X44901976Y-55988700D01*
X44901976Y-55988700D02*
X44806738Y-56036319D01*
X44806738Y-56036319D02*
X44521024Y-56036319D01*
X44521024Y-56036319D02*
X44425786Y-55988700D01*
X44425786Y-55988700D02*
X44378167Y-55941080D01*
X41853333Y-56214819D02*
X41520000Y-55738628D01*
X41281905Y-56214819D02*
X41281905Y-55214819D01*
X41281905Y-55214819D02*
X41662857Y-55214819D01*
X41662857Y-55214819D02*
X41758095Y-55262438D01*
X41758095Y-55262438D02*
X41805714Y-55310057D01*
X41805714Y-55310057D02*
X41853333Y-55405295D01*
X41853333Y-55405295D02*
X41853333Y-55548152D01*
X41853333Y-55548152D02*
X41805714Y-55643390D01*
X41805714Y-55643390D02*
X41758095Y-55691009D01*
X41758095Y-55691009D02*
X41662857Y-55738628D01*
X41662857Y-55738628D02*
X41281905Y-55738628D01*
X42710476Y-55548152D02*
X42710476Y-56214819D01*
X42472381Y-55167200D02*
X42234286Y-55881485D01*
X42234286Y-55881485D02*
X42853333Y-55881485D01*
X58023333Y-65057319D02*
X57690000Y-64581128D01*
X57451905Y-65057319D02*
X57451905Y-64057319D01*
X57451905Y-64057319D02*
X57832857Y-64057319D01*
X57832857Y-64057319D02*
X57928095Y-64104938D01*
X57928095Y-64104938D02*
X57975714Y-64152557D01*
X57975714Y-64152557D02*
X58023333Y-64247795D01*
X58023333Y-64247795D02*
X58023333Y-64390652D01*
X58023333Y-64390652D02*
X57975714Y-64485890D01*
X57975714Y-64485890D02*
X57928095Y-64533509D01*
X57928095Y-64533509D02*
X57832857Y-64581128D01*
X57832857Y-64581128D02*
X57451905Y-64581128D01*
X58928095Y-64057319D02*
X58451905Y-64057319D01*
X58451905Y-64057319D02*
X58404286Y-64533509D01*
X58404286Y-64533509D02*
X58451905Y-64485890D01*
X58451905Y-64485890D02*
X58547143Y-64438271D01*
X58547143Y-64438271D02*
X58785238Y-64438271D01*
X58785238Y-64438271D02*
X58880476Y-64485890D01*
X58880476Y-64485890D02*
X58928095Y-64533509D01*
X58928095Y-64533509D02*
X58975714Y-64628747D01*
X58975714Y-64628747D02*
X58975714Y-64866842D01*
X58975714Y-64866842D02*
X58928095Y-64962080D01*
X58928095Y-64962080D02*
X58880476Y-65009700D01*
X58880476Y-65009700D02*
X58785238Y-65057319D01*
X58785238Y-65057319D02*
X58547143Y-65057319D01*
X58547143Y-65057319D02*
X58451905Y-65009700D01*
X58451905Y-65009700D02*
X58404286Y-64962080D01*
X47918095Y-56334819D02*
X47918095Y-57144342D01*
X47918095Y-57144342D02*
X47965714Y-57239580D01*
X47965714Y-57239580D02*
X48013333Y-57287200D01*
X48013333Y-57287200D02*
X48108571Y-57334819D01*
X48108571Y-57334819D02*
X48299047Y-57334819D01*
X48299047Y-57334819D02*
X48394285Y-57287200D01*
X48394285Y-57287200D02*
X48441904Y-57239580D01*
X48441904Y-57239580D02*
X48489523Y-57144342D01*
X48489523Y-57144342D02*
X48489523Y-56334819D01*
X48918095Y-56430057D02*
X48965714Y-56382438D01*
X48965714Y-56382438D02*
X49060952Y-56334819D01*
X49060952Y-56334819D02*
X49299047Y-56334819D01*
X49299047Y-56334819D02*
X49394285Y-56382438D01*
X49394285Y-56382438D02*
X49441904Y-56430057D01*
X49441904Y-56430057D02*
X49489523Y-56525295D01*
X49489523Y-56525295D02*
X49489523Y-56620533D01*
X49489523Y-56620533D02*
X49441904Y-56763390D01*
X49441904Y-56763390D02*
X48870476Y-57334819D01*
X48870476Y-57334819D02*
X49489523Y-57334819D01*
D13*
X61288095Y-35861839D02*
X61288095Y-36671362D01*
X61288095Y-36671362D02*
X61335714Y-36766600D01*
X61335714Y-36766600D02*
X61383333Y-36814220D01*
X61383333Y-36814220D02*
X61478571Y-36861839D01*
X61478571Y-36861839D02*
X61669047Y-36861839D01*
X61669047Y-36861839D02*
X61764285Y-36814220D01*
X61764285Y-36814220D02*
X61811904Y-36766600D01*
X61811904Y-36766600D02*
X61859523Y-36671362D01*
X61859523Y-36671362D02*
X61859523Y-35861839D01*
X62859523Y-36861839D02*
X62288095Y-36861839D01*
X62573809Y-36861839D02*
X62573809Y-35861839D01*
X62573809Y-35861839D02*
X62478571Y-36004696D01*
X62478571Y-36004696D02*
X62383333Y-36099934D01*
X62383333Y-36099934D02*
X62288095Y-36147553D01*
D12*
X55747333Y-55903580D02*
X55699714Y-55951200D01*
X55699714Y-55951200D02*
X55556857Y-55998819D01*
X55556857Y-55998819D02*
X55461619Y-55998819D01*
X55461619Y-55998819D02*
X55318762Y-55951200D01*
X55318762Y-55951200D02*
X55223524Y-55855961D01*
X55223524Y-55855961D02*
X55175905Y-55760723D01*
X55175905Y-55760723D02*
X55128286Y-55570247D01*
X55128286Y-55570247D02*
X55128286Y-55427390D01*
X55128286Y-55427390D02*
X55175905Y-55236914D01*
X55175905Y-55236914D02*
X55223524Y-55141676D01*
X55223524Y-55141676D02*
X55318762Y-55046438D01*
X55318762Y-55046438D02*
X55461619Y-54998819D01*
X55461619Y-54998819D02*
X55556857Y-54998819D01*
X55556857Y-54998819D02*
X55699714Y-55046438D01*
X55699714Y-55046438D02*
X55747333Y-55094057D01*
X56604476Y-54998819D02*
X56414000Y-54998819D01*
X56414000Y-54998819D02*
X56318762Y-55046438D01*
X56318762Y-55046438D02*
X56271143Y-55094057D01*
X56271143Y-55094057D02*
X56175905Y-55236914D01*
X56175905Y-55236914D02*
X56128286Y-55427390D01*
X56128286Y-55427390D02*
X56128286Y-55808342D01*
X56128286Y-55808342D02*
X56175905Y-55903580D01*
X56175905Y-55903580D02*
X56223524Y-55951200D01*
X56223524Y-55951200D02*
X56318762Y-55998819D01*
X56318762Y-55998819D02*
X56509238Y-55998819D01*
X56509238Y-55998819D02*
X56604476Y-55951200D01*
X56604476Y-55951200D02*
X56652095Y-55903580D01*
X56652095Y-55903580D02*
X56699714Y-55808342D01*
X56699714Y-55808342D02*
X56699714Y-55570247D01*
X56699714Y-55570247D02*
X56652095Y-55475009D01*
X56652095Y-55475009D02*
X56604476Y-55427390D01*
X56604476Y-55427390D02*
X56509238Y-55379771D01*
X56509238Y-55379771D02*
X56318762Y-55379771D01*
X56318762Y-55379771D02*
X56223524Y-55427390D01*
X56223524Y-55427390D02*
X56175905Y-55475009D01*
X56175905Y-55475009D02*
X56128286Y-55570247D01*
X37533333Y-36154819D02*
X37057143Y-36154819D01*
X37057143Y-36154819D02*
X37057143Y-35154819D01*
X38390476Y-36154819D02*
X37819048Y-36154819D01*
X38104762Y-36154819D02*
X38104762Y-35154819D01*
X38104762Y-35154819D02*
X38009524Y-35297676D01*
X38009524Y-35297676D02*
X37914286Y-35392914D01*
X37914286Y-35392914D02*
X37819048Y-35440533D01*
X51233333Y-44839580D02*
X51185714Y-44887200D01*
X51185714Y-44887200D02*
X51042857Y-44934819D01*
X51042857Y-44934819D02*
X50947619Y-44934819D01*
X50947619Y-44934819D02*
X50804762Y-44887200D01*
X50804762Y-44887200D02*
X50709524Y-44791961D01*
X50709524Y-44791961D02*
X50661905Y-44696723D01*
X50661905Y-44696723D02*
X50614286Y-44506247D01*
X50614286Y-44506247D02*
X50614286Y-44363390D01*
X50614286Y-44363390D02*
X50661905Y-44172914D01*
X50661905Y-44172914D02*
X50709524Y-44077676D01*
X50709524Y-44077676D02*
X50804762Y-43982438D01*
X50804762Y-43982438D02*
X50947619Y-43934819D01*
X50947619Y-43934819D02*
X51042857Y-43934819D01*
X51042857Y-43934819D02*
X51185714Y-43982438D01*
X51185714Y-43982438D02*
X51233333Y-44030057D01*
X52185714Y-44934819D02*
X51614286Y-44934819D01*
X51900000Y-44934819D02*
X51900000Y-43934819D01*
X51900000Y-43934819D02*
X51804762Y-44077676D01*
X51804762Y-44077676D02*
X51709524Y-44172914D01*
X51709524Y-44172914D02*
X51614286Y-44220533D01*
X39513333Y-56119580D02*
X39465714Y-56167200D01*
X39465714Y-56167200D02*
X39322857Y-56214819D01*
X39322857Y-56214819D02*
X39227619Y-56214819D01*
X39227619Y-56214819D02*
X39084762Y-56167200D01*
X39084762Y-56167200D02*
X38989524Y-56071961D01*
X38989524Y-56071961D02*
X38941905Y-55976723D01*
X38941905Y-55976723D02*
X38894286Y-55786247D01*
X38894286Y-55786247D02*
X38894286Y-55643390D01*
X38894286Y-55643390D02*
X38941905Y-55452914D01*
X38941905Y-55452914D02*
X38989524Y-55357676D01*
X38989524Y-55357676D02*
X39084762Y-55262438D01*
X39084762Y-55262438D02*
X39227619Y-55214819D01*
X39227619Y-55214819D02*
X39322857Y-55214819D01*
X39322857Y-55214819D02*
X39465714Y-55262438D01*
X39465714Y-55262438D02*
X39513333Y-55310057D01*
X39846667Y-55214819D02*
X40513333Y-55214819D01*
X40513333Y-55214819D02*
X40084762Y-56214819D01*
X63013333Y-42690819D02*
X62680000Y-42214628D01*
X62441905Y-42690819D02*
X62441905Y-41690819D01*
X62441905Y-41690819D02*
X62822857Y-41690819D01*
X62822857Y-41690819D02*
X62918095Y-41738438D01*
X62918095Y-41738438D02*
X62965714Y-41786057D01*
X62965714Y-41786057D02*
X63013333Y-41881295D01*
X63013333Y-41881295D02*
X63013333Y-42024152D01*
X63013333Y-42024152D02*
X62965714Y-42119390D01*
X62965714Y-42119390D02*
X62918095Y-42167009D01*
X62918095Y-42167009D02*
X62822857Y-42214628D01*
X62822857Y-42214628D02*
X62441905Y-42214628D01*
X63965714Y-42690819D02*
X63394286Y-42690819D01*
X63680000Y-42690819D02*
X63680000Y-41690819D01*
X63680000Y-41690819D02*
X63584762Y-41833676D01*
X63584762Y-41833676D02*
X63489524Y-41928914D01*
X63489524Y-41928914D02*
X63394286Y-41976533D01*
X48533333Y-40159580D02*
X48485714Y-40207200D01*
X48485714Y-40207200D02*
X48342857Y-40254819D01*
X48342857Y-40254819D02*
X48247619Y-40254819D01*
X48247619Y-40254819D02*
X48104762Y-40207200D01*
X48104762Y-40207200D02*
X48009524Y-40111961D01*
X48009524Y-40111961D02*
X47961905Y-40016723D01*
X47961905Y-40016723D02*
X47914286Y-39826247D01*
X47914286Y-39826247D02*
X47914286Y-39683390D01*
X47914286Y-39683390D02*
X47961905Y-39492914D01*
X47961905Y-39492914D02*
X48009524Y-39397676D01*
X48009524Y-39397676D02*
X48104762Y-39302438D01*
X48104762Y-39302438D02*
X48247619Y-39254819D01*
X48247619Y-39254819D02*
X48342857Y-39254819D01*
X48342857Y-39254819D02*
X48485714Y-39302438D01*
X48485714Y-39302438D02*
X48533333Y-39350057D01*
X48914286Y-39350057D02*
X48961905Y-39302438D01*
X48961905Y-39302438D02*
X49057143Y-39254819D01*
X49057143Y-39254819D02*
X49295238Y-39254819D01*
X49295238Y-39254819D02*
X49390476Y-39302438D01*
X49390476Y-39302438D02*
X49438095Y-39350057D01*
X49438095Y-39350057D02*
X49485714Y-39445295D01*
X49485714Y-39445295D02*
X49485714Y-39540533D01*
X49485714Y-39540533D02*
X49438095Y-39683390D01*
X49438095Y-39683390D02*
X48866667Y-40254819D01*
X48866667Y-40254819D02*
X49485714Y-40254819D01*
X44504761Y-36350057D02*
X44409523Y-36302438D01*
X44409523Y-36302438D02*
X44314285Y-36207200D01*
X44314285Y-36207200D02*
X44171428Y-36064342D01*
X44171428Y-36064342D02*
X44076190Y-36016723D01*
X44076190Y-36016723D02*
X43980952Y-36016723D01*
X44028571Y-36254819D02*
X43933333Y-36207200D01*
X43933333Y-36207200D02*
X43838095Y-36111961D01*
X43838095Y-36111961D02*
X43790476Y-35921485D01*
X43790476Y-35921485D02*
X43790476Y-35588152D01*
X43790476Y-35588152D02*
X43838095Y-35397676D01*
X43838095Y-35397676D02*
X43933333Y-35302438D01*
X43933333Y-35302438D02*
X44028571Y-35254819D01*
X44028571Y-35254819D02*
X44219047Y-35254819D01*
X44219047Y-35254819D02*
X44314285Y-35302438D01*
X44314285Y-35302438D02*
X44409523Y-35397676D01*
X44409523Y-35397676D02*
X44457142Y-35588152D01*
X44457142Y-35588152D02*
X44457142Y-35921485D01*
X44457142Y-35921485D02*
X44409523Y-36111961D01*
X44409523Y-36111961D02*
X44314285Y-36207200D01*
X44314285Y-36207200D02*
X44219047Y-36254819D01*
X44219047Y-36254819D02*
X44028571Y-36254819D01*
X45409523Y-36254819D02*
X44838095Y-36254819D01*
X45123809Y-36254819D02*
X45123809Y-35254819D01*
X45123809Y-35254819D02*
X45028571Y-35397676D01*
X45028571Y-35397676D02*
X44933333Y-35492914D01*
X44933333Y-35492914D02*
X44838095Y-35540533D01*
X53583333Y-65004819D02*
X53250000Y-64528628D01*
X53011905Y-65004819D02*
X53011905Y-64004819D01*
X53011905Y-64004819D02*
X53392857Y-64004819D01*
X53392857Y-64004819D02*
X53488095Y-64052438D01*
X53488095Y-64052438D02*
X53535714Y-64100057D01*
X53535714Y-64100057D02*
X53583333Y-64195295D01*
X53583333Y-64195295D02*
X53583333Y-64338152D01*
X53583333Y-64338152D02*
X53535714Y-64433390D01*
X53535714Y-64433390D02*
X53488095Y-64481009D01*
X53488095Y-64481009D02*
X53392857Y-64528628D01*
X53392857Y-64528628D02*
X53011905Y-64528628D01*
X54154762Y-64433390D02*
X54059524Y-64385771D01*
X54059524Y-64385771D02*
X54011905Y-64338152D01*
X54011905Y-64338152D02*
X53964286Y-64242914D01*
X53964286Y-64242914D02*
X53964286Y-64195295D01*
X53964286Y-64195295D02*
X54011905Y-64100057D01*
X54011905Y-64100057D02*
X54059524Y-64052438D01*
X54059524Y-64052438D02*
X54154762Y-64004819D01*
X54154762Y-64004819D02*
X54345238Y-64004819D01*
X54345238Y-64004819D02*
X54440476Y-64052438D01*
X54440476Y-64052438D02*
X54488095Y-64100057D01*
X54488095Y-64100057D02*
X54535714Y-64195295D01*
X54535714Y-64195295D02*
X54535714Y-64242914D01*
X54535714Y-64242914D02*
X54488095Y-64338152D01*
X54488095Y-64338152D02*
X54440476Y-64385771D01*
X54440476Y-64385771D02*
X54345238Y-64433390D01*
X54345238Y-64433390D02*
X54154762Y-64433390D01*
X54154762Y-64433390D02*
X54059524Y-64481009D01*
X54059524Y-64481009D02*
X54011905Y-64528628D01*
X54011905Y-64528628D02*
X53964286Y-64623866D01*
X53964286Y-64623866D02*
X53964286Y-64814342D01*
X53964286Y-64814342D02*
X54011905Y-64909580D01*
X54011905Y-64909580D02*
X54059524Y-64957200D01*
X54059524Y-64957200D02*
X54154762Y-65004819D01*
X54154762Y-65004819D02*
X54345238Y-65004819D01*
X54345238Y-65004819D02*
X54440476Y-64957200D01*
X54440476Y-64957200D02*
X54488095Y-64909580D01*
X54488095Y-64909580D02*
X54535714Y-64814342D01*
X54535714Y-64814342D02*
X54535714Y-64623866D01*
X54535714Y-64623866D02*
X54488095Y-64528628D01*
X54488095Y-64528628D02*
X54440476Y-64481009D01*
X54440476Y-64481009D02*
X54345238Y-64433390D01*
X43900095Y-62500819D02*
X44471523Y-62500819D01*
X44185809Y-63500819D02*
X44185809Y-62500819D01*
X44804857Y-63500819D02*
X44804857Y-62500819D01*
X44804857Y-62500819D02*
X45185809Y-62500819D01*
X45185809Y-62500819D02*
X45281047Y-62548438D01*
X45281047Y-62548438D02*
X45328666Y-62596057D01*
X45328666Y-62596057D02*
X45376285Y-62691295D01*
X45376285Y-62691295D02*
X45376285Y-62834152D01*
X45376285Y-62834152D02*
X45328666Y-62929390D01*
X45328666Y-62929390D02*
X45281047Y-62977009D01*
X45281047Y-62977009D02*
X45185809Y-63024628D01*
X45185809Y-63024628D02*
X44804857Y-63024628D01*
X46328666Y-63500819D02*
X45757238Y-63500819D01*
X46042952Y-63500819D02*
X46042952Y-62500819D01*
X46042952Y-62500819D02*
X45947714Y-62643676D01*
X45947714Y-62643676D02*
X45852476Y-62738914D01*
X45852476Y-62738914D02*
X45757238Y-62786533D01*
X40732095Y-62550819D02*
X41303523Y-62550819D01*
X41017809Y-63550819D02*
X41017809Y-62550819D01*
X41636857Y-63550819D02*
X41636857Y-62550819D01*
X41636857Y-62550819D02*
X42017809Y-62550819D01*
X42017809Y-62550819D02*
X42113047Y-62598438D01*
X42113047Y-62598438D02*
X42160666Y-62646057D01*
X42160666Y-62646057D02*
X42208285Y-62741295D01*
X42208285Y-62741295D02*
X42208285Y-62884152D01*
X42208285Y-62884152D02*
X42160666Y-62979390D01*
X42160666Y-62979390D02*
X42113047Y-63027009D01*
X42113047Y-63027009D02*
X42017809Y-63074628D01*
X42017809Y-63074628D02*
X41636857Y-63074628D01*
X43065428Y-62884152D02*
X43065428Y-63550819D01*
X42827333Y-62503200D02*
X42589238Y-63217485D01*
X42589238Y-63217485D02*
X43208285Y-63217485D01*
X39666666Y-46406819D02*
X39666666Y-47121104D01*
X39666666Y-47121104D02*
X39619047Y-47263961D01*
X39619047Y-47263961D02*
X39523809Y-47359200D01*
X39523809Y-47359200D02*
X39380952Y-47406819D01*
X39380952Y-47406819D02*
X39285714Y-47406819D01*
X40095238Y-46502057D02*
X40142857Y-46454438D01*
X40142857Y-46454438D02*
X40238095Y-46406819D01*
X40238095Y-46406819D02*
X40476190Y-46406819D01*
X40476190Y-46406819D02*
X40571428Y-46454438D01*
X40571428Y-46454438D02*
X40619047Y-46502057D01*
X40619047Y-46502057D02*
X40666666Y-46597295D01*
X40666666Y-46597295D02*
X40666666Y-46692533D01*
X40666666Y-46692533D02*
X40619047Y-46835390D01*
X40619047Y-46835390D02*
X40047619Y-47406819D01*
X40047619Y-47406819D02*
X40666666Y-47406819D01*
X59666666Y-46406819D02*
X59666666Y-47121104D01*
X59666666Y-47121104D02*
X59619047Y-47263961D01*
X59619047Y-47263961D02*
X59523809Y-47359200D01*
X59523809Y-47359200D02*
X59380952Y-47406819D01*
X59380952Y-47406819D02*
X59285714Y-47406819D01*
X60666666Y-47406819D02*
X60095238Y-47406819D01*
X60380952Y-47406819D02*
X60380952Y-46406819D01*
X60380952Y-46406819D02*
X60285714Y-46549676D01*
X60285714Y-46549676D02*
X60190476Y-46644914D01*
X60190476Y-46644914D02*
X60095238Y-46692533D01*
X55686666Y-65794819D02*
X55686666Y-66509104D01*
X55686666Y-66509104D02*
X55639047Y-66651961D01*
X55639047Y-66651961D02*
X55543809Y-66747200D01*
X55543809Y-66747200D02*
X55400952Y-66794819D01*
X55400952Y-66794819D02*
X55305714Y-66794819D01*
X56591428Y-66128152D02*
X56591428Y-66794819D01*
X56353333Y-65747200D02*
X56115238Y-66461485D01*
X56115238Y-66461485D02*
X56734285Y-66461485D01*
X53514819Y-50333333D02*
X54229104Y-50333333D01*
X54229104Y-50333333D02*
X54371961Y-50380952D01*
X54371961Y-50380952D02*
X54467200Y-50476190D01*
X54467200Y-50476190D02*
X54514819Y-50619047D01*
X54514819Y-50619047D02*
X54514819Y-50714285D01*
X53514819Y-49952380D02*
X53514819Y-49333333D01*
X53514819Y-49333333D02*
X53895771Y-49666666D01*
X53895771Y-49666666D02*
X53895771Y-49523809D01*
X53895771Y-49523809D02*
X53943390Y-49428571D01*
X53943390Y-49428571D02*
X53991009Y-49380952D01*
X53991009Y-49380952D02*
X54086247Y-49333333D01*
X54086247Y-49333333D02*
X54324342Y-49333333D01*
X54324342Y-49333333D02*
X54419580Y-49380952D01*
X54419580Y-49380952D02*
X54467200Y-49428571D01*
X54467200Y-49428571D02*
X54514819Y-49523809D01*
X54514819Y-49523809D02*
X54514819Y-49809523D01*
X54514819Y-49809523D02*
X54467200Y-49904761D01*
X54467200Y-49904761D02*
X54419580Y-49952380D01*
D14*
%TO.C,C4*%
X58341422Y-33330000D02*
X58858578Y-33330000D01*
X58341422Y-34750000D02*
X58858578Y-34750000D01*
%TO.C,C5*%
X57330000Y-58401078D02*
X57330000Y-57883922D01*
X58750000Y-58401078D02*
X58750000Y-57883922D01*
%TO.C,D1*%
X54800000Y-35250000D02*
X49400000Y-35250000D01*
X54800000Y-38550000D02*
X49400000Y-38550000D01*
X54800000Y-38550000D02*
X54800000Y-35250000D01*
%TO.C,D2*%
X54940000Y-60437500D02*
X54940000Y-63122500D01*
X56860000Y-60437500D02*
X54940000Y-60437500D01*
X56860000Y-63122500D02*
X56860000Y-60437500D01*
%TO.C,R2*%
X52960000Y-58411078D02*
X52960000Y-57893922D01*
X54380000Y-58411078D02*
X54380000Y-57893922D01*
%TO.C,R3*%
X43497500Y-57938922D02*
X43497500Y-58456078D01*
X44917500Y-57938922D02*
X44917500Y-58456078D01*
%TO.C,R4*%
X41277500Y-58476078D02*
X41277500Y-57958922D01*
X42697500Y-58476078D02*
X42697500Y-57958922D01*
%TO.C,R5*%
X57380000Y-62398578D02*
X57380000Y-61881422D01*
X58800000Y-62398578D02*
X58800000Y-61881422D01*
%TO.C,U2*%
X48010000Y-58380000D02*
X48010000Y-58830000D01*
X48010000Y-61600000D02*
X48010000Y-61150000D01*
X48460000Y-58380000D02*
X48010000Y-58380000D01*
X48460000Y-61600000D02*
X48010000Y-61600000D01*
X50780000Y-58380000D02*
X51230000Y-58380000D01*
X50780000Y-61600000D02*
X51230000Y-61600000D01*
X51230000Y-58380000D02*
X51230000Y-58830000D01*
D15*
%TO.C,U1*%
X57050000Y-39350000D02*
X57050000Y-36250000D01*
X60150000Y-39350000D02*
X60150000Y-36250000D01*
D10*
X57750000Y-40245000D02*
G75*
G02*
X57550000Y-40245000I-100000J0D01*
G01*
X57550000Y-40245000D02*
G75*
G02*
X57750000Y-40245000I100000J0D01*
G01*
D14*
%TO.C,C6*%
X55204000Y-58402578D02*
X55204000Y-57885422D01*
X56624000Y-58402578D02*
X56624000Y-57885422D01*
%TO.C,L1*%
X34440000Y-43450000D02*
X34440000Y-37950000D01*
X35050000Y-37340000D02*
X35900000Y-37340000D01*
X35900000Y-44060000D02*
X35050000Y-44060000D01*
X39700000Y-37340000D02*
X40550000Y-37340000D01*
X40550000Y-44060000D02*
X39700000Y-44060000D01*
X41160000Y-37950000D02*
X41160000Y-43450000D01*
X34440000Y-37950000D02*
G75*
G02*
X35050000Y-37340000I610000J0D01*
G01*
X35050000Y-44060000D02*
G75*
G02*
X34440000Y-43450000I0J610000D01*
G01*
X40550000Y-37340000D02*
G75*
G02*
X41160000Y-37950000I0J-610000D01*
G01*
X41160000Y-43450000D02*
G75*
G02*
X40550000Y-44060000I-610000J0D01*
G01*
%TO.C,C1*%
X51661252Y-42065000D02*
X51138748Y-42065000D01*
X51661252Y-43535000D02*
X51138748Y-43535000D01*
%TO.C,C7*%
X38937500Y-58483578D02*
X38937500Y-57966422D01*
X40357500Y-58483578D02*
X40357500Y-57966422D01*
%TO.C,R1*%
X60252064Y-40690000D02*
X56147936Y-40690000D01*
X60252064Y-44110000D02*
X56147936Y-44110000D01*
%TO.C,C2*%
X51858578Y-39190000D02*
X51341422Y-39190000D01*
X51858578Y-40610000D02*
X51341422Y-40610000D01*
%TO.C,Q1*%
X41915000Y-37240000D02*
X41915000Y-43360000D01*
X42215000Y-37240000D02*
X41915000Y-37240000D01*
X46935000Y-43360000D02*
X47285000Y-43360000D01*
X46985000Y-37240000D02*
X47285000Y-37240000D01*
X47285000Y-37240000D02*
X47285000Y-43360000D01*
%TO.C,R8*%
X52980000Y-61861422D02*
X52980000Y-62378578D01*
X54400000Y-61861422D02*
X54400000Y-62378578D01*
%TO.C,TP1*%
X49550000Y-62750000D02*
X50950000Y-62750000D01*
X49550000Y-64150000D02*
X49550000Y-62750000D01*
X50950000Y-62750000D02*
X50950000Y-64150000D01*
X50950000Y-64150000D02*
X49550000Y-64150000D01*
%TO.C,TP4*%
X47300000Y-62750000D02*
X48700000Y-62750000D01*
X47300000Y-64150000D02*
X47300000Y-62750000D01*
X48700000Y-62750000D02*
X48700000Y-64150000D01*
X48700000Y-64150000D02*
X47300000Y-64150000D01*
%TO.C,J2*%
X42286000Y-50000000D02*
G75*
G02*
X37714000Y-50000000I-2286000J0D01*
G01*
X37714000Y-50000000D02*
G75*
G02*
X42286000Y-50000000I2286000J0D01*
G01*
%TO.C,J1*%
X62286000Y-50000000D02*
G75*
G02*
X57714000Y-50000000I-2286000J0D01*
G01*
X57714000Y-50000000D02*
G75*
G02*
X62286000Y-50000000I2286000J0D01*
G01*
%TO.C,J4*%
X44550000Y-65070000D02*
X44550000Y-67190000D01*
X52610000Y-65070000D02*
X44550000Y-65070000D01*
X52610000Y-65070000D02*
X52610000Y-67190000D01*
X52610000Y-67190000D02*
X44550000Y-67190000D01*
X53610000Y-65070000D02*
X54670000Y-65070000D01*
X54670000Y-65070000D02*
X54670000Y-66130000D01*
%TO.C,J3*%
X46940000Y-47940000D02*
X46940000Y-52060000D01*
X47240000Y-47940000D02*
X46940000Y-47940000D01*
X47240000Y-52060000D02*
X46940000Y-52060000D01*
X49240000Y-47940000D02*
X48760000Y-47940000D01*
X49240000Y-52060000D02*
X48760000Y-52060000D01*
X51240000Y-47940000D02*
X50760000Y-47940000D01*
X51240000Y-52060000D02*
X50760000Y-52060000D01*
X52760000Y-46685000D02*
X52760000Y-47940000D01*
X53060000Y-47940000D02*
X52760000Y-47940000D01*
X53060000Y-47940000D02*
X53060000Y-52060000D01*
X53060000Y-52060000D02*
X52760000Y-52060000D01*
%TD*%
%LPC*%
D16*
%TO.C,C4*%
X57662500Y-34040000D03*
X59537500Y-34040000D03*
%TD*%
D17*
%TO.C,C5*%
X58040000Y-59080000D03*
X58040000Y-57205000D03*
%TD*%
D18*
%TO.C,D1*%
X53400000Y-36900000D03*
X49400000Y-36900000D03*
%TD*%
D19*
%TO.C,D2*%
X55900000Y-61185000D03*
X55900000Y-63060000D03*
%TD*%
D17*
%TO.C,R2*%
X53670000Y-59090000D03*
X53670000Y-57215000D03*
%TD*%
D19*
%TO.C,R3*%
X44207500Y-57260000D03*
X44207500Y-59135000D03*
%TD*%
D17*
%TO.C,R4*%
X41987500Y-59155000D03*
X41987500Y-57280000D03*
%TD*%
%TO.C,R5*%
X58090000Y-63077500D03*
X58090000Y-61202500D03*
%TD*%
D20*
%TO.C,U2*%
X51070000Y-60790000D03*
D21*
X51070000Y-60390000D03*
X51070000Y-59990000D03*
X51070000Y-59590000D03*
D22*
X51070000Y-59190000D03*
D23*
X50420000Y-58540000D03*
D24*
X50020000Y-58540000D03*
X49620000Y-58540000D03*
X49220000Y-58540000D03*
D25*
X48820000Y-58540000D03*
D26*
X48170000Y-59190000D03*
D21*
X48170000Y-59590000D03*
X48170000Y-59990000D03*
X48170000Y-60390000D03*
D27*
X48170000Y-60790000D03*
D28*
X48820000Y-61440000D03*
D24*
X49220000Y-61440000D03*
X49620000Y-61440000D03*
X50020000Y-61440000D03*
D29*
X50420000Y-61440000D03*
D30*
X49620000Y-59990000D03*
%TD*%
D31*
%TO.C,H1*%
X32000000Y-50000000D03*
%TD*%
D32*
%TO.C,U1*%
X57650000Y-39285000D03*
X58600000Y-39285000D03*
X59550000Y-39285000D03*
X59550000Y-36315000D03*
X58600000Y-36315000D03*
X57650000Y-36315000D03*
D33*
X58600000Y-37800000D03*
%TD*%
D17*
%TO.C,C6*%
X55914000Y-59081500D03*
X55914000Y-57206500D03*
%TD*%
D34*
%TO.C,L1*%
X37800000Y-43550000D03*
X37800000Y-37850000D03*
%TD*%
D35*
%TO.C,C1*%
X52350000Y-42800000D03*
X50450000Y-42800000D03*
%TD*%
D17*
%TO.C,C7*%
X39647500Y-59162500D03*
X39647500Y-57287500D03*
%TD*%
D36*
%TO.C,R1*%
X61100000Y-42400000D03*
X55300000Y-42400000D03*
%TD*%
D37*
%TO.C,C2*%
X52537500Y-39900000D03*
X50662500Y-39900000D03*
%TD*%
D38*
%TO.C,Q1*%
X44600000Y-39650000D03*
D39*
X42695000Y-43200000D03*
X43965000Y-43200000D03*
X45235000Y-43200000D03*
X46505000Y-43200000D03*
%TD*%
D19*
%TO.C,R8*%
X53690000Y-61182500D03*
X53690000Y-63057500D03*
%TD*%
D40*
%TO.C,TP1*%
X50250000Y-63450000D03*
%TD*%
%TO.C,TP4*%
X48000000Y-63450000D03*
%TD*%
D41*
%TO.C,J2*%
X40000000Y-50000000D03*
%TD*%
%TO.C,J1*%
X60000000Y-50000000D03*
%TD*%
D31*
%TO.C,H2*%
X68000000Y-50000000D03*
%TD*%
D42*
%TO.C,J4*%
X53610000Y-66130000D03*
D43*
X51610000Y-66130000D03*
X49610000Y-66130000D03*
X47610000Y-66130000D03*
X45610000Y-66130000D03*
%TD*%
D44*
%TO.C,J3*%
X51000000Y-50000000D03*
X49000000Y-50000000D03*
D45*
X52000000Y-47915000D03*
X52000000Y-52085000D03*
X50000000Y-47915000D03*
X50000000Y-52085000D03*
X48000000Y-47915000D03*
X48000000Y-52085000D03*
%TD*%
%LPD*%
M02*
